<svg width="1440" height="788" viewBox="0 0 1440 788" fill="none" xmlns="http://www.w3.org/2000/svg">
<g clip-path="url(#clip0_1577_438)">
<path d="M720 118C928.588 118 1117.38 176.044 1254.01 269.836C1390.63 363.631 1475 493.107 1475 636C1475 778.893 1390.63 908.369 1254.01 1002.16C1117.38 1095.96 928.588 1154 720 1154C511.412 1154 322.615 1095.96 185.993 1002.16C49.3665 908.369 -35 778.893 -35 636C-35 493.107 49.3665 363.631 185.993 269.836C322.615 176.044 511.412 118 720 118Z" stroke="url(#paint0_linear_1577_438)" stroke-width="2"/>
<path d="M720 308C928.588 308 1117.38 366.044 1254.01 459.836C1390.63 553.631 1475 683.107 1475 826C1475 968.893 1390.63 1098.37 1254.01 1192.16C1117.38 1285.96 928.588 1344 720 1344C511.412 1344 322.615 1285.96 185.993 1192.16C49.3665 1098.37 -35 968.893 -35 826C-35 683.107 49.3665 553.631 185.993 459.836C322.615 366.044 511.412 308 720 308Z" stroke="url(#paint1_linear_1577_438)" stroke-width="2"/>
<path d="M720 537C928.588 537 1117.38 595.044 1254.01 688.836C1390.63 782.631 1475 912.107 1475 1055C1475 1197.89 1390.63 1327.37 1254.01 1421.16C1117.38 1514.96 928.588 1573 720 1573C511.412 1573 322.615 1514.96 185.993 1421.16C49.3665 1327.37 -35 1197.89 -35 1055C-35 912.107 49.3665 782.631 185.993 688.836C322.615 595.044 511.412 537 720 537Z" stroke="url(#paint2_linear_1577_438)" stroke-width="2"/>
<rect x="943" y="500" width="140" height="140" rx="70" fill="#F3F3F3"/>
<path d="M988 559.847V537.347L1013 532.652L1038 537.347V559.847H988Z" fill="#FFD54F"/>
<path d="M988 559.847L1013 532.652L1038 559.847H988Z" fill="#FFECB3"/>
<path d="M973 559.848L1013 607.348L1053 559.848H973Z" fill="#FFA000"/>
<path d="M988 559.848L1013 607.348L1038 559.848H988Z" fill="#FFCA28"/>
<path d="M973 559.848L988 537.348V559.848H973Z" fill="#FFC107"/>
<path d="M1038 537.348V559.848H1053L1038 537.348Z" fill="#FFC107"/>
<rect x="402" y="506" width="140" height="140" rx="70" fill="#F3F3F3"/>
<g clip-path="url(#clip1_1577_438)">
<path d="M531.167 582.991C531.055 582.996 530.946 583.036 530.859 583.106C530.771 583.176 530.708 583.271 530.68 583.379C529.45 586.842 527.788 588.906 526.421 588.906C525.635 588.906 525.317 588.041 525.317 586.683C525.317 583.29 527.376 576.096 528.413 572.815C528.528 572.473 528.594 572.118 528.609 571.76C528.609 570.806 528.083 570.336 526.775 570.336C525.364 570.336 523.848 570.879 522.37 573.439C521.86 571.19 520.319 570.205 518.162 570.205C515.672 570.205 513.267 571.787 511.287 574.35C509.307 576.914 506.965 577.756 505.229 577.341C506.49 574.296 506.957 572.023 506.957 570.333C506.957 567.684 505.633 566.086 503.488 566.086C500.231 566.086 498.353 569.154 498.353 572.38C498.353 574.874 499.5 577.422 502.019 578.682C499.905 583.398 496.825 587.661 495.654 587.661C494.141 587.661 493.689 580.358 493.784 575.134C493.839 572.136 494.09 571.985 494.09 571.077C494.09 570.557 493.748 570.201 492.373 570.201C489.171 570.201 488.181 572.877 488.028 575.952C487.98 577.12 487.795 578.278 487.478 579.404C486.138 584.12 483.38 587.696 481.585 587.696C480.752 587.696 480.524 586.873 480.524 585.795C480.524 582.402 482.449 578.163 482.449 574.548C482.449 571.888 481.27 570.208 479.043 570.208C476.422 570.208 472.953 573.288 469.672 579.059C470.753 574.641 471.197 570.364 467.998 570.364C467.305 570.373 466.625 570.548 466.014 570.872C465.809 570.966 465.637 571.12 465.522 571.312C465.406 571.504 465.352 571.727 465.366 571.95C465.673 576.654 461.528 588.7 457.595 588.7C456.88 588.7 456.534 587.924 456.534 586.703C456.534 583.301 458.585 576.127 459.618 572.838C459.741 572.479 459.81 572.104 459.822 571.725C459.822 570.825 459.257 570.364 457.98 570.364C456.577 570.364 455.053 570.891 453.583 573.443C453.069 571.194 451.525 570.208 449.372 570.208C445.836 570.208 441.907 573.897 440.154 578.706C437.832 585.124 433.153 591.326 426.851 591.326C421.135 591.326 418.117 586.629 418.117 579.21C418.117 568.494 426.085 559.741 431.994 559.741C434.819 559.741 436.171 561.517 436.171 564.244C436.171 567.544 434.304 569.076 434.304 570.333C434.304 570.72 434.626 571.108 435.271 571.108C437.84 571.108 440.862 568.13 440.862 564.065C440.862 560.001 437.51 557.007 431.597 557.007C421.83 557.007 412 566.703 412 579.14C412 589.03 416.943 594.994 425.492 594.994C431.322 594.994 436.418 590.519 439.164 585.299C439.475 589.627 441.467 591.892 444.504 591.892C447.203 591.892 449.387 590.306 451.057 587.513C451.697 590.434 453.414 591.861 455.619 591.861C458.157 591.861 460.282 590.275 462.298 587.323C462.266 589.65 462.801 591.818 464.836 591.818C465.794 591.818 466.942 591.597 467.146 590.771C469.287 582.029 474.579 574.893 476.182 574.893C476.662 574.893 476.795 575.351 476.795 575.89C476.795 578.264 475.098 583.135 475.098 586.241C475.098 589.6 476.544 591.822 479.534 591.822C482.846 591.822 486.213 587.82 488.456 581.967C489.159 587.436 490.676 591.845 493.053 591.845C495.968 591.845 501.146 585.787 504.286 579.373C505.989 579.62 507.724 579.218 509.138 578.248C508.361 580.164 507.954 582.207 507.939 584.271C507.939 590.224 510.819 591.892 513.299 591.892C515.994 591.892 518.178 590.306 519.852 587.513C520.402 590.03 521.816 591.853 524.405 591.853C528.46 591.853 531.984 587.761 531.984 584.403C532 583.519 531.615 582.991 531.167 582.991ZM446.983 588.595C445.344 588.595 444.704 586.966 444.704 584.539C444.704 580.323 447.627 573.292 450.715 573.292C452.067 573.292 452.574 574.843 452.574 576.782C452.574 581.052 449.796 588.595 446.983 588.595ZM503.087 576.01C502.178 574.835 501.707 573.385 501.755 571.907C501.755 570.189 502.392 568.739 503.154 568.739C503.916 568.739 504.152 569.479 504.152 570.511C504.148 572.233 503.523 574.75 503.087 576.01ZM515.789 588.595C514.151 588.595 513.511 586.722 513.511 584.539C513.511 580.47 516.434 573.292 519.545 573.292C520.897 573.292 521.376 574.843 521.376 576.782C521.376 581.052 518.646 588.595 515.789 588.595Z" fill="url(#paint3_linear_1577_438)"/>
<path d="M531.167 582.991C531.055 582.996 530.946 583.036 530.859 583.106C530.771 583.176 530.708 583.271 530.68 583.379C529.45 586.842 527.788 588.906 526.421 588.906C525.635 588.906 525.317 588.041 525.317 586.683C525.317 583.29 527.376 576.096 528.413 572.815C528.528 572.473 528.594 572.118 528.609 571.76C528.609 570.806 528.083 570.336 526.775 570.336C525.364 570.336 523.848 570.879 522.37 573.439C521.86 571.19 520.319 570.205 518.162 570.205C515.672 570.205 513.267 571.787 511.287 574.35C509.307 576.914 506.965 577.756 505.229 577.341C506.49 574.296 506.957 572.023 506.957 570.333C506.957 567.684 505.633 566.086 503.488 566.086C500.231 566.086 498.353 569.154 498.353 572.38C498.353 574.874 499.5 577.422 502.019 578.682C499.905 583.398 496.825 587.661 495.654 587.661C494.141 587.661 493.689 580.358 493.784 575.134C493.839 572.136 494.09 571.985 494.09 571.077C494.09 570.557 493.748 570.201 492.373 570.201C489.171 570.201 488.181 572.877 488.028 575.952C487.98 577.12 487.795 578.278 487.478 579.404C486.138 584.12 483.38 587.696 481.585 587.696C480.752 587.696 480.524 586.873 480.524 585.795C480.524 582.402 482.449 578.163 482.449 574.548C482.449 571.888 481.27 570.208 479.043 570.208C476.422 570.208 472.953 573.288 469.672 579.059C470.753 574.641 471.197 570.364 467.998 570.364C467.305 570.373 466.625 570.548 466.014 570.872C465.809 570.966 465.637 571.12 465.522 571.312C465.406 571.504 465.352 571.727 465.366 571.95C465.673 576.654 461.528 588.7 457.595 588.7C456.88 588.7 456.534 587.924 456.534 586.703C456.534 583.301 458.585 576.127 459.618 572.838C459.741 572.479 459.81 572.104 459.822 571.725C459.822 570.825 459.257 570.364 457.98 570.364C456.577 570.364 455.053 570.891 453.583 573.443C453.069 571.194 451.525 570.208 449.372 570.208C445.836 570.208 441.907 573.897 440.154 578.706C437.832 585.124 433.153 591.326 426.851 591.326C421.135 591.326 418.117 586.629 418.117 579.21C418.117 568.494 426.085 559.741 431.994 559.741C434.819 559.741 436.171 561.517 436.171 564.244C436.171 567.544 434.304 569.076 434.304 570.333C434.304 570.72 434.626 571.108 435.271 571.108C437.84 571.108 440.862 568.13 440.862 564.065C440.862 560.001 437.51 557.007 431.597 557.007C421.83 557.007 412 566.703 412 579.14C412 589.03 416.943 594.994 425.492 594.994C431.322 594.994 436.418 590.519 439.164 585.299C439.475 589.627 441.467 591.892 444.504 591.892C447.203 591.892 449.387 590.306 451.057 587.513C451.697 590.434 453.414 591.861 455.619 591.861C458.157 591.861 460.282 590.275 462.298 587.323C462.266 589.65 462.801 591.818 464.836 591.818C465.794 591.818 466.942 591.597 467.146 590.771C469.287 582.029 474.579 574.893 476.182 574.893C476.662 574.893 476.795 575.351 476.795 575.89C476.795 578.264 475.098 583.135 475.098 586.241C475.098 589.6 476.544 591.822 479.534 591.822C482.846 591.822 486.213 587.82 488.456 581.967C489.159 587.436 490.676 591.845 493.053 591.845C495.968 591.845 501.146 585.787 504.286 579.373C505.989 579.62 507.724 579.218 509.138 578.248C508.361 580.164 507.954 582.207 507.939 584.271C507.939 590.224 510.819 591.892 513.299 591.892C515.994 591.892 518.178 590.306 519.852 587.513C520.402 590.03 521.816 591.853 524.405 591.853C528.46 591.853 531.984 587.761 531.984 584.403C532 583.519 531.615 582.991 531.167 582.991ZM446.983 588.595C445.344 588.595 444.704 586.966 444.704 584.539C444.704 580.323 447.627 573.292 450.715 573.292C452.067 573.292 452.574 574.843 452.574 576.782C452.574 581.052 449.796 588.595 446.983 588.595ZM503.087 576.01C502.178 574.835 501.707 573.385 501.755 571.907C501.755 570.189 502.392 568.739 503.154 568.739C503.916 568.739 504.152 569.479 504.152 570.511C504.148 572.233 503.523 574.75 503.087 576.01ZM515.789 588.595C514.151 588.595 513.511 586.722 513.511 584.539C513.511 580.47 516.434 573.292 519.545 573.292C520.897 573.292 521.376 574.843 521.376 576.782C521.376 581.052 518.646 588.595 515.789 588.595Z" fill="url(#paint4_radial_1577_438)"/>
<path d="M531.167 582.991C531.055 582.996 530.946 583.036 530.859 583.106C530.771 583.176 530.708 583.271 530.68 583.379C529.45 586.842 527.788 588.906 526.421 588.906C525.635 588.906 525.317 588.041 525.317 586.683C525.317 583.29 527.376 576.096 528.413 572.815C528.528 572.473 528.594 572.118 528.609 571.76C528.609 570.806 528.083 570.336 526.775 570.336C525.364 570.336 523.848 570.879 522.37 573.439C521.86 571.19 520.319 570.205 518.162 570.205C515.672 570.205 513.267 571.787 511.287 574.35C509.307 576.914 506.965 577.756 505.229 577.341C506.49 574.296 506.957 572.023 506.957 570.333C506.957 567.684 505.633 566.086 503.488 566.086C500.231 566.086 498.353 569.154 498.353 572.38C498.353 574.874 499.5 577.422 502.019 578.682C499.905 583.398 496.825 587.661 495.654 587.661C494.141 587.661 493.689 580.358 493.784 575.134C493.839 572.136 494.09 571.985 494.09 571.077C494.09 570.557 493.748 570.201 492.373 570.201C489.171 570.201 488.181 572.877 488.028 575.952C487.98 577.12 487.795 578.278 487.478 579.404C486.138 584.12 483.38 587.696 481.585 587.696C480.752 587.696 480.524 586.873 480.524 585.795C480.524 582.402 482.449 578.163 482.449 574.548C482.449 571.888 481.27 570.208 479.043 570.208C476.422 570.208 472.953 573.288 469.672 579.059C470.753 574.641 471.197 570.364 467.998 570.364C467.305 570.373 466.625 570.548 466.014 570.872C465.809 570.966 465.637 571.12 465.522 571.312C465.406 571.504 465.352 571.727 465.366 571.95C465.673 576.654 461.528 588.7 457.595 588.7C456.88 588.7 456.534 587.924 456.534 586.703C456.534 583.301 458.585 576.127 459.618 572.838C459.741 572.479 459.81 572.104 459.822 571.725C459.822 570.825 459.257 570.364 457.98 570.364C456.577 570.364 455.053 570.891 453.583 573.443C453.069 571.194 451.525 570.208 449.372 570.208C445.836 570.208 441.907 573.897 440.154 578.706C437.832 585.124 433.153 591.326 426.851 591.326C421.135 591.326 418.117 586.629 418.117 579.21C418.117 568.494 426.085 559.741 431.994 559.741C434.819 559.741 436.171 561.517 436.171 564.244C436.171 567.544 434.304 569.076 434.304 570.333C434.304 570.72 434.626 571.108 435.271 571.108C437.84 571.108 440.862 568.13 440.862 564.065C440.862 560.001 437.51 557.007 431.597 557.007C421.83 557.007 412 566.703 412 579.14C412 589.03 416.943 594.994 425.492 594.994C431.322 594.994 436.418 590.519 439.164 585.299C439.475 589.627 441.467 591.892 444.504 591.892C447.203 591.892 449.387 590.306 451.057 587.513C451.697 590.434 453.414 591.861 455.619 591.861C458.157 591.861 460.282 590.275 462.298 587.323C462.266 589.65 462.801 591.818 464.836 591.818C465.794 591.818 466.942 591.597 467.146 590.771C469.287 582.029 474.579 574.893 476.182 574.893C476.662 574.893 476.795 575.351 476.795 575.89C476.795 578.264 475.098 583.135 475.098 586.241C475.098 589.6 476.544 591.822 479.534 591.822C482.846 591.822 486.213 587.82 488.456 581.967C489.159 587.436 490.676 591.845 493.053 591.845C495.968 591.845 501.146 585.787 504.286 579.373C505.989 579.62 507.724 579.218 509.138 578.248C508.361 580.164 507.954 582.207 507.939 584.271C507.939 590.224 510.819 591.892 513.299 591.892C515.994 591.892 518.178 590.306 519.852 587.513C520.402 590.03 521.816 591.853 524.405 591.853C528.46 591.853 531.984 587.761 531.984 584.403C532 583.519 531.615 582.991 531.167 582.991ZM446.983 588.595C445.344 588.595 444.704 586.966 444.704 584.539C444.704 580.323 447.627 573.292 450.715 573.292C452.067 573.292 452.574 574.843 452.574 576.782C452.574 581.052 449.796 588.595 446.983 588.595ZM503.087 576.01C502.178 574.835 501.707 573.385 501.755 571.907C501.755 570.189 502.392 568.739 503.154 568.739C503.916 568.739 504.152 569.479 504.152 570.511C504.148 572.233 503.523 574.75 503.087 576.01ZM515.789 588.595C514.151 588.595 513.511 586.722 513.511 584.539C513.511 580.47 516.434 573.292 519.545 573.292C520.897 573.292 521.376 574.843 521.376 576.782C521.376 581.052 518.646 588.595 515.789 588.595Z" fill="url(#paint5_radial_1577_438)"/>
<path d="M531.167 582.991C531.055 582.996 530.946 583.036 530.859 583.106C530.771 583.176 530.708 583.271 530.68 583.379C529.45 586.842 527.788 588.906 526.421 588.906C525.635 588.906 525.317 588.041 525.317 586.683C525.317 583.29 527.376 576.096 528.413 572.815C528.528 572.473 528.594 572.118 528.609 571.76C528.609 570.806 528.083 570.336 526.775 570.336C525.364 570.336 523.848 570.879 522.37 573.439C521.86 571.19 520.319 570.205 518.162 570.205C515.672 570.205 513.267 571.787 511.287 574.35C509.307 576.914 506.965 577.756 505.229 577.341C506.49 574.296 506.957 572.023 506.957 570.333C506.957 567.684 505.633 566.086 503.488 566.086C500.231 566.086 498.353 569.154 498.353 572.38C498.353 574.874 499.5 577.422 502.019 578.682C499.905 583.398 496.825 587.661 495.654 587.661C494.141 587.661 493.689 580.358 493.784 575.134C493.839 572.136 494.09 571.985 494.09 571.077C494.09 570.557 493.748 570.201 492.373 570.201C489.171 570.201 488.181 572.877 488.028 575.952C487.98 577.12 487.795 578.278 487.478 579.404C486.138 584.12 483.38 587.696 481.585 587.696C480.752 587.696 480.524 586.873 480.524 585.795C480.524 582.402 482.449 578.163 482.449 574.548C482.449 571.888 481.27 570.208 479.043 570.208C476.422 570.208 472.953 573.288 469.672 579.059C470.753 574.641 471.197 570.364 467.998 570.364C467.305 570.373 466.625 570.548 466.014 570.872C465.809 570.966 465.637 571.12 465.522 571.312C465.406 571.504 465.352 571.727 465.366 571.95C465.673 576.654 461.528 588.7 457.595 588.7C456.88 588.7 456.534 587.924 456.534 586.703C456.534 583.301 458.585 576.127 459.618 572.838C459.741 572.479 459.81 572.104 459.822 571.725C459.822 570.825 459.257 570.364 457.98 570.364C456.577 570.364 455.053 570.891 453.583 573.443C453.069 571.194 451.525 570.208 449.372 570.208C445.836 570.208 441.907 573.897 440.154 578.706C437.832 585.124 433.153 591.326 426.851 591.326C421.135 591.326 418.117 586.629 418.117 579.21C418.117 568.494 426.085 559.741 431.994 559.741C434.819 559.741 436.171 561.517 436.171 564.244C436.171 567.544 434.304 569.076 434.304 570.333C434.304 570.72 434.626 571.108 435.271 571.108C437.84 571.108 440.862 568.13 440.862 564.065C440.862 560.001 437.51 557.007 431.597 557.007C421.83 557.007 412 566.703 412 579.14C412 589.03 416.943 594.994 425.492 594.994C431.322 594.994 436.418 590.519 439.164 585.299C439.475 589.627 441.467 591.892 444.504 591.892C447.203 591.892 449.387 590.306 451.057 587.513C451.697 590.434 453.414 591.861 455.619 591.861C458.157 591.861 460.282 590.275 462.298 587.323C462.266 589.65 462.801 591.818 464.836 591.818C465.794 591.818 466.942 591.597 467.146 590.771C469.287 582.029 474.579 574.893 476.182 574.893C476.662 574.893 476.795 575.351 476.795 575.89C476.795 578.264 475.098 583.135 475.098 586.241C475.098 589.6 476.544 591.822 479.534 591.822C482.846 591.822 486.213 587.82 488.456 581.967C489.159 587.436 490.676 591.845 493.053 591.845C495.968 591.845 501.146 585.787 504.286 579.373C505.989 579.62 507.724 579.218 509.138 578.248C508.361 580.164 507.954 582.207 507.939 584.271C507.939 590.224 510.819 591.892 513.299 591.892C515.994 591.892 518.178 590.306 519.852 587.513C520.402 590.03 521.816 591.853 524.405 591.853C528.46 591.853 531.984 587.761 531.984 584.403C532 583.519 531.615 582.991 531.167 582.991ZM446.983 588.595C445.344 588.595 444.704 586.966 444.704 584.539C444.704 580.323 447.627 573.292 450.715 573.292C452.067 573.292 452.574 574.843 452.574 576.782C452.574 581.052 449.796 588.595 446.983 588.595ZM503.087 576.01C502.178 574.835 501.707 573.385 501.755 571.907C501.755 570.189 502.392 568.739 503.154 568.739C503.916 568.739 504.152 569.479 504.152 570.511C504.148 572.233 503.523 574.75 503.087 576.01ZM515.789 588.595C514.151 588.595 513.511 586.722 513.511 584.539C513.511 580.47 516.434 573.292 519.545 573.292C520.897 573.292 521.376 574.843 521.376 576.782C521.376 581.052 518.646 588.595 515.789 588.595Z" fill="url(#paint6_radial_1577_438)"/>
<path d="M531.167 582.991C531.055 582.996 530.946 583.036 530.859 583.106C530.771 583.176 530.708 583.271 530.68 583.379C529.45 586.842 527.788 588.906 526.421 588.906C525.635 588.906 525.317 588.041 525.317 586.683C525.317 583.29 527.376 576.096 528.413 572.815C528.528 572.473 528.594 572.118 528.609 571.76C528.609 570.806 528.083 570.336 526.775 570.336C525.364 570.336 523.848 570.879 522.37 573.439C521.86 571.19 520.319 570.205 518.162 570.205C515.672 570.205 513.267 571.787 511.287 574.35C509.307 576.914 506.965 577.756 505.229 577.341C506.49 574.296 506.957 572.023 506.957 570.333C506.957 567.684 505.633 566.086 503.488 566.086C500.231 566.086 498.353 569.154 498.353 572.38C498.353 574.874 499.5 577.422 502.019 578.682C499.905 583.398 496.825 587.661 495.654 587.661C494.141 587.661 493.689 580.358 493.784 575.134C493.839 572.136 494.09 571.985 494.09 571.077C494.09 570.557 493.748 570.201 492.373 570.201C489.171 570.201 488.181 572.877 488.028 575.952C487.98 577.12 487.795 578.278 487.478 579.404C486.138 584.12 483.38 587.696 481.585 587.696C480.752 587.696 480.524 586.873 480.524 585.795C480.524 582.402 482.449 578.163 482.449 574.548C482.449 571.888 481.27 570.208 479.043 570.208C476.422 570.208 472.953 573.288 469.672 579.059C470.753 574.641 471.197 570.364 467.998 570.364C467.305 570.373 466.625 570.548 466.014 570.872C465.809 570.966 465.637 571.12 465.522 571.312C465.406 571.504 465.352 571.727 465.366 571.95C465.673 576.654 461.528 588.7 457.595 588.7C456.88 588.7 456.534 587.924 456.534 586.703C456.534 583.301 458.585 576.127 459.618 572.838C459.741 572.479 459.81 572.104 459.822 571.725C459.822 570.825 459.257 570.364 457.98 570.364C456.577 570.364 455.053 570.891 453.583 573.443C453.069 571.194 451.525 570.208 449.372 570.208C445.836 570.208 441.907 573.897 440.154 578.706C437.832 585.124 433.153 591.326 426.851 591.326C421.135 591.326 418.117 586.629 418.117 579.21C418.117 568.494 426.085 559.741 431.994 559.741C434.819 559.741 436.171 561.517 436.171 564.244C436.171 567.544 434.304 569.076 434.304 570.333C434.304 570.72 434.626 571.108 435.271 571.108C437.84 571.108 440.862 568.13 440.862 564.065C440.862 560.001 437.51 557.007 431.597 557.007C421.83 557.007 412 566.703 412 579.14C412 589.03 416.943 594.994 425.492 594.994C431.322 594.994 436.418 590.519 439.164 585.299C439.475 589.627 441.467 591.892 444.504 591.892C447.203 591.892 449.387 590.306 451.057 587.513C451.697 590.434 453.414 591.861 455.619 591.861C458.157 591.861 460.282 590.275 462.298 587.323C462.266 589.65 462.801 591.818 464.836 591.818C465.794 591.818 466.942 591.597 467.146 590.771C469.287 582.029 474.579 574.893 476.182 574.893C476.662 574.893 476.795 575.351 476.795 575.89C476.795 578.264 475.098 583.135 475.098 586.241C475.098 589.6 476.544 591.822 479.534 591.822C482.846 591.822 486.213 587.82 488.456 581.967C489.159 587.436 490.676 591.845 493.053 591.845C495.968 591.845 501.146 585.787 504.286 579.373C505.989 579.62 507.724 579.218 509.138 578.248C508.361 580.164 507.954 582.207 507.939 584.271C507.939 590.224 510.819 591.892 513.299 591.892C515.994 591.892 518.178 590.306 519.852 587.513C520.402 590.03 521.816 591.853 524.405 591.853C528.46 591.853 531.984 587.761 531.984 584.403C532 583.519 531.615 582.991 531.167 582.991ZM446.983 588.595C445.344 588.595 444.704 586.966 444.704 584.539C444.704 580.323 447.627 573.292 450.715 573.292C452.067 573.292 452.574 574.843 452.574 576.782C452.574 581.052 449.796 588.595 446.983 588.595ZM503.087 576.01C502.178 574.835 501.707 573.385 501.755 571.907C501.755 570.189 502.392 568.739 503.154 568.739C503.916 568.739 504.152 569.479 504.152 570.511C504.148 572.233 503.523 574.75 503.087 576.01ZM515.789 588.595C514.151 588.595 513.511 586.722 513.511 584.539C513.511 580.47 516.434 573.292 519.545 573.292C520.897 573.292 521.376 574.843 521.376 576.782C521.376 581.052 518.646 588.595 515.789 588.595Z" fill="url(#paint7_radial_1577_438)"/>
<path d="M531.167 582.991C531.055 582.996 530.946 583.036 530.859 583.106C530.771 583.176 530.708 583.271 530.68 583.379C529.45 586.842 527.788 588.906 526.421 588.906C525.635 588.906 525.317 588.041 525.317 586.683C525.317 583.29 527.376 576.096 528.413 572.815C528.528 572.473 528.594 572.118 528.609 571.76C528.609 570.806 528.083 570.336 526.775 570.336C525.364 570.336 523.848 570.879 522.37 573.439C521.86 571.19 520.319 570.205 518.162 570.205C515.672 570.205 513.267 571.787 511.287 574.35C509.307 576.914 506.965 577.756 505.229 577.341C506.49 574.296 506.957 572.023 506.957 570.333C506.957 567.684 505.633 566.086 503.488 566.086C500.231 566.086 498.353 569.154 498.353 572.38C498.353 574.874 499.5 577.422 502.019 578.682C499.905 583.398 496.825 587.661 495.654 587.661C494.141 587.661 493.689 580.358 493.784 575.134C493.839 572.136 494.09 571.985 494.09 571.077C494.09 570.557 493.748 570.201 492.373 570.201C489.171 570.201 488.181 572.877 488.028 575.952C487.98 577.12 487.795 578.278 487.478 579.404C486.138 584.12 483.38 587.696 481.585 587.696C480.752 587.696 480.524 586.873 480.524 585.795C480.524 582.402 482.449 578.163 482.449 574.548C482.449 571.888 481.27 570.208 479.043 570.208C476.422 570.208 472.953 573.288 469.672 579.059C470.753 574.641 471.197 570.364 467.998 570.364C467.305 570.373 466.625 570.548 466.014 570.872C465.809 570.966 465.637 571.12 465.522 571.312C465.406 571.504 465.352 571.727 465.366 571.95C465.673 576.654 461.528 588.7 457.595 588.7C456.88 588.7 456.534 587.924 456.534 586.703C456.534 583.301 458.585 576.127 459.618 572.838C459.741 572.479 459.81 572.104 459.822 571.725C459.822 570.825 459.257 570.364 457.98 570.364C456.577 570.364 455.053 570.891 453.583 573.443C453.069 571.194 451.525 570.208 449.372 570.208C445.836 570.208 441.907 573.897 440.154 578.706C437.832 585.124 433.153 591.326 426.851 591.326C421.135 591.326 418.117 586.629 418.117 579.21C418.117 568.494 426.085 559.741 431.994 559.741C434.819 559.741 436.171 561.517 436.171 564.244C436.171 567.544 434.304 569.076 434.304 570.333C434.304 570.72 434.626 571.108 435.271 571.108C437.84 571.108 440.862 568.13 440.862 564.065C440.862 560.001 437.51 557.007 431.597 557.007C421.83 557.007 412 566.703 412 579.14C412 589.03 416.943 594.994 425.492 594.994C431.322 594.994 436.418 590.519 439.164 585.299C439.475 589.627 441.467 591.892 444.504 591.892C447.203 591.892 449.387 590.306 451.057 587.513C451.697 590.434 453.414 591.861 455.619 591.861C458.157 591.861 460.282 590.275 462.298 587.323C462.266 589.65 462.801 591.818 464.836 591.818C465.794 591.818 466.942 591.597 467.146 590.771C469.287 582.029 474.579 574.893 476.182 574.893C476.662 574.893 476.795 575.351 476.795 575.89C476.795 578.264 475.098 583.135 475.098 586.241C475.098 589.6 476.544 591.822 479.534 591.822C482.846 591.822 486.213 587.82 488.456 581.967C489.159 587.436 490.676 591.845 493.053 591.845C495.968 591.845 501.146 585.787 504.286 579.373C505.989 579.62 507.724 579.218 509.138 578.248C508.361 580.164 507.954 582.207 507.939 584.271C507.939 590.224 510.819 591.892 513.299 591.892C515.994 591.892 518.178 590.306 519.852 587.513C520.402 590.03 521.816 591.853 524.405 591.853C528.46 591.853 531.984 587.761 531.984 584.403C532 583.519 531.615 582.991 531.167 582.991ZM446.983 588.595C445.344 588.595 444.704 586.966 444.704 584.539C444.704 580.323 447.627 573.292 450.715 573.292C452.067 573.292 452.574 574.843 452.574 576.782C452.574 581.052 449.796 588.595 446.983 588.595ZM503.087 576.01C502.178 574.835 501.707 573.385 501.755 571.907C501.755 570.189 502.392 568.739 503.154 568.739C503.916 568.739 504.152 569.479 504.152 570.511C504.148 572.233 503.523 574.75 503.087 576.01ZM515.789 588.595C514.151 588.595 513.511 586.722 513.511 584.539C513.511 580.47 516.434 573.292 519.545 573.292C520.897 573.292 521.376 574.843 521.376 576.782C521.376 581.052 518.646 588.595 515.789 588.595Z" fill="url(#paint8_radial_1577_438)"/>
</g>
<rect x="1222" y="399" width="140" height="140" rx="70" fill="#F3F3F3"/>
<path d="M1266.17 430H1317.83C1325.67 430 1332 436.333 1332 444.167V493.833C1332 501.667 1325.67 508 1317.83 508H1266.17C1258.33 508 1252 501.667 1252 493.833V444.167C1252 436.333 1258.33 430 1266.17 430Z" fill="#54001A"/>
<path d="M1281.07 450.399V484.599C1281.07 484.966 1280.9 485.133 1280.6 485.133H1274.07C1273.77 485.133 1273.63 484.966 1273.63 484.599V450.399C1273.63 450.099 1273.8 449.966 1274.1 449.966H1280.6C1280.8 449.933 1281 450.066 1281.03 450.299C1281.07 450.333 1281.07 450.366 1281.07 450.399Z" fill="#FF3068"/>
<path d="M1300.26 485.666C1297.8 485.7 1295.33 485.2 1293.1 484.166C1291 483.2 1289.26 481.6 1288.06 479.633C1286.83 477.6 1286.23 475.066 1286.23 472.033C1286.2 469.566 1286.83 467.133 1288.06 465C1289.33 462.833 1291.16 461.033 1293.36 459.833C1295.7 458.533 1298.5 457.9 1301.8 457.9C1301.96 457.9 1302.2 457.9 1302.5 457.933C1302.8 457.966 1303.13 457.966 1303.53 458V447.467C1303.53 447.233 1303.63 447.1 1303.86 447.1H1310.63C1310.8 447.067 1310.93 447.2 1310.96 447.333V447.4V479.133C1310.96 479.733 1311 480.4 1311.03 481.133C1311.1 481.833 1311.13 482.5 1311.16 483.066C1311.16 483.3 1311.06 483.5 1310.83 483.6C1309.1 484.333 1307.26 484.866 1305.4 485.2C1303.73 485.5 1302 485.666 1300.26 485.666ZM1303.53 479V464.333C1303.23 464.266 1302.93 464.2 1302.63 464.166C1302.26 464.133 1301.9 464.1 1301.53 464.1C1300.23 464.1 1298.93 464.366 1297.76 464.966C1296.63 465.533 1295.66 466.366 1294.93 467.433C1294.2 468.5 1293.83 469.933 1293.83 471.666C1293.8 472.833 1294 474 1294.4 475.1C1294.73 476 1295.23 476.8 1295.9 477.466C1296.53 478.066 1297.3 478.533 1298.16 478.8C1299.06 479.1 1300 479.233 1300.93 479.233C1301.43 479.233 1301.9 479.2 1302.33 479.166C1302.76 479.2 1303.16 479.133 1303.53 479Z" fill="#FF3068"/>
<rect x="265" y="107" width="140" height="140" rx="70" fill="#F3F3F3"/>
<path d="M309.167 138H360.833C368.667 138 375 144.333 375 152.167V201.833C375 209.667 368.667 216 360.833 216H309.167C301.333 216 295 209.667 295 201.833V152.167C295 144.333 301.333 138 309.167 138Z" fill="#001834"/>
<path d="M313 192.7V158.4C313 158.166 313.1 158.033 313.333 158.033C313.9 158.033 314.433 158.033 315.2 158C316 157.966 316.833 157.966 317.733 157.933C318.633 157.9 319.6 157.9 320.633 157.866C321.667 157.833 322.667 157.833 323.667 157.833C326.4 157.833 328.667 158.166 330.533 158.866C332.2 159.433 333.733 160.366 335 161.6C336.067 162.666 336.9 163.966 337.433 165.4C337.933 166.8 338.2 168.233 338.2 169.733C338.2 172.6 337.533 174.966 336.2 176.833C334.867 178.7 333 180.1 330.833 180.9C328.567 181.733 326.067 182.033 323.333 182.033C322.533 182.033 322 182.033 321.667 182C321.333 181.966 320.867 181.966 320.233 181.966V192.666C320.267 192.9 320.1 193.1 319.867 193.133C319.833 193.133 319.8 193.133 319.733 193.133H313.4C313.133 193.133 313 193 313 192.7ZM320.267 164.466V175.666C320.733 175.7 321.167 175.733 321.567 175.733H323.333C325.635 175.733 328.293 175.192 329.9 173.367C331.283 171.795 331.287 168.679 330.167 166.967C328.837 164.933 326.179 164.344 323.9 164.4C323.033 164.4 322.267 164.4 321.633 164.433C320.967 164.4 320.5 164.433 320.267 164.466Z" fill="#00A9FF"/>
<path d="M358.999 173.633C357.999 173.1 356.933 172.733 355.799 172.5C354.566 172.233 353.333 172.066 352.066 172.066C351.399 172.033 350.699 172.133 350.066 172.3C349.633 172.4 349.266 172.633 349.033 172.966C348.866 173.233 348.766 173.566 348.766 173.866C348.766 174.166 348.899 174.466 349.099 174.733C349.399 175.1 349.799 175.4 350.233 175.633C350.999 176.033 351.799 176.4 352.599 176.733C354.399 177.333 356.133 178.166 357.733 179.166C358.833 179.866 359.733 180.8 360.366 181.933C360.899 183 361.166 184.166 361.133 185.366C361.166 186.933 360.699 188.5 359.833 189.8C358.899 191.133 357.599 192.166 356.099 192.766C354.466 193.466 352.466 193.833 350.066 193.833C348.533 193.833 347.033 193.7 345.533 193.4C344.366 193.2 343.199 192.833 342.133 192.333C341.899 192.2 341.733 191.966 341.766 191.7V185.9C341.766 185.8 341.799 185.666 341.899 185.6C341.999 185.533 342.099 185.566 342.199 185.633C343.499 186.4 344.866 186.933 346.333 187.266C347.599 187.6 348.933 187.766 350.266 187.766C351.533 187.766 352.433 187.6 353.033 187.3C353.566 187.066 353.933 186.5 353.933 185.9C353.933 185.433 353.666 185 353.133 184.566C352.599 184.133 351.499 183.633 349.866 183C348.166 182.4 346.599 181.6 345.133 180.6C344.099 179.866 343.233 178.9 342.599 177.766C342.066 176.7 341.799 175.533 341.833 174.366C341.833 172.933 342.233 171.566 342.966 170.333C343.799 169 345.033 167.933 346.466 167.266C348.033 166.466 349.999 166.1 352.366 166.1C353.733 166.1 355.133 166.2 356.499 166.4C357.499 166.533 358.466 166.8 359.366 167.166C359.499 167.2 359.633 167.333 359.699 167.466C359.732 167.6 359.766 167.733 359.766 167.866V173.3C359.766 173.433 359.699 173.566 359.599 173.633C359.299 173.7 359.133 173.7 358.999 173.633Z" fill="#00A9FF"/>
<rect x="1053" y="107" width="140" height="140" rx="70" fill="#F3F3F3"/>
<path d="M1097.17 138H1148.83C1156.66 138 1163 144.343 1163 152.167V201.833C1163 209.657 1156.66 216 1148.83 216H1097.17C1089.34 216 1083 209.657 1083 201.833V152.167C1083 144.343 1089.34 138 1097.17 138Z" fill="#00005B"/>
<path d="M1115.14 184.667H1102.74L1100.22 192.517C1100.15 192.812 1099.88 193.014 1099.57 193H1093.3C1092.94 193 1092.81 192.803 1092.92 192.41L1103.65 161.625C1103.76 161.303 1103.87 160.989 1103.98 160.577C1104.12 159.861 1104.19 159.133 1104.19 158.403C1104.16 158.222 1104.29 158.053 1104.47 158.028C1104.5 158.023 1104.53 158.023 1104.57 158.028H1113.1C1113.35 158.028 1113.49 158.117 1113.53 158.296L1125.71 192.463C1125.82 192.821 1125.71 193 1125.39 193H1118.41C1118.16 193.027 1117.93 192.867 1117.88 192.624L1115.14 184.667ZM1108.91 164.148H1108.86L1104.67 178.047H1113.15L1108.91 164.148Z" fill="#9999FF"/>
<path d="M1145.46 181.611H1134.89C1135.02 182.657 1135.37 183.665 1135.91 184.568C1136.51 185.463 1137.36 186.162 1138.35 186.581C1139.7 187.163 1141.15 187.448 1142.62 187.417C1143.78 187.394 1144.94 187.267 1146.08 187.037C1147.1 186.899 1148.1 186.639 1149.05 186.261C1149.23 186.118 1149.32 186.207 1149.32 186.529V191.628C1149.33 191.767 1149.3 191.905 1149.24 192.03C1149.18 192.128 1149.1 192.21 1149 192.272C1147.94 192.742 1146.82 193.075 1145.68 193.262C1144.12 193.555 1142.54 193.689 1140.95 193.665C1138.41 193.665 1136.28 193.271 1134.57 192.484C1132.94 191.769 1131.51 190.685 1130.38 189.318C1129.33 188.03 1128.54 186.542 1128.07 184.944C1127.61 183.367 1127.37 181.731 1127.38 180.087C1127.37 178.292 1127.65 176.508 1128.21 174.801C1128.74 173.136 1129.59 171.588 1130.7 170.239C1133.16 167.267 1136.53 166.028 1140.31 166.028C1143.56 166.028 1146.9 167.106 1149 169.703C1149.88 170.837 1150.55 172.118 1150.99 173.486C1151.41 174.805 1151.63 176.18 1151.63 177.565C1151.63 178.352 1151.61 179.068 1151.55 179.712C1151.5 180.356 1151.45 180.821 1151.42 181.107C1151.39 181.352 1151.18 181.536 1150.93 181.536C1150.72 181.536 1150.35 181.563 1149.83 181.617C1149.32 181.67 1148.67 181.706 1147.9 181.724C1147.13 181.742 1146.32 181.611 1145.46 181.611ZM1134.89 176.722H1141.92C1142.78 176.722 1143.41 176.713 1143.82 176.695C1144.1 176.668 1144.36 176.58 1144.6 176.438V176.115C1144.59 175.696 1144.52 175.28 1144.39 174.881C1143.79 172.999 1142.01 171.747 1140.04 171.822C1138.19 171.711 1136.46 172.7 1135.61 174.344C1135.24 175.093 1135 175.896 1134.89 176.722Z" fill="#9999FF"/>
<rect x="110" y="396" width="140" height="140" rx="70" fill="#F3F3F3"/>
<path d="M154.167 427H205.833C213.667 427 220 433.333 220 441.167V490.833C220 498.667 213.667 505 205.833 505H154.167C146.333 505 140 498.667 140 490.833V441.167C140 433.333 146.333 427 154.167 427Z" fill="#390000"/>
<path d="M178.768 473.8H166.368L163.834 481.634C163.768 481.934 163.501 482.134 163.201 482.1H156.934C156.568 482.1 156.468 481.9 156.568 481.5L167.301 450.6C167.401 450.267 167.501 449.9 167.634 449.5C167.768 448.8 167.834 448.067 167.834 447.334C167.801 447.167 167.934 447 168.101 446.967H168.201H176.734C177.001 446.967 177.134 447.067 177.168 447.234L189.334 481.567C189.434 481.934 189.334 482.1 189.001 482.1H182.034C181.801 482.133 181.568 481.967 181.501 481.733L178.768 473.8ZM168.301 467.034H176.768L172.501 453.134L168.301 467.034Z" fill="#FF9A00"/>
<path d="M196.602 452.667C195.502 452.7 194.435 452.267 193.635 451.5C192.868 450.667 192.469 449.567 192.502 448.433C192.469 447.3 192.902 446.233 193.702 445.467C194.502 444.7 195.569 444.3 196.669 444.3C197.969 444.3 198.969 444.7 199.702 445.467C200.435 446.267 200.835 447.333 200.802 448.433C200.835 449.567 200.435 450.667 199.635 451.5C198.869 452.3 197.735 452.733 196.602 452.667Z" fill="#FF9A00"/>
<path d="M192.867 481.6V455.934C192.867 455.6 193 455.467 193.3 455.467H199.9C200.2 455.467 200.334 455.634 200.334 455.934V481.6C200.334 481.967 200.2 482.134 199.9 482.134H193.367C193.034 482.134 192.867 481.934 192.867 481.6Z" fill="#FF9A00"/>
<rect x="654" y="224" width="140" height="140" rx="70" fill="#F3F3F3"/>
<path d="M724.094 294C724.094 286.637 730.063 280.667 737.427 280.667C744.791 280.667 750.76 286.637 750.76 294C750.76 301.364 744.791 307.334 737.427 307.334C730.063 307.334 724.094 301.364 724.094 294Z" fill="#00BCFF"/>
<path d="M697.426 320.667C697.426 313.303 703.395 307.333 710.759 307.333L717.865 303.582L724.092 307.333V320.667C724.092 328.031 718.123 334 710.759 334C703.395 334 697.426 328.03 697.426 320.667Z" fill="#00CF7F"/>
<path d="M724.091 254L716.836 266.605L724.091 280.667H737.237C744.601 280.667 750.571 274.697 750.571 267.333C750.571 259.97 744.601 254 737.237 254H724.091Z" fill="#FF7361"/>
<path d="M697.238 267.333C697.238 274.697 703.208 280.667 710.572 280.667L717.645 283.398L724.092 280.667V254H710.571C703.208 254 697.238 259.97 697.238 267.333Z" fill="#FF4D12"/>
<path d="M697.426 294C697.426 301.364 703.395 307.334 710.759 307.334H724.092V280.667H710.759C703.395 280.667 697.426 286.637 697.426 294Z" fill="#B659FF"/>
<path d="M297.615 269.288C297.615 269.885 297.471 270.445 297.183 270.968C296.906 271.491 296.463 271.912 295.855 272.232C295.258 272.552 294.501 272.712 293.583 272.712H291.711V277H289.471V265.832H293.583C294.447 265.832 295.183 265.981 295.791 266.28C296.399 266.579 296.853 266.989 297.151 267.512C297.461 268.035 297.615 268.627 297.615 269.288ZM293.487 270.904C294.106 270.904 294.565 270.765 294.863 270.488C295.162 270.2 295.311 269.8 295.311 269.288C295.311 268.2 294.703 267.656 293.487 267.656H291.711V270.904H293.487ZM304.198 268.008C304.87 268.008 305.467 268.157 305.99 268.456C306.512 268.744 306.918 269.176 307.206 269.752C307.504 270.317 307.654 271 307.654 271.8V277H305.414V272.104C305.414 271.4 305.238 270.861 304.886 270.488C304.534 270.104 304.054 269.912 303.446 269.912C302.827 269.912 302.336 270.104 301.974 270.488C301.622 270.861 301.446 271.4 301.446 272.104V277H299.206V265.16H301.446V269.24C301.734 268.856 302.118 268.557 302.598 268.344C303.078 268.12 303.611 268.008 304.198 268.008ZM313.72 277.144C312.866 277.144 312.098 276.957 311.416 276.584C310.733 276.2 310.194 275.661 309.8 274.968C309.416 274.275 309.224 273.475 309.224 272.568C309.224 271.661 309.421 270.861 309.816 270.168C310.221 269.475 310.77 268.941 311.464 268.568C312.157 268.184 312.93 267.992 313.784 267.992C314.637 267.992 315.41 268.184 316.104 268.568C316.797 268.941 317.341 269.475 317.736 270.168C318.141 270.861 318.344 271.661 318.344 272.568C318.344 273.475 318.136 274.275 317.72 274.968C317.314 275.661 316.76 276.2 316.056 276.584C315.362 276.957 314.584 277.144 313.72 277.144ZM313.72 275.192C314.125 275.192 314.504 275.096 314.856 274.904C315.218 274.701 315.506 274.403 315.72 274.008C315.933 273.613 316.04 273.133 316.04 272.568C316.04 271.725 315.816 271.08 315.368 270.632C314.93 270.173 314.392 269.944 313.752 269.944C313.112 269.944 312.573 270.173 312.136 270.632C311.709 271.08 311.496 271.725 311.496 272.568C311.496 273.411 311.704 274.061 312.12 274.52C312.546 274.968 313.08 275.192 313.72 275.192ZM322.595 269.976V274.264C322.595 274.563 322.664 274.781 322.803 274.92C322.952 275.048 323.197 275.112 323.539 275.112H324.579V277H323.171C321.283 277 320.339 276.083 320.339 274.248V269.976H319.283V268.136H320.339V265.944H322.595V268.136H324.579V269.976H322.595ZM330.126 277.144C329.273 277.144 328.505 276.957 327.822 276.584C327.139 276.2 326.601 275.661 326.206 274.968C325.822 274.275 325.63 273.475 325.63 272.568C325.63 271.661 325.827 270.861 326.222 270.168C326.627 269.475 327.177 268.941 327.87 268.568C328.563 268.184 329.337 267.992 330.19 267.992C331.043 267.992 331.817 268.184 332.51 268.568C333.203 268.941 333.747 269.475 334.142 270.168C334.547 270.861 334.75 271.661 334.75 272.568C334.75 273.475 334.542 274.275 334.126 274.968C333.721 275.661 333.166 276.2 332.462 276.584C331.769 276.957 330.99 277.144 330.126 277.144ZM330.126 275.192C330.531 275.192 330.91 275.096 331.262 274.904C331.625 274.701 331.913 274.403 332.126 274.008C332.339 273.613 332.446 273.133 332.446 272.568C332.446 271.725 332.222 271.08 331.774 270.632C331.337 270.173 330.798 269.944 330.158 269.944C329.518 269.944 328.979 270.173 328.542 270.632C328.115 271.08 327.902 271.725 327.902 272.568C327.902 273.411 328.11 274.061 328.526 274.52C328.953 274.968 329.486 275.192 330.126 275.192ZM339.785 277.144C339.06 277.144 338.409 277.016 337.833 276.76C337.257 276.493 336.798 276.136 336.457 275.688C336.126 275.24 335.945 274.744 335.913 274.2H338.169C338.212 274.541 338.377 274.824 338.665 275.048C338.964 275.272 339.332 275.384 339.769 275.384C340.196 275.384 340.526 275.299 340.761 275.128C341.006 274.957 341.129 274.739 341.129 274.472C341.129 274.184 340.98 273.971 340.681 273.832C340.393 273.683 339.929 273.523 339.289 273.352C338.628 273.192 338.084 273.027 337.657 272.856C337.241 272.685 336.878 272.424 336.569 272.072C336.27 271.72 336.121 271.245 336.121 270.648C336.121 270.157 336.26 269.709 336.537 269.304C336.825 268.899 337.23 268.579 337.753 268.344C338.286 268.109 338.91 267.992 339.625 267.992C340.681 267.992 341.524 268.259 342.153 268.792C342.782 269.315 343.129 270.024 343.193 270.92H341.049C341.017 270.568 340.868 270.291 340.601 270.088C340.345 269.875 339.998 269.768 339.561 269.768C339.156 269.768 338.841 269.843 338.617 269.992C338.404 270.141 338.297 270.349 338.297 270.616C338.297 270.915 338.446 271.144 338.745 271.304C339.044 271.453 339.508 271.608 340.137 271.768C340.777 271.928 341.305 272.093 341.721 272.264C342.137 272.435 342.494 272.701 342.793 273.064C343.102 273.416 343.262 273.885 343.273 274.472C343.273 274.984 343.129 275.443 342.841 275.848C342.564 276.253 342.158 276.573 341.625 276.808C341.102 277.032 340.489 277.144 339.785 277.144ZM350.104 268.008C350.776 268.008 351.373 268.157 351.896 268.456C352.418 268.744 352.824 269.176 353.112 269.752C353.41 270.317 353.56 271 353.56 271.8V277H351.32V272.104C351.32 271.4 351.144 270.861 350.792 270.488C350.44 270.104 349.96 269.912 349.352 269.912C348.733 269.912 348.242 270.104 347.88 270.488C347.528 270.861 347.352 271.4 347.352 272.104V277H345.112V265.16H347.352V269.24C347.64 268.856 348.024 268.557 348.504 268.344C348.984 268.12 349.517 268.008 350.104 268.008ZM359.626 277.144C358.773 277.144 358.005 276.957 357.322 276.584C356.639 276.2 356.101 275.661 355.706 274.968C355.322 274.275 355.13 273.475 355.13 272.568C355.13 271.661 355.327 270.861 355.722 270.168C356.127 269.475 356.677 268.941 357.37 268.568C358.063 268.184 358.837 267.992 359.69 267.992C360.543 267.992 361.317 268.184 362.01 268.568C362.703 268.941 363.247 269.475 363.642 270.168C364.047 270.861 364.25 271.661 364.25 272.568C364.25 273.475 364.042 274.275 363.626 274.968C363.221 275.661 362.666 276.2 361.962 276.584C361.269 276.957 360.49 277.144 359.626 277.144ZM359.626 275.192C360.031 275.192 360.41 275.096 360.762 274.904C361.125 274.701 361.413 274.403 361.626 274.008C361.839 273.613 361.946 273.133 361.946 272.568C361.946 271.725 361.722 271.08 361.274 270.632C360.837 270.173 360.298 269.944 359.658 269.944C359.018 269.944 358.479 270.173 358.042 270.632C357.615 271.08 357.402 271.725 357.402 272.568C357.402 273.411 357.61 274.061 358.026 274.52C358.453 274.968 358.986 275.192 359.626 275.192ZM368.133 269.416C368.421 269.011 368.816 268.675 369.317 268.408C369.829 268.131 370.41 267.992 371.061 267.992C371.818 267.992 372.501 268.179 373.109 268.552C373.728 268.925 374.213 269.459 374.565 270.152C374.928 270.835 375.109 271.629 375.109 272.536C375.109 273.443 374.928 274.248 374.565 274.952C374.213 275.645 373.728 276.184 373.109 276.568C372.501 276.952 371.818 277.144 371.061 277.144C370.41 277.144 369.834 277.011 369.333 276.744C368.842 276.477 368.442 276.141 368.133 275.736V281.224H365.893V268.136H368.133V269.416ZM372.821 272.536C372.821 272.003 372.709 271.544 372.485 271.16C372.272 270.765 371.984 270.467 371.621 270.264C371.269 270.061 370.885 269.96 370.469 269.96C370.064 269.96 369.68 270.067 369.317 270.28C368.965 270.483 368.677 270.781 368.453 271.176C368.24 271.571 368.133 272.035 368.133 272.568C368.133 273.101 368.24 273.565 368.453 273.96C368.677 274.355 368.965 274.659 369.317 274.872C369.68 275.075 370.064 275.176 370.469 275.176C370.885 275.176 371.269 275.069 371.621 274.856C371.984 274.643 372.272 274.339 372.485 273.944C372.709 273.549 372.821 273.08 372.821 272.536Z" fill="white"/>
<path d="M1081.21 274.872H1076.76L1076.03 277H1073.67L1077.69 265.816H1080.3L1084.31 277H1081.95L1081.21 274.872ZM1080.6 273.08L1078.99 268.408L1077.37 273.08H1080.6ZM1089.88 269.976H1088.33V277H1086.05V269.976H1085.05V268.136H1086.05V267.688C1086.05 266.6 1086.36 265.8 1086.98 265.288C1087.6 264.776 1088.53 264.536 1089.78 264.568V266.456C1089.24 266.445 1088.86 266.536 1088.65 266.728C1088.43 266.92 1088.33 267.267 1088.33 267.768V268.136H1089.88V269.976ZM1093.94 269.976V274.264C1093.94 274.563 1094.01 274.781 1094.15 274.92C1094.3 275.048 1094.54 275.112 1094.88 275.112H1095.92V277H1094.51C1092.63 277 1091.68 276.083 1091.68 274.248V269.976H1090.63V268.136H1091.68V265.944H1093.94V268.136H1095.92V269.976H1093.94ZM1105.77 272.376C1105.77 272.696 1105.75 272.984 1105.71 273.24H1099.23C1099.28 273.88 1099.51 274.381 1099.9 274.744C1100.3 275.107 1100.78 275.288 1101.36 275.288C1102.19 275.288 1102.78 274.931 1103.13 274.216H1105.55C1105.29 275.069 1104.8 275.773 1104.08 276.328C1103.35 276.872 1102.46 277.144 1101.41 277.144C1100.55 277.144 1099.78 276.957 1099.1 276.584C1098.43 276.2 1097.9 275.661 1097.52 274.968C1097.14 274.275 1096.96 273.475 1096.96 272.568C1096.96 271.651 1097.14 270.845 1097.52 270.152C1097.89 269.459 1098.41 268.925 1099.09 268.552C1099.76 268.179 1100.53 267.992 1101.41 267.992C1102.25 267.992 1103 268.173 1103.66 268.536C1104.33 268.899 1104.85 269.416 1105.21 270.088C1105.59 270.749 1105.77 271.512 1105.77 272.376ZM1103.45 271.736C1103.44 271.16 1103.24 270.701 1102.83 270.36C1102.42 270.008 1101.93 269.832 1101.34 269.832C1100.79 269.832 1100.32 270.003 1099.93 270.344C1099.56 270.675 1099.33 271.139 1099.25 271.736H1103.45ZM1109.65 269.512C1109.94 269.043 1110.31 268.675 1110.77 268.408C1111.24 268.141 1111.77 268.008 1112.37 268.008V270.36H1111.78C1111.07 270.36 1110.54 270.525 1110.18 270.856C1109.82 271.187 1109.65 271.763 1109.65 272.584V277H1107.41V268.136H1109.65V269.512ZM1119.93 267.64V270.44H1123.69V272.216H1119.93V275.176H1124.17V277H1117.69V265.816H1124.17V267.64H1119.93ZM1130.27 269.976H1128.72V277H1126.45V269.976H1125.44V268.136H1126.45V267.688C1126.45 266.6 1126.75 265.8 1127.37 265.288C1127.99 264.776 1128.93 264.536 1130.17 264.568V266.456C1129.63 266.445 1129.25 266.536 1129.04 266.728C1128.82 266.92 1128.72 267.267 1128.72 267.768V268.136H1130.27V269.976ZM1135.79 269.976H1134.23V277H1131.96V269.976H1130.95V268.136H1131.96V267.688C1131.96 266.6 1132.27 265.8 1132.89 265.288C1133.51 264.776 1134.44 264.536 1135.69 264.568V266.456C1135.15 266.445 1134.77 266.536 1134.55 266.728C1134.34 266.92 1134.23 267.267 1134.23 267.768V268.136H1135.79V269.976ZM1145.48 272.376C1145.48 272.696 1145.46 272.984 1145.41 273.24H1138.93C1138.99 273.88 1139.21 274.381 1139.6 274.744C1140 275.107 1140.48 275.288 1141.06 275.288C1141.89 275.288 1142.48 274.931 1142.84 274.216H1145.25C1145 275.069 1144.51 275.773 1143.78 276.328C1143.06 276.872 1142.16 277.144 1141.11 277.144C1140.26 277.144 1139.49 276.957 1138.8 276.584C1138.13 276.2 1137.6 275.661 1137.22 274.968C1136.85 274.275 1136.66 273.475 1136.66 272.568C1136.66 271.651 1136.85 270.845 1137.22 270.152C1137.59 269.459 1138.12 268.925 1138.79 268.552C1139.46 268.179 1140.23 267.992 1141.11 267.992C1141.95 267.992 1142.7 268.173 1143.36 268.536C1144.04 268.899 1144.55 269.416 1144.92 270.088C1145.29 270.749 1145.48 271.512 1145.48 272.376ZM1143.16 271.736C1143.15 271.16 1142.94 270.701 1142.53 270.36C1142.13 270.008 1141.63 269.832 1141.04 269.832C1140.49 269.832 1140.02 270.003 1139.64 270.344C1139.26 270.675 1139.03 271.139 1138.95 271.736H1143.16ZM1146.54 272.568C1146.54 271.651 1146.72 270.851 1147.1 270.168C1147.47 269.475 1147.99 268.941 1148.65 268.568C1149.31 268.184 1150.07 267.992 1150.92 267.992C1152.02 267.992 1152.93 268.269 1153.64 268.824C1154.37 269.368 1154.85 270.136 1155.1 271.128H1152.68C1152.55 270.744 1152.33 270.445 1152.02 270.232C1151.73 270.008 1151.35 269.896 1150.9 269.896C1150.26 269.896 1149.76 270.131 1149.38 270.6C1149.01 271.059 1148.82 271.715 1148.82 272.568C1148.82 273.411 1149.01 274.067 1149.38 274.536C1149.76 274.995 1150.26 275.224 1150.9 275.224C1151.81 275.224 1152.4 274.819 1152.68 274.008H1155.1C1154.85 274.968 1154.37 275.731 1153.64 276.296C1152.91 276.861 1152.01 277.144 1150.92 277.144C1150.07 277.144 1149.31 276.957 1148.65 276.584C1147.99 276.2 1147.47 275.667 1147.1 274.984C1146.72 274.291 1146.54 273.485 1146.54 272.568ZM1159.34 269.976V274.264C1159.34 274.563 1159.41 274.781 1159.55 274.92C1159.7 275.048 1159.95 275.112 1160.29 275.112H1161.33V277H1159.92C1158.03 277 1157.09 276.083 1157.09 274.248V269.976H1156.03V268.136H1157.09V265.944H1159.34V268.136H1161.33V269.976H1159.34ZM1166.33 277.144C1165.61 277.144 1164.96 277.016 1164.38 276.76C1163.8 276.493 1163.35 276.136 1163 275.688C1162.67 275.24 1162.49 274.744 1162.46 274.2H1164.72C1164.76 274.541 1164.92 274.824 1165.21 275.048C1165.51 275.272 1165.88 275.384 1166.32 275.384C1166.74 275.384 1167.07 275.299 1167.31 275.128C1167.55 274.957 1167.68 274.739 1167.68 274.472C1167.68 274.184 1167.53 273.971 1167.23 273.832C1166.94 273.683 1166.48 273.523 1165.84 273.352C1165.17 273.192 1164.63 273.027 1164.2 272.856C1163.79 272.685 1163.43 272.424 1163.12 272.072C1162.82 271.72 1162.67 271.245 1162.67 270.648C1162.67 270.157 1162.81 269.709 1163.08 269.304C1163.37 268.899 1163.78 268.579 1164.3 268.344C1164.83 268.109 1165.46 267.992 1166.17 267.992C1167.23 267.992 1168.07 268.259 1168.7 268.792C1169.33 269.315 1169.68 270.024 1169.74 270.92H1167.6C1167.56 270.568 1167.41 270.291 1167.15 270.088C1166.89 269.875 1166.55 269.768 1166.11 269.768C1165.7 269.768 1165.39 269.843 1165.16 269.992C1164.95 270.141 1164.84 270.349 1164.84 270.616C1164.84 270.915 1164.99 271.144 1165.29 271.304C1165.59 271.453 1166.05 271.608 1166.68 271.768C1167.32 271.928 1167.85 272.093 1168.27 272.264C1168.68 272.435 1169.04 272.701 1169.34 273.064C1169.65 273.416 1169.81 273.885 1169.82 274.472C1169.82 274.984 1169.68 275.443 1169.39 275.848C1169.11 276.253 1168.71 276.573 1168.17 276.808C1167.65 277.032 1167.04 277.144 1166.33 277.144Z" fill="white"/>
<path d="M120.413 565.872H115.965L115.229 568H112.877L116.893 556.816H119.501L123.517 568H121.149L120.413 565.872ZM119.805 564.08L118.189 559.408L116.573 564.08H119.805ZM124.442 563.536C124.442 562.64 124.618 561.845 124.97 561.152C125.333 560.459 125.823 559.925 126.442 559.552C127.061 559.179 127.749 558.992 128.506 558.992C129.082 558.992 129.631 559.12 130.154 559.376C130.677 559.621 131.093 559.952 131.402 560.368V556.16H133.674V568H131.402V566.688C131.125 567.125 130.735 567.477 130.234 567.744C129.733 568.011 129.151 568.144 128.49 568.144C127.743 568.144 127.061 567.952 126.442 567.568C125.823 567.184 125.333 566.645 124.97 565.952C124.618 565.248 124.442 564.443 124.442 563.536ZM131.418 563.568C131.418 563.024 131.311 562.56 131.098 562.176C130.885 561.781 130.597 561.483 130.234 561.28C129.871 561.067 129.482 560.96 129.066 560.96C128.65 560.96 128.266 561.061 127.914 561.264C127.562 561.467 127.274 561.765 127.05 562.16C126.837 562.544 126.73 563.003 126.73 563.536C126.73 564.069 126.837 564.539 127.05 564.944C127.274 565.339 127.562 565.643 127.914 565.856C128.277 566.069 128.661 566.176 129.066 566.176C129.482 566.176 129.871 566.075 130.234 565.872C130.597 565.659 130.885 565.36 131.098 564.976C131.311 564.581 131.418 564.112 131.418 563.568ZM139.798 568.144C138.944 568.144 138.176 567.957 137.494 567.584C136.811 567.2 136.272 566.661 135.878 565.968C135.494 565.275 135.302 564.475 135.302 563.568C135.302 562.661 135.499 561.861 135.894 561.168C136.299 560.475 136.848 559.941 137.542 559.568C138.235 559.184 139.008 558.992 139.862 558.992C140.715 558.992 141.488 559.184 142.182 559.568C142.875 559.941 143.419 560.475 143.814 561.168C144.219 561.861 144.422 562.661 144.422 563.568C144.422 564.475 144.214 565.275 143.798 565.968C143.392 566.661 142.838 567.2 142.134 567.584C141.44 567.957 140.662 568.144 139.798 568.144ZM139.798 566.192C140.203 566.192 140.582 566.096 140.934 565.904C141.296 565.701 141.584 565.403 141.798 565.008C142.011 564.613 142.118 564.133 142.118 563.568C142.118 562.725 141.894 562.08 141.446 561.632C141.008 561.173 140.47 560.944 139.83 560.944C139.19 560.944 138.651 561.173 138.214 561.632C137.787 562.08 137.574 562.725 137.574 563.568C137.574 564.411 137.782 565.061 138.198 565.52C138.624 565.968 139.158 566.192 139.798 566.192ZM148.305 560.432C148.593 560.005 148.988 559.659 149.489 559.392C150.001 559.125 150.582 558.992 151.233 558.992C151.99 558.992 152.673 559.179 153.281 559.552C153.9 559.925 154.385 560.459 154.737 561.152C155.1 561.835 155.281 562.629 155.281 563.536C155.281 564.443 155.1 565.248 154.737 565.952C154.385 566.645 153.9 567.184 153.281 567.568C152.673 567.952 151.99 568.144 151.233 568.144C150.572 568.144 149.99 568.016 149.489 567.76C148.998 567.493 148.604 567.152 148.305 566.736V568H146.065V556.16H148.305V560.432ZM152.993 563.536C152.993 563.003 152.881 562.544 152.657 562.16C152.444 561.765 152.156 561.467 151.793 561.264C151.441 561.061 151.057 560.96 150.641 560.96C150.236 560.96 149.852 561.067 149.489 561.28C149.137 561.483 148.849 561.781 148.625 562.176C148.412 562.571 148.305 563.035 148.305 563.568C148.305 564.101 148.412 564.565 148.625 564.96C148.849 565.355 149.137 565.659 149.489 565.872C149.852 566.075 150.236 566.176 150.641 566.176C151.057 566.176 151.441 566.069 151.793 565.856C152.156 565.643 152.444 565.339 152.657 564.944C152.881 564.549 152.993 564.08 152.993 563.536ZM165.149 563.376C165.149 563.696 165.127 563.984 165.085 564.24H158.605C158.658 564.88 158.882 565.381 159.277 565.744C159.671 566.107 160.157 566.288 160.733 566.288C161.565 566.288 162.157 565.931 162.509 565.216H164.925C164.669 566.069 164.178 566.773 163.453 567.328C162.727 567.872 161.837 568.144 160.781 568.144C159.927 568.144 159.159 567.957 158.477 567.584C157.805 567.2 157.277 566.661 156.893 565.968C156.519 565.275 156.333 564.475 156.333 563.568C156.333 562.651 156.519 561.845 156.893 561.152C157.266 560.459 157.789 559.925 158.461 559.552C159.133 559.179 159.906 558.992 160.781 558.992C161.623 558.992 162.375 559.173 163.037 559.536C163.709 559.899 164.226 560.416 164.589 561.088C164.962 561.749 165.149 562.512 165.149 563.376ZM162.829 562.736C162.818 562.16 162.61 561.701 162.205 561.36C161.799 561.008 161.303 560.832 160.717 560.832C160.162 560.832 159.693 561.003 159.309 561.344C158.935 561.675 158.706 562.139 158.621 562.736H162.829ZM172.836 556.832V568H170.596V556.832H172.836ZM177.289 556.16V568H175.049V556.16H177.289ZM181.742 556.16V568H179.502V556.16H181.742ZM192.324 559.136V568H190.068V566.88C189.78 567.264 189.401 567.568 188.932 567.792C188.473 568.005 187.972 568.112 187.428 568.112C186.734 568.112 186.121 567.968 185.588 567.68C185.054 567.381 184.633 566.949 184.324 566.384C184.025 565.808 183.876 565.125 183.876 564.336V559.136H186.116V564.016C186.116 564.72 186.292 565.264 186.644 565.648C186.996 566.021 187.476 566.208 188.084 566.208C188.702 566.208 189.188 566.021 189.54 565.648C189.892 565.264 190.068 564.72 190.068 564.016V559.136H192.324ZM197.926 568.144C197.2 568.144 196.55 568.016 195.974 567.76C195.398 567.493 194.939 567.136 194.598 566.688C194.267 566.24 194.086 565.744 194.054 565.2H196.31C196.352 565.541 196.518 565.824 196.806 566.048C197.104 566.272 197.472 566.384 197.91 566.384C198.336 566.384 198.667 566.299 198.902 566.128C199.147 565.957 199.27 565.739 199.27 565.472C199.27 565.184 199.12 564.971 198.822 564.832C198.534 564.683 198.07 564.523 197.43 564.352C196.768 564.192 196.224 564.027 195.798 563.856C195.382 563.685 195.019 563.424 194.71 563.072C194.411 562.72 194.262 562.245 194.262 561.648C194.262 561.157 194.4 560.709 194.678 560.304C194.966 559.899 195.371 559.579 195.894 559.344C196.427 559.109 197.051 558.992 197.766 558.992C198.822 558.992 199.664 559.259 200.294 559.792C200.923 560.315 201.27 561.024 201.334 561.92H199.19C199.158 561.568 199.008 561.291 198.742 561.088C198.486 560.875 198.139 560.768 197.702 560.768C197.296 560.768 196.982 560.843 196.758 560.992C196.544 561.141 196.438 561.349 196.438 561.616C196.438 561.915 196.587 562.144 196.886 562.304C197.184 562.453 197.648 562.608 198.278 562.768C198.918 562.928 199.446 563.093 199.862 563.264C200.278 563.435 200.635 563.701 200.934 564.064C201.243 564.416 201.403 564.885 201.414 565.472C201.414 565.984 201.27 566.443 200.982 566.848C200.704 567.253 200.299 567.573 199.766 567.808C199.243 568.032 198.63 568.144 197.926 568.144ZM205.86 560.976V565.264C205.86 565.563 205.93 565.781 206.068 565.92C206.218 566.048 206.463 566.112 206.804 566.112H207.844V568H206.436C204.548 568 203.604 567.083 203.604 565.248V560.976H202.548V559.136H203.604V556.944H205.86V559.136H207.844V560.976H205.86ZM211.696 560.512C211.984 560.043 212.357 559.675 212.816 559.408C213.285 559.141 213.818 559.008 214.416 559.008V561.36H213.824C213.12 561.36 212.586 561.525 212.224 561.856C211.872 562.187 211.696 562.763 211.696 563.584V568H209.456V559.136H211.696V560.512ZM215.348 563.536C215.348 562.64 215.524 561.845 215.876 561.152C216.239 560.459 216.724 559.925 217.332 559.552C217.951 559.179 218.639 558.992 219.396 558.992C220.058 558.992 220.634 559.125 221.124 559.392C221.626 559.659 222.026 559.995 222.324 560.4V559.136H224.58V568H222.324V566.704C222.036 567.12 221.636 567.467 221.124 567.744C220.623 568.011 220.042 568.144 219.38 568.144C218.634 568.144 217.951 567.952 217.332 567.568C216.724 567.184 216.239 566.645 215.876 565.952C215.524 565.248 215.348 564.443 215.348 563.536ZM222.324 563.568C222.324 563.024 222.218 562.56 222.004 562.176C221.791 561.781 221.503 561.483 221.14 561.28C220.778 561.067 220.388 560.96 219.972 560.96C219.556 560.96 219.172 561.061 218.82 561.264C218.468 561.467 218.18 561.765 217.956 562.16C217.743 562.544 217.636 563.003 217.636 563.536C217.636 564.069 217.743 564.539 217.956 564.944C218.18 565.339 218.468 565.643 218.82 565.856C219.183 566.069 219.567 566.176 219.972 566.176C220.388 566.176 220.778 566.075 221.14 565.872C221.503 565.659 221.791 565.36 222.004 564.976C222.218 564.581 222.324 564.112 222.324 563.568ZM229.376 560.976V565.264C229.376 565.563 229.445 565.781 229.584 565.92C229.733 566.048 229.979 566.112 230.32 566.112H231.36V568H229.952C228.064 568 227.12 567.083 227.12 565.248V560.976H226.064V559.136H227.12V556.944H229.376V559.136H231.36V560.976H229.376ZM236.907 568.144C236.054 568.144 235.286 567.957 234.603 567.584C233.921 567.2 233.382 566.661 232.987 565.968C232.603 565.275 232.411 564.475 232.411 563.568C232.411 562.661 232.609 561.861 233.003 561.168C233.409 560.475 233.958 559.941 234.651 559.568C235.345 559.184 236.118 558.992 236.971 558.992C237.825 558.992 238.598 559.184 239.291 559.568C239.985 559.941 240.529 560.475 240.923 561.168C241.329 561.861 241.531 562.661 241.531 563.568C241.531 564.475 241.323 565.275 240.907 565.968C240.502 566.661 239.947 567.2 239.243 567.584C238.55 567.957 237.771 568.144 236.907 568.144ZM236.907 566.192C237.313 566.192 237.691 566.096 238.043 565.904C238.406 565.701 238.694 565.403 238.907 565.008C239.121 564.613 239.227 564.133 239.227 563.568C239.227 562.725 239.003 562.08 238.555 561.632C238.118 561.173 237.579 560.944 236.939 560.944C236.299 560.944 235.761 561.173 235.323 561.632C234.897 562.08 234.683 562.725 234.683 563.568C234.683 564.411 234.891 565.061 235.307 565.52C235.734 565.968 236.267 566.192 236.907 566.192ZM245.414 560.512C245.702 560.043 246.076 559.675 246.534 559.408C247.004 559.141 247.537 559.008 248.134 559.008V561.36H247.542C246.838 561.36 246.305 561.525 245.942 561.856C245.59 562.187 245.414 562.763 245.414 563.584V568H243.174V559.136H245.414V560.512Z" fill="white"/>
<path d="M442.998 680.4C442.998 679.301 443.243 678.32 443.734 677.456C444.235 676.581 444.912 675.904 445.766 675.424C446.63 674.933 447.595 674.688 448.662 674.688C449.91 674.688 451.003 675.008 451.942 675.648C452.88 676.288 453.536 677.173 453.91 678.304H451.334C451.078 677.771 450.715 677.371 450.246 677.104C449.787 676.837 449.254 676.704 448.646 676.704C447.995 676.704 447.414 676.859 446.902 677.168C446.4 677.467 446.006 677.893 445.718 678.448C445.44 679.003 445.302 679.653 445.302 680.4C445.302 681.136 445.44 681.787 445.718 682.352C446.006 682.907 446.4 683.339 446.902 683.648C447.414 683.947 447.995 684.096 448.646 684.096C449.254 684.096 449.787 683.963 450.246 683.696C450.715 683.419 451.078 683.013 451.334 682.48H453.91C453.536 683.621 452.88 684.512 451.942 685.152C451.014 685.781 449.92 686.096 448.662 686.096C447.595 686.096 446.63 685.856 445.766 685.376C444.912 684.885 444.235 684.208 443.734 683.344C443.243 682.48 442.998 681.499 442.998 680.4ZM455.247 681.536C455.247 680.64 455.423 679.845 455.775 679.152C456.137 678.459 456.623 677.925 457.231 677.552C457.849 677.179 458.537 676.992 459.295 676.992C459.956 676.992 460.532 677.125 461.023 677.392C461.524 677.659 461.924 677.995 462.223 678.4V677.136H464.479V686H462.223V684.704C461.935 685.12 461.535 685.467 461.023 685.744C460.521 686.011 459.94 686.144 459.279 686.144C458.532 686.144 457.849 685.952 457.231 685.568C456.623 685.184 456.137 684.645 455.775 683.952C455.423 683.248 455.247 682.443 455.247 681.536ZM462.223 681.568C462.223 681.024 462.116 680.56 461.903 680.176C461.689 679.781 461.401 679.483 461.039 679.28C460.676 679.067 460.287 678.96 459.871 678.96C459.455 678.96 459.071 679.061 458.719 679.264C458.367 679.467 458.079 679.765 457.855 680.16C457.641 680.544 457.535 681.003 457.535 681.536C457.535 682.069 457.641 682.539 457.855 682.944C458.079 683.339 458.367 683.643 458.719 683.856C459.081 684.069 459.465 684.176 459.871 684.176C460.287 684.176 460.676 684.075 461.039 683.872C461.401 683.659 461.689 683.36 461.903 682.976C462.116 682.581 462.223 682.112 462.223 681.568ZM471.579 677.008C472.635 677.008 473.488 677.344 474.139 678.016C474.789 678.677 475.115 679.605 475.115 680.8V686H472.875V681.104C472.875 680.4 472.699 679.861 472.347 679.488C471.995 679.104 471.515 678.912 470.907 678.912C470.288 678.912 469.797 679.104 469.435 679.488C469.083 679.861 468.907 680.4 468.907 681.104V686H466.667V677.136H468.907V678.24C469.205 677.856 469.584 677.557 470.043 677.344C470.512 677.12 471.024 677.008 471.579 677.008ZM480.941 683.936L483.181 677.136H485.565L482.285 686H479.565L476.301 677.136H478.701L480.941 683.936ZM486.247 681.536C486.247 680.64 486.423 679.845 486.775 679.152C487.137 678.459 487.623 677.925 488.231 677.552C488.849 677.179 489.537 676.992 490.295 676.992C490.956 676.992 491.532 677.125 492.023 677.392C492.524 677.659 492.924 677.995 493.223 678.4V677.136H495.479V686H493.223V684.704C492.935 685.12 492.535 685.467 492.023 685.744C491.521 686.011 490.94 686.144 490.279 686.144C489.532 686.144 488.849 685.952 488.231 685.568C487.623 685.184 487.137 684.645 486.775 683.952C486.423 683.248 486.247 682.443 486.247 681.536ZM493.223 681.568C493.223 681.024 493.116 680.56 492.903 680.176C492.689 679.781 492.401 679.483 492.039 679.28C491.676 679.067 491.287 678.96 490.871 678.96C490.455 678.96 490.071 679.061 489.719 679.264C489.367 679.467 489.079 679.765 488.855 680.16C488.641 680.544 488.535 681.003 488.535 681.536C488.535 682.069 488.641 682.539 488.855 682.944C489.079 683.339 489.367 683.643 489.719 683.856C490.081 684.069 490.465 684.176 490.871 684.176C491.287 684.176 491.676 684.075 492.039 683.872C492.401 683.659 492.689 683.36 492.903 682.976C493.116 682.581 493.223 682.112 493.223 681.568Z" fill="white"/>
<path d="M985.273 680.112C984.494 680.112 983.79 679.979 983.161 679.712C982.542 679.445 982.051 679.061 981.689 678.56C981.326 678.059 981.139 677.467 981.129 676.784H983.529C983.561 677.243 983.721 677.605 984.009 677.872C984.307 678.139 984.713 678.272 985.225 678.272C985.747 678.272 986.158 678.149 986.457 677.904C986.755 677.648 986.905 677.317 986.905 676.912C986.905 676.581 986.803 676.309 986.601 676.096C986.398 675.883 986.142 675.717 985.833 675.6C985.534 675.472 985.118 675.333 984.585 675.184C983.859 674.971 983.267 674.763 982.809 674.56C982.361 674.347 981.971 674.032 981.641 673.616C981.321 673.189 981.161 672.624 981.161 671.92C981.161 671.259 981.326 670.683 981.657 670.192C981.987 669.701 982.451 669.328 983.049 669.072C983.646 668.805 984.329 668.672 985.097 668.672C986.249 668.672 987.182 668.955 987.897 669.52C988.622 670.075 989.022 670.853 989.097 671.856H986.633C986.611 671.472 986.446 671.157 986.137 670.912C985.838 670.656 985.438 670.528 984.937 670.528C984.499 670.528 984.147 670.64 983.881 670.864C983.625 671.088 983.497 671.413 983.497 671.84C983.497 672.139 983.593 672.389 983.785 672.592C983.987 672.784 984.233 672.944 984.521 673.072C984.819 673.189 985.235 673.328 985.769 673.488C986.494 673.701 987.086 673.915 987.545 674.128C988.003 674.341 988.398 674.661 988.729 675.088C989.059 675.515 989.225 676.075 989.225 676.768C989.225 677.365 989.07 677.92 988.76 678.432C988.451 678.944 987.998 679.355 987.401 679.664C986.803 679.963 986.094 680.112 985.273 680.112ZM996.415 680L993.407 676.224V680H991.167V668.16H993.407V674.896L996.383 671.136H999.295L995.391 675.584L999.327 680H996.415ZM1008.75 675.376C1008.75 675.696 1008.73 675.984 1008.69 676.24H1002.21C1002.26 676.88 1002.48 677.381 1002.88 677.744C1003.27 678.107 1003.76 678.288 1004.33 678.288C1005.17 678.288 1005.76 677.931 1006.11 677.216H1008.53C1008.27 678.069 1007.78 678.773 1007.05 679.328C1006.33 679.872 1005.44 680.144 1004.38 680.144C1003.53 680.144 1002.76 679.957 1002.08 679.584C1001.41 679.2 1000.88 678.661 1000.49 677.968C1000.12 677.275 999.934 676.475 999.934 675.568C999.934 674.651 1000.12 673.845 1000.49 673.152C1000.87 672.459 1001.39 671.925 1002.06 671.552C1002.73 671.179 1003.51 670.992 1004.38 670.992C1005.22 670.992 1005.98 671.173 1006.64 671.536C1007.31 671.899 1007.83 672.416 1008.19 673.088C1008.56 673.749 1008.75 674.512 1008.75 675.376ZM1006.43 674.736C1006.42 674.16 1006.21 673.701 1005.81 673.36C1005.4 673.008 1004.9 672.832 1004.32 672.832C1003.76 672.832 1003.29 673.003 1002.91 673.344C1002.54 673.675 1002.31 674.139 1002.22 674.736H1006.43ZM1012.99 672.976V677.264C1012.99 677.563 1013.06 677.781 1013.2 677.92C1013.35 678.048 1013.6 678.112 1013.94 678.112H1014.98V680H1013.57C1011.68 680 1010.74 679.083 1010.74 677.248V672.976H1009.68V671.136H1010.74V668.944H1012.99V671.136H1014.98V672.976H1012.99ZM1016.01 675.568C1016.01 674.651 1016.2 673.851 1016.57 673.168C1016.95 672.475 1017.46 671.941 1018.12 671.568C1018.79 671.184 1019.54 670.992 1020.4 670.992C1021.5 670.992 1022.4 671.269 1023.12 671.824C1023.84 672.368 1024.33 673.136 1024.57 674.128H1022.16C1022.03 673.744 1021.81 673.445 1021.5 673.232C1021.2 673.008 1020.83 672.896 1020.38 672.896C1019.74 672.896 1019.23 673.131 1018.86 673.6C1018.49 674.059 1018.3 674.715 1018.3 675.568C1018.3 676.411 1018.49 677.067 1018.86 677.536C1019.23 677.995 1019.74 678.224 1020.38 678.224C1021.29 678.224 1021.88 677.819 1022.16 677.008H1024.57C1024.33 677.968 1023.84 678.731 1023.12 679.296C1022.39 679.861 1021.48 680.144 1020.4 680.144C1019.54 680.144 1018.79 679.957 1018.12 679.584C1017.46 679.2 1016.95 678.667 1016.57 677.984C1016.2 677.291 1016.01 676.485 1016.01 675.568ZM1031.21 671.008C1031.88 671.008 1032.47 671.157 1033 671.456C1033.52 671.744 1033.93 672.176 1034.21 672.752C1034.51 673.317 1034.66 674 1034.66 674.8V680H1032.42V675.104C1032.42 674.4 1032.25 673.861 1031.89 673.488C1031.54 673.104 1031.06 672.912 1030.45 672.912C1029.83 672.912 1029.34 673.104 1028.98 673.488C1028.63 673.861 1028.45 674.4 1028.45 675.104V680H1026.21V668.16H1028.45V672.24C1028.74 671.856 1029.13 671.557 1029.61 671.344C1030.09 671.12 1030.62 671.008 1031.21 671.008Z" fill="white"/>
<path d="M706.469 394.832V396.64H701.813V399.504H705.381V401.28H701.813V406H699.573V394.832H706.469ZM710.297 394.832V406H708.057V394.832H710.297ZM720.286 398.192C720.03 397.723 719.678 397.365 719.23 397.12C718.782 396.875 718.26 396.752 717.662 396.752C717.001 396.752 716.414 396.901 715.902 397.2C715.39 397.499 714.99 397.925 714.702 398.48C714.414 399.035 714.27 399.675 714.27 400.4C714.27 401.147 714.414 401.797 714.702 402.352C715.001 402.907 715.412 403.333 715.934 403.632C716.457 403.931 717.065 404.08 717.758 404.08C718.612 404.08 719.31 403.856 719.854 403.408C720.398 402.949 720.756 402.315 720.926 401.504H717.086V399.792H723.134V401.744C722.985 402.523 722.665 403.243 722.174 403.904C721.684 404.565 721.049 405.099 720.27 405.504C719.502 405.899 718.638 406.096 717.678 406.096C716.601 406.096 715.625 405.856 714.75 405.376C713.886 404.885 713.204 404.208 712.702 403.344C712.212 402.48 711.966 401.499 711.966 400.4C711.966 399.301 712.212 398.32 712.702 397.456C713.204 396.581 713.886 395.904 714.75 395.424C715.625 394.933 716.596 394.688 717.662 394.688C718.921 394.688 720.014 394.997 720.942 395.616C721.87 396.224 722.51 397.083 722.862 398.192H720.286ZM736.968 394.832V406H734.728V398.736L731.736 406H730.04L727.032 398.736V406H724.792V394.832H727.336L730.888 403.136L734.44 394.832H736.968ZM746.03 403.872H741.582L740.846 406H738.494L742.51 394.816H745.118L749.134 406H746.766L746.03 403.872ZM745.422 402.08L743.806 397.408L742.19 402.08H745.422Z" fill="white"/>
<path d="M1260.36 556.832V568H1258.12V556.832H1260.36ZM1267.48 559.008C1268.54 559.008 1269.39 559.344 1270.04 560.016C1270.7 560.677 1271.02 561.605 1271.02 562.8V568H1268.78V563.104C1268.78 562.4 1268.6 561.861 1268.25 561.488C1267.9 561.104 1267.42 560.912 1266.81 560.912C1266.19 560.912 1265.7 561.104 1265.34 561.488C1264.99 561.861 1264.81 562.4 1264.81 563.104V568H1262.57V559.136H1264.81V560.24C1265.11 559.856 1265.49 559.557 1265.95 559.344C1266.42 559.12 1266.93 559.008 1267.48 559.008ZM1277.05 556.832C1278.23 556.832 1279.26 557.061 1280.14 557.52C1281.04 557.979 1281.73 558.635 1282.21 559.488C1282.7 560.331 1282.94 561.312 1282.94 562.432C1282.94 563.552 1282.7 564.533 1282.21 565.376C1281.73 566.208 1281.04 566.853 1280.14 567.312C1279.26 567.771 1278.23 568 1277.05 568H1273.15V556.832H1277.05ZM1276.97 566.096C1278.15 566.096 1279.05 565.776 1279.69 565.136C1280.33 564.496 1280.65 563.595 1280.65 562.432C1280.65 561.269 1280.33 560.363 1279.69 559.712C1279.05 559.051 1278.15 558.72 1276.97 558.72H1275.39V566.096H1276.97ZM1292.86 563.376C1292.86 563.696 1292.84 563.984 1292.8 564.24H1286.32C1286.37 564.88 1286.59 565.381 1286.99 565.744C1287.38 566.107 1287.87 566.288 1288.44 566.288C1289.28 566.288 1289.87 565.931 1290.22 565.216H1292.64C1292.38 566.069 1291.89 566.773 1291.16 567.328C1290.44 567.872 1289.55 568.144 1288.49 568.144C1287.64 568.144 1286.87 567.957 1286.19 567.584C1285.52 567.2 1284.99 566.661 1284.6 565.968C1284.23 565.275 1284.04 564.475 1284.04 563.568C1284.04 562.651 1284.23 561.845 1284.6 561.152C1284.98 560.459 1285.5 559.925 1286.17 559.552C1286.84 559.179 1287.62 558.992 1288.49 558.992C1289.33 558.992 1290.09 559.173 1290.75 559.536C1291.42 559.899 1291.94 560.416 1292.3 561.088C1292.67 561.749 1292.86 562.512 1292.86 563.376ZM1290.54 562.736C1290.53 562.16 1290.32 561.701 1289.92 561.36C1289.51 561.008 1289.01 560.832 1288.43 560.832C1287.87 560.832 1287.4 561.003 1287.02 561.344C1286.65 561.675 1286.42 562.139 1286.33 562.736H1290.54ZM1297.89 568.144C1297.16 568.144 1296.51 568.016 1295.93 567.76C1295.36 567.493 1294.9 567.136 1294.56 566.688C1294.23 566.24 1294.05 565.744 1294.01 565.2H1296.27C1296.31 565.541 1296.48 565.824 1296.77 566.048C1297.07 566.272 1297.43 566.384 1297.87 566.384C1298.3 566.384 1298.63 566.299 1298.86 566.128C1299.11 565.957 1299.23 565.739 1299.23 565.472C1299.23 565.184 1299.08 564.971 1298.78 564.832C1298.49 564.683 1298.03 564.523 1297.39 564.352C1296.73 564.192 1296.19 564.027 1295.76 563.856C1295.34 563.685 1294.98 563.424 1294.67 563.072C1294.37 562.72 1294.22 562.245 1294.22 561.648C1294.22 561.157 1294.36 560.709 1294.64 560.304C1294.93 559.899 1295.33 559.579 1295.85 559.344C1296.39 559.109 1297.01 558.992 1297.73 558.992C1298.78 558.992 1299.63 559.259 1300.25 559.792C1300.88 560.315 1301.23 561.024 1301.29 561.92H1299.15C1299.12 561.568 1298.97 561.291 1298.7 561.088C1298.45 560.875 1298.1 560.768 1297.66 560.768C1297.26 560.768 1296.94 560.843 1296.72 560.992C1296.51 561.141 1296.4 561.349 1296.4 561.616C1296.4 561.915 1296.55 562.144 1296.85 562.304C1297.15 562.453 1297.61 562.608 1298.24 562.768C1298.88 562.928 1299.41 563.093 1299.82 563.264C1300.24 563.435 1300.6 563.701 1300.89 564.064C1301.2 564.416 1301.36 564.885 1301.37 565.472C1301.37 565.984 1301.23 566.443 1300.94 566.848C1300.67 567.253 1300.26 567.573 1299.73 567.808C1299.2 568.032 1298.59 568.144 1297.89 568.144ZM1304.35 558.08C1303.95 558.08 1303.62 557.957 1303.36 557.712C1303.1 557.456 1302.97 557.141 1302.97 556.768C1302.97 556.395 1303.1 556.085 1303.36 555.84C1303.62 555.584 1303.95 555.456 1304.35 555.456C1304.74 555.456 1305.07 555.584 1305.33 555.84C1305.59 556.085 1305.73 556.395 1305.73 556.768C1305.73 557.141 1305.59 557.456 1305.33 557.712C1305.07 557.957 1304.74 558.08 1304.35 558.08ZM1305.45 559.136V568H1303.21V559.136H1305.45ZM1311.14 558.992C1311.8 558.992 1312.38 559.125 1312.88 559.392C1313.38 559.648 1313.78 559.984 1314.07 560.4V559.136H1316.32V568.064C1316.32 568.885 1316.16 569.616 1315.83 570.256C1315.5 570.907 1315 571.419 1314.34 571.792C1313.68 572.176 1312.88 572.368 1311.94 572.368C1310.68 572.368 1309.65 572.075 1308.83 571.488C1308.03 570.901 1307.58 570.101 1307.47 569.088H1309.7C1309.82 569.493 1310.07 569.813 1310.45 570.048C1310.85 570.293 1311.32 570.416 1311.87 570.416C1312.53 570.416 1313.05 570.219 1313.46 569.824C1313.86 569.44 1314.07 568.853 1314.07 568.064V566.688C1313.78 567.104 1313.38 567.451 1312.87 567.728C1312.37 568.005 1311.79 568.144 1311.14 568.144C1310.39 568.144 1309.71 567.952 1309.09 567.568C1308.47 567.184 1307.98 566.645 1307.62 565.952C1307.27 565.248 1307.09 564.443 1307.09 563.536C1307.09 562.64 1307.27 561.845 1307.62 561.152C1307.98 560.459 1308.47 559.925 1309.07 559.552C1309.69 559.179 1310.38 558.992 1311.14 558.992ZM1314.07 563.568C1314.07 563.024 1313.96 562.56 1313.75 562.176C1313.53 561.781 1313.25 561.483 1312.88 561.28C1312.52 561.067 1312.13 560.96 1311.71 560.96C1311.3 560.96 1310.91 561.061 1310.56 561.264C1310.21 561.467 1309.92 561.765 1309.7 562.16C1309.49 562.544 1309.38 563.003 1309.38 563.536C1309.38 564.069 1309.49 564.539 1309.7 564.944C1309.92 565.339 1310.21 565.643 1310.56 565.856C1310.93 566.069 1311.31 566.176 1311.71 566.176C1312.13 566.176 1312.52 566.075 1312.88 565.872C1313.25 565.659 1313.53 565.36 1313.75 564.976C1313.96 564.581 1314.07 564.112 1314.07 563.568ZM1323.42 559.008C1324.48 559.008 1325.33 559.344 1325.98 560.016C1326.63 560.677 1326.96 561.605 1326.96 562.8V568H1324.72V563.104C1324.72 562.4 1324.54 561.861 1324.19 561.488C1323.84 561.104 1323.36 560.912 1322.75 560.912C1322.13 560.912 1321.64 561.104 1321.28 561.488C1320.93 561.861 1320.75 562.4 1320.75 563.104V568H1318.51V559.136H1320.75V560.24C1321.05 559.856 1321.43 559.557 1321.89 559.344C1322.36 559.12 1322.87 559.008 1323.42 559.008Z" fill="white"/>
</g>
<defs>
<linearGradient id="paint0_linear_1577_438" x1="720" y1="117" x2="720" y2="459" gradientUnits="userSpaceOnUse">
<stop stop-color="#E5E5E5"/>
<stop offset="1" stop-color="white" stop-opacity="0"/>
</linearGradient>
<linearGradient id="paint1_linear_1577_438" x1="720" y1="307" x2="720" y2="628" gradientUnits="userSpaceOnUse">
<stop stop-color="#E5E5E5"/>
<stop offset="1" stop-color="white" stop-opacity="0"/>
</linearGradient>
<linearGradient id="paint2_linear_1577_438" x1="720" y1="536" x2="720" y2="810.5" gradientUnits="userSpaceOnUse">
<stop stop-color="#E5E5E5"/>
<stop offset="1" stop-color="white" stop-opacity="0"/>
</linearGradient>
<linearGradient id="paint3_linear_1577_438" x1="530.697" y1="595.655" x2="431.001" y2="571.617" gradientUnits="userSpaceOnUse">
<stop stop-color="#7D2AE7"/>
<stop offset="0.77" stop-color="#7D2AE7"/>
<stop offset="1" stop-color="#7D2AE7" stop-opacity="0"/>
</linearGradient>
<radialGradient id="paint4_radial_1577_438" cx="0" cy="0" r="1" gradientTransform="matrix(24.752 -25.1312 16.9199 16.238 473.578 596.706)" gradientUnits="userSpaceOnUse">
<stop stop-color="#6420FF"/>
<stop offset="1" stop-color="#6420FF" stop-opacity="0"/>
</radialGradient>
<radialGradient id="paint5_radial_1577_438" cx="0" cy="0" r="1" gradientTransform="matrix(68.8341 6.05009 -4.88499 54.1553 415.679 583.917)" gradientUnits="userSpaceOnUse">
<stop offset="0.25" stop-color="#00C4CC"/>
<stop offset="1" stop-color="#00C4CC" stop-opacity="0"/>
</radialGradient>
<radialGradient id="paint6_radial_1577_438" cx="0" cy="0" r="1" gradientTransform="matrix(34.6823 -27.5745 19.1008 23.4093 460.984 593.794)" gradientUnits="userSpaceOnUse">
<stop stop-color="#6420FF"/>
<stop offset="1" stop-color="#6420FF" stop-opacity="0"/>
</radialGradient>
<radialGradient id="paint7_radial_1577_438" cx="0" cy="0" r="1" gradientTransform="matrix(42.9034 -28.8543 19.9871 28.9579 417.695 602.286)" gradientUnits="userSpaceOnUse">
<stop stop-color="#6420FF"/>
<stop offset="1" stop-color="#6420FF" stop-opacity="0"/>
</radialGradient>
<radialGradient id="paint8_radial_1577_438" cx="0" cy="0" r="1" gradientTransform="matrix(100.187 21.8734 -27.177 121.292 422.982 562.174)" gradientUnits="userSpaceOnUse">
<stop stop-color="#00C4CC"/>
<stop offset="1" stop-color="#00C4CC" stop-opacity="0"/>
</radialGradient>
<clipPath id="clip0_1577_438">
<rect width="1440" height="788" fill="white"/>
</clipPath>
<clipPath id="clip1_1577_438">
<rect width="120" height="38" fill="white" transform="translate(412 557)"/>
</clipPath>
</defs>
</svg>
