<svg width="24" height="25" viewBox="0 0 24 25" fill="none" xmlns="http://www.w3.org/2000/svg">
<path d="M18 12.1412C17.9951 11.6151 17.7832 11.1121 17.41 10.7412L13.12 6.44118C12.9326 6.25493 12.6792 6.15039 12.415 6.15039C12.1508 6.15039 11.8974 6.25493 11.71 6.44118C11.6163 6.53415 11.5419 6.64475 11.4911 6.76661C11.4403 6.88847 11.4142 7.01917 11.4142 7.15118C11.4142 7.2832 11.4403 7.4139 11.4911 7.53576C11.5419 7.65762 11.6163 7.76822 11.71 7.86118L15 11.1412H5C4.73478 11.1412 4.48043 11.2465 4.29289 11.4341C4.10536 11.6216 4 11.876 4 12.1412C4 12.4064 4.10536 12.6608 4.29289 12.8483C4.48043 13.0358 4.73478 13.1412 5 13.1412H15L11.71 16.4312C11.5217 16.6182 11.4154 16.8723 11.4144 17.1376C11.4135 17.403 11.518 17.6579 11.705 17.8462C11.892 18.0345 12.1461 18.1408 12.4115 18.1417C12.6768 18.1427 12.9317 18.0382 13.12 17.8512L17.41 13.5512C17.7856 13.1778 17.9978 12.6708 18 12.1412Z" fill="black"/>
</svg>
