<svg width="24" height="24" viewBox="0 0 24 24" fill="none" xmlns="http://www.w3.org/2000/svg">
<path d="M17.54 2.25303H12.0623V0.630848C12.0623 0.463537 11.9952 0.303078 11.8757 0.184771C11.7562 0.0664641 11.5941 0 11.4251 0H10.4238C10.2548 0 10.0927 0.0664641 9.97322 0.184771C9.85372 0.303078 9.78659 0.463537 9.78659 0.630848V2.25303H4.30892C3.16657 2.25363 2.07118 2.70316 1.26341 3.50288C0.455645 4.30259 0.00157955 5.38705 0.000976562 6.51802V9.05943C0.000976563 11.8553 1.12283 14.5367 3.11974 16.5137C5.11664 18.4907 7.82503 19.6014 10.6491 19.6014H11.4251C11.5941 19.6014 11.7562 19.5349 11.8757 19.4166C11.9952 19.2983 12.0623 19.1378 12.0623 18.9705V17.9792C12.0623 17.8119 11.9952 17.6514 11.8757 17.5331C11.7562 17.4148 11.5941 17.3483 11.4251 17.3483H10.6491C8.42859 17.3483 6.29904 16.475 4.72892 14.9206C3.15879 13.3661 2.2767 11.2578 2.2767 9.05943V6.51802C2.2767 5.98441 2.49081 5.47266 2.87192 5.09535C3.25304 4.71803 3.76994 4.50606 4.30892 4.50606H17.54C18.079 4.50606 18.5959 4.71803 18.977 5.09535C19.3581 5.47266 19.5722 5.98441 19.5722 6.51802V9.23742C19.5708 9.85556 19.4944 10.4713 19.3446 11.0714C19.3049 11.226 19.3261 11.3898 19.4039 11.5295C19.4816 11.6693 19.6101 11.7745 19.7634 11.8239L20.7192 12.1326C20.8017 12.1597 20.889 12.1697 20.9757 12.1621C21.0623 12.1544 21.1465 12.1292 21.2228 12.088C21.2992 12.0468 21.3663 11.9905 21.4198 11.9226C21.4733 11.8547 21.5121 11.7766 21.5339 11.6932C21.7408 10.8907 21.8463 10.0657 21.8479 9.23742V6.51802C21.8473 5.38705 21.3933 4.30259 20.5855 3.50288C19.7777 2.70316 18.6823 2.25363 17.54 2.25303Z" fill="white"/>
<path d="M7.28542 11.7158C8.2909 11.7158 9.106 10.9088 9.106 9.91336C9.106 8.9179 8.2909 8.11093 7.28542 8.11093C6.27994 8.11093 5.46484 8.9179 5.46484 9.91336C5.46484 10.9088 6.27994 11.7158 7.28542 11.7158Z" fill="white"/>
<path d="M14.5628 11.7158C15.5682 11.7158 16.3833 10.9088 16.3833 9.91336C16.3833 8.9179 15.5682 8.11093 14.5628 8.11093C13.5573 8.11093 12.7422 8.9179 12.7422 9.91336C12.7422 10.9088 13.5573 11.7158 14.5628 11.7158Z" fill="white"/>
<path d="M21.7944 18.2047L23.8562 19.009C23.8986 19.0256 23.935 19.0545 23.9607 19.0918C23.9864 19.1292 24.0001 19.1733 24.0001 19.2185C24.0001 19.2637 23.9864 19.3079 23.9607 19.3452C23.935 19.3826 23.8986 19.4114 23.8562 19.4281L21.7944 20.2324C21.4294 20.3753 21.0979 20.5907 20.8203 20.8655C20.5428 21.1402 20.3252 21.4684 20.1809 21.8298L19.3684 23.8575C19.3517 23.8995 19.3225 23.9356 19.2848 23.961C19.247 23.9864 19.2024 24 19.1568 24C19.1111 24 19.0666 23.9864 19.0288 23.961C18.9911 23.9356 18.9619 23.8995 18.9451 23.8575L18.1327 21.8298C17.9888 21.4682 17.7712 21.1399 17.4937 20.8651C17.2161 20.5903 16.8844 20.3749 16.5192 20.2324L14.4711 19.4281C14.4286 19.4114 14.3922 19.3826 14.3665 19.3452C14.3409 19.3079 14.3271 19.2637 14.3271 19.2185C14.3271 19.1733 14.3409 19.1292 14.3665 19.0918C14.3922 19.0545 14.4286 19.0256 14.4711 19.009L16.5192 18.2047C16.8844 18.0621 17.2161 17.8468 17.4937 17.572C17.7712 17.2972 17.9888 16.9688 18.1327 16.6073L18.9451 14.5795C18.9619 14.5375 18.9911 14.5014 19.0288 14.476C19.0666 14.4506 19.1111 14.437 19.1568 14.437C19.2024 14.437 19.247 14.4506 19.2848 14.476C19.3225 14.5014 19.3517 14.5375 19.3684 14.5795L20.1809 16.6073C20.3252 16.9686 20.5428 17.2968 20.8203 17.5716C21.0979 17.8463 21.4294 18.0618 21.7944 18.2047Z" fill="white"/>
</svg>
