<svg width="17" height="16" viewBox="0 0 17 16" fill="none" xmlns="http://www.w3.org/2000/svg">
<g clip-path="url(#clip0_540_1694)">
<path d="M8.00002 11.3333V13.964C8.00002 14.876 7.38935 15.696 6.50135 15.904C6.23335 15.9667 5.95402 16 5.66669 16C4.05202 16 2.65669 14.9627 2.17802 13.4433C1.23935 12.8293 0.666687 11.7907 0.666687 10.6667C0.666687 10.076 0.823354 9.50867 1.12402 9C0.82402 8.49133 0.666687 7.924 0.666687 7.33333C0.666687 6.288 1.16802 5.30667 2.00002 4.68067V4.66667C2.00002 3.402 2.88469 2.34067 4.06802 2.068C4.34069 0.885333 5.40269 0 6.66669 0H6.68135C7.41002 0.002 8.00002 0.594 8.00002 1.32267V5.33333H6.48202C6.25135 4.93667 5.82602 4.66667 5.33335 4.66667C4.59669 4.66667 4.00002 5.26333 4.00002 6C4.00002 6.73667 4.59669 7.33333 5.33335 7.33333C5.82535 7.33333 6.25069 7.06333 6.48202 6.66667H8.00002V10H6.48202C6.25135 9.60333 5.82602 9.33333 5.33335 9.33333C4.59669 9.33333 4.00002 9.93 4.00002 10.6667C4.00002 11.4033 4.59669 12 5.33335 12C5.82535 12 6.25069 11.73 6.48202 11.3333H8.00002ZM16.6667 7.33333C16.6667 6.288 16.1654 5.30667 15.3334 4.68067V4.66667C15.3334 3.402 14.4487 2.34067 13.2654 2.068C12.9927 0.885333 11.9307 0 10.6667 0H10.652C9.92335 0.002 9.33335 0.593333 9.33335 1.322V8H10.6667C11.3334 8 11.3334 7.33333 11.3334 7.33333V7.14867C10.8487 6.86667 10.554 6.29533 10.708 5.666C10.8254 5.186 11.2287 4.79867 11.712 4.69733C12.5747 4.51667 13.334 5.17 13.334 6.00067C13.334 6.49267 13.064 6.918 12.6674 7.14933V7.334C12.6674 8.43867 11.772 9.334 10.6674 9.334H9.33402V13.9647C9.33402 14.8767 9.94469 15.6967 10.832 15.9047C11.1 15.9673 11.38 16.0007 11.6674 16.0007C13.282 16.0007 14.6774 14.9633 15.156 13.444C16.0947 12.83 16.6674 11.7913 16.6674 10.6673C16.6674 10.0767 16.5107 9.50933 16.21 9.00067C16.51 8.492 16.6674 7.92467 16.6674 7.334L16.6667 7.33333Z" fill="black"/>
</g>
<defs>
<clipPath id="clip0_540_1694">
<rect width="16" height="16" fill="white" transform="translate(0.666687)"/>
</clipPath>
</defs>
</svg>
