<svg width="16" height="16" viewBox="0 0 16 16" fill="none" xmlns="http://www.w3.org/2000/svg">
<g clip-path="url(#clip0_540_1696)">
<path d="M13.3333 2H2.66667C1.196 2 0 3.196 0 4.66667V10C0 11.4707 1.196 12.6667 2.66667 12.6667H4.61533L7.11467 14.7713C7.36933 14.9973 7.68867 15.1093 8.006 15.1093C8.318 15.1093 8.62667 15.0007 8.86733 14.7867L11.4327 12.6667H13.334C14.8047 12.6667 16.0007 11.4707 16.0007 10V4.66667C16.0007 3.196 14.804 2 13.3333 2ZM5.21467 7.25067L4.426 7.89333L4.752 8.88667C4.79667 9.02133 4.752 9.16933 4.63933 9.25533C4.52667 9.34133 4.37267 9.34733 4.254 9.27067L3.336 8.67267L2.43333 9.27667C2.37733 9.314 2.31267 9.33267 2.248 9.33267C2.17733 9.33267 2.10733 9.31067 2.048 9.266C1.93467 9.18133 1.88733 9.034 1.93 8.89933L2.24333 7.894L1.45067 7.24933C1.344 7.15867 1.30533 7.01133 1.35333 6.88067C1.40133 6.74933 1.52667 6.662 1.666 6.662H2.666L3.02 5.66867C3.06867 5.538 3.19333 5.452 3.33267 5.452C3.472 5.452 3.59667 5.53867 3.64533 5.66867L3.99933 6.662H4.99933C5.13933 6.662 5.26467 6.74933 5.31267 6.88133C5.36067 7.01333 5.322 7.16067 5.21467 7.25067ZM9.88133 7.25067L9.09267 7.89333L9.41867 8.88667C9.46333 9.02133 9.41867 9.16933 9.306 9.25533C9.19333 9.34133 9.03933 9.34733 8.92067 9.27067L8.00267 8.67267L7.1 9.27667C7.044 9.314 6.97933 9.33267 6.91467 9.33267C6.844 9.33267 6.774 9.31067 6.71467 9.266C6.60133 9.18133 6.554 9.034 6.59667 8.89933L6.91 7.894L6.11733 7.24933C6.01067 7.15867 5.972 7.01133 6.02 6.88067C6.068 6.74933 6.19333 6.662 6.33267 6.662H7.33267L7.68667 5.66867C7.73533 5.538 7.86 5.452 7.99933 5.452C8.13867 5.452 8.26333 5.53867 8.312 5.66867L8.666 6.662H9.666C9.806 6.662 9.93133 6.74933 9.97933 6.88133C10.0273 7.01333 9.98867 7.16067 9.88133 7.25067ZM14.548 7.25067L13.7593 7.89333L14.0853 8.88667C14.13 9.02133 14.0853 9.16933 13.9727 9.25533C13.86 9.34133 13.706 9.34733 13.5873 9.27067L12.6693 8.67267L11.7667 9.27667C11.7107 9.314 11.646 9.33267 11.5813 9.33267C11.5107 9.33267 11.4407 9.31067 11.3813 9.266C11.268 9.18133 11.2207 9.034 11.2633 8.89933L11.5767 7.894L10.784 7.24933C10.6773 7.15867 10.6387 7.01133 10.6867 6.88067C10.7347 6.74933 10.86 6.662 10.9993 6.662H11.9993L12.3533 5.66867C12.402 5.538 12.5267 5.452 12.666 5.452C12.8053 5.452 12.93 5.53867 12.9787 5.66867L13.3327 6.662H14.3327C14.4727 6.662 14.598 6.74933 14.646 6.88133C14.694 7.01333 14.6547 7.16067 14.5473 7.25067H14.548Z" fill="black"/>
</g>
<defs>
<clipPath id="clip0_540_1696">
<rect width="16" height="16" fill="white"/>
</clipPath>
</defs>
</svg>
