<svg width="17" height="16" viewBox="0 0 17 16" fill="none" xmlns="http://www.w3.org/2000/svg">
<g clip-path="url(#clip0_540_1691)">
<path d="M12.3333 8C10.124 8 8.33334 9.79067 8.33334 12C8.33334 14.2093 10.124 16 12.3333 16C14.5427 16 16.3333 14.2093 16.3333 12C16.3333 9.79067 14.5427 8 12.3333 8ZM14.3333 12.6667H12.3333V14.3027L10.542 12.5113C10.264 12.2333 10.264 11.7827 10.542 11.5047L12.3333 9.71267V11.3333H14.3333V12.6667ZM7.04601 12.6667H5.51667L2.53067 14.446C2.10801 14.7293 1.54201 14.7427 1.08934 14.4993C0.622672 14.2493 0.332672 13.766 0.332672 13.2367V2C0.333339 0.897333 1.23067 0 2.33334 0H13C14.1027 0 15 0.897333 15 2V7.386C14.2147 6.93133 13.306 6.66667 12.3333 6.66667C9.388 6.66667 7.00001 9.05467 7.00001 12C7.00001 12.226 7.01867 12.448 7.04601 12.6667Z" fill="black"/>
</g>
<defs>
<clipPath id="clip0_540_1691">
<rect width="16" height="16" fill="white" transform="translate(0.333344)"/>
</clipPath>
</defs>
</svg>
