<svg width="60" height="60" viewBox="0 0 60 60" fill="none" xmlns="http://www.w3.org/2000/svg">
<rect x="-0.5" y="0.5" width="59" height="59" rx="29.5" transform="matrix(-1 0 0 1 59 0)" stroke="white"/>
<path d="M16 30.4902C16.0097 29.4373 16.4337 28.4305 17.18 27.6882L25.76 19.082C26.1347 18.7092 26.6416 18.5 27.17 18.5C27.6984 18.5 28.2053 18.7092 28.58 19.082C28.7675 19.2681 28.9162 19.4894 29.0178 19.7333C29.1193 19.9772 29.1716 20.2388 29.1716 20.503C29.1716 20.7672 29.1193 21.0288 29.0178 21.2727C28.9162 21.5166 28.7675 21.738 28.58 21.9241L22 28.4888H42C42.5304 28.4888 43.0391 28.6996 43.4142 29.075C43.7893 29.4503 44 29.9594 44 30.4902C44 31.021 43.7893 31.5301 43.4142 31.9055C43.0391 32.2808 42.5304 32.4917 42 32.4917H22L28.58 39.0764C28.9566 39.4506 29.1692 39.9592 29.1711 40.4904C29.173 41.0215 28.964 41.5316 28.59 41.9084C28.216 42.2853 27.7078 42.4981 27.1771 42.5C26.6463 42.5019 26.1366 42.2927 25.76 41.9185L17.18 33.3123C16.4288 32.565 16.0045 31.5501 16 30.4902Z" fill="white"/>
</svg>
