<svg width="33" height="32" viewBox="0 0 33 32" fill="none" xmlns="http://www.w3.org/2000/svg">
<path d="M24.5 16C24.4935 15.2985 24.2109 14.6279 23.7133 14.1333L17.9933 8.39999C17.7435 8.15166 17.4056 8.01227 17.0533 8.01227C16.7011 8.01227 16.3631 8.15166 16.1133 8.39999C15.9883 8.52394 15.8891 8.67141 15.8215 8.83389C15.7538 8.99637 15.7189 9.17064 15.7189 9.34666C15.7189 9.52267 15.7538 9.69695 15.8215 9.85943C15.8891 10.0219 15.9883 10.1694 16.1133 10.2933L20.5 14.6667H7.16665C6.81302 14.6667 6.47389 14.8071 6.22384 15.0572C5.97379 15.3072 5.83331 15.6464 5.83331 16C5.83331 16.3536 5.97379 16.6928 6.22384 16.9428C6.47389 17.1928 6.81302 17.3333 7.16665 17.3333H20.5L16.1133 21.72C15.8622 21.9693 15.7205 22.3081 15.7192 22.6619C15.718 23.0158 15.8573 23.3556 16.1066 23.6067C16.356 23.8577 16.6948 23.9995 17.0486 24.0007C17.4024 24.002 17.7422 23.8626 17.9933 23.6133L23.7133 17.88C24.2141 17.3822 24.497 16.7061 24.5 16Z" fill="white"/>
</svg>
