<svg width="60" height="60" viewBox="0 0 60 60" fill="none" xmlns="http://www.w3.org/2000/svg">
<rect x="0.5" y="0.5" width="59" height="59" rx="29.5" stroke="white"/>
<path d="M44 30.4902C43.9903 29.4373 43.5663 28.4305 42.82 27.6882L34.24 19.082C33.8653 18.7092 33.3584 18.5 32.83 18.5C32.3016 18.5 31.7947 18.7092 31.42 19.082C31.2325 19.2681 31.0838 19.4894 30.9822 19.7333C30.8807 19.9772 30.8284 20.2388 30.8284 20.503C30.8284 20.7672 30.8807 21.0288 30.9822 21.2727C31.0838 21.5166 31.2325 21.738 31.42 21.9241L38 28.4888H18C17.4696 28.4888 16.9609 28.6996 16.5858 29.075C16.2107 29.4503 16 29.9594 16 30.4902C16 31.021 16.2107 31.5301 16.5858 31.9055C16.9609 32.2808 17.4696 32.4917 18 32.4917H38L31.42 39.0764C31.0434 39.4506 30.8308 39.9592 30.8289 40.4904C30.827 41.0215 31.036 41.5316 31.41 41.9084C31.784 42.2853 32.2922 42.4981 32.8229 42.5C33.3537 42.5019 33.8634 42.2927 34.24 41.9185L42.82 33.3123C43.5712 32.565 43.9955 31.5501 44 30.4902Z" fill="white"/>
</svg>
