<svg width="14" height="21" viewBox="0 0 14 21" fill="none" xmlns="http://www.w3.org/2000/svg">
<path d="M9.11264 7.84668L12.3742 8.3447C12.6611 8.38998 12.8574 8.54844 12.9631 8.82008C13.0386 9.10682 12.9782 9.35583 12.7819 9.56711L10.4263 11.8761L10.9699 15.2038C11.0152 15.4905 10.9171 15.7244 10.6755 15.9055C10.4339 16.0715 10.1847 16.0866 9.92803 15.9508L7.00621 14.4115L4.10704 15.9508C3.83525 16.0866 3.57855 16.0715 3.33695 15.9055C3.11045 15.7244 3.0123 15.4905 3.0425 15.2038L3.60875 11.8761L1.25317 9.56711C1.04177 9.35583 0.981375 9.10682 1.07197 8.82008C1.16257 8.54844 1.35132 8.38998 1.63822 8.3447L4.89979 7.84668L6.34937 4.85857C6.50037 4.60202 6.71932 4.4662 7.00621 4.45111C7.30821 4.4662 7.52716 4.60202 7.66306 4.85857L9.11264 7.84668Z" fill="#BCA921"/>
</svg>
