<svg width="114" height="27" viewBox="0 0 114 27" fill="none" xmlns="http://www.w3.org/2000/svg">
<path d="M11.8783 9.4856L16.3333 10.1662C16.7252 10.2281 16.9933 10.4447 17.1377 10.8159C17.2408 11.2078 17.1583 11.5481 16.8902 11.8369L13.6727 14.9925L14.4152 19.5403C14.4771 19.9322 14.343 20.2519 14.013 20.4994C13.683 20.7262 13.3427 20.7469 12.9921 20.5612L9.00116 18.4575L5.04116 20.5612C4.66991 20.7469 4.31928 20.7262 3.98928 20.4994C3.67991 20.2519 3.54584 19.9322 3.58709 19.5403L4.36053 14.9925L1.14303 11.8369C0.854281 11.5481 0.771781 11.2078 0.895531 10.8159C1.01928 10.4447 1.27709 10.2281 1.66897 10.1662L6.12397 9.4856L8.10397 5.40185C8.31022 5.05123 8.60928 4.8656 9.00116 4.84498C9.41366 4.8656 9.71272 5.05123 9.89834 5.40185L11.8783 9.4856Z" fill="#FFB800"/>
<path d="M35.8845 9.4856L40.342 10.1662C40.734 10.2281 41.0023 10.4447 41.1468 10.8159C41.25 11.2078 41.1674 11.5481 40.8991 11.8369L37.6798 14.9925L38.4228 19.5403C38.4847 19.9322 38.3505 20.2519 38.0204 20.4994C37.6902 20.7262 37.3497 20.7469 36.9988 20.5612L33.0057 18.4575L29.0435 20.5612C28.672 20.7469 28.3212 20.7262 27.991 20.4994C27.6815 20.2519 27.5473 19.9322 27.5886 19.5403L28.3625 14.9925L25.1432 11.8369C24.8543 11.5481 24.7717 11.2078 24.8956 10.8159C25.0194 10.4447 25.2773 10.2281 25.6694 10.1662L30.1269 9.4856L32.108 5.40185C32.3144 5.05123 32.6136 4.8656 33.0057 4.84498C33.4184 4.8656 33.7176 5.05123 33.9034 5.40185L35.8845 9.4856Z" fill="#FFB800"/>
<path d="M59.8783 9.4856L64.3333 10.1662C64.7252 10.2281 64.9933 10.4447 65.1377 10.8159C65.2408 11.2078 65.1583 11.5481 64.8902 11.8369L61.6727 14.9925L62.4152 19.5403C62.4771 19.9322 62.343 20.2519 62.013 20.4994C61.683 20.7262 61.3427 20.7469 60.9921 20.5612L57.0012 18.4575L53.0412 20.5612C52.6699 20.7469 52.3193 20.7262 51.9893 20.4994C51.6799 20.2519 51.5458 19.9322 51.5871 19.5403L52.3605 14.9925L49.143 11.8369C48.8543 11.5481 48.7718 11.2078 48.8955 10.8159C49.0193 10.4447 49.2771 10.2281 49.669 10.1662L54.124 9.4856L56.104 5.40185C56.3102 5.05123 56.6093 4.8656 57.0012 4.84498C57.4137 4.8656 57.7127 5.05123 57.8983 5.40185L59.8783 9.4856Z" fill="#FFB800"/>
<path d="M83.8845 9.4856L88.342 10.1662C88.734 10.2281 89.0023 10.4447 89.1468 10.8159C89.25 11.2078 89.1674 11.5481 88.8991 11.8369L85.6798 14.9925L86.4228 19.5403C86.4847 19.9322 86.3505 20.2519 86.0204 20.4994C85.6902 20.7262 85.3497 20.7469 84.9988 20.5612L81.0057 18.4575L77.0435 20.5612C76.672 20.7469 76.3212 20.7262 75.991 20.4994C75.6815 20.2519 75.5473 19.9322 75.5886 19.5403L76.3625 14.9925L73.1432 11.8369C72.8543 11.5481 72.7717 11.2078 72.8956 10.8159C73.0194 10.4447 73.2773 10.2281 73.6694 10.1662L78.1269 9.4856L80.108 5.40185C80.3144 5.05123 80.6136 4.8656 81.0057 4.84498C81.4184 4.8656 81.7176 5.05123 81.9034 5.40185L83.8845 9.4856Z" fill="#FFB800"/>
<path d="M107.878 9.4856L112.333 10.1662C112.725 10.2281 112.993 10.4447 113.138 10.8159C113.241 11.2078 113.158 11.5481 112.89 11.8369L109.673 14.9925L110.415 19.5403C110.477 19.9322 110.343 20.2519 110.013 20.4994C109.683 20.7262 109.343 20.7469 108.992 20.5612L105.001 18.4575L101.041 20.5612C100.67 20.7469 100.319 20.7262 99.9893 20.4994C99.6799 20.2519 99.5458 19.9322 99.5871 19.5403L100.361 14.9925L97.143 11.8369C96.8543 11.5481 96.7718 11.2078 96.8955 10.8159C97.0193 10.4447 97.2771 10.2281 97.669 10.1662L102.124 9.4856L104.104 5.40185C104.31 5.05123 104.609 4.8656 105.001 4.84498C105.414 4.8656 105.713 5.05123 105.898 5.40185L107.878 9.4856Z" fill="#FFB800"/>
</svg>
