<svg width="24" height="24" viewBox="0 0 24 24" fill="none" xmlns="http://www.w3.org/2000/svg">
<path d="M11.4502 16.0605C11.1757 16.3044 10.8708 16.4263 10.5353 16.4263C10.1999 16.4263 9.89492 16.3044 9.62047 16.0605L6.69297 13.1343C6.44901 12.8599 6.32703 12.5551 6.32703 12.2198C6.32703 11.8845 6.44901 11.5797 6.69297 11.3054C6.96742 11.0615 7.27237 10.9396 7.60781 10.9396C7.94326 10.9396 8.2482 11.0615 8.52266 11.3054L10.5353 13.3171L15.4755 8.3791C15.7499 8.13525 16.0549 8.01332 16.3903 8.01332C16.7258 8.01332 17.0307 8.13525 17.3052 8.3791C17.5491 8.65344 17.6711 8.95826 17.6711 9.29355C17.6711 9.62885 17.5491 9.93367 17.3052 10.208L11.4502 16.0605ZM23.7091 12.2198C23.6786 14.4145 23.1449 16.3806 22.1081 18.118C21.0713 19.886 19.6685 21.2881 17.8998 22.3245C16.1616 23.3609 14.1947 23.8943 11.9991 23.9248C9.80344 23.8943 7.83652 23.3609 6.09832 22.3245C4.32962 21.2881 2.92686 19.886 1.89004 18.118C0.853216 16.3806 0.319557 14.4145 0.289062 12.2198C0.319557 10.0251 0.853216 8.05904 1.89004 6.32158C2.92686 4.55364 4.32962 3.15148 6.09832 2.1151C7.83652 1.07872 9.80344 0.545286 11.9991 0.514805C14.1947 0.545286 16.1616 1.07872 17.8998 2.1151C19.6685 3.15148 21.0713 4.55364 22.1081 6.32158C23.1449 8.05904 23.6786 10.0251 23.7091 12.2198ZM11.9991 2.70949C9.31552 2.77046 7.07415 3.70015 5.27496 5.49858C3.47577 7.297 2.54568 9.53741 2.48469 12.2198C2.54568 14.9022 3.47577 17.1426 5.27496 18.941C7.07415 20.7395 9.31552 21.6692 11.9991 21.7301C14.6826 21.6692 16.924 20.7395 18.7232 18.941C20.5224 17.1426 21.4524 14.9022 21.5134 12.2198C21.4524 9.53741 20.5224 7.297 18.7232 5.49858C16.924 3.70015 14.6826 2.77046 11.9991 2.70949Z" fill="#BCA921"/>
</svg>
