<svg width="16" height="16" viewBox="0 0 16 16" fill="none" xmlns="http://www.w3.org/2000/svg">
<path d="M13.332 16H2.66536C2.29736 16 1.9987 15.702 1.9987 15.3333C1.9987 13.1273 3.7927 11.3333 5.9987 11.3333H9.9987C12.2047 11.3333 13.9987 13.1273 13.9987 15.3333C13.9987 15.702 13.7 16 13.332 16ZM13.6654 4H13.332C13.332 2.52933 12.136 1.33333 10.6654 1.33333H8.66536V0.666667C8.66536 0.298 8.3667 0 7.9987 0C7.6307 0 7.33203 0.298 7.33203 0.666667V1.33333H5.33203C3.86136 1.33333 2.66536 2.52933 2.66536 4H2.33203C1.7807 4 1.33203 4.44867 1.33203 5V6.33333C1.33203 6.88467 1.7807 7.33333 2.33203 7.33333H2.66536C2.66536 8.804 3.86136 10 5.33203 10H10.6654C12.136 10 13.332 8.804 13.332 7.33333H13.6654C14.2167 7.33333 14.6654 6.88467 14.6654 6.33333V5C14.6654 4.44867 14.2167 4 13.6654 4ZM6.33203 6.66667C5.78003 6.66667 5.33203 6.21867 5.33203 5.66667C5.33203 5.11467 5.78003 4.66667 6.33203 4.66667C6.88403 4.66667 7.33203 5.11467 7.33203 5.66667C7.33203 6.21867 6.88403 6.66667 6.33203 6.66667ZM9.66536 6.66667C9.11336 6.66667 8.66536 6.21867 8.66536 5.66667C8.66536 5.11467 9.11336 4.66667 9.66536 4.66667C10.2174 4.66667 10.6654 5.11467 10.6654 5.66667C10.6654 6.21867 10.2174 6.66667 9.66536 6.66667Z" fill="black"/>
</svg>
