<svg width="24" height="25" viewBox="0 0 24 25" fill="none" xmlns="http://www.w3.org/2000/svg">
<path d="M17.539 3.18199H12.0613V1.5598C12.0613 1.39249 11.9942 1.23203 11.8747 1.11373C11.7552 0.995419 11.5931 0.928955 11.4241 0.928955H10.4228C10.2538 0.928955 10.0917 0.995419 9.97224 1.11373C9.85274 1.23203 9.78561 1.39249 9.78561 1.5598V3.18199H4.30794C3.16559 3.18258 2.0702 3.63212 1.26243 4.43183C0.454668 5.23154 0.000602984 6.31601 0 7.44697V9.98839C0 12.7843 1.12185 15.4657 3.11876 17.4427C5.11567 19.4197 7.82406 20.5303 10.6481 20.5303H11.4241C11.5931 20.5303 11.7552 20.4639 11.8747 20.3455C11.9942 20.2272 12.0613 20.0668 12.0613 19.8995V18.9081C12.0613 18.7408 11.9942 18.5804 11.8747 18.4621C11.7552 18.3438 11.5931 18.2773 11.4241 18.2773H10.6481C8.42762 18.2773 6.29807 17.404 4.72794 15.8495C3.15781 14.2951 2.27572 12.1867 2.27572 9.98839V7.44697C2.27572 6.91337 2.48983 6.40162 2.87095 6.0243C3.25206 5.64699 3.76897 5.43502 4.30794 5.43502H17.539C18.078 5.43502 18.5949 5.64699 18.976 6.0243C19.3571 6.40162 19.5712 6.91337 19.5712 7.44697V10.1664C19.5698 10.7845 19.4934 11.4002 19.3436 12.0003C19.304 12.155 19.3251 12.3187 19.4029 12.4585C19.4806 12.5982 19.6092 12.7035 19.7624 12.7529L20.7182 13.0615C20.8007 13.0886 20.8881 13.0987 20.9747 13.091C21.0613 13.0833 21.1455 13.0581 21.2219 13.0169C21.2983 12.9757 21.3653 12.9194 21.4188 12.8515C21.4723 12.7836 21.5111 12.7056 21.5329 12.6222C21.7398 11.8196 21.8453 10.9947 21.8469 10.1664V7.44697C21.8463 6.31601 21.3923 5.23154 20.5845 4.43183C19.7767 3.63212 18.6814 3.18258 17.539 3.18199Z" fill="#0073FF"/>
<path d="M7.28445 12.6446C8.28992 12.6446 9.10503 11.8377 9.10503 10.8422C9.10503 9.84677 8.28992 9.03979 7.28445 9.03979C6.27897 9.03979 5.46387 9.84677 5.46387 10.8422C5.46387 11.8377 6.27897 12.6446 7.28445 12.6446Z" fill="#0073FF"/>
<path d="M14.5618 12.6446C15.5673 12.6446 16.3824 11.8377 16.3824 10.8422C16.3824 9.84677 15.5673 9.03979 14.5618 9.03979C13.5563 9.03979 12.7412 9.84677 12.7412 10.8422C12.7412 11.8377 13.5563 12.6446 14.5618 12.6446Z" fill="#0073FF"/>
<path d="M21.7934 19.1336L23.8552 19.9379C23.8976 19.9545 23.9341 19.9834 23.9597 20.0207C23.9854 20.0581 23.9991 20.1023 23.9991 20.1474C23.9991 20.1926 23.9854 20.2368 23.9597 20.2741C23.9341 20.3115 23.8976 20.3404 23.8552 20.357L21.7934 21.1613C21.4284 21.3042 21.0969 21.5197 20.8194 21.7944C20.5418 22.0692 20.3242 22.3974 20.1799 22.7587L19.3675 24.7864C19.3507 24.8285 19.3215 24.8645 19.2838 24.8899C19.246 24.9153 19.2015 24.9289 19.1558 24.9289C19.1102 24.9289 19.0656 24.9153 19.0278 24.8899C18.9901 24.8645 18.9609 24.8285 18.9442 24.7864L18.1317 22.7587C17.9878 22.3972 17.7703 22.0688 17.4927 21.794C17.2151 21.5192 16.8834 21.3038 16.5183 21.1613L14.4701 20.357C14.4277 20.3404 14.3912 20.3115 14.3656 20.2741C14.3399 20.2368 14.3262 20.1926 14.3262 20.1474C14.3262 20.1023 14.3399 20.0581 14.3656 20.0207C14.3912 19.9834 14.4277 19.9545 14.4701 19.9379L16.5183 19.1336C16.8834 18.9911 17.2151 18.7757 17.4927 18.5009C17.7703 18.2261 17.9878 17.8977 18.1317 17.5362L18.9442 15.5085C18.9609 15.4664 18.9901 15.4304 19.0278 15.405C19.0656 15.3796 19.1102 15.366 19.1558 15.366C19.2015 15.366 19.246 15.3796 19.2838 15.405C19.3215 15.4304 19.3507 15.4664 19.3675 15.5085L20.1799 17.5362C20.3242 17.8975 20.5418 18.2257 20.8194 18.5005C21.0969 18.7752 21.4284 18.9907 21.7934 19.1336Z" fill="#0073FF"/>
</svg>
