<svg width="20" height="20" viewBox="0 0 20 20" fill="none" xmlns="http://www.w3.org/2000/svg">
<path d="M4.16669 3.33337C3.90106 3.33337 3.64926 3.38683 3.40822 3.46521L9.70217 9.79496C9.88245 9.97622 10.1485 9.97108 10.3223 9.78357L16.2598 3.37569C16.1206 3.35123 15.9791 3.33337 15.8334 3.33337H4.16669ZM17.7344 4.23507L11.5446 10.9164C10.7423 11.7822 9.35292 11.8071 8.52053 10.9701L2.07196 4.48571C1.81856 4.87628 1.66669 5.33772 1.66669 5.83337V14.1667C1.66669 15.5373 2.7961 16.6667 4.16669 16.6667H15.8334C17.2039 16.6667 18.3334 15.5373 18.3334 14.1667V5.83337C18.3334 5.22469 18.1021 4.67082 17.7344 4.23507Z" fill="white"/>
</svg>
