<svg width="42" height="41" viewBox="0 0 42 41" fill="none" xmlns="http://www.w3.org/2000/svg">
<path d="M20.0078 0.863281C17.56 1.26658 15.2205 3.41716 13.4687 6.8702C13.0368 7.72185 12.645 8.66391 12.2955 9.65453C14.7153 10.5184 17.3069 11.015 20.0078 11.0939V0.863281ZM21.5093 0.863281V11.094C24.2102 11.0151 26.8018 10.5185 29.2216 9.65462C28.872 8.66399 28.4803 7.72191 28.0483 6.87029C26.2965 3.41724 23.9569 1.26652 21.5093 0.863281ZM15.9716 1.17615C12.2731 2.0704 8.96077 3.96261 6.36667 6.57307C7.78395 7.56369 9.2942 8.4373 10.9032 9.12274C11.2726 8.08287 11.6784 7.08983 12.1389 6.18199C13.1946 4.10126 14.4901 2.3847 15.9716 1.17615ZM25.5453 1.17615C27.0269 2.3847 28.3223 4.10126 29.3779 6.18199C29.8385 7.08984 30.2442 8.08296 30.6136 9.12274C32.2227 8.4373 33.7329 7.56369 35.1502 6.57307C32.5561 3.96261 29.2439 2.07041 25.5453 1.17615ZM5.33422 7.69921C2.46015 11.0632 0.671988 15.3857 0.500537 20.12H9.01038C9.07498 16.6649 9.5799 13.4143 10.434 10.5463C8.62458 9.78472 6.91499 8.82222 5.33422 7.69921ZM36.1827 7.69921C34.602 8.82213 32.8924 9.78486 31.0829 10.5465C31.937 13.4146 32.4419 16.6651 32.5066 20.1201H41.0164C40.845 15.3856 39.0568 11.063 36.1827 7.69921ZM11.8418 11.0782C11.0541 13.7687 10.5764 16.8474 10.5121 20.12H20.008V12.5956C17.1493 12.5166 14.4079 11.99 11.8418 11.0782ZM29.6751 11.0782C27.109 11.9899 24.368 12.5169 21.5092 12.5958V20.1203H31.0051C30.9408 16.8475 30.4629 13.7684 29.6751 11.0782ZM0.5 21.6218C0.67145 26.3563 2.45961 30.6779 5.33368 34.0425C6.91544 32.9189 8.62225 31.9548 10.4335 31.1953C9.57833 28.3286 9.07376 25.0801 9.00985 21.6216L0.5 21.6218ZM10.5117 21.6218C10.5752 24.8981 11.0529 27.9744 11.8414 30.6636C14.4071 29.7561 17.1493 29.2246 20.0073 29.146V21.6215L10.5117 21.6218ZM21.5085 21.6218V29.1463C24.3665 29.2249 27.1086 29.7563 29.6744 30.6639C30.4629 27.9745 30.9405 24.8982 31.0041 21.6221L21.5085 21.6218ZM32.5061 21.6218C32.4422 25.0804 31.9376 28.3288 31.0825 31.1955C32.8937 31.9549 34.6004 32.919 36.1823 34.0427C39.0563 30.678 40.8445 26.3563 41.016 21.622L32.5061 21.6218ZM20.0076 30.6484C17.3056 30.7273 14.7161 31.2389 12.2953 32.1031C12.6438 33.0874 13.0387 34.0089 13.4685 34.8564C15.22 38.3087 17.5605 40.4593 20.0076 40.8633V30.6484ZM21.5091 30.6484V40.863C23.9561 40.459 26.2967 38.3084 28.0481 34.8561C28.478 34.0086 28.8729 33.0872 29.2214 32.1028C26.8005 31.2386 24.211 30.7273 21.5091 30.6484ZM10.9029 32.6353C9.29393 33.3204 7.78368 34.1787 6.3664 35.1693C8.9605 37.7805 12.2728 39.6713 15.9714 40.5662C14.4898 39.3577 13.1944 37.6255 12.1388 35.5447C11.6803 34.641 11.271 33.6685 10.9029 32.6353ZM30.6135 32.6353C30.2454 33.6685 29.8362 34.641 29.3777 35.5447C28.3221 37.6254 27.0267 39.3577 25.5451 40.5662C29.2436 39.6713 32.556 37.7805 35.1501 35.1693C33.7328 34.1787 32.2225 33.3204 30.6135 32.6353Z" fill="#BCA921"/>
</svg>
