<svg width="40" height="40" viewBox="0 0 40 40" fill="none" xmlns="http://www.w3.org/2000/svg">
<path d="M31.2713 13.7187C31.162 13.484 30.9266 13.3334 30.6673 13.3334H22.7673L30.5639 1.02336C30.6939 0.818047 30.7019 0.558047 30.5846 0.345391C30.4673 0.132031 30.2432 0 30.0006 0H19.3339C19.0813 0 18.8506 0.142656 18.7373 0.368672L8.73729 20.3687C8.63393 20.5747 8.64526 20.82 8.76659 21.0166C8.88862 21.2133 9.1026 21.3333 9.33393 21.3333H16.1892L8.71924 39.0746C8.5919 39.378 8.70526 39.7299 8.98588 39.902C9.09385 39.968 9.21385 39.9999 9.33323 39.9999C9.52456 39.9999 9.71323 39.9179 9.84393 39.7633L31.1773 14.4299C31.3446 14.2313 31.3806 13.954 31.2713 13.7187Z" fill="#BCA921"/>
</svg>
