<svg width="40" height="40" viewBox="0 0 40 40" fill="none" xmlns="http://www.w3.org/2000/svg">
<g clip-path="url(#clip0_805_154)">
<path d="M36.8724 22.9788C36.3793 23.5494 35.7697 24.0078 35.0846 24.3232C34.3994 24.6385 33.6547 24.8034 32.9005 24.8069C32.8443 24.8069 32.7912 24.8069 32.7349 24.8038C32.652 24.8025 32.5731 24.7683 32.5154 24.7088C32.4577 24.6493 32.426 24.5693 32.4273 24.4864C32.4285 24.4035 32.4627 24.3246 32.5222 24.2669C32.5817 24.2092 32.6617 24.1775 32.7446 24.1788H32.7537C32.8037 24.1819 32.8505 24.1819 32.9005 24.1819C35.5255 24.1819 37.6599 21.9569 37.6599 19.2225C37.6671 18.56 37.5417 17.9027 37.291 17.2893C37.0404 16.6759 36.6697 16.1189 36.2005 15.6509C36.1804 15.6296 36.1635 15.6054 36.1505 15.5791C36.1505 15.5759 36.1474 15.5728 36.1474 15.5697C36.1254 15.5292 36.1128 15.4843 36.1107 15.4383C36.1085 15.3923 36.1168 15.3464 36.1349 15.3041C36.2948 14.8008 36.376 14.2759 36.3755 13.7478C36.3755 11.0072 34.238 8.78251 31.6134 8.78251C28.9887 8.78251 26.8509 11.0072 26.8509 13.7478C26.8509 13.8307 26.8179 13.9102 26.7593 13.9688C26.7007 14.0274 26.6212 14.0603 26.5384 14.0603C26.4555 14.0603 26.376 14.0274 26.3174 13.9688C26.2588 13.9102 26.2259 13.8307 26.2259 13.7478C26.2259 10.6634 28.6415 8.15751 31.6134 8.15751H31.6384C31.8011 7.7054 31.8846 7.22862 31.8852 6.74813C31.8852 4.64501 30.3509 2.93251 28.4696 2.93251C27.842 2.94789 27.2311 3.13755 26.7052 3.48026C26.1793 3.82298 25.759 4.30525 25.4915 4.87313C25.4736 4.9102 25.4484 4.94327 25.4175 4.97039C25.3865 4.9975 25.3504 5.01809 25.3113 5.03093C25.2723 5.04377 25.231 5.04859 25.19 5.0451C25.149 5.04161 25.1091 5.02989 25.0727 5.01063C24.9991 4.97317 24.9434 4.90809 24.9176 4.82962C24.8918 4.75116 24.8982 4.66568 24.9352 4.59188C25.2465 3.93888 25.7286 3.38224 26.3304 2.98095C26.9323 2.57967 27.6315 2.34869 28.354 2.31251C26.8746 1.28126 24.0071 -0.445306 22.0418 0.107819C21.2293 0.339069 20.6637 0.929694 20.3105 1.92032V9.28907C20.624 8.85425 21.0543 8.51719 21.5516 8.31697C22.0488 8.11675 22.5926 8.06156 23.1199 8.15782C23.2024 8.16818 23.2774 8.21087 23.3283 8.27651C23.3793 8.34215 23.4022 8.42535 23.3918 8.50782C23.3814 8.59028 23.3387 8.66526 23.2731 8.71624C23.2075 8.76723 23.1243 8.79005 23.0418 8.77969C20.8918 8.50782 20.3699 10.4513 20.3105 10.7013V33.7188C20.3105 37.1809 22.8512 40 25.9759 40C28.0196 40 29.8946 38.7563 30.8665 36.7563C30.8696 36.75 30.8759 36.7469 30.879 36.7406C30.8895 36.7235 30.9021 36.7078 30.9165 36.6938C30.9284 36.6777 30.942 36.663 30.9571 36.65C30.9716 36.6388 30.9873 36.6294 31.004 36.6219C31.0223 36.6104 31.0423 36.6019 31.0634 36.5969L31.0821 36.5875C32.1774 36.3269 33.1518 35.702 33.8455 34.8153C34.5392 33.9285 34.9112 32.8324 34.9005 31.7066C34.8976 31.3234 34.8515 30.9419 34.763 30.5691C34.7646 30.5577 34.7646 30.5461 34.763 30.5347C34.7615 30.5149 34.7615 30.4951 34.763 30.4753C34.7634 30.4585 34.7655 30.4417 34.7693 30.4253C34.7764 30.3981 34.7869 30.3718 34.8005 30.3472C34.8035 30.3393 34.8077 30.3319 34.813 30.3253C34.8328 30.2966 34.8571 30.2713 34.8849 30.2503L34.8912 30.2441C34.9068 30.2347 34.9162 30.2222 34.9318 30.2128C35.5564 29.8875 36.1066 29.4359 36.5475 28.8867C36.9883 28.3375 37.3102 27.7027 37.4926 27.0225C37.6751 26.3423 37.7142 25.6316 37.6074 24.9354C37.5007 24.2393 37.2504 23.573 36.8724 22.9788ZM29.5165 29.7159C29.0888 29.7299 28.6637 29.7875 28.2477 29.8878C28.1904 29.9399 28.1158 29.9689 28.0384 29.9691H28.0309C28.0105 29.9679 27.9905 29.9637 27.9715 29.9566C26.4996 30.3659 24.5059 31.4722 24.5309 34.4566C24.5308 34.5397 24.4979 34.6195 24.4394 34.6786C24.3809 34.7376 24.3015 34.7713 24.2184 34.7722C24.1775 34.7724 24.137 34.7646 24.0992 34.7492C24.0614 34.7338 24.027 34.7111 23.9979 34.6823C23.9689 34.6536 23.9458 34.6194 23.93 34.5817C23.9142 34.5441 23.906 34.5037 23.9059 34.4628C23.878 31.1597 26.0715 29.8878 27.7215 29.3972C27.6621 24.2381 23.0499 23.7569 22.8499 23.7381C22.7674 23.7299 22.6913 23.6896 22.6382 23.6259C22.585 23.5622 22.5589 23.4802 22.5655 23.3975C22.5735 23.3151 22.6138 23.2391 22.6776 23.1864C22.7415 23.1336 22.8237 23.1084 22.9062 23.1163C22.9593 23.1194 28.1902 23.6444 28.3437 29.2413C28.7271 29.1576 29.1171 29.1074 29.5093 29.0913H29.5124C29.5953 29.0908 29.675 29.1234 29.7339 29.1817C29.7927 29.24 29.8261 29.3193 29.8265 29.4022C29.8269 29.4851 29.7944 29.5647 29.7361 29.6236C29.6777 29.6825 29.5984 29.7158 29.5155 29.7163L29.5165 29.7159ZM31.6134 21.6444H31.5915C28.3977 21.4163 27.6977 18.8881 27.554 18.0416C26.173 17.9126 24.8944 17.2581 23.9821 16.2134C23.9308 16.1505 23.906 16.07 23.913 15.9891C23.92 15.9082 23.9582 15.8332 24.0196 15.78C24.0809 15.7268 24.1606 15.6995 24.2417 15.704C24.3227 15.7085 24.3989 15.7444 24.454 15.8041C24.9069 16.3219 25.4658 16.7364 26.0928 17.0194C26.7199 17.3025 27.4004 17.4475 28.0884 17.4447C29.3256 17.4633 30.5198 16.9904 31.409 16.1299C32.2982 15.2693 32.8098 14.0913 32.8318 12.8541C32.8318 12.7712 32.8647 12.6917 32.9233 12.6331C32.9819 12.5745 33.0614 12.5416 33.1443 12.5416C33.2272 12.5416 33.3067 12.5745 33.3653 12.6331C33.4239 12.6917 33.4568 12.7712 33.4568 12.8541C33.435 14.2392 32.8709 15.5606 31.8856 16.5345C30.9004 17.5083 29.5724 18.0569 28.1871 18.0625C28.3402 18.8684 28.984 20.8309 31.634 21.0184C31.7169 21.0213 31.7952 21.0571 31.8518 21.1177C31.9083 21.1784 31.9384 21.259 31.9355 21.3419C31.9326 21.4248 31.8969 21.5031 31.8363 21.5596C31.7756 21.6162 31.695 21.6463 31.6121 21.6434L31.6134 21.6444Z" fill="#BCA921"/>
<path d="M16.8793 8.1563C17.4066 8.05946 17.9505 8.1145 18.4476 8.31502C18.9448 8.51554 19.3747 8.85326 19.6872 9.2888V1.92005C19.3372 0.929736 18.7684 0.339111 17.959 0.107548C15.9887 -0.448389 13.1203 1.2813 11.6422 2.31255C12.3648 2.34896 13.0642 2.57986 13.6665 2.98084C14.2688 3.38182 14.7516 3.93801 15.064 4.59067C15.1013 4.66485 15.1076 4.75081 15.0816 4.82963C15.0555 4.90845 14.9991 4.97369 14.925 5.01099C14.8508 5.04828 14.7648 5.05458 14.686 5.0285C14.6072 5.00242 14.542 4.9461 14.5047 4.87192C14.2374 4.30444 13.8177 3.82243 13.2924 3.47973C12.767 3.13703 12.1567 2.94715 11.5297 2.9313C9.64528 2.9313 8.11403 4.6438 8.11403 6.74692C8.11314 7.22755 8.1967 7.70459 8.36091 8.1563H8.38591C11.3547 8.1563 13.7734 10.6622 13.7734 13.7466C13.7734 13.8295 13.7405 13.909 13.6819 13.9676C13.6233 14.0262 13.5438 14.0591 13.4609 14.0591C13.378 14.0591 13.2985 14.0262 13.2399 13.9676C13.1813 13.909 13.1484 13.8295 13.1484 13.7466C13.1484 11.006 11.0109 8.7813 8.38591 8.7813C5.76091 8.7813 3.62059 11.0072 3.62059 13.7479C3.62015 14.2759 3.70132 14.8009 3.86122 15.3041C3.8798 15.3462 3.88861 15.392 3.88699 15.438C3.88537 15.484 3.87335 15.529 3.85184 15.5697C3.84951 15.5744 3.84633 15.5787 3.84247 15.5822C3.83166 15.6081 3.81572 15.6315 3.7956 15.651C3.32686 16.119 2.95653 16.6762 2.70643 17.2896C2.45633 17.9029 2.33152 18.5602 2.33934 19.2225C2.33934 21.9569 4.47372 24.1819 7.09872 24.1819C7.14528 24.1819 7.19528 24.1819 7.24216 24.1788C7.32402 24.1798 7.40252 24.2116 7.46212 24.2677C7.52172 24.3238 7.55809 24.4003 7.56403 24.4819C7.56566 24.523 7.55908 24.5641 7.54468 24.6026C7.53028 24.6411 7.50834 24.6764 7.48015 24.7064C7.45196 24.7363 7.41808 24.7604 7.38049 24.7771C7.3429 24.7938 7.30235 24.8029 7.26122 24.8038C7.20778 24.8069 7.15153 24.8069 7.09872 24.8069C6.34423 24.8034 5.59923 24.6384 4.91377 24.3231C4.22832 24.0078 3.61829 23.5494 3.12466 22.9788C2.7478 23.5734 2.4984 24.2396 2.39221 24.9355C2.28603 25.6314 2.32537 26.3417 2.50776 27.0216C2.69015 27.7015 3.01162 28.3362 3.45184 28.8855C3.89205 29.4348 4.44145 29.8868 5.06528 30.2129C5.07939 30.2225 5.09296 30.2329 5.10591 30.2441C5.10903 30.2472 5.11216 30.2472 5.11528 30.2504C5.14233 30.2722 5.16649 30.2974 5.18716 30.3254C5.19012 30.3333 5.19434 30.3407 5.19966 30.3472C5.21226 30.372 5.22171 30.3982 5.22778 30.4254C5.23269 30.4416 5.23584 30.4584 5.23716 30.4754C5.23768 30.4952 5.23663 30.5151 5.23403 30.5347C5.2356 30.5461 5.2356 30.5577 5.23403 30.5691C5.14713 30.9422 5.10102 31.3236 5.09653 31.7066C5.08597 32.8327 5.45828 33.9291 6.15244 34.8159C6.84661 35.7027 7.82144 36.3274 8.91716 36.5875C8.92308 36.5913 8.92936 36.5944 8.93591 36.5969C8.95521 36.6039 8.97401 36.6123 8.99216 36.6219C9.00947 36.6301 9.02618 36.6395 9.04216 36.65C9.05549 36.6628 9.06801 36.6764 9.07966 36.6907C9.09563 36.7064 9.1093 36.7243 9.12028 36.7438C9.12341 36.7469 9.12966 36.75 9.12966 36.7563C10.1047 38.7563 11.9765 40 14.0234 40C17.145 40 19.6872 37.1813 19.6872 33.7188V10.701C19.6309 10.451 19.109 8.51067 16.9559 8.77942C16.8734 8.78937 16.7904 8.76615 16.7251 8.71487C16.6597 8.66359 16.6174 8.58845 16.6075 8.50599C16.5975 8.42352 16.6207 8.34048 16.672 8.27514C16.7233 8.20979 16.7984 8.16749 16.8809 8.15755L16.8793 8.1563ZM8.40778 21.6444H8.38591C8.30303 21.6473 8.22239 21.6172 8.16173 21.5606C8.10108 21.5041 8.06537 21.4257 8.06247 21.3429C8.05957 21.26 8.08971 21.1793 8.14627 21.1187C8.20282 21.058 8.28115 21.0223 8.36403 21.0194C11.0109 20.8319 11.6578 18.8694 11.8109 18.0635C10.4251 18.0583 9.0967 17.5097 8.11101 16.5356C7.12532 15.5616 6.56102 14.2397 6.53934 12.8541C6.53934 12.7712 6.57227 12.6917 6.63087 12.6331C6.68948 12.5745 6.76896 12.5416 6.85184 12.5416C6.93472 12.5416 7.01421 12.5745 7.07282 12.6331C7.13142 12.6917 7.16434 12.7712 7.16434 12.8541C7.18638 14.0914 7.69811 15.2694 8.58736 16.1299C9.4766 16.9905 10.6708 17.4633 11.9081 17.4447C12.5961 17.4482 13.2769 17.3034 13.904 17.0203C14.5311 16.7372 15.0899 16.3224 15.5425 15.8041C15.5687 15.7712 15.6014 15.7439 15.6385 15.7239C15.6756 15.704 15.7163 15.6917 15.7583 15.6879C15.8002 15.684 15.8425 15.6887 15.8826 15.7016C15.9227 15.7146 15.9598 15.7355 15.9916 15.7631C16.0234 15.7907 16.0493 15.8244 16.0677 15.8623C16.0861 15.9002 16.0967 15.9414 16.0988 15.9835C16.1009 16.0256 16.0945 16.0676 16.0799 16.1071C16.0653 16.1467 16.0429 16.1828 16.014 16.2135C15.1032 17.2581 13.8256 17.9126 12.4456 18.0416C12.2984 18.8882 11.6015 21.4163 8.40778 21.6444ZM17.0934 23.1163C17.1341 23.1121 17.1753 23.1161 17.2144 23.1281C17.2535 23.14 17.2899 23.1597 17.3213 23.1859C17.3528 23.2121 17.3787 23.2443 17.3975 23.2807C17.4163 23.317 17.4277 23.3568 17.4309 23.3975C17.4381 23.4804 17.4123 23.5627 17.359 23.6265C17.3057 23.6903 17.2293 23.7305 17.1465 23.7382C16.9497 23.7569 12.334 24.2382 12.275 29.3972C13.925 29.8879 16.1187 31.1597 16.0934 34.4629C16.0926 34.5452 16.0593 34.6239 16.0008 34.6818C15.9423 34.7397 15.8632 34.7722 15.7809 34.7722H15.7778C15.7367 34.7718 15.6962 34.7633 15.6584 34.7473C15.6207 34.7312 15.5865 34.7078 15.5577 34.6785C15.529 34.6492 15.5063 34.6145 15.491 34.5764C15.4757 34.5384 15.468 34.4977 15.4684 34.4566C15.4903 31.4691 13.5062 30.366 12.0309 29.9566C12.0094 29.9626 11.9875 29.9668 11.9653 29.9691H11.9622C11.9217 29.9697 11.8816 29.9622 11.8441 29.9472C11.8065 29.9322 11.7723 29.9099 11.7434 29.8816C11.3304 29.7836 10.9084 29.7281 10.484 29.716C10.4012 29.7156 10.3218 29.6822 10.2635 29.6234C10.2052 29.5645 10.1727 29.4848 10.1731 29.4019C10.1735 29.319 10.2068 29.2397 10.2657 29.1814C10.3246 29.1231 10.4043 29.0906 10.4872 29.091H10.4903C10.8814 29.107 11.2704 29.1572 11.6528 29.241C11.8078 23.6444 17.0356 23.1194 17.0934 23.1163Z" fill="#BCA921"/>
</g>
<defs>
<clipPath id="clip0_805_154">
<rect width="40" height="40" fill="white"/>
</clipPath>
</defs>
</svg>
