<svg width="20" height="20" viewBox="0 0 20 20" fill="none" xmlns="http://www.w3.org/2000/svg">
<g clip-path="url(#clip0_849_65)">
<path d="M11.3 20H2.25913C1.94722 20 1.69408 19.7474 1.69408 19.4349C1.69408 17.5652 3.21464 16.0446 5.0844 16.0446H8.47472C10.3445 16.0446 11.865 17.5652 11.865 19.4349C11.865 19.7474 11.6119 20 11.3 20ZM11.5825 9.82904H11.3C11.3 8.58253 10.2863 7.56883 9.03977 7.56883H7.34461V7.00377C7.34461 6.6913 7.09147 6.43872 6.77956 6.43872C6.46765 6.43872 6.2145 6.6913 6.2145 7.00377V7.56883H4.51935C3.27284 7.56883 2.25913 8.58253 2.25913 9.82904H1.97661C1.50931 9.82904 1.12903 10.2093 1.12903 10.6766V11.8067C1.12903 12.274 1.50931 12.6543 1.97661 12.6543H2.25913C2.25913 13.9008 3.27284 14.9145 4.51935 14.9145H9.03977C10.2863 14.9145 11.3 13.9008 11.3 12.6543H11.5825C12.0498 12.6543 12.4301 12.274 12.4301 11.8067V10.6766C12.4301 10.2093 12.0498 9.82904 11.5825 9.82904ZM5.36693 12.0893C4.89906 12.0893 4.51935 11.7095 4.51935 11.2417C4.51935 10.7738 4.89906 10.3941 5.36693 10.3941C5.83479 10.3941 6.2145 10.7738 6.2145 11.2417C6.2145 11.7095 5.83479 12.0893 5.36693 12.0893ZM8.19219 12.0893C7.72433 12.0893 7.34461 11.7095 7.34461 11.2417C7.34461 10.7738 7.72433 10.3941 8.19219 10.3941C8.66005 10.3941 9.03977 10.7738 9.03977 11.2417C9.03977 11.7095 8.66005 12.0893 8.19219 12.0893Z" fill="white"/>
</g>
<g clip-path="url(#clip1_849_65)">
<path d="M19.0676 1.01709H12.7955C12.2812 1.01709 11.8632 1.43512 11.8632 1.94943V6.18732C11.8632 6.70164 12.2812 7.11966 12.7955 7.11966H19.0676C19.5819 7.11966 19.9999 6.70164 19.9999 6.18732V1.94943C19.9999 1.43512 19.5819 1.01709 19.0676 1.01709ZM14.4059 2.37322C14.8731 2.37322 15.2535 2.75361 15.2535 3.2208C15.2535 3.68798 14.8731 4.06838 14.4059 4.06838C13.9387 4.06838 13.5583 3.68798 13.5583 3.2208C13.5583 2.75361 13.9387 2.37322 14.4059 2.37322ZM15.9315 5.50926C15.9315 5.64962 15.8176 5.76353 15.6773 5.76353H13.1345C12.9942 5.76353 12.8803 5.64962 12.8803 5.50926V5.33974C12.8803 4.82543 13.2983 4.40741 13.8126 4.40741H14.9992C15.5135 4.40741 15.9315 4.82543 15.9315 5.33974V5.50926ZM18.7286 5.76353H16.8639C16.7235 5.76353 16.6096 5.64962 16.6096 5.50926C16.6096 5.3689 16.7235 5.25499 16.8639 5.25499H18.7286C18.8689 5.25499 18.9828 5.3689 18.9828 5.50926C18.9828 5.64962 18.8689 5.76353 18.7286 5.76353ZM18.7286 4.40741H16.8639C16.7235 4.40741 16.6096 4.29349 16.6096 4.15313C16.6096 4.01277 16.7235 3.89886 16.8639 3.89886H18.7286C18.8689 3.89886 18.9828 4.01277 18.9828 4.15313C18.9828 4.29349 18.8689 4.40741 18.7286 4.40741ZM18.7286 3.05128H16.8639C16.7235 3.05128 16.6096 2.93737 16.6096 2.79701C16.6096 2.65665 16.7235 2.54273 16.8639 2.54273H18.7286C18.8689 2.54273 18.9828 2.65665 18.9828 2.79701C18.9828 2.93737 18.8689 3.05128 18.7286 3.05128Z" fill="white"/>
</g>
<defs>
<clipPath id="clip0_849_65">
<rect width="13.5613" height="13.5613" fill="white" transform="translate(0 6.43872)"/>
</clipPath>
<clipPath id="clip1_849_65">
<rect width="8.13676" height="8.13676" fill="white" transform="translate(11.8632)"/>
</clipPath>
</defs>
</svg>
