<svg width="40" height="40" viewBox="0 0 40 40" fill="none" xmlns="http://www.w3.org/2000/svg">
<g clip-path="url(#clip0_805_177)">
<path d="M34.5269 7.16414L32.7359 5.37313V0L27.1637 5.77117L26.7658 10.3483L20.9946 16.1195C20.5966 16.1195 20.3976 16.1195 19.9996 16.1195C17.8105 16.1195 16.0195 17.9105 16.0195 20.0995C16.0195 22.2886 17.8105 24.0796 19.9996 24.0796C22.1887 24.0796 23.9797 22.2886 23.9797 20.0995C23.9797 19.7016 23.9797 19.5025 23.7807 19.1045L29.5519 13.3334L34.129 12.9353L39.9002 7.16414H34.5269Z" fill="#BCA921"/>
<path d="M30.7461 15.1243H30.5471L27.7611 18.1094C27.96 18.7064 27.96 19.5025 27.96 20.0995C27.96 24.4776 24.3779 28.0597 19.9998 28.0597C15.6217 28.0597 12.0396 24.4776 12.0396 20.0995C12.0396 15.7214 15.6218 12.1393 19.9999 12.1393C20.7959 12.1393 21.3929 12.3382 21.99 12.3382L24.975 9.35316V9.15418C23.383 8.55715 21.791 8.15918 19.9999 8.15918C13.4327 8.15918 8.05957 13.5323 8.05957 20.0995C8.05957 26.6667 13.4327 32.0397 19.9999 32.0397C26.5671 32.0397 31.9402 26.6666 31.9402 20.0994C31.9402 18.3084 31.5421 16.7164 30.7461 15.1243Z" fill="#BCA921"/>
<path d="M38.1095 11.9403L35.1245 14.7264C35.5225 16.3184 35.9205 18.1095 35.9205 20.0995C35.9205 28.8558 28.7563 36.0199 20.0001 36.0199C11.2438 36.0199 4.07969 28.8557 4.07969 20.0995C4.07969 11.3433 11.2438 4.17913 20.0001 4.17913C21.7911 4.17913 23.5822 4.57718 25.3732 5.17413V4.97515L28.3583 1.99007C25.7713 0.796006 22.9852 0.198975 20.0001 0.198975C9.05477 0.198975 0.0996094 9.15421 0.0996094 20.0995C0.0996094 31.0448 9.05477 40 20.0001 40C30.9454 40 39.9006 31.0448 39.9006 20.0995C39.9006 17.1144 39.3036 14.3284 38.1095 11.9403Z" fill="#BCA921"/>
</g>
<defs>
<clipPath id="clip0_805_177">
<rect width="40" height="40" fill="white"/>
</clipPath>
</defs>
</svg>
