<svg width="40" height="40" viewBox="0 0 40 40" fill="none" xmlns="http://www.w3.org/2000/svg">
<path d="M37.3719 5.59829C37.3001 5.08256 36.929 4.65834 36.4274 4.5189L20.3507 0.0479652C20.1215 -0.0158256 19.8794 -0.0158256 19.6501 0.0479652L3.57337 4.5189C3.07176 4.65834 2.70069 5.08239 2.62888 5.59829C2.53563 6.26879 0.408401 22.1112 5.86461 29.9924C11.3144 37.8641 19.3539 39.8813 19.6935 39.9634C19.7944 39.9878 19.8972 39.9999 20.0004 39.9999C20.1036 39.9999 20.2064 39.9877 20.3073 39.9634C20.647 39.8813 28.6866 37.8641 34.1362 29.9924C39.5924 22.1114 37.4651 6.26897 37.3719 5.59829ZM30.3678 14.8473L19.4019 25.8132C19.1467 26.0684 18.8121 26.1961 18.4776 26.1961C18.1431 26.1961 17.8085 26.0685 17.5533 25.8132L10.7732 19.0331C10.528 18.788 10.3903 18.4555 10.3903 18.1088C10.3903 17.7621 10.5281 17.4296 10.7732 17.1845L12.1194 15.8383C12.6299 15.328 13.4576 15.3278 13.968 15.8383L18.4776 20.3479L27.173 11.6523C27.4181 11.4071 27.7506 11.2694 28.0973 11.2694C28.444 11.2694 28.7765 11.4071 29.0216 11.6523L30.3678 12.9986C30.8783 13.5091 30.8783 14.3368 30.3678 14.8473Z" fill="#BCA921"/>
</svg>
