<svg width="20" height="20" viewBox="0 0 20 20" fill="none" xmlns="http://www.w3.org/2000/svg">
<g clip-path="url(#clip0_849_61)">
<path d="M7.16043 15.5007H6.58973V14.2629L4.8659 15.5007H1.84067C1.61641 15.5007 1.43352 15.6836 1.43352 15.9079V19.2413C1.43352 19.4655 1.61641 19.6484 1.84067 19.6484H7.16047C7.38473 19.6484 7.56762 19.4655 7.56762 19.2413V15.9079C7.56758 15.6836 7.38469 15.5007 7.16043 15.5007ZM6.35344 18.6581H2.64758C2.475 18.6581 2.33508 18.5182 2.33508 18.3456C2.33508 18.173 2.475 18.0331 2.64758 18.0331H6.35344C6.52602 18.0331 6.66594 18.173 6.66594 18.3456C6.66594 18.5182 6.52602 18.6581 6.35344 18.6581ZM6.35344 17.1161H2.64758C2.475 17.1161 2.33508 16.9762 2.33508 16.8036C2.33508 16.631 2.475 16.4911 2.64758 16.4911H6.35344C6.52602 16.4911 6.66594 16.631 6.66594 16.8036C6.66594 16.9762 6.52602 17.1161 6.35344 17.1161ZM17.8325 10.8532H18.4575V11.9413C18.4575 13.7688 16.9635 15.2628 15.1361 15.2628H11.4181C11.2938 15.5679 10.9934 15.7845 10.645 15.7845H9.35508C8.89626 15.7845 8.52086 15.4091 8.52086 14.9503C8.52086 14.4914 8.89626 14.1161 9.35508 14.1161H10.645C10.9934 14.1161 11.2937 14.3326 11.4181 14.6378H15.1361C16.6185 14.6378 17.8325 13.4237 17.8325 11.9413V10.8532ZM17.082 1.41449C17.082 0.827461 17.5579 0.351562 18.145 0.351562C18.7321 0.351562 19.208 0.827461 19.208 1.41449C19.208 1.89277 18.892 2.29723 18.4575 2.4307V5.13207H17.8325V2.43074C17.398 2.29727 17.082 1.89281 17.082 1.41449ZM19.208 6.3073V9.67793C19.208 9.98059 18.9604 10.2282 18.6577 10.2282H17.8732C17.9707 9.85535 18.0228 9.46465 18.0228 9.06238V6.92281C18.0228 6.52051 17.9707 6.12984 17.8732 5.75703H18.6577C18.9604 5.75707 19.208 6.00465 19.208 6.3073ZM0.792114 1.41449C0.792114 0.827461 1.26801 0.351562 1.85508 0.351562C2.44215 0.351562 2.91801 0.827461 2.91801 1.41449C2.91801 1.89277 2.60211 2.29723 2.16758 2.4307V5.13207H1.54258V2.43074C1.10805 2.29727 0.792114 1.89281 0.792114 1.41449ZM2.12692 10.2282H1.34239C1.03973 10.2282 0.792114 9.98059 0.792114 9.67797V6.30734C0.792114 6.00469 1.03973 5.75707 1.34239 5.75707H2.12688C2.02934 6.12988 1.97727 6.52059 1.97727 6.92285V9.06242C1.97731 9.46473 2.02938 9.85539 2.12692 10.2282ZM2.60227 9.06242C2.60227 11.2675 4.40633 13.0715 6.61137 13.0715H13.3887C15.5937 13.0715 17.3978 11.2675 17.3978 9.06242V6.92285C17.3978 4.71785 15.5937 2.91375 13.3887 2.91375H6.61137C4.40633 2.91375 2.60227 4.71781 2.60227 6.92285V9.06242ZM13.5506 5.22008C14.3341 5.22008 14.9693 5.85523 14.9693 6.63879C14.9693 7.4223 14.3341 8.0575 13.5506 8.0575C12.767 8.0575 12.1319 7.4223 12.1319 6.63879C12.1319 5.85523 12.767 5.22008 13.5506 5.22008ZM11.951 9.56453C12.4098 9.56453 12.7852 9.93992 12.7852 10.3988C12.7852 10.8576 12.4098 11.233 11.951 11.233H8.04907C7.59024 11.233 7.21485 10.8576 7.21485 10.3988C7.21485 9.93992 7.59024 9.56453 8.04907 9.56453H11.951ZM6.44946 5.22008C7.23297 5.22008 7.86817 5.85523 7.86817 6.63879C7.86817 7.4223 7.23297 8.0575 6.44946 8.0575C5.6659 8.0575 5.03075 7.4223 5.03075 6.63879C5.03075 5.85523 5.66594 5.22008 6.44946 5.22008ZM11.5212 2.28879H8.47887C8.48165 1.45441 9.16508 0.772656 10 0.772656C10.835 0.772656 11.5184 1.45441 11.5212 2.28879Z" fill="white"/>
</g>
<defs>
<clipPath id="clip0_849_61">
<rect width="20" height="20" fill="white"/>
</clipPath>
</defs>
</svg>
