<svg width="20" height="20" viewBox="0 0 20 20" fill="none" xmlns="http://www.w3.org/2000/svg">
<path fill-rule="evenodd" clip-rule="evenodd" d="M14.0303 11.9152C14.0639 11.7711 14.2079 11.6815 14.352 11.7151C14.496 11.7486 14.5856 11.8926 14.5521 12.0367C14.0882 14.0264 12.3576 15.5081 10.3083 15.6434C10.2858 15.6449 10.2682 15.6636 10.2682 15.6862V17.6317C10.2682 17.6553 10.2875 17.6746 10.3112 17.6746H11.886C12.0342 17.6746 12.1542 17.7947 12.1542 17.9428C12.1542 18.0909 12.0342 18.211 11.886 18.211H8.11401C7.96589 18.211 7.84581 18.0909 7.84581 17.9428C7.84581 17.7947 7.96589 17.6746 8.11401 17.6746H9.68889C9.71253 17.6746 9.73181 17.6553 9.73181 17.6317V15.6862C9.73181 15.6635 9.71433 15.6449 9.69173 15.6434C7.64249 15.5081 5.91185 14.0264 5.44797 12.0367C5.41441 11.8926 5.50401 11.7486 5.64809 11.7151C5.79217 11.6815 5.93617 11.7711 5.96973 11.9152C6.40173 13.7681 8.07017 15.1172 10 15.1172C11.93 15.1172 13.5978 13.7686 14.0303 11.9152ZM12.7669 8.96406V6.8673C12.7669 6.84366 12.7476 6.82438 12.724 6.82438H11.9222C11.6763 6.82438 11.4752 6.62322 11.4752 6.37738C11.4752 6.1315 11.6763 5.93038 11.9222 5.93038H12.724C12.7476 5.93038 12.7669 5.9111 12.7669 5.88746V4.55586C12.7669 3.03406 11.5218 1.78894 10 1.78894C8.47821 1.78894 7.23309 3.03406 7.23309 4.55586V5.88746C7.23309 5.9111 7.25237 5.93038 7.27601 5.93038H8.07785C8.32373 5.93038 8.52485 6.13154 8.52485 6.37738C8.52485 6.62326 8.32369 6.82438 8.07785 6.82438H7.27601C7.25237 6.82438 7.23309 6.84366 7.23309 6.8673V8.96406C7.23309 8.9877 7.25237 9.00698 7.27601 9.00698H8.07785C8.32373 9.00698 8.52485 9.20814 8.52485 9.45398C8.52485 9.69986 8.32369 9.90098 8.07785 9.90098H7.27601C7.25237 9.90098 7.23309 9.92026 7.23309 9.9439V11.2755C7.23309 12.7973 8.47821 14.0424 10 14.0424C11.5218 14.0424 12.7669 12.7973 12.7669 11.2755V9.9439C12.7669 9.92026 12.7476 9.90098 12.724 9.90098H11.9222C11.6763 9.90098 11.4752 9.69982 11.4752 9.45398C11.4752 9.2081 11.6763 9.00698 11.9222 9.00698H12.724C12.7476 9.00694 12.7669 8.98766 12.7669 8.96406ZM14.4303 5.4449C14.4303 5.29678 14.5504 5.1767 14.6985 5.1767C14.8466 5.1767 14.9667 5.29678 14.9667 5.4449V10.3865C14.9667 10.5346 14.8466 10.6547 14.6985 10.6547C14.5504 10.6547 14.4303 10.5346 14.4303 10.3865V5.4449ZM5.03329 5.4449C5.03329 5.29678 5.15337 5.1767 5.30149 5.1767C5.44961 5.1767 5.56969 5.29678 5.56969 5.4449V10.3865C5.56969 10.5346 5.44961 10.6547 5.30149 10.6547C5.15337 10.6547 5.03329 10.5346 5.03329 10.3865V5.4449ZM1.57129 7.18894C1.57129 7.04082 1.69137 6.92074 1.83949 6.92074C1.98761 6.92074 2.10769 7.04082 2.10769 7.18894V8.35166C2.10769 8.49978 1.98761 8.61986 1.83949 8.61986C1.69137 8.61986 1.57129 8.49978 1.57129 8.35166V7.18894ZM3.30229 6.53758C3.30229 6.38946 3.42237 6.26938 3.57049 6.26938C3.71861 6.26938 3.83869 6.38946 3.83869 6.53758V9.29378C3.83869 9.4419 3.71861 9.56198 3.57049 9.56198C3.42237 9.56198 3.30229 9.4419 3.30229 9.29378V6.53758ZM17.8923 7.18894C17.8923 7.04082 18.0124 6.92074 18.1605 6.92074C18.3086 6.92074 18.4287 7.04082 18.4287 7.18894V8.35166C18.4287 8.49978 18.3086 8.61986 18.1605 8.61986C18.0124 8.61986 17.8923 8.49978 17.8923 8.35166V7.18894ZM16.1613 6.53758C16.1613 6.38946 16.2814 6.26938 16.4295 6.26938C16.5776 6.26938 16.6977 6.38946 16.6977 6.53758V9.29378C16.6977 9.4419 16.5776 9.56198 16.4295 9.56198C16.2814 9.56198 16.1613 9.4419 16.1613 9.29378V6.53758Z" fill="white"/>
</svg>
