<svg width="40" height="40" viewBox="0 0 40 40" fill="none" xmlns="http://www.w3.org/2000/svg">
<g clip-path="url(#clip0_845_6)">
<path d="M19.1789 10.5394C18.7708 9.61968 18.559 8.63257 18.559 7.62601C18.559 6.61945 18.7708 5.63242 19.1789 4.71257C19.6239 3.7096 20.266 2.845 21.0429 2.13164C20.7419 1.63711 20.1976 1.305 19.5794 1.305H6.74107C5.79958 1.305 5.02927 2.07531 5.02927 3.01679V12.2534C5.02927 13.1948 5.79958 13.9652 6.74107 13.9652H8.48849V18.0663L12.0734 13.9652H19.5794C20.2024 13.9652 20.7504 13.6277 21.0499 13.1267C20.2698 12.4121 19.6252 11.5454 19.1788 10.5394H19.1789ZM17.1547 5.91812L12.2868 10.7861C12.0528 11.0202 11.7519 11.1223 11.4237 11.0791C11.0955 11.0359 10.8314 10.8594 10.6658 10.5727L9.01185 7.70789C8.74466 7.24515 8.90466 6.64789 9.36747 6.3807C9.82966 6.11382 10.4279 6.27414 10.6947 6.73632L11.754 8.57101L15.7808 4.54414C16.1586 4.16632 16.777 4.16632 17.1548 4.54414C17.5327 4.92203 17.5327 5.54031 17.1548 5.91812H17.1547ZM29.7162 14.0514L33.1558 16.8603L32.3076 12.7515C33.9349 11.5105 34.9651 9.67476 34.9651 7.62601C34.9651 3.88867 31.5373 0.858902 27.3089 0.858902C23.0804 0.858902 19.6526 3.88867 19.6526 7.62601C19.6526 11.3634 23.0804 14.3931 27.3089 14.3931C28.15 14.3931 28.9592 14.2729 29.7162 14.0514ZM31.1633 6.57093C31.7493 6.57093 32.2273 7.04898 32.2273 7.635C32.2273 8.22101 31.7493 8.69914 31.1633 8.69914C30.5772 8.69914 30.0991 8.22109 30.0991 7.635C30.0991 7.0489 30.5772 6.57093 31.1633 6.57093ZM23.4547 8.69914C22.8686 8.69914 22.3905 8.22109 22.3905 7.635C22.3905 7.0489 22.8686 6.57093 23.4547 6.57093C24.0408 6.57093 24.5187 7.04898 24.5187 7.635C24.5187 8.22101 24.0407 8.69914 23.4547 8.69914ZM26.2448 7.635C26.2448 7.0489 26.7229 6.57093 27.309 6.57093C27.8951 6.57093 28.373 7.04898 28.373 7.635C28.373 8.22101 27.895 8.69914 27.309 8.69914C26.7229 8.69914 26.2448 8.22109 26.2448 7.635ZM6.11404 25.3509C4.76458 23.3959 5.17951 20.0338 8.41185 20.0338C11.6442 20.0338 12.0591 23.3958 10.7097 25.3509C10.0902 26.2484 9.24943 26.6881 8.41185 26.6872C7.57427 26.6881 6.73349 26.2484 6.11404 25.3509ZM15.8755 30.9746C15.996 33.1627 15.9561 35.1965 15.8679 37.2866C15.8241 38.3234 14.9711 39.1411 13.9335 39.1411H13.5097V33.8084C13.5097 33.5064 13.2649 33.2616 12.9629 33.2616C12.6608 33.2616 12.416 33.5064 12.416 33.8084V39.1411H4.40779V33.8084C4.40779 33.5064 4.16294 33.2616 3.86091 33.2616C3.55888 33.2616 3.31404 33.5064 3.31404 33.8084V39.1411H2.89029C1.85255 39.1411 0.999662 38.3235 0.955912 37.2866C0.867709 35.1965 0.827709 33.1627 0.948256 30.9746C1.04349 29.7361 1.32052 29.2707 2.09802 28.8148C2.69404 28.4653 3.73607 28.1894 4.68732 27.946L6.84599 27.4151C7.32263 27.6487 7.84943 27.7809 8.41177 27.7809C8.97411 27.7809 9.50091 27.6487 9.97763 27.4151L12.1363 27.946C13.0876 28.1894 14.1296 28.4653 14.7256 28.8148C15.5031 29.2707 15.7802 29.7361 15.8754 30.9746H15.8755ZM39.044 37.2866C39.0003 38.3234 38.1474 39.1411 37.1097 39.1411H36.6859V33.8084C36.6859 33.5064 36.4411 33.2616 36.139 33.2616C35.837 33.2616 35.5922 33.5064 35.5922 33.8084V39.1411H27.584V33.8084C27.584 33.5064 27.3392 33.2616 27.0372 33.2616C26.7351 33.2616 26.4903 33.5064 26.4903 33.8084V39.1411H26.0665C25.0288 39.1411 24.1759 38.3235 24.1322 37.2866C24.044 35.1965 24.004 33.1627 24.1245 30.9746C24.2197 29.7361 24.4968 29.2707 25.2743 28.8148C25.8704 28.4653 26.9124 28.1894 27.8636 27.946L30.0223 27.4151C30.499 27.6487 31.0258 27.7809 31.5881 27.7809C32.1504 27.7809 32.6772 27.6487 33.154 27.4151L35.3126 27.946C36.2639 28.1894 37.3059 28.4653 37.9019 28.8148C38.6795 29.2707 38.9565 29.7361 39.0518 30.9746C39.1722 33.1627 39.1323 35.1965 39.0441 37.2866H39.044ZM31.5881 20.0338C34.8205 20.0338 35.2354 23.3958 33.8859 25.3509C33.2665 26.2484 32.4258 26.6881 31.5881 26.6872C30.7505 26.6881 29.9097 26.2484 29.2903 25.3509C27.9408 23.3959 28.3558 20.0338 31.5881 20.0338Z" fill="white"/>
</g>
<defs>
<clipPath id="clip0_845_6">
<rect width="40" height="40" fill="white"/>
</clipPath>
</defs>
</svg>
