<svg width="40" height="40" viewBox="0 0 40 40" fill="none" xmlns="http://www.w3.org/2000/svg">
<g clip-path="url(#clip0_845_23)">
<path d="M32.8861 8.28125C32.8861 3.75852 29.2057 0 24.683 0C22.9206 0 21.2738 0.754141 19.9955 2.11141C18.7171 0.754141 17.0703 0 15.308 0C10.7852 0 7.10486 3.75852 7.10486 8.28125C7.10486 12.8303 10.4431 15.1786 14.3089 17.8988C15.9031 19.0203 17.5522 20.1808 19.2276 21.6342L19.9943 22.3002L20.7622 21.6353C22.6562 19.9965 24.4575 18.7137 26.046 17.5818C29.8671 14.8616 32.8861 12.7124 32.8861 8.28125ZM23.5111 11.7969H21.1674V14.1406H18.8236V11.7969H16.4799V9.45312H18.8236V7.10938H21.1674V9.45312H23.5111V11.7969Z" fill="white"/>
<path d="M38.5892 10.7186C36.1985 10.7186 35.5814 21.828 35.5344 22.0625C35.2964 23.6903 34.1497 26.1 32.2131 27.5509L27.1372 31.2363L25.7319 29.3595L30.8078 25.6752C32.8185 24.1677 33.7349 21.5936 31.2219 21.5936C28.9713 21.5936 24.7643 24.1993 23.5172 25.233C22.0279 26.4674 21.1672 28.3014 21.1672 30.2358V40H28.1985C28.1985 38.8749 28.8079 37.6483 29.7453 36.4764C30.7297 35.1874 32.136 33.8749 33.589 32.5389C36.3547 29.9374 39.2218 27.2655 39.5969 24.5468C39.8196 22.7206 40.0045 19.5884 39.9953 16.7968C39.9851 13.6707 39.7203 10.8196 38.5892 10.7186Z" fill="white"/>
<path d="M16.1986 25.0156C12.8938 22.7421 10.3861 21.5936 8.76895 21.5936C6.25598 21.5936 7.17239 24.1677 9.18309 25.6752L14.259 29.3595L12.8536 31.2363L7.77778 27.5509C5.84106 26.1 4.69434 23.6903 4.45629 22.0625C4.40934 21.828 3.79223 10.7186 1.40153 10.7186C0.0890289 10.8358 -0.0515963 14.6561 0.0187944 18.3124C0.0657475 20.9843 0.276607 23.5858 0.393716 24.5468C0.768794 27.2655 3.63598 29.9375 6.40161 32.5389C7.85473 33.8749 9.2609 35.1874 10.2454 36.4764C11.1828 37.6483 11.7922 38.8749 11.7922 40H18.8234V30.2826C18.8236 28.2122 17.8516 26.262 16.1986 25.0156Z" fill="white"/>
</g>
<defs>
<clipPath id="clip0_845_23">
<rect width="40" height="40" fill="white"/>
</clipPath>
</defs>
</svg>
