<svg width="40" height="40" viewBox="0 0 40 40" fill="none" xmlns="http://www.w3.org/2000/svg">
<g clip-path="url(#clip0_845_29)">
<path d="M9.66664 14.1666C8.33328 12.8333 2.66664 12.5 0.833281 12.3333C0.666641 12.3333 0.499922 12.3333 0.333281 12.4999C0.166641 12.6666 0 13 0 13.1666V28.1666C0 28.6666 0.333359 29 0.833359 29H5.83336C6.16672 29 6.5 28.8333 6.66672 28.5C6.66672 28 9.66672 19.1666 10.0001 14.8333C10 14.6666 10 14.3333 9.66664 14.1666Z" fill="white"/>
<path d="M27.5 18.1667C25.8333 17.6667 24.3333 17 23 16.5C20 15.1667 18.6666 15.8334 16 18.5C14.8333 19.6667 14 21.3334 14.1666 22C14.1666 22.1667 14.1666 22.1667 14.5 22.3334C15.3333 22.6668 16.5 22.8334 17.6666 21C17.8333 20.8334 18 20.6667 18.3333 20.6667C18.8333 20.6667 18.9999 20.5 19.4999 20.3333C19.8333 20.1667 20.1665 20 20.6665 19.8333C20.8332 19.8333 20.8332 19.8333 20.9999 19.8333C21.1665 19.8333 21.4999 20 21.6665 20C22.5 20.8334 24 22 25.5 23.3334C27.8333 25.1668 30.1666 27.1668 31.3333 28.6668H31.5C30.3333 25.3334 28.3333 19.6667 27.5 18.1667Z" fill="white"/>
<path d="M39.1666 14C32.6666 14 29 15.6666 28.8333 15.6666C28.6666 15.8333 28.4999 16 28.3333 16.1666C28.3333 16.3333 28.3333 16.6666 28.4999 16.8333C29.4999 18.4999 32.8333 27.6666 33.3333 29.9999C33.4999 30.3333 33.8333 30.6666 34.1666 30.6666H39.1666C39.6666 30.6666 40 30.3332 40 29.8332V14.8332C40 14.3334 39.6666 14 39.1666 14Z" fill="white"/>
<path d="M30.1667 30.3334C29.5 28.8334 26.6667 26.6667 24.1667 24.6667C22.8334 23.5 21.5 22.5 20.5 21.6667C20.3334 21.8333 20 21.8333 20 22C19.5 22.1667 19.3334 22.3334 18.6667 22.3334C17.3334 24 15.6667 24.6667 13.8334 24C13 23.8334 12.5 23.1667 12.3334 22.5C12 20.8334 13.5 18.5 14.6667 17.3334H11.3334C10.6667 20.6667 9.50003 25 8.66675 27.3334C9.33339 28 10.0001 28.8334 10.5001 29.1667C13.6667 31.8334 17.3335 34.5001 18.0001 35.0001C18.5001 35.3335 19.5001 35.6667 20.0001 35.6667C20.1667 35.6667 20.3335 35.6667 20.5001 35.6667L17.8334 33C17.5 32.6667 17.5 32.1667 17.8334 31.8334C18.1667 31.5001 18.6667 31.5 19 31.8334L22.3334 35.1667C22.6667 35.5001 23 35.3334 23.3334 35.3334C23.8334 35.1667 24 34.8334 24.1667 34.3334L20.3334 30.5C20 30.1667 20 29.6667 20.3334 29.3334C20.6667 29.0001 21.1667 29 21.5 29.3334L25.6667 33.5C25.8333 33.6667 26.5 33.6667 27 33.5C27.1667 33.3334 27.5 33.1667 27.6667 32.8334L23 28.1667C22.6667 27.8333 22.6667 27.3333 23 27C23.3334 26.6667 23.8334 26.6667 24.1667 27L29 31.8334C29.3334 32 29.6667 31.8334 30 31.6667C30.1667 31.5 30.5 31 30.1667 30.3334Z" fill="white"/>
<path d="M15.6012 5.51033C15.2677 5.84387 15.2677 6.38669 15.6012 6.7235C15.9348 7.05703 16.4776 7.05703 16.8144 6.7235C19.123 4.41489 22.8802 4.41489 25.1888 6.7235C25.3556 6.89027 25.5747 6.97529 25.7937 6.97529C26.0128 6.97529 26.2319 6.89027 26.3987 6.7235C26.7322 6.38996 26.7322 5.84714 26.3987 5.51033C23.423 2.53139 18.5769 2.53139 15.6012 5.51033Z" fill="white"/>
<path d="M17.9164 7.82542C17.5829 8.15896 17.5829 8.70177 17.9164 9.03858C18.25 9.37212 18.7928 9.37212 19.1296 9.03858C20.1596 8.00527 21.8404 8.00527 22.8704 9.03858C23.0372 9.20535 23.2563 9.29037 23.4754 9.29037C23.6945 9.29037 23.9136 9.20535 24.0803 9.03858C24.4139 8.70504 24.4139 8.16223 24.0803 7.82869C22.3832 6.12503 19.6168 6.12503 17.9164 7.82542Z" fill="white"/>
<path d="M21 12.047C21.6303 12.047 22.1412 11.536 22.1412 10.9057C22.1412 10.2755 21.6303 9.76453 21 9.76453C20.3697 9.76453 19.8588 10.2755 19.8588 10.9057C19.8588 11.536 20.3697 12.047 21 12.047Z" fill="white"/>
<path d="M28.7498 3.15595C24.476 -1.11464 17.524 -1.11464 13.2502 3.15595C12.9166 3.48948 12.9166 4.0323 13.2502 4.36911C13.5837 4.70264 14.1265 4.70264 14.4633 4.36911C18.0668 0.762322 23.9332 0.762322 27.54 4.36911C27.7067 4.53588 27.9258 4.6209 28.1449 4.6209C28.364 4.6209 28.5831 4.53588 28.7498 4.36911C29.0834 4.03557 29.0834 3.49275 28.7498 3.15595Z" fill="white"/>
</g>
<defs>
<clipPath id="clip0_845_29">
<rect width="40" height="40" fill="white"/>
</clipPath>
</defs>
</svg>
