<svg width="40" height="40" viewBox="0 0 40 40" fill="none" xmlns="http://www.w3.org/2000/svg">
<path fill-rule="evenodd" clip-rule="evenodd" d="M31.1871 12.1226V20.5153C31.1871 21.0198 30.7745 21.4324 30.27 21.4324H25.7223V15.8647C25.7223 14.9349 24.964 14.1765 24.0342 14.1765H22.5385C21.6087 14.1765 20.8504 14.9348 20.8504 15.8647V21.4324H16.3027C15.7984 21.4324 15.3856 21.0198 15.3856 20.5153V12.1226C15.4478 12.0844 15.509 12.0434 15.5691 11.9998L23.2864 6.39281L31.0037 11.9998C31.0638 12.0434 31.125 12.0844 31.1871 12.1226ZM4.71914 25.9487L10.4707 36.1113C10.7488 36.6027 10.5743 37.2323 10.0829 37.5104L8.12656 38.6176C7.63515 38.8957 7.00562 38.7212 6.7275 38.2298L0.975935 28.0672C0.697889 27.5759 0.872342 26.9462 1.36375 26.6681L3.32008 25.5609C3.81148 25.2829 4.44101 25.4574 4.71914 25.9487ZM11.4137 24.178L6.69914 26.9094L10.5341 33.6856C10.8366 33.511 11.2017 33.2105 11.5549 33.3048L21.6119 35.9996C22.8933 36.343 24.1078 36.1873 25.2409 35.4898L38.4908 27.3335C39.859 26.4911 39.4188 22.3398 34.2937 25.3247L27.2687 29.3959C25.8118 30.2442 24.0481 30.3272 22.4379 29.8814C20.7268 29.5371 19.0694 29.01 17.3862 28.559C17.0531 28.47 16.8553 28.1279 16.9443 27.7948C17.0333 27.4618 17.3755 27.264 17.7084 27.353C19.366 27.7971 21.0004 28.3194 22.6847 28.6598C23.5564 28.7663 24.285 28.4969 24.5277 27.5911C24.7495 26.7633 24.2281 25.9811 23.445 25.7116C21.1537 25.2926 18.9274 24.4878 17.177 23.8549C14.6243 22.9321 13.9292 22.7206 11.4137 24.178ZM3.28531 27.269C2.90359 27.3248 2.63945 27.6794 2.69523 28.0612C2.75101 28.4429 3.1057 28.707 3.48734 28.6512C3.86906 28.5955 4.13328 28.2408 4.07742 27.8591C4.02172 27.4774 3.66703 27.2132 3.28531 27.269ZM14.8344 10.9885L23.2864 4.84773L31.7384 10.9885C32.458 11.5099 33.464 11.3493 33.9854 10.6298C34.5068 9.91023 34.3462 8.90421 33.6266 8.38281L29.4937 5.38015V2.38765C29.4937 2.17249 29.3183 1.99702 29.1031 1.99702H27.8146C27.5995 1.99702 27.424 2.17249 27.424 2.38765V3.8764L24.2584 1.5764C23.7086 1.15952 22.9299 1.13031 22.3423 1.55616L12.9462 8.38281C12.2267 8.90421 12.0661 9.91023 12.5875 10.6298C13.1088 11.3493 14.1148 11.5099 14.8344 10.9885Z" fill="white"/>
</svg>
