<svg width="40" height="40" viewBox="0 0 40 40" fill="none" xmlns="http://www.w3.org/2000/svg">
<path fill-rule="evenodd" clip-rule="evenodd" d="M8.96525 8.12484H1.49072C1.36166 8.12484 1.25635 8.23016 1.25635 8.35922V27.6528H9.19955V8.35922C9.19963 8.23016 9.09432 8.12484 8.96525 8.12484ZM24.4971 34.2294V36.7892H21.958C21.1756 36.7892 20.5354 37.3007 20.5354 37.9258V39.0625H35.2784V37.9259C35.2784 37.3007 34.6382 36.7893 33.8558 36.7893H31.3167V34.2295H37.0753C37.9927 34.2295 38.7434 33.4788 38.7434 32.5613V21.0854C38.7434 20.168 37.9927 19.4173 37.0753 19.4173H18.7128C17.7953 19.4173 17.0446 20.168 17.0446 21.0854V32.5612C17.0446 33.4787 17.7953 34.2294 18.7128 34.2294H24.4971ZM24.9626 25.1059V23.5735H23.0663C22.8442 23.983 22.4106 24.2609 21.9121 24.2609C21.1872 24.2609 20.5996 23.6734 20.5996 22.9485C20.5996 22.2237 21.1872 21.6361 21.9121 21.6361C22.4106 21.6361 22.8442 21.9141 23.0663 22.3235H25.5876C25.9328 22.3235 26.2126 22.6034 26.2126 22.9485V25.1059H24.9626ZM33.902 21.6361C34.6268 21.6361 35.2144 22.2237 35.2144 22.9485C35.2144 23.6734 34.6268 24.2609 33.902 24.2609C33.4035 24.2609 32.9699 23.983 32.7477 23.5735H30.8513V25.1059H29.6013V22.9485C29.6013 22.6034 29.8812 22.3235 30.2263 22.3235H32.7476C32.9699 21.9141 33.4035 21.6361 33.902 21.6361ZM27.282 25.1059V22.6023C26.8725 22.3801 26.5946 21.9465 26.5946 21.448C26.5946 20.7231 27.1821 20.1355 27.907 20.1355C28.6318 20.1355 29.2194 20.7231 29.2194 21.448C29.2194 21.9465 28.9414 22.3801 28.532 22.6023V25.1059H27.282ZM33.3463 26.3559V27.092L32.4449 27.439C32.3306 27.9193 32.1402 28.378 31.8813 28.7983L32.2736 29.6816L31.2326 30.7226L30.3496 30.3304C29.9292 30.5894 29.4703 30.7798 28.9899 30.8941L28.6431 31.7952H27.1708L26.8238 30.8938C26.3436 30.7795 25.8849 30.5891 25.4646 30.3303L24.5813 30.7226L23.5403 29.6816L23.9325 28.7985C23.6736 28.3781 23.4832 27.9192 23.3689 27.4388L22.4678 27.092V26.3559H24.3376C24.3376 27.4708 24.5671 28.348 25.3831 29.1639C26.7693 30.5502 29.0448 30.5502 30.431 29.1639C31.247 28.348 31.4765 27.4707 31.4765 26.3559L33.3463 26.3559ZM30.8514 26.3559C30.8514 27.9822 29.5333 29.3003 27.907 29.3003C26.2807 29.3003 24.9626 27.9822 24.9626 26.3559C24.9625 26.3559 30.8514 26.3559 30.8514 26.3559ZM12.5033 2.26031H14.4212V1.5625C14.4212 1.21734 14.701 0.9375 15.0462 0.9375C15.3913 0.9375 15.6712 1.21734 15.6712 1.5625V2.26031H17.589C17.7181 2.26031 17.8234 2.36562 17.8234 2.49469V3.7925H12.2689V2.49469C12.269 2.36562 12.3742 2.26031 12.5033 2.26031ZM28.6017 8.12484H21.1272C20.9981 8.12484 20.8928 8.23016 20.8928 8.35922V18.0768H28.836V8.35922C28.836 8.23016 28.7307 8.12484 28.6017 8.12484ZM22.0342 10.4691H27.6945C27.8236 10.4691 27.9289 10.5744 27.9289 10.7034V12.485C27.9289 12.6141 27.8236 12.7194 27.6945 12.7194H22.0342C21.9052 12.7194 21.7999 12.6141 21.7999 12.485V10.7034C21.7999 10.5744 21.9052 10.4691 22.0342 10.4691ZM22.2993 15.3404H24.2394V17.5149H22.0649V15.5747C22.0649 15.4457 22.1703 15.3404 22.2993 15.3404ZM25.4894 17.5149V15.3404H27.4296C27.5586 15.3404 27.6639 15.4457 27.6639 15.5748V17.515H25.4894V17.5149ZM10.6839 5.0425H19.4084C19.5374 5.0425 19.6428 5.14781 19.6428 5.27688V18.0769H18.7256C17.6104 18.0769 16.6382 18.7079 16.1473 19.6311H13.8696C12.9241 19.6311 12.061 20.3443 12.061 21.3229V27.6528H10.4496V5.27688C10.4496 5.14781 10.5549 5.0425 10.6839 5.0425ZM15.8075 27.6528L15.8099 20.881H13.8696C13.619 20.881 13.3109 21.0423 13.3109 21.3228V27.6527H15.8075V27.6528ZM12.481 7.18813C12.352 7.18813 12.2467 7.29344 12.2467 7.4225V9.00945C12.2467 9.13852 12.352 9.24383 12.481 9.24383H17.6113C17.7404 9.24383 17.8457 9.13852 17.8457 9.00945V7.4225C17.8457 7.29344 17.7404 7.18813 17.6113 7.18813H12.481ZM12.481 11.9009C12.3519 11.9009 12.2467 12.0061 12.2467 12.1352V14.0754H14.4212V11.9009H12.481ZM15.6712 11.9009V14.0754H17.8457V12.1352C17.8457 12.0061 17.7405 11.9009 17.6114 11.9009H15.6712ZM17.8457 15.3254H15.6712V17.4999H17.6114C17.7405 17.4999 17.8457 17.3946 17.8457 17.2655V15.3254ZM14.4212 17.4999V15.3254H12.2467V17.2655C12.2467 17.3946 12.3519 17.4999 12.481 17.4999H14.4212ZM2.66291 15.3404H4.60299V17.5149H2.42854V15.5747C2.42854 15.4457 2.53385 15.3404 2.66291 15.3404ZM4.60299 18.7649V20.3145H2.42854V18.7649H4.60299ZM5.85299 23.7392V21.5645H8.02752V23.5049C8.02752 23.634 7.92221 23.7393 7.79314 23.7393L5.85299 23.7392ZM4.60299 23.7392L2.66291 23.7393C2.53385 23.7393 2.42854 23.634 2.42854 23.5049V21.5645H4.60307L4.60299 23.7392ZM5.85299 20.3145V18.7649H8.02752V20.3145H5.85299ZM5.85299 17.5149V15.3404H7.79314C7.92221 15.3404 8.02752 15.4457 8.02752 15.5748V17.515H5.85299V17.5149ZM2.66283 10.5664H7.79314C7.92221 10.5664 8.02752 10.6717 8.02752 10.8008V12.3877C8.02752 12.5168 7.92229 12.6221 7.79314 12.6221H2.66283C2.53377 12.6221 2.42846 12.5168 2.42846 12.3877V10.8008C2.42846 10.6716 2.53377 10.5664 2.66283 10.5664Z" fill="white"/>
</svg>
