<svg width="1440" height="788" viewBox="0 0 1440 788" fill="none" xmlns="http://www.w3.org/2000/svg">
<g clip-path="url(#clip0_1595_36)">
<path d="M720 118C928.588 118 1117.38 176.044 1254.01 269.836C1390.63 363.631 1475 493.107 1475 636C1475 778.893 1390.63 908.369 1254.01 1002.16C1117.38 1095.96 928.588 1154 720 1154C511.412 1154 322.615 1095.96 185.993 1002.16C49.3665 908.369 -35 778.893 -35 636C-35 493.107 49.3665 363.631 185.993 269.836C322.615 176.044 511.412 118 720 118Z" stroke="url(#paint0_linear_1595_36)" stroke-width="2"/>
<path d="M720 308C928.588 308 1117.38 366.044 1254.01 459.836C1390.63 553.631 1475 683.107 1475 826C1475 968.893 1390.63 1098.37 1254.01 1192.16C1117.38 1285.96 928.588 1344 720 1344C511.412 1344 322.615 1285.96 185.993 1192.16C49.3665 1098.37 -35 968.893 -35 826C-35 683.107 49.3665 553.631 185.993 459.836C322.615 366.044 511.412 308 720 308Z" stroke="url(#paint1_linear_1595_36)" stroke-width="2"/>
<path d="M720 537C928.588 537 1117.38 595.044 1254.01 688.836C1390.63 782.631 1475 912.107 1475 1055C1475 1197.89 1390.63 1327.37 1254.01 1421.16C1117.38 1514.96 928.588 1573 720 1573C511.412 1573 322.615 1514.96 185.993 1421.16C49.3665 1327.37 -35 1197.89 -35 1055C-35 912.107 49.3665 782.631 185.993 688.836C322.615 595.044 511.412 537 720 537Z" stroke="url(#paint2_linear_1595_36)" stroke-width="2"/>
<rect x="196" y="148" width="140" height="140" rx="70" fill="#F3F3F3"/>
<path d="M242.812 251.594L237.656 193.719H294.344L289.188 251.562L265.953 258" fill="#FF4C1E"/>
<path d="M266 253.078V198.469H289.172L284.75 247.844L266 253.078Z" fill="#FF651E"/>
<path d="M248.188 205.547H266L268.649 209.094L266 212.641H255.969L256.625 219.906H266L268.649 223.586L266 226.984H250.125L248.188 205.547ZM250.437 230.547H257.562L258.062 236.219L266 238.344L268.989 241.884L266 245.75L251.438 241.688L250.437 230.547Z" fill="#EBEBEB"/>
<path d="M283.75 205.547H265.969V212.641H283.094L283.75 205.547ZM282.453 219.906H265.969V227H274.719L273.891 236.219L265.969 238.344V245.719L280.5 241.688L282.453 219.906Z" fill="white"/>
<rect x="440" y="267" width="140" height="140" rx="70" fill="#F3F3F3"/>
<g clip-path="url(#clip1_1595_36)">
<path fill-rule="evenodd" clip-rule="evenodd" d="M555 337.011C555 331.06 547.537 325.424 536.089 321.922C538.733 310.276 537.554 301.014 532.383 298.045C531.189 297.351 529.797 297.022 528.274 297.022V301.109C529.116 301.109 529.797 301.277 530.369 301.584C532.866 303.009 533.943 308.448 533.101 315.445C532.896 317.163 532.566 318.976 532.163 320.825C528.567 319.948 524.641 319.268 520.518 318.829C518.042 315.445 515.471 312.367 512.886 309.677C518.862 304.121 524.473 301.087 528.289 301.087V297C523.242 297 516.643 300.59 509.963 306.818C503.284 300.626 496.685 297.073 491.638 297.073V301.16C495.432 301.16 501.064 304.179 507.048 309.691C504.478 312.382 501.914 315.437 499.475 318.829C495.33 319.268 491.404 319.948 487.808 320.84C487.383 319.012 487.075 317.236 486.855 315.532C485.991 308.536 487.061 303.097 489.536 301.65C490.085 301.321 490.803 301.174 491.646 301.174V297.095C490.107 297.095 488.708 297.424 487.5 298.119C482.344 301.087 481.187 310.335 483.853 321.944C472.427 325.453 465 331.075 465 337.011C465 342.962 472.463 348.598 483.911 352.1C481.267 363.746 482.446 373.008 487.617 375.977C488.811 376.671 490.203 377 491.748 377C496.794 377 503.394 373.41 510.073 367.182C516.753 373.374 523.352 376.927 528.398 376.927C529.937 376.927 531.335 376.598 532.544 375.903C537.7 372.935 538.857 363.687 536.191 352.078C547.573 348.584 555 342.94 555 337.011ZM518.364 337.011C518.364 332.391 514.614 328.64 509.978 328.64C505.349 328.64 501.592 332.383 501.592 337.011C501.592 341.639 505.342 345.382 509.978 345.382C514.614 345.374 518.364 341.631 518.364 337.011ZM531.116 324.795C530.435 327.156 529.592 329.591 528.64 332.025C527.886 330.563 527.102 329.094 526.238 327.631C525.396 326.169 524.495 324.736 523.594 323.347C526.201 323.735 528.713 324.21 531.116 324.795ZM522.715 344.3C521.287 346.771 519.814 349.117 518.291 351.296C515.559 351.537 512.791 351.661 510 351.661C507.231 351.661 504.463 351.53 501.746 351.311C500.222 349.132 498.735 346.807 497.307 344.351C495.916 341.953 494.648 339.519 493.491 337.062C494.626 334.606 495.916 332.157 497.285 329.759C498.713 327.288 500.186 324.941 501.709 322.763C504.441 322.521 507.209 322.397 510 322.397C512.769 322.397 515.537 322.529 518.254 322.748C519.778 324.927 521.265 327.251 522.693 329.708C524.084 332.106 525.352 334.54 526.509 336.996C525.352 339.445 524.092 341.894 522.715 344.3ZM528.64 341.916C529.629 344.373 530.471 346.822 531.174 349.205C528.772 349.79 526.238 350.287 523.616 350.667C524.517 349.256 525.41 347.809 526.26 346.325C527.095 344.863 527.886 343.379 528.64 341.916ZM510.037 361.45C508.33 359.696 506.624 357.737 504.939 355.595C506.587 355.668 508.279 355.726 509.985 355.726C511.707 355.726 513.413 355.69 515.083 355.595C513.428 357.737 511.721 359.696 510.037 361.45ZM496.392 350.667C493.784 350.28 491.272 349.805 488.87 349.22C489.551 346.858 490.393 344.424 491.345 341.989C492.1 343.452 492.883 344.921 493.748 346.383C494.612 347.853 495.491 349.278 496.392 350.667ZM509.941 312.564C511.648 314.319 513.354 316.278 515.039 318.42C513.391 318.347 511.699 318.288 509.993 318.288C508.271 318.288 506.565 318.325 504.895 318.42C506.55 316.278 508.257 314.319 509.941 312.564ZM496.37 323.347C495.469 324.758 494.575 326.206 493.726 327.69C492.883 329.152 492.092 330.621 491.338 332.084C490.349 329.627 489.507 327.178 488.804 324.795C491.213 324.225 493.748 323.735 496.37 323.347ZM479.766 346.274C473.269 343.51 469.072 339.884 469.072 337.011C469.072 334.138 473.276 330.49 479.766 327.748C481.34 327.069 483.069 326.469 484.849 325.899C485.896 329.488 487.273 333.224 488.979 337.048C487.295 340.856 485.933 344.57 484.907 348.145C483.091 347.575 481.362 346.953 479.766 346.274ZM489.639 372.438C487.141 371.013 486.064 365.574 486.907 358.577C487.112 356.859 487.441 355.046 487.844 353.197C491.44 354.074 495.366 354.754 499.49 355.192C501.965 358.577 504.536 361.655 507.122 364.345C501.138 369.894 495.527 372.935 491.711 372.935C490.884 372.913 490.188 372.753 489.639 372.438ZM533.152 358.49C534.016 365.486 532.947 370.925 530.471 372.372C529.922 372.701 529.204 372.848 528.362 372.848C524.568 372.848 518.936 369.828 512.952 364.316C515.522 361.626 518.086 358.57 520.525 355.178C524.67 354.739 528.596 354.059 532.192 353.16C532.617 355.01 532.947 356.786 533.152 358.49ZM540.212 346.274C538.638 346.953 536.909 347.553 535.129 348.123C534.082 344.534 532.705 340.798 530.999 336.974C532.683 333.166 534.045 329.452 535.071 325.877C536.887 326.447 538.608 327.069 540.227 327.741C546.724 330.505 550.92 334.131 550.92 337.004C550.906 339.884 546.709 343.525 540.212 346.274Z" fill="#00D8FF"/>
</g>
<rect x="770" y="255" width="140" height="140" rx="70" fill="#F3F3F3"/>
<g clip-path="url(#clip2_1595_36)">
<path d="M866.187 300.71C866.132 300.31 865.783 300.089 865.494 300.064C865.205 300.04 859.101 299.587 859.101 299.587C859.101 299.587 854.861 295.369 854.395 294.902C853.93 294.436 853.02 294.577 852.667 294.682C852.616 294.697 851.741 294.967 850.295 295.416C848.879 291.332 846.379 287.579 841.982 287.579C841.86 287.579 841.735 287.584 841.61 287.591C840.36 285.934 838.811 285.214 837.473 285.214C827.229 285.214 822.336 298.045 820.801 304.566C816.821 305.802 813.993 306.68 813.632 306.794C811.41 307.492 811.34 307.563 811.048 309.66C810.829 311.249 805.016 356.298 805.016 356.298L850.314 364.802L874.858 359.482C874.858 359.482 866.241 301.11 866.187 300.71ZM847.791 296.192L843.958 297.38C843.96 297.11 843.961 296.843 843.961 296.552C843.961 294.014 843.609 291.971 843.045 290.351C845.311 290.636 846.82 293.219 847.791 296.192ZM840.235 290.854C840.865 292.436 841.274 294.705 841.274 297.768C841.274 297.925 841.273 298.068 841.271 298.213C838.779 298.987 836.07 299.827 833.355 300.67C834.88 294.775 837.737 291.928 840.235 290.854ZM837.191 287.967C837.633 287.967 838.079 288.117 838.505 288.411C835.222 289.959 831.703 293.858 830.217 301.643L823.96 303.585C825.701 297.647 829.834 287.967 837.191 287.967Z" fill="#95BF46"/>
<path d="M865.49 300.064C865.202 300.04 859.097 299.586 859.097 299.586C859.097 299.586 854.857 295.369 854.392 294.902C854.218 294.728 853.983 294.639 853.738 294.601L850.312 364.801L874.854 359.481C874.854 359.481 866.238 301.11 866.184 300.71C866.129 300.31 865.779 300.088 865.49 300.064Z" fill="#5E8E3E"/>
<path d="M841.98 313.653L838.953 322.674C838.953 322.674 836.302 321.256 833.051 321.256C828.286 321.256 828.047 324.253 828.047 325.008C828.047 329.128 838.764 330.706 838.764 340.357C838.764 347.949 833.959 352.838 827.479 352.838C819.703 352.838 815.727 347.989 815.727 347.989L817.809 341.096C817.809 341.096 821.896 344.612 825.345 344.612C827.599 344.612 828.516 342.834 828.516 341.535C828.516 336.161 819.723 335.921 819.723 327.09C819.723 319.657 825.047 312.465 835.793 312.465C839.934 312.465 841.98 313.653 841.98 313.653Z" fill="white"/>
</g>
<rect x="595" y="38" width="140" height="140" rx="70" fill="#F3F3F3"/>
<path d="M693.341 83.7217L688.178 141.565L664.968 148L641.822 141.574L636.664 83.7217H693.341Z" fill="#004CE8"/>
<path d="M683.755 137.882L688.167 88.4521H665V143.082L683.755 137.882Z" fill="#0065F4"/>
<path d="M648.492 109.909L649.128 117.004H665.006L668.058 113.457L665.006 109.909H648.492Z" fill="#EBEBEB"/>
<path d="M665.003 95.5479H664.978H647.211L647.856 102.643H665.003L668.055 99.0955L665.003 95.5479Z" fill="#EBEBEB"/>
<path d="M665.006 135.718L668.058 131.956L665.006 128.336L664.975 128.344L657.073 126.211L656.568 120.552H652.728H649.445L650.439 131.693L664.974 135.727L665.006 135.718Z" fill="#EBEBEB"/>
<path d="M673.714 117.004L672.89 126.207L664.977 128.343V135.724L679.523 131.693L679.629 130.494L681.297 111.814L681.47 109.909L682.751 95.5479H664.977V102.643H674.975L674.329 109.909H664.977V117.004H673.714Z" fill="white"/>
<rect x="980" y="89" width="140" height="140" rx="70" fill="#F3F3F3"/>
<path d="M1046.82 129.4L1048.55 132.657C1048.94 133.258 1049.36 133.79 1049.86 134.285C1051.32 135.725 1052.68 137.262 1053.93 138.885C1056.86 142.742 1058.85 147.026 1060.26 151.659C1061.11 154.489 1061.57 157.392 1061.6 160.328C1061.75 169.104 1058.74 176.64 1052.67 182.903C1051.69 183.896 1050.62 184.807 1049.48 185.627C1048.88 185.627 1048.6 185.166 1048.35 184.742C1047.9 183.955 1047.6 183.091 1047.47 182.194C1047.25 181.132 1047.11 180.071 1047.18 178.974V178.479C1047.13 178.373 1046.6 129.65 1046.82 129.4Z" fill="#599636"/>
<path d="M1046.82 129.293C1046.75 129.151 1046.68 129.259 1046.6 129.328C1046.64 130.039 1046.39 130.672 1046 131.277C1045.58 131.878 1045.01 132.339 1044.45 132.834C1041.3 135.558 1038.82 138.849 1036.84 142.53C1034.2 147.484 1032.84 152.792 1032.45 158.381C1032.28 160.397 1033.09 167.511 1033.73 169.563C1035.46 175.012 1038.58 179.578 1042.61 183.541C1043.6 184.495 1044.66 185.38 1045.76 186.231C1046.07 186.231 1046.11 185.946 1046.18 185.735C1046.32 185.284 1046.43 184.822 1046.5 184.355L1047.21 179.048L1046.82 129.293Z" fill="#6CAC48"/>
<path d="M1048.55 187.783C1048.62 186.971 1049.01 186.297 1049.44 185.625C1049.01 185.448 1048.7 185.097 1048.45 184.705C1048.23 184.334 1048.06 183.943 1047.92 183.538C1047.42 182.052 1047.32 180.493 1047.18 178.974V178.055C1047 178.197 1046.96 179.399 1046.96 179.577C1046.86 181.182 1046.65 182.778 1046.33 184.354C1046.22 184.992 1046.15 185.627 1045.76 186.194C1045.76 186.265 1045.76 186.336 1045.79 186.441C1046.43 188.317 1046.6 190.227 1046.71 192.174V192.885C1046.71 193.733 1046.68 193.555 1047.38 193.839C1047.67 193.945 1047.98 193.981 1048.27 194.192C1048.48 194.192 1048.51 194.016 1048.51 193.874L1048.41 192.706V189.45C1048.37 188.881 1048.48 188.317 1048.55 187.785L1048.55 187.783Z" fill="#C2BFBF"/>
<rect x="110" y="396" width="140" height="140" rx="70" fill="#F3F3F3"/>
<g clip-path="url(#clip3_1595_36)">
<path d="M140 426L146.667 499.333L180 506L213.333 499.333L220 426H140ZM176.667 491.732L159.043 488.213L157.933 476H164.629L165.232 482.653L170 483.604V439.333H176.667V491.732H176.667ZM204.792 446H190V462.667H203.278L200.957 488.214L183.333 491.733V484.936L194.766 482.654L195.977 469.334H183.333V439.334H205.397L204.792 446Z" fill="black"/>
</g>
<rect x="304" y="509" width="140" height="140" rx="70" fill="#F3F3F3"/>
<g clip-path="url(#clip4_1595_36)">
<path d="M322.59 573.089L321.609 576.699L327.224 573.068L323.552 586.768L327.281 586.771L332.705 566.536" fill="#3395FF"/>
<path d="M316.544 581.012L315 586.771H322.643L325.771 575.055L316.544 581.012ZM343.095 575.941C342.908 576.636 342.548 577.146 342.011 577.471C341.475 577.797 340.724 577.96 339.754 577.96H336.671L337.753 573.924H340.836C341.805 573.924 342.471 574.086 342.832 574.416C343.193 574.746 343.28 575.251 343.095 575.948M346.286 575.861C346.679 574.404 346.517 573.283 345.799 572.498C345.083 571.719 343.826 571.327 342.033 571.327H335.153L331.012 586.778H334.354L336.023 580.55H338.215C338.707 580.55 339.095 580.631 339.377 580.787C339.661 580.949 339.827 581.229 339.878 581.634L340.475 586.778H344.056L343.475 581.983C343.357 580.912 342.867 580.283 342.005 580.096C343.103 579.778 344.023 579.249 344.764 578.514C345.5 577.784 346.026 576.87 346.286 575.867M354.411 581.248C354.131 582.294 353.701 583.085 353.12 583.639C352.538 584.194 351.843 584.468 351.033 584.468C350.207 584.468 349.647 584.2 349.351 583.658C349.055 583.116 349.045 582.332 349.32 581.304C349.595 580.276 350.034 579.473 350.638 578.894C351.242 578.315 351.949 578.025 352.76 578.025C353.569 578.025 354.123 578.305 354.404 578.862C354.69 579.42 354.696 580.219 354.416 581.259L354.411 581.248ZM355.876 575.78L355.457 577.343C355.277 576.783 354.926 576.334 354.408 575.998C353.889 575.668 353.246 575.5 352.479 575.5C351.539 575.5 350.636 575.743 349.77 576.228C348.905 576.714 348.145 577.399 347.497 578.284C346.849 579.168 346.376 580.171 346.071 581.298C345.772 582.431 345.71 583.421 345.89 584.281C346.077 585.147 346.47 585.807 347.074 586.268C347.684 586.735 348.462 586.965 349.415 586.965C350.172 586.969 350.921 586.805 351.607 586.486C352.286 586.179 352.89 585.729 353.376 585.165L352.94 586.794H356.172L359.124 575.786H355.885L355.876 575.78ZM370.739 575.78H361.339L360.682 578.234H366.151L358.921 584.48L358.303 586.784H368.006L368.663 584.331H362.802L370.144 577.991M379.012 581.229C378.721 582.313 378.29 583.128 377.72 583.658C377.15 584.194 376.46 584.462 375.65 584.462C373.956 584.462 373.399 583.384 373.977 581.229C374.263 580.158 374.697 579.353 375.276 578.81C375.855 578.266 376.557 577.995 377.382 577.995C378.192 577.995 378.739 578.264 379.02 578.807C379.302 579.349 379.299 580.157 379.012 581.228M380.904 576.194C380.16 575.731 379.21 575.499 378.052 575.499C376.879 575.499 375.794 575.73 374.795 576.19C373.8 576.648 372.926 577.332 372.241 578.187C371.538 579.053 371.031 580.068 370.72 581.226C370.415 582.38 370.378 583.393 370.615 584.261C370.851 585.127 371.349 585.793 372.097 586.254C372.85 586.718 373.809 586.95 374.986 586.95C376.145 586.95 377.222 586.717 378.212 586.253C379.203 585.787 380.05 585.126 380.753 584.254C381.457 583.386 381.962 582.373 382.273 581.215C382.584 580.057 382.622 579.045 382.385 578.176C382.148 577.31 381.656 576.644 380.915 576.18M392.443 578.721L393.271 575.725C392.991 575.582 392.624 575.507 392.163 575.507C391.422 575.507 390.712 575.69 390.027 576.061C389.437 576.377 388.937 576.821 388.513 577.378L388.943 575.765L388.004 575.769H385.7L382.729 586.773H386.007L387.549 581.021C387.773 580.184 388.176 579.526 388.759 579.059C389.338 578.59 390.06 578.355 390.932 578.355C391.468 578.355 391.966 578.478 392.439 578.723M401.563 581.282C401.283 582.31 400.859 583.095 400.28 583.636C399.701 584.181 399.003 584.452 398.194 584.452C397.384 584.452 396.83 584.178 396.537 583.63C396.238 583.079 396.232 582.285 396.512 581.241C396.792 580.198 397.222 579.398 397.814 578.843C398.405 578.285 399.103 578.006 399.912 578.006C400.71 578.006 401.245 578.292 401.532 578.871C401.818 579.451 401.824 580.254 401.549 581.282M403.841 576.212C403.234 575.726 402.458 575.484 401.518 575.484C400.694 575.484 399.909 575.67 399.164 576.048C398.42 576.425 397.816 576.938 397.352 577.589L397.363 577.514L397.913 575.764H394.712L393.896 578.809L393.871 578.915L390.508 591.46H393.79L395.484 585.145C395.652 585.707 395.995 586.148 396.518 586.467C397.041 586.784 397.687 586.942 398.455 586.942C399.407 586.942 400.317 586.712 401.179 586.251C402.045 585.789 402.792 585.124 403.427 584.264C404.063 583.405 404.534 582.408 404.835 581.281C405.14 580.152 405.202 579.145 405.028 578.264C404.85 577.381 404.458 576.698 403.851 576.215M414.728 581.237C414.447 582.277 414.018 583.075 413.439 583.623C412.859 584.174 412.162 584.449 411.352 584.449C410.524 584.449 409.963 584.181 409.671 583.639C409.372 583.098 409.366 582.313 409.64 581.285C409.914 580.258 410.351 579.454 410.955 578.875C411.559 578.296 412.266 578.007 413.077 578.007C413.886 578.007 414.434 578.287 414.721 578.842C415.007 579.398 415.009 580.197 414.73 581.239L414.728 581.237ZM416.191 575.766L415.772 577.329C415.592 576.766 415.243 576.317 414.726 575.984C414.203 575.652 413.561 575.486 412.795 575.486C411.855 575.486 410.947 575.729 410.08 576.215C409.214 576.7 408.454 577.382 407.807 578.264C407.159 579.145 406.686 580.151 406.381 581.278C406.079 582.409 406.019 583.402 406.2 584.265C406.383 585.124 406.775 585.788 407.383 586.251C407.99 586.712 408.772 586.945 409.725 586.945C410.491 586.945 411.223 586.786 411.917 586.466C412.594 586.158 413.196 585.707 413.681 585.143L413.246 586.774H416.478L419.428 575.769H416.196L416.191 575.766ZM432.998 575.77L433 575.767H431.013C430.95 575.767 430.894 575.77 430.836 575.771H429.805L429.276 576.506L429.145 576.681L429.089 576.768L424.901 582.602L424.035 575.77H420.605L422.342 586.152L418.506 591.464H421.925L422.853 590.148C422.879 590.109 422.903 590.077 422.934 590.036L424.018 588.498L424.049 588.454L428.902 581.572L432.994 575.781L433 575.777H432.998V575.77Z" fill="#072654"/>
</g>
<rect x="620" y="469" width="140" height="140" rx="70" fill="#F3F3F3"/>
<g clip-path="url(#clip5_1595_36)">
<path d="M745.619 531.828C744.602 528.931 741.831 526.851 738.577 526.851H738.509C736.394 526.851 734.487 527.729 733.13 529.137C731.771 527.729 729.864 526.851 727.751 526.851H727.683C725.823 526.851 724.124 527.53 722.818 528.653V528.082C722.773 527.513 722.304 527.066 721.724 527.066H716.732C716.122 527.066 715.629 527.558 715.629 528.168V555.179C715.629 555.79 716.122 556.281 716.732 556.281H721.724C722.281 556.281 722.738 555.867 722.811 555.331L722.809 535.94C722.809 535.872 722.811 535.809 722.819 535.746C722.898 534.88 723.534 534.169 724.54 534.08H725.46C725.88 534.117 726.235 534.265 726.514 534.487C726.949 534.831 727.19 535.36 727.19 535.94L727.209 555.236C727.209 555.846 727.704 556.34 728.312 556.34H733.304C733.893 556.34 734.372 555.872 734.401 555.29L734.398 535.915C734.396 535.278 734.692 534.703 735.211 534.361C735.467 534.197 735.774 534.087 736.129 534.054H737.049C738.129 534.148 738.782 534.965 738.779 535.915L738.798 555.184C738.798 555.795 739.294 556.286 739.902 556.286H744.893C745.501 556.286 745.997 555.795 745.997 555.184V534.46C745.997 533.046 745.837 532.445 745.619 531.828ZM711.826 527.137H708.971V522.513C708.971 521.959 708.52 521.51 707.964 521.51C707.898 521.51 707.835 521.519 707.773 521.531C704.608 522.396 705.242 526.765 699.464 527.137H698.903C698.818 527.137 698.739 527.148 698.661 527.165H698.657L698.661 527.167C698.168 527.277 697.797 527.712 697.797 528.236V533.211C697.797 533.816 698.292 534.31 698.903 534.31H701.915L701.91 555.403C701.91 556.004 702.399 556.491 703.002 556.491H707.937C708.539 556.491 709.027 556.004 709.027 555.403L709.029 534.31H711.826C712.433 534.31 712.929 533.816 712.929 533.211V528.237C712.93 527.63 712.434 527.137 711.826 527.137Z" fill="#54C1F0"/>
<path d="M693.87 527.137H688.878C688.27 527.137 687.777 527.63 687.777 528.236V538.521C687.765 539.158 687.249 539.668 686.608 539.668H684.518C683.87 539.668 683.347 539.149 683.347 538.503L683.328 528.236C683.328 527.63 682.832 527.137 682.225 527.137H677.232C676.622 527.137 676.129 527.63 676.129 528.236V539.509C676.129 543.791 679.193 546.844 683.492 546.844C683.492 546.844 686.718 546.844 686.817 546.863C687.399 546.928 687.852 547.415 687.852 548.014C687.852 548.606 687.408 549.09 686.833 549.163C686.804 549.167 686.778 549.174 686.748 549.179L679.448 549.205C678.838 549.205 678.345 549.699 678.345 550.304V555.276C678.345 555.885 678.838 556.376 679.448 556.376H687.609C691.911 556.376 694.972 553.325 694.972 549.041V528.237C694.973 527.63 694.48 527.137 693.87 527.137ZM645.993 527.136H635.082C634.484 527.136 634 527.62 634 528.214V533.088C634 533.097 634.002 533.107 634.002 533.116C634.002 533.139 634 533.163 634 533.184V555.242C634 555.841 634.451 556.33 635.01 556.344H640.095C640.703 556.344 641.199 555.852 641.199 555.244L641.218 547.685H645.993C649.99 547.685 652.774 544.922 652.774 540.923V533.907C652.774 529.908 649.989 527.136 645.993 527.136ZM645.554 539.321C645.554 539.964 645.03 540.488 644.385 540.488L641.217 540.49V534.339H644.385C645.03 534.339 645.554 534.859 645.554 535.504V539.321ZM665.472 527.164H658.545C657.933 527.164 657.437 527.627 657.437 528.196V530.13C657.437 530.142 657.439 530.156 657.439 530.168C657.439 530.182 657.437 530.196 657.437 530.21V532.861C657.437 533.462 657.963 533.953 658.611 533.953H665.206C665.727 534.035 666.141 534.414 666.2 535.006V535.647C666.141 536.211 665.732 536.622 665.235 536.669H661.969C657.625 536.669 654.53 539.545 654.53 543.583V549.367C654.53 553.381 657.191 556.238 661.504 556.238H670.555C672.18 556.238 673.497 555.012 673.497 553.503V534.63C673.497 530.054 671.13 527.164 665.472 527.164ZM666.265 548.705C666.265 548.769 666.256 548.829 666.247 548.888C666.235 548.943 666.219 548.997 666.2 549.05C666.045 549.485 665.608 549.8 665.089 549.8H663.011C662.363 549.8 661.835 549.309 661.835 548.705V547.767C661.835 547.755 661.832 547.744 661.832 547.732L661.835 545.235V544.454L661.837 544.447C661.839 543.846 662.363 543.359 663.011 543.359H665.089C665.739 543.359 666.265 543.848 666.265 544.454V548.705H666.265Z" fill="#233266"/>
</g>
<rect x="922" y="493" width="140" height="140" rx="70" fill="#F3F3F3"/>
<g clip-path="url(#clip6_1595_36)">
<path d="M991.549 587.358C991.278 587.358 991.026 587.286 990.791 587.16L988.389 585.735C988.028 585.537 988.209 585.465 988.317 585.429C988.805 585.266 988.895 585.23 989.401 584.942C989.455 584.906 989.527 584.924 989.581 584.96L991.423 586.06C991.495 586.096 991.585 586.096 991.639 586.06L998.844 581.894C998.916 581.858 998.952 581.785 998.952 581.695V573.381C998.952 573.29 998.916 573.219 998.844 573.182L991.639 569.034C991.567 568.998 991.477 568.998 991.423 569.034L984.218 573.182C984.146 573.218 984.11 573.309 984.11 573.381V581.695C984.11 581.767 984.146 581.857 984.218 581.894L986.187 583.03C987.252 583.571 987.92 582.94 987.92 582.308V574.102C987.92 573.994 988.01 573.886 988.137 573.886H989.057C989.166 573.886 989.274 573.976 989.274 574.102V582.308C989.274 583.733 988.498 584.563 987.143 584.563C986.728 584.563 986.403 584.563 985.482 584.112L983.586 583.03C983.117 582.759 982.828 582.254 982.828 581.713V573.399C982.828 572.858 983.117 572.353 983.586 572.082L990.791 567.916C991.242 567.663 991.856 567.663 992.308 567.916L999.512 572.082C999.981 572.353 1000.27 572.858 1000.27 573.399V581.713C1000.27 582.254 999.981 582.759 999.512 583.03L992.308 587.196C992.073 587.304 991.802 587.358 991.549 587.358ZM993.77 581.641C990.61 581.641 989.96 580.198 989.96 578.972C989.96 578.864 990.051 578.755 990.177 578.755H991.116C991.224 578.755 991.315 578.827 991.315 578.936C991.459 579.892 991.874 580.361 993.788 580.361C995.305 580.361 995.955 580.018 995.955 579.206C995.955 578.737 995.774 578.395 993.409 578.16C991.441 577.962 990.213 577.529 990.213 575.96C990.213 574.499 991.441 573.633 993.499 573.633C995.81 573.633 996.948 574.427 997.093 576.158C997.093 576.212 997.075 576.266 997.038 576.321C997.002 576.357 996.948 576.393 996.894 576.393H995.955C995.865 576.393 995.774 576.321 995.756 576.23C995.54 575.238 994.98 574.914 993.499 574.914C991.838 574.914 991.639 575.491 991.639 575.924C991.639 576.447 991.874 576.609 994.113 576.898C996.334 577.186 997.382 577.601 997.382 579.152C997.363 580.739 996.063 581.641 993.77 581.641Z" fill="#539E43"/>
<path d="M969.193 554.84C969.193 554.516 969.012 554.209 968.723 554.047L961.067 549.646C960.941 549.574 960.796 549.538 960.652 549.52H960.58C960.435 549.52 960.291 549.574 960.164 549.646L952.509 554.047C952.22 554.209 952.039 554.516 952.039 554.84L952.057 566.672C952.057 566.834 952.147 566.996 952.292 567.069C952.436 567.159 952.617 567.159 952.743 567.069L957.294 564.471C957.582 564.309 957.763 564.003 957.763 563.678V558.141C957.763 557.816 957.943 557.51 958.232 557.347L960.164 556.229C960.309 556.139 960.471 556.103 960.634 556.103C960.796 556.103 960.959 556.139 961.085 556.229L963.017 557.347C963.306 557.51 963.487 557.816 963.487 558.141V563.678C963.487 564.003 963.667 564.309 963.956 564.471L968.506 567.069C968.651 567.159 968.831 567.159 968.976 567.069C969.12 566.996 969.211 566.834 969.211 566.672L969.193 554.84ZM1005.99 538.554C1005.85 538.482 1005.67 538.482 1005.54 538.554C1005.4 538.644 1005.31 538.789 1005.31 538.951V550.674C1005.31 550.782 1005.25 550.89 1005.14 550.963C1005.03 551.017 1004.93 551.017 1004.82 550.963L1002.9 549.863C1002.76 549.783 1002.6 549.741 1002.44 549.741C1002.28 549.741 1002.12 549.783 1001.98 549.863L994.327 554.281C994.038 554.444 993.857 554.75 993.857 555.075V563.894C993.857 564.219 994.038 564.526 994.327 564.688L1001.98 569.107C1002.12 569.186 1002.28 569.228 1002.44 569.228C1002.6 569.228 1002.76 569.186 1002.9 569.107L1010.56 564.688C1010.85 564.526 1011.03 564.219 1011.03 563.894V541.909C1011.03 541.566 1010.85 541.26 1010.56 541.097L1005.99 538.554ZM1005.29 560.991C1005.29 561.081 1005.25 561.153 1005.18 561.189L1002.56 562.704C1002.52 562.722 1002.48 562.731 1002.44 562.731C1002.4 562.731 1002.36 562.722 1002.33 562.704L999.708 561.189C999.635 561.153 999.599 561.063 999.599 560.991V557.961C999.599 557.87 999.635 557.798 999.708 557.762L1002.33 556.247C1002.36 556.229 1002.4 556.22 1002.44 556.22C1002.48 556.22 1002.52 556.229 1002.56 556.247L1005.18 557.762C1005.25 557.798 1005.29 557.888 1005.29 557.961V560.991ZM1031.47 557.888C1031.76 557.726 1031.92 557.42 1031.92 557.095V554.949C1031.92 554.624 1031.74 554.317 1031.47 554.155L1023.87 549.754C1023.73 549.675 1023.57 549.633 1023.41 549.633C1023.25 549.633 1023.09 549.675 1022.95 549.754L1015.29 554.173C1015 554.335 1014.82 554.642 1014.82 554.967V563.786C1014.82 564.111 1015 564.417 1015.29 564.58L1022.89 568.908C1023.18 569.07 1023.52 569.07 1023.79 568.908L1028.4 566.347C1028.54 566.275 1028.63 566.113 1028.63 565.95C1028.63 565.788 1028.54 565.626 1028.4 565.554L1020.71 561.135C1020.56 561.045 1020.47 560.901 1020.47 560.738V557.979C1020.47 557.816 1020.56 557.654 1020.71 557.582L1023.11 556.211C1023.18 556.167 1023.26 556.144 1023.34 556.144C1023.43 556.144 1023.51 556.167 1023.58 556.211L1025.98 557.582C1026.12 557.672 1026.21 557.816 1026.21 557.979V560.143C1026.21 560.305 1026.3 560.468 1026.45 560.54C1026.59 560.63 1026.77 560.63 1026.92 560.54L1031.47 557.888Z" fill="#333333"/>
<path d="M1023.29 557.473C1023.31 557.456 1023.35 557.446 1023.38 557.446C1023.41 557.446 1023.44 557.456 1023.47 557.473L1024.93 558.321C1024.98 558.357 1025.02 558.411 1025.02 558.483V560.179C1025.02 560.251 1024.98 560.305 1024.93 560.341L1023.47 561.189C1023.44 561.206 1023.41 561.216 1023.38 561.216C1023.35 561.216 1023.31 561.206 1023.29 561.189L1021.82 560.341C1021.77 560.305 1021.73 560.251 1021.73 560.179V558.483C1021.73 558.411 1021.77 558.357 1021.82 558.321L1023.29 557.473Z" fill="#539E43"/>
<path d="M981.997 549.791C981.857 549.711 981.698 549.669 981.537 549.669C981.376 549.669 981.217 549.711 981.077 549.791L973.475 554.173C973.186 554.335 973.023 554.642 973.023 554.967V563.75C973.023 564.075 973.204 564.381 973.475 564.544L981.077 568.926C981.217 569.006 981.376 569.048 981.537 569.048C981.698 569.048 981.857 569.006 981.997 568.926L989.599 564.544C989.888 564.381 990.051 564.075 990.051 563.75V554.967C990.051 554.642 989.87 554.335 989.599 554.173L981.997 549.791Z" fill="url(#paint3_linear_1595_36)"/>
<mask id="mask0_1595_36" style="mask-type:luminance" maskUnits="userSpaceOnUse" x="973" y="549" width="18" height="21">
<path d="M981.997 549.791C981.857 549.711 981.698 549.669 981.537 549.669C981.376 549.669 981.217 549.711 981.077 549.791L973.475 554.173C973.186 554.335 973.023 554.642 973.023 554.967V563.75C973.023 564.075 973.204 564.381 973.475 564.544L981.077 568.926C981.217 569.006 981.376 569.048 981.537 569.048C981.698 569.048 981.857 569.006 981.997 568.926L989.599 564.544C989.888 564.381 990.051 564.075 990.051 563.75V554.967C990.051 554.642 989.87 554.335 989.599 554.173L981.997 549.791Z" fill="white"/>
</mask>
<g mask="url(#mask0_1595_36)">
<path d="M989.619 554.173L981.981 549.79C981.906 549.753 981.827 549.722 981.746 549.7L973.188 564.345C973.258 564.432 973.344 564.505 973.44 564.562L981.078 568.944C981.295 569.071 981.548 569.107 981.782 569.034L989.817 554.353C989.763 554.281 989.691 554.227 989.619 554.173Z" fill="url(#paint4_linear_1595_36)"/>
</g>
<mask id="mask1_1595_36" style="mask-type:luminance" maskUnits="userSpaceOnUse" x="973" y="549" width="18" height="21">
<path d="M981.997 549.791C981.857 549.711 981.698 549.669 981.537 549.669C981.376 549.669 981.217 549.711 981.077 549.791L973.475 554.173C973.186 554.335 973.023 554.642 973.023 554.967V563.75C973.023 564.075 973.204 564.381 973.475 564.544L981.077 568.926C981.217 569.006 981.376 569.048 981.537 569.048C981.698 569.048 981.857 569.006 981.997 568.926L989.599 564.544C989.888 564.381 990.051 564.075 990.051 563.75V554.967C990.051 554.642 989.87 554.335 989.599 554.173L981.997 549.791Z" fill="white"/>
</mask>
<g mask="url(#mask1_1595_36)">
<path fill-rule="evenodd" clip-rule="evenodd" d="M989.637 564.544C989.854 564.418 990.016 564.201 990.089 563.967L981.71 549.682C981.493 549.646 981.259 549.664 981.06 549.791L973.477 554.155L981.656 569.053C981.775 569.033 981.89 568.997 981.999 568.945L989.637 564.544L989.637 564.544Z" fill="url(#paint5_linear_1595_36)"/>
<path fill-rule="evenodd" clip-rule="evenodd" d="M989.635 564.543L982.015 568.926C981.907 568.981 981.791 569.017 981.672 569.034L981.816 569.305L990.267 564.417V564.309L990.05 563.948C990.014 564.201 989.851 564.417 989.635 564.543Z" fill="url(#paint6_linear_1595_36)"/>
<path fill-rule="evenodd" clip-rule="evenodd" d="M989.635 564.543L982.015 568.926C981.907 568.981 981.791 569.017 981.672 569.034L981.816 569.305L990.267 564.417V564.309L990.05 563.948C990.014 564.201 989.851 564.417 989.635 564.543Z" fill="url(#paint7_linear_1595_36)"/>
</g>
</g>
<path d="M249.501 310.832V322H247.261V317.248H242.477V322H240.237V310.832H242.477V315.424H247.261V310.832H249.501ZM259.306 310.832V312.64H256.33V322H254.09V312.64H251.114V310.832H259.306ZM273.116 310.832V322H270.876V314.736L267.884 322H266.188L263.18 314.736V322H260.94V310.832H263.484L267.036 319.136L270.588 310.832H273.116ZM277.571 320.224H281.251V322H275.331V310.832H277.571V320.224ZM290.258 312.272H285.074V315.008C285.298 314.731 285.618 314.507 286.034 314.336C286.45 314.155 286.893 314.064 287.362 314.064C288.216 314.064 288.914 314.251 289.458 314.624C290.002 314.997 290.397 315.477 290.642 316.064C290.888 316.64 291.01 317.259 291.01 317.92C291.01 319.147 290.658 320.133 289.954 320.88C289.261 321.627 288.269 322 286.978 322C285.762 322 284.792 321.696 284.066 321.088C283.341 320.48 282.93 319.685 282.834 318.704H285.01C285.106 319.131 285.32 319.472 285.65 319.728C285.992 319.984 286.424 320.112 286.946 320.112C287.576 320.112 288.05 319.915 288.37 319.52C288.69 319.125 288.85 318.603 288.85 317.952C288.85 317.291 288.685 316.789 288.354 316.448C288.034 316.096 287.56 315.92 286.93 315.92C286.482 315.92 286.109 316.032 285.81 316.256C285.512 316.48 285.298 316.779 285.17 317.152H283.026V310.304H290.258V312.272Z" fill="white"/>
<path d="M645.88 204.4C645.88 203.301 646.126 202.32 646.616 201.456C647.118 200.581 647.795 199.904 648.648 199.424C649.512 198.933 650.478 198.688 651.544 198.688C652.792 198.688 653.886 199.008 654.824 199.648C655.763 200.288 656.419 201.173 656.792 202.304H654.216C653.96 201.771 653.598 201.371 653.128 201.104C652.67 200.837 652.136 200.704 651.528 200.704C650.878 200.704 650.296 200.859 649.784 201.168C649.283 201.467 648.888 201.893 648.6 202.448C648.323 203.003 648.184 203.653 648.184 204.4C648.184 205.136 648.323 205.787 648.6 206.352C648.888 206.907 649.283 207.339 649.784 207.648C650.296 207.947 650.878 208.096 651.528 208.096C652.136 208.096 652.67 207.963 653.128 207.696C653.598 207.419 653.96 207.013 654.216 206.48H656.792C656.419 207.621 655.763 208.512 654.824 209.152C653.896 209.781 652.803 210.096 651.544 210.096C650.478 210.096 649.512 209.856 648.648 209.376C647.795 208.885 647.118 208.208 646.616 207.344C646.126 206.48 645.88 205.499 645.88 204.4ZM662.562 210.112C661.783 210.112 661.079 209.979 660.45 209.712C659.831 209.445 659.34 209.061 658.978 208.56C658.615 208.059 658.428 207.467 658.418 206.784H660.818C660.85 207.243 661.01 207.605 661.298 207.872C661.596 208.139 662.002 208.272 662.514 208.272C663.036 208.272 663.447 208.149 663.746 207.904C664.044 207.648 664.194 207.317 664.194 206.912C664.194 206.581 664.092 206.309 663.89 206.096C663.687 205.883 663.431 205.717 663.122 205.6C662.823 205.472 662.407 205.333 661.874 205.184C661.148 204.971 660.556 204.763 660.098 204.56C659.65 204.347 659.26 204.032 658.93 203.616C658.61 203.189 658.45 202.624 658.45 201.92C658.45 201.259 658.615 200.683 658.946 200.192C659.276 199.701 659.74 199.328 660.338 199.072C660.935 198.805 661.618 198.672 662.386 198.672C663.538 198.672 664.471 198.955 665.186 199.52C665.911 200.075 666.311 200.853 666.386 201.856H663.922C663.9 201.472 663.735 201.157 663.426 200.912C663.127 200.656 662.727 200.528 662.226 200.528C661.788 200.528 661.436 200.64 661.17 200.864C660.914 201.088 660.786 201.413 660.786 201.84C660.786 202.139 660.882 202.389 661.074 202.592C661.276 202.784 661.522 202.944 661.81 203.072C662.108 203.189 662.524 203.328 663.058 203.488C663.783 203.701 664.375 203.915 664.834 204.128C665.292 204.341 665.687 204.661 666.018 205.088C666.348 205.515 666.514 206.075 666.514 206.768C666.514 207.365 666.359 207.92 666.05 208.432C665.74 208.944 665.287 209.355 664.69 209.664C664.092 209.963 663.383 210.112 662.562 210.112ZM672.312 210.112C671.533 210.112 670.829 209.979 670.2 209.712C669.581 209.445 669.09 209.061 668.728 208.56C668.365 208.059 668.178 207.467 668.168 206.784H670.568C670.6 207.243 670.76 207.605 671.048 207.872C671.346 208.139 671.752 208.272 672.264 208.272C672.786 208.272 673.197 208.149 673.496 207.904C673.794 207.648 673.944 207.317 673.944 206.912C673.944 206.581 673.842 206.309 673.64 206.096C673.437 205.883 673.181 205.717 672.872 205.6C672.573 205.472 672.157 205.333 671.624 205.184C670.898 204.971 670.306 204.763 669.848 204.56C669.4 204.347 669.01 204.032 668.68 203.616C668.36 203.189 668.2 202.624 668.2 201.92C668.2 201.259 668.365 200.683 668.696 200.192C669.026 199.701 669.49 199.328 670.088 199.072C670.685 198.805 671.368 198.672 672.136 198.672C673.288 198.672 674.221 198.955 674.936 199.52C675.661 200.075 676.061 200.853 676.136 201.856H673.672C673.65 201.472 673.485 201.157 673.176 200.912C672.877 200.656 672.477 200.528 671.976 200.528C671.538 200.528 671.186 200.64 670.92 200.864C670.664 201.088 670.536 201.413 670.536 201.84C670.536 202.139 670.632 202.389 670.824 202.592C671.026 202.784 671.272 202.944 671.56 203.072C671.858 203.189 672.274 203.328 672.808 203.488C673.533 203.701 674.125 203.915 674.584 204.128C675.042 204.341 675.437 204.661 675.768 205.088C676.098 205.515 676.264 206.075 676.264 206.768C676.264 207.365 676.109 207.92 675.8 208.432C675.49 208.944 675.037 209.355 674.44 209.664C673.842 209.963 673.133 210.112 672.312 210.112ZM677.982 201.408C678.035 200.341 678.408 199.52 679.102 198.944C679.806 198.357 680.728 198.064 681.87 198.064C682.648 198.064 683.315 198.203 683.87 198.48C684.424 198.747 684.84 199.115 685.118 199.584C685.406 200.043 685.55 200.565 685.55 201.152C685.55 201.824 685.374 202.395 685.022 202.864C684.68 203.323 684.27 203.632 683.79 203.792V203.856C684.408 204.048 684.888 204.389 685.23 204.88C685.582 205.371 685.758 206 685.758 206.768C685.758 207.408 685.608 207.979 685.31 208.48C685.022 208.981 684.59 209.376 684.014 209.664C683.448 209.941 682.766 210.08 681.966 210.08C680.76 210.08 679.779 209.776 679.022 209.168C678.264 208.56 677.864 207.664 677.822 206.48H679.998C680.019 207.003 680.195 207.424 680.526 207.744C680.867 208.053 681.331 208.208 681.918 208.208C682.462 208.208 682.878 208.059 683.166 207.76C683.464 207.451 683.614 207.056 683.614 206.576C683.614 205.936 683.411 205.477 683.006 205.2C682.6 204.923 681.971 204.784 681.118 204.784H680.654V202.944H681.118C682.632 202.944 683.39 202.437 683.39 201.424C683.39 200.965 683.251 200.608 682.974 200.352C682.707 200.096 682.318 199.968 681.806 199.968C681.304 199.968 680.915 200.107 680.638 200.384C680.371 200.651 680.216 200.992 680.174 201.408H677.982Z" fill="white"/>
<path d="M1025.3 249.832V261H1023.06V253.736L1020.06 261H1018.37L1015.36 253.736V261H1013.12V249.832H1015.66L1019.22 258.136L1022.77 249.832H1025.3ZM1031.45 261.144C1030.59 261.144 1029.82 260.957 1029.14 260.584C1028.46 260.2 1027.92 259.661 1027.53 258.968C1027.14 258.275 1026.95 257.475 1026.95 256.568C1026.95 255.661 1027.15 254.861 1027.54 254.168C1027.95 253.475 1028.5 252.941 1029.19 252.568C1029.88 252.184 1030.66 251.992 1031.51 251.992C1032.36 251.992 1033.14 252.184 1033.83 252.568C1034.52 252.941 1035.07 253.475 1035.46 254.168C1035.87 254.861 1036.07 255.661 1036.07 256.568C1036.07 257.475 1035.86 258.275 1035.45 258.968C1035.04 259.661 1034.49 260.2 1033.78 260.584C1033.09 260.957 1032.31 261.144 1031.45 261.144ZM1031.45 259.192C1031.85 259.192 1032.23 259.096 1032.58 258.904C1032.94 258.701 1033.23 258.403 1033.45 258.008C1033.66 257.613 1033.77 257.133 1033.77 256.568C1033.77 255.725 1033.54 255.08 1033.09 254.632C1032.66 254.173 1032.12 253.944 1031.48 253.944C1030.84 253.944 1030.3 254.173 1029.86 254.632C1029.44 255.08 1029.22 255.725 1029.22 256.568C1029.22 257.411 1029.43 258.061 1029.85 258.52C1030.27 258.968 1030.81 259.192 1031.45 259.192ZM1042.63 252.008C1043.68 252.008 1044.53 252.344 1045.19 253.016C1045.84 253.677 1046.16 254.605 1046.16 255.8V261H1043.92V256.104C1043.92 255.4 1043.75 254.861 1043.39 254.488C1043.04 254.104 1042.56 253.912 1041.95 253.912C1041.33 253.912 1040.84 254.104 1040.48 254.488C1040.13 254.861 1039.95 255.4 1039.95 256.104V261H1037.71V252.136H1039.95V253.24C1040.25 252.856 1040.63 252.557 1041.09 252.344C1041.56 252.12 1042.07 252.008 1042.63 252.008ZM1051.76 251.992C1052.42 251.992 1053.01 252.125 1053.51 252.392C1054.01 252.648 1054.4 252.984 1054.69 253.4V252.136H1056.95V261.064C1056.95 261.885 1056.78 262.616 1056.45 263.256C1056.12 263.907 1055.62 264.419 1054.96 264.792C1054.3 265.176 1053.5 265.368 1052.56 265.368C1051.3 265.368 1050.27 265.075 1049.46 264.488C1048.66 263.901 1048.21 263.101 1048.1 262.088H1050.32C1050.44 262.493 1050.69 262.813 1051.08 263.048C1051.47 263.293 1051.94 263.416 1052.5 263.416C1053.15 263.416 1053.68 263.219 1054.08 262.824C1054.49 262.44 1054.69 261.853 1054.69 261.064V259.688C1054.4 260.104 1054 260.451 1053.49 260.728C1052.99 261.005 1052.41 261.144 1051.76 261.144C1051.02 261.144 1050.33 260.952 1049.72 260.568C1049.1 260.184 1048.61 259.645 1048.24 258.952C1047.89 258.248 1047.72 257.443 1047.72 256.536C1047.72 255.64 1047.89 254.845 1048.24 254.152C1048.61 253.459 1049.09 252.925 1049.7 252.552C1050.32 252.179 1051.01 251.992 1051.76 251.992ZM1054.69 256.568C1054.69 256.024 1054.58 255.56 1054.37 255.176C1054.16 254.781 1053.87 254.483 1053.51 254.28C1053.14 254.067 1052.76 253.96 1052.34 253.96C1051.92 253.96 1051.54 254.061 1051.19 254.264C1050.84 254.467 1050.55 254.765 1050.32 255.16C1050.11 255.544 1050 256.003 1050 256.536C1050 257.069 1050.11 257.539 1050.32 257.944C1050.55 258.339 1050.84 258.643 1051.19 258.856C1051.55 259.069 1051.93 259.176 1052.34 259.176C1052.76 259.176 1053.14 259.075 1053.51 258.872C1053.87 258.659 1054.16 258.36 1054.37 257.976C1054.58 257.581 1054.69 257.112 1054.69 256.568ZM1063.07 261.144C1062.22 261.144 1061.45 260.957 1060.77 260.584C1060.08 260.2 1059.55 259.661 1059.15 258.968C1058.77 258.275 1058.58 257.475 1058.58 256.568C1058.58 255.661 1058.77 254.861 1059.17 254.168C1059.57 253.475 1060.12 252.941 1060.82 252.568C1061.51 252.184 1062.28 251.992 1063.14 251.992C1063.99 251.992 1064.76 252.184 1065.46 252.568C1066.15 252.941 1066.69 253.475 1067.09 254.168C1067.49 254.861 1067.7 255.661 1067.7 256.568C1067.7 257.475 1067.49 258.275 1067.07 258.968C1066.67 259.661 1066.11 260.2 1065.41 260.584C1064.71 260.957 1063.94 261.144 1063.07 261.144ZM1063.07 259.192C1063.48 259.192 1063.86 259.096 1064.21 258.904C1064.57 258.701 1064.86 258.403 1065.07 258.008C1065.28 257.613 1065.39 257.133 1065.39 256.568C1065.39 255.725 1065.17 255.08 1064.72 254.632C1064.28 254.173 1063.74 253.944 1063.1 253.944C1062.46 253.944 1061.92 254.173 1061.49 254.632C1061.06 255.08 1060.85 255.725 1060.85 256.568C1060.85 257.411 1061.06 258.061 1061.47 258.52C1061.9 258.968 1062.43 259.192 1063.07 259.192ZM1073.24 249.832C1074.42 249.832 1075.45 250.061 1076.33 250.52C1077.23 250.979 1077.91 251.635 1078.39 252.488C1078.89 253.331 1079.13 254.312 1079.13 255.432C1079.13 256.552 1078.89 257.533 1078.39 258.376C1077.91 259.208 1077.23 259.853 1076.33 260.312C1075.45 260.771 1074.42 261 1073.24 261H1069.34V249.832H1073.24ZM1073.16 259.096C1074.34 259.096 1075.24 258.776 1075.88 258.136C1076.52 257.496 1076.84 256.595 1076.84 255.432C1076.84 254.269 1076.52 253.363 1075.88 252.712C1075.24 252.051 1074.34 251.72 1073.16 251.72H1071.58V259.096H1073.16ZM1087.14 255.272C1087.77 255.389 1088.29 255.704 1088.7 256.216C1089.1 256.728 1089.3 257.315 1089.3 257.976C1089.3 258.573 1089.15 259.101 1088.86 259.56C1088.57 260.008 1088.15 260.36 1087.59 260.616C1087.04 260.872 1086.38 261 1085.62 261H1080.81V249.832H1085.42C1086.17 249.832 1086.82 249.955 1087.37 250.2C1087.92 250.445 1088.34 250.787 1088.62 251.224C1088.9 251.661 1089.05 252.157 1089.05 252.712C1089.05 253.363 1088.87 253.907 1088.52 254.344C1088.18 254.781 1087.72 255.091 1087.14 255.272ZM1083.05 254.44H1085.1C1085.63 254.44 1086.04 254.323 1086.33 254.088C1086.62 253.843 1086.76 253.496 1086.76 253.048C1086.76 252.6 1086.62 252.253 1086.33 252.008C1086.04 251.763 1085.63 251.64 1085.1 251.64H1083.05V254.44ZM1085.3 259.176C1085.85 259.176 1086.27 259.048 1086.57 258.792C1086.88 258.536 1087.03 258.173 1087.03 257.704C1087.03 257.224 1086.87 256.851 1086.55 256.584C1086.23 256.307 1085.8 256.168 1085.26 256.168H1083.05V259.176H1085.3Z" fill="white"/>
<path d="M138.061 556.832V564.672C138.061 565.76 137.747 566.608 137.117 567.216C136.488 567.813 135.645 568.112 134.589 568.112C133.523 568.112 132.659 567.803 131.997 567.184C131.347 566.565 131.021 565.701 131.021 564.592H133.261C133.272 565.072 133.384 565.445 133.597 565.712C133.821 565.979 134.141 566.112 134.557 566.112C134.963 566.112 135.272 565.984 135.485 565.728C135.699 565.472 135.805 565.12 135.805 564.672V556.832H138.061ZM147.522 565.872H143.074L142.338 568H139.986L144.002 556.816H146.61L150.626 568H148.258L147.522 565.872ZM146.914 564.08L145.298 559.408L143.682 564.08H146.914ZM162.159 556.832L158.063 568H155.343L151.247 556.832H153.647L156.719 565.712L159.775 556.832H162.159ZM170.35 565.872H165.902L165.166 568H162.814L166.83 556.816H169.438L173.454 568H171.086L170.35 565.872ZM169.742 564.08L168.126 559.408L166.51 564.08H169.742ZM178.812 568.112C178.033 568.112 177.329 567.979 176.7 567.712C176.081 567.445 175.59 567.061 175.228 566.56C174.865 566.059 174.678 565.467 174.668 564.784H177.068C177.1 565.243 177.26 565.605 177.548 565.872C177.846 566.139 178.252 566.272 178.764 566.272C179.286 566.272 179.697 566.149 179.996 565.904C180.294 565.648 180.444 565.317 180.444 564.912C180.444 564.581 180.342 564.309 180.14 564.096C179.937 563.883 179.681 563.717 179.372 563.6C179.073 563.472 178.657 563.333 178.124 563.184C177.398 562.971 176.806 562.763 176.348 562.56C175.9 562.347 175.51 562.032 175.18 561.616C174.86 561.189 174.7 560.624 174.7 559.92C174.7 559.259 174.865 558.683 175.196 558.192C175.526 557.701 175.99 557.328 176.588 557.072C177.185 556.805 177.868 556.672 178.636 556.672C179.788 556.672 180.721 556.955 181.436 557.52C182.161 558.075 182.561 558.853 182.636 559.856H180.172C180.15 559.472 179.985 559.157 179.676 558.912C179.377 558.656 178.977 558.528 178.476 558.528C178.038 558.528 177.686 558.64 177.42 558.864C177.164 559.088 177.036 559.413 177.036 559.84C177.036 560.139 177.132 560.389 177.324 560.592C177.526 560.784 177.772 560.944 178.06 561.072C178.358 561.189 178.774 561.328 179.308 561.488C180.033 561.701 180.625 561.915 181.084 562.128C181.542 562.341 181.937 562.661 182.268 563.088C182.598 563.515 182.764 564.075 182.764 564.768C182.764 565.365 182.609 565.92 182.3 566.432C181.99 566.944 181.537 567.355 180.94 567.664C180.342 567.963 179.633 568.112 178.812 568.112ZM184.162 562.4C184.162 561.301 184.407 560.32 184.898 559.456C185.399 558.581 186.076 557.904 186.93 557.424C187.794 556.933 188.759 556.688 189.826 556.688C191.074 556.688 192.167 557.008 193.106 557.648C194.044 558.288 194.7 559.173 195.074 560.304H192.498C192.242 559.771 191.879 559.371 191.41 559.104C190.951 558.837 190.418 558.704 189.81 558.704C189.159 558.704 188.578 558.859 188.066 559.168C187.564 559.467 187.17 559.893 186.882 560.448C186.604 561.003 186.466 561.653 186.466 562.4C186.466 563.136 186.604 563.787 186.882 564.352C187.17 564.907 187.564 565.339 188.066 565.648C188.578 565.947 189.159 566.096 189.81 566.096C190.418 566.096 190.951 565.963 191.41 565.696C191.879 565.419 192.242 565.013 192.498 564.48H195.074C194.7 565.621 194.044 566.512 193.106 567.152C192.178 567.781 191.084 568.096 189.826 568.096C188.759 568.096 187.794 567.856 186.93 567.376C186.076 566.885 185.399 566.208 184.898 565.344C184.407 564.48 184.162 563.499 184.162 562.4ZM202.747 568L200.283 563.648H199.227V568H196.987V556.832H201.179C202.043 556.832 202.779 556.987 203.387 557.296C203.995 557.595 204.448 558.005 204.747 558.528C205.056 559.04 205.211 559.616 205.211 560.256C205.211 560.992 204.997 561.659 204.571 562.256C204.144 562.843 203.509 563.248 202.667 563.472L205.339 568H202.747ZM199.227 561.968H201.099C201.707 561.968 202.16 561.824 202.459 561.536C202.757 561.237 202.907 560.827 202.907 560.304C202.907 559.792 202.757 559.397 202.459 559.12C202.16 558.832 201.707 558.688 201.099 558.688H199.227V561.968ZM209.477 556.832V568H207.237V556.832H209.477ZM219.834 560.288C219.834 560.885 219.69 561.445 219.402 561.968C219.125 562.491 218.682 562.912 218.074 563.232C217.477 563.552 216.719 563.712 215.802 563.712H213.93V568H211.69V556.832H215.802C216.666 556.832 217.402 556.981 218.01 557.28C218.618 557.579 219.071 557.989 219.37 558.512C219.679 559.035 219.834 559.627 219.834 560.288ZM215.706 561.904C216.325 561.904 216.783 561.765 217.082 561.488C217.381 561.2 217.53 560.8 217.53 560.288C217.53 559.2 216.922 558.656 215.706 558.656H213.93V561.904H215.706ZM229.024 556.832V558.64H226.048V568H223.808V558.64H220.832V556.832H229.024Z" fill="white"/>
<path d="M490.997 443L488.533 438.648H487.477V443H485.237V431.832H489.429C490.293 431.832 491.029 431.987 491.637 432.296C492.245 432.595 492.698 433.005 492.997 433.528C493.306 434.04 493.461 434.616 493.461 435.256C493.461 435.992 493.247 436.659 492.821 437.256C492.394 437.843 491.759 438.248 490.917 438.472L493.589 443H490.997ZM487.477 436.968H489.349C489.957 436.968 490.41 436.824 490.709 436.536C491.007 436.237 491.157 435.827 491.157 435.304C491.157 434.792 491.007 434.397 490.709 434.12C490.41 433.832 489.957 433.688 489.349 433.688H487.477V436.968ZM497.727 433.64V436.44H501.487V438.216H497.727V441.176H501.967V443H495.487V431.816H501.967V433.64H497.727ZM510.85 440.872H506.402L505.666 443H503.314L507.33 431.816H509.938L513.954 443H511.586L510.85 440.872ZM510.242 439.08L508.626 434.408L507.01 439.08H510.242ZM514.912 437.4C514.912 436.301 515.157 435.32 515.648 434.456C516.149 433.581 516.826 432.904 517.68 432.424C518.544 431.933 519.509 431.688 520.576 431.688C521.824 431.688 522.917 432.008 523.856 432.648C524.794 433.288 525.45 434.173 525.824 435.304H523.248C522.992 434.771 522.629 434.371 522.16 434.104C521.701 433.837 521.168 433.704 520.56 433.704C519.909 433.704 519.328 433.859 518.816 434.168C518.314 434.467 517.92 434.893 517.632 435.448C517.354 436.003 517.216 436.653 517.216 437.4C517.216 438.136 517.354 438.787 517.632 439.352C517.92 439.907 518.314 440.339 518.816 440.648C519.328 440.947 519.909 441.096 520.56 441.096C521.168 441.096 521.701 440.963 522.16 440.696C522.629 440.419 522.992 440.013 523.248 439.48H525.824C525.45 440.621 524.794 441.512 523.856 442.152C522.928 442.781 521.834 443.096 520.576 443.096C519.509 443.096 518.544 442.856 517.68 442.376C516.826 441.885 516.149 441.208 515.648 440.344C515.157 439.48 514.912 438.499 514.912 437.4ZM535.337 431.832V433.64H532.361V443H530.121V433.64H527.145V431.832H535.337Z" fill="white"/>
<path d="M814.444 431.112C813.666 431.112 812.962 430.979 812.332 430.712C811.714 430.445 811.223 430.061 810.86 429.56C810.498 429.059 810.311 428.467 810.3 427.784H812.7C812.732 428.243 812.892 428.605 813.18 428.872C813.479 429.139 813.884 429.272 814.396 429.272C814.919 429.272 815.33 429.149 815.628 428.904C815.927 428.648 816.076 428.317 816.076 427.912C816.076 427.581 815.975 427.309 815.772 427.096C815.57 426.883 815.314 426.717 815.004 426.6C814.706 426.472 814.29 426.333 813.756 426.184C813.031 425.971 812.439 425.763 811.98 425.56C811.532 425.347 811.143 425.032 810.812 424.616C810.492 424.189 810.332 423.624 810.332 422.92C810.332 422.259 810.498 421.683 810.828 421.192C811.159 420.701 811.623 420.328 812.22 420.072C812.818 419.805 813.5 419.672 814.268 419.672C815.42 419.672 816.354 419.955 817.068 420.52C817.794 421.075 818.194 421.853 818.268 422.856H815.804C815.783 422.472 815.618 422.157 815.308 421.912C815.01 421.656 814.61 421.528 814.108 421.528C813.671 421.528 813.319 421.64 813.052 421.864C812.796 422.088 812.668 422.413 812.668 422.84C812.668 423.139 812.764 423.389 812.956 423.592C813.159 423.784 813.404 423.944 813.692 424.072C813.991 424.189 814.407 424.328 814.94 424.488C815.666 424.701 816.258 424.915 816.716 425.128C817.175 425.341 817.57 425.661 817.9 426.088C818.231 426.515 818.396 427.075 818.396 427.768C818.396 428.365 818.242 428.92 817.932 429.432C817.623 429.944 817.17 430.355 816.572 430.664C815.975 430.963 815.266 431.112 814.444 431.112ZM825.33 422.008C826.002 422.008 826.6 422.157 827.122 422.456C827.645 422.744 828.05 423.176 828.338 423.752C828.637 424.317 828.786 425 828.786 425.8V431H826.546V426.104C826.546 425.4 826.37 424.861 826.018 424.488C825.666 424.104 825.186 423.912 824.578 423.912C823.96 423.912 823.469 424.104 823.106 424.488C822.754 424.861 822.578 425.4 822.578 426.104V431H820.338V419.16H822.578V423.24C822.866 422.856 823.25 422.557 823.73 422.344C824.21 422.12 824.744 422.008 825.33 422.008ZM834.853 431.144C833.999 431.144 833.231 430.957 832.549 430.584C831.866 430.2 831.327 429.661 830.933 428.968C830.549 428.275 830.357 427.475 830.357 426.568C830.357 425.661 830.554 424.861 830.949 424.168C831.354 423.475 831.903 422.941 832.597 422.568C833.29 422.184 834.063 421.992 834.917 421.992C835.77 421.992 836.543 422.184 837.237 422.568C837.93 422.941 838.474 423.475 838.869 424.168C839.274 424.861 839.477 425.661 839.477 426.568C839.477 427.475 839.269 428.275 838.852 428.968C838.447 429.661 837.893 430.2 837.189 430.584C836.495 430.957 835.717 431.144 834.853 431.144ZM834.853 429.192C835.258 429.192 835.637 429.096 835.989 428.904C836.351 428.701 836.639 428.403 836.853 428.008C837.066 427.613 837.173 427.133 837.173 426.568C837.173 425.725 836.949 425.08 836.501 424.632C836.063 424.173 835.525 423.944 834.885 423.944C834.245 423.944 833.706 424.173 833.269 424.632C832.842 425.08 832.629 425.725 832.629 426.568C832.629 427.411 832.837 428.061 833.253 428.52C833.679 428.968 834.213 429.192 834.853 429.192ZM843.36 423.416C843.648 423.011 844.042 422.675 844.544 422.408C845.056 422.131 845.637 421.992 846.288 421.992C847.045 421.992 847.728 422.179 848.336 422.552C848.954 422.925 849.44 423.459 849.792 424.152C850.154 424.835 850.336 425.629 850.336 426.536C850.336 427.443 850.154 428.248 849.792 428.952C849.44 429.645 848.954 430.184 848.336 430.568C847.728 430.952 847.045 431.144 846.288 431.144C845.637 431.144 845.061 431.011 844.56 430.744C844.069 430.477 843.669 430.141 843.36 429.736V435.224H841.12V422.136H843.36V423.416ZM848.048 426.536C848.048 426.003 847.936 425.544 847.712 425.16C847.498 424.765 847.21 424.467 846.848 424.264C846.496 424.061 846.112 423.96 845.696 423.96C845.29 423.96 844.906 424.067 844.544 424.28C844.192 424.483 843.904 424.781 843.68 425.176C843.466 425.571 843.36 426.035 843.36 426.568C843.36 427.101 843.466 427.565 843.68 427.96C843.904 428.355 844.192 428.659 844.544 428.872C844.906 429.075 845.29 429.176 845.696 429.176C846.112 429.176 846.496 429.069 846.848 428.856C847.21 428.643 847.498 428.339 847.712 427.944C847.936 427.549 848.048 427.08 848.048 426.536ZM853.099 421.08C852.705 421.08 852.374 420.957 852.107 420.712C851.851 420.456 851.723 420.141 851.723 419.768C851.723 419.395 851.851 419.085 852.107 418.84C852.374 418.584 852.705 418.456 853.099 418.456C853.494 418.456 853.819 418.584 854.075 418.84C854.342 419.085 854.475 419.395 854.475 419.768C854.475 420.141 854.342 420.456 854.075 420.712C853.819 420.957 853.494 421.08 853.099 421.08ZM854.203 422.136V431H851.963V422.136H854.203ZM860.481 423.976H858.929V431H856.657V423.976H855.649V422.136H856.657V421.688C856.657 420.6 856.966 419.8 857.585 419.288C858.203 418.776 859.137 418.536 860.385 418.568V420.456C859.841 420.445 859.462 420.536 859.249 420.728C859.035 420.92 858.929 421.267 858.929 421.768V422.136H860.481V423.976ZM870.412 422.136L864.924 435.192H862.54L864.46 430.776L860.908 422.136H863.42L865.708 428.328L868.028 422.136H870.412Z" fill="white"/>
<path d="M342.927 691L340.463 686.648H339.407V691H337.167V679.832H341.359C342.223 679.832 342.959 679.987 343.567 680.296C344.175 680.595 344.628 681.005 344.927 681.528C345.236 682.04 345.391 682.616 345.391 683.256C345.391 683.992 345.177 684.659 344.751 685.256C344.324 685.843 343.689 686.248 342.847 686.472L345.519 691H342.927ZM339.407 684.968H341.279C341.887 684.968 342.34 684.824 342.639 684.536C342.937 684.237 343.087 683.827 343.087 683.304C343.087 682.792 342.937 682.397 342.639 682.12C342.34 681.832 341.887 681.688 341.279 681.688H339.407V684.968ZM346.84 686.536C346.84 685.64 347.016 684.845 347.368 684.152C347.731 683.459 348.217 682.925 348.825 682.552C349.443 682.179 350.131 681.992 350.889 681.992C351.55 681.992 352.126 682.125 352.617 682.392C353.118 682.659 353.518 682.995 353.817 683.4V682.136H356.073V691H353.817V689.704C353.529 690.12 353.129 690.467 352.617 690.744C352.115 691.011 351.534 691.144 350.873 691.144C350.126 691.144 349.443 690.952 348.825 690.568C348.217 690.184 347.731 689.645 347.368 688.952C347.016 688.248 346.84 687.443 346.84 686.536ZM353.817 686.568C353.817 686.024 353.71 685.56 353.497 685.176C353.283 684.781 352.995 684.483 352.633 684.28C352.27 684.067 351.881 683.96 351.465 683.96C351.049 683.96 350.665 684.061 350.312 684.264C349.961 684.467 349.673 684.765 349.449 685.16C349.235 685.544 349.129 686.003 349.129 686.536C349.129 687.069 349.235 687.539 349.449 687.944C349.673 688.339 349.961 688.643 350.312 688.856C350.675 689.069 351.059 689.176 351.465 689.176C351.881 689.176 352.27 689.075 352.633 688.872C352.995 688.659 353.283 688.36 353.497 687.976C353.71 687.581 353.817 687.112 353.817 686.568ZM360.308 689.16H364.26V691H357.764V689.192L361.636 683.976H357.78V682.136H364.212V683.944L360.308 689.16ZM369.931 691.144C369.077 691.144 368.309 690.957 367.627 690.584C366.944 690.2 366.405 689.661 366.011 688.968C365.627 688.275 365.435 687.475 365.435 686.568C365.435 685.661 365.632 684.861 366.027 684.168C366.432 683.475 366.981 682.941 367.675 682.568C368.368 682.184 369.141 681.992 369.995 681.992C370.848 681.992 371.621 682.184 372.315 682.568C373.008 682.941 373.552 683.475 373.947 684.168C374.352 684.861 374.555 685.661 374.555 686.568C374.555 687.475 374.347 688.275 373.931 688.968C373.525 689.661 372.971 690.2 372.267 690.584C371.573 690.957 370.795 691.144 369.931 691.144ZM369.931 689.192C370.336 689.192 370.715 689.096 371.067 688.904C371.429 688.701 371.717 688.403 371.931 688.008C372.144 687.613 372.251 687.133 372.251 686.568C372.251 685.725 372.027 685.08 371.579 684.632C371.141 684.173 370.603 683.944 369.963 683.944C369.323 683.944 368.784 684.173 368.347 684.632C367.92 685.08 367.707 685.725 367.707 686.568C367.707 687.411 367.915 688.061 368.331 688.52C368.757 688.968 369.291 689.192 369.931 689.192ZM378.438 683.512C378.726 683.043 379.099 682.675 379.558 682.408C380.027 682.141 380.56 682.008 381.158 682.008V684.36H380.566C379.862 684.36 379.328 684.525 378.966 684.856C378.614 685.187 378.438 685.763 378.438 686.584V691H376.198V682.136H378.438V683.512ZM384.907 683.416C385.195 683.011 385.589 682.675 386.091 682.408C386.603 682.131 387.184 681.992 387.835 681.992C388.592 681.992 389.275 682.179 389.883 682.552C390.501 682.925 390.987 683.459 391.339 684.152C391.701 684.835 391.883 685.629 391.883 686.536C391.883 687.443 391.701 688.248 391.339 688.952C390.987 689.645 390.501 690.184 389.883 690.568C389.275 690.952 388.592 691.144 387.835 691.144C387.184 691.144 386.608 691.011 386.107 690.744C385.616 690.477 385.216 690.141 384.907 689.736V695.224H382.667V682.136H384.907V683.416ZM389.595 686.536C389.595 686.003 389.483 685.544 389.259 685.16C389.045 684.765 388.757 684.467 388.395 684.264C388.043 684.061 387.659 683.96 387.243 683.96C386.837 683.96 386.453 684.067 386.091 684.28C385.739 684.483 385.451 684.781 385.227 685.176C385.013 685.571 384.907 686.035 384.907 686.568C384.907 687.101 385.013 687.565 385.227 687.96C385.451 688.355 385.739 688.659 386.091 688.872C386.453 689.075 386.837 689.176 387.243 689.176C387.659 689.176 388.043 689.069 388.395 688.856C388.757 688.643 389.045 688.339 389.259 687.944C389.483 687.549 389.595 687.08 389.595 686.536ZM392.934 686.536C392.934 685.64 393.11 684.845 393.462 684.152C393.825 683.459 394.31 682.925 394.918 682.552C395.537 682.179 396.225 681.992 396.982 681.992C397.644 681.992 398.22 682.125 398.71 682.392C399.212 682.659 399.612 682.995 399.91 683.4V682.136H402.166V691H399.91V689.704C399.622 690.12 399.222 690.467 398.71 690.744C398.209 691.011 397.628 691.144 396.966 691.144C396.22 691.144 395.537 690.952 394.918 690.568C394.31 690.184 393.825 689.645 393.462 688.952C393.11 688.248 392.934 687.443 392.934 686.536ZM399.91 686.568C399.91 686.024 399.804 685.56 399.59 685.176C399.377 684.781 399.089 684.483 398.726 684.28C398.364 684.067 397.974 683.96 397.558 683.96C397.142 683.96 396.758 684.061 396.406 684.264C396.054 684.467 395.766 684.765 395.542 685.16C395.329 685.544 395.222 686.003 395.222 686.536C395.222 687.069 395.329 687.539 395.542 687.944C395.766 688.339 396.054 688.643 396.406 688.856C396.769 689.069 397.153 689.176 397.558 689.176C397.974 689.176 398.364 689.075 398.726 688.872C399.089 688.659 399.377 688.36 399.59 687.976C399.804 687.581 399.91 687.112 399.91 686.568ZM412.834 682.136L407.346 695.192H404.962L406.882 690.776L403.33 682.136H405.842L408.13 688.328L410.45 682.136H412.834Z" fill="white"/>
<path d="M672.631 643.288C672.631 643.885 672.487 644.445 672.199 644.968C671.921 645.491 671.479 645.912 670.871 646.232C670.273 646.552 669.516 646.712 668.599 646.712H666.727V651H664.487V639.832H668.599C669.463 639.832 670.199 639.981 670.807 640.28C671.415 640.579 671.868 640.989 672.167 641.512C672.476 642.035 672.631 642.627 672.631 643.288ZM668.503 644.904C669.121 644.904 669.58 644.765 669.879 644.488C670.177 644.2 670.327 643.8 670.327 643.288C670.327 642.2 669.719 641.656 668.503 641.656H666.727V644.904H668.503ZM673.645 646.536C673.645 645.64 673.821 644.845 674.173 644.152C674.536 643.459 675.021 642.925 675.629 642.552C676.248 642.179 676.936 641.992 677.693 641.992C678.355 641.992 678.931 642.125 679.421 642.392C679.923 642.659 680.323 642.995 680.621 643.4V642.136H682.877V651H680.621V649.704C680.333 650.12 679.933 650.467 679.421 650.744C678.92 651.011 678.339 651.144 677.677 651.144C676.931 651.144 676.248 650.952 675.629 650.568C675.021 650.184 674.536 649.645 674.173 648.952C673.821 648.248 673.645 647.443 673.645 646.536ZM680.621 646.568C680.621 646.024 680.515 645.56 680.301 645.176C680.088 644.781 679.8 644.483 679.437 644.28C679.075 644.067 678.685 643.96 678.269 643.96C677.853 643.96 677.469 644.061 677.117 644.264C676.765 644.467 676.477 644.765 676.253 645.16C676.04 645.544 675.933 646.003 675.933 646.536C675.933 647.069 676.04 647.539 676.253 647.944C676.477 648.339 676.765 648.643 677.117 648.856C677.48 649.069 677.864 649.176 678.269 649.176C678.685 649.176 679.075 649.075 679.437 648.872C679.8 648.659 680.088 648.36 680.301 647.976C680.515 647.581 680.621 647.112 680.621 646.568ZM693.545 642.136L688.057 655.192H685.673L687.593 650.776L684.041 642.136H686.553L688.841 648.328L691.161 642.136H693.545ZM697.36 643.976V648.264C697.36 648.563 697.43 648.781 697.568 648.92C697.718 649.048 697.963 649.112 698.304 649.112H699.344V651H697.936C696.048 651 695.104 650.083 695.104 648.248V643.976H694.048V642.136H695.104V639.944H697.36V642.136H699.344V643.976H697.36ZM711.964 642.008C713.052 642.008 713.926 642.344 714.588 643.016C715.26 643.677 715.596 644.605 715.596 645.8V651H713.356V646.104C713.356 645.411 713.18 644.883 712.828 644.52C712.476 644.147 711.996 643.96 711.388 643.96C710.78 643.96 710.294 644.147 709.932 644.52C709.58 644.883 709.404 645.411 709.404 646.104V651H707.164V646.104C707.164 645.411 706.988 644.883 706.636 644.52C706.284 644.147 705.804 643.96 705.196 643.96C704.577 643.96 704.086 644.147 703.724 644.52C703.372 644.883 703.196 645.411 703.196 646.104V651H700.956V642.136H703.196V643.208C703.484 642.835 703.852 642.541 704.3 642.328C704.758 642.115 705.26 642.008 705.804 642.008C706.497 642.008 707.116 642.157 707.66 642.456C708.204 642.744 708.625 643.16 708.924 643.704C709.212 643.192 709.628 642.781 710.172 642.472C710.726 642.163 711.324 642.008 711.964 642.008Z" fill="white"/>
<path d="M974.554 675H972.314L967.242 667.336V675H965.002V663.816H967.242L972.314 671.496V663.816H974.554V675ZM980.704 675.144C979.851 675.144 979.083 674.957 978.4 674.584C977.717 674.2 977.179 673.661 976.784 672.968C976.4 672.275 976.208 671.475 976.208 670.568C976.208 669.661 976.405 668.861 976.8 668.168C977.205 667.475 977.755 666.941 978.448 666.568C979.141 666.184 979.915 665.992 980.768 665.992C981.621 665.992 982.395 666.184 983.088 666.568C983.781 666.941 984.325 667.475 984.72 668.168C985.125 668.861 985.328 669.661 985.328 670.568C985.328 671.475 985.12 672.275 984.704 672.968C984.299 673.661 983.744 674.2 983.04 674.584C982.347 674.957 981.568 675.144 980.704 675.144ZM980.704 673.192C981.109 673.192 981.488 673.096 981.84 672.904C982.203 672.701 982.491 672.403 982.704 672.008C982.917 671.613 983.024 671.133 983.024 670.568C983.024 669.725 982.8 669.08 982.352 668.632C981.915 668.173 981.376 667.944 980.736 667.944C980.096 667.944 979.557 668.173 979.12 668.632C978.693 669.08 978.48 669.725 978.48 670.568C978.48 671.411 978.688 672.061 979.104 672.52C979.531 672.968 980.064 673.192 980.704 673.192ZM986.395 670.536C986.395 669.64 986.571 668.845 986.923 668.152C987.286 667.459 987.777 666.925 988.395 666.552C989.014 666.179 989.702 665.992 990.459 665.992C991.035 665.992 991.585 666.12 992.107 666.376C992.63 666.621 993.046 666.952 993.355 667.368V663.16H995.627V675H993.355V673.688C993.078 674.125 992.689 674.477 992.187 674.744C991.686 675.011 991.105 675.144 990.443 675.144C989.697 675.144 989.014 674.952 988.395 674.568C987.777 674.184 987.286 673.645 986.923 672.952C986.571 672.248 986.395 671.443 986.395 670.536ZM993.371 670.568C993.371 670.024 993.265 669.56 993.051 669.176C992.838 668.781 992.55 668.483 992.187 668.28C991.825 668.067 991.435 667.96 991.019 667.96C990.603 667.96 990.219 668.061 989.867 668.264C989.515 668.467 989.227 668.765 989.003 669.16C988.79 669.544 988.683 670.003 988.683 670.536C988.683 671.069 988.79 671.539 989.003 671.944C989.227 672.339 989.515 672.643 989.867 672.856C990.23 673.069 990.614 673.176 991.019 673.176C991.435 673.176 991.825 673.075 992.187 672.872C992.55 672.659 992.838 672.36 993.051 671.976C993.265 671.581 993.371 671.112 993.371 670.568ZM1006.05 670.376C1006.05 670.696 1006.03 670.984 1005.99 671.24H999.511C999.564 671.88 999.788 672.381 1000.18 672.744C1000.58 673.107 1001.06 673.288 1001.64 673.288C1002.47 673.288 1003.06 672.931 1003.41 672.216H1005.83C1005.57 673.069 1005.08 673.773 1004.36 674.328C1003.63 674.872 1002.74 675.144 1001.69 675.144C1000.83 675.144 1000.07 674.957 999.383 674.584C998.711 674.2 998.183 673.661 997.799 672.968C997.426 672.275 997.239 671.475 997.239 670.568C997.239 669.651 997.426 668.845 997.799 668.152C998.172 667.459 998.695 666.925 999.367 666.552C1000.04 666.179 1000.81 665.992 1001.69 665.992C1002.53 665.992 1003.28 666.173 1003.94 666.536C1004.61 666.899 1005.13 667.416 1005.49 668.088C1005.87 668.749 1006.05 669.512 1006.05 670.376ZM1003.73 669.736C1003.72 669.16 1003.52 668.701 1003.11 668.36C1002.71 668.008 1002.21 667.832 1001.62 667.832C1001.07 667.832 1000.6 668.003 1000.21 668.344C999.842 668.675 999.612 669.139 999.527 669.736H1003.73ZM1008.68 675.112C1008.28 675.112 1007.94 674.989 1007.67 674.744C1007.42 674.488 1007.29 674.173 1007.29 673.8C1007.29 673.427 1007.42 673.117 1007.67 672.872C1007.94 672.616 1008.28 672.488 1008.68 672.488C1009.08 672.488 1009.4 672.616 1009.66 672.872C1009.91 673.117 1010.04 673.427 1010.04 673.8C1010.04 674.173 1009.91 674.488 1009.66 674.744C1009.4 674.989 1009.08 675.112 1008.68 675.112ZM1012.98 665.08C1012.58 665.08 1012.24 664.957 1011.97 664.712C1011.72 664.456 1011.59 664.141 1011.59 663.768C1011.59 663.395 1011.72 663.085 1011.97 662.84C1012.24 662.584 1012.58 662.456 1012.98 662.456C1013.38 662.456 1013.7 662.584 1013.96 662.84C1014.21 663.085 1014.34 663.395 1014.34 663.768C1014.34 664.141 1014.21 664.456 1013.96 664.712C1013.7 664.957 1013.38 665.08 1012.98 665.08ZM1014.09 676.456C1014.09 677.437 1013.84 678.141 1013.35 678.568C1012.87 679.005 1012.18 679.224 1011.27 679.224H1010.28V677.32H1010.92C1011.26 677.32 1011.5 677.251 1011.64 677.112C1011.78 676.984 1011.85 676.771 1011.85 676.472V666.136H1014.09V676.456ZM1019.69 675.144C1018.97 675.144 1018.32 675.016 1017.74 674.76C1017.16 674.493 1016.7 674.136 1016.36 673.688C1016.03 673.24 1015.85 672.744 1015.82 672.2H1018.08C1018.12 672.541 1018.28 672.824 1018.57 673.048C1018.87 673.272 1019.24 673.384 1019.68 673.384C1020.1 673.384 1020.43 673.299 1020.67 673.128C1020.91 672.957 1021.04 672.739 1021.04 672.472C1021.04 672.184 1020.89 671.971 1020.59 671.832C1020.3 671.683 1019.84 671.523 1019.2 671.352C1018.53 671.192 1017.99 671.027 1017.56 670.856C1017.15 670.685 1016.78 670.424 1016.48 670.072C1016.18 669.72 1016.03 669.245 1016.03 668.648C1016.03 668.157 1016.17 667.709 1016.44 667.304C1016.73 666.899 1017.14 666.579 1017.66 666.344C1018.19 666.109 1018.82 665.992 1019.53 665.992C1020.59 665.992 1021.43 666.259 1022.06 666.792C1022.69 667.315 1023.04 668.024 1023.1 668.92H1020.96C1020.92 668.568 1020.77 668.291 1020.51 668.088C1020.25 667.875 1019.9 667.768 1019.47 667.768C1019.06 667.768 1018.75 667.843 1018.52 667.992C1018.31 668.141 1018.2 668.349 1018.2 668.616C1018.2 668.915 1018.35 669.144 1018.65 669.304C1018.95 669.453 1019.41 669.608 1020.04 669.768C1020.68 669.928 1021.21 670.093 1021.63 670.264C1022.04 670.435 1022.4 670.701 1022.7 671.064C1023.01 671.416 1023.17 671.885 1023.18 672.472C1023.18 672.984 1023.04 673.443 1022.75 673.848C1022.47 674.253 1022.06 674.573 1021.53 674.808C1021.01 675.032 1020.4 675.144 1019.69 675.144Z" fill="white"/>
<rect x="1134" y="353" width="140" height="140" rx="70" fill="#F3F3F3"/>
<g clip-path="url(#clip7_1595_36)">
<path d="M1237.53 383H1222.96C1219.44 383 1216.54 385.895 1216.54 389.421V408.263H1195.46C1192.04 408.263 1189.25 411.053 1189.25 414.526V435.632H1170.27C1166.8 435.632 1164.01 438.421 1164.01 441.895V456.632C1164.01 460.105 1166.8 462.895 1170.27 463H1237.58C1241.1 463 1244 460.105 1244 456.579V389.421C1243.94 385.895 1241.05 383 1237.53 383Z" fill="url(#paint8_linear_1595_36)"/>
<path d="M1237.53 383H1222.96C1219.44 383 1216.54 385.895 1216.54 389.421V408.263H1195.46C1192.04 408.263 1189.25 411.053 1189.25 414.526V435.632H1170.27C1166.8 435.632 1164.01 438.421 1164.01 441.895V456.632C1164.01 460.105 1166.8 462.895 1170.27 463H1237.58C1241.1 463 1244 460.105 1244 456.579V389.421C1243.94 385.895 1241.05 383 1237.53 383Z" fill="url(#paint9_linear_1595_36)"/>
<mask id="mask2_1595_36" style="mask-type:luminance" maskUnits="userSpaceOnUse" x="1164" y="383" width="80" height="80">
<path d="M1237.53 383H1223.07C1219.54 383 1216.65 385.895 1216.65 389.421V408.263H1195.61C1192.14 408.263 1189.3 411.105 1189.3 414.579V435.632H1170.32C1166.85 435.632 1164.01 438.474 1164.01 441.947V456.684C1164.01 460.158 1166.85 463 1170.32 463H1237.53C1241.05 463 1243.94 460.105 1243.94 456.579V389.421C1243.94 385.895 1241.05 383 1237.53 383Z" fill="white"/>
</mask>
<g mask="url(#mask2_1595_36)">
<path d="M1237.53 383H1223.06C1219.54 383 1216.65 385.895 1216.65 389.421V463H1237.53C1241.05 463 1243.94 460.105 1243.94 456.579V389.421C1243.94 385.895 1241.05 383 1237.53 383Z" fill="#F57C00"/>
<path d="M1189.25 414.578V435.631H1170.32C1166.85 435.631 1164.01 438.473 1164.01 441.947V456.684C1164.01 460.157 1166.85 463 1170.32 463H1216.6V408.263H1195.56C1192.09 408.263 1189.25 411.105 1189.25 414.578Z" fill="#FFC107"/>
</g>
<mask id="mask3_1595_36" style="mask-type:luminance" maskUnits="userSpaceOnUse" x="1164" y="383" width="80" height="80">
<path d="M1237.53 383H1223.07C1219.54 383 1216.65 385.895 1216.65 389.421V408.263H1195.61C1192.14 408.263 1189.3 411.105 1189.3 414.579V435.632H1170.32C1166.85 435.632 1164.01 438.474 1164.01 441.947V456.684C1164.01 460.158 1166.85 463 1170.32 463H1237.53C1241.05 463 1243.94 460.105 1243.94 456.579V389.421C1243.94 385.895 1241.05 383 1237.53 383Z" fill="white"/>
</mask>
<g mask="url(#mask3_1595_36)">
<path d="M1216.59 408.263V463H1237.47C1241 463 1243.89 460.105 1243.89 456.578V435.631L1216.59 408.263Z" fill="url(#paint10_linear_1595_36)"/>
</g>
<mask id="mask4_1595_36" style="mask-type:luminance" maskUnits="userSpaceOnUse" x="1164" y="383" width="80" height="80">
<path d="M1237.53 383H1223.07C1219.54 383 1216.65 385.895 1216.65 389.421V408.263H1195.61C1192.14 408.263 1189.3 411.105 1189.3 414.579V435.632H1170.32C1166.85 435.632 1164.01 438.474 1164.01 441.947V456.684C1164.01 460.158 1166.85 463 1170.32 463H1237.53C1241.05 463 1243.94 460.105 1243.94 456.579V389.421C1243.94 385.895 1241.05 383 1237.53 383Z" fill="white"/>
</mask>
<g mask="url(#mask4_1595_36)">
<path opacity="0.2" d="M1195.56 408.789H1216.6V408.263H1195.56C1192.09 408.263 1189.25 411.105 1189.25 414.578V415.105C1189.25 411.631 1192.09 408.789 1195.56 408.789Z" fill="white"/>
</g>
<mask id="mask5_1595_36" style="mask-type:luminance" maskUnits="userSpaceOnUse" x="1164" y="383" width="80" height="80">
<path d="M1237.53 383H1223.07C1219.54 383 1216.65 385.895 1216.65 389.421V408.263H1195.61C1192.14 408.263 1189.3 411.105 1189.3 414.579V435.632H1170.32C1166.85 435.632 1164.01 438.474 1164.01 441.947V456.684C1164.01 460.158 1166.85 463 1170.32 463H1237.53C1241.05 463 1243.94 460.105 1243.94 456.579V389.421C1243.94 385.895 1241.05 383 1237.53 383Z" fill="white"/>
</mask>
<g mask="url(#mask5_1595_36)">
<path opacity="0.2" d="M1170.32 436.158H1189.25V435.632H1170.32C1166.85 435.632 1164.01 438.474 1164.01 441.948V442.474C1164.01 439 1166.85 436.158 1170.32 436.158Z" fill="white"/>
</g>
<mask id="mask6_1595_36" style="mask-type:luminance" maskUnits="userSpaceOnUse" x="1164" y="383" width="80" height="80">
<path d="M1237.53 383H1223.07C1219.54 383 1216.65 385.895 1216.65 389.421V408.263H1195.61C1192.14 408.263 1189.3 411.105 1189.3 414.579V435.632H1170.32C1166.85 435.632 1164.01 438.474 1164.01 441.947V456.684C1164.01 460.158 1166.85 463 1170.32 463H1237.53C1241.05 463 1243.94 460.105 1243.94 456.579V389.421C1243.94 385.895 1241.05 383 1237.53 383Z" fill="white"/>
</mask>
<g mask="url(#mask6_1595_36)">
<path opacity="0.2" d="M1237.53 383H1223.06C1219.54 383 1216.65 385.895 1216.65 389.421V389.947C1216.65 386.421 1219.54 383.526 1223.06 383.526H1237.53C1241.05 383.526 1243.94 386.421 1243.94 389.947V389.421C1243.94 385.895 1241.05 383 1237.53 383Z" fill="white"/>
</g>
<mask id="mask7_1595_36" style="mask-type:luminance" maskUnits="userSpaceOnUse" x="1164" y="383" width="80" height="80">
<path d="M1237.53 383H1223.07C1219.54 383 1216.65 385.895 1216.65 389.421V408.263H1195.61C1192.14 408.263 1189.3 411.105 1189.3 414.579V435.632H1170.32C1166.85 435.632 1164.01 438.474 1164.01 441.947V456.684C1164.01 460.158 1166.85 463 1170.32 463H1237.53C1241.05 463 1243.94 460.105 1243.94 456.579V389.421C1243.94 385.895 1241.05 383 1237.53 383Z" fill="white"/>
</mask>
<g mask="url(#mask7_1595_36)">
<path opacity="0.2" d="M1237.53 462.474H1170.32C1166.85 462.474 1164.01 459.632 1164.01 456.158V456.684C1164.01 460.158 1166.85 463 1170.32 463H1237.48C1241 463 1243.89 460.105 1243.89 456.579V456.053C1243.94 459.579 1241.05 462.474 1237.53 462.474Z" fill="#BF360C"/>
</g>
<path d="M1237.53 383H1223.07C1219.54 383 1216.65 385.895 1216.65 389.421V408.263H1195.61C1192.14 408.263 1189.3 411.105 1189.3 414.579V435.632H1170.32C1166.85 435.632 1164.01 438.474 1164.01 441.947V456.684C1164.01 460.158 1166.85 463 1170.32 463H1237.53C1241.05 463 1243.94 460.105 1243.94 456.579V389.421C1243.94 385.895 1241.05 383 1237.53 383Z" fill="url(#paint11_linear_1595_36)"/>
</g>
<path d="M1139.04 525.192C1138.78 524.723 1138.43 524.365 1137.98 524.12C1137.53 523.875 1137.01 523.752 1136.41 523.752C1135.75 523.752 1135.16 523.901 1134.65 524.2C1134.14 524.499 1133.74 524.925 1133.45 525.48C1133.16 526.035 1133.02 526.675 1133.02 527.4C1133.02 528.147 1133.16 528.797 1133.45 529.352C1133.75 529.907 1134.16 530.333 1134.68 530.632C1135.21 530.931 1135.81 531.08 1136.51 531.08C1137.36 531.08 1138.06 530.856 1138.6 530.408C1139.15 529.949 1139.51 529.315 1139.68 528.504H1135.84V526.792H1141.88V528.744C1141.73 529.523 1141.41 530.243 1140.92 530.904C1140.43 531.565 1139.8 532.099 1139.02 532.504C1138.25 532.899 1137.39 533.096 1136.43 533.096C1135.35 533.096 1134.37 532.856 1133.5 532.376C1132.64 531.885 1131.95 531.208 1131.45 530.344C1130.96 529.48 1130.72 528.499 1130.72 527.4C1130.72 526.301 1130.96 525.32 1131.45 524.456C1131.95 523.581 1132.64 522.904 1133.5 522.424C1134.37 521.933 1135.35 521.688 1136.41 521.688C1137.67 521.688 1138.76 521.997 1139.69 522.616C1140.62 523.224 1141.26 524.083 1141.61 525.192H1139.04ZM1147.48 533.144C1146.62 533.144 1145.86 532.957 1145.17 532.584C1144.49 532.2 1143.95 531.661 1143.56 530.968C1143.17 530.275 1142.98 529.475 1142.98 528.568C1142.98 527.661 1143.18 526.861 1143.57 526.168C1143.98 525.475 1144.53 524.941 1145.22 524.568C1145.91 524.184 1146.69 523.992 1147.54 523.992C1148.39 523.992 1149.17 524.184 1149.86 524.568C1150.55 524.941 1151.1 525.475 1151.49 526.168C1151.9 526.861 1152.1 527.661 1152.1 528.568C1152.1 529.475 1151.89 530.275 1151.48 530.968C1151.07 531.661 1150.52 532.2 1149.81 532.584C1149.12 532.957 1148.34 533.144 1147.48 533.144ZM1147.48 531.192C1147.88 531.192 1148.26 531.096 1148.61 530.904C1148.98 530.701 1149.26 530.403 1149.48 530.008C1149.69 529.613 1149.8 529.133 1149.8 528.568C1149.8 527.725 1149.57 527.08 1149.13 526.632C1148.69 526.173 1148.15 525.944 1147.51 525.944C1146.87 525.944 1146.33 526.173 1145.89 526.632C1145.47 527.08 1145.25 527.725 1145.25 528.568C1145.25 529.411 1145.46 530.061 1145.88 530.52C1146.3 530.968 1146.84 531.192 1147.48 531.192ZM1157.68 533.144C1156.83 533.144 1156.06 532.957 1155.38 532.584C1154.69 532.2 1154.16 531.661 1153.76 530.968C1153.38 530.275 1153.18 529.475 1153.18 528.568C1153.18 527.661 1153.38 526.861 1153.78 526.168C1154.18 525.475 1154.73 524.941 1155.42 524.568C1156.12 524.184 1156.89 523.992 1157.74 523.992C1158.6 523.992 1159.37 524.184 1160.06 524.568C1160.76 524.941 1161.3 525.475 1161.7 526.168C1162.1 526.861 1162.3 527.661 1162.3 528.568C1162.3 529.475 1162.1 530.275 1161.68 530.968C1161.28 531.661 1160.72 532.2 1160.02 532.584C1159.32 532.957 1158.54 533.144 1157.68 533.144ZM1157.68 531.192C1158.09 531.192 1158.46 531.096 1158.82 530.904C1159.18 530.701 1159.47 530.403 1159.68 530.008C1159.89 529.613 1160 529.133 1160 528.568C1160 527.725 1159.78 527.08 1159.33 526.632C1158.89 526.173 1158.35 525.944 1157.71 525.944C1157.07 525.944 1156.53 526.173 1156.1 526.632C1155.67 527.08 1155.46 527.725 1155.46 528.568C1155.46 529.411 1155.66 530.061 1156.08 530.52C1156.51 530.968 1157.04 531.192 1157.68 531.192ZM1167.42 523.992C1168.08 523.992 1168.66 524.125 1169.16 524.392C1169.67 524.648 1170.06 524.984 1170.35 525.4V524.136H1172.6V533.064C1172.6 533.885 1172.44 534.616 1172.11 535.256C1171.78 535.907 1171.28 536.419 1170.62 536.792C1169.96 537.176 1169.16 537.368 1168.22 537.368C1166.96 537.368 1165.93 537.075 1165.12 536.488C1164.32 535.901 1163.86 535.101 1163.76 534.088H1165.98C1166.1 534.493 1166.35 534.813 1166.73 535.048C1167.13 535.293 1167.6 535.416 1168.16 535.416C1168.81 535.416 1169.33 535.219 1169.74 534.824C1170.15 534.44 1170.35 533.853 1170.35 533.064V531.688C1170.06 532.104 1169.66 532.451 1169.15 532.728C1168.65 533.005 1168.07 533.144 1167.42 533.144C1166.67 533.144 1165.99 532.952 1165.37 532.568C1164.75 532.184 1164.26 531.645 1163.9 530.952C1163.55 530.248 1163.37 529.443 1163.37 528.536C1163.37 527.64 1163.55 526.845 1163.9 526.152C1164.26 525.459 1164.75 524.925 1165.36 524.552C1165.97 524.179 1166.66 523.992 1167.42 523.992ZM1170.35 528.568C1170.35 528.024 1170.24 527.56 1170.03 527.176C1169.81 526.781 1169.53 526.483 1169.16 526.28C1168.8 526.067 1168.41 525.96 1168 525.96C1167.58 525.96 1167.2 526.061 1166.84 526.264C1166.49 526.467 1166.2 526.765 1165.98 527.16C1165.77 527.544 1165.66 528.003 1165.66 528.536C1165.66 529.069 1165.77 529.539 1165.98 529.944C1166.2 530.339 1166.49 530.643 1166.84 530.856C1167.21 531.069 1167.59 531.176 1168 531.176C1168.41 531.176 1168.8 531.075 1169.16 530.872C1169.53 530.659 1169.81 530.36 1170.03 529.976C1170.24 529.581 1170.35 529.112 1170.35 528.568ZM1177.03 521.16V533H1174.79V521.16H1177.03ZM1187.48 528.376C1187.48 528.696 1187.46 528.984 1187.42 529.24H1180.94C1180.99 529.88 1181.22 530.381 1181.61 530.744C1182.01 531.107 1182.49 531.288 1183.07 531.288C1183.9 531.288 1184.49 530.931 1184.84 530.216H1187.26C1187 531.069 1186.51 531.773 1185.79 532.328C1185.06 532.872 1184.17 533.144 1183.12 533.144C1182.26 533.144 1181.5 532.957 1180.81 532.584C1180.14 532.2 1179.61 531.661 1179.23 530.968C1178.86 530.275 1178.67 529.475 1178.67 528.568C1178.67 527.651 1178.86 526.845 1179.23 526.152C1179.6 525.459 1180.12 524.925 1180.8 524.552C1181.47 524.179 1182.24 523.992 1183.12 523.992C1183.96 523.992 1184.71 524.173 1185.37 524.536C1186.04 524.899 1186.56 525.416 1186.92 526.088C1187.3 526.749 1187.48 527.512 1187.48 528.376ZM1185.16 527.736C1185.15 527.16 1184.95 526.701 1184.54 526.36C1184.14 526.008 1183.64 525.832 1183.05 525.832C1182.5 525.832 1182.03 526.003 1181.64 526.344C1181.27 526.675 1181.04 527.139 1180.96 527.736H1185.16ZM1199.78 530.872H1195.33L1194.6 533H1192.24L1196.26 521.816H1198.87L1202.88 533H1200.52L1199.78 530.872ZM1199.17 529.08L1197.56 524.408L1195.94 529.08H1199.17ZM1209.3 524.008C1210.35 524.008 1211.21 524.344 1211.86 525.016C1212.51 525.677 1212.83 526.605 1212.83 527.8V533H1210.59V528.104C1210.59 527.4 1210.42 526.861 1210.07 526.488C1209.71 526.104 1209.23 525.912 1208.63 525.912C1208.01 525.912 1207.52 526.104 1207.15 526.488C1206.8 526.861 1206.63 527.4 1206.63 528.104V533H1204.39V524.136H1206.63V525.24C1206.92 524.856 1207.3 524.557 1207.76 524.344C1208.23 524.12 1208.74 524.008 1209.3 524.008ZM1214.39 528.536C1214.39 527.64 1214.56 526.845 1214.92 526.152C1215.28 525.459 1215.76 524.925 1216.37 524.552C1216.99 524.179 1217.68 523.992 1218.44 523.992C1219.1 523.992 1219.67 524.125 1220.16 524.392C1220.66 524.659 1221.06 524.995 1221.36 525.4V524.136H1223.62V533H1221.36V531.704C1221.08 532.12 1220.68 532.467 1220.16 532.744C1219.66 533.011 1219.08 533.144 1218.42 533.144C1217.67 533.144 1216.99 532.952 1216.37 532.568C1215.76 532.184 1215.28 531.645 1214.92 530.952C1214.56 530.248 1214.39 529.443 1214.39 528.536ZM1221.36 528.568C1221.36 528.024 1221.26 527.56 1221.04 527.176C1220.83 526.781 1220.54 526.483 1220.18 526.28C1219.82 526.067 1219.43 525.96 1219.01 525.96C1218.6 525.96 1218.21 526.061 1217.86 526.264C1217.51 526.467 1217.22 526.765 1217 527.16C1216.78 527.544 1216.68 528.003 1216.68 528.536C1216.68 529.069 1216.78 529.539 1217 529.944C1217.22 530.339 1217.51 530.643 1217.86 530.856C1218.22 531.069 1218.61 531.176 1219.01 531.176C1219.43 531.176 1219.82 531.075 1220.18 530.872C1220.54 530.659 1220.83 530.36 1221.04 529.976C1221.26 529.581 1221.36 529.112 1221.36 528.568ZM1228.05 521.16V533H1225.81V521.16H1228.05ZM1238.74 524.136L1233.25 537.192H1230.87L1232.79 532.776L1229.24 524.136H1231.75L1234.04 530.328L1236.36 524.136H1238.74ZM1242.56 525.976V530.264C1242.56 530.563 1242.63 530.781 1242.76 530.92C1242.91 531.048 1243.16 531.112 1243.5 531.112H1244.54V533H1243.13C1241.24 533 1240.3 532.083 1240.3 530.248V525.976H1239.24V524.136H1240.3V521.944H1242.56V524.136H1244.54V525.976H1242.56ZM1247.29 523.08C1246.89 523.08 1246.56 522.957 1246.29 522.712C1246.04 522.456 1245.91 522.141 1245.91 521.768C1245.91 521.395 1246.04 521.085 1246.29 520.84C1246.56 520.584 1246.89 520.456 1247.29 520.456C1247.68 520.456 1248.01 520.584 1248.26 520.84C1248.53 521.085 1248.66 521.395 1248.66 521.768C1248.66 522.141 1248.53 522.456 1248.26 522.712C1248.01 522.957 1247.68 523.08 1247.29 523.08ZM1248.39 524.136V533H1246.15V524.136H1248.39ZM1250.03 528.568C1250.03 527.651 1250.21 526.851 1250.59 526.168C1250.96 525.475 1251.48 524.941 1252.14 524.568C1252.8 524.184 1253.56 523.992 1254.41 523.992C1255.51 523.992 1256.42 524.269 1257.13 524.824C1257.86 525.368 1258.34 526.136 1258.59 527.128H1256.17C1256.04 526.744 1255.83 526.445 1255.52 526.232C1255.22 526.008 1254.84 525.896 1254.4 525.896C1253.76 525.896 1253.25 526.131 1252.88 526.6C1252.5 527.059 1252.32 527.715 1252.32 528.568C1252.32 529.411 1252.5 530.067 1252.88 530.536C1253.25 530.995 1253.76 531.224 1254.4 531.224C1255.3 531.224 1255.89 530.819 1256.17 530.008H1258.59C1258.34 530.968 1257.86 531.731 1257.13 532.296C1256.41 532.861 1255.5 533.144 1254.41 533.144C1253.56 533.144 1252.8 532.957 1252.14 532.584C1251.48 532.2 1250.96 531.667 1250.59 530.984C1250.21 530.291 1250.03 529.485 1250.03 528.568ZM1263.62 533.144C1262.9 533.144 1262.25 533.016 1261.67 532.76C1261.09 532.493 1260.63 532.136 1260.29 531.688C1259.96 531.24 1259.78 530.744 1259.75 530.2H1262.01C1262.05 530.541 1262.21 530.824 1262.5 531.048C1262.8 531.272 1263.17 531.384 1263.61 531.384C1264.03 531.384 1264.36 531.299 1264.6 531.128C1264.84 530.957 1264.97 530.739 1264.97 530.472C1264.97 530.184 1264.82 529.971 1264.52 529.832C1264.23 529.683 1263.77 529.523 1263.12 529.352C1262.46 529.192 1261.92 529.027 1261.49 528.856C1261.08 528.685 1260.71 528.424 1260.41 528.072C1260.11 527.72 1259.96 527.245 1259.96 526.648C1259.96 526.157 1260.1 525.709 1260.37 525.304C1260.66 524.899 1261.07 524.579 1261.59 524.344C1262.12 524.109 1262.75 523.992 1263.46 523.992C1264.52 523.992 1265.36 524.259 1265.99 524.792C1266.62 525.315 1266.97 526.024 1267.03 526.92H1264.89C1264.85 526.568 1264.7 526.291 1264.44 526.088C1264.18 525.875 1263.83 525.768 1263.4 525.768C1262.99 525.768 1262.68 525.843 1262.45 525.992C1262.24 526.141 1262.13 526.349 1262.13 526.616C1262.13 526.915 1262.28 527.144 1262.58 527.304C1262.88 527.453 1263.34 527.608 1263.97 527.768C1264.61 527.928 1265.14 528.093 1265.56 528.264C1265.97 528.435 1266.33 528.701 1266.63 529.064C1266.94 529.416 1267.1 529.885 1267.11 530.472C1267.11 530.984 1266.97 531.443 1266.68 531.848C1266.4 532.253 1265.99 532.573 1265.46 532.808C1264.94 533.032 1264.33 533.144 1263.62 533.144Z" fill="white"/>
</g>
<defs>
<linearGradient id="paint0_linear_1595_36" x1="720" y1="117" x2="720" y2="459" gradientUnits="userSpaceOnUse">
<stop stop-color="#E5E5E5"/>
<stop offset="1" stop-color="white" stop-opacity="0"/>
</linearGradient>
<linearGradient id="paint1_linear_1595_36" x1="720" y1="307" x2="720" y2="628" gradientUnits="userSpaceOnUse">
<stop stop-color="#E5E5E5"/>
<stop offset="1" stop-color="white" stop-opacity="0"/>
</linearGradient>
<linearGradient id="paint2_linear_1595_36" x1="720" y1="536" x2="720" y2="810.5" gradientUnits="userSpaceOnUse">
<stop stop-color="#E5E5E5"/>
<stop offset="1" stop-color="white" stop-opacity="0"/>
</linearGradient>
<linearGradient id="paint3_linear_1595_36" x1="2134.08" y1="888.55" x2="1302.22" y2="2197.14" gradientUnits="userSpaceOnUse">
<stop stop-color="#41873F"/>
<stop offset="0.3288" stop-color="#418B3D"/>
<stop offset="0.6352" stop-color="#419637"/>
<stop offset="0.9319" stop-color="#3FA92D"/>
<stop offset="1" stop-color="#3FAE2A"/>
</linearGradient>
<linearGradient id="paint4_linear_1595_36" x1="1692.88" y1="1618.38" x2="3778.54" y2="483.943" gradientUnits="userSpaceOnUse">
<stop offset="0.1376" stop-color="#41873F"/>
<stop offset="0.4032" stop-color="#54A044"/>
<stop offset="0.7136" stop-color="#66B848"/>
<stop offset="0.9081" stop-color="#6CC04A"/>
</linearGradient>
<linearGradient id="paint5_linear_1595_36" x1="900.566" y1="1518.94" x2="2659.58" y2="1518.94" gradientUnits="userSpaceOnUse">
<stop offset="0.09192" stop-color="#6CC04A"/>
<stop offset="0.2864" stop-color="#66B848"/>
<stop offset="0.5968" stop-color="#54A044"/>
<stop offset="0.8624" stop-color="#41873F"/>
</linearGradient>
<linearGradient id="paint6_linear_1595_36" x1="89.0075" y1="833.252" x2="1848" y2="833.252" gradientUnits="userSpaceOnUse">
<stop offset="0.09192" stop-color="#6CC04A"/>
<stop offset="0.2864" stop-color="#66B848"/>
<stop offset="0.5968" stop-color="#54A044"/>
<stop offset="0.8624" stop-color="#41873F"/>
</linearGradient>
<linearGradient id="paint7_linear_1595_36" x1="2104.26" y1="-566.665" x2="1659.62" y2="1765.9" gradientUnits="userSpaceOnUse">
<stop stop-color="#41873F"/>
<stop offset="0.3288" stop-color="#418B3D"/>
<stop offset="0.6352" stop-color="#419637"/>
<stop offset="0.9319" stop-color="#3FA92D"/>
<stop offset="1" stop-color="#3FAE2A"/>
</linearGradient>
<linearGradient id="paint8_linear_1595_36" x1="1164.01" y1="423" x2="1244" y2="423" gradientUnits="userSpaceOnUse">
<stop stop-color="white" stop-opacity="0.1"/>
<stop offset="1" stop-color="white" stop-opacity="0"/>
</linearGradient>
<linearGradient id="paint9_linear_1595_36" x1="1164.01" y1="423" x2="1244" y2="423" gradientUnits="userSpaceOnUse">
<stop stop-color="white" stop-opacity="0.1"/>
<stop offset="1" stop-color="white" stop-opacity="0"/>
</linearGradient>
<linearGradient id="paint10_linear_1595_36" x1="1203.05" y1="422.078" x2="1242.06" y2="461.053" gradientUnits="userSpaceOnUse">
<stop stop-color="#BF360C" stop-opacity="0.2"/>
<stop offset="1" stop-color="#BF360C" stop-opacity="0.02"/>
</linearGradient>
<linearGradient id="paint11_linear_1595_36" x1="1190.81" y1="409.858" x2="1242.56" y2="461.568" gradientUnits="userSpaceOnUse">
<stop stop-color="white" stop-opacity="0.1"/>
<stop offset="1" stop-color="white" stop-opacity="0"/>
</linearGradient>
<clipPath id="clip0_1595_36">
<rect width="1440" height="788" fill="white"/>
</clipPath>
<clipPath id="clip1_1595_36">
<rect width="90" height="80" fill="white" transform="translate(465 297)"/>
</clipPath>
<clipPath id="clip2_1595_36">
<rect width="70" height="80" fill="white" transform="translate(805 285)"/>
</clipPath>
<clipPath id="clip3_1595_36">
<rect width="80" height="80" fill="white" transform="translate(140 426)"/>
</clipPath>
<clipPath id="clip4_1595_36">
<rect width="118" height="25.016" fill="white" transform="translate(315 566.492)"/>
</clipPath>
<clipPath id="clip5_1595_36">
<rect width="112" height="35" fill="white" transform="translate(634 521.5)"/>
</clipPath>
<clipPath id="clip6_1595_36">
<rect width="80" height="49" fill="white" transform="translate(952 538.5)"/>
</clipPath>
<clipPath id="clip7_1595_36">
<rect width="80" height="80" fill="white" transform="translate(1164 383)"/>
</clipPath>
</defs>
</svg>
