<svg width="70" height="70" viewBox="0 0 70 70" fill="none" xmlns="http://www.w3.org/2000/svg">
<rect width="70" height="70" rx="35" fill="#2B2B2B"/>
<path d="M44.3333 20.3333H25.6667C23.8992 20.3354 22.2047 21.0385 20.955 22.2883C19.7052 23.5381 19.0021 25.2325 19 27V43C19.0021 44.7674 19.7052 46.4619 20.955 47.7117C22.2047 48.9615 23.8992 49.6645 25.6667 49.6666H44.3333C46.1008 49.6645 47.7953 48.9615 49.045 47.7117C50.2948 46.4619 50.9979 44.7674 51 43V27C50.9979 25.2325 50.2948 23.5381 49.045 22.2883C47.7953 21.0385 46.1008 20.3354 44.3333 20.3333ZM25.6667 23H44.3333C45.1317 23.0016 45.9114 23.242 46.5719 23.6904C47.2325 24.1388 47.7438 24.7746 48.04 25.516L37.8293 35.728C37.0779 36.4764 36.0606 36.8966 35 36.8966C33.9394 36.8966 32.9221 36.4764 32.1707 35.728L21.96 25.516C22.2562 24.7746 22.7675 24.1388 23.4281 23.6904C24.0886 23.242 24.8683 23.0016 25.6667 23ZM44.3333 47H25.6667C24.6058 47 23.5884 46.5786 22.8382 45.8284C22.0881 45.0783 21.6667 44.0608 21.6667 43V29L30.2853 37.6133C31.5368 38.8617 33.2323 39.5627 35 39.5627C36.7677 39.5627 38.4632 38.8617 39.7147 37.6133L48.3333 29V43C48.3333 44.0608 47.9119 45.0783 47.1618 45.8284C46.4116 46.5786 45.3942 47 44.3333 47Z" fill="white"/>
</svg>
