<svg width="24" height="24" viewBox="0 0 24 24" fill="none" xmlns="http://www.w3.org/2000/svg">
<path d="M11.4502 15.5523C11.1757 15.7963 10.8708 15.9183 10.5353 15.9183C10.1999 15.9183 9.89492 15.7963 9.62047 15.5523L6.69297 12.6248C6.44901 12.3504 6.32703 12.0454 6.32703 11.71C6.32703 11.3746 6.44901 11.0696 6.69297 10.7952C6.96742 10.5512 7.27237 10.4292 7.60781 10.4292C7.94326 10.4292 8.2482 10.5512 8.52266 10.7952L10.5353 12.8078L15.4755 7.86766C15.7499 7.6237 16.0549 7.50172 16.3903 7.50172C16.7258 7.50172 17.0307 7.6237 17.3052 7.86766C17.5491 8.14211 17.6711 8.44706 17.6711 8.7825C17.6711 9.11794 17.5491 9.42289 17.3052 9.69734L11.4502 15.5523ZM23.7091 11.71C23.6786 13.9056 23.1449 15.8725 22.1081 17.6107C21.0713 19.3794 19.6685 20.7822 17.8998 21.819C16.1616 22.8558 14.1947 23.3895 11.9991 23.42C9.80344 23.3895 7.83652 22.8558 6.09832 21.819C4.32962 20.7822 2.92686 19.3794 1.89004 17.6107C0.853216 15.8725 0.319557 13.9056 0.289062 11.71C0.319557 9.51437 0.853216 7.54746 1.89004 5.80926C2.92686 4.04056 4.32962 2.6378 6.09832 1.60098C7.83652 0.564154 9.80344 0.0304947 11.9991 0C14.1947 0.0304947 16.1616 0.564154 17.8998 1.60098C19.6685 2.6378 21.0713 4.04056 22.1081 5.80926C23.1449 7.54746 23.6786 9.51437 23.7091 11.71ZM11.9991 2.19563C9.31552 2.25661 7.07415 3.18671 5.27496 4.9859C3.47577 6.78509 2.54568 9.02646 2.48469 11.71C2.54568 14.3935 3.47577 16.6349 5.27496 18.4341C7.07415 20.2333 9.31552 21.1634 11.9991 21.2244C14.6826 21.1634 16.924 20.2333 18.7232 18.4341C20.5224 16.6349 21.4524 14.3935 21.5134 11.71C21.4524 9.02646 20.5224 6.78509 18.7232 4.9859C16.924 3.18671 14.6826 2.25661 11.9991 2.19563Z" fill="#BCA921"/>
</svg>
