<svg width="167" height="88" viewBox="0 0 167 88" fill="none" xmlns="http://www.w3.org/2000/svg">
<path d="M13.96 85.2874L16.48 79.6874H17.504L20.032 85.2874H18.944L16.776 80.2394H17.192L15.032 85.2874H13.96ZM15.12 83.9914L15.4 83.1754H18.424L18.704 83.9914H15.12ZM31.7042 85.2874V79.6874H35.7922V80.5594H32.7442V84.4154H35.9042V85.2874H31.7042ZM32.6642 82.8714V82.0154H35.4482V82.8714H32.6642ZM48.0236 85.2874V79.6874H50.3196C51.0662 79.6874 51.6502 79.8634 52.0716 80.2154C52.4982 80.5674 52.7116 81.0554 52.7116 81.6794C52.7116 82.09 52.6156 82.4447 52.4236 82.7434C52.2316 83.0367 51.9569 83.2634 51.5996 83.4234C51.2476 83.578 50.8236 83.6554 50.3276 83.6554H48.5996L49.0636 83.1834V85.2874H48.0236ZM51.6876 85.2874L50.2716 83.2554H51.3836L52.8076 85.2874H51.6876ZM49.0636 83.2954L48.5996 82.7994H50.2796C50.7382 82.7994 51.0822 82.7007 51.3116 82.5034C51.5462 82.306 51.6636 82.0314 51.6636 81.6794C51.6636 81.322 51.5462 81.0474 51.3116 80.8554C51.0822 80.6634 50.7382 80.5674 50.2796 80.5674H48.5996L49.0636 80.0554V83.2954ZM67.4591 85.3674C67.0218 85.3674 66.6191 85.2954 66.2511 85.1514C65.8831 85.0074 65.5631 84.8074 65.2911 84.5514C65.0191 84.29 64.8085 83.986 64.6591 83.6394C64.5098 83.2874 64.4351 82.9034 64.4351 82.4874C64.4351 82.0714 64.5098 81.69 64.6591 81.3434C64.8085 80.9914 65.0191 80.6874 65.2911 80.4314C65.5631 80.17 65.8831 79.9674 66.2511 79.8234C66.6191 79.6794 67.0191 79.6074 67.4511 79.6074C67.8885 79.6074 68.2885 79.6794 68.6511 79.8234C69.0191 79.9674 69.3391 80.17 69.6111 80.4314C69.8831 80.6874 70.0938 80.9914 70.2431 81.3434C70.3925 81.69 70.4671 82.0714 70.4671 82.4874C70.4671 82.9034 70.3925 83.2874 70.2431 83.6394C70.0938 83.9914 69.8831 84.2954 69.6111 84.5514C69.3391 84.8074 69.0191 85.0074 68.6511 85.1514C68.2885 85.2954 67.8911 85.3674 67.4591 85.3674ZM67.4511 84.4554C67.7338 84.4554 67.9951 84.4074 68.2351 84.3114C68.4751 84.2154 68.6831 84.0794 68.8591 83.9034C69.0351 83.722 69.1711 83.514 69.2671 83.2794C69.3685 83.0394 69.4191 82.7754 69.4191 82.4874C69.4191 82.1994 69.3685 81.938 69.2671 81.7034C69.1711 81.4634 69.0351 81.2554 68.8591 81.0794C68.6831 80.898 68.4751 80.7594 68.2351 80.6634C67.9951 80.5674 67.7338 80.5194 67.4511 80.5194C67.1685 80.5194 66.9071 80.5674 66.6671 80.6634C66.4325 80.7594 66.2245 80.898 66.0431 81.0794C65.8671 81.2554 65.7285 81.4634 65.6271 81.7034C65.5311 81.938 65.4831 82.1994 65.4831 82.4874C65.4831 82.77 65.5311 83.0314 65.6271 83.2714C65.7285 83.5114 65.8671 83.722 66.0431 83.9034C66.2191 84.0794 66.4271 84.2154 66.6671 84.3114C66.9071 84.4074 67.1685 84.4554 67.4511 84.4554ZM84.2655 85.3674C83.8282 85.3674 83.4095 85.306 83.0095 85.1834C82.6095 85.0554 82.2922 84.8927 82.0575 84.6954L82.4175 83.8874C82.6415 84.0634 82.9188 84.21 83.2495 84.3274C83.5802 84.4447 83.9188 84.5034 84.2655 84.5034C84.5588 84.5034 84.7962 84.4714 84.9775 84.4074C85.1588 84.3434 85.2922 84.258 85.3775 84.1514C85.4628 84.0394 85.5055 83.914 85.5055 83.7754C85.5055 83.6047 85.4442 83.4687 85.3215 83.3674C85.1988 83.2607 85.0388 83.178 84.8415 83.1194C84.6495 83.0554 84.4335 82.9967 84.1935 82.9434C83.9588 82.89 83.7215 82.8287 83.4815 82.7594C83.2468 82.6847 83.0308 82.5914 82.8335 82.4794C82.6415 82.362 82.4842 82.2074 82.3615 82.0154C82.2388 81.8234 82.1775 81.578 82.1775 81.2794C82.1775 80.9754 82.2575 80.698 82.4175 80.4474C82.5828 80.1914 82.8308 79.9887 83.1615 79.8394C83.4975 79.6847 83.9215 79.6074 84.4335 79.6074C84.7695 79.6074 85.1028 79.65 85.4335 79.7354C85.7642 79.8207 86.0522 79.9434 86.2975 80.1034L85.9695 80.9114C85.7188 80.762 85.4602 80.6527 85.1935 80.5834C84.9268 80.5087 84.6708 80.4714 84.4255 80.4714C84.1375 80.4714 83.9028 80.506 83.7215 80.5754C83.5455 80.6447 83.4148 80.7354 83.3295 80.8474C83.2495 80.9594 83.2095 81.0874 83.2095 81.2314C83.2095 81.402 83.2682 81.5407 83.3855 81.6474C83.5082 81.7487 83.6655 81.8287 83.8575 81.8874C84.0548 81.946 84.2735 82.0047 84.5135 82.0634C84.7535 82.1167 84.9908 82.178 85.2255 82.2474C85.4655 82.3167 85.6815 82.4074 85.8735 82.5194C86.0708 82.6314 86.2282 82.7834 86.3455 82.9754C86.4682 83.1674 86.5295 83.41 86.5295 83.7034C86.5295 84.002 86.4468 84.2794 86.2815 84.5354C86.1215 84.786 85.8735 84.9887 85.5375 85.1434C85.2015 85.2927 84.7775 85.3674 84.2655 85.3674ZM98.5208 85.2874V79.6874H100.825C101.321 79.6874 101.745 79.7674 102.097 79.9274C102.454 80.0874 102.729 80.3167 102.921 80.6154C103.113 80.914 103.209 81.2687 103.209 81.6794C103.209 82.09 103.113 82.4447 102.921 82.7434C102.729 83.042 102.454 83.2714 102.097 83.4314C101.745 83.5914 101.321 83.6714 100.825 83.6714H99.0968L99.5608 83.1834V85.2874H98.5208ZM99.5608 83.2954L99.0968 82.7914H100.777C101.235 82.7914 101.579 82.6954 101.809 82.5034C102.043 82.306 102.161 82.0314 102.161 81.6794C102.161 81.322 102.043 81.0474 101.809 80.8554C101.579 80.6634 101.235 80.5674 100.777 80.5674H99.0968L99.5608 80.0554V83.2954ZM114.134 85.2874L116.654 79.6874H117.678L120.206 85.2874H119.118L116.95 80.2394H117.366L115.206 85.2874H114.134ZM115.294 83.9914L115.574 83.1754H118.598L118.878 83.9914H115.294ZM134.392 85.3674C133.965 85.3674 133.568 85.298 133.2 85.1594C132.837 85.0154 132.52 84.8154 132.248 84.5594C131.981 84.298 131.773 83.9914 131.624 83.6394C131.475 83.2874 131.4 82.9034 131.4 82.4874C131.4 82.0714 131.475 81.6874 131.624 81.3354C131.773 80.9834 131.984 80.6794 132.256 80.4234C132.528 80.162 132.845 79.962 133.208 79.8234C133.571 79.6794 133.968 79.6074 134.4 79.6074C134.859 79.6074 135.277 79.6874 135.656 79.8474C136.035 80.002 136.355 80.234 136.616 80.5434L135.944 81.1754C135.741 80.9567 135.515 80.794 135.264 80.6874C135.013 80.5754 134.741 80.5194 134.448 80.5194C134.155 80.5194 133.885 80.5674 133.64 80.6634C133.4 80.7594 133.189 80.8954 133.008 81.0714C132.832 81.2474 132.693 81.4554 132.592 81.6954C132.496 81.9354 132.448 82.1994 132.448 82.4874C132.448 82.7754 132.496 83.0394 132.592 83.2794C132.693 83.5194 132.832 83.7274 133.008 83.9034C133.189 84.0794 133.4 84.2154 133.64 84.3114C133.885 84.4074 134.155 84.4554 134.448 84.4554C134.741 84.4554 135.013 84.402 135.264 84.2954C135.515 84.1834 135.741 84.0154 135.944 83.7914L136.616 84.4314C136.355 84.7354 136.035 84.9674 135.656 85.1274C135.277 85.2874 134.856 85.3674 134.392 85.3674ZM148.502 85.2874V79.6874H152.59V80.5594H149.542V84.4154H152.702V85.2874H148.502ZM149.462 82.8714V82.0154H152.246V82.8714H149.462Z" fill="#00A1FF"/>
<path d="M15.8531 49.3854C16.9556 49.3854 17.9251 49.566 18.7614 49.9272C19.6168 50.2883 20.3296 50.792 20.8999 51.4383C21.4892 52.0656 21.9263 52.826 22.2115 53.7194C22.5156 54.5938 22.6677 55.5537 22.6677 56.5992C22.6677 57.6256 22.5156 58.5855 22.2115 59.4789C21.9263 60.3723 21.4892 61.1517 20.8999 61.817C20.3296 62.4633 19.6168 62.9765 18.7614 63.3567C17.9251 63.7369 16.9556 63.9269 15.8531 63.9269H8.26871V69.2874H1.82482V49.3854H15.8531ZM14.7696 58.5665C15.3019 58.5665 15.6725 58.3574 15.8816 57.9393C16.1097 57.5021 16.2333 57.0554 16.2523 56.5992C16.2523 56.143 16.1382 55.7248 15.9101 55.3446C15.7011 54.9454 15.3209 54.7458 14.7696 54.7458H8.26871V58.5665H14.7696ZM47.1379 69.2874H39.582L31.9976 58.3669H37.5576C38.337 58.3669 38.9262 58.1959 39.3254 57.8537C39.7246 57.4926 39.9242 57.1029 39.9242 56.6847C39.9242 56.2855 39.7246 55.9244 39.3254 55.6012C38.9452 55.2591 38.356 55.088 37.5576 55.088H31.7695V69.2874H25.3256V49.3284H37.9283C39.2589 49.3284 40.4564 49.471 41.5209 49.7561C42.5854 50.0222 43.4978 50.4404 44.2581 51.0106C45.0185 51.5619 45.5982 52.2557 45.9974 53.0921C46.3966 53.9094 46.5962 54.8789 46.5962 56.0004C46.5962 56.8938 46.4631 57.6921 46.197 58.3955C45.9499 59.0798 45.5982 59.6785 45.142 60.1918C44.6858 60.705 44.1536 61.1232 43.5453 61.4463C42.937 61.7695 42.2812 62.0071 41.5779 62.1592L47.1379 69.2874ZM74.8372 69.2874H66.7966L61.3792 60.648L55.9902 69.2874H47.9496L61.3792 47.8742L74.8372 69.2874ZM87.1623 49.2714C88.626 49.2714 89.9756 49.49 91.2111 49.9272C92.4657 50.3644 93.5492 51.0106 94.4616 51.866C95.374 52.7024 96.0773 53.7384 96.5715 54.9739C97.0848 56.2095 97.3414 57.6161 97.3414 59.1938C97.3414 60.7715 97.0848 62.1877 96.5715 63.4422C96.0583 64.6778 95.3455 65.7328 94.4331 66.6071C93.5207 67.4815 92.4467 68.1468 91.2111 68.603C89.9756 69.0593 88.626 69.2874 87.1623 69.2874H76.6981V56.6847H83.142V63.5278H87.1623C87.8086 63.5278 88.3598 63.4137 88.8161 63.1856C89.2723 62.9575 89.6524 62.6439 89.9566 62.2447C90.2607 61.8455 90.4793 61.3798 90.6124 60.8476C90.7644 60.3153 90.8405 59.7546 90.8405 59.1653C90.8405 58.557 90.7644 58.0058 90.6124 57.5116C90.4793 56.9983 90.2607 56.5611 89.9566 56.2C89.6714 55.8198 89.2913 55.5252 88.8161 55.3161C88.3598 55.107 87.8086 55.0024 87.1623 55.0024H76.6981V49.2714H87.1623ZM119.532 63.5563V69.2874H100.2V49.3854H119.133V55.1165H106.644V63.5563H119.532ZM108.583 61.8455V56.8273H117.964V61.8455H108.583ZM142.058 63.5563V69.2874H122.726V49.3854H141.659V55.1165H129.17V63.5563H142.058ZM131.109 61.8455V56.8273H140.49V61.8455H131.109ZM159.281 49.3284C160.383 49.3284 161.353 49.509 162.189 49.8701C163.045 50.2313 163.757 50.735 164.328 51.3813C164.917 52.0276 165.354 52.7974 165.639 53.6908C165.943 54.5652 166.096 55.5252 166.096 56.5706C166.096 57.6161 165.943 58.5855 165.639 59.4789C165.335 60.3723 164.898 61.1517 164.328 61.817C163.757 62.4633 163.045 62.9765 162.189 63.3567C161.353 63.7369 160.383 63.9269 159.281 63.9269H153.635V58.538H158.197C158.73 58.538 159.1 58.3289 159.309 57.9107C159.538 57.4735 159.661 57.0268 159.68 56.5706C159.68 56.1144 159.566 55.6962 159.338 55.3161C159.129 54.9169 158.749 54.7173 158.197 54.7173H151.697V69.2874H145.253V49.3284H159.281Z" fill="white"/>
<g clip-path="url(#clip0_1238_244)">
<path d="M121.564 -8.11233e-05C121.564 -8.11233e-05 121.552 -8.11233e-05 121.54 -8.11233e-05C121.524 -8.11233e-05 121.508 0.00790482 121.48 0.0198837C117.515 1.42142 116.916 1.97245 116.552 1.91655C114.44 1.59312 111.649 1.93651 110.835 2.04831C109.916 1.9405 108.638 1.84467 107.9 1.89658C104.637 2.1122 102.15 3.54568 100.609 4.74357L79.9928 15.5126L98.8157 6.42062L93.2774 11.1842L105.524 7.42685C102.936 8.22544 90.5063 12.1585 85.3554 14.9855C85.3554 14.9855 73.3684 16.6187 66.5085 17.3654L67.6146 17.0659L65.5742 15.4607L64.3164 17.549C62.6833 17.7088 61.3536 17.8166 60.571 17.8445C56.2466 17.9883 54.3499 20.2243 54.3499 20.2243L57.8957 20.8632L45.9727 28.2103L62.799 19.27L59.5807 21.1707L62.5555 21.7217L54.298 26.685L66.1571 20.2483L63.5417 21.8854L64.1407 21.9932L71.2522 23.3508C71.2522 23.3508 75.9439 20.7594 78.3637 19.6054C79.7133 18.9625 82.4884 17.8405 82.4884 17.8405L66.1611 26.1379L71.0685 23.4666L64.1327 22.137L64.5839 26.3056L55.6077 28.0945C55.6077 28.0945 54.2461 28.3381 53.6152 29.5519C53.2758 30.2068 56.9573 30.2108 60.4192 30.079C60.4192 30.079 57.2209 32.0156 56.9533 32.1713L63.2702 28.921C62.6713 29.3163 61.4894 30.0351 61.6131 30.0271C64.0768 29.9073 66.1571 29.7476 66.1571 29.7476L68.9562 28.2223C67.8222 29.3163 67.4908 29.6997 67.371 29.8434C67.6266 32.2112 69.4713 32.7223 69.4713 32.7223C69.4713 32.7223 70.7291 32.5147 71.336 32.323C73.2806 31.7201 76.9821 29.9991 76.9821 29.9991C76.8543 30.1668 76.3352 30.4384 75.2891 31.0932C75.0934 31.217 75.0215 31.756 75.0215 31.756C75.6844 33.8244 76.9462 34.0999 76.9462 34.0999C76.9462 34.0999 77.2297 34.2237 78.759 33.6168C78.759 33.6168 79.8171 34.6549 80.3641 35.1461L76.1316 37.5978L82.8398 34.1478L80.6995 35.4975L83.0235 37.6577C83.0235 37.6577 84.2852 37.2184 85.2595 36.879C86.2298 36.5396 86.0861 35.6172 86.0861 35.6172L85.1078 30.2068C83.307 31.2769 81.4303 32.1553 79.6734 33.2933L79.5416 33.1696C86.0461 29.1287 92.6465 25.2315 99.211 21.2785H99.2669L88.8292 27.9348L92.8142 29.5719L96.0286 27.823L93.0378 29.6398L85.9463 33.7485L93.517 29.8554C94.3715 30.2627 96.7433 31.217 98.3006 31.8958L101.87 29.9512L87.3678 39.0073L99.5584 32.4229L100.712 32.9459C100.712 32.9459 101.443 32.7024 103.092 31.6802C104.745 30.658 103.967 29.492 103.967 29.492L99.9856 20.959L102.026 17.0938L88.37 25.0319L101.327 17.0459L102.306 16.5588L102.385 16.407C103.799 15.0694 108.335 9.76274 108.335 9.76274L98.8077 14.722C98.8077 14.722 100.413 13.1648 108.574 9.13185C114.548 6.18104 116.249 3.75331 116.908 2.72313C116.908 2.72313 121.655 0.0757854 121.552 -0.0040741L121.564 -8.11233e-05ZM108.662 2.30386C109.038 2.29588 109.425 2.30786 109.82 2.33581L99.5983 6.12514C100.848 4.93523 104.054 2.38772 108.662 2.30386ZM97.4181 12.2663L88.6655 17.4332L87.6114 19.3059C85.9583 19.9808 74.7141 25.7107 70.218 27.6393L86.701 18.9146L87.6992 17.1897L97.4181 12.2663Z" fill="white"/>
<path d="M66.8227 30.5543L63.3648 33.6169L53.582 39.7821L64.1075 34.3316L68.352 32.8822C68.352 32.8822 67.2819 32.0556 66.8227 30.5583V30.5543Z" fill="#00A1FF"/>
<path d="M74.6391 32.0636L71.1812 35.1262L61.3984 41.2914L71.9239 35.841L76.1684 34.3915C76.1684 34.3915 75.0983 33.565 74.6391 32.0676V32.0636Z" fill="#00A1FF"/>
</g>
<defs>
<clipPath id="clip0_1238_244">
<rect width="75.591" height="41.2873" fill="white" transform="translate(45.9727)"/>
</clipPath>
</defs>
</svg>
