<svg width="265" height="69" viewBox="0 0 265 69" fill="none" xmlns="http://www.w3.org/2000/svg">
<path fill-rule="evenodd" clip-rule="evenodd" d="M44.4805 19.4387H53.7182V12.7788H44.4805V19.4387ZM44.4805 47.7784H53.7182V22.258H44.4805V47.7784ZM82.8875 28.2376C82.8875 24.9808 80.1644 22.258 76.9071 22.258H57.8009V47.7784H67.0386V29.6465H73.6512V47.7784H82.8889V28.2376H82.8875ZM100.974 29.1608V32.3693H95.8201V29.1608H100.974ZM86.5823 41.7988C86.5823 45.0556 89.3055 47.7784 92.5628 47.7784H107.294L110.21 40.3898H95.8187V37.5222H103.744C107.001 37.5222 109.724 34.7995 109.724 31.5427V28.2376C109.724 24.9808 107.001 22.258 103.744 22.258H92.5614C89.3041 22.258 86.581 24.9808 86.581 28.2376V41.8002L86.5823 41.7988ZM149.59 47.7784H158.828V29.6465H164.176L167.094 22.258H155.572C152.315 22.258 149.592 24.9808 149.592 28.2376V47.7784H149.59ZM181.775 47.7784H175.795C172.538 47.7784 169.814 45.0556 169.814 41.7988V29.6465H166.946L169.814 22.258V18.1263H179.052V22.258H184.545L181.628 29.6465H179.051V40.3898H184.69L181.774 47.7784H181.775ZM201.076 29.1608V32.3693H195.922V29.1608H201.076ZM186.686 41.7988C186.686 45.0556 189.409 47.7784 192.667 47.7784H207.398L210.314 40.3898H195.922V37.5222H203.848C207.105 37.5222 209.828 34.7995 209.828 31.5427V28.2376C209.828 24.9808 207.105 22.258 203.848 22.258H192.665C189.408 22.258 186.685 24.9808 186.685 28.2376V41.8002L186.686 41.7988ZM213.232 47.7784H222.469V29.6465H227.818L230.735 22.258H219.213C215.956 22.258 213.233 24.9808 213.233 28.2376V47.7784H213.232ZM256.792 22.258H247.555V39.9041H241.429V22.258H232.192V41.3131C232.192 44.5699 234.915 47.2926 238.172 47.2926H247.555V50.2085H234.233L231.51 57.1113H250.811C254.068 57.1113 256.791 54.3886 256.791 51.1318V22.258H256.792Z" fill="white"/>
<path fill-rule="evenodd" clip-rule="evenodd" d="M125.614 34.4103H133.352L129.844 19.7713H129.228L125.615 34.4103H125.614ZM112.105 47.7784L122.267 12.4393H136.843L146.769 47.7784H136.608L135.02 41.6042H123.879L122.267 47.7784H112.105Z" fill="white"/>
<path fill-rule="evenodd" clip-rule="evenodd" d="M8.1979 29.0959C8.1979 30.2813 8.14683 31.544 8.27105 32.7129C8.29451 32.9323 8.36628 33.178 8.36766 33.4277C8.37042 33.752 8.44495 34.6573 8.52363 34.9306L8.63956 35.662C8.65889 35.9449 8.77344 36.363 8.8604 36.6597C8.90732 36.8184 8.89214 36.8695 8.92113 37.0392L9.08675 37.6864C9.15852 38.0383 9.28964 38.324 9.35175 38.6731L9.49943 39.1354C9.58363 39.3769 9.71889 39.6764 9.76857 39.9151C9.81412 40.1318 9.9066 40.3167 9.99079 40.5058L10.3441 41.4055C10.3786 41.4856 10.3841 41.4759 10.4145 41.538C10.4421 41.5932 10.4504 41.6305 10.4697 41.6857L10.616 41.9796C10.7706 42.2887 10.9059 42.6406 11.1005 42.918C11.1584 42.9994 11.1405 42.9856 11.1847 43.0712L11.3365 43.3251C11.3807 43.401 11.3807 43.3886 11.4179 43.4479L11.647 43.8288C11.7105 43.9199 11.7657 43.9875 11.8278 44.0882L12.7995 45.4186C12.7995 45.4186 12.8119 45.431 12.8161 45.4365L13.2812 45.9526C13.5531 46.2811 13.9327 46.575 14.2901 46.8055C14.7139 47.0773 14.747 47.1629 15.2922 47.4623C15.5682 47.6128 16.0182 47.846 16.3039 47.9067C16.4488 47.9384 16.5081 47.9219 16.6475 47.9702C17.5571 48.2821 18.1961 48.2379 19.1291 48.0861L20.3051 47.7038C20.3769 47.6638 20.392 47.6611 20.4638 47.6252C20.5439 47.5852 20.5301 47.5824 20.5922 47.5507C20.6584 47.5162 20.7026 47.5106 20.7633 47.4858L21.3734 47.1146C21.3734 47.1146 21.3872 47.1049 21.3927 47.1008C21.4217 47.0801 21.4217 47.0815 21.4534 47.0594C21.9061 46.7434 22.3685 46.4232 22.7522 46.0216C22.7701 46.0023 22.7922 45.9747 22.8157 45.9499C23.089 45.6532 23.0931 45.6739 22.8447 45.293L22.6045 44.9576C22.5507 44.8762 22.5507 44.8886 22.4969 44.7948C22.4637 44.7382 22.4831 44.7631 22.4472 44.7092L22.167 44.2111C22.1256 44.1448 22.1063 44.1324 22.0566 44.051C22.0083 43.9737 21.9807 43.9323 21.9448 43.8578L21.7502 43.4769C21.7088 43.39 21.7019 43.3982 21.6549 43.3016L20.98 41.9106C20.8337 41.6208 20.5521 40.808 20.4735 40.6562C20.3506 40.4174 20.2706 40.0628 20.1781 39.8006L19.8441 38.6786C19.7668 38.4068 19.7047 38.2784 19.6688 37.9735L19.2837 36.3271C19.2023 36.0401 19.2327 35.7834 19.1913 35.506L19.016 34.5304C18.9166 33.9963 18.9663 33.4484 18.871 32.9144C18.7303 32.1223 18.791 29.5403 18.7924 28.7247L18.8586 27.6069C18.9111 27.2412 18.9635 26.9197 18.9621 26.5264C18.9621 26.2876 18.9746 26.1386 18.9925 25.9468L19.3224 23.8726C19.3969 23.6504 19.4632 23.144 19.5239 22.8556C19.5653 22.6568 19.6205 22.6141 19.655 22.4112L19.7709 21.9172C19.8041 21.8247 19.8041 21.7778 19.8289 21.6701L20.1698 20.5206C20.3272 20.1535 20.3782 19.7602 20.5452 19.4056L21.7778 16.7449C21.8965 16.4703 22.1063 16.2467 22.2277 15.9763C22.3133 15.7872 22.461 15.6078 22.5714 15.4394L22.7991 15.0586C22.9178 14.9012 23.0931 14.6515 23.0931 14.4389C23.0931 14.2264 22.294 13.4978 22.0759 13.357L21.5942 12.9927C21.5017 12.9209 21.4272 12.8975 21.3237 12.823C21.2671 12.7829 21.2533 12.7774 21.2008 12.7429C21.1456 12.7084 21.1415 12.6988 21.0821 12.6587C20.8751 12.5207 20.4666 12.2986 20.2347 12.2185L19.7958 12.0474C19.5515 11.9839 19.2161 11.7962 18.9635 11.7962H17.575L15.7959 12.2861L13.7684 13.6786C13.7256 13.7186 13.7491 13.6993 13.698 13.7434C13.6166 13.8138 13.5434 13.8593 13.4758 13.927L12.6767 14.8543C12.6767 14.8543 12.6643 14.8667 12.6601 14.8723L12.3275 15.2849C12.1384 15.5843 11.9093 15.8231 11.7133 16.1267L11.1736 17.043C11.0729 17.2376 10.9873 17.3852 10.8893 17.6047L10.5277 18.2919C10.4987 18.343 10.4849 18.383 10.467 18.4354C10.449 18.492 10.4394 18.5279 10.4118 18.5831L10.0846 19.3062C10.0363 19.4083 10.035 19.5118 9.98665 19.6139C9.85829 19.8844 9.76029 20.2612 9.64988 20.5303C9.60709 20.6338 9.60985 20.7345 9.56706 20.8546C9.49391 21.0602 9.40282 21.2382 9.35865 21.459L9.22477 21.9682C9.20821 22.0151 9.18889 22.0993 9.18199 22.1283C9.15162 22.2539 9.11436 22.356 9.08951 22.4747C9.06191 22.6003 9.05915 22.7079 9.03706 22.8293C9.00946 22.9825 8.96667 23.0156 8.93079 23.1633L8.63956 24.5309C8.62576 24.6689 8.6368 24.7751 8.61748 24.9145C8.55675 25.3299 8.50706 25.3161 8.42977 25.9799C8.40079 26.2297 8.3649 26.438 8.36628 26.7292C8.36628 27.0066 8.29727 27.2177 8.26139 27.4703C8.21722 27.7822 8.19652 28.7233 8.19652 29.0973L8.1979 29.0959Z" fill="white"/>
<path fill-rule="evenodd" clip-rule="evenodd" d="M28.8899 24.2204C29.6338 24.3943 38.2753 24.3556 39.0151 24.3556C39.3105 24.3556 39.0317 23.6849 39.0206 23.5718L38.8426 22.5313C38.8205 22.4112 38.7749 22.3201 38.7529 22.2139C38.728 22.0938 38.7253 21.9793 38.6935 21.8661L38.2422 20.286C38.1718 20.1383 38.1939 20.1411 38.1469 19.9741L37.3257 17.951C37.2802 17.842 37.2319 17.7661 37.1932 17.6778C37.1711 17.6281 37.1601 17.5812 37.1353 17.5329L36.7723 16.8802C36.5914 16.5338 36.3637 16.2095 36.1567 15.87L35.8199 15.3939C35.5176 15.0241 35.254 14.6114 34.9104 14.272L34.0767 13.4467C34.0767 13.4467 34.0643 13.4343 34.0588 13.4302L33.8642 13.2866C33.4653 13.0148 33.0443 12.7208 32.6082 12.5111C32.4274 12.4241 32.2728 12.3068 32.0782 12.2282L31.152 11.9356C31.0403 11.9177 30.8636 11.9149 30.7766 11.9039C30.6372 11.8859 30.5268 11.8763 30.4109 11.8625C30.0644 11.8225 27.725 11.7921 27.2309 11.7921C26.6539 11.7921 22.6417 11.759 22.4264 11.8335C22.1835 11.9177 22.6734 12.2144 22.7507 12.2765L23.4933 12.8892C23.4933 12.8892 23.5057 12.9016 23.5112 12.9058L25.4766 15.1731C25.7085 15.5002 25.9583 15.8576 26.1336 16.2081L27.0128 17.9704C27.2005 18.3236 27.3454 18.8135 27.4766 19.0633L27.7126 19.7754C27.7374 19.8568 27.7747 19.9106 27.8037 19.9893C27.8382 20.0873 27.8395 20.1742 27.8713 20.2598C27.9141 20.3771 27.9237 20.326 27.9624 20.4737C27.9928 20.5882 27.9817 20.6075 28.0245 20.7166C28.0604 20.8104 28.0852 20.849 28.1032 20.9415L28.2384 21.4148C28.2605 21.528 28.255 21.5653 28.2881 21.6701C28.313 21.7474 28.3433 21.7902 28.3682 21.8937C28.393 21.9958 28.3972 22.091 28.4151 22.1863C28.4468 22.3615 28.52 22.4995 28.5421 22.6693C28.5724 22.897 28.6276 22.9549 28.6649 23.1895C28.6732 23.2433 28.6842 23.3744 28.7022 23.4572L28.8913 24.2162L28.8899 24.2204Z" fill="white"/>
<path fill-rule="evenodd" clip-rule="evenodd" d="M22.1512 48.1579C22.1926 48.1813 22.1871 48.191 22.2533 48.191C23.2485 48.191 30.4021 48.2434 30.7568 48.162C30.8962 48.1303 30.881 48.1151 31.0149 48.0806C31.342 47.9992 31.0811 48.0985 31.5214 47.9453L32.6767 47.4761C32.7595 47.4444 32.8119 47.4099 32.8961 47.3561L33.9534 46.6178C34.0086 46.5791 33.9975 46.5833 34.0472 46.5419L34.914 45.7498L35.7656 44.7051C35.7987 44.6582 35.8042 44.6554 35.8387 44.6099L36.5054 43.5845C36.5426 43.5307 36.5109 43.5804 36.5495 43.528L37.4301 41.8016C37.6068 41.3903 37.9228 40.6769 38.0277 40.2656C38.0595 40.1442 38.0305 40.2242 38.0719 40.1401L38.4515 38.9284C38.4873 38.7407 38.5522 38.6566 38.6033 38.4026C38.6295 38.2702 38.6461 38.255 38.6847 38.1446C38.7123 38.0632 38.7261 37.9693 38.7385 37.8934L39.1498 36.0028C39.1498 35.7917 38.5646 35.8662 38.2016 35.8676C37.9739 35.8676 37.8939 35.8345 37.6951 35.8317L31.6318 35.7986C31.4055 35.7986 31.1805 35.7986 30.9542 35.7986L29.6582 35.8579C29.4442 35.8869 29.1944 35.8455 28.9887 35.8648C28.7693 35.8855 28.8052 36.0829 28.7417 36.2954C28.6823 36.4955 28.6906 36.6652 28.6382 36.8681C28.612 36.9702 28.5747 37.0447 28.5595 37.1289L28.2365 38.5337C28.2158 38.6372 28.1786 38.6952 28.1468 38.7835C28.1082 38.8925 28.1206 38.9519 28.0875 39.0637C28.0461 39.2044 28.0295 39.1437 27.9867 39.3024C27.9577 39.4128 27.9619 39.4721 27.9205 39.5756L27.7493 40.0821C27.6927 40.198 27.7065 40.2367 27.672 40.3443C27.6403 40.445 27.6016 40.4933 27.5699 40.5803L27.1006 41.8043C27.0537 41.9244 27.0302 41.9216 26.9764 42.0527L26.8674 42.2832C26.8177 42.395 26.8108 42.4143 26.7583 42.5123C26.5596 42.878 26.3981 43.2727 26.1828 43.6301L25.5299 44.6706C25.2277 45.1426 24.8619 45.6145 24.4907 46.0354C24.4313 46.103 24.3816 46.1362 24.3236 46.2065C24.2022 46.3514 24.1387 46.4301 24.0007 46.5598C23.962 46.5957 23.9468 46.6081 23.9123 46.6399L23.824 46.7213C23.7743 46.7641 23.7798 46.7558 23.7343 46.8013C23.4113 47.1173 22.9034 47.552 22.5252 47.8267C22.401 47.9164 22.1898 48.0019 22.1484 48.1606L22.1512 48.1579Z" fill="white"/>
<path fill-rule="evenodd" clip-rule="evenodd" d="M175.347 50.3465H157.939L155.387 57.0119H172.795L175.347 50.3465Z" fill="#4550A2"/>
<path fill-rule="evenodd" clip-rule="evenodd" d="M176.913 50.3465L174.359 57.0119H191.768L194.32 50.3465H176.913Z" fill="#F15F34"/>
<path fill-rule="evenodd" clip-rule="evenodd" d="M195.88 50.3465L193.328 57.0119H210.737L213.289 50.3465H195.88Z" fill="#F7BB44"/>
<path fill-rule="evenodd" clip-rule="evenodd" d="M214.853 50.3465L212.301 57.0119H229.708L232.261 50.3465H214.853Z" fill="#ED2125"/>
</svg>
