<svg width="1440" height="788" viewBox="0 0 1440 788" fill="none" xmlns="http://www.w3.org/2000/svg">
<g clip-path="url(#clip0_1556_24)">
<path d="M720 118C928.588 118 1117.38 176.044 1254.01 269.836C1390.63 363.631 1475 493.107 1475 636C1475 778.893 1390.63 908.369 1254.01 1002.16C1117.38 1095.96 928.588 1154 720 1154C511.412 1154 322.615 1095.96 185.993 1002.16C49.3665 908.369 -35 778.893 -35 636C-35 493.107 49.3665 363.631 185.993 269.836C322.615 176.044 511.412 118 720 118Z" stroke="url(#paint0_linear_1556_24)" stroke-width="2"/>
<path d="M720 308C928.588 308 1117.38 366.044 1254.01 459.836C1390.63 553.631 1475 683.107 1475 826C1475 968.893 1390.63 1098.37 1254.01 1192.16C1117.38 1285.96 928.588 1344 720 1344C511.412 1344 322.615 1285.96 185.993 1192.16C49.3665 1098.37 -35 968.893 -35 826C-35 683.107 49.3665 553.631 185.993 459.836C322.615 366.044 511.412 308 720 308Z" stroke="url(#paint1_linear_1556_24)" stroke-width="2"/>
<path d="M720 537C928.588 537 1117.38 595.044 1254.01 688.836C1390.63 782.631 1475 912.107 1475 1055C1475 1197.89 1390.63 1327.37 1254.01 1421.16C1117.38 1514.96 928.588 1573 720 1573C511.412 1573 322.615 1514.96 185.993 1421.16C49.3665 1327.37 -35 1197.89 -35 1055C-35 912.107 49.3665 782.631 185.993 688.836C322.615 595.044 511.412 537 720 537Z" stroke="url(#paint2_linear_1556_24)" stroke-width="2"/>
<rect x="168" y="158" width="140" height="140" rx="70" fill="#F3F3F3"/>
<path d="M214.812 261.594L209.656 203.719H266.344L261.188 261.562L237.953 268" fill="#FF4C1E"/>
<path d="M238 263.078V208.469H261.172L256.75 257.844L238 263.078Z" fill="#FF651E"/>
<path d="M220.188 215.547H238L240.649 219.094L238 222.641H227.969L228.625 229.906H238L240.649 233.586L238 236.984H222.125L220.188 215.547ZM222.437 240.547H229.562L230.062 246.219L238 248.344L240.989 251.884L238 255.75L223.438 251.688L222.437 240.547Z" fill="#EBEBEB"/>
<path d="M255.75 215.547H237.969V222.641H255.094L255.75 215.547ZM254.453 229.906H237.969V237H246.719L245.891 246.219L237.969 248.344V255.719L252.5 251.688L254.453 229.906Z" fill="white"/>
<rect x="419" y="268" width="140" height="140" rx="70" fill="#F3F3F3"/>
<g clip-path="url(#clip1_1556_24)">
<path fill-rule="evenodd" clip-rule="evenodd" d="M534 338.011C534 332.06 526.537 326.424 515.089 322.922C517.733 311.276 516.554 302.014 511.383 299.045C510.189 298.351 508.797 298.022 507.274 298.022V302.109C508.116 302.109 508.797 302.277 509.369 302.584C511.866 304.009 512.943 309.448 512.101 316.445C511.896 318.163 511.566 319.976 511.163 321.825C507.567 320.948 503.641 320.268 499.518 319.829C497.042 316.445 494.471 313.367 491.886 310.677C497.862 305.121 503.473 302.087 507.289 302.087V298C502.242 298 495.643 301.59 488.963 307.818C482.284 301.626 475.685 298.073 470.638 298.073V302.16C474.432 302.16 480.064 305.179 486.048 310.691C483.478 313.382 480.914 316.437 478.475 319.829C474.33 320.268 470.404 320.948 466.808 321.84C466.383 320.012 466.075 318.236 465.855 316.532C464.991 309.536 466.061 304.097 468.536 302.65C469.085 302.321 469.803 302.174 470.646 302.174V298.095C469.107 298.095 467.708 298.424 466.5 299.119C461.344 302.087 460.187 311.335 462.853 322.944C451.427 326.453 444 332.075 444 338.011C444 343.962 451.463 349.598 462.911 353.1C460.267 364.746 461.446 374.008 466.617 376.977C467.811 377.671 469.203 378 470.748 378C475.794 378 482.394 374.41 489.073 368.182C495.753 374.374 502.352 377.927 507.398 377.927C508.937 377.927 510.335 377.598 511.544 376.903C516.7 373.935 517.857 364.687 515.191 353.078C526.573 349.584 534 343.94 534 338.011ZM497.364 338.011C497.364 333.391 493.614 329.64 488.978 329.64C484.349 329.64 480.592 333.383 480.592 338.011C480.592 342.639 484.342 346.382 488.978 346.382C493.614 346.374 497.364 342.631 497.364 338.011ZM510.116 325.795C509.435 328.156 508.592 330.591 507.64 333.025C506.886 331.563 506.102 330.094 505.238 328.631C504.396 327.169 503.495 325.736 502.594 324.347C505.201 324.735 507.713 325.21 510.116 325.795ZM501.715 345.3C500.287 347.771 498.814 350.117 497.291 352.296C494.559 352.537 491.791 352.661 489 352.661C486.231 352.661 483.463 352.53 480.746 352.311C479.222 350.132 477.735 347.807 476.307 345.351C474.916 342.953 473.648 340.519 472.491 338.062C473.626 335.606 474.916 333.157 476.285 330.759C477.713 328.288 479.186 325.941 480.709 323.763C483.441 323.521 486.209 323.397 489 323.397C491.769 323.397 494.537 323.529 497.254 323.748C498.778 325.927 500.265 328.251 501.693 330.708C503.084 333.106 504.352 335.54 505.509 337.996C504.352 340.445 503.092 342.894 501.715 345.3ZM507.64 342.916C508.629 345.373 509.471 347.822 510.174 350.205C507.772 350.79 505.238 351.287 502.616 351.667C503.517 350.256 504.41 348.809 505.26 347.325C506.095 345.863 506.886 344.379 507.64 342.916ZM489.037 362.45C487.33 360.696 485.624 358.737 483.939 356.595C485.587 356.668 487.279 356.726 488.985 356.726C490.707 356.726 492.413 356.69 494.083 356.595C492.428 358.737 490.721 360.696 489.037 362.45ZM475.392 351.667C472.784 351.28 470.272 350.805 467.87 350.22C468.551 347.858 469.393 345.424 470.345 342.989C471.1 344.452 471.883 345.921 472.748 347.383C473.612 348.853 474.491 350.278 475.392 351.667ZM488.941 313.564C490.648 315.319 492.354 317.278 494.039 319.42C492.391 319.347 490.699 319.288 488.993 319.288C487.271 319.288 485.565 319.325 483.895 319.42C485.55 317.278 487.257 315.319 488.941 313.564ZM475.37 324.347C474.469 325.758 473.575 327.206 472.726 328.69C471.883 330.152 471.092 331.621 470.338 333.084C469.349 330.627 468.507 328.178 467.804 325.795C470.213 325.225 472.748 324.735 475.37 324.347ZM458.766 347.274C452.269 344.51 448.072 340.884 448.072 338.011C448.072 335.138 452.276 331.49 458.766 328.748C460.34 328.069 462.069 327.469 463.849 326.899C464.896 330.488 466.273 334.224 467.979 338.048C466.295 341.856 464.933 345.57 463.907 349.145C462.091 348.575 460.362 347.953 458.766 347.274ZM468.639 373.438C466.141 372.013 465.064 366.574 465.907 359.577C466.112 357.859 466.441 356.046 466.844 354.197C470.44 355.074 474.366 355.754 478.49 356.192C480.965 359.577 483.536 362.655 486.122 365.345C480.138 370.894 474.527 373.935 470.711 373.935C469.884 373.913 469.188 373.753 468.639 373.438ZM512.152 359.49C513.016 366.486 511.947 371.925 509.471 373.372C508.922 373.701 508.204 373.848 507.362 373.848C503.568 373.848 497.936 370.828 491.952 365.316C494.522 362.626 497.086 359.57 499.525 356.178C503.67 355.739 507.596 355.059 511.192 354.16C511.617 356.01 511.947 357.786 512.152 359.49ZM519.212 347.274C517.638 347.953 515.909 348.553 514.129 349.123C513.082 345.534 511.705 341.798 509.999 337.974C511.683 334.166 513.045 330.452 514.071 326.877C515.887 327.447 517.608 328.069 519.227 328.741C525.724 331.505 529.92 335.131 529.92 338.004C529.906 340.884 525.709 344.525 519.212 347.274Z" fill="#00D8FF"/>
</g>
<rect x="936" y="68" width="140" height="140" rx="70" fill="#F3F3F3"/>
<g clip-path="url(#clip2_1556_24)">
<path fill-rule="evenodd" clip-rule="evenodd" d="M1044.61 143.936C1040.86 143.954 1037.62 144.857 1034.91 146.186C1033.91 144.205 1032.9 142.477 1032.73 141.183C1032.54 139.68 1032.31 138.768 1032.54 136.971C1032.77 135.181 1033.81 132.637 1033.81 132.428C1033.79 132.237 1033.58 131.325 1031.42 131.299C1029.27 131.282 1027.41 131.716 1027.2 132.281C1026.99 132.845 1026.57 134.139 1026.3 135.468C1025.93 137.431 1022 144.37 1019.76 148.018C1019.03 146.603 1018.41 145.352 1018.28 144.353C1018.09 142.851 1017.87 141.939 1018.09 140.141C1018.32 138.352 1019.36 135.807 1019.36 135.598C1019.35 135.407 1019.14 134.495 1016.98 134.469C1014.83 134.452 1012.96 134.886 1012.76 135.451C1012.55 136.015 1012.32 137.344 1011.86 138.638C1011.42 139.932 1006.2 151.518 1004.84 154.541C1004.15 156.087 1003.54 157.312 1003.11 158.145C1002.67 158.979 1003.09 158.206 1003.05 158.293C1002.67 159.005 1002.46 159.396 1002.46 159.396V159.413C1002.17 159.934 1001.85 160.438 1001.71 160.438C1001.61 160.438 1001.4 159.04 1001.76 157.12C1002.53 153.099 1004.41 146.82 1004.39 146.594C1004.39 146.49 1004.74 145.387 1003.18 144.822C1001.65 144.258 1001.1 145.196 1000.98 145.196C1000.86 145.196 1000.76 145.526 1000.76 145.526C1000.76 145.526 1002.45 138.456 997.517 138.456C994.426 138.456 990.159 141.808 988.052 144.874C986.711 145.604 983.872 147.15 980.859 148.791C979.71 149.417 978.517 150.085 977.393 150.685L977.167 150.433C971.185 144.101 960.126 139.602 960.588 131.056C960.753 127.947 961.841 119.756 981.826 109.838C998.187 101.708 1011.29 103.941 1013.57 108.9C1016.81 115.987 1006.57 129.163 989.558 131.056C983.08 131.786 979.675 129.284 978.813 128.346C977.916 127.365 977.785 127.321 977.454 127.512C976.914 127.808 977.245 128.676 977.454 129.197C977.959 130.509 980.049 132.845 983.602 134.009C986.719 135.034 994.321 135.59 1003.52 132.046C1013.82 128.068 1021.86 117.012 1019.5 107.779C1017.1 98.3906 1001.47 95.2987 986.693 100.536C977.898 103.663 968.364 108.544 961.511 114.945C953.36 122.527 952.063 129.154 952.603 131.907C954.501 141.73 968.067 148.122 973.501 152.856C973.231 153.004 972.979 153.151 972.752 153.273C970.035 154.61 959.691 160.004 957.096 165.719C954.17 172.181 957.557 176.836 959.813 177.461C966.796 179.398 973.945 175.915 977.811 170.183C981.66 164.451 981.199 157.008 979.422 153.612L979.361 153.49L981.495 152.239C982.871 151.423 984.229 150.676 985.422 150.033C984.751 151.848 984.272 153.994 984.02 157.12C983.724 160.786 985.23 165.545 987.216 167.421C988.095 168.238 989.14 168.255 989.784 168.255C992.083 168.255 993.128 166.362 994.278 164.086C995.697 161.315 996.951 158.102 996.951 158.102C996.951 158.102 995.383 166.796 999.668 166.796C1001.24 166.796 1002.8 164.772 1003.52 163.73V163.747C1003.52 163.747 1003.56 163.686 1003.64 163.539C1003.73 163.409 1003.81 163.278 1003.89 163.139V163.096C1004.52 162.01 1005.92 159.535 1008.01 155.427C1010.71 150.129 1013.3 143.502 1013.3 143.502C1013.3 143.502 1013.55 145.126 1014.32 147.792C1014.78 149.373 1015.79 151.11 1016.56 152.795C1015.93 153.672 1015.56 154.167 1015.56 154.167L1015.58 154.185C1015.07 154.854 1014.51 155.557 1013.92 156.269C1011.79 158.814 1009.24 161.706 1008.91 162.54C1008.51 163.521 1008.59 164.251 1009.37 164.833C1009.93 165.25 1010.94 165.337 1012 165.25C1013.92 165.128 1015.25 164.642 1015.92 164.355C1016.97 163.982 1018.16 163.417 1019.31 162.583C1021.4 161.037 1022.67 158.849 1022.55 155.931C1022.49 154.324 1021.97 152.743 1021.31 151.241C1021.51 150.971 1021.69 150.702 1021.88 150.407C1025.18 145.595 1027.73 140.297 1027.73 140.297C1027.73 140.297 1027.99 141.921 1028.76 144.588C1029.16 145.942 1029.95 147.419 1030.66 148.878C1027.57 151.397 1025.63 154.315 1024.95 156.235C1023.72 159.778 1024.68 161.385 1026.5 161.758C1027.32 161.923 1028.49 161.55 1029.37 161.176C1030.46 160.82 1031.77 160.221 1032.98 159.318C1035.07 157.772 1037.08 155.627 1036.97 152.734C1036.91 151.397 1036.55 150.085 1036.07 148.835C1038.7 147.749 1042.12 147.124 1046.44 147.645C1055.74 148.73 1057.57 154.524 1057.23 156.938C1056.87 159.353 1054.93 160.69 1054.28 161.107C1053.64 161.506 1053.43 161.645 1053.49 161.941C1053.58 162.375 1053.86 162.358 1054.43 162.271C1055.21 162.149 1059.32 160.291 1059.49 155.826C1059.74 150.129 1054.28 143.875 1044.61 143.936ZM972.883 168.055C969.809 171.408 965.481 172.684 963.644 171.599C961.659 170.452 962.434 165.51 966.213 161.949C968.512 159.778 971.498 157.781 973.466 156.547C973.902 156.278 974.572 155.878 975.365 155.401C975.486 155.314 975.573 155.279 975.573 155.279C975.722 155.192 975.887 155.088 976.052 154.984C977.454 160.073 976.122 164.529 972.883 168.055ZM995.349 152.821C994.286 155.427 992.022 162.123 990.664 161.741C989.497 161.428 988.783 156.365 990.438 151.362C991.273 148.843 993.05 145.838 994.095 144.674C995.784 142.798 997.63 142.173 998.083 142.946C998.631 143.936 996.019 151.188 995.349 152.821ZM1013.89 161.654C1013.43 161.88 1013.01 162.054 1012.82 161.923C1012.68 161.837 1013.02 161.524 1013.02 161.524C1013.02 161.524 1015.33 159.04 1016.26 157.893C1016.78 157.225 1017.41 156.452 1018.08 155.583V155.835C1018.07 158.84 1015.18 160.846 1013.89 161.654ZM1028.19 158.406C1027.85 158.154 1027.89 157.381 1029.02 154.966C1029.46 154.011 1030.47 152.404 1032.2 150.884C1032.41 151.51 1032.53 152.118 1032.51 152.674C1032.49 156.426 1029.81 157.824 1028.19 158.406Z" fill="#CF649A"/>
</g>
<rect x="1033" y="316" width="140" height="140" rx="70" fill="#F3F3F3"/>
<g clip-path="url(#clip3_1556_24)">
<path d="M1080.45 384.682C1080.45 384.682 1080.45 384.693 1080.45 384.699L1079.03 390.92C1078.95 391.272 1078.61 391.53 1078.2 391.53H1076.49C1076.36 391.53 1076.25 391.615 1076.21 391.738C1074.63 397.156 1072.49 400.881 1069.66 403.117C1067.25 405.021 1064.29 405.908 1060.32 405.908C1056.76 405.908 1054.36 404.752 1052.32 402.47C1049.63 399.453 1048.52 394.516 1049.19 388.566C1050.41 377.397 1056.15 366.127 1067.2 366.127C1070.56 366.096 1073.2 367.143 1075.04 369.233C1076.98 371.442 1077.96 374.771 1077.97 379.128C1077.96 379.523 1077.63 379.842 1077.24 379.842H1069.15C1068.86 379.842 1068.6 379.582 1068.61 379.296C1068.54 376.284 1067.66 374.815 1065.9 374.815C1062.79 374.815 1060.96 379.069 1059.99 381.427C1058.63 384.721 1057.94 388.297 1058.08 391.86C1058.14 393.519 1058.41 395.851 1059.97 396.817C1061.35 397.674 1063.33 397.106 1064.52 396.157C1065.72 395.209 1066.68 393.567 1067.08 392.07C1067.14 391.862 1067.14 391.7 1067.09 391.628C1067.03 391.554 1066.87 391.537 1066.75 391.537H1064.67C1064.45 391.537 1064.23 391.434 1064.1 391.268C1063.98 391.128 1063.94 390.955 1063.98 390.785L1065.4 384.553C1065.47 384.234 1065.76 383.993 1066.11 383.95V383.934H1079.76C1079.79 383.934 1079.82 383.934 1079.85 383.941C1080.21 383.987 1080.46 384.319 1080.45 384.682H1080.45Z" fill="#0E100F"/>
<path d="M1103.95 377.532C1103.94 377.921 1103.61 378.24 1103.22 378.24H1095.76C1095.28 378.24 1094.87 377.84 1094.87 377.353C1094.87 375.156 1094.11 374.087 1092.57 374.087C1091.03 374.087 1090.04 375.043 1090.01 376.71C1089.98 378.57 1091.02 380.26 1093.99 383.165C1097.89 386.863 1099.46 390.14 1099.38 394.47C1099.26 401.473 1094.54 406 1087.37 406C1083.7 406 1080.9 405.01 1079.04 403.058C1077.15 401.075 1076.28 398.166 1076.46 394.411C1076.47 394.022 1076.79 393.705 1077.19 393.705H1084.9C1085.11 393.705 1085.32 393.808 1085.46 393.983C1085.58 394.133 1085.63 394.319 1085.6 394.494C1085.51 395.849 1085.75 396.861 1086.27 397.421C1086.61 397.784 1087.08 397.967 1087.67 397.967C1089.1 397.967 1089.93 396.951 1089.96 395.18C1089.99 393.65 1089.51 392.308 1086.9 389.596C1083.52 386.267 1080.5 382.828 1080.59 377.421C1080.65 374.286 1081.88 371.419 1084.07 369.346C1086.38 367.156 1089.54 366 1093.21 366C1096.88 366.026 1099.67 367.084 1101.49 369.145C1103.21 371.099 1104.04 373.921 1103.95 377.532H1103.95Z" fill="#0E100F"/>
<path d="M1127.06 404.682L1127.11 367.438C1127.12 367.047 1126.8 366.728 1126.41 366.728H1114.87C1114.48 366.728 1114.31 367.064 1114.2 367.287L1097.49 404.454V404.461C1097.49 404.461 1097.48 404.467 1097.48 404.47C1097.29 404.926 1097.65 405.416 1098.14 405.416H1106.2C1106.64 405.416 1106.93 405.283 1107.07 405.005L1108.67 401.119C1108.87 400.601 1108.91 400.553 1109.47 400.553H1117.18C1117.71 400.553 1117.72 400.564 1117.71 401.093L1117.54 404.706C1117.54 405.097 1117.85 405.416 1118.24 405.416H1126.39C1126.6 405.416 1126.79 405.329 1126.92 405.174C1127.04 405.036 1127.09 404.861 1127.06 404.682ZM1112.78 392.247C1112.71 392.247 1112.65 392.245 1112.6 392.24C1112.48 392.229 1112.4 392.113 1112.43 391.995C1112.44 391.941 1112.47 391.869 1112.5 391.779L1118.28 377.342C1118.33 377.2 1118.39 377.06 1118.46 376.924C1118.55 376.73 1118.67 376.717 1118.7 376.861C1118.73 376.981 1118.04 391.685 1118.04 391.685C1117.98 392.236 1117.96 392.258 1117.42 392.304L1112.79 392.249H1112.78L1112.78 392.247Z" fill="#0E100F"/>
<path d="M1143.5 366.728H1137.38C1137.05 366.728 1136.69 366.901 1136.6 367.29C1136.6 367.29 1128.08 404.658 1128.08 404.662C1128.04 404.835 1128.08 405.006 1128.19 405.148C1128.33 405.314 1128.55 405.417 1128.77 405.417H1136.43C1136.84 405.417 1137.12 405.213 1137.2 404.859C1137.2 404.859 1138.13 400.636 1138.13 400.623C1138.19 400.293 1138.08 400.037 1137.79 399.882C1137.65 399.81 1137.51 399.738 1137.38 399.666L1136.05 398.968L1134.73 398.273C1134.56 398.184 1134.38 398.094 1134.22 398.004C1134.13 397.961 1134.08 397.873 1134.08 397.777C1134.08 397.635 1134.2 397.519 1134.34 397.519L1138.54 397.539C1139.8 397.545 1141.05 397.456 1142.29 397.226C1150.98 395.607 1156.75 388.579 1156.92 379.019C1157.06 370.859 1152.55 366.724 1143.51 366.724L1143.5 366.728ZM1141.42 388.968H1141.25C1140.89 388.968 1140.82 388.927 1140.81 388.914C1140.8 388.905 1143.23 378.151 1143.23 378.136C1143.29 377.825 1143.29 377.646 1143.1 377.541C1142.86 377.406 1139.31 375.519 1139.31 375.519C1139.23 375.473 1139.18 375.386 1139.18 375.29C1139.18 375.15 1139.3 375.034 1139.44 375.034H1145.04C1146.79 375.089 1147.76 376.662 1147.71 379.351C1147.63 384.007 1145.44 388.804 1141.42 388.968Z" fill="#0E100F"/>
<path d="M1149.73 405.417C1151 405.417 1151.98 404.448 1151.98 403.143C1151.98 401.838 1151 400.87 1149.73 400.87C1148.47 400.87 1147.48 401.838 1147.48 403.143C1147.48 404.448 1148.47 405.417 1149.73 405.417ZM1148.01 403.135C1148.01 402.026 1148.67 401.301 1149.73 401.301C1150.8 401.301 1151.45 402.024 1151.45 403.135C1151.45 404.245 1150.8 404.975 1149.73 404.975C1148.67 404.975 1148.01 404.252 1148.01 403.135ZM1148.75 404.354H1149.46V403.48H1149.67C1150.21 403.48 1149.97 404.252 1150.1 404.354H1150.85V404.317C1150.71 404.28 1150.93 403.312 1150.31 403.209V403.198C1150.61 403.135 1150.81 402.916 1150.81 402.588C1150.81 402.118 1150.47 401.865 1149.92 401.865H1148.74V404.354H1148.75ZM1149.46 402.953V402.37H1149.71C1149.95 402.37 1150.09 402.446 1150.09 402.66C1150.09 402.857 1149.95 402.951 1149.71 402.951H1149.46V402.953Z" fill="#0E100F"/>
</g>
<rect x="720" y="246" width="140" height="140" rx="70" fill="#F3F3F3"/>
<path d="M822.244 291.104L790.577 279.438C790.205 279.301 789.797 279.301 789.425 279.438L757.758 291.104C757.408 291.233 757.11 291.476 756.915 291.794C756.719 292.113 756.636 292.488 756.679 292.859L761.679 336.192C761.709 336.453 761.8 336.704 761.946 336.923C762.092 337.142 762.288 337.323 762.517 337.452L789.184 352.452C789.433 352.593 789.715 352.667 790.001 352.667C790.287 352.667 790.569 352.593 790.818 352.452L817.485 337.452C817.714 337.323 817.91 337.142 818.056 336.923C818.202 336.704 818.293 336.453 818.323 336.192L823.323 292.859C823.366 292.488 823.283 292.113 823.087 291.794C822.892 291.476 822.595 291.233 822.244 291.104Z" fill="black"/>
<path d="M815.111 334.963L790.001 349.09L764.891 334.963L760.141 293.776L790.001 282.776L819.861 293.776L815.111 334.963Z" fill="#FF1744"/>
<path opacity="0.1" d="M789.418 282.993V348.763L790.001 349.09L815.111 334.963L819.861 293.776L790.001 282.776L789.418 282.993Z" fill="black"/>
<path d="M788.464 290.352L770.131 333.685C769.959 334.092 769.956 334.551 770.123 334.96C770.289 335.369 770.611 335.696 771.018 335.868C771.425 336.039 771.884 336.043 772.293 335.876C772.702 335.71 773.029 335.388 773.201 334.981L778.411 322.666H801.588L806.798 334.981C806.925 335.283 807.138 335.541 807.411 335.722C807.684 335.903 808.005 336 808.333 336C808.556 335.999 808.776 335.955 808.982 335.869C809.389 335.697 809.71 335.37 809.876 334.96C810.042 334.551 810.039 334.092 809.867 333.685L791.534 290.352C791.387 290.072 791.167 289.837 790.896 289.674C790.626 289.51 790.315 289.424 789.999 289.424C789.683 289.424 789.373 289.51 789.103 289.674C788.832 289.837 788.611 290.072 788.464 290.352ZM800.177 319.333H779.821L789.999 295.277L800.177 319.333Z" fill="white"/>
<path d="M822.244 291.104L790.577 279.438C790.205 279.301 789.797 279.301 789.425 279.438L757.758 291.104C757.408 291.233 757.11 291.476 756.915 291.794C756.719 292.113 756.636 292.488 756.679 292.859L761.679 336.192C761.709 336.453 761.8 336.704 761.946 336.923C762.092 337.142 762.288 337.323 762.517 337.452L789.184 352.452C789.433 352.593 789.715 352.667 790.001 352.667C790.287 352.667 790.569 352.593 790.818 352.452L817.485 337.452C817.714 337.323 817.91 337.142 818.056 336.923C818.202 336.704 818.293 336.453 818.323 336.192L823.323 292.859C823.366 292.488 823.283 292.113 823.087 291.794C822.892 291.476 822.595 291.233 822.244 291.104Z" fill="url(#paint3_linear_1556_24)"/>
<rect x="936" y="509" width="140" height="140" rx="70" fill="#F3F3F3"/>
<g clip-path="url(#clip4_1556_24)">
<path d="M987.619 602.589H986.864L983.094 598.799V598.04L988.857 592.245H992.851L993.383 592.781V596.795L987.619 602.589ZM983.094 559.72V558.96L986.864 555.17H987.619L993.383 560.964V564.979L992.851 565.514H988.857L983.094 559.72Z" fill="#05BDBA"/>
<path d="M1016.28 590.372H1010.8L1010.34 589.912V577.003C1010.34 574.707 1009.44 572.927 1006.69 572.864C1005.27 572.827 1003.65 572.864 1001.92 572.933L1001.66 573.2V589.905L1001.2 590.366H995.712L995.254 589.905V567.854L995.712 567.394H1008.06C1012.85 567.394 1016.74 571.302 1016.74 576.126V589.912L1016.28 590.372Z" fill="#014847"/>
<path d="M988.399 582.107H966.458L966 581.646V576.119L966.458 575.659H988.399L988.857 576.119V581.646L988.399 582.107ZM1045.54 582.107H1023.6L1023.14 581.646V576.119L1023.6 575.659H1045.54L1046 576.119V581.646L1045.54 582.107ZM1002.84 560.504V543.961L1003.29 543.5H1008.79L1009.25 543.961V560.504L1008.79 560.964H1003.29L1002.84 560.504ZM1002.84 613.805V597.262L1003.29 596.801H1008.79L1009.25 597.262V613.805L1008.79 614.265H1003.29L1002.84 613.805Z" fill="#05BDBA"/>
</g>
<rect x="1228" y="216" width="140" height="140" rx="70" fill="#F3F3F3"/>
<g clip-path="url(#clip5_1556_24)">
<path d="M1263.81 265.565C1256.72 275.747 1257.61 288.989 1263.01 299.808C1263.14 300.064 1263.28 300.317 1263.41 300.573C1263.49 300.736 1263.57 300.901 1263.66 301.064L1263.82 301.344C1263.91 301.515 1264.01 301.677 1264.11 301.848C1264.27 302.144 1264.44 302.437 1264.62 302.733C1264.72 302.896 1264.81 303.056 1264.91 303.219C1265.11 303.531 1265.31 303.843 1265.52 304.157C1265.6 304.288 1265.68 304.424 1265.77 304.552C1266.05 304.968 1266.34 305.389 1266.64 305.803C1266.65 305.813 1266.65 305.829 1266.66 305.835C1266.71 305.901 1266.76 305.971 1266.81 306.032C1267.07 306.392 1267.33 306.741 1267.6 307.085C1267.7 307.216 1267.8 307.341 1267.9 307.467C1268.14 307.768 1268.38 308.067 1268.63 308.368C1268.72 308.477 1268.81 308.592 1268.91 308.701C1269.24 309.091 1269.58 309.483 1269.93 309.864C1269.93 309.869 1269.95 309.88 1269.95 309.885C1269.97 309.907 1269.98 309.912 1269.99 309.933C1270.33 310.304 1270.68 310.661 1271.03 311.021C1271.13 311.136 1271.24 311.245 1271.36 311.355C1271.63 311.632 1271.91 311.901 1272.19 312.168C1272.3 312.277 1272.41 312.387 1272.52 312.491C1272.9 312.84 1273.27 313.184 1273.66 313.523C1273.66 313.528 1273.67 313.533 1273.68 313.533C1273.74 313.595 1273.81 313.648 1273.87 313.704C1274.21 313.995 1274.55 314.288 1274.9 314.573C1275.04 314.688 1275.19 314.797 1275.33 314.912C1275.61 315.136 1275.9 315.36 1276.19 315.584C1276.34 315.699 1276.49 315.813 1276.64 315.933C1276.96 316.168 1277.28 316.397 1277.6 316.621C1277.72 316.709 1277.84 316.792 1277.96 316.872C1277.99 316.893 1278.02 316.92 1278.05 316.939C1278.36 317.152 1278.67 317.355 1278.99 317.557C1279.12 317.645 1279.26 317.739 1279.39 317.829C1279.88 318.131 1280.36 318.435 1280.85 318.725C1280.99 318.803 1281.13 318.877 1281.26 318.955C1281.63 319.163 1281.99 319.365 1282.36 319.568C1282.56 319.677 1282.76 319.776 1282.97 319.88C1283.23 320.016 1283.49 320.157 1283.75 320.285C1283.81 320.317 1283.88 320.347 1283.93 320.373C1284.04 320.427 1284.15 320.477 1284.25 320.531C1284.67 320.728 1285.08 320.92 1285.5 321.109C1285.59 321.152 1285.68 321.187 1285.77 321.224C1286.25 321.437 1286.73 321.64 1287.22 321.829C1287.34 321.883 1287.45 321.923 1287.57 321.971C1288.03 322.147 1288.49 322.32 1288.95 322.48C1289 322.501 1289.06 322.517 1289.12 322.536C1289.62 322.712 1290.13 322.88 1290.65 323.037C1290.77 323.075 1290.89 323.115 1291.02 323.147C1291.54 323.309 1292.05 323.496 1292.6 323.595C1326.85 329.84 1336.8 303.011 1336.8 303.011C1328.44 313.896 1313.61 316.771 1299.55 313.573C1299.02 313.453 1298.51 313.288 1297.99 313.131C1297.85 313.093 1297.72 313.053 1297.6 313.011C1297.09 312.859 1296.59 312.693 1296.09 312.52C1296.02 312.493 1295.95 312.472 1295.88 312.448C1295.43 312.285 1294.99 312.125 1294.55 311.952C1294.42 311.899 1294.3 311.853 1294.17 311.805C1293.69 311.613 1293.21 311.416 1292.73 311.205C1292.64 311.163 1292.55 311.123 1292.45 311.08C1292.04 310.893 1291.64 310.704 1291.24 310.512C1291.12 310.459 1291 310.403 1290.88 310.344C1290.57 310.187 1290.26 310.027 1289.95 309.864C1289.74 309.755 1289.53 309.651 1289.32 309.536C1288.94 309.333 1288.57 309.125 1288.2 308.907C1288.07 308.84 1287.94 308.771 1287.81 308.699C1287.32 308.408 1286.84 308.104 1286.35 307.797C1286.22 307.715 1286.09 307.627 1285.96 307.536C1285.61 307.312 1285.26 307.077 1284.91 306.843C1284.8 306.765 1284.69 306.68 1284.58 306.608C1284.25 306.373 1283.92 306.133 1283.59 305.893C1283.44 305.784 1283.3 305.675 1283.16 305.56C1282.86 305.336 1282.56 305.107 1282.27 304.867C1282.13 304.763 1282 304.653 1281.87 304.549C1281.5 304.243 1281.13 303.936 1280.77 303.616C1280.73 303.584 1280.69 303.549 1280.64 303.512C1280.25 303.168 1279.86 302.813 1279.48 302.456C1279.36 302.355 1279.25 302.251 1279.15 302.147C1278.87 301.875 1278.59 301.605 1278.31 301.323C1278.2 301.213 1278.09 301.109 1277.98 301C1277.64 300.64 1277.29 300.28 1276.96 299.912C1276.94 299.896 1276.92 299.875 1276.91 299.859C1276.55 299.469 1276.2 299.072 1275.87 298.672C1275.77 298.563 1275.68 298.459 1275.59 298.349C1275.34 298.048 1275.09 297.736 1274.84 297.421C1274.75 297.312 1274.66 297.197 1274.57 297.083C1274.27 296.696 1273.98 296.317 1273.7 295.931C1265.9 285.288 1263.09 270.611 1269.33 258.555" fill="black"/>
<path d="M1285.79 256.987C1280.67 264.363 1280.95 274.227 1284.94 282.024C1285.61 283.331 1286.36 284.597 1287.21 285.805C1287.98 286.904 1288.83 288.216 1289.84 289.093C1290.22 289.499 1290.6 289.901 1291 290.285C1291.1 290.389 1291.2 290.488 1291.3 290.587C1291.68 290.957 1292.07 291.32 1292.47 291.675C1292.49 291.691 1292.5 291.707 1292.52 291.717C1292.52 291.723 1292.53 291.723 1292.53 291.728C1292.98 292.117 1293.44 292.493 1293.9 292.864C1294.01 292.941 1294.11 293.027 1294.22 293.109C1294.68 293.469 1295.16 293.819 1295.65 294.157C1295.66 294.168 1295.68 294.179 1295.69 294.189C1295.91 294.341 1296.13 294.475 1296.35 294.621C1296.45 294.688 1296.55 294.763 1296.66 294.824C1297 295.048 1297.36 295.267 1297.72 295.475C1297.77 295.507 1297.82 295.531 1297.87 295.563C1298.18 295.739 1298.49 295.917 1298.81 296.088C1298.92 296.149 1299.03 296.203 1299.14 296.259C1299.36 296.373 1299.58 296.488 1299.8 296.603C1299.84 296.619 1299.87 296.635 1299.9 296.645C1300.35 296.869 1300.81 297.083 1301.27 297.285C1301.37 297.328 1301.47 297.368 1301.58 297.411C1301.95 297.568 1302.32 297.723 1302.7 297.864C1302.86 297.925 1303.02 297.984 1303.18 298.04C1303.52 298.171 1303.87 298.285 1304.22 298.4C1304.37 298.453 1304.52 298.504 1304.68 298.552C1305.18 298.704 1305.66 298.901 1306.18 298.984C1332.62 303.365 1338.73 283.008 1338.73 283.008C1333.22 290.928 1322.56 294.715 1311.19 291.76C1310.69 291.624 1310.19 291.483 1309.69 291.328C1309.54 291.28 1309.4 291.229 1309.24 291.181C1308.89 291.067 1308.54 290.947 1308.19 290.816C1308.03 290.76 1307.88 290.701 1307.72 290.645C1307.34 290.499 1306.97 290.349 1306.59 290.187C1306.49 290.144 1306.39 290.104 1306.29 290.061C1305.82 289.859 1305.36 289.64 1304.91 289.416C1304.67 289.307 1304.44 289.187 1304.22 289.067C1304.08 289 1303.95 288.925 1303.82 288.859C1303.52 288.701 1303.23 288.536 1302.94 288.371C1302.87 288.328 1302.8 288.293 1302.73 288.253C1302.38 288.045 1302.02 287.827 1301.68 287.608C1301.57 287.536 1301.46 287.461 1301.35 287.395C1301.12 287.243 1300.9 287.093 1300.67 286.936C1300.18 286.603 1299.71 286.248 1299.24 285.893C1299.13 285.805 1299.02 285.723 1298.92 285.637C1293.94 281.704 1289.99 276.336 1288.11 270.243C1286.15 263.925 1286.57 256.837 1289.98 251.08" fill="black"/>
<path d="M1304.28 250.582C1301.26 255.024 1300.97 260.544 1303.06 265.451C1305.27 270.664 1309.8 274.747 1315.08 276.686C1315.3 276.768 1315.52 276.843 1315.74 276.915C1315.84 276.947 1315.93 276.976 1316.03 277.008C1316.34 277.102 1316.65 277.216 1316.97 277.28C1331.58 280.104 1335.53 269.784 1336.59 268.264C1333.12 273.264 1327.29 274.462 1320.13 272.723C1319.57 272.587 1318.95 272.384 1318.41 272.192C1317.7 271.942 1317.02 271.656 1316.35 271.339C1315.08 270.728 1313.87 269.99 1312.74 269.142C1306.34 264.283 1302.36 255.016 1306.54 247.47" fill="black"/>
</g>
<rect x="529" y="38" width="140" height="140" rx="70" fill="#F3F3F3"/>
<path d="M627.337 83.7217L622.174 141.565L598.964 148L575.818 141.574L570.66 83.7217H627.337Z" fill="#004CE8"/>
<path d="M617.755 137.882L622.167 88.4521H599V143.082L617.755 137.882Z" fill="#0065F4"/>
<path d="M582.484 109.909L583.12 117.004H598.998L602.05 113.457L598.998 109.909H582.484Z" fill="#EBEBEB"/>
<path d="M598.999 95.5479H598.974H581.207L581.852 102.643H598.999L602.051 99.0955L598.999 95.5479Z" fill="#EBEBEB"/>
<path d="M598.999 135.718L602.051 131.956L598.999 128.336L598.968 128.344L591.065 126.211L590.56 120.552H586.72H583.438L584.432 131.693L598.966 135.727L598.999 135.718Z" fill="#EBEBEB"/>
<path d="M607.71 117.004L606.886 126.207L598.973 128.343V135.724L613.519 131.693L613.625 130.494L615.293 111.814L615.466 109.909L616.747 95.5479H598.973V102.643H608.971L608.325 109.909H598.973V117.004H607.71Z" fill="white"/>
<rect x="110" y="396" width="140" height="140" rx="70" fill="#F3F3F3"/>
<g clip-path="url(#clip6_1556_24)">
<path d="M140 426L146.667 499.333L180 506L213.333 499.333L220 426H140ZM176.667 491.732L159.043 488.213L157.933 476H164.629L165.232 482.653L170 483.604V439.333H176.667V491.732H176.667ZM204.792 446H190V462.667H203.278L200.957 488.214L183.333 491.733V484.936L194.766 482.654L195.977 469.334H183.333V439.334H205.397L204.792 446Z" fill="black"/>
</g>
<rect x="304" y="509" width="140" height="140" rx="70" fill="#F3F3F3"/>
<g clip-path="url(#clip7_1556_24)">
<path d="M374.001 619C351.834 619 333.834 601.333 334.001 579C334.168 556.667 351.001 539 374.001 539C397.003 539 414.001 557 414.001 579C414.001 601 396.168 619 374.001 619ZM385.834 612.833L374.501 582.333L363.834 613.5C371.668 615.334 377.001 615.833 385.834 612.833ZM358.168 611.167L341.168 564.667C338.834 569.667 338.336 573.834 338.001 579C338.168 592.666 345.834 605.166 358.168 611.167ZM409.836 579C410.001 570.167 406.003 563.167 405.668 562.167C406.003 569.002 405.001 572.5 403.836 576.334L392.168 609.834C406.836 601 409.667 587.833 410.001 579H409.836ZM372.836 577.5L367.168 562L363.001 561.667C361.336 560.5 362.334 558.667 363.501 558.667C371.001 559.167 375.167 559.167 382.668 558.667C384.503 558.667 385.001 561.334 382.834 561.667L378.834 562L391.832 600.333L397.998 579.333C398.332 570.167 395.831 569.167 392.498 562.5C389.831 557.333 392.665 552.333 397.832 552.167C393.664 548.167 385.165 543.167 373.998 543C362.831 542.833 350.998 548.5 343.998 559.167L356.332 558.834C357.832 559.502 357.165 561.667 356.332 561.834L352 562.167L365 601.167L372.836 577.5Z" fill="#21759B"/>
</g>
<rect x="630" y="461" width="140" height="140" rx="70" fill="#F3F3F3"/>
<g clip-path="url(#clip8_1556_24)">
<path d="M699.549 555.358C699.278 555.358 699.026 555.286 698.791 555.16L696.389 553.735C696.028 553.537 696.209 553.465 696.317 553.429C696.805 553.266 696.895 553.23 697.401 552.942C697.455 552.906 697.527 552.924 697.581 552.96L699.423 554.06C699.495 554.096 699.585 554.096 699.639 554.06L706.844 549.894C706.916 549.858 706.952 549.785 706.952 549.695V541.381C706.952 541.29 706.916 541.219 706.844 541.182L699.639 537.034C699.567 536.998 699.477 536.998 699.423 537.034L692.218 541.182C692.146 541.218 692.11 541.309 692.11 541.381V549.695C692.11 549.767 692.146 549.857 692.218 549.894L694.187 551.03C695.252 551.571 695.92 550.94 695.92 550.308V542.102C695.92 541.994 696.01 541.886 696.137 541.886H697.057C697.166 541.886 697.274 541.976 697.274 542.102V550.308C697.274 551.733 696.498 552.563 695.143 552.563C694.728 552.563 694.403 552.563 693.482 552.112L691.586 551.03C691.117 550.759 690.828 550.254 690.828 549.713V541.399C690.828 540.858 691.117 540.353 691.586 540.082L698.791 535.916C699.242 535.663 699.856 535.663 700.308 535.916L707.512 540.082C707.981 540.353 708.271 540.858 708.271 541.399V549.713C708.271 550.254 707.981 550.759 707.512 551.03L700.308 555.196C700.073 555.304 699.802 555.358 699.549 555.358ZM701.77 549.641C698.61 549.641 697.96 548.198 697.96 546.972C697.96 546.864 698.051 546.755 698.177 546.755H699.116C699.224 546.755 699.315 546.827 699.315 546.936C699.459 547.892 699.874 548.361 701.788 548.361C703.305 548.361 703.955 548.018 703.955 547.206C703.955 546.737 703.774 546.395 701.409 546.16C699.441 545.962 698.213 545.529 698.213 543.96C698.213 542.499 699.441 541.633 701.499 541.633C703.81 541.633 704.948 542.427 705.093 544.158C705.093 544.212 705.075 544.266 705.038 544.321C705.002 544.357 704.948 544.393 704.894 544.393H703.955C703.865 544.393 703.774 544.321 703.756 544.23C703.54 543.238 702.98 542.914 701.499 542.914C699.838 542.914 699.639 543.491 699.639 543.924C699.639 544.447 699.874 544.609 702.113 544.898C704.334 545.186 705.382 545.601 705.382 547.152C705.363 548.739 704.063 549.641 701.77 549.641Z" fill="#539E43"/>
<path d="M677.196 522.84C677.196 522.516 677.016 522.209 676.727 522.047L669.071 517.646C668.945 517.574 668.8 517.538 668.656 517.52H668.584C668.439 517.52 668.295 517.574 668.168 517.646L660.512 522.047C660.223 522.209 660.043 522.516 660.043 522.84L660.061 534.672C660.061 534.834 660.151 534.996 660.296 535.069C660.44 535.159 660.621 535.159 660.747 535.069L665.297 532.471C665.586 532.309 665.767 532.003 665.767 531.678V526.141C665.767 525.816 665.947 525.51 666.236 525.347L668.168 524.229C668.313 524.139 668.475 524.103 668.638 524.103C668.8 524.103 668.963 524.139 669.089 524.229L671.021 525.347C671.31 525.51 671.491 525.816 671.491 526.141V531.678C671.491 532.003 671.671 532.309 671.96 532.471L676.51 535.069C676.655 535.159 676.835 535.159 676.98 535.069C677.124 534.996 677.215 534.834 677.215 534.672L677.196 522.84ZM713.995 506.554C713.851 506.482 713.67 506.482 713.544 506.554C713.399 506.644 713.309 506.789 713.309 506.951V518.674C713.309 518.782 713.255 518.89 713.147 518.963C713.038 519.017 712.93 519.017 712.822 518.963L710.908 517.863C710.767 517.783 710.609 517.741 710.447 517.741C710.286 517.741 710.127 517.783 709.987 517.863L702.331 522.281C702.042 522.444 701.861 522.75 701.861 523.075V531.894C701.861 532.219 702.042 532.526 702.331 532.688L709.987 537.107C710.127 537.186 710.286 537.228 710.447 537.228C710.609 537.228 710.767 537.186 710.908 537.107L718.563 532.688C718.852 532.526 719.033 532.219 719.033 531.894V509.909C719.033 509.566 718.852 509.26 718.563 509.097L713.995 506.554ZM713.291 528.991C713.291 529.081 713.255 529.153 713.183 529.189L710.565 530.704C710.528 530.722 710.488 530.731 710.447 530.731C710.406 530.731 710.366 530.722 710.33 530.704L707.712 529.189C707.639 529.153 707.603 529.063 707.603 528.991V525.961C707.603 525.87 707.639 525.798 707.712 525.762L710.33 524.247C710.366 524.229 710.406 524.22 710.447 524.22C710.488 524.22 710.528 524.229 710.565 524.247L713.183 525.762C713.255 525.798 713.291 525.888 713.291 525.961V528.991ZM739.473 525.888C739.762 525.726 739.924 525.42 739.924 525.095V522.949C739.924 522.624 739.744 522.317 739.473 522.155L731.871 517.754C731.731 517.675 731.572 517.633 731.411 517.633C731.249 517.633 731.09 517.675 730.95 517.754L723.294 522.173C723.005 522.335 722.825 522.642 722.825 522.967V531.786C722.825 532.111 723.005 532.417 723.294 532.58L730.896 536.908C731.185 537.07 731.528 537.07 731.799 536.908L736.403 534.347C736.548 534.275 736.638 534.113 736.638 533.95C736.638 533.788 736.548 533.626 736.403 533.554L728.711 529.135C728.567 529.045 728.476 528.901 728.476 528.738V525.979C728.476 525.816 728.567 525.654 728.711 525.582L731.113 524.211C731.183 524.167 731.264 524.144 731.347 524.144C731.43 524.144 731.512 524.167 731.582 524.211L733.983 525.582C734.128 525.672 734.218 525.816 734.218 525.979V528.143C734.218 528.305 734.309 528.468 734.453 528.54C734.597 528.63 734.778 528.63 734.922 528.54L739.473 525.888Z" fill="#333333"/>
<path d="M731.295 525.473C731.322 525.456 731.353 525.446 731.385 525.446C731.417 525.446 731.449 525.456 731.476 525.473L732.938 526.321C732.992 526.357 733.028 526.411 733.028 526.483V528.179C733.028 528.251 732.992 528.305 732.938 528.341L731.476 529.189C731.449 529.206 731.417 529.216 731.385 529.216C731.353 529.216 731.322 529.206 731.295 529.189L729.832 528.341C729.778 528.305 729.742 528.251 729.742 528.179V526.483C729.742 526.411 729.778 526.357 729.832 526.321L731.295 525.473Z" fill="#539E43"/>
<path d="M689.997 517.791C689.857 517.711 689.698 517.669 689.537 517.669C689.376 517.669 689.217 517.711 689.077 517.791L681.475 522.173C681.186 522.335 681.023 522.642 681.023 522.967V531.75C681.023 532.075 681.204 532.381 681.475 532.544L689.077 536.926C689.217 537.006 689.376 537.048 689.537 537.048C689.698 537.048 689.857 537.006 689.997 536.926L697.599 532.544C697.888 532.381 698.051 532.075 698.051 531.75V522.967C698.051 522.642 697.87 522.335 697.599 522.173L689.997 517.791Z" fill="url(#paint4_linear_1556_24)"/>
<mask id="mask0_1556_24" style="mask-type:luminance" maskUnits="userSpaceOnUse" x="681" y="517" width="18" height="21">
<path d="M689.997 517.791C689.857 517.711 689.698 517.669 689.537 517.669C689.376 517.669 689.217 517.711 689.077 517.791L681.475 522.173C681.186 522.335 681.023 522.642 681.023 522.967V531.75C681.023 532.075 681.204 532.381 681.475 532.544L689.077 536.926C689.217 537.006 689.376 537.048 689.537 537.048C689.698 537.048 689.857 537.006 689.997 536.926L697.599 532.544C697.888 532.381 698.051 532.075 698.051 531.75V522.967C698.051 522.642 697.87 522.335 697.599 522.173L689.997 517.791Z" fill="white"/>
</mask>
<g mask="url(#mask0_1556_24)">
<path d="M697.619 522.173L689.981 517.79C689.906 517.753 689.827 517.722 689.746 517.7L681.188 532.345C681.258 532.432 681.344 532.505 681.44 532.562L689.078 536.944C689.295 537.071 689.548 537.107 689.782 537.034L697.817 522.353C697.763 522.281 697.691 522.227 697.619 522.173Z" fill="url(#paint5_linear_1556_24)"/>
</g>
<mask id="mask1_1556_24" style="mask-type:luminance" maskUnits="userSpaceOnUse" x="681" y="517" width="18" height="21">
<path d="M689.997 517.791C689.857 517.711 689.698 517.669 689.537 517.669C689.376 517.669 689.217 517.711 689.077 517.791L681.475 522.173C681.186 522.335 681.023 522.642 681.023 522.967V531.75C681.023 532.075 681.204 532.381 681.475 532.544L689.077 536.926C689.217 537.006 689.376 537.048 689.537 537.048C689.698 537.048 689.857 537.006 689.997 536.926L697.599 532.544C697.888 532.381 698.051 532.075 698.051 531.75V522.967C698.051 522.642 697.87 522.335 697.599 522.173L689.997 517.791Z" fill="white"/>
</mask>
<g mask="url(#mask1_1556_24)">
<path fill-rule="evenodd" clip-rule="evenodd" d="M697.637 532.544C697.854 532.418 698.016 532.201 698.089 531.967L689.71 517.682C689.493 517.646 689.259 517.664 689.06 517.791L681.477 522.155L689.656 537.053C689.775 537.033 689.89 536.997 689.999 536.945L697.637 532.544L697.637 532.544Z" fill="url(#paint6_linear_1556_24)"/>
<path fill-rule="evenodd" clip-rule="evenodd" d="M697.639 532.543L690.019 536.926C689.911 536.981 689.795 537.017 689.676 537.034L689.82 537.305L698.271 532.417V532.309L698.054 531.948C698.018 532.201 697.855 532.417 697.639 532.543Z" fill="url(#paint7_linear_1556_24)"/>
<path fill-rule="evenodd" clip-rule="evenodd" d="M697.639 532.543L690.019 536.926C689.911 536.981 689.795 537.017 689.676 537.034L689.82 537.305L698.271 532.417V532.309L698.054 531.948C698.018 532.201 697.855 532.417 697.639 532.543Z" fill="url(#paint8_linear_1556_24)"/>
</g>
</g>
<path d="M221.501 320.832V332H219.261V327.248H214.477V332H212.237V320.832H214.477V325.424H219.261V320.832H221.501ZM231.306 320.832V322.64H228.33V332H226.09V322.64H223.114V320.832H231.306ZM245.116 320.832V332H242.876V324.736L239.884 332H238.188L235.18 324.736V332H232.94V320.832H235.484L239.036 329.136L242.588 320.832H245.116ZM249.571 330.224H253.251V332H247.331V320.832H249.571V330.224ZM262.258 322.272H257.074V325.008C257.298 324.731 257.618 324.507 258.034 324.336C258.45 324.155 258.893 324.064 259.362 324.064C260.216 324.064 260.914 324.251 261.458 324.624C262.002 324.997 262.397 325.477 262.642 326.064C262.888 326.64 263.01 327.259 263.01 327.92C263.01 329.147 262.658 330.133 261.954 330.88C261.261 331.627 260.269 332 258.978 332C257.762 332 256.792 331.696 256.066 331.088C255.341 330.48 254.93 329.685 254.834 328.704H257.01C257.106 329.131 257.32 329.472 257.65 329.728C257.992 329.984 258.424 330.112 258.946 330.112C259.576 330.112 260.05 329.915 260.37 329.52C260.69 329.125 260.85 328.603 260.85 327.952C260.85 327.291 260.685 326.789 260.354 326.448C260.034 326.096 259.56 325.92 258.93 325.92C258.482 325.92 258.109 326.032 257.81 326.256C257.512 326.48 257.298 326.779 257.17 327.152H255.026V320.304H262.258V322.272Z" fill="white"/>
<path d="M579.88 204.4C579.88 203.301 580.126 202.32 580.616 201.456C581.118 200.581 581.795 199.904 582.648 199.424C583.512 198.933 584.478 198.688 585.544 198.688C586.792 198.688 587.886 199.008 588.824 199.648C589.763 200.288 590.419 201.173 590.792 202.304H588.216C587.96 201.771 587.598 201.371 587.128 201.104C586.67 200.837 586.136 200.704 585.528 200.704C584.878 200.704 584.296 200.859 583.784 201.168C583.283 201.467 582.888 201.893 582.6 202.448C582.323 203.003 582.184 203.653 582.184 204.4C582.184 205.136 582.323 205.787 582.6 206.352C582.888 206.907 583.283 207.339 583.784 207.648C584.296 207.947 584.878 208.096 585.528 208.096C586.136 208.096 586.67 207.963 587.128 207.696C587.598 207.419 587.96 207.013 588.216 206.48H590.792C590.419 207.621 589.763 208.512 588.824 209.152C587.896 209.781 586.803 210.096 585.544 210.096C584.478 210.096 583.512 209.856 582.648 209.376C581.795 208.885 581.118 208.208 580.616 207.344C580.126 206.48 579.88 205.499 579.88 204.4ZM596.562 210.112C595.783 210.112 595.079 209.979 594.45 209.712C593.831 209.445 593.34 209.061 592.978 208.56C592.615 208.059 592.428 207.467 592.418 206.784H594.818C594.85 207.243 595.01 207.605 595.298 207.872C595.596 208.139 596.002 208.272 596.514 208.272C597.036 208.272 597.447 208.149 597.746 207.904C598.044 207.648 598.194 207.317 598.194 206.912C598.194 206.581 598.092 206.309 597.89 206.096C597.687 205.883 597.431 205.717 597.122 205.6C596.823 205.472 596.407 205.333 595.874 205.184C595.148 204.971 594.556 204.763 594.098 204.56C593.65 204.347 593.26 204.032 592.93 203.616C592.61 203.189 592.45 202.624 592.45 201.92C592.45 201.259 592.615 200.683 592.946 200.192C593.276 199.701 593.74 199.328 594.338 199.072C594.935 198.805 595.618 198.672 596.386 198.672C597.538 198.672 598.471 198.955 599.186 199.52C599.911 200.075 600.311 200.853 600.386 201.856H597.922C597.9 201.472 597.735 201.157 597.426 200.912C597.127 200.656 596.727 200.528 596.226 200.528C595.788 200.528 595.436 200.64 595.17 200.864C594.914 201.088 594.786 201.413 594.786 201.84C594.786 202.139 594.882 202.389 595.074 202.592C595.276 202.784 595.522 202.944 595.81 203.072C596.108 203.189 596.524 203.328 597.058 203.488C597.783 203.701 598.375 203.915 598.834 204.128C599.292 204.341 599.687 204.661 600.018 205.088C600.348 205.515 600.514 206.075 600.514 206.768C600.514 207.365 600.359 207.92 600.05 208.432C599.74 208.944 599.287 209.355 598.69 209.664C598.092 209.963 597.383 210.112 596.562 210.112ZM606.312 210.112C605.533 210.112 604.829 209.979 604.2 209.712C603.581 209.445 603.09 209.061 602.728 208.56C602.365 208.059 602.178 207.467 602.168 206.784H604.568C604.6 207.243 604.76 207.605 605.048 207.872C605.346 208.139 605.752 208.272 606.264 208.272C606.786 208.272 607.197 208.149 607.496 207.904C607.794 207.648 607.944 207.317 607.944 206.912C607.944 206.581 607.842 206.309 607.64 206.096C607.437 205.883 607.181 205.717 606.872 205.6C606.573 205.472 606.157 205.333 605.624 205.184C604.898 204.971 604.306 204.763 603.848 204.56C603.4 204.347 603.01 204.032 602.68 203.616C602.36 203.189 602.2 202.624 602.2 201.92C602.2 201.259 602.365 200.683 602.696 200.192C603.026 199.701 603.49 199.328 604.088 199.072C604.685 198.805 605.368 198.672 606.136 198.672C607.288 198.672 608.221 198.955 608.936 199.52C609.661 200.075 610.061 200.853 610.136 201.856H607.672C607.65 201.472 607.485 201.157 607.176 200.912C606.877 200.656 606.477 200.528 605.976 200.528C605.538 200.528 605.186 200.64 604.92 200.864C604.664 201.088 604.536 201.413 604.536 201.84C604.536 202.139 604.632 202.389 604.824 202.592C605.026 202.784 605.272 202.944 605.56 203.072C605.858 203.189 606.274 203.328 606.808 203.488C607.533 203.701 608.125 203.915 608.584 204.128C609.042 204.341 609.437 204.661 609.768 205.088C610.098 205.515 610.264 206.075 610.264 206.768C610.264 207.365 610.109 207.92 609.8 208.432C609.49 208.944 609.037 209.355 608.44 209.664C607.842 209.963 607.133 210.112 606.312 210.112ZM611.982 201.408C612.035 200.341 612.408 199.52 613.102 198.944C613.806 198.357 614.728 198.064 615.87 198.064C616.648 198.064 617.315 198.203 617.87 198.48C618.424 198.747 618.84 199.115 619.118 199.584C619.406 200.043 619.55 200.565 619.55 201.152C619.55 201.824 619.374 202.395 619.022 202.864C618.68 203.323 618.27 203.632 617.79 203.792V203.856C618.408 204.048 618.888 204.389 619.23 204.88C619.582 205.371 619.758 206 619.758 206.768C619.758 207.408 619.608 207.979 619.31 208.48C619.022 208.981 618.59 209.376 618.014 209.664C617.448 209.941 616.766 210.08 615.966 210.08C614.76 210.08 613.779 209.776 613.022 209.168C612.264 208.56 611.864 207.664 611.822 206.48H613.998C614.019 207.003 614.195 207.424 614.526 207.744C614.867 208.053 615.331 208.208 615.918 208.208C616.462 208.208 616.878 208.059 617.166 207.76C617.464 207.451 617.614 207.056 617.614 206.576C617.614 205.936 617.411 205.477 617.006 205.2C616.6 204.923 615.971 204.784 615.118 204.784H614.654V202.944H615.118C616.632 202.944 617.39 202.437 617.39 201.424C617.39 200.965 617.251 200.608 616.974 200.352C616.707 200.096 616.318 199.968 615.806 199.968C615.304 199.968 614.915 200.107 614.638 200.384C614.371 200.651 614.216 200.992 614.174 201.408H611.982Z" fill="white"/>
<path d="M991.108 241.112C990.33 241.112 989.626 240.979 988.996 240.712C988.378 240.445 987.887 240.061 987.524 239.56C987.162 239.059 986.975 238.467 986.964 237.784H989.364C989.396 238.243 989.556 238.605 989.844 238.872C990.143 239.139 990.548 239.272 991.06 239.272C991.583 239.272 991.994 239.149 992.292 238.904C992.591 238.648 992.74 238.317 992.74 237.912C992.74 237.581 992.639 237.309 992.436 237.096C992.234 236.883 991.978 236.717 991.668 236.6C991.37 236.472 990.954 236.333 990.42 236.184C989.695 235.971 989.103 235.763 988.644 235.56C988.196 235.347 987.807 235.032 987.476 234.616C987.156 234.189 986.996 233.624 986.996 232.92C986.996 232.259 987.162 231.683 987.492 231.192C987.823 230.701 988.287 230.328 988.884 230.072C989.482 229.805 990.164 229.672 990.932 229.672C992.084 229.672 993.018 229.955 993.732 230.52C994.458 231.075 994.858 231.853 994.932 232.856H992.468C992.447 232.472 992.282 232.157 991.972 231.912C991.674 231.656 991.274 231.528 990.772 231.528C990.335 231.528 989.983 231.64 989.716 231.864C989.46 232.088 989.332 232.413 989.332 232.84C989.332 233.139 989.428 233.389 989.62 233.592C989.823 233.784 990.068 233.944 990.356 234.072C990.655 234.189 991.071 234.328 991.604 234.488C992.33 234.701 992.922 234.915 993.38 235.128C993.839 235.341 994.234 235.661 994.564 236.088C994.895 236.515 995.06 237.075 995.06 237.768C995.06 238.365 994.906 238.92 994.596 239.432C994.287 239.944 993.834 240.355 993.236 240.664C992.639 240.963 991.93 241.112 991.108 241.112ZM1003.85 238.872H999.402L998.666 241H996.314L1000.33 229.816H1002.94L1006.95 241H1004.59L1003.85 238.872ZM1003.24 237.08L1001.63 232.408L1000.01 237.08H1003.24ZM1012.31 241.112C1011.53 241.112 1010.83 240.979 1010.2 240.712C1009.58 240.445 1009.09 240.061 1008.73 239.56C1008.36 239.059 1008.18 238.467 1008.17 237.784H1010.57C1010.6 238.243 1010.76 238.605 1011.05 238.872C1011.35 239.139 1011.75 239.272 1012.26 239.272C1012.79 239.272 1013.2 239.149 1013.5 238.904C1013.79 238.648 1013.94 238.317 1013.94 237.912C1013.94 237.581 1013.84 237.309 1013.64 237.096C1013.44 236.883 1013.18 236.717 1012.87 236.6C1012.57 236.472 1012.16 236.333 1011.62 236.184C1010.9 235.971 1010.31 235.763 1009.85 235.56C1009.4 235.347 1009.01 235.032 1008.68 234.616C1008.36 234.189 1008.2 233.624 1008.2 232.92C1008.2 232.259 1008.36 231.683 1008.7 231.192C1009.03 230.701 1009.49 230.328 1010.09 230.072C1010.68 229.805 1011.37 229.672 1012.14 229.672C1013.29 229.672 1014.22 229.955 1014.94 230.52C1015.66 231.075 1016.06 231.853 1016.14 232.856H1013.67C1013.65 232.472 1013.48 232.157 1013.18 231.912C1012.88 231.656 1012.48 231.528 1011.98 231.528C1011.54 231.528 1011.19 231.64 1010.92 231.864C1010.66 232.088 1010.54 232.413 1010.54 232.84C1010.54 233.139 1010.63 233.389 1010.82 233.592C1011.03 233.784 1011.27 233.944 1011.56 234.072C1011.86 234.189 1012.27 234.328 1012.81 234.488C1013.53 234.701 1014.12 234.915 1014.58 235.128C1015.04 235.341 1015.44 235.661 1015.77 236.088C1016.1 236.515 1016.26 237.075 1016.26 237.768C1016.26 238.365 1016.11 238.92 1015.8 239.432C1015.49 239.944 1015.04 240.355 1014.44 240.664C1013.84 240.963 1013.13 241.112 1012.31 241.112ZM1022.06 241.112C1021.28 241.112 1020.58 240.979 1019.95 240.712C1019.33 240.445 1018.84 240.061 1018.48 239.56C1018.11 239.059 1017.93 238.467 1017.92 237.784H1020.32C1020.35 238.243 1020.51 238.605 1020.8 238.872C1021.1 239.139 1021.5 239.272 1022.01 239.272C1022.54 239.272 1022.95 239.149 1023.25 238.904C1023.54 238.648 1023.69 238.317 1023.69 237.912C1023.69 237.581 1023.59 237.309 1023.39 237.096C1023.19 236.883 1022.93 236.717 1022.62 236.6C1022.32 236.472 1021.91 236.333 1021.37 236.184C1020.65 235.971 1020.06 235.763 1019.6 235.56C1019.15 235.347 1018.76 235.032 1018.43 234.616C1018.11 234.189 1017.95 233.624 1017.95 232.92C1017.95 232.259 1018.11 231.683 1018.45 231.192C1018.78 230.701 1019.24 230.328 1019.84 230.072C1020.43 229.805 1021.12 229.672 1021.89 229.672C1023.04 229.672 1023.97 229.955 1024.69 230.52C1025.41 231.075 1025.81 231.853 1025.89 232.856H1023.42C1023.4 232.472 1023.23 232.157 1022.93 231.912C1022.63 231.656 1022.23 231.528 1021.73 231.528C1021.29 231.528 1020.94 231.64 1020.67 231.864C1020.41 232.088 1020.29 232.413 1020.29 232.84C1020.29 233.139 1020.38 233.389 1020.57 233.592C1020.78 233.784 1021.02 233.944 1021.31 234.072C1021.61 234.189 1022.02 234.328 1022.56 234.488C1023.28 234.701 1023.87 234.915 1024.33 235.128C1024.79 235.341 1025.19 235.661 1025.52 236.088C1025.85 236.515 1026.01 237.075 1026.01 237.768C1026.01 238.365 1025.86 238.92 1025.55 239.432C1025.24 239.944 1024.79 240.355 1024.19 240.664C1023.59 240.963 1022.88 241.112 1022.06 241.112Z" fill="white"/>
<path d="M1271.71 374.832V382.672C1271.71 383.76 1271.4 384.608 1270.77 385.216C1270.14 385.813 1269.29 386.112 1268.24 386.112C1267.17 386.112 1266.31 385.803 1265.65 385.184C1265 384.565 1264.67 383.701 1264.67 382.592H1266.91C1266.92 383.072 1267.03 383.445 1267.25 383.712C1267.47 383.979 1267.79 384.112 1268.21 384.112C1268.61 384.112 1268.92 383.984 1269.13 383.728C1269.35 383.472 1269.45 383.12 1269.45 382.672V374.832H1271.71ZM1282.64 387.968L1280.95 385.936C1280.48 386.053 1280 386.112 1279.51 386.112C1278.46 386.112 1277.5 385.867 1276.63 385.376C1275.75 384.885 1275.06 384.208 1274.55 383.344C1274.03 382.469 1273.78 381.483 1273.78 380.384C1273.78 379.296 1274.03 378.32 1274.55 377.456C1275.06 376.581 1275.75 375.899 1276.63 375.408C1277.5 374.917 1278.46 374.672 1279.51 374.672C1280.56 374.672 1281.52 374.917 1282.39 375.408C1283.26 375.899 1283.95 376.581 1284.45 377.456C1284.96 378.32 1285.22 379.296 1285.22 380.384C1285.22 381.376 1285.01 382.283 1284.58 383.104C1284.16 383.915 1283.59 384.576 1282.87 385.088L1285.43 387.968H1282.64ZM1276.08 380.384C1276.08 381.131 1276.23 381.787 1276.51 382.352C1276.8 382.917 1277.2 383.355 1277.71 383.664C1278.24 383.963 1278.83 384.112 1279.51 384.112C1280.18 384.112 1280.77 383.963 1281.28 383.664C1281.79 383.355 1282.19 382.917 1282.48 382.352C1282.77 381.787 1282.91 381.131 1282.91 380.384C1282.91 379.637 1282.77 378.987 1282.48 378.432C1282.19 377.867 1281.79 377.435 1281.28 377.136C1280.77 376.837 1280.18 376.688 1279.51 376.688C1278.83 376.688 1278.24 376.837 1277.71 377.136C1277.2 377.435 1276.8 377.867 1276.51 378.432C1276.23 378.987 1276.08 379.637 1276.08 380.384ZM1289.12 374.832V381.744C1289.12 382.501 1289.32 383.083 1289.72 383.488C1290.11 383.883 1290.67 384.08 1291.38 384.08C1292.11 384.08 1292.67 383.883 1293.06 383.488C1293.46 383.083 1293.65 382.501 1293.65 381.744V374.832H1295.91V381.728C1295.91 382.677 1295.7 383.483 1295.28 384.144C1294.88 384.795 1294.33 385.285 1293.64 385.616C1292.95 385.947 1292.19 386.112 1291.35 386.112C1290.52 386.112 1289.76 385.947 1289.08 385.616C1288.4 385.285 1287.87 384.795 1287.48 384.144C1287.08 383.483 1286.88 382.677 1286.88 381.728V374.832H1289.12ZM1300.31 376.64V379.44H1304.07V381.216H1300.31V384.176H1304.55V386H1298.07V374.816H1304.55V376.64H1300.31ZM1312.35 386L1309.88 381.648H1308.83V386H1306.59V374.832H1310.78C1311.64 374.832 1312.38 374.987 1312.99 375.296C1313.6 375.595 1314.05 376.005 1314.35 376.528C1314.66 377.04 1314.81 377.616 1314.81 378.256C1314.81 378.992 1314.6 379.659 1314.17 380.256C1313.75 380.843 1313.11 381.248 1312.27 381.472L1314.94 386H1312.35ZM1308.83 379.968H1310.7C1311.31 379.968 1311.76 379.824 1312.06 379.536C1312.36 379.237 1312.51 378.827 1312.51 378.304C1312.51 377.792 1312.36 377.397 1312.06 377.12C1311.76 376.832 1311.31 376.688 1310.7 376.688H1308.83V379.968ZM1325.72 374.832L1321.94 382.112V386H1319.7V382.112L1315.91 374.832H1318.44L1320.84 379.936L1323.22 374.832H1325.72Z" fill="white"/>
<path d="M138.061 556.832V564.672C138.061 565.76 137.747 566.608 137.117 567.216C136.488 567.813 135.645 568.112 134.589 568.112C133.523 568.112 132.659 567.803 131.997 567.184C131.347 566.565 131.021 565.701 131.021 564.592H133.261C133.272 565.072 133.384 565.445 133.597 565.712C133.821 565.979 134.141 566.112 134.557 566.112C134.963 566.112 135.272 565.984 135.485 565.728C135.699 565.472 135.805 565.12 135.805 564.672V556.832H138.061ZM147.522 565.872H143.074L142.338 568H139.986L144.002 556.816H146.61L150.626 568H148.258L147.522 565.872ZM146.914 564.08L145.298 559.408L143.682 564.08H146.914ZM162.159 556.832L158.063 568H155.343L151.247 556.832H153.647L156.719 565.712L159.775 556.832H162.159ZM170.35 565.872H165.902L165.166 568H162.814L166.83 556.816H169.438L173.454 568H171.086L170.35 565.872ZM169.742 564.08L168.126 559.408L166.51 564.08H169.742ZM178.812 568.112C178.033 568.112 177.329 567.979 176.7 567.712C176.081 567.445 175.59 567.061 175.228 566.56C174.865 566.059 174.678 565.467 174.668 564.784H177.068C177.1 565.243 177.26 565.605 177.548 565.872C177.846 566.139 178.252 566.272 178.764 566.272C179.286 566.272 179.697 566.149 179.996 565.904C180.294 565.648 180.444 565.317 180.444 564.912C180.444 564.581 180.342 564.309 180.14 564.096C179.937 563.883 179.681 563.717 179.372 563.6C179.073 563.472 178.657 563.333 178.124 563.184C177.398 562.971 176.806 562.763 176.348 562.56C175.9 562.347 175.51 562.032 175.18 561.616C174.86 561.189 174.7 560.624 174.7 559.92C174.7 559.259 174.865 558.683 175.196 558.192C175.526 557.701 175.99 557.328 176.588 557.072C177.185 556.805 177.868 556.672 178.636 556.672C179.788 556.672 180.721 556.955 181.436 557.52C182.161 558.075 182.561 558.853 182.636 559.856H180.172C180.15 559.472 179.985 559.157 179.676 558.912C179.377 558.656 178.977 558.528 178.476 558.528C178.038 558.528 177.686 558.64 177.42 558.864C177.164 559.088 177.036 559.413 177.036 559.84C177.036 560.139 177.132 560.389 177.324 560.592C177.526 560.784 177.772 560.944 178.06 561.072C178.358 561.189 178.774 561.328 179.308 561.488C180.033 561.701 180.625 561.915 181.084 562.128C181.542 562.341 181.937 562.661 182.268 563.088C182.598 563.515 182.764 564.075 182.764 564.768C182.764 565.365 182.609 565.92 182.3 566.432C181.99 566.944 181.537 567.355 180.94 567.664C180.342 567.963 179.633 568.112 178.812 568.112ZM184.162 562.4C184.162 561.301 184.407 560.32 184.898 559.456C185.399 558.581 186.076 557.904 186.93 557.424C187.794 556.933 188.759 556.688 189.826 556.688C191.074 556.688 192.167 557.008 193.106 557.648C194.044 558.288 194.7 559.173 195.074 560.304H192.498C192.242 559.771 191.879 559.371 191.41 559.104C190.951 558.837 190.418 558.704 189.81 558.704C189.159 558.704 188.578 558.859 188.066 559.168C187.564 559.467 187.17 559.893 186.882 560.448C186.604 561.003 186.466 561.653 186.466 562.4C186.466 563.136 186.604 563.787 186.882 564.352C187.17 564.907 187.564 565.339 188.066 565.648C188.578 565.947 189.159 566.096 189.81 566.096C190.418 566.096 190.951 565.963 191.41 565.696C191.879 565.419 192.242 565.013 192.498 564.48H195.074C194.7 565.621 194.044 566.512 193.106 567.152C192.178 567.781 191.084 568.096 189.826 568.096C188.759 568.096 187.794 567.856 186.93 567.376C186.076 566.885 185.399 566.208 184.898 565.344C184.407 564.48 184.162 563.499 184.162 562.4ZM202.747 568L200.283 563.648H199.227V568H196.987V556.832H201.179C202.043 556.832 202.779 556.987 203.387 557.296C203.995 557.595 204.448 558.005 204.747 558.528C205.056 559.04 205.211 559.616 205.211 560.256C205.211 560.992 204.997 561.659 204.571 562.256C204.144 562.843 203.509 563.248 202.667 563.472L205.339 568H202.747ZM199.227 561.968H201.099C201.707 561.968 202.16 561.824 202.459 561.536C202.757 561.237 202.907 560.827 202.907 560.304C202.907 559.792 202.757 559.397 202.459 559.12C202.16 558.832 201.707 558.688 201.099 558.688H199.227V561.968ZM209.477 556.832V568H207.237V556.832H209.477ZM219.834 560.288C219.834 560.885 219.69 561.445 219.402 561.968C219.125 562.491 218.682 562.912 218.074 563.232C217.477 563.552 216.719 563.712 215.802 563.712H213.93V568H211.69V556.832H215.802C216.666 556.832 217.402 556.981 218.01 557.28C218.618 557.579 219.071 557.989 219.37 558.512C219.679 559.035 219.834 559.627 219.834 560.288ZM215.706 561.904C216.325 561.904 216.783 561.765 217.082 561.488C217.381 561.2 217.53 560.8 217.53 560.288C217.53 559.2 216.922 558.656 215.706 558.656H213.93V561.904H215.706ZM229.024 556.832V558.64H226.048V568H223.808V558.64H220.832V556.832H229.024Z" fill="white"/>
<path d="M469.997 444L467.533 439.648H466.477V444H464.237V432.832H468.429C469.293 432.832 470.029 432.987 470.637 433.296C471.245 433.595 471.698 434.005 471.997 434.528C472.306 435.04 472.461 435.616 472.461 436.256C472.461 436.992 472.247 437.659 471.821 438.256C471.394 438.843 470.759 439.248 469.917 439.472L472.589 444H469.997ZM466.477 437.968H468.349C468.957 437.968 469.41 437.824 469.709 437.536C470.007 437.237 470.157 436.827 470.157 436.304C470.157 435.792 470.007 435.397 469.709 435.12C469.41 434.832 468.957 434.688 468.349 434.688H466.477V437.968ZM476.727 434.64V437.44H480.487V439.216H476.727V442.176H480.967V444H474.487V432.816H480.967V434.64H476.727ZM489.85 441.872H485.402L484.666 444H482.314L486.33 432.816H488.938L492.954 444H490.586L489.85 441.872ZM489.242 440.08L487.626 435.408L486.01 440.08H489.242ZM493.912 438.4C493.912 437.301 494.157 436.32 494.648 435.456C495.149 434.581 495.826 433.904 496.68 433.424C497.544 432.933 498.509 432.688 499.576 432.688C500.824 432.688 501.917 433.008 502.856 433.648C503.794 434.288 504.45 435.173 504.824 436.304H502.248C501.992 435.771 501.629 435.371 501.16 435.104C500.701 434.837 500.168 434.704 499.56 434.704C498.909 434.704 498.328 434.859 497.816 435.168C497.314 435.467 496.92 435.893 496.632 436.448C496.354 437.003 496.216 437.653 496.216 438.4C496.216 439.136 496.354 439.787 496.632 440.352C496.92 440.907 497.314 441.339 497.816 441.648C498.328 441.947 498.909 442.096 499.56 442.096C500.168 442.096 500.701 441.963 501.16 441.696C501.629 441.419 501.992 441.013 502.248 440.48H504.824C504.45 441.621 503.794 442.512 502.856 443.152C501.928 443.781 500.834 444.096 499.576 444.096C498.509 444.096 497.544 443.856 496.68 443.376C495.826 442.885 495.149 442.208 494.648 441.344C494.157 440.48 493.912 439.499 493.912 438.4ZM514.337 432.832V434.64H511.361V444H509.121V434.64H506.145V432.832H514.337Z" fill="white"/>
<path d="M756.1 417.872H751.652L750.916 420H748.564L752.58 408.816H755.188L759.204 420H756.836L756.1 417.872ZM755.492 416.08L753.876 411.408L752.26 416.08H755.492ZM770.258 420H768.018L762.946 412.336V420H760.706V408.816H762.946L768.018 416.496V408.816H770.258V420ZM780.247 412.192C779.991 411.723 779.639 411.365 779.191 411.12C778.743 410.875 778.221 410.752 777.623 410.752C776.962 410.752 776.375 410.901 775.863 411.2C775.351 411.499 774.951 411.925 774.663 412.48C774.375 413.035 774.231 413.675 774.231 414.4C774.231 415.147 774.375 415.797 774.663 416.352C774.962 416.907 775.373 417.333 775.895 417.632C776.418 417.931 777.026 418.08 777.719 418.08C778.573 418.08 779.271 417.856 779.815 417.408C780.359 416.949 780.717 416.315 780.887 415.504H777.047V413.792H783.095V415.744C782.946 416.523 782.626 417.243 782.135 417.904C781.645 418.565 781.01 419.099 780.231 419.504C779.463 419.899 778.599 420.096 777.639 420.096C776.562 420.096 775.586 419.856 774.711 419.376C773.847 418.885 773.165 418.208 772.663 417.344C772.173 416.48 771.927 415.499 771.927 414.4C771.927 413.301 772.173 412.32 772.663 411.456C773.165 410.581 773.847 409.904 774.711 409.424C775.586 408.933 776.557 408.688 777.623 408.688C778.882 408.688 779.975 408.997 780.903 409.616C781.831 410.224 782.471 411.083 782.823 412.192H780.247ZM786.96 408.832V415.744C786.96 416.501 787.158 417.083 787.552 417.488C787.947 417.883 788.502 418.08 789.216 418.08C789.942 418.08 790.502 417.883 790.896 417.488C791.291 417.083 791.488 416.501 791.488 415.744V408.832H793.744V415.728C793.744 416.677 793.536 417.483 793.12 418.144C792.715 418.795 792.166 419.285 791.472 419.616C790.79 419.947 790.027 420.112 789.184 420.112C788.352 420.112 787.595 419.947 786.912 419.616C786.24 419.285 785.707 418.795 785.312 418.144C784.918 417.483 784.72 416.677 784.72 415.728V408.832H786.96ZM798.149 418.224H801.829V420H795.909V408.832H798.149V418.224ZM810.1 417.872H805.652L804.916 420H802.564L806.58 408.816H809.188L813.204 420H810.836L810.1 417.872ZM809.492 416.08L807.876 411.408L806.26 416.08H809.492ZM820.466 420L818.002 415.648H816.946V420H814.706V408.832H818.898C819.762 408.832 820.498 408.987 821.106 409.296C821.714 409.595 822.167 410.005 822.466 410.528C822.775 411.04 822.93 411.616 822.93 412.256C822.93 412.992 822.716 413.659 822.29 414.256C821.863 414.843 821.228 415.248 820.386 415.472L823.058 420H820.466ZM816.946 413.968H818.818C819.426 413.968 819.879 413.824 820.178 413.536C820.476 413.237 820.626 412.827 820.626 412.304C820.626 411.792 820.476 411.397 820.178 411.12C819.879 410.832 819.426 410.688 818.818 410.688H816.946V413.968Z" fill="white"/>
<path d="M1085.27 488.192C1085.01 487.723 1084.66 487.365 1084.21 487.12C1083.77 486.875 1083.24 486.752 1082.65 486.752C1081.99 486.752 1081.4 486.901 1080.89 487.2C1080.37 487.499 1079.97 487.925 1079.69 488.48C1079.4 489.035 1079.25 489.675 1079.25 490.4C1079.25 491.147 1079.4 491.797 1079.69 492.352C1079.99 492.907 1080.4 493.333 1080.92 493.632C1081.44 493.931 1082.05 494.08 1082.74 494.08C1083.6 494.08 1084.29 493.856 1084.84 493.408C1085.38 492.949 1085.74 492.315 1085.91 491.504H1082.07V489.792H1088.12V491.744C1087.97 492.523 1087.65 493.243 1087.16 493.904C1086.67 494.565 1086.03 495.099 1085.25 495.504C1084.49 495.899 1083.62 496.096 1082.66 496.096C1081.59 496.096 1080.61 495.856 1079.73 495.376C1078.87 494.885 1078.19 494.208 1077.69 493.344C1077.2 492.48 1076.95 491.499 1076.95 490.4C1076.95 489.301 1077.2 488.32 1077.69 487.456C1078.19 486.581 1078.87 485.904 1079.73 485.424C1080.61 484.933 1081.58 484.688 1082.65 484.688C1083.91 484.688 1085 484.997 1085.93 485.616C1086.85 486.224 1087.49 487.083 1087.85 488.192H1085.27ZM1093.63 496.112C1092.85 496.112 1092.15 495.979 1091.52 495.712C1090.9 495.445 1090.41 495.061 1090.05 494.56C1089.69 494.059 1089.5 493.467 1089.49 492.784H1091.89C1091.92 493.243 1092.08 493.605 1092.37 493.872C1092.67 494.139 1093.07 494.272 1093.58 494.272C1094.11 494.272 1094.52 494.149 1094.82 493.904C1095.11 493.648 1095.26 493.317 1095.26 492.912C1095.26 492.581 1095.16 492.309 1094.96 492.096C1094.76 491.883 1094.5 491.717 1094.19 491.6C1093.89 491.472 1093.48 491.333 1092.94 491.184C1092.22 490.971 1091.63 490.763 1091.17 490.56C1090.72 490.347 1090.33 490.032 1090 489.616C1089.68 489.189 1089.52 488.624 1089.52 487.92C1089.52 487.259 1089.69 486.683 1090.02 486.192C1090.35 485.701 1090.81 485.328 1091.41 485.072C1092.01 484.805 1092.69 484.672 1093.46 484.672C1094.61 484.672 1095.54 484.955 1096.26 485.52C1096.98 486.075 1097.38 486.853 1097.46 487.856H1094.99C1094.97 487.472 1094.81 487.157 1094.5 486.912C1094.2 486.656 1093.8 486.528 1093.3 486.528C1092.86 486.528 1092.51 486.64 1092.24 486.864C1091.98 487.088 1091.86 487.413 1091.86 487.84C1091.86 488.139 1091.95 488.389 1092.14 488.592C1092.35 488.784 1092.59 488.944 1092.88 489.072C1093.18 489.189 1093.59 489.328 1094.13 489.488C1094.85 489.701 1095.45 489.915 1095.9 490.128C1096.36 490.341 1096.76 490.661 1097.09 491.088C1097.42 491.515 1097.58 492.075 1097.58 492.768C1097.58 493.365 1097.43 493.92 1097.12 494.432C1096.81 494.944 1096.36 495.355 1095.76 495.664C1095.16 495.963 1094.45 496.112 1093.63 496.112ZM1106.37 493.872H1101.93L1101.19 496H1098.84L1102.85 484.816H1105.46L1109.48 496H1107.11L1106.37 493.872ZM1105.77 492.08L1104.15 487.408L1102.53 492.08H1105.77ZM1119.12 488.288C1119.12 488.885 1118.98 489.445 1118.69 489.968C1118.41 490.491 1117.97 490.912 1117.36 491.232C1116.77 491.552 1116.01 491.712 1115.09 491.712H1113.22V496H1110.98V484.832H1115.09C1115.96 484.832 1116.69 484.981 1117.3 485.28C1117.91 485.579 1118.36 485.989 1118.66 486.512C1118.97 487.035 1119.12 487.627 1119.12 488.288ZM1115 489.904C1115.61 489.904 1116.07 489.765 1116.37 489.488C1116.67 489.2 1116.82 488.8 1116.82 488.288C1116.82 487.2 1116.21 486.656 1115 486.656H1113.22V489.904H1115Z" fill="white"/>
<path d="M346.321 679.832L343.201 691H340.561L338.465 683.048L336.273 691L333.649 691.016L330.641 679.832H333.041L335.009 688.504L337.281 679.832H339.777L341.921 688.456L343.905 679.832H346.321ZM351.72 691.144C350.866 691.144 350.098 690.957 349.416 690.584C348.733 690.2 348.194 689.661 347.8 688.968C347.416 688.275 347.224 687.475 347.224 686.568C347.224 685.661 347.421 684.861 347.816 684.168C348.221 683.475 348.77 682.941 349.464 682.568C350.157 682.184 350.93 681.992 351.784 681.992C352.637 681.992 353.41 682.184 354.104 682.568C354.797 682.941 355.341 683.475 355.736 684.168C356.141 684.861 356.344 685.661 356.344 686.568C356.344 687.475 356.136 688.275 355.72 688.968C355.314 689.661 354.76 690.2 354.056 690.584C353.362 690.957 352.584 691.144 351.72 691.144ZM351.72 689.192C352.125 689.192 352.504 689.096 352.856 688.904C353.218 688.701 353.506 688.403 353.72 688.008C353.933 687.613 354.04 687.133 354.04 686.568C354.04 685.725 353.816 685.08 353.368 684.632C352.93 684.173 352.392 683.944 351.752 683.944C351.112 683.944 350.573 684.173 350.136 684.632C349.709 685.08 349.496 685.725 349.496 686.568C349.496 687.411 349.704 688.061 350.12 688.52C350.546 688.968 351.08 689.192 351.72 689.192ZM360.227 683.512C360.515 683.043 360.888 682.675 361.347 682.408C361.816 682.141 362.349 682.008 362.947 682.008V684.36H362.355C361.651 684.36 361.117 684.525 360.755 684.856C360.403 685.187 360.227 685.763 360.227 686.584V691H357.987V682.136H360.227V683.512ZM363.88 686.536C363.88 685.64 364.056 684.845 364.408 684.152C364.77 683.459 365.261 682.925 365.88 682.552C366.498 682.179 367.186 681.992 367.944 681.992C368.52 681.992 369.069 682.12 369.592 682.376C370.114 682.621 370.53 682.952 370.84 683.368V679.16H373.112V691H370.84V689.688C370.562 690.125 370.173 690.477 369.672 690.744C369.17 691.011 368.589 691.144 367.928 691.144C367.181 691.144 366.498 690.952 365.88 690.568C365.261 690.184 364.77 689.645 364.408 688.952C364.056 688.248 363.88 687.443 363.88 686.536ZM370.856 686.568C370.856 686.024 370.749 685.56 370.536 685.176C370.322 684.781 370.034 684.483 369.672 684.28C369.309 684.067 368.92 683.96 368.504 683.96C368.088 683.96 367.704 684.061 367.352 684.264C367 684.467 366.712 684.765 366.488 685.16C366.274 685.544 366.168 686.003 366.168 686.536C366.168 687.069 366.274 687.539 366.488 687.944C366.712 688.339 367 688.643 367.352 688.856C367.714 689.069 368.098 689.176 368.504 689.176C368.92 689.176 369.309 689.075 369.672 688.872C370.034 688.659 370.322 688.36 370.536 687.976C370.749 687.581 370.856 687.112 370.856 686.568ZM383.443 683.288C383.443 683.885 383.299 684.445 383.011 684.968C382.734 685.491 382.291 685.912 381.683 686.232C381.086 686.552 380.329 686.712 379.411 686.712H377.539V691H375.299V679.832H379.411C380.275 679.832 381.011 679.981 381.619 680.28C382.227 680.579 382.681 680.989 382.979 681.512C383.289 682.035 383.443 682.627 383.443 683.288ZM379.315 684.904C379.934 684.904 380.393 684.765 380.691 684.488C380.99 684.2 381.139 683.8 381.139 683.288C381.139 682.2 380.531 681.656 379.315 681.656H377.539V684.904H379.315ZM387.274 683.512C387.562 683.043 387.935 682.675 388.394 682.408C388.863 682.141 389.396 682.008 389.994 682.008V684.36H389.402C388.698 684.36 388.164 684.525 387.802 684.856C387.45 685.187 387.274 685.763 387.274 686.584V691H385.034V682.136H387.274V683.512ZM399.742 686.376C399.742 686.696 399.721 686.984 399.678 687.24H393.198C393.252 687.88 393.476 688.381 393.87 688.744C394.265 689.107 394.75 689.288 395.326 689.288C396.158 689.288 396.75 688.931 397.102 688.216H399.518C399.262 689.069 398.772 689.773 398.046 690.328C397.321 690.872 396.43 691.144 395.374 691.144C394.521 691.144 393.753 690.957 393.07 690.584C392.398 690.2 391.87 689.661 391.486 688.968C391.113 688.275 390.926 687.475 390.926 686.568C390.926 685.651 391.113 684.845 391.486 684.152C391.86 683.459 392.382 682.925 393.054 682.552C393.726 682.179 394.5 681.992 395.374 681.992C396.217 681.992 396.969 682.173 397.63 682.536C398.302 682.899 398.82 683.416 399.182 684.088C399.556 684.749 399.742 685.512 399.742 686.376ZM397.422 685.736C397.412 685.16 397.204 684.701 396.798 684.36C396.393 684.008 395.897 683.832 395.31 683.832C394.756 683.832 394.286 684.003 393.902 684.344C393.529 684.675 393.3 685.139 393.214 685.736H397.422ZM404.769 691.144C404.044 691.144 403.393 691.016 402.817 690.76C402.241 690.493 401.783 690.136 401.441 689.688C401.111 689.24 400.929 688.744 400.897 688.2H403.153C403.196 688.541 403.361 688.824 403.649 689.048C403.948 689.272 404.316 689.384 404.753 689.384C405.18 689.384 405.511 689.299 405.745 689.128C405.991 688.957 406.113 688.739 406.113 688.472C406.113 688.184 405.964 687.971 405.665 687.832C405.377 687.683 404.913 687.523 404.273 687.352C403.612 687.192 403.068 687.027 402.641 686.856C402.225 686.685 401.863 686.424 401.553 686.072C401.255 685.72 401.105 685.245 401.105 684.648C401.105 684.157 401.244 683.709 401.521 683.304C401.809 682.899 402.215 682.579 402.737 682.344C403.271 682.109 403.895 681.992 404.609 681.992C405.665 681.992 406.508 682.259 407.137 682.792C407.767 683.315 408.113 684.024 408.177 684.92H406.033C406.001 684.568 405.852 684.291 405.585 684.088C405.329 683.875 404.983 683.768 404.545 683.768C404.14 683.768 403.825 683.843 403.601 683.992C403.388 684.141 403.281 684.349 403.281 684.616C403.281 684.915 403.431 685.144 403.729 685.304C404.028 685.453 404.492 685.608 405.121 685.768C405.761 685.928 406.289 686.093 406.705 686.264C407.121 686.435 407.479 686.701 407.777 687.064C408.087 687.416 408.247 687.885 408.257 688.472C408.257 688.984 408.113 689.443 407.825 689.848C407.548 690.253 407.143 690.573 406.609 690.808C406.087 691.032 405.473 691.144 404.769 691.144ZM413.488 691.144C412.763 691.144 412.112 691.016 411.536 690.76C410.96 690.493 410.502 690.136 410.16 689.688C409.83 689.24 409.648 688.744 409.616 688.2H411.872C411.915 688.541 412.08 688.824 412.368 689.048C412.667 689.272 413.035 689.384 413.472 689.384C413.899 689.384 414.23 689.299 414.464 689.128C414.71 688.957 414.832 688.739 414.832 688.472C414.832 688.184 414.683 687.971 414.384 687.832C414.096 687.683 413.632 687.523 412.992 687.352C412.331 687.192 411.787 687.027 411.36 686.856C410.944 686.685 410.582 686.424 410.272 686.072C409.974 685.72 409.824 685.245 409.824 684.648C409.824 684.157 409.963 683.709 410.24 683.304C410.528 682.899 410.934 682.579 411.456 682.344C411.99 682.109 412.614 681.992 413.328 681.992C414.384 681.992 415.227 682.259 415.856 682.792C416.486 683.315 416.832 684.024 416.896 684.92H414.752C414.72 684.568 414.571 684.291 414.304 684.088C414.048 683.875 413.702 683.768 413.264 683.768C412.859 683.768 412.544 683.843 412.32 683.992C412.107 684.141 412 684.349 412 684.616C412 684.915 412.15 685.144 412.448 685.304C412.747 685.453 413.211 685.608 413.84 685.768C414.48 685.928 415.008 686.093 415.424 686.264C415.84 686.435 416.198 686.701 416.496 687.064C416.806 687.416 416.966 687.885 416.976 688.472C416.976 688.984 416.832 689.443 416.544 689.848C416.267 690.253 415.862 690.573 415.328 690.808C414.806 691.032 414.192 691.144 413.488 691.144Z" fill="white"/>
<path d="M682.554 643H680.314L675.242 635.336V643H673.002V631.816H675.242L680.314 639.496V631.816H682.554V643ZM688.704 643.144C687.851 643.144 687.083 642.957 686.4 642.584C685.717 642.2 685.179 641.661 684.784 640.968C684.4 640.275 684.208 639.475 684.208 638.568C684.208 637.661 684.405 636.861 684.8 636.168C685.205 635.475 685.755 634.941 686.448 634.568C687.141 634.184 687.915 633.992 688.768 633.992C689.621 633.992 690.395 634.184 691.088 634.568C691.781 634.941 692.325 635.475 692.72 636.168C693.125 636.861 693.328 637.661 693.328 638.568C693.328 639.475 693.12 640.275 692.704 640.968C692.299 641.661 691.744 642.2 691.04 642.584C690.347 642.957 689.568 643.144 688.704 643.144ZM688.704 641.192C689.109 641.192 689.488 641.096 689.84 640.904C690.203 640.701 690.491 640.403 690.704 640.008C690.917 639.613 691.024 639.133 691.024 638.568C691.024 637.725 690.8 637.08 690.352 636.632C689.915 636.173 689.376 635.944 688.736 635.944C688.096 635.944 687.557 636.173 687.12 636.632C686.693 637.08 686.48 637.725 686.48 638.568C686.48 639.411 686.688 640.061 687.104 640.52C687.531 640.968 688.064 641.192 688.704 641.192ZM694.395 638.536C694.395 637.64 694.571 636.845 694.923 636.152C695.286 635.459 695.777 634.925 696.395 634.552C697.014 634.179 697.702 633.992 698.459 633.992C699.035 633.992 699.585 634.12 700.107 634.376C700.63 634.621 701.046 634.952 701.355 635.368V631.16H703.627V643H701.355V641.688C701.078 642.125 700.689 642.477 700.187 642.744C699.686 643.011 699.105 643.144 698.443 643.144C697.697 643.144 697.014 642.952 696.395 642.568C695.777 642.184 695.286 641.645 694.923 640.952C694.571 640.248 694.395 639.443 694.395 638.536ZM701.371 638.568C701.371 638.024 701.265 637.56 701.051 637.176C700.838 636.781 700.55 636.483 700.187 636.28C699.825 636.067 699.435 635.96 699.019 635.96C698.603 635.96 698.219 636.061 697.867 636.264C697.515 636.467 697.227 636.765 697.003 637.16C696.79 637.544 696.683 638.003 696.683 638.536C696.683 639.069 696.79 639.539 697.003 639.944C697.227 640.339 697.515 640.643 697.867 640.856C698.23 641.069 698.614 641.176 699.019 641.176C699.435 641.176 699.825 641.075 700.187 640.872C700.55 640.659 700.838 640.36 701.051 639.976C701.265 639.581 701.371 639.112 701.371 638.568ZM714.055 638.376C714.055 638.696 714.034 638.984 713.991 639.24H707.511C707.564 639.88 707.788 640.381 708.183 640.744C708.578 641.107 709.063 641.288 709.639 641.288C710.471 641.288 711.063 640.931 711.415 640.216H713.831C713.575 641.069 713.084 641.773 712.359 642.328C711.634 642.872 710.743 643.144 709.687 643.144C708.834 643.144 708.066 642.957 707.383 642.584C706.711 642.2 706.183 641.661 705.799 640.968C705.426 640.275 705.239 639.475 705.239 638.568C705.239 637.651 705.426 636.845 705.799 636.152C706.172 635.459 706.695 634.925 707.367 634.552C708.039 634.179 708.812 633.992 709.687 633.992C710.53 633.992 711.282 634.173 711.943 634.536C712.615 634.899 713.132 635.416 713.495 636.088C713.868 636.749 714.055 637.512 714.055 638.376ZM711.735 637.736C711.724 637.16 711.516 636.701 711.111 636.36C710.706 636.008 710.21 635.832 709.623 635.832C709.068 635.832 708.599 636.003 708.215 636.344C707.842 636.675 707.612 637.139 707.527 637.736H711.735ZM716.682 643.112C716.277 643.112 715.941 642.989 715.674 642.744C715.418 642.488 715.29 642.173 715.29 641.8C715.29 641.427 715.418 641.117 715.674 640.872C715.941 640.616 716.277 640.488 716.682 640.488C717.077 640.488 717.402 640.616 717.658 640.872C717.914 641.117 718.042 641.427 718.042 641.8C718.042 642.173 717.914 642.488 717.658 642.744C717.402 642.989 717.077 643.112 716.682 643.112ZM720.982 633.08C720.577 633.08 720.241 632.957 719.974 632.712C719.718 632.456 719.59 632.141 719.59 631.768C719.59 631.395 719.718 631.085 719.974 630.84C720.241 630.584 720.577 630.456 720.982 630.456C721.377 630.456 721.702 630.584 721.958 630.84C722.214 631.085 722.342 631.395 722.342 631.768C722.342 632.141 722.214 632.456 721.958 632.712C721.702 632.957 721.377 633.08 720.982 633.08ZM722.086 644.456C722.086 645.437 721.841 646.141 721.35 646.568C720.87 647.005 720.177 647.224 719.27 647.224H718.278V645.32H718.918C719.26 645.32 719.5 645.251 719.638 645.112C719.777 644.984 719.846 644.771 719.846 644.472V634.136H722.086V644.456ZM727.691 643.144C726.966 643.144 726.315 643.016 725.739 642.76C725.163 642.493 724.705 642.136 724.363 641.688C724.033 641.24 723.851 640.744 723.819 640.2H726.075C726.118 640.541 726.283 640.824 726.571 641.048C726.87 641.272 727.238 641.384 727.675 641.384C728.102 641.384 728.433 641.299 728.667 641.128C728.913 640.957 729.035 640.739 729.035 640.472C729.035 640.184 728.886 639.971 728.587 639.832C728.299 639.683 727.835 639.523 727.195 639.352C726.534 639.192 725.99 639.027 725.563 638.856C725.147 638.685 724.785 638.424 724.475 638.072C724.177 637.72 724.027 637.245 724.027 636.648C724.027 636.157 724.166 635.709 724.443 635.304C724.731 634.899 725.137 634.579 725.659 634.344C726.193 634.109 726.817 633.992 727.531 633.992C728.587 633.992 729.43 634.259 730.059 634.792C730.689 635.315 731.035 636.024 731.099 636.92H728.955C728.923 636.568 728.774 636.291 728.507 636.088C728.251 635.875 727.905 635.768 727.467 635.768C727.062 635.768 726.747 635.843 726.523 635.992C726.31 636.141 726.203 636.349 726.203 636.616C726.203 636.915 726.353 637.144 726.651 637.304C726.95 637.453 727.414 637.608 728.043 637.768C728.683 637.928 729.211 638.093 729.627 638.264C730.043 638.435 730.401 638.701 730.699 639.064C731.009 639.416 731.169 639.885 731.179 640.472C731.179 640.984 731.035 641.443 730.747 641.848C730.47 642.253 730.065 642.573 729.531 642.808C729.009 643.032 728.395 643.144 727.691 643.144Z" fill="white"/>
<path d="M990.679 678H988.439L983.367 670.336V678H981.127V666.816H983.367L988.439 674.496V666.816H990.679V678ZM1001.13 673.376C1001.13 673.696 1001.11 673.984 1001.07 674.24H994.589C994.642 674.88 994.866 675.381 995.261 675.744C995.656 676.107 996.141 676.288 996.717 676.288C997.549 676.288 998.141 675.931 998.493 675.216H1000.91C1000.65 676.069 1000.16 676.773 999.437 677.328C998.712 677.872 997.821 678.144 996.765 678.144C995.912 678.144 995.144 677.957 994.461 677.584C993.789 677.2 993.261 676.661 992.877 675.968C992.504 675.275 992.317 674.475 992.317 673.568C992.317 672.651 992.504 671.845 992.877 671.152C993.25 670.459 993.773 669.925 994.445 669.552C995.117 669.179 995.89 668.992 996.765 668.992C997.608 668.992 998.36 669.173 999.021 669.536C999.693 669.899 1000.21 670.416 1000.57 671.088C1000.95 671.749 1001.13 672.512 1001.13 673.376ZM998.813 672.736C998.802 672.16 998.594 671.701 998.189 671.36C997.784 671.008 997.288 670.832 996.701 670.832C996.146 670.832 995.677 671.003 995.293 671.344C994.92 671.675 994.69 672.139 994.605 672.736H998.813ZM1005.38 670.976V675.264C1005.38 675.563 1005.45 675.781 1005.58 675.92C1005.73 676.048 1005.98 676.112 1006.32 676.112H1007.36V678H1005.95C1004.06 678 1003.12 677.083 1003.12 675.248V670.976H1002.06V669.136H1003.12V666.944H1005.38V669.136H1007.36V670.976H1005.38ZM1011.21 666.16V678H1008.97V666.16H1011.21ZM1014.56 668.08C1014.17 668.08 1013.83 667.957 1013.57 667.712C1013.31 667.456 1013.18 667.141 1013.18 666.768C1013.18 666.395 1013.31 666.085 1013.57 665.84C1013.83 665.584 1014.17 665.456 1014.56 665.456C1014.95 665.456 1015.28 665.584 1015.54 665.84C1015.8 666.085 1015.94 666.395 1015.94 666.768C1015.94 667.141 1015.8 667.456 1015.54 667.712C1015.28 667.957 1014.95 668.08 1014.56 668.08ZM1015.66 669.136V678H1013.42V669.136H1015.66ZM1021.94 670.976H1020.39V678H1018.12V670.976H1017.11V669.136H1018.12V668.688C1018.12 667.6 1018.43 666.8 1019.05 666.288C1019.66 665.776 1020.6 665.536 1021.85 665.568V667.456C1021.3 667.445 1020.92 667.536 1020.71 667.728C1020.5 667.92 1020.39 668.267 1020.39 668.768V669.136H1021.94V670.976ZM1031.87 669.136L1026.39 682.192H1024L1025.92 677.776L1022.37 669.136H1024.88L1027.17 675.328L1029.49 669.136H1031.87Z" fill="white"/>
</g>
<defs>
<linearGradient id="paint0_linear_1556_24" x1="720" y1="117" x2="720" y2="459" gradientUnits="userSpaceOnUse">
<stop stop-color="#E5E5E5"/>
<stop offset="1" stop-color="white" stop-opacity="0"/>
</linearGradient>
<linearGradient id="paint1_linear_1556_24" x1="720" y1="307" x2="720" y2="628" gradientUnits="userSpaceOnUse">
<stop stop-color="#E5E5E5"/>
<stop offset="1" stop-color="white" stop-opacity="0"/>
</linearGradient>
<linearGradient id="paint2_linear_1556_24" x1="720" y1="536" x2="720" y2="810.5" gradientUnits="userSpaceOnUse">
<stop stop-color="#E5E5E5"/>
<stop offset="1" stop-color="white" stop-opacity="0"/>
</linearGradient>
<linearGradient id="paint3_linear_1556_24" x1="754.138" y1="297.727" x2="821.671" y2="329.217" gradientUnits="userSpaceOnUse">
<stop stop-color="white" stop-opacity="0.2"/>
<stop offset="1" stop-color="white" stop-opacity="0"/>
</linearGradient>
<linearGradient id="paint4_linear_1556_24" x1="1842.08" y1="856.55" x2="1010.22" y2="2165.14" gradientUnits="userSpaceOnUse">
<stop stop-color="#41873F"/>
<stop offset="0.3288" stop-color="#418B3D"/>
<stop offset="0.6352" stop-color="#419637"/>
<stop offset="0.9319" stop-color="#3FA92D"/>
<stop offset="1" stop-color="#3FAE2A"/>
</linearGradient>
<linearGradient id="paint5_linear_1556_24" x1="1400.88" y1="1586.38" x2="3486.54" y2="451.943" gradientUnits="userSpaceOnUse">
<stop offset="0.1376" stop-color="#41873F"/>
<stop offset="0.4032" stop-color="#54A044"/>
<stop offset="0.7136" stop-color="#66B848"/>
<stop offset="0.9081" stop-color="#6CC04A"/>
</linearGradient>
<linearGradient id="paint6_linear_1556_24" x1="608.566" y1="1486.94" x2="2367.58" y2="1486.94" gradientUnits="userSpaceOnUse">
<stop offset="0.09192" stop-color="#6CC04A"/>
<stop offset="0.2864" stop-color="#66B848"/>
<stop offset="0.5968" stop-color="#54A044"/>
<stop offset="0.8624" stop-color="#41873F"/>
</linearGradient>
<linearGradient id="paint7_linear_1556_24" x1="-202.989" y1="801.252" x2="1556.01" y2="801.252" gradientUnits="userSpaceOnUse">
<stop offset="0.09192" stop-color="#6CC04A"/>
<stop offset="0.2864" stop-color="#66B848"/>
<stop offset="0.5968" stop-color="#54A044"/>
<stop offset="0.8624" stop-color="#41873F"/>
</linearGradient>
<linearGradient id="paint8_linear_1556_24" x1="1812.27" y1="-598.665" x2="1367.63" y2="1733.9" gradientUnits="userSpaceOnUse">
<stop stop-color="#41873F"/>
<stop offset="0.3288" stop-color="#418B3D"/>
<stop offset="0.6352" stop-color="#419637"/>
<stop offset="0.9319" stop-color="#3FA92D"/>
<stop offset="1" stop-color="#3FAE2A"/>
</linearGradient>
<clipPath id="clip0_1556_24">
<rect width="1440" height="788" fill="white"/>
</clipPath>
<clipPath id="clip1_1556_24">
<rect width="90" height="80" fill="white" transform="translate(444 298)"/>
</clipPath>
<clipPath id="clip2_1556_24">
<rect width="107" height="80" fill="white" transform="translate(952.5 98)"/>
</clipPath>
<clipPath id="clip3_1556_24">
<rect width="108" height="40" fill="white" transform="translate(1049 366)"/>
</clipPath>
<clipPath id="clip4_1556_24">
<rect width="80" height="71" fill="white" transform="translate(966 543.5)"/>
</clipPath>
<clipPath id="clip5_1556_24">
<rect width="80" height="80" fill="white" transform="translate(1258 246)"/>
</clipPath>
<clipPath id="clip6_1556_24">
<rect width="80" height="80" fill="white" transform="translate(140 426)"/>
</clipPath>
<clipPath id="clip7_1556_24">
<rect width="80" height="80" fill="white" transform="translate(334 539)"/>
</clipPath>
<clipPath id="clip8_1556_24">
<rect width="80" height="49" fill="white" transform="translate(660 506.5)"/>
</clipPath>
</defs>
</svg>
