<svg width="1440" height="788" viewBox="0 0 1440 788" fill="none" xmlns="http://www.w3.org/2000/svg">
<g clip-path="url(#clip0_1538_148)">
<path d="M720 118C928.588 118 1117.38 176.044 1254.01 269.836C1390.63 363.631 1475 493.107 1475 636C1475 778.893 1390.63 908.369 1254.01 1002.16C1117.38 1095.96 928.588 1154 720 1154C511.412 1154 322.615 1095.96 185.993 1002.16C49.3665 908.369 -35 778.893 -35 636C-35 493.107 49.3665 363.631 185.993 269.836C322.615 176.044 511.412 118 720 118Z" stroke="url(#paint0_linear_1538_148)" stroke-width="2"/>
<path d="M720 308C928.588 308 1117.38 366.044 1254.01 459.836C1390.63 553.631 1475 683.107 1475 826C1475 968.893 1390.63 1098.37 1254.01 1192.16C1117.38 1285.96 928.588 1344 720 1344C511.412 1344 322.615 1285.96 185.993 1192.16C49.3665 1098.37 -35 968.893 -35 826C-35 683.107 49.3665 553.631 185.993 459.836C322.615 366.044 511.412 308 720 308Z" stroke="url(#paint1_linear_1538_148)" stroke-width="2"/>
<path d="M720 537C928.588 537 1117.38 595.044 1254.01 688.836C1390.63 782.631 1475 912.107 1475 1055C1475 1197.89 1390.63 1327.37 1254.01 1421.16C1117.38 1514.96 928.588 1573 720 1573C511.412 1573 322.615 1514.96 185.993 1421.16C49.3665 1327.37 -35 1197.89 -35 1055C-35 912.107 49.3665 782.631 185.993 688.836C322.615 595.044 511.412 537 720 537Z" stroke="url(#paint2_linear_1538_148)" stroke-width="2"/>
<rect x="168" y="158" width="140" height="140" rx="70" fill="#F3F3F3"/>
<g clip-path="url(#clip1_1538_148)">
<path d="M227.299 190.511C215.085 191.417 204.701 192.25 204.213 192.348C202.844 192.593 201.598 193.523 201.013 194.748L200.5 195.826L200.549 221.511L200.622 247.197L201.404 248.789C201.844 249.67 204.824 253.784 208.074 258.019C214.499 266.368 214.963 266.835 217.405 267.079C218.114 267.152 223.44 266.907 229.206 266.565C234.997 266.198 244.279 265.634 249.85 265.317C273.644 263.869 272.422 263.992 273.79 262.816C275.5 261.396 275.378 263.722 275.451 232.504C275.5 206.035 275.475 204.297 275.084 203.489C274.621 202.583 273.79 201.947 262.942 194.307C255.687 189.214 255.174 188.944 251.923 188.895C250.581 188.847 239.489 189.581 227.299 190.511ZM254.759 193.865C255.784 194.33 263.285 199.57 264.384 200.575C264.677 200.869 264.775 201.114 264.628 201.261C264.286 201.555 217.867 204.322 216.525 204.125C215.914 204.028 215.011 203.661 214.498 203.317C212.372 201.872 207.096 197.538 207.096 197.221C207.096 196.388 206.924 196.388 227.618 194.895C231.576 194.626 238.074 194.136 242.032 193.817C250.606 193.131 253.172 193.156 254.759 193.865ZM269.515 207.259C269.856 207.602 270.15 208.263 270.247 208.899C270.32 209.488 270.369 220.457 270.32 233.238C270.247 255.176 270.222 256.548 269.807 257.185C269.563 257.576 269.074 257.993 268.707 258.115C267.682 258.532 219.041 261.299 218.04 261.005C217.577 260.882 216.94 260.491 216.599 260.148L216.012 259.512L215.939 235.859C215.89 219.258 215.939 211.913 216.135 211.251C216.282 210.762 216.648 210.174 216.967 209.979C217.407 209.684 220.29 209.44 230.209 208.853C237.172 208.461 247.945 207.8 254.127 207.433C268.83 206.525 268.782 206.525 269.515 207.259Z" fill="black"/>
<path d="M256.443 215.365C253.805 215.537 251.459 215.782 251.191 215.929C250.384 216.345 249.896 217.031 249.798 217.815C249.726 218.623 249.97 218.721 252.607 219.04L253.755 219.187V229.642C253.755 235.86 253.658 239.975 253.536 239.852C253.414 239.705 249.945 234.417 245.815 228.1C241.687 221.759 238.267 216.542 238.217 216.494C238.168 216.444 235.481 216.592 232.257 216.813C228.298 217.082 226.125 217.327 225.684 217.572C224.975 217.939 224.193 219.236 224.193 220.094C224.193 220.608 225.122 220.878 227.076 220.878H228.102V250.946L226.441 251.46C225.147 251.851 224.706 252.096 224.487 252.585C224.096 253.418 224.121 254.177 224.512 254.177C224.658 254.177 227.419 254.005 230.594 253.81C236.873 253.443 237.581 253.271 238.24 251.974C238.437 251.582 238.607 251.165 238.607 251.043C238.607 250.945 237.752 250.651 236.725 250.407C235.674 250.162 234.624 249.917 234.404 249.868C233.989 249.745 233.964 248.987 233.964 238.457V227.169L241.391 238.849C249.184 251.091 250.162 252.488 251.359 253.099C252.85 253.883 256.637 253.344 258.542 252.096L259.129 251.729L259.178 235.031L259.251 218.307L260.545 218.063C262.084 217.768 262.793 217.059 262.793 215.834C262.793 215.051 262.744 215.001 262.012 215.026C261.574 215.046 259.058 215.193 256.443 215.365Z" fill="black"/>
</g>
<rect x="419" y="268" width="140" height="140" rx="70" fill="#F3F3F3"/>
<path d="M471.682 299.247C473.34 297.864 475.552 297.864 477.211 299.524C481.081 303.395 485.228 307.543 489.098 311.414L483.292 317.498L475.828 310.032C474.999 309.202 473.893 309.202 472.788 309.755C472.788 309.755 472.788 309.755 472.511 310.032C463.665 318.604 455.095 327.453 446.249 336.302C445.42 337.132 445.143 338.515 445.972 339.344L446.249 339.621C454.542 347.917 462.836 356.213 471.129 364.509C471.682 365.338 472.511 365.891 473.34 366.444C474.17 366.721 475.276 366.444 475.828 365.891L483.016 358.701L488.821 364.785L477.764 375.846C476.934 376.676 476.105 377.229 475.276 377.782C473.617 378.335 471.958 377.782 470.852 376.676C459.242 365.062 447.355 353.171 435.744 341.556C434.085 339.897 434.085 337.132 435.744 335.473C447.908 323.029 459.795 311.138 471.682 299.247Z" fill="#9187F6"/>
<path d="M500.986 299.244C502.645 297.585 505.409 297.585 507.068 299.244L542.177 334.364C543.282 335.47 543.835 337.129 543.282 338.789C542.729 339.895 541.9 340.724 541.071 341.554L508.174 374.738C507.345 375.567 506.515 376.397 505.409 376.95C503.751 377.503 502.092 376.95 500.986 375.844L489.099 364.23L483.294 358.422L465.601 340.724C463.943 339.065 463.943 336.3 465.601 334.917L483.017 317.496L489.099 311.412C492.969 307.264 497.116 303.392 500.986 299.244Z" fill="#8313DD"/>
<rect x="936" y="68" width="140" height="140" rx="70" fill="#F3F3F3"/>
<g clip-path="url(#clip2_1538_148)">
<path d="M1046 105.252C1046 101.247 1042.75 98 1038.75 98H973.252C969.247 98 966 101.247 966 105.252V170.748C966 174.753 969.247 178 973.252 178H1038.75C1042.75 178 1046 174.753 1046 170.748V105.252ZM992.657 113.616C995.317 113.616 997.544 115.7 997.544 118.43C997.544 121.162 995.317 123.246 992.657 123.246C989.998 123.246 987.77 121.162 987.77 118.43C987.77 115.7 989.998 113.616 992.657 113.616ZM1025.35 159.682C1020.39 159.682 1018.02 156.737 1018.02 152.711C1018.02 151.562 1018.17 150.339 1018.52 149.118L1020.9 140.638C1021.18 139.703 1021.26 138.841 1021.26 138.05C1021.26 135.32 1019.6 133.667 1016.94 133.667C1013.57 133.667 1011.34 136.091 1010.19 140.763L1005.59 159.212H997.54L998.984 153.414C996.618 157.301 993.333 159.708 989.279 159.708C984.392 159.708 982.092 156.892 982.092 152.652C982.092 151.575 982.236 150.256 982.524 149.034L986.189 134.061H980.512L982.237 127.697H995.891L990.501 149.08C990.141 150.446 989.998 151.579 989.998 152.369C989.998 153.736 990.671 154.136 991.723 154.373C992.364 154.517 997.471 154.416 1000.25 148.236L1003.79 134.061H998.042L999.767 127.697H1012.06L1010.48 134.922C1012.63 130.897 1016.94 127.072 1021.18 127.072C1025.71 127.072 1029.45 130.298 1029.45 136.478C1029.45 138.059 1029.23 139.779 1028.66 141.719L1026.36 149.981C1026.14 150.845 1026 151.563 1026 152.21C1026 153.647 1026.57 154.365 1027.65 154.365C1028.73 154.365 1030.1 153.573 1031.68 149.191L1034.84 150.412C1032.97 156.952 1029.59 159.682 1025.35 159.682Z" fill="#FF3366"/>
</g>
<rect x="1033" y="316" width="140" height="140" rx="70" fill="#F3F3F3"/>
<path d="M1078 375.847V353.347L1103 348.652L1128 353.347V375.847H1078Z" fill="#FFD54F"/>
<path d="M1078 375.847L1103 348.652L1128 375.847H1078Z" fill="#FFECB3"/>
<path d="M1063 375.848L1103 423.348L1143 375.848H1063Z" fill="#FFA000"/>
<path d="M1078 375.848L1103 423.348L1128 375.848H1078Z" fill="#FFCA28"/>
<path d="M1063 375.848L1078 353.348V375.848H1063Z" fill="#FFC107"/>
<path d="M1128 353.348V375.848H1143L1128 353.348Z" fill="#FFC107"/>
<rect x="720" y="246" width="140" height="140" rx="70" fill="#F3F3F3"/>
<path d="M767.331 276H812.669C822.234 276 830 283.766 830 293.331V338.669C830 348.234 822.234 356 812.669 356H767.331C757.766 356 750 348.234 750 338.669V293.331C750 283.766 757.766 276 767.331 276Z" fill="#FFD02F"/>
<path d="M805.59 285.99H796.807L804.122 298.846L788.023 285.99H779.239L787.289 301.711L770.456 285.99H761.672L770.456 305.996L761.672 346.008H770.456L787.289 303.131L779.239 346.008H788.023L804.122 300.29L796.807 346.008H805.59L821.69 295.981L805.59 285.99Z" fill="#050038"/>
<rect x="628" y="469" width="140" height="140" rx="70" fill="#F3F3F3"/>
<g clip-path="url(#clip3_1538_148)">
<path d="M687.286 541.344C682.671 541.344 678.916 545.098 678.916 549.714V570.63C678.916 575.245 682.671 579 687.286 579C691.901 579 695.656 575.245 695.656 570.63V549.714C695.656 545.098 691.901 541.344 687.286 541.344Z" fill="#FF4340"/>
<path d="M674.228 541.344H666.125C661.656 541.344 658.021 544.979 658.021 549.447C658.021 553.915 661.657 557.55 666.125 557.55C670.593 557.55 674.228 553.915 674.228 549.447V541.344Z" fill="#FF4340"/>
<path d="M658 528.286C658 532.901 661.755 536.656 666.37 536.656H687.286C691.902 536.656 695.656 532.901 695.656 528.286C695.656 523.671 691.902 519.916 687.286 519.916H666.37C661.755 519.916 658 523.671 658 528.286Z" fill="#36C6FF"/>
<path d="M687.552 515.228H695.655V507.125C695.655 502.656 692.02 499.021 687.552 499.021C683.084 499.021 679.449 502.657 679.449 507.125C679.449 511.593 683.084 515.228 687.552 515.228Z" fill="#36C6FF"/>
<path d="M708.714 536.656C713.329 536.656 717.084 532.902 717.084 528.286V507.37C717.084 502.755 713.329 499 708.714 499C704.098 499 700.344 502.755 700.344 507.37V528.286C700.344 532.902 704.098 536.656 708.714 536.656Z" fill="#0DC46E"/>
<path d="M721.771 536.655H729.875C734.343 536.655 737.978 533.02 737.978 528.552C737.978 524.084 734.343 520.449 729.875 520.449C725.407 520.449 721.771 524.084 721.771 528.552V536.655Z" fill="#0DC46E"/>
<path d="M738 549.714C738 545.098 734.245 541.344 729.63 541.344H708.714C704.098 541.344 700.344 545.098 700.344 549.714C700.344 554.329 704.098 558.084 708.714 558.084H729.63C734.245 558.084 738 554.329 738 549.714Z" fill="#FDCB02"/>
<path d="M708.447 562.771H700.344V570.875C700.344 575.343 703.979 578.978 708.447 578.978C712.915 578.978 716.55 575.343 716.55 570.875C716.55 566.407 712.915 562.771 708.447 562.771Z" fill="#FDCB02"/>
</g>
<rect x="938" y="496" width="140" height="140" rx="70" fill="#F3F3F3"/>
<path d="M1032.38 529.75H983.625C976.376 529.75 970.5 535.626 970.5 542.875V589.125C970.5 596.374 976.376 602.25 983.625 602.25H1032.38C1039.62 602.25 1045.5 596.374 1045.5 589.125V542.875C1045.5 535.626 1039.62 529.75 1032.38 529.75Z" fill="#470137"/>
<path d="M1009.05 550.262L999.828 566.112L1009.77 582.987C1009.97 583.331 1009.88 583.5 1009.51 583.5H1003.31C1003.16 583.516 1003 583.486 1002.87 583.413C1002.73 583.34 1002.62 583.227 1002.55 583.09L995.553 570.256H995.5L988.687 583.09C988.624 583.213 988.53 583.315 988.413 583.387C988.296 583.46 988.162 583.498 988.025 583.5H982.062C981.721 583.5 981.656 583.331 981.859 582.987L991.634 566.575L982.321 550.159C982.118 549.887 982.187 549.75 982.525 549.75H988.737C988.87 549.74 989.003 549.769 989.121 549.833C989.238 549.896 989.335 549.992 989.4 550.109L995.962 562.79H996.012L1002.54 550.109C1002.6 549.993 1002.7 549.897 1002.82 549.834C1002.93 549.77 1003.07 549.741 1003.2 549.75H1008.85C1009.22 549.75 1009.29 549.922 1009.05 550.262Z" fill="#FF61F6"/>
<path d="M1024.21 584.125C1020.58 584.125 1017.79 583.097 1015.63 581.044C1013.46 578.991 1012.38 575.957 1012.38 571.938C1012.38 568.286 1013.54 565.286 1015.87 562.938C1017.06 561.704 1018.49 560.729 1020.08 560.073C1021.66 559.417 1023.37 559.095 1025.08 559.125C1025.85 559.112 1026.62 559.193 1027.36 559.369V548.794C1027.36 548.754 1027.36 548.714 1027.37 548.676C1027.39 548.638 1027.41 548.603 1027.43 548.575C1027.46 548.547 1027.5 548.525 1027.54 548.512C1027.57 548.499 1027.61 548.495 1027.65 548.5H1033.37C1033.52 548.5 1033.61 548.597 1033.61 548.794V578.403C1033.61 579.653 1034.15 580.719 1034.23 581.632C1034.25 581.722 1034.23 581.815 1034.19 581.896C1034.14 581.976 1034.07 582.039 1033.99 582.072C1031.18 583.441 1027.51 584.125 1024.21 584.125ZM1027.38 579.285V564.169C1027.17 563.813 1026.1 563.5 1025 563.5C1024.09 563.477 1023.18 563.657 1022.35 564.027C1021.52 564.397 1020.78 564.949 1020.19 565.641C1018.75 567.329 1017.97 569.484 1018 571.703C1018 574.441 1018.94 576.316 1020.16 577.619C1020.74 578.281 1021.45 578.814 1022.25 579.181C1023.04 579.548 1023.91 579.742 1024.79 579.75C1025.96 579.75 1027.1 579.575 1027.38 579.285Z" fill="#FF61F6"/>
<rect x="1228" y="216" width="140" height="140" rx="70" fill="#F3F3F3"/>
<path d="M1272.17 247H1323.83C1331.67 247 1338 253.333 1338 261.167V310.833C1338 318.667 1331.67 325 1323.83 325H1272.17C1264.33 325 1258 318.667 1258 310.833V261.167C1258 253.333 1264.33 247 1272.17 247Z" fill="#001834"/>
<path d="M1276 301.701V267.401C1276 267.167 1276.1 267.034 1276.33 267.034C1276.9 267.034 1277.43 267.034 1278.2 267.001C1279 266.967 1279.83 266.967 1280.73 266.934C1281.63 266.901 1282.6 266.901 1283.63 266.867C1284.67 266.834 1285.67 266.834 1286.67 266.834C1289.4 266.834 1291.67 267.167 1293.53 267.867C1295.2 268.434 1296.73 269.367 1298 270.601C1299.07 271.667 1299.9 272.967 1300.43 274.401C1300.93 275.801 1301.2 277.234 1301.2 278.734C1301.2 281.601 1300.53 283.967 1299.2 285.834C1297.87 287.701 1296 289.101 1293.83 289.901C1291.57 290.734 1289.07 291.034 1286.33 291.034C1285.53 291.034 1285 291.034 1284.67 291.001C1284.33 290.967 1283.87 290.967 1283.23 290.967V301.667C1283.27 301.901 1283.1 302.101 1282.87 302.134C1282.83 302.134 1282.8 302.134 1282.73 302.134H1276.4C1276.13 302.134 1276 302.001 1276 301.701ZM1283.27 273.467V284.667C1283.73 284.701 1284.17 284.734 1284.57 284.734H1286.33C1288.64 284.734 1291.29 284.193 1292.9 282.368C1294.28 280.796 1294.29 277.68 1293.17 275.968C1291.84 273.934 1289.18 273.345 1286.9 273.401C1286.03 273.401 1285.27 273.401 1284.63 273.434C1283.97 273.401 1283.5 273.434 1283.27 273.467Z" fill="#00A9FF"/>
<path d="M1322 282.635C1321 282.102 1319.93 281.735 1318.8 281.502C1317.57 281.235 1316.33 281.068 1315.07 281.068C1314.4 281.035 1313.7 281.135 1313.07 281.302C1312.63 281.402 1312.27 281.635 1312.03 281.968C1311.87 282.235 1311.77 282.568 1311.77 282.868C1311.77 283.168 1311.9 283.468 1312.1 283.735C1312.4 284.102 1312.8 284.402 1313.23 284.635C1314 285.035 1314.8 285.402 1315.6 285.735C1317.4 286.335 1319.13 287.168 1320.73 288.168C1321.83 288.868 1322.73 289.802 1323.37 290.935C1323.9 292.002 1324.17 293.168 1324.13 294.368C1324.17 295.935 1323.7 297.502 1322.83 298.802C1321.9 300.135 1320.6 301.168 1319.1 301.768C1317.47 302.468 1315.47 302.835 1313.07 302.835C1311.53 302.835 1310.03 302.702 1308.53 302.402C1307.37 302.202 1306.2 301.835 1305.13 301.335C1304.9 301.202 1304.73 300.968 1304.77 300.702V294.902C1304.77 294.802 1304.8 294.668 1304.9 294.602C1305 294.535 1305.1 294.568 1305.2 294.635C1306.5 295.402 1307.87 295.935 1309.33 296.268C1310.6 296.602 1311.93 296.768 1313.27 296.768C1314.53 296.768 1315.43 296.602 1316.03 296.302C1316.57 296.068 1316.93 295.502 1316.93 294.902C1316.93 294.435 1316.67 294.002 1316.13 293.568C1315.6 293.135 1314.5 292.635 1312.87 292.002C1311.17 291.402 1309.6 290.602 1308.13 289.602C1307.1 288.868 1306.23 287.902 1305.6 286.768C1305.07 285.702 1304.8 284.535 1304.83 283.368C1304.83 281.935 1305.23 280.568 1305.97 279.335C1306.8 278.002 1308.03 276.935 1309.47 276.268C1311.03 275.468 1313 275.102 1315.37 275.102C1316.73 275.102 1318.13 275.202 1319.5 275.402C1320.5 275.535 1321.47 275.802 1322.37 276.168C1322.5 276.202 1322.63 276.335 1322.7 276.468C1322.73 276.602 1322.77 276.735 1322.77 276.868V282.302C1322.77 282.435 1322.7 282.568 1322.6 282.635C1322.3 282.702 1322.13 282.702 1322 282.635Z" fill="#00A9FF"/>
<rect x="529" y="38" width="140" height="140" rx="70" fill="#F3F3F3"/>
<g clip-path="url(#clip4_1538_148)">
<path d="M576.04 82.9434C575.347 82.9434 574.711 83.2373 574.28 83.7191C573.892 84.1269 573.65 84.6818 573.633 85.2852V85.4455C573.641 85.7318 573.696 86.0004 573.797 86.2472C573.801 86.269 573.81 86.2866 573.818 86.3084C573.896 86.4948 573.995 86.6678 574.12 86.8288C574.163 86.89 574.211 86.9462 574.263 86.9976C574.273 87.0119 574.284 87.0251 574.297 87.037L581.97 96.1918L584.74 99.4963L593.035 109.39L595.806 112.689L603.232 121.55L605.998 124.85V147.995C607.565 148 609.072 147.388 610.197 146.292C610.202 146.292 610.202 146.292 610.202 146.287L611.017 145.311L630.938 121.55L637.756 113.414C637.791 113.379 637.821 113.34 637.851 113.301C637.998 113.119 638.114 112.914 638.2 112.689C638.308 112.421 638.364 112.126 638.364 111.813V85.3633C638.364 84.7254 638.118 84.1396 637.713 83.7148C637.489 83.4701 637.217 83.2751 636.913 83.1423C636.61 83.0094 636.282 82.9417 635.952 82.9434H576.04Z" fill="black"/>
<path d="M576.04 82.9434C575.347 82.9434 574.711 83.2373 574.28 83.7191C573.892 84.1269 573.65 84.6818 573.633 85.2852V85.4455C573.641 85.7317 573.696 86.0004 573.797 86.2472C573.801 86.269 573.81 86.2866 573.818 86.3084C573.896 86.4948 573.995 86.6678 574.12 86.8288C574.163 86.89 574.211 86.9462 574.263 86.9976C574.273 87.0119 574.284 87.0251 574.297 87.037L581.97 96.1918L584.74 99.4963L593.035 109.39L595.806 112.689L603.232 121.55L605.998 124.85V147.995C607.565 148 609.072 147.388 610.197 146.292C610.202 146.292 610.202 146.292 610.202 146.287L611.017 145.311L630.938 121.55L637.756 113.414C637.791 113.379 637.821 113.34 637.851 113.301C637.998 113.119 638.114 112.914 638.2 112.689C638.308 112.421 638.364 112.126 638.364 111.813V85.3633C638.364 84.7254 638.118 84.1396 637.713 83.7148C637.489 83.4701 637.217 83.2751 636.913 83.1423C636.61 83.0094 636.282 82.9417 635.952 82.9434H576.04Z" fill="url(#paint3_linear_1538_148)"/>
<path d="M605.999 138.101V147.997C604.432 147.998 602.926 147.387 601.799 146.292C601.795 146.292 601.795 146.292 601.795 146.288L600.98 145.312L581.059 121.551L574.28 113.462C574.263 113.452 574.249 113.437 574.241 113.419L574.133 113.294C574.125 113.284 574.119 113.276 574.112 113.267C573.979 113.091 573.873 112.897 573.797 112.69C573.696 112.438 573.64 112.169 573.633 111.897V111.732C573.633 111.68 573.637 111.628 573.646 111.576C573.693 111.03 573.926 110.543 574.28 110.162C574.505 109.919 574.777 109.724 575.08 109.592C575.383 109.459 575.71 109.391 576.04 109.391H581.923L584.689 112.69L592.116 121.551L604.293 136.075L605.994 138.105L605.999 138.101Z" fill="#FCD1CA"/>
<path d="M605.999 124.851V138.098L605.994 138.102L604.295 136.073L592.118 121.551L584.69 112.691L581.923 109.389L574.235 100.225C574.046 100.011 573.896 99.7641 573.794 99.4967C573.695 99.2413 573.64 98.9705 573.633 98.6964V98.5332C573.649 97.9492 573.879 97.3917 574.28 96.9685C574.503 96.7225 574.775 96.5263 575.078 96.3924C575.381 96.2586 575.709 96.1901 576.04 96.1914H581.971L584.742 99.4967L593.037 109.389L595.804 112.691L603.232 121.55L605.999 124.851Z" fill="#FF9D8D"/>
</g>
<rect x="110" y="396" width="140" height="140" rx="70" fill="#F3F3F3"/>
<path d="M154.167 427H205.833C213.667 427 220 433.333 220 441.167V490.833C220 498.667 213.667 505 205.833 505H154.167C146.333 505 140 498.667 140 490.833V441.167C140 433.333 146.333 427 154.167 427Z" fill="#390000"/>
<path d="M178.766 473.8H166.366L163.833 481.634C163.766 481.934 163.499 482.134 163.199 482.1H156.933C156.566 482.1 156.466 481.9 156.566 481.5L167.299 450.6C167.399 450.267 167.499 449.9 167.632 449.5C167.766 448.8 167.832 448.067 167.832 447.334C167.799 447.167 167.932 447 168.099 446.967H168.199H176.732C176.999 446.967 177.132 447.067 177.166 447.234L189.332 481.567C189.432 481.934 189.332 482.1 188.999 482.1H182.032C181.799 482.133 181.566 481.967 181.499 481.733L178.766 473.8ZM168.299 467.034H176.766L172.499 453.134L168.299 467.034Z" fill="#FF9A00"/>
<path d="M196.6 452.668C195.5 452.701 194.433 452.268 193.633 451.501C192.867 450.668 192.467 449.568 192.5 448.434C192.467 447.301 192.9 446.234 193.7 445.467C194.5 444.701 195.567 444.301 196.667 444.301C197.967 444.301 198.967 444.701 199.7 445.467C200.433 446.267 200.833 447.334 200.8 448.434C200.833 449.567 200.433 450.667 199.633 451.501C198.867 452.301 197.733 452.734 196.6 452.668Z" fill="#FF9A00"/>
<path d="M192.865 481.6V455.934C192.865 455.6 192.999 455.467 193.299 455.467H199.899C200.199 455.467 200.332 455.634 200.332 455.934V481.6C200.332 481.967 200.199 482.134 199.899 482.134H193.365C193.032 482.134 192.865 481.934 192.865 481.6Z" fill="#FF9A00"/>
<rect x="322" y="508" width="140" height="140" rx="70" fill="#F3F3F3"/>
<path d="M392.094 577.999C392.094 570.636 398.063 564.666 405.427 564.666C412.791 564.666 418.76 570.636 418.76 577.999C418.76 585.363 412.791 591.333 405.427 591.333C398.063 591.333 392.094 585.363 392.094 577.999Z" fill="#00BCFF"/>
<path d="M365.428 604.667C365.428 597.303 371.397 591.333 378.761 591.333L385.866 587.582L392.094 591.333V604.667C392.094 612.031 386.125 618 378.761 618C371.397 618 365.428 612.03 365.428 604.667Z" fill="#00CF7F"/>
<path d="M392.093 538L384.838 550.605L392.093 564.667H405.239C412.603 564.667 418.573 558.697 418.573 551.333C418.573 543.97 412.603 538 405.239 538H392.093Z" fill="#FF7361"/>
<path d="M365.24 551.333C365.24 558.697 371.21 564.667 378.574 564.667L385.646 567.398L392.094 564.667V538H378.573C371.21 538 365.24 543.97 365.24 551.333Z" fill="#FF4D12"/>
<path d="M365.428 577.999C365.428 585.363 371.397 591.333 378.761 591.333H392.094V564.666H378.761C371.397 564.666 365.428 570.636 365.428 577.999Z" fill="#B659FF"/>
<path d="M220.953 332H218.713L213.641 324.336V332H211.401V320.816H213.641L218.713 328.496V320.816H220.953V332ZM227.103 332.144C226.249 332.144 225.481 331.957 224.799 331.584C224.116 331.2 223.577 330.661 223.183 329.968C222.799 329.275 222.607 328.475 222.607 327.568C222.607 326.661 222.804 325.861 223.199 325.168C223.604 324.475 224.153 323.941 224.847 323.568C225.54 323.184 226.313 322.992 227.167 322.992C228.02 322.992 228.793 323.184 229.487 323.568C230.18 323.941 230.724 324.475 231.119 325.168C231.524 325.861 231.727 326.661 231.727 327.568C231.727 328.475 231.519 329.275 231.102 329.968C230.697 330.661 230.143 331.2 229.439 331.584C228.745 331.957 227.967 332.144 227.103 332.144ZM227.103 330.192C227.508 330.192 227.887 330.096 228.239 329.904C228.601 329.701 228.889 329.403 229.103 329.008C229.316 328.613 229.423 328.133 229.423 327.568C229.423 326.725 229.199 326.08 228.751 325.632C228.313 325.173 227.775 324.944 227.135 324.944C226.495 324.944 225.956 325.173 225.519 325.632C225.092 326.08 224.879 326.725 224.879 327.568C224.879 328.411 225.087 329.061 225.503 329.52C225.929 329.968 226.463 330.192 227.103 330.192ZM235.978 324.976V329.264C235.978 329.563 236.047 329.781 236.186 329.92C236.335 330.048 236.58 330.112 236.922 330.112H237.962V332H236.554C234.666 332 233.722 331.083 233.722 329.248V324.976H232.666V323.136H233.722V320.944H235.978V323.136H237.962V324.976H235.978ZM240.709 322.08C240.314 322.08 239.983 321.957 239.717 321.712C239.461 321.456 239.333 321.141 239.333 320.768C239.333 320.395 239.461 320.085 239.717 319.84C239.983 319.584 240.314 319.456 240.709 319.456C241.103 319.456 241.429 319.584 241.685 319.84C241.951 320.085 242.085 320.395 242.085 320.768C242.085 321.141 241.951 321.456 241.685 321.712C241.429 321.957 241.103 322.08 240.709 322.08ZM241.813 323.136V332H239.573V323.136H241.813ZM247.962 332.144C247.109 332.144 246.341 331.957 245.658 331.584C244.975 331.2 244.437 330.661 244.042 329.968C243.658 329.275 243.466 328.475 243.466 327.568C243.466 326.661 243.663 325.861 244.058 325.168C244.463 324.475 245.013 323.941 245.706 323.568C246.399 323.184 247.173 322.992 248.026 322.992C248.879 322.992 249.653 323.184 250.346 323.568C251.039 323.941 251.583 324.475 251.978 325.168C252.383 325.861 252.586 326.661 252.586 327.568C252.586 328.475 252.378 329.275 251.962 329.968C251.557 330.661 251.002 331.2 250.298 331.584C249.605 331.957 248.826 332.144 247.962 332.144ZM247.962 330.192C248.367 330.192 248.746 330.096 249.098 329.904C249.461 329.701 249.749 329.403 249.962 329.008C250.175 328.613 250.282 328.133 250.282 327.568C250.282 326.725 250.058 326.08 249.61 325.632C249.173 325.173 248.634 324.944 247.994 324.944C247.354 324.944 246.815 325.173 246.378 325.632C245.951 326.08 245.738 326.725 245.738 327.568C245.738 328.411 245.946 329.061 246.362 329.52C246.789 329.968 247.322 330.192 247.962 330.192ZM259.141 323.008C260.197 323.008 261.05 323.344 261.701 324.016C262.352 324.677 262.677 325.605 262.677 326.8V332H260.437V327.104C260.437 326.4 260.261 325.861 259.909 325.488C259.557 325.104 259.077 324.912 258.469 324.912C257.85 324.912 257.36 325.104 256.997 325.488C256.645 325.861 256.469 326.4 256.469 327.104V332H254.229V323.136H256.469V324.24C256.768 323.856 257.146 323.557 257.605 323.344C258.074 323.12 258.586 323.008 259.141 323.008Z" fill="white"/>
<path d="M576.311 202.288C576.311 202.885 576.167 203.445 575.878 203.968C575.601 204.491 575.159 204.912 574.551 205.232C573.953 205.552 573.196 205.712 572.279 205.712H570.407V210H568.167V198.832H572.279C573.143 198.832 573.879 198.981 574.487 199.28C575.095 199.579 575.548 199.989 575.847 200.512C576.156 201.035 576.311 201.627 576.311 202.288ZM572.183 203.904C572.801 203.904 573.26 203.765 573.559 203.488C573.857 203.2 574.007 202.8 574.007 202.288C574.007 201.2 573.399 200.656 572.183 200.656H570.407V203.904H572.183ZM580.141 202.512C580.429 202.043 580.802 201.675 581.261 201.408C581.73 201.141 582.264 201.008 582.861 201.008V203.36H582.269C581.565 203.36 581.032 203.525 580.669 203.856C580.317 204.187 580.141 204.763 580.141 205.584V210H577.901V201.136H580.141V202.512ZM588.306 210.144C587.452 210.144 586.684 209.957 586.002 209.584C585.319 209.2 584.78 208.661 584.386 207.968C584.002 207.275 583.81 206.475 583.81 205.568C583.81 204.661 584.007 203.861 584.402 203.168C584.807 202.475 585.356 201.941 586.05 201.568C586.743 201.184 587.516 200.992 588.37 200.992C589.223 200.992 589.996 201.184 590.69 201.568C591.383 201.941 591.927 202.475 592.322 203.168C592.727 203.861 592.93 204.661 592.93 205.568C592.93 206.475 592.722 207.275 592.306 207.968C591.9 208.661 591.346 209.2 590.642 209.584C589.948 209.957 589.17 210.144 588.306 210.144ZM588.306 208.192C588.711 208.192 589.09 208.096 589.442 207.904C589.804 207.701 590.092 207.403 590.306 207.008C590.519 206.613 590.626 206.133 590.626 205.568C590.626 204.725 590.402 204.08 589.954 203.632C589.516 203.173 588.978 202.944 588.338 202.944C587.698 202.944 587.159 203.173 586.722 203.632C586.295 204.08 586.082 204.725 586.082 205.568C586.082 206.411 586.29 207.061 586.706 207.52C587.132 207.968 587.666 208.192 588.306 208.192ZM597.181 202.976V207.264C597.181 207.563 597.25 207.781 597.389 207.92C597.538 208.048 597.783 208.112 598.125 208.112H599.165V210H597.757C595.869 210 594.925 209.083 594.925 207.248V202.976H593.869V201.136H594.925V198.944H597.181V201.136H599.165V202.976H597.181ZM604.712 210.144C603.859 210.144 603.091 209.957 602.408 209.584C601.725 209.2 601.187 208.661 600.792 207.968C600.408 207.275 600.216 206.475 600.216 205.568C600.216 204.661 600.413 203.861 600.808 203.168C601.213 202.475 601.763 201.941 602.456 201.568C603.149 201.184 603.923 200.992 604.776 200.992C605.629 200.992 606.403 201.184 607.096 201.568C607.789 201.941 608.333 202.475 608.728 203.168C609.133 203.861 609.336 204.661 609.336 205.568C609.336 206.475 609.128 207.275 608.712 207.968C608.307 208.661 607.752 209.2 607.048 209.584C606.355 209.957 605.576 210.144 604.712 210.144ZM604.712 208.192C605.117 208.192 605.496 208.096 605.848 207.904C606.211 207.701 606.499 207.403 606.712 207.008C606.925 206.613 607.032 206.133 607.032 205.568C607.032 204.725 606.808 204.08 606.36 203.632C605.923 203.173 605.384 202.944 604.744 202.944C604.104 202.944 603.565 203.173 603.128 203.632C602.701 204.08 602.488 204.725 602.488 205.568C602.488 206.411 602.696 207.061 603.112 207.52C603.539 207.968 604.072 208.192 604.712 208.192ZM619.123 202.288C619.123 202.885 618.979 203.445 618.691 203.968C618.414 204.491 617.971 204.912 617.363 205.232C616.766 205.552 616.008 205.712 615.091 205.712H613.219V210H610.979V198.832H615.091C615.955 198.832 616.691 198.981 617.299 199.28C617.907 199.579 618.36 199.989 618.659 200.512C618.968 201.035 619.123 201.627 619.123 202.288ZM614.995 203.904C615.614 203.904 616.072 203.765 616.371 203.488C616.67 203.2 616.819 202.8 616.819 202.288C616.819 201.2 616.211 200.656 614.995 200.656H613.219V203.904H614.995ZM621.849 200.08C621.455 200.08 621.124 199.957 620.857 199.712C620.601 199.456 620.473 199.141 620.473 198.768C620.473 198.395 620.601 198.085 620.857 197.84C621.124 197.584 621.455 197.456 621.849 197.456C622.244 197.456 622.569 197.584 622.825 197.84C623.092 198.085 623.225 198.395 623.225 198.768C623.225 199.141 623.092 199.456 622.825 199.712C622.569 199.957 622.244 200.08 621.849 200.08ZM622.953 201.136V210H620.713V201.136H622.953ZM633.407 205.376C633.407 205.696 633.385 205.984 633.343 206.24H626.863C626.916 206.88 627.14 207.381 627.535 207.744C627.929 208.107 628.415 208.288 628.991 208.288C629.823 208.288 630.415 207.931 630.767 207.216H633.183C632.927 208.069 632.436 208.773 631.711 209.328C630.985 209.872 630.095 210.144 629.039 210.144C628.185 210.144 627.417 209.957 626.735 209.584C626.063 209.2 625.535 208.661 625.151 207.968C624.777 207.275 624.59 206.475 624.59 205.568C624.59 204.651 624.777 203.845 625.151 203.152C625.524 202.459 626.047 201.925 626.719 201.552C627.391 201.179 628.164 200.992 629.039 200.992C629.881 200.992 630.633 201.173 631.295 201.536C631.967 201.899 632.484 202.416 632.847 203.088C633.22 203.749 633.407 204.512 633.407 205.376ZM631.087 204.736C631.076 204.16 630.868 203.701 630.463 203.36C630.057 203.008 629.561 202.832 628.975 202.832C628.42 202.832 627.951 203.003 627.567 203.344C627.193 203.675 626.964 204.139 626.879 204.736H631.087Z" fill="white"/>
<path d="M977.438 229.832V241H975.198V229.832H977.438ZM984.563 232.008C985.619 232.008 986.472 232.344 987.123 233.016C987.774 233.677 988.099 234.605 988.099 235.8V241H985.859V236.104C985.859 235.4 985.683 234.861 985.331 234.488C984.979 234.104 984.499 233.912 983.891 233.912C983.272 233.912 982.782 234.104 982.419 234.488C982.067 234.861 981.891 235.4 981.891 236.104V241H979.651V232.136H981.891V233.24C982.19 232.856 982.568 232.557 983.027 232.344C983.496 232.12 984.008 232.008 984.563 232.008ZM1000.26 229.832L996.165 241H993.445L989.349 229.832H991.749L994.821 238.712L997.877 229.832H1000.26ZM1002.74 231.08C1002.35 231.08 1002.01 230.957 1001.75 230.712C1001.49 230.456 1001.36 230.141 1001.36 229.768C1001.36 229.395 1001.49 229.085 1001.75 228.84C1002.01 228.584 1002.35 228.456 1002.74 228.456C1003.13 228.456 1003.46 228.584 1003.72 228.84C1003.98 229.085 1004.12 229.395 1004.12 229.768C1004.12 230.141 1003.98 230.456 1003.72 230.712C1003.46 230.957 1003.13 231.08 1002.74 231.08ZM1003.84 232.136V241H1001.6V232.136H1003.84ZM1009.45 241.144C1008.72 241.144 1008.07 241.016 1007.5 240.76C1006.92 240.493 1006.46 240.136 1006.12 239.688C1005.79 239.24 1005.61 238.744 1005.58 238.2H1007.83C1007.88 238.541 1008.04 238.824 1008.33 239.048C1008.63 239.272 1009 239.384 1009.43 239.384C1009.86 239.384 1010.19 239.299 1010.43 239.128C1010.67 238.957 1010.79 238.739 1010.79 238.472C1010.79 238.184 1010.64 237.971 1010.35 237.832C1010.06 237.683 1009.59 237.523 1008.95 237.352C1008.29 237.192 1007.75 237.027 1007.32 236.856C1006.91 236.685 1006.54 236.424 1006.23 236.072C1005.93 235.72 1005.79 235.245 1005.79 234.648C1005.79 234.157 1005.92 233.709 1006.2 233.304C1006.49 232.899 1006.89 232.579 1007.42 232.344C1007.95 232.109 1008.57 231.992 1009.29 231.992C1010.35 231.992 1011.19 232.259 1011.82 232.792C1012.45 233.315 1012.79 234.024 1012.86 234.92H1010.71C1010.68 234.568 1010.53 234.291 1010.27 234.088C1010.01 233.875 1009.66 233.768 1009.23 233.768C1008.82 233.768 1008.51 233.843 1008.28 233.992C1008.07 234.141 1007.96 234.349 1007.96 234.616C1007.96 234.915 1008.11 235.144 1008.41 235.304C1008.71 235.453 1009.17 235.608 1009.8 235.768C1010.44 235.928 1010.97 236.093 1011.39 236.264C1011.8 236.435 1012.16 236.701 1012.46 237.064C1012.77 237.416 1012.93 237.885 1012.94 238.472C1012.94 238.984 1012.79 239.443 1012.51 239.848C1012.23 240.253 1011.82 240.573 1011.29 240.808C1010.77 241.032 1010.15 241.144 1009.45 241.144ZM1015.91 231.08C1015.52 231.08 1015.19 230.957 1014.92 230.712C1014.66 230.456 1014.54 230.141 1014.54 229.768C1014.54 229.395 1014.66 229.085 1014.92 228.84C1015.19 228.584 1015.52 228.456 1015.91 228.456C1016.31 228.456 1016.63 228.584 1016.89 228.84C1017.15 229.085 1017.29 229.395 1017.29 229.768C1017.29 230.141 1017.15 230.456 1016.89 230.712C1016.63 230.957 1016.31 231.08 1015.91 231.08ZM1017.02 232.136V241H1014.78V232.136H1017.02ZM1023.17 241.144C1022.31 241.144 1021.54 240.957 1020.86 240.584C1020.18 240.2 1019.64 239.661 1019.25 238.968C1018.86 238.275 1018.67 237.475 1018.67 236.568C1018.67 235.661 1018.87 234.861 1019.26 234.168C1019.67 233.475 1020.22 232.941 1020.91 232.568C1021.6 232.184 1022.38 231.992 1023.23 231.992C1024.08 231.992 1024.86 232.184 1025.55 232.568C1026.24 232.941 1026.79 233.475 1027.18 234.168C1027.59 234.861 1027.79 235.661 1027.79 236.568C1027.79 237.475 1027.58 238.275 1027.16 238.968C1026.76 239.661 1026.21 240.2 1025.5 240.584C1024.81 240.957 1024.03 241.144 1023.17 241.144ZM1023.17 239.192C1023.57 239.192 1023.95 239.096 1024.3 238.904C1024.66 238.701 1024.95 238.403 1025.17 238.008C1025.38 237.613 1025.49 237.133 1025.49 236.568C1025.49 235.725 1025.26 235.08 1024.81 234.632C1024.38 234.173 1023.84 233.944 1023.2 233.944C1022.56 233.944 1022.02 234.173 1021.58 234.632C1021.15 235.08 1020.94 235.725 1020.94 236.568C1020.94 237.411 1021.15 238.061 1021.57 238.52C1021.99 238.968 1022.53 239.192 1023.17 239.192ZM1034.34 232.008C1035.4 232.008 1036.25 232.344 1036.9 233.016C1037.55 233.677 1037.88 234.605 1037.88 235.8V241H1035.64V236.104C1035.64 235.4 1035.46 234.861 1035.11 234.488C1034.76 234.104 1034.28 233.912 1033.67 233.912C1033.05 233.912 1032.56 234.104 1032.2 234.488C1031.85 234.861 1031.67 235.4 1031.67 236.104V241H1029.43V232.136H1031.67V233.24C1031.97 232.856 1032.35 232.557 1032.81 232.344C1033.28 232.12 1033.79 232.008 1034.34 232.008Z" fill="white"/>
<path d="M1260.62 378.288C1260.62 378.885 1260.47 379.445 1260.18 379.968C1259.91 380.491 1259.46 380.912 1258.86 381.232C1258.26 381.552 1257.5 381.712 1256.58 381.712H1254.71V386H1252.47V374.832H1256.58C1257.45 374.832 1258.18 374.981 1258.79 375.28C1259.4 375.579 1259.85 375.989 1260.15 376.512C1260.46 377.035 1260.62 377.627 1260.62 378.288ZM1256.49 379.904C1257.11 379.904 1257.56 379.765 1257.86 379.488C1258.16 379.2 1258.31 378.8 1258.31 378.288C1258.31 377.2 1257.7 376.656 1256.49 376.656H1254.71V379.904H1256.49ZM1267.2 377.008C1267.87 377.008 1268.47 377.157 1268.99 377.456C1269.51 377.744 1269.92 378.176 1270.21 378.752C1270.5 379.317 1270.65 380 1270.65 380.8V386H1268.41V381.104C1268.41 380.4 1268.24 379.861 1267.89 379.488C1267.53 379.104 1267.05 378.912 1266.45 378.912C1265.83 378.912 1265.34 379.104 1264.97 379.488C1264.62 379.861 1264.45 380.4 1264.45 381.104V386H1262.21V374.16H1264.45V378.24C1264.73 377.856 1265.12 377.557 1265.6 377.344C1266.08 377.12 1266.61 377.008 1267.2 377.008ZM1276.72 386.144C1275.87 386.144 1275.1 385.957 1274.42 385.584C1273.73 385.2 1273.19 384.661 1272.8 383.968C1272.42 383.275 1272.22 382.475 1272.22 381.568C1272.22 380.661 1272.42 379.861 1272.82 379.168C1273.22 378.475 1273.77 377.941 1274.46 377.568C1275.16 377.184 1275.93 376.992 1276.78 376.992C1277.64 376.992 1278.41 377.184 1279.1 377.568C1279.8 377.941 1280.34 378.475 1280.74 379.168C1281.14 379.861 1281.34 380.661 1281.34 381.568C1281.34 382.475 1281.14 383.275 1280.72 383.968C1280.31 384.661 1279.76 385.2 1279.06 385.584C1278.36 385.957 1277.58 386.144 1276.72 386.144ZM1276.72 384.192C1277.13 384.192 1277.5 384.096 1277.86 383.904C1278.22 383.701 1278.51 383.403 1278.72 383.008C1278.93 382.613 1279.04 382.133 1279.04 381.568C1279.04 380.725 1278.82 380.08 1278.37 379.632C1277.93 379.173 1277.39 378.944 1276.75 378.944C1276.11 378.944 1275.57 379.173 1275.14 379.632C1274.71 380.08 1274.5 380.725 1274.5 381.568C1274.5 382.411 1274.7 383.061 1275.12 383.52C1275.55 383.968 1276.08 384.192 1276.72 384.192ZM1285.59 378.976V383.264C1285.59 383.563 1285.66 383.781 1285.8 383.92C1285.95 384.048 1286.2 384.112 1286.54 384.112H1287.58V386H1286.17C1284.28 386 1283.34 385.083 1283.34 383.248V378.976H1282.28V377.136H1283.34V374.944H1285.59V377.136H1287.58V378.976H1285.59ZM1293.13 386.144C1292.27 386.144 1291.5 385.957 1290.82 385.584C1290.14 385.2 1289.6 384.661 1289.21 383.968C1288.82 383.275 1288.63 382.475 1288.63 381.568C1288.63 380.661 1288.83 379.861 1289.22 379.168C1289.63 378.475 1290.18 377.941 1290.87 377.568C1291.56 377.184 1292.34 376.992 1293.19 376.992C1294.04 376.992 1294.82 377.184 1295.51 377.568C1296.2 377.941 1296.75 378.475 1297.14 379.168C1297.55 379.861 1297.75 380.661 1297.75 381.568C1297.75 382.475 1297.54 383.275 1297.13 383.968C1296.72 384.661 1296.17 385.2 1295.46 385.584C1294.77 385.957 1293.99 386.144 1293.13 386.144ZM1293.13 384.192C1293.53 384.192 1293.91 384.096 1294.26 383.904C1294.62 383.701 1294.91 383.403 1295.13 383.008C1295.34 382.613 1295.45 382.133 1295.45 381.568C1295.45 380.725 1295.22 380.08 1294.77 379.632C1294.34 379.173 1293.8 378.944 1293.16 378.944C1292.52 378.944 1291.98 379.173 1291.54 379.632C1291.12 380.08 1290.9 380.725 1290.9 381.568C1290.9 382.411 1291.11 383.061 1291.53 383.52C1291.95 383.968 1292.49 384.192 1293.13 384.192ZM1302.79 386.144C1302.06 386.144 1301.41 386.016 1300.83 385.76C1300.26 385.493 1299.8 385.136 1299.46 384.688C1299.13 384.24 1298.95 383.744 1298.91 383.2H1301.17C1301.21 383.541 1301.38 383.824 1301.67 384.048C1301.96 384.272 1302.33 384.384 1302.77 384.384C1303.2 384.384 1303.53 384.299 1303.76 384.128C1304.01 383.957 1304.13 383.739 1304.13 383.472C1304.13 383.184 1303.98 382.971 1303.68 382.832C1303.39 382.683 1302.93 382.523 1302.29 382.352C1301.63 382.192 1301.08 382.027 1300.66 381.856C1300.24 381.685 1299.88 381.424 1299.57 381.072C1299.27 380.72 1299.12 380.245 1299.12 379.648C1299.12 379.157 1299.26 378.709 1299.54 378.304C1299.83 377.899 1300.23 377.579 1300.75 377.344C1301.29 377.109 1301.91 376.992 1302.63 376.992C1303.68 376.992 1304.52 377.259 1305.15 377.792C1305.78 378.315 1306.13 379.024 1306.19 379.92H1304.05C1304.02 379.568 1303.87 379.291 1303.6 379.088C1303.35 378.875 1303 378.768 1302.56 378.768C1302.16 378.768 1301.84 378.843 1301.62 378.992C1301.4 379.141 1301.3 379.349 1301.3 379.616C1301.3 379.915 1301.45 380.144 1301.75 380.304C1302.04 380.453 1302.51 380.608 1303.14 380.768C1303.78 380.928 1304.31 381.093 1304.72 381.264C1305.14 381.435 1305.49 381.701 1305.79 382.064C1306.1 382.416 1306.26 382.885 1306.27 383.472C1306.27 383.984 1306.13 384.443 1305.84 384.848C1305.56 385.253 1305.16 385.573 1304.63 385.808C1304.1 386.032 1303.49 386.144 1302.79 386.144ZM1313.1 377.008C1313.78 377.008 1314.37 377.157 1314.9 377.456C1315.42 377.744 1315.82 378.176 1316.11 378.752C1316.41 379.317 1316.56 380 1316.56 380.8V386H1314.32V381.104C1314.32 380.4 1314.14 379.861 1313.79 379.488C1313.44 379.104 1312.96 378.912 1312.35 378.912C1311.73 378.912 1311.24 379.104 1310.88 379.488C1310.53 379.861 1310.35 380.4 1310.35 381.104V386H1308.11V374.16H1310.35V378.24C1310.64 377.856 1311.02 377.557 1311.5 377.344C1311.98 377.12 1312.52 377.008 1313.1 377.008ZM1322.63 386.144C1321.77 386.144 1321 385.957 1320.32 385.584C1319.64 385.2 1319.1 384.661 1318.71 383.968C1318.32 383.275 1318.13 382.475 1318.13 381.568C1318.13 380.661 1318.33 379.861 1318.72 379.168C1319.13 378.475 1319.68 377.941 1320.37 377.568C1321.06 377.184 1321.84 376.992 1322.69 376.992C1323.54 376.992 1324.32 377.184 1325.01 377.568C1325.7 377.941 1326.25 378.475 1326.64 379.168C1327.05 379.861 1327.25 380.661 1327.25 381.568C1327.25 382.475 1327.04 383.275 1326.63 383.968C1326.22 384.661 1325.67 385.2 1324.96 385.584C1324.27 385.957 1323.49 386.144 1322.63 386.144ZM1322.63 384.192C1323.03 384.192 1323.41 384.096 1323.76 383.904C1324.12 383.701 1324.41 383.403 1324.63 383.008C1324.84 382.613 1324.95 382.133 1324.95 381.568C1324.95 380.725 1324.72 380.08 1324.27 379.632C1323.84 379.173 1323.3 378.944 1322.66 378.944C1322.02 378.944 1321.48 379.173 1321.04 379.632C1320.62 380.08 1320.4 380.725 1320.4 381.568C1320.4 382.411 1320.61 383.061 1321.03 383.52C1321.45 383.968 1321.99 384.192 1322.63 384.192ZM1331.13 378.416C1331.42 378.011 1331.82 377.675 1332.32 377.408C1332.83 377.131 1333.41 376.992 1334.06 376.992C1334.82 376.992 1335.5 377.179 1336.11 377.552C1336.73 377.925 1337.21 378.459 1337.57 379.152C1337.93 379.835 1338.11 380.629 1338.11 381.536C1338.11 382.443 1337.93 383.248 1337.57 383.952C1337.21 384.645 1336.73 385.184 1336.11 385.568C1335.5 385.952 1334.82 386.144 1334.06 386.144C1333.41 386.144 1332.83 386.011 1332.33 385.744C1331.84 385.477 1331.44 385.141 1331.13 384.736V390.224H1328.89V377.136H1331.13V378.416ZM1335.82 381.536C1335.82 381.003 1335.71 380.544 1335.49 380.16C1335.27 379.765 1334.98 379.467 1334.62 379.264C1334.27 379.061 1333.89 378.96 1333.47 378.96C1333.06 378.96 1332.68 379.067 1332.32 379.28C1331.97 379.483 1331.68 379.781 1331.45 380.176C1331.24 380.571 1331.13 381.035 1331.13 381.568C1331.13 382.101 1331.24 382.565 1331.45 382.96C1331.68 383.355 1331.97 383.659 1332.32 383.872C1332.68 384.075 1333.06 384.176 1333.47 384.176C1333.89 384.176 1334.27 384.069 1334.62 383.856C1334.98 383.643 1335.27 383.339 1335.49 382.944C1335.71 382.549 1335.82 382.08 1335.82 381.536Z" fill="white"/>
<path d="M120.413 565.872H115.965L115.229 568H112.877L116.893 556.816H119.501L123.517 568H121.149L120.413 565.872ZM119.805 564.08L118.189 559.408L116.573 564.08H119.805ZM124.442 563.536C124.442 562.64 124.618 561.845 124.97 561.152C125.333 560.459 125.823 559.925 126.442 559.552C127.061 559.179 127.749 558.992 128.506 558.992C129.082 558.992 129.631 559.12 130.154 559.376C130.677 559.621 131.093 559.952 131.402 560.368V556.16H133.674V568H131.402V566.688C131.125 567.125 130.735 567.477 130.234 567.744C129.733 568.011 129.151 568.144 128.49 568.144C127.743 568.144 127.061 567.952 126.442 567.568C125.823 567.184 125.333 566.645 124.97 565.952C124.618 565.248 124.442 564.443 124.442 563.536ZM131.418 563.568C131.418 563.024 131.311 562.56 131.098 562.176C130.885 561.781 130.597 561.483 130.234 561.28C129.871 561.067 129.482 560.96 129.066 560.96C128.65 560.96 128.266 561.061 127.914 561.264C127.562 561.467 127.274 561.765 127.05 562.16C126.837 562.544 126.73 563.003 126.73 563.536C126.73 564.069 126.837 564.539 127.05 564.944C127.274 565.339 127.562 565.643 127.914 565.856C128.277 566.069 128.661 566.176 129.066 566.176C129.482 566.176 129.871 566.075 130.234 565.872C130.597 565.659 130.885 565.36 131.098 564.976C131.311 564.581 131.418 564.112 131.418 563.568ZM139.798 568.144C138.944 568.144 138.176 567.957 137.494 567.584C136.811 567.2 136.272 566.661 135.878 565.968C135.494 565.275 135.302 564.475 135.302 563.568C135.302 562.661 135.499 561.861 135.894 561.168C136.299 560.475 136.848 559.941 137.542 559.568C138.235 559.184 139.008 558.992 139.862 558.992C140.715 558.992 141.488 559.184 142.182 559.568C142.875 559.941 143.419 560.475 143.814 561.168C144.219 561.861 144.422 562.661 144.422 563.568C144.422 564.475 144.214 565.275 143.798 565.968C143.392 566.661 142.838 567.2 142.134 567.584C141.44 567.957 140.662 568.144 139.798 568.144ZM139.798 566.192C140.203 566.192 140.582 566.096 140.934 565.904C141.296 565.701 141.584 565.403 141.798 565.008C142.011 564.613 142.118 564.133 142.118 563.568C142.118 562.725 141.894 562.08 141.446 561.632C141.008 561.173 140.47 560.944 139.83 560.944C139.19 560.944 138.651 561.173 138.214 561.632C137.787 562.08 137.574 562.725 137.574 563.568C137.574 564.411 137.782 565.061 138.198 565.52C138.624 565.968 139.158 566.192 139.798 566.192ZM148.305 560.432C148.593 560.005 148.988 559.659 149.489 559.392C150.001 559.125 150.582 558.992 151.233 558.992C151.99 558.992 152.673 559.179 153.281 559.552C153.9 559.925 154.385 560.459 154.737 561.152C155.1 561.835 155.281 562.629 155.281 563.536C155.281 564.443 155.1 565.248 154.737 565.952C154.385 566.645 153.9 567.184 153.281 567.568C152.673 567.952 151.99 568.144 151.233 568.144C150.572 568.144 149.99 568.016 149.489 567.76C148.998 567.493 148.604 567.152 148.305 566.736V568H146.065V556.16H148.305V560.432ZM152.993 563.536C152.993 563.003 152.881 562.544 152.657 562.16C152.444 561.765 152.156 561.467 151.793 561.264C151.441 561.061 151.057 560.96 150.641 560.96C150.236 560.96 149.852 561.067 149.489 561.28C149.137 561.483 148.849 561.781 148.625 562.176C148.412 562.571 148.305 563.035 148.305 563.568C148.305 564.101 148.412 564.565 148.625 564.96C148.849 565.355 149.137 565.659 149.489 565.872C149.852 566.075 150.236 566.176 150.641 566.176C151.057 566.176 151.441 566.069 151.793 565.856C152.156 565.643 152.444 565.339 152.657 564.944C152.881 564.549 152.993 564.08 152.993 563.536ZM165.149 563.376C165.149 563.696 165.127 563.984 165.085 564.24H158.605C158.658 564.88 158.882 565.381 159.277 565.744C159.671 566.107 160.157 566.288 160.733 566.288C161.565 566.288 162.157 565.931 162.509 565.216H164.925C164.669 566.069 164.178 566.773 163.453 567.328C162.727 567.872 161.837 568.144 160.781 568.144C159.927 568.144 159.159 567.957 158.477 567.584C157.805 567.2 157.277 566.661 156.893 565.968C156.519 565.275 156.333 564.475 156.333 563.568C156.333 562.651 156.519 561.845 156.893 561.152C157.266 560.459 157.789 559.925 158.461 559.552C159.133 559.179 159.906 558.992 160.781 558.992C161.623 558.992 162.375 559.173 163.037 559.536C163.709 559.899 164.226 560.416 164.589 561.088C164.962 561.749 165.149 562.512 165.149 563.376ZM162.829 562.736C162.818 562.16 162.61 561.701 162.205 561.36C161.799 561.008 161.303 560.832 160.717 560.832C160.162 560.832 159.693 561.003 159.309 561.344C158.935 561.675 158.706 562.139 158.621 562.736H162.829ZM172.836 556.832V568H170.596V556.832H172.836ZM177.289 556.16V568H175.049V556.16H177.289ZM181.742 556.16V568H179.502V556.16H181.742ZM192.324 559.136V568H190.068V566.88C189.78 567.264 189.401 567.568 188.932 567.792C188.473 568.005 187.972 568.112 187.428 568.112C186.734 568.112 186.121 567.968 185.588 567.68C185.054 567.381 184.633 566.949 184.324 566.384C184.025 565.808 183.876 565.125 183.876 564.336V559.136H186.116V564.016C186.116 564.72 186.292 565.264 186.644 565.648C186.996 566.021 187.476 566.208 188.084 566.208C188.702 566.208 189.188 566.021 189.54 565.648C189.892 565.264 190.068 564.72 190.068 564.016V559.136H192.324ZM197.926 568.144C197.2 568.144 196.55 568.016 195.974 567.76C195.398 567.493 194.939 567.136 194.598 566.688C194.267 566.24 194.086 565.744 194.054 565.2H196.31C196.352 565.541 196.518 565.824 196.806 566.048C197.104 566.272 197.472 566.384 197.91 566.384C198.336 566.384 198.667 566.299 198.902 566.128C199.147 565.957 199.27 565.739 199.27 565.472C199.27 565.184 199.12 564.971 198.822 564.832C198.534 564.683 198.07 564.523 197.43 564.352C196.768 564.192 196.224 564.027 195.798 563.856C195.382 563.685 195.019 563.424 194.71 563.072C194.411 562.72 194.262 562.245 194.262 561.648C194.262 561.157 194.4 560.709 194.678 560.304C194.966 559.899 195.371 559.579 195.894 559.344C196.427 559.109 197.051 558.992 197.766 558.992C198.822 558.992 199.664 559.259 200.294 559.792C200.923 560.315 201.27 561.024 201.334 561.92H199.19C199.158 561.568 199.008 561.291 198.742 561.088C198.486 560.875 198.139 560.768 197.702 560.768C197.296 560.768 196.982 560.843 196.758 560.992C196.544 561.141 196.438 561.349 196.438 561.616C196.438 561.915 196.587 562.144 196.886 562.304C197.184 562.453 197.648 562.608 198.278 562.768C198.918 562.928 199.446 563.093 199.862 563.264C200.278 563.435 200.635 563.701 200.934 564.064C201.243 564.416 201.403 564.885 201.414 565.472C201.414 565.984 201.27 566.443 200.982 566.848C200.704 567.253 200.299 567.573 199.766 567.808C199.243 568.032 198.63 568.144 197.926 568.144ZM205.86 560.976V565.264C205.86 565.563 205.93 565.781 206.068 565.92C206.218 566.048 206.463 566.112 206.804 566.112H207.844V568H206.436C204.548 568 203.604 567.083 203.604 565.248V560.976H202.548V559.136H203.604V556.944H205.86V559.136H207.844V560.976H205.86ZM211.696 560.512C211.984 560.043 212.357 559.675 212.816 559.408C213.285 559.141 213.818 559.008 214.416 559.008V561.36H213.824C213.12 561.36 212.586 561.525 212.224 561.856C211.872 562.187 211.696 562.763 211.696 563.584V568H209.456V559.136H211.696V560.512ZM215.348 563.536C215.348 562.64 215.524 561.845 215.876 561.152C216.239 560.459 216.724 559.925 217.332 559.552C217.951 559.179 218.639 558.992 219.396 558.992C220.058 558.992 220.634 559.125 221.124 559.392C221.626 559.659 222.026 559.995 222.324 560.4V559.136H224.58V568H222.324V566.704C222.036 567.12 221.636 567.467 221.124 567.744C220.623 568.011 220.042 568.144 219.38 568.144C218.634 568.144 217.951 567.952 217.332 567.568C216.724 567.184 216.239 566.645 215.876 565.952C215.524 565.248 215.348 564.443 215.348 563.536ZM222.324 563.568C222.324 563.024 222.218 562.56 222.004 562.176C221.791 561.781 221.503 561.483 221.14 561.28C220.778 561.067 220.388 560.96 219.972 560.96C219.556 560.96 219.172 561.061 218.82 561.264C218.468 561.467 218.18 561.765 217.956 562.16C217.743 562.544 217.636 563.003 217.636 563.536C217.636 564.069 217.743 564.539 217.956 564.944C218.18 565.339 218.468 565.643 218.82 565.856C219.183 566.069 219.567 566.176 219.972 566.176C220.388 566.176 220.778 566.075 221.14 565.872C221.503 565.659 221.791 565.36 222.004 564.976C222.218 564.581 222.324 564.112 222.324 563.568ZM229.376 560.976V565.264C229.376 565.563 229.445 565.781 229.584 565.92C229.733 566.048 229.979 566.112 230.32 566.112H231.36V568H229.952C228.064 568 227.12 567.083 227.12 565.248V560.976H226.064V559.136H227.12V556.944H229.376V559.136H231.36V560.976H229.376ZM236.907 568.144C236.054 568.144 235.286 567.957 234.603 567.584C233.921 567.2 233.382 566.661 232.987 565.968C232.603 565.275 232.411 564.475 232.411 563.568C232.411 562.661 232.609 561.861 233.003 561.168C233.409 560.475 233.958 559.941 234.651 559.568C235.345 559.184 236.118 558.992 236.971 558.992C237.825 558.992 238.598 559.184 239.291 559.568C239.985 559.941 240.529 560.475 240.923 561.168C241.329 561.861 241.531 562.661 241.531 563.568C241.531 564.475 241.323 565.275 240.907 565.968C240.502 566.661 239.947 567.2 239.243 567.584C238.55 567.957 237.771 568.144 236.907 568.144ZM236.907 566.192C237.313 566.192 237.691 566.096 238.043 565.904C238.406 565.701 238.694 565.403 238.907 565.008C239.121 564.613 239.227 564.133 239.227 563.568C239.227 562.725 239.003 562.08 238.555 561.632C238.118 561.173 237.579 560.944 236.939 560.944C236.299 560.944 235.761 561.173 235.323 561.632C234.897 562.08 234.683 562.725 234.683 563.568C234.683 564.411 234.891 565.061 235.307 565.52C235.734 565.968 236.267 566.192 236.907 566.192ZM245.414 560.512C245.702 560.043 246.076 559.675 246.534 559.408C247.004 559.141 247.537 559.008 248.134 559.008V561.36H247.542C246.838 561.36 246.305 561.525 245.942 561.856C245.59 562.187 245.414 562.763 245.414 563.584V568H243.174V559.136H245.414V560.512Z" fill="white"/>
<path d="M462.391 432.832L459.271 444H456.631L454.535 436.048L452.343 444L449.719 444.016L446.711 432.832H449.111L451.079 441.504L453.351 432.832H455.847L457.991 441.456L459.975 432.832H462.391ZM468.846 435.008C469.518 435.008 470.115 435.157 470.638 435.456C471.161 435.744 471.566 436.176 471.854 436.752C472.153 437.317 472.302 438 472.302 438.8V444H470.062V439.104C470.062 438.4 469.886 437.861 469.534 437.488C469.182 437.104 468.702 436.912 468.094 436.912C467.475 436.912 466.985 437.104 466.622 437.488C466.27 437.861 466.094 438.4 466.094 439.104V444H463.854V432.16H466.094V436.24C466.382 435.856 466.766 435.557 467.246 435.344C467.726 435.12 468.259 435.008 468.846 435.008ZM475.568 434.08C475.173 434.08 474.843 433.957 474.576 433.712C474.32 433.456 474.192 433.141 474.192 432.768C474.192 432.395 474.32 432.085 474.576 431.84C474.843 431.584 475.173 431.456 475.568 431.456C475.963 431.456 476.288 431.584 476.544 431.84C476.811 432.085 476.944 432.395 476.944 432.768C476.944 433.141 476.811 433.456 476.544 433.712C476.288 433.957 475.963 434.08 475.568 434.08ZM476.672 435.136V444H474.432V435.136H476.672ZM489.893 435.008C490.981 435.008 491.856 435.344 492.517 436.016C493.189 436.677 493.525 437.605 493.525 438.8V444H491.285V439.104C491.285 438.411 491.109 437.883 490.757 437.52C490.405 437.147 489.925 436.96 489.317 436.96C488.709 436.96 488.224 437.147 487.861 437.52C487.509 437.883 487.333 438.411 487.333 439.104V444H485.093V439.104C485.093 438.411 484.917 437.883 484.565 437.52C484.213 437.147 483.733 436.96 483.125 436.96C482.507 436.96 482.016 437.147 481.653 437.52C481.301 437.883 481.125 438.411 481.125 439.104V444H478.885V435.136H481.125V436.208C481.413 435.835 481.781 435.541 482.229 435.328C482.688 435.115 483.189 435.008 483.733 435.008C484.427 435.008 485.045 435.157 485.589 435.456C486.133 435.744 486.555 436.16 486.853 436.704C487.141 436.192 487.557 435.781 488.101 435.472C488.656 435.163 489.253 435.008 489.893 435.008ZM499.043 444.144C498.318 444.144 497.667 444.016 497.091 443.76C496.515 443.493 496.056 443.136 495.715 442.688C495.384 442.24 495.203 441.744 495.171 441.2H497.427C497.47 441.541 497.635 441.824 497.923 442.048C498.222 442.272 498.59 442.384 499.027 442.384C499.454 442.384 499.784 442.299 500.019 442.128C500.264 441.957 500.387 441.739 500.387 441.472C500.387 441.184 500.238 440.971 499.939 440.832C499.651 440.683 499.187 440.523 498.547 440.352C497.886 440.192 497.342 440.027 496.915 439.856C496.499 439.685 496.136 439.424 495.827 439.072C495.528 438.72 495.379 438.245 495.379 437.648C495.379 437.157 495.518 436.709 495.795 436.304C496.083 435.899 496.488 435.579 497.011 435.344C497.544 435.109 498.168 434.992 498.883 434.992C499.939 434.992 500.782 435.259 501.411 435.792C502.04 436.315 502.387 437.024 502.451 437.92H500.307C500.275 437.568 500.126 437.291 499.859 437.088C499.603 436.875 499.256 436.768 498.819 436.768C498.414 436.768 498.099 436.843 497.875 436.992C497.662 437.141 497.555 437.349 497.555 437.616C497.555 437.915 497.704 438.144 498.003 438.304C498.302 438.453 498.766 438.608 499.395 438.768C500.035 438.928 500.563 439.093 500.979 439.264C501.395 439.435 501.752 439.701 502.051 440.064C502.36 440.416 502.52 440.885 502.531 441.472C502.531 441.984 502.387 442.443 502.099 442.848C501.822 443.253 501.416 443.573 500.883 443.808C500.36 444.032 499.747 444.144 499.043 444.144ZM505.506 434.08C505.111 434.08 504.78 433.957 504.514 433.712C504.258 433.456 504.13 433.141 504.13 432.768C504.13 432.395 504.258 432.085 504.514 431.84C504.78 431.584 505.111 431.456 505.506 431.456C505.9 431.456 506.226 431.584 506.482 431.84C506.748 432.085 506.882 432.395 506.882 432.768C506.882 433.141 506.748 433.456 506.482 433.712C506.226 433.957 505.9 434.08 505.506 434.08ZM506.61 435.136V444H504.37V435.136H506.61ZM508.247 439.568C508.247 438.651 508.433 437.851 508.807 437.168C509.18 436.475 509.697 435.941 510.359 435.568C511.02 435.184 511.777 434.992 512.631 434.992C513.729 434.992 514.636 435.269 515.351 435.824C516.076 436.368 516.561 437.136 516.807 438.128H514.391C514.263 437.744 514.044 437.445 513.735 437.232C513.436 437.008 513.063 436.896 512.615 436.896C511.975 436.896 511.468 437.131 511.095 437.6C510.721 438.059 510.535 438.715 510.535 439.568C510.535 440.411 510.721 441.067 511.095 441.536C511.468 441.995 511.975 442.224 512.615 442.224C513.521 442.224 514.113 441.819 514.391 441.008H516.807C516.561 441.968 516.076 442.731 515.351 443.296C514.625 443.861 513.719 444.144 512.631 444.144C511.777 444.144 511.02 443.957 510.359 443.584C509.697 443.2 509.18 442.667 508.807 441.984C508.433 441.291 508.247 440.485 508.247 439.568ZM517.872 439.536C517.872 438.64 518.048 437.845 518.4 437.152C518.762 436.459 519.248 435.925 519.856 435.552C520.474 435.179 521.162 434.992 521.92 434.992C522.581 434.992 523.157 435.125 523.648 435.392C524.149 435.659 524.549 435.995 524.848 436.4V435.136H527.104V444H524.848V442.704C524.56 443.12 524.16 443.467 523.648 443.744C523.146 444.011 522.565 444.144 521.904 444.144C521.157 444.144 520.474 443.952 519.856 443.568C519.248 443.184 518.762 442.645 518.4 441.952C518.048 441.248 517.872 440.443 517.872 439.536ZM524.848 439.568C524.848 439.024 524.741 438.56 524.528 438.176C524.314 437.781 524.026 437.483 523.664 437.28C523.301 437.067 522.912 436.96 522.496 436.96C522.08 436.96 521.696 437.061 521.344 437.264C520.992 437.467 520.704 437.765 520.48 438.16C520.266 438.544 520.16 439.003 520.16 439.536C520.16 440.069 520.266 440.539 520.48 440.944C520.704 441.339 520.992 441.643 521.344 441.856C521.706 442.069 522.09 442.176 522.496 442.176C522.912 442.176 523.301 442.075 523.664 441.872C524.026 441.659 524.314 441.36 524.528 440.976C524.741 440.581 524.848 440.112 524.848 439.568ZM531.532 432.16V444H529.292V432.16H531.532Z" fill="white"/>
<path d="M781.522 408.832V420H779.282V412.736L776.29 420H774.594L771.586 412.736V420H769.346V408.832H771.89L775.442 417.136L778.994 408.832H781.522ZM784.873 410.08C784.478 410.08 784.147 409.957 783.881 409.712C783.625 409.456 783.497 409.141 783.497 408.768C783.497 408.395 783.625 408.085 783.881 407.84C784.147 407.584 784.478 407.456 784.873 407.456C785.267 407.456 785.593 407.584 785.849 407.84C786.115 408.085 786.249 408.395 786.249 408.768C786.249 409.141 786.115 409.456 785.849 409.712C785.593 409.957 785.267 410.08 784.873 410.08ZM785.977 411.136V420H783.737V411.136H785.977ZM790.43 412.512C790.718 412.043 791.091 411.675 791.55 411.408C792.019 411.141 792.553 411.008 793.15 411.008V413.36H792.558C791.854 413.36 791.321 413.525 790.958 413.856C790.606 414.187 790.43 414.763 790.43 415.584V420H788.19V411.136H790.43V412.512ZM798.595 420.144C797.741 420.144 796.973 419.957 796.291 419.584C795.608 419.2 795.069 418.661 794.675 417.968C794.291 417.275 794.099 416.475 794.099 415.568C794.099 414.661 794.296 413.861 794.691 413.168C795.096 412.475 795.645 411.941 796.339 411.568C797.032 411.184 797.805 410.992 798.659 410.992C799.512 410.992 800.285 411.184 800.979 411.568C801.672 411.941 802.216 412.475 802.611 413.168C803.016 413.861 803.219 414.661 803.219 415.568C803.219 416.475 803.011 417.275 802.595 417.968C802.189 418.661 801.635 419.2 800.931 419.584C800.237 419.957 799.459 420.144 798.595 420.144ZM798.595 418.192C799 418.192 799.379 418.096 799.731 417.904C800.093 417.701 800.381 417.403 800.595 417.008C800.808 416.613 800.915 416.133 800.915 415.568C800.915 414.725 800.691 414.08 800.243 413.632C799.805 413.173 799.267 412.944 798.627 412.944C797.987 412.944 797.448 413.173 797.011 413.632C796.584 414.08 796.371 414.725 796.371 415.568C796.371 416.411 796.579 417.061 796.995 417.52C797.421 417.968 797.955 418.192 798.595 418.192Z" fill="white"/>
<path d="M678.452 649.112C677.674 649.112 676.97 648.979 676.34 648.712C675.722 648.445 675.231 648.061 674.868 647.56C674.506 647.059 674.319 646.467 674.308 645.784H676.708C676.74 646.243 676.9 646.605 677.188 646.872C677.487 647.139 677.892 647.272 678.404 647.272C678.927 647.272 679.338 647.149 679.636 646.904C679.935 646.648 680.084 646.317 680.084 645.912C680.084 645.581 679.983 645.309 679.78 645.096C679.578 644.883 679.322 644.717 679.012 644.6C678.714 644.472 678.298 644.333 677.764 644.184C677.039 643.971 676.447 643.763 675.988 643.56C675.54 643.347 675.151 643.032 674.82 642.616C674.5 642.189 674.34 641.624 674.34 640.92C674.34 640.259 674.506 639.683 674.836 639.192C675.167 638.701 675.631 638.328 676.228 638.072C676.826 637.805 677.508 637.672 678.276 637.672C679.428 637.672 680.362 637.955 681.076 638.52C681.802 639.075 682.202 639.853 682.276 640.856H679.812C679.791 640.472 679.626 640.157 679.316 639.912C679.018 639.656 678.618 639.528 678.116 639.528C677.679 639.528 677.327 639.64 677.06 639.864C676.804 640.088 676.676 640.413 676.676 640.84C676.676 641.139 676.772 641.389 676.964 641.592C677.167 641.784 677.412 641.944 677.7 642.072C677.999 642.189 678.415 642.328 678.948 642.488C679.674 642.701 680.266 642.915 680.724 643.128C681.183 643.341 681.578 643.661 681.908 644.088C682.239 644.515 682.404 645.075 682.404 645.768C682.404 646.365 682.25 646.92 681.94 647.432C681.631 647.944 681.178 648.355 680.58 648.664C679.983 648.963 679.274 649.112 678.452 649.112ZM686.586 637.16V649H684.346V637.16H686.586ZM688.223 644.536C688.223 643.64 688.399 642.845 688.751 642.152C689.114 641.459 689.599 640.925 690.207 640.552C690.826 640.179 691.514 639.992 692.271 639.992C692.933 639.992 693.509 640.125 693.999 640.392C694.501 640.659 694.901 640.995 695.199 641.4V640.136H697.455V649H695.199V647.704C694.911 648.12 694.511 648.467 693.999 648.744C693.498 649.011 692.917 649.144 692.255 649.144C691.509 649.144 690.826 648.952 690.207 648.568C689.599 648.184 689.114 647.645 688.751 646.952C688.399 646.248 688.223 645.443 688.223 644.536ZM695.199 644.568C695.199 644.024 695.093 643.56 694.879 643.176C694.666 642.781 694.378 642.483 694.015 642.28C693.653 642.067 693.263 641.96 692.847 641.96C692.431 641.96 692.047 642.061 691.695 642.264C691.343 642.467 691.055 642.765 690.831 643.16C690.618 643.544 690.511 644.003 690.511 644.536C690.511 645.069 690.618 645.539 690.831 645.944C691.055 646.339 691.343 646.643 691.695 646.856C692.058 647.069 692.442 647.176 692.847 647.176C693.263 647.176 693.653 647.075 694.015 646.872C694.378 646.659 694.666 646.36 694.879 645.976C695.093 645.581 695.199 645.112 695.199 644.568ZM699.067 644.568C699.067 643.651 699.254 642.851 699.627 642.168C700 641.475 700.518 640.941 701.179 640.568C701.84 640.184 702.598 639.992 703.451 639.992C704.55 639.992 705.456 640.269 706.171 640.824C706.896 641.368 707.382 642.136 707.627 643.128H705.211C705.083 642.744 704.864 642.445 704.555 642.232C704.256 642.008 703.883 641.896 703.435 641.896C702.795 641.896 702.288 642.131 701.915 642.6C701.542 643.059 701.355 643.715 701.355 644.568C701.355 645.411 701.542 646.067 701.915 646.536C702.288 646.995 702.795 647.224 703.435 647.224C704.342 647.224 704.934 646.819 705.211 646.008H707.627C707.382 646.968 706.896 647.731 706.171 648.296C705.446 648.861 704.539 649.144 703.451 649.144C702.598 649.144 701.84 648.957 701.179 648.584C700.518 648.2 700 647.667 699.627 646.984C699.254 646.291 699.067 645.485 699.067 644.568ZM714.516 649L711.508 645.224V649H709.268V637.16H711.508V643.896L714.484 640.136H717.396L713.492 644.584L717.428 649H714.516Z" fill="white"/>
<path d="M1075.27 496.112C1074.49 496.112 1073.79 495.979 1073.16 495.712C1072.54 495.445 1072.05 495.061 1071.69 494.56C1071.33 494.059 1071.14 493.467 1071.13 492.784H1073.53C1073.56 493.243 1073.72 493.605 1074.01 493.872C1074.31 494.139 1074.71 494.272 1075.22 494.272C1075.75 494.272 1076.16 494.149 1076.46 493.904C1076.76 493.648 1076.9 493.317 1076.9 492.912C1076.9 492.581 1076.8 492.309 1076.6 492.096C1076.4 491.883 1076.14 491.717 1075.83 491.6C1075.53 491.472 1075.12 491.333 1074.58 491.184C1073.86 490.971 1073.27 490.763 1072.81 490.56C1072.36 490.347 1071.97 490.032 1071.64 489.616C1071.32 489.189 1071.16 488.624 1071.16 487.92C1071.16 487.259 1071.33 486.683 1071.66 486.192C1071.99 485.701 1072.45 485.328 1073.05 485.072C1073.65 484.805 1074.33 484.672 1075.1 484.672C1076.25 484.672 1077.18 484.955 1077.9 485.52C1078.62 486.075 1079.02 486.853 1079.1 487.856H1076.63C1076.61 487.472 1076.45 487.157 1076.14 486.912C1075.84 486.656 1075.44 486.528 1074.94 486.528C1074.5 486.528 1074.15 486.64 1073.88 486.864C1073.62 487.088 1073.5 487.413 1073.5 487.84C1073.5 488.139 1073.59 488.389 1073.78 488.592C1073.99 488.784 1074.23 488.944 1074.52 489.072C1074.82 489.189 1075.24 489.328 1075.77 489.488C1076.49 489.701 1077.09 489.915 1077.54 490.128C1078 490.341 1078.4 490.661 1078.73 491.088C1079.06 491.515 1079.22 492.075 1079.22 492.768C1079.22 493.365 1079.07 493.92 1078.76 494.432C1078.45 494.944 1078 495.355 1077.4 495.664C1076.8 495.963 1076.09 496.112 1075.27 496.112ZM1086.41 496L1083.41 492.224V496H1081.17V484.16H1083.41V490.896L1086.38 487.136H1089.29L1085.39 491.584L1089.33 496H1086.41ZM1098.75 491.376C1098.75 491.696 1098.73 491.984 1098.69 492.24H1092.21C1092.26 492.88 1092.48 493.381 1092.88 493.744C1093.27 494.107 1093.76 494.288 1094.33 494.288C1095.17 494.288 1095.76 493.931 1096.11 493.216H1098.53C1098.27 494.069 1097.78 494.773 1097.05 495.328C1096.33 495.872 1095.44 496.144 1094.38 496.144C1093.53 496.144 1092.76 495.957 1092.08 495.584C1091.41 495.2 1090.88 494.661 1090.49 493.968C1090.12 493.275 1089.93 492.475 1089.93 491.568C1089.93 490.651 1090.12 489.845 1090.49 489.152C1090.87 488.459 1091.39 487.925 1092.06 487.552C1092.73 487.179 1093.51 486.992 1094.38 486.992C1095.22 486.992 1095.98 487.173 1096.64 487.536C1097.31 487.899 1097.83 488.416 1098.19 489.088C1098.56 489.749 1098.75 490.512 1098.75 491.376ZM1096.43 490.736C1096.42 490.16 1096.21 489.701 1095.81 489.36C1095.4 489.008 1094.9 488.832 1094.32 488.832C1093.76 488.832 1093.29 489.003 1092.91 489.344C1092.54 489.675 1092.31 490.139 1092.22 490.736H1096.43ZM1102.99 488.976V493.264C1102.99 493.563 1103.06 493.781 1103.2 493.92C1103.35 494.048 1103.6 494.112 1103.94 494.112H1104.98V496H1103.57C1101.68 496 1100.74 495.083 1100.74 493.248V488.976H1099.68V487.136H1100.74V484.944H1102.99V487.136H1104.98V488.976H1102.99ZM1106.01 491.568C1106.01 490.651 1106.2 489.851 1106.57 489.168C1106.95 488.475 1107.46 487.941 1108.12 487.568C1108.79 487.184 1109.54 486.992 1110.4 486.992C1111.5 486.992 1112.4 487.269 1113.12 487.824C1113.84 488.368 1114.33 489.136 1114.57 490.128H1112.16C1112.03 489.744 1111.81 489.445 1111.5 489.232C1111.2 489.008 1110.83 488.896 1110.38 488.896C1109.74 488.896 1109.23 489.131 1108.86 489.6C1108.49 490.059 1108.3 490.715 1108.3 491.568C1108.3 492.411 1108.49 493.067 1108.86 493.536C1109.23 493.995 1109.74 494.224 1110.38 494.224C1111.29 494.224 1111.88 493.819 1112.16 493.008H1114.57C1114.33 493.968 1113.84 494.731 1113.12 495.296C1112.39 495.861 1111.48 496.144 1110.4 496.144C1109.54 496.144 1108.79 495.957 1108.12 495.584C1107.46 495.2 1106.95 494.667 1106.57 493.984C1106.2 493.291 1106.01 492.485 1106.01 491.568ZM1121.21 487.008C1121.88 487.008 1122.47 487.157 1123 487.456C1123.52 487.744 1123.93 488.176 1124.21 488.752C1124.51 489.317 1124.66 490 1124.66 490.8V496H1122.42V491.104C1122.42 490.4 1122.25 489.861 1121.89 489.488C1121.54 489.104 1121.06 488.912 1120.45 488.912C1119.83 488.912 1119.34 489.104 1118.98 489.488C1118.63 489.861 1118.45 490.4 1118.45 491.104V496H1116.21V484.16H1118.45V488.24C1118.74 487.856 1119.13 487.557 1119.61 487.344C1120.09 487.12 1120.62 487.008 1121.21 487.008Z" fill="white"/>
<path d="M374.469 678.832V680.64H369.813V683.504H373.381V685.28H369.813V690H367.573V678.832H374.469ZM378.297 678.832V690H376.057V678.832H378.297ZM388.286 682.192C388.03 681.723 387.678 681.365 387.23 681.12C386.782 680.875 386.26 680.752 385.662 680.752C385.001 680.752 384.414 680.901 383.902 681.2C383.39 681.499 382.99 681.925 382.702 682.48C382.414 683.035 382.27 683.675 382.27 684.4C382.27 685.147 382.414 685.797 382.702 686.352C383.001 686.907 383.412 687.333 383.934 687.632C384.457 687.931 385.065 688.08 385.758 688.08C386.612 688.08 387.31 687.856 387.854 687.408C388.398 686.949 388.756 686.315 388.926 685.504H385.086V683.792H391.134V685.744C390.985 686.523 390.665 687.243 390.174 687.904C389.684 688.565 389.049 689.099 388.27 689.504C387.502 689.899 386.638 690.096 385.678 690.096C384.601 690.096 383.625 689.856 382.75 689.376C381.886 688.885 381.204 688.208 380.702 687.344C380.212 686.48 379.966 685.499 379.966 684.4C379.966 683.301 380.212 682.32 380.702 681.456C381.204 680.581 381.886 679.904 382.75 679.424C383.625 678.933 384.596 678.688 385.662 678.688C386.921 678.688 388.014 678.997 388.942 679.616C389.87 680.224 390.51 681.083 390.862 682.192H388.286ZM404.968 678.832V690H402.728V682.736L399.736 690H398.04L395.032 682.736V690H392.792V678.832H395.336L398.888 687.136L402.44 678.832H404.968ZM414.03 687.872H409.582L408.846 690H406.494L410.51 678.816H413.118L417.134 690H414.766L414.03 687.872ZM413.422 686.08L411.806 681.408L410.19 686.08H413.422Z" fill="white"/>
<path d="M976.218 662.872H971.77L971.034 665H968.682L972.698 653.816H975.306L979.322 665H976.954L976.218 662.872ZM975.61 661.08L973.994 656.408L972.378 661.08H975.61ZM980.247 660.536C980.247 659.64 980.423 658.845 980.775 658.152C981.137 657.459 981.628 656.925 982.247 656.552C982.865 656.179 983.553 655.992 984.311 655.992C984.887 655.992 985.436 656.12 985.959 656.376C986.481 656.621 986.897 656.952 987.207 657.368V653.16H989.479V665H987.207V663.688C986.929 664.125 986.54 664.477 986.039 664.744C985.537 665.011 984.956 665.144 984.295 665.144C983.548 665.144 982.865 664.952 982.247 664.568C981.628 664.184 981.137 663.645 980.775 662.952C980.423 662.248 980.247 661.443 980.247 660.536ZM987.223 660.568C987.223 660.024 987.116 659.56 986.903 659.176C986.689 658.781 986.401 658.483 986.039 658.28C985.676 658.067 985.287 657.96 984.871 657.96C984.455 657.96 984.071 658.061 983.719 658.264C983.367 658.467 983.079 658.765 982.855 659.16C982.641 659.544 982.535 660.003 982.535 660.536C982.535 661.069 982.641 661.539 982.855 661.944C983.079 662.339 983.367 662.643 983.719 662.856C984.081 663.069 984.465 663.176 984.871 663.176C985.287 663.176 985.676 663.075 986.039 662.872C986.401 662.659 986.689 662.36 986.903 661.976C987.116 661.581 987.223 661.112 987.223 660.568ZM995.603 665.144C994.749 665.144 993.981 664.957 993.299 664.584C992.616 664.2 992.077 663.661 991.683 662.968C991.299 662.275 991.107 661.475 991.107 660.568C991.107 659.661 991.304 658.861 991.699 658.168C992.104 657.475 992.653 656.941 993.347 656.568C994.04 656.184 994.813 655.992 995.667 655.992C996.52 655.992 997.293 656.184 997.987 656.568C998.68 656.941 999.224 657.475 999.619 658.168C1000.02 658.861 1000.23 659.661 1000.23 660.568C1000.23 661.475 1000.02 662.275 999.602 662.968C999.197 663.661 998.643 664.2 997.939 664.584C997.245 664.957 996.467 665.144 995.603 665.144ZM995.603 663.192C996.008 663.192 996.387 663.096 996.739 662.904C997.101 662.701 997.389 662.403 997.603 662.008C997.816 661.613 997.923 661.133 997.923 660.568C997.923 659.725 997.699 659.08 997.251 658.632C996.813 658.173 996.275 657.944 995.635 657.944C994.995 657.944 994.456 658.173 994.019 658.632C993.592 659.08 993.379 659.725 993.379 660.568C993.379 661.411 993.587 662.061 994.003 662.52C994.429 662.968 994.963 663.192 995.603 663.192ZM1004.11 657.432C1004.4 657.005 1004.79 656.659 1005.29 656.392C1005.81 656.125 1006.39 655.992 1007.04 655.992C1007.79 655.992 1008.48 656.179 1009.09 656.552C1009.7 656.925 1010.19 657.459 1010.54 658.152C1010.9 658.835 1011.09 659.629 1011.09 660.536C1011.09 661.443 1010.9 662.248 1010.54 662.952C1010.19 663.645 1009.7 664.184 1009.09 664.568C1008.48 664.952 1007.79 665.144 1007.04 665.144C1006.38 665.144 1005.79 665.016 1005.29 664.76C1004.8 664.493 1004.41 664.152 1004.11 663.736V665H1001.87V653.16H1004.11V657.432ZM1008.8 660.536C1008.8 660.003 1008.69 659.544 1008.46 659.16C1008.25 658.765 1007.96 658.467 1007.6 658.264C1007.25 658.061 1006.86 657.96 1006.45 657.96C1006.04 657.96 1005.66 658.067 1005.29 658.28C1004.94 658.483 1004.65 658.781 1004.43 659.176C1004.22 659.571 1004.11 660.035 1004.11 660.568C1004.11 661.101 1004.22 661.565 1004.43 661.96C1004.65 662.355 1004.94 662.659 1005.29 662.872C1005.66 663.075 1006.04 663.176 1006.45 663.176C1006.86 663.176 1007.25 663.069 1007.6 662.856C1007.96 662.643 1008.25 662.339 1008.46 661.944C1008.69 661.549 1008.8 661.08 1008.8 660.536ZM1020.95 660.376C1020.95 660.696 1020.93 660.984 1020.89 661.24H1014.41C1014.46 661.88 1014.69 662.381 1015.08 662.744C1015.48 663.107 1015.96 663.288 1016.54 663.288C1017.37 663.288 1017.96 662.931 1018.31 662.216H1020.73C1020.47 663.069 1019.98 663.773 1019.26 664.328C1018.53 664.872 1017.64 665.144 1016.59 665.144C1015.73 665.144 1014.96 664.957 1014.28 664.584C1013.61 664.2 1013.08 663.661 1012.7 662.968C1012.32 662.275 1012.14 661.475 1012.14 660.568C1012.14 659.651 1012.32 658.845 1012.7 658.152C1013.07 657.459 1013.59 656.925 1014.27 656.552C1014.94 656.179 1015.71 655.992 1016.59 655.992C1017.43 655.992 1018.18 656.173 1018.84 656.536C1019.51 656.899 1020.03 657.416 1020.39 658.088C1020.77 658.749 1020.95 659.512 1020.95 660.376ZM1018.63 659.736C1018.62 659.16 1018.41 658.701 1018.01 658.36C1017.6 658.008 1017.11 657.832 1016.52 657.832C1015.97 657.832 1015.5 658.003 1015.11 658.344C1014.74 658.675 1014.51 659.139 1014.43 659.736H1018.63ZM1033.09 665L1030.67 661.24L1028.48 665H1025.95L1029.47 659.368L1025.9 653.832H1028.48L1030.9 657.576L1033.07 653.832H1035.6L1032.1 659.448L1035.66 665H1033.09ZM1041.27 653.832C1042.45 653.832 1043.48 654.061 1044.36 654.52C1045.26 654.979 1045.95 655.635 1046.43 656.488C1046.92 657.331 1047.16 658.312 1047.16 659.432C1047.16 660.552 1046.92 661.533 1046.43 662.376C1045.95 663.208 1045.26 663.853 1044.36 664.312C1043.48 664.771 1042.45 665 1041.27 665H1037.37V653.832H1041.27ZM1041.19 663.096C1042.37 663.096 1043.27 662.776 1043.91 662.136C1044.55 661.496 1044.87 660.595 1044.87 659.432C1044.87 658.269 1044.55 657.363 1043.91 656.712C1043.27 656.051 1042.37 655.72 1041.19 655.72H1039.61V663.096H1041.19Z" fill="white"/>
</g>
<defs>
<linearGradient id="paint0_linear_1538_148" x1="720" y1="117" x2="720" y2="459" gradientUnits="userSpaceOnUse">
<stop stop-color="#E5E5E5"/>
<stop offset="1" stop-color="white" stop-opacity="0"/>
</linearGradient>
<linearGradient id="paint1_linear_1538_148" x1="720" y1="307" x2="720" y2="628" gradientUnits="userSpaceOnUse">
<stop stop-color="#E5E5E5"/>
<stop offset="1" stop-color="white" stop-opacity="0"/>
</linearGradient>
<linearGradient id="paint2_linear_1538_148" x1="720" y1="536" x2="720" y2="810.5" gradientUnits="userSpaceOnUse">
<stop stop-color="#E5E5E5"/>
<stop offset="1" stop-color="white" stop-opacity="0"/>
</linearGradient>
<linearGradient id="paint3_linear_1538_148" x1="7118.25" y1="-793.172" x2="1482.31" y2="4877.62" gradientUnits="userSpaceOnUse">
<stop stop-color="#FF6660"/>
<stop offset="1" stop-color="#FB4444"/>
</linearGradient>
<clipPath id="clip0_1538_148">
<rect width="1440" height="788" fill="white"/>
</clipPath>
<clipPath id="clip1_1538_148">
<rect width="75" height="80" fill="white" transform="translate(200.5 188)"/>
</clipPath>
<clipPath id="clip2_1538_148">
<rect width="80" height="80" fill="white" transform="translate(966 98)"/>
</clipPath>
<clipPath id="clip3_1538_148">
<rect width="80" height="80" fill="white" transform="translate(658 499)"/>
</clipPath>
<clipPath id="clip4_1538_148">
<rect width="79" height="80" fill="white" transform="translate(559.5 68)"/>
</clipPath>
</defs>
</svg>
