<svg width="40" height="41" viewBox="0 0 40 41" fill="none" xmlns="http://www.w3.org/2000/svg">
<path d="M13.9771 30.5962C13.958 30.7864 13.9745 30.9851 14.0438 31.182C14.2131 31.6567 14.6105 32.0433 15.0811 32.1891C15.5185 32.3273 15.9536 32.2353 16.0856 32.0918L16.998 31.1126C17.262 30.8304 17.3287 30.3793 17.1736 29.9415C16.7918 29.21 16.2802 28.946 15.6251 28.8278L13.9771 30.5962Z" fill="#BCA921"/>
<path d="M12.7569 25.7006L11.1622 27.4108C10.8382 27.7633 10.7453 28.305 10.9262 28.8242C11.1182 29.3726 11.5764 29.8188 12.1249 29.9855C12.644 30.141 13.1649 30.0202 13.4911 29.673L14.9675 28.0895C15.2938 27.7379 15.3844 27.1988 15.2035 26.6797C15.0115 26.1286 14.5506 25.6842 14.0049 25.5184C13.5693 25.3793 13.0582 25.3739 12.7569 25.7006Z" fill="#BCA921"/>
<path d="M9.59587 22.8865L8.12342 24.4674C7.79898 24.8171 7.70831 25.3607 7.88742 25.8816C8.07942 26.4283 8.53765 26.8745 9.08609 27.0411C9.60431 27.1989 10.1305 27.0758 10.2945 26.902L11.9292 25.1478C12.2554 24.7954 12.3461 24.2536 12.1652 23.7354C11.9723 23.1851 11.5141 22.7407 10.9656 22.5758C10.4612 22.4114 9.90298 22.5576 9.59587 22.8865Z" fill="#BCA921"/>
<path d="M6.71463 19.7699L5.08263 21.525C4.75641 21.8766 4.66574 22.4157 4.84663 22.9322C5.03685 23.485 5.49774 23.9295 6.04618 24.0962C6.56441 24.2508 7.08974 24.1308 7.25196 23.9548L8.88841 22.2006V22.1988C9.21463 21.8517 9.3053 21.3117 9.12441 20.7935C8.93507 20.2406 8.47418 19.7962 7.92574 19.6313C7.50663 19.4868 6.99952 19.4619 6.71463 19.7699Z" fill="#BCA921"/>
<path d="M27.9023 9.30286C26.8468 9.89308 25.3797 9.99886 23.9508 10.1015C22.8699 10.1753 21.7548 10.2535 20.9535 10.5495L16.4979 12.1935C16.4677 12.2055 16.437 12.2126 16.405 12.2171C16.1899 12.2509 15.9908 12.2797 15.8121 12.3046C14.7272 12.4575 14.6019 12.5042 14.477 12.8255C14.3632 13.1224 14.4881 13.5504 14.7966 13.914C15.0481 14.2126 16.0326 15.1451 18.0579 14.6655L20.5952 14.3304C22.0161 14.1473 23.1552 15.0735 24.065 15.8211L30.8886 21.2797L30.8939 21.2771C32.2428 20.7126 33.6481 19.9784 34.8428 18.5393L27.9023 9.30286Z" fill="#BCA921"/>
<path d="M18.5134 8.97128C18.1089 9.00862 17.6454 9.05973 17.1592 9.11039C14.4698 9.39751 12.9787 9.51039 12.2201 9.36995L5.23828 18.4575C5.49517 18.7006 5.70806 18.9531 5.87961 19.2264C6.46317 18.6291 7.34495 18.4157 8.20361 18.6753C9.04628 18.9295 9.74984 19.6126 10.0441 20.4602C10.1689 20.8188 10.2081 21.1868 10.1761 21.5393C10.5205 21.4908 10.8845 21.5108 11.2427 21.6202C12.0832 21.8726 12.7894 22.5575 13.0814 23.4051C13.2081 23.7619 13.2481 24.1291 13.2178 24.4815C13.5623 24.4331 13.9263 24.4535 14.2845 24.5651C15.1232 24.8193 15.8263 25.5024 16.1205 26.3455C16.3054 26.8802 16.3125 27.4304 16.1623 27.9237C16.2481 27.9402 16.3361 27.9611 16.4236 27.9886C17.1761 28.222 17.8152 28.8402 18.0903 29.6024C18.3525 30.3402 18.2387 31.1153 17.8081 31.6717L19.0467 32.6624C19.3498 32.9028 19.7916 32.9291 20.2041 32.7291C20.6512 32.5122 20.9889 32.0717 21.0885 31.5788C21.1303 31.3731 21.1165 31.1735 21.0694 30.9886L19.4983 29.7317C19.2872 29.5624 19.2498 29.2499 19.4147 29.0331C19.5814 28.8179 19.8872 28.7779 20.0996 28.9473L21.9885 30.4611C22.1761 30.6113 22.7134 30.6513 23.2063 30.4193C23.7245 30.1717 24.1161 29.6615 24.2245 29.0922C24.3285 28.554 24.1618 28.0322 23.7912 27.7335L22.0827 26.3664C21.8698 26.1971 21.8325 25.8837 21.9992 25.6695C22.1641 25.4517 22.4716 25.4117 22.6823 25.5837L25.1658 27.57C25.5392 27.8668 26.0756 27.9077 26.5712 27.6766C27.0849 27.4308 27.4765 26.9215 27.5876 26.346C27.6916 25.8077 27.5249 25.2877 27.1503 24.9864L24.6658 23.0028C24.4529 22.8317 24.4156 22.5193 24.5823 22.3006C24.7489 22.0864 25.0547 22.0491 25.2681 22.218C25.2681 22.218 29.0405 25.2344 29.0432 25.2344C29.2307 25.382 29.7654 25.4237 30.2561 25.1891C30.7752 24.9468 31.1641 24.4375 31.2769 23.8637C31.3792 23.3246 31.2125 22.8011 30.8396 22.5051L23.4561 16.5962C22.6089 15.9015 21.7338 15.182 20.7174 15.3184L18.2312 15.6428C16.5552 16.0455 14.9743 15.6473 14.0601 14.5664C13.5089 13.9153 13.3214 13.11 13.5689 12.4624C13.9161 11.5642 14.5809 11.4713 15.6783 11.3166C15.8423 11.2957 16.0187 11.27 16.2129 11.2393L20.6227 9.61262C20.9094 9.50595 21.2267 9.43217 21.5552 9.36684C20.4214 8.92817 19.5996 8.90195 18.5134 8.97128Z" fill="#BCA921"/>
<path d="M8.93094 7.24904C8.12783 7.18815 7.3945 7.79348 6.33894 9.16815L3.63939 12.6846C2.66294 13.953 2.29717 14.7419 2.37806 15.4104C2.44294 15.9597 2.82517 16.4988 3.20428 16.8028L4.48472 17.8255L11.4381 8.77526L10.5381 8.05481C9.91939 7.56148 9.41272 7.28637 8.93094 7.24904Z" fill="#BCA921"/>
<path d="M31.2274 7.23979C30.7456 7.27002 30.2345 7.53935 29.6109 8.02557L28.7012 8.73135L35.5581 17.8554L36.4443 17.166C37.2109 16.5714 37.6021 16.0394 37.6736 15.4905C37.7621 14.8238 37.4078 14.0287 36.4469 12.7438L33.7914 9.19357C32.7567 7.80468 32.0327 7.18824 31.2274 7.23979Z" fill="#BCA921"/>
</svg>
