<svg width="40" height="41" viewBox="0 0 40 41" fill="none" xmlns="http://www.w3.org/2000/svg">
<path d="M39.4881 32.362L22.8418 5.61037C22.2265 4.62184 21.1643 4.03174 20 4.03174C18.8358 4.03174 17.7735 4.62184 17.1583 5.61047L0.511871 32.362C-0.139543 33.4091 -0.171058 34.6777 0.427925 35.7556C1.02681 36.8336 2.12049 37.4772 3.3537 37.4772H36.6463C37.8795 37.4772 38.9732 36.8336 39.572 35.7556C40.171 34.6777 40.1395 33.4091 39.4881 32.362ZM20.0012 33.1213H19.9989C19.1151 33.1213 18.3987 32.4049 18.3987 31.5211C18.3987 30.6372 19.1151 29.9208 19.9989 29.9208H20.0012C20.885 29.9208 21.6015 30.6372 21.6015 31.5211C21.6015 32.4049 20.885 33.1213 20.0012 33.1213ZM21.6015 25.837C21.6015 26.7208 20.885 27.4373 20.0012 27.4373H19.9989C19.1151 27.4373 18.3987 26.7208 18.3987 25.837V15.0178C18.3987 14.134 19.1151 13.4176 19.9989 13.4176H20.0012C20.885 13.4176 21.6015 14.134 21.6015 15.0178V25.837Z" fill="#F42D2D"/>
</svg>
