<svg width="40" height="41" viewBox="0 0 40 41" fill="none" xmlns="http://www.w3.org/2000/svg">
<path d="M23.2344 10.1885C23.2344 12.837 25.4013 15.004 28.0498 15.004C30.6984 15.004 32.8653 12.837 32.8653 10.1885C32.8653 7.54001 30.6984 5.37305 28.0498 5.37305C25.4013 5.37305 23.2344 7.49186 23.2344 10.1885Z" fill="#BCA921"/>
<path d="M32.047 16.7383H26.5092C24.6793 16.7383 23.1865 18.2311 23.1865 20.061V34.4111C23.1865 35.2779 23.9088 36.0002 24.7756 36.0002C25.6424 36.0002 26.3647 35.2779 26.3647 34.4111V31.1847C26.3647 30.3179 27.0871 29.5956 27.9538 29.5956C28.8206 29.5956 29.543 30.3179 29.543 31.1847V34.4111C29.543 35.2779 30.2653 36.0002 31.1321 36.0002C31.9988 36.0002 32.7212 35.2779 32.7212 34.4111V22.1316C32.7212 21.8427 33.1064 21.6982 33.299 21.8908L35.7549 24.3467C36.3809 24.9727 37.3922 24.9727 38.0182 24.3467C38.6442 23.7207 38.6442 22.7095 38.0182 22.0835L33.4435 17.3161C33.0583 16.9791 32.5767 16.7383 32.047 16.7383Z" fill="#BCA921"/>
<path d="M1.90247 24.2986C2.52848 24.9246 3.53973 24.9246 4.16574 24.2986L5.17699 23.2873C5.36961 23.0947 5.70669 23.2873 5.65854 23.5281L4.06943 30.655C4.02128 30.9439 4.2139 31.1847 4.50282 31.1847H6.42901C6.86241 31.1847 7.19949 31.5218 7.19949 31.9552V34.4111C7.19949 35.2779 7.92181 36.0002 8.7886 36.0002C9.65538 36.0002 10.3777 35.2779 10.3777 34.4111V32.822C10.3777 31.9552 11.1 31.2329 11.9668 31.2329C12.8336 31.2329 13.5559 31.9552 13.5559 32.822V34.4111C13.5559 35.2779 14.2782 36.0002 15.145 36.0002C16.0118 36.0002 16.7341 35.2779 16.7341 34.4111V31.9552C16.7341 31.5218 17.0712 31.1847 17.5046 31.1847H19.4308C19.7197 31.1847 19.9123 30.9439 19.8642 30.655L17.2638 19.0016C16.9749 17.6532 15.771 16.7383 14.4227 16.7383H9.79985C8.06628 16.7383 6.42901 17.4124 5.22515 18.6163L1.85431 21.9872C1.27645 22.6613 1.27645 23.6726 1.90247 24.2986Z" fill="#BCA921"/>
<path d="M7.15137 10.1885C7.15137 12.837 9.31833 15.004 11.9668 15.004C14.6154 15.004 16.7823 12.837 16.7823 10.1885C16.7823 7.54001 14.6154 5.37305 11.9668 5.37305C9.31833 5.37305 7.15137 7.49186 7.15137 10.1885Z" fill="#BCA921"/>
</svg>
