<svg width="40" height="41" viewBox="0 0 40 41" fill="none" xmlns="http://www.w3.org/2000/svg">
<path fill-rule="evenodd" clip-rule="evenodd" d="M18.333 18.4011C22.4752 18.4011 25.833 15.0433 25.833 10.9011C25.833 6.75899 22.4752 3.40112 18.333 3.40112C14.1909 3.40112 10.833 6.75899 10.833 10.9011C10.833 15.0433 14.1909 18.4011 18.333 18.4011ZM18.333 18.4011C10.0497 18.4011 3.33301 25.1178 3.33301 33.4011H19.2877C18.467 31.9195 17.9997 30.215 17.9997 28.4011C17.9997 24.4686 20.1963 21.0493 23.4295 19.303C21.8408 18.723 20.1253 18.4011 18.333 18.4011ZM28.333 36.7345C32.9353 36.7345 36.6663 33.0035 36.6663 28.4011C36.6663 23.7988 32.9353 20.0678 28.333 20.0678C23.7307 20.0678 19.9997 23.7988 19.9997 28.4011C19.9997 33.0035 23.7307 36.7345 28.333 36.7345ZM33.04 26.025L28.04 31.025L27.333 31.7321L26.6258 31.025L23.6258 28.025L25.04 26.6108L27.333 28.9036L31.6258 24.6108L33.04 26.025Z" fill="#BCA921"/>
</svg>
