<svg width="40" height="40" viewBox="0 0 40 40" fill="none" xmlns="http://www.w3.org/2000/svg">
<path fill-rule="evenodd" clip-rule="evenodd" d="M12.9786 3.69034C11.9092 3.36953 10.833 4.17028 10.833 5.28671V36.6667H16.6663V30.8334C16.6663 29.9129 17.4125 29.1667 18.333 29.1667H21.6663C22.5868 29.1667 23.333 29.9129 23.333 30.8334V36.6667H29.1663V9.78671C29.1663 9.05069 28.6835 8.40183 27.9785 8.19034L12.9786 3.69034ZM16.6663 13.3334C16.2061 13.3334 15.833 13.7065 15.833 14.1667V15.8334C15.833 16.2936 16.2061 16.6667 16.6663 16.6667H18.333C18.7932 16.6667 19.1663 16.2936 19.1663 15.8334V14.1667C19.1663 13.7065 18.7932 13.3334 18.333 13.3334H16.6663ZM15.833 19.1667C15.833 18.7065 16.2061 18.3334 16.6663 18.3334H18.333C18.7932 18.3334 19.1663 18.7065 19.1663 19.1667V20.8334C19.1663 21.2935 18.7932 21.6667 18.333 21.6667H16.6663C16.2061 21.6667 15.833 21.2935 15.833 20.8334V19.1667ZM16.6663 23.3334C16.2061 23.3334 15.833 23.7065 15.833 24.1667V25.8334C15.833 26.2935 16.2061 26.6667 16.6663 26.6667H18.333C18.7932 26.6667 19.1663 26.2935 19.1663 25.8334V24.1667C19.1663 23.7065 18.7932 23.3334 18.333 23.3334H16.6663ZM20.833 14.1667C20.833 13.7065 21.2062 13.3334 21.6663 13.3334H23.333C23.7932 13.3334 24.1663 13.7065 24.1663 14.1667V15.8334C24.1663 16.2936 23.7932 16.6667 23.333 16.6667H21.6663C21.2062 16.6667 20.833 16.2936 20.833 15.8334V14.1667ZM21.6663 18.3334C21.2062 18.3334 20.833 18.7065 20.833 19.1667V20.8334C20.833 21.2935 21.2062 21.6667 21.6663 21.6667H23.333C23.7932 21.6667 24.1663 21.2935 24.1663 20.8334V19.1667C24.1663 18.7065 23.7932 18.3334 23.333 18.3334H21.6663ZM20.833 24.1667C20.833 23.7065 21.2062 23.3334 21.6663 23.3334H23.333C23.7932 23.3334 24.1663 23.7065 24.1663 24.1667V25.8334C24.1663 26.2935 23.7932 26.6667 23.333 26.6667H21.6663C21.2062 26.6667 20.833 26.2935 20.833 25.8334V24.1667Z" fill="#BCA921"/>
<path d="M9.16634 36.6667V8.33337H6.66634C5.74587 8.33337 4.99967 9.07957 4.99967 10V35H4.16634C3.70611 35 3.33301 35.3732 3.33301 35.8334C3.33301 36.2935 3.70611 36.6667 4.16634 36.6667H9.16634Z" fill="#BCA921"/>
<path d="M35.833 36.6667H30.833V14.6354L34.1598 16.5365C34.6792 16.8333 34.9997 17.3855 34.9997 17.9837V35H35.833C36.2932 35 36.6663 35.3732 36.6663 35.8333C36.6663 36.2935 36.2932 36.6667 35.833 36.6667Z" fill="#BCA921"/>
<path d="M21.6663 36.6667V30.8334H18.333V36.6667H21.6663Z" fill="#BCA921"/>
</svg>
