<svg width="40" height="41" viewBox="0 0 40 41" fill="none" xmlns="http://www.w3.org/2000/svg">
<path d="M34.7332 28.4948L29.9957 25.1848C29.3762 24.7528 28.6521 24.5249 27.9012 24.5249C26.7071 24.5249 25.5863 25.1105 24.9036 26.0903L23.8039 27.6664C21.9607 26.4302 19.904 24.7042 17.9434 22.7439C15.9831 20.7836 14.2574 18.727 13.0216 16.8838L14.597 15.7841C15.4 15.2249 15.9363 14.3872 16.1067 13.426C16.2766 12.4655 16.0624 11.495 15.5025 10.6916L12.1933 5.95412C11.5013 4.96434 10.3847 4.37305 9.20607 4.37305C8.79759 4.37305 8.39697 4.44517 8.01562 4.58586C7.58251 4.74582 7.17903 4.9422 6.7834 5.19072L6.12926 5.65133C5.96573 5.77845 5.81362 5.9177 5.66794 6.06338C4.8699 6.86106 4.3036 7.87083 3.98403 9.06485C2.62041 14.1766 5.99858 21.9062 12.39 28.2977C17.7574 33.665 24.2056 36.9993 29.2176 37C30.076 37 30.8855 36.9 31.6232 36.7029C32.8172 36.3837 33.827 35.8174 34.6254 35.019C34.7703 34.8741 34.9089 34.7219 35.0574 34.5298L35.5184 33.8721C35.7437 33.5122 35.9397 33.1087 36.1018 32.6724C36.6592 31.1656 36.0965 29.4474 34.7332 28.4948Z" fill="#BCA921"/>
</svg>
