<svg width="40" height="41" viewBox="0 0 40 41" fill="none" xmlns="http://www.w3.org/2000/svg">
<g clip-path="url(#clip0_824_320)">
<path d="M39.2022 19.1949C36.6293 18.2709 35.0468 15.6526 35.2456 13.585C35.2456 13.2451 35.042 12.9292 34.7845 12.7061C34.527 12.4841 34.1276 12.388 33.7934 12.4417C29.8726 13.017 26.2825 10.1486 25.9268 6.11659C25.8947 5.75269 25.6956 5.42535 25.3866 5.22964C25.0788 5.03511 24.6954 4.99277 24.3555 5.1198C21.1775 6.28362 18.1746 4.17926 16.9764 1.43724C16.7521 0.924505 16.196 0.64185 15.6478 0.763178C6.62646 2.77622 0 11.4896 0 20.7353C0 31.7204 9.01481 40.7352 19.9999 40.7352C30.985 40.7352 39.9998 31.7204 39.9998 20.7353C39.9673 20.0373 39.9624 19.4672 39.2022 19.1949ZM8.22262 21.9954C7.57544 21.9954 7.05075 21.4707 7.05075 20.8235C7.05075 20.1761 7.57544 19.6516 8.22262 19.6516C8.86981 19.6516 9.39449 20.1761 9.39449 20.8235C9.39449 21.4707 8.86973 21.9954 8.22262 21.9954ZM12.9687 31.2821C11.0301 31.2821 9.45309 29.7051 9.45309 27.7665C9.45309 25.8279 11.0301 24.2509 12.9687 24.2509C14.9073 24.2509 16.4843 25.8279 16.4843 27.7665C16.4843 29.7051 14.9074 31.2821 12.9687 31.2821ZM14.1406 17.2197C12.8485 17.2197 11.7968 16.168 11.7968 14.8759C11.7968 13.5839 12.8485 12.5322 14.1406 12.5322C15.4326 12.5322 16.4843 13.5839 16.4843 14.8759C16.4843 16.168 15.4326 17.2197 14.1406 17.2197ZM23.5155 33.6259C22.2235 33.6259 21.1718 32.5741 21.1718 31.2821C21.1718 29.9901 22.2235 28.9384 23.5155 28.9384C24.8076 28.9384 25.8593 29.9901 25.8593 31.2821C25.8593 32.5741 24.8076 33.6259 23.5155 33.6259ZM24.6874 24.2509C22.7488 24.2509 21.1718 22.6739 21.1718 20.7353C21.1718 18.7967 22.7488 17.2197 24.6874 17.2197C26.626 17.2197 28.203 18.7967 28.203 20.7353C28.203 22.6739 26.6261 24.2509 24.6874 24.2509ZM31.66 26.6828C31.0128 26.6828 30.4882 26.1582 30.4882 25.511C30.4882 24.8636 31.0128 24.3391 31.66 24.3391C32.3072 24.3391 32.8319 24.8636 32.8319 25.511C32.8319 26.1582 32.3071 26.6828 31.66 26.6828Z" fill="#BCA921"/>
</g>
<defs>
<clipPath id="clip0_824_320">
<rect width="40" height="40" fill="white" transform="translate(0 0.735229)"/>
</clipPath>
</defs>
</svg>
