<svg width="40" height="41" viewBox="0 0 40 41" fill="none" xmlns="http://www.w3.org/2000/svg">
<g clip-path="url(#clip0_824_566)">
<path d="M36.0645 5.8541L20.4122 0.63668C20.1438 0.547539 19.8552 0.547539 19.5868 0.63668L3.93461 5.8541C3.40219 6.0316 3.04297 6.53004 3.04297 7.09144V17.5493C3.04289 32.5171 16.366 40.5698 19.9995 40.5698C22.6065 40.5698 36.9561 33.4836 36.9561 17.5492V7.09137C36.9561 6.53004 36.5969 6.03152 36.0645 5.8541ZM31.7387 17.5521C31.7387 28.8854 21.9284 34.9736 19.9995 34.9758V6.0823C20.3887 6.08309 30.4768 9.48723 30.8461 9.60996C31.3785 9.78699 31.7386 10.2859 31.7386 10.8476L31.7387 17.5521Z" fill="#BCA921"/>
</g>
<defs>
<clipPath id="clip0_824_566">
<rect width="40" height="40" fill="white" transform="translate(0 0.569824)"/>
</clipPath>
</defs>
</svg>
