<svg width="40" height="41" viewBox="0 0 40 41" fill="none" xmlns="http://www.w3.org/2000/svg">
<g clip-path="url(#clip0_831_422)">
<path d="M30.5469 39.4785C30.5469 37.5369 28.9729 35.9629 27.0312 35.9629H12.9688C11.0271 35.9629 9.45312 37.5369 9.45312 39.4785V40.7285H30.5469V39.4785Z" fill="#BCA921"/>
<path d="M37.6562 10.1816V7.83789H23.2998C22.9457 6.84508 22.1647 6.06406 21.1719 5.71V0.728516H18.8281V5.71C17.8353 6.06406 17.0543 6.84508 16.7002 7.83789H2.34375V10.1816H5.27375L0 23.0723C0 26.303 2.62867 28.9316 5.85938 28.9316H8.20312C11.4338 28.9316 14.0625 26.303 14.0625 23.0723L8.76492 10.1816H16.7003C17.0544 11.1745 17.8354 11.9555 18.8282 12.3095V29.0601C16.538 29.5288 14.7262 31.328 14.2593 33.6191H25.7409C25.2739 31.328 23.4622 29.5288 21.172 29.0601V12.3095C22.1648 11.9555 22.9458 11.1745 23.2998 10.1816H31.2113L25.9375 23.0723C25.9375 26.303 28.5662 28.9316 31.7969 28.9316H34.1406C37.3713 28.9316 40 26.303 40 23.0723L34.7024 10.1816H37.6562ZM11.1325 21.9004H2.93L7.03125 12.0562L11.1325 21.9004ZM37.07 21.9004H28.8675L32.9688 12.0562L37.07 21.9004Z" fill="#BCA921"/>
</g>
<defs>
<clipPath id="clip0_831_422">
<rect width="40" height="40" fill="white" transform="translate(0 0.728516)"/>
</clipPath>
</defs>
</svg>
