<svg width="40" height="41" viewBox="0 0 40 41" fill="none" xmlns="http://www.w3.org/2000/svg">
<g clip-path="url(#clip0_824_674)">
<path d="M36.6112 9.55851L36.0128 9.74823L32.8259 10.0322L31.9257 11.4696L31.2726 11.2621L28.7363 8.97537L28.3683 7.78617L27.8756 6.51802L26.2815 5.08818L24.4009 4.72021L24.3576 5.58092L26.2 7.37873L27.1014 8.44061L26.0879 8.97028L25.2629 8.72709L24.0266 8.21143L24.0686 7.21449L22.4465 6.54731L21.9079 8.89134L20.2731 9.26185L20.4348 10.5695L22.5649 10.9794L22.9329 8.89006L24.6912 9.14981L25.5086 9.62854H26.82L27.7177 11.4264L30.0974 13.8404L29.9229 14.7788L28.0042 14.5343L24.6886 16.2086L22.3013 19.0721L21.9907 20.3403H21.1338L19.5371 19.6044L17.9863 20.3403L18.3721 21.9764L19.0469 21.1984L20.2336 21.1615L20.1508 22.6308L21.1338 22.9186L22.1154 24.0212L23.7184 23.5705L25.5494 23.8595L27.6757 24.4312L28.7375 24.556L30.5379 26.5995L34.0126 28.6431L31.7653 32.9364L29.3933 34.039L28.4931 36.4926L25.0604 38.7844L24.695 40.106C33.4702 37.9924 39.998 30.1098 39.998 20.6853C39.9955 16.569 38.7477 12.7378 36.6112 9.55851Z" fill="#BCA921"/>
<path d="M22.3005 31.1383L20.8439 28.4378L22.1808 25.652L20.8439 25.2522L19.3428 23.7447L16.0171 22.9985L14.9132 20.6889V22.0602H14.4268L11.5608 18.1743V14.9822L9.45994 11.5662L6.12406 12.1608H3.8768L2.74616 11.4197L4.18874 10.2764L2.74998 10.6087C1.01583 13.5702 0.00488281 17.0067 0.00488281 20.6876C0.00488281 31.7304 8.95701 40.6863 20.0011 40.6863C20.8516 40.6863 21.6856 40.6112 22.5106 40.5119L22.3018 38.0889C22.3018 38.0889 23.2198 34.4908 23.2198 34.3685C23.2185 34.245 22.3005 31.1383 22.3005 31.1383Z" fill="#BCA921"/>
<path d="M7.43527 7.13547L10.9876 6.64018L12.625 5.74255L14.4674 6.27349L17.4111 6.11051L18.4195 4.52533L19.8901 4.76725L23.4615 4.43239L24.4457 3.34759L25.8335 2.42067L27.7969 2.71606L28.5124 2.60784C25.9265 1.39062 23.049 0.686523 19.9996 0.686523C13.7925 0.686523 8.2425 3.51565 4.57812 7.95798H4.58831L7.43527 7.13547ZM20.845 2.67532L22.8873 1.55105L24.1987 2.30863L22.3003 3.75375L20.4872 3.93582L19.6711 3.40616L20.845 2.67532ZM14.7958 2.83957L15.6973 3.21517L16.8776 2.83957L17.5206 3.95365L14.7958 4.66921L13.4857 3.90272C13.4857 3.90272 14.7666 3.07766 14.7958 2.83957Z" fill="#BCA921"/>
</g>
<defs>
<clipPath id="clip0_824_674">
<rect width="40" height="40" fill="white" transform="translate(0 0.686523)"/>
</clipPath>
</defs>
</svg>
