<svg width="40" height="41" viewBox="0 0 40 41" fill="none" xmlns="http://www.w3.org/2000/svg">
<path d="M39.4881 32.3358L22.8418 5.58425C22.2265 4.59572 21.1643 4.00562 20 4.00562C18.8358 4.00562 17.7735 4.59572 17.1583 5.58435L0.511871 32.3358C-0.139543 33.383 -0.171058 34.6516 0.427925 35.7295C1.02681 36.8075 2.12049 37.4511 3.3537 37.4511H36.6463C37.8795 37.4511 38.9732 36.8075 39.572 35.7295C40.171 34.6516 40.1395 33.383 39.4881 32.3358ZM20.0012 33.0952H19.9989C19.1151 33.0952 18.3987 32.3787 18.3987 31.495C18.3987 30.6111 19.1151 29.8946 19.9989 29.8946H20.0012C20.885 29.8946 21.6015 30.6111 21.6015 31.495C21.6015 32.3787 20.885 33.0952 20.0012 33.0952ZM21.6015 25.8108C21.6015 26.6947 20.885 27.4111 20.0012 27.4111H19.9989C19.1151 27.4111 18.3987 26.6947 18.3987 25.8108V14.9917C18.3987 14.1079 19.1151 13.3915 19.9989 13.3915H20.0012C20.885 13.3915 21.6015 14.1079 21.6015 14.9917V25.8108Z" fill="#BCA921"/>
</svg>
