<svg width="40" height="40" viewBox="0 0 40 40" fill="none" xmlns="http://www.w3.org/2000/svg">
<path d="M19.9955 21.81C12.4849 21.81 6.191 19.6036 4.47261 16.6288C4.17049 17.1524 3.99414 17.6965 3.99414 18.2611V23.1292C3.99414 26.89 11.1602 29.9412 19.9955 29.9412C28.8362 29.9412 36.0051 26.89 36.0051 23.1292V18.2611C36.0051 17.6965 35.826 17.1524 35.5211 16.6288C33.8028 19.6022 27.5143 21.81 19.9955 21.81Z" fill="#BCA921"/>
<path d="M19.9955 31.866C12.4849 31.866 6.191 29.6569 4.47261 26.6876C4.17049 27.2085 3.99414 27.7526 3.99414 28.3158V33.188C3.99414 36.9501 11.1602 40 19.9955 40C28.8362 40 36.0051 36.9515 36.0051 33.188V28.3158C36.0051 27.7526 35.826 27.2085 35.5211 26.689C33.8028 29.6569 27.5143 31.866 19.9955 31.866Z" fill="#BCA921"/>
<path d="M35.5676 6.8927C35.2532 9.64868 28.4152 11.8537 19.9955 11.8537C11.5799 11.8537 4.74192 9.64868 4.42886 6.89407C4.15409 7.39441 3.99414 7.91662 3.99414 8.45388V13.322C3.99414 17.0841 11.1602 20.134 19.9955 20.134C28.8362 20.134 36.0051 17.0855 36.0051 13.322V8.45388C36.0051 7.91662 35.8424 7.39441 35.5676 6.8927Z" fill="#BCA921"/>
<path d="M19.9957 10.309C28.6123 10.309 35.5938 8.00273 35.5938 5.15379C35.5938 2.30759 28.6123 0 19.9957 0C11.3847 0.00136705 4.40039 2.30895 4.40039 5.15516C4.40039 8.00273 11.3847 10.309 19.9957 10.309Z" fill="#BCA921"/>
</svg>
