<svg width="40" height="41" viewBox="0 0 40 41" fill="none" xmlns="http://www.w3.org/2000/svg">
<g clip-path="url(#clip0_824_481)">
<path d="M24.4059 16.3263C23.9321 15.8496 23.4067 15.4271 22.8395 15.0665C21.3373 14.1046 19.5909 13.5934 17.8071 13.5934C15.3312 13.5888 12.9559 14.5725 11.2083 16.3263L2.72979 24.8114C0.985099 26.5594 0.00449384 28.9278 0.00293162 31.3975C-0.000349041 36.5513 4.17484 40.7319 9.3286 40.7352C11.8007 40.7438 14.1737 39.7647 15.9208 38.0157L22.9195 31.0169C23.0467 30.8908 23.1177 30.7188 23.1167 30.5398C23.1146 30.1717 22.8144 29.875 22.4462 29.8771H22.1797C20.7174 29.8823 19.2682 29.6015 17.9138 29.0506C17.6642 28.9479 17.3774 29.0059 17.1873 29.1972L12.1548 34.2363C10.5921 35.799 8.05852 35.799 6.49583 34.2363C4.93314 32.6736 4.93314 30.14 6.49583 28.5773L15.0077 20.0722C16.5691 18.5128 19.0986 18.5128 20.66 20.0722C21.7123 21.0626 23.3537 21.0626 24.406 20.0722C24.8587 19.6191 25.1332 19.0181 25.1792 18.3792C25.2279 17.6156 24.9463 16.8679 24.4059 16.3263Z" fill="#BCA921"/>
<path d="M37.2633 3.46855C33.6189 -0.175876 27.7101 -0.175876 24.0657 3.46855L17.0736 10.4539C16.8816 10.6469 16.8262 10.937 16.9336 11.1872C17.0397 11.438 17.2878 11.599 17.5601 11.5937H17.8067C19.2672 11.5911 20.7141 11.8741 22.066 12.4269C22.3155 12.5297 22.6023 12.4717 22.7925 12.2803L27.8116 7.26786C29.3743 5.70518 31.9079 5.70518 33.4705 7.26786C35.0332 8.83055 35.0332 11.3642 33.4705 12.9268L27.2183 19.1724L27.165 19.2324L24.9787 21.4053C23.4173 22.9648 20.8878 22.9648 19.3264 21.4053C18.2741 20.415 16.6326 20.415 15.5804 21.4053C15.1248 21.8619 14.8501 22.4681 14.8072 23.1117C14.7584 23.8752 15.04 24.6229 15.5804 25.1646C16.3519 25.9394 17.2546 26.5713 18.2466 27.031C18.3865 27.0976 18.5265 27.1509 18.6665 27.2109C18.8065 27.2709 18.9531 27.3175 19.0931 27.3709C19.233 27.4242 19.3796 27.4709 19.5196 27.5109L19.9129 27.6175C20.1795 27.6841 20.4462 27.7375 20.7194 27.7841C21.0486 27.833 21.3801 27.8642 21.7126 27.8774H22.1791H22.2191L22.6191 27.8308C22.7657 27.8242 22.919 27.7908 23.0923 27.7908H23.3189L23.7788 27.7242L23.9922 27.6842L24.3787 27.6042H24.4521C26.0894 27.193 27.5844 26.3452 28.778 25.1513L37.2631 16.6662C40.9077 13.0218 40.9077 7.11297 37.2633 3.46855Z" fill="#BCA921"/>
</g>
<defs>
<clipPath id="clip0_824_481">
<rect width="40" height="40" fill="white" transform="translate(0 0.735229)"/>
</clipPath>
</defs>
</svg>
