<svg width="40" height="41" viewBox="0 0 40 41" fill="none" xmlns="http://www.w3.org/2000/svg">
<path d="M40 13.0781V10.9688C40 8.5525 38.0412 6.59375 35.625 6.59375H4.375C1.95875 6.59375 0 8.5525 0 10.9688V13.0781C0 13.2938 0.174922 13.4688 0.390625 13.4688H39.6094C39.8251 13.4688 40 13.2938 40 13.0781Z" fill="#BCA921"/>
<path d="M0 16.3594V29.7188C0 32.135 1.95875 34.0938 4.375 34.0938H35.625C38.0412 34.0938 40 32.135 40 29.7188V16.3594C40 16.1437 39.8251 15.9688 39.6094 15.9688H0.390625C0.174922 15.9688 0 16.1437 0 16.3594ZM10 26.5938C10 27.2841 9.44031 27.8438 8.75 27.8438H7.5C6.80969 27.8438 6.25 27.2841 6.25 26.5938V25.3438C6.25 24.6534 6.80969 24.0938 7.5 24.0938H8.75C9.44031 24.0938 10 24.6534 10 25.3438V26.5938Z" fill="#BCA921"/>
</svg>
