<svg width="40" height="41" viewBox="0 0 40 41" fill="none" xmlns="http://www.w3.org/2000/svg">
<g clip-path="url(#clip0_831_391)">
<path d="M20 1.17749C9.2132 1.17749 0.46875 9.92194 0.46875 20.7087C0.46875 31.4955 9.2132 40.24 20 40.24C30.7868 40.24 39.5312 31.4955 39.5312 20.7087C39.5312 9.92194 30.7868 1.17749 20 1.17749ZM20.237 31.481C13.9948 31.481 9.33313 26.86 9.33313 20.7254C9.33313 14.5569 13.9949 9.93585 20.237 9.93585C25.612 9.93585 29.7744 13.4834 30.6079 18.6834H24.8836C24.1796 16.5801 22.4077 15.2147 20.2493 15.2147C17.3454 15.2147 15.2154 17.5497 15.2154 20.7252C15.2154 23.8884 17.3454 26.1897 20.2493 26.1897C22.5248 26.1897 24.3137 24.7069 24.8881 22.428H30.6669C29.8872 27.8206 25.6995 31.481 20.237 31.481Z" fill="#BCA921"/>
</g>
<defs>
<clipPath id="clip0_831_391">
<rect width="40" height="40" fill="white" transform="translate(0 0.70874)"/>
</clipPath>
</defs>
</svg>
