<svg width="40" height="41" viewBox="0 0 40 41" fill="none" xmlns="http://www.w3.org/2000/svg">
<path d="M20.0003 2.23657C16.3743 2.23657 12.8298 3.3118 9.81488 5.3263C6.79998 7.34079 4.45015 10.2041 3.06254 13.554C1.67494 16.904 1.31187 20.5902 2.01927 24.1466C2.72667 27.7029 4.47275 30.9696 7.03671 33.5335C9.60067 36.0975 12.8674 37.8436 16.4237 38.551C19.98 39.2584 23.6662 38.8953 27.0162 37.5077C30.3662 36.1201 33.2295 33.7703 35.2439 30.7554C37.2584 27.7405 38.3337 24.1959 38.3337 20.5699C38.3279 15.7094 36.3946 11.0495 32.9576 7.61262C29.5207 4.17569 24.8609 2.24231 20.0003 2.23657ZM26.1787 26.7482C25.8661 27.0607 25.4423 27.2362 25.0003 27.2362C24.5584 27.2362 24.1345 27.0607 23.822 26.7482L18.822 21.7482C18.5094 21.4358 18.3338 21.0119 18.3337 20.5699V10.5699C18.3337 10.1279 18.5093 9.70396 18.8218 9.3914C19.1344 9.07883 19.5583 8.90324 20.0003 8.90324C20.4424 8.90324 20.8663 9.07883 21.1788 9.3914C21.4914 9.70396 21.667 10.1279 21.667 10.5699V19.8799L26.1787 24.3916C26.4911 24.7041 26.6666 25.128 26.6666 25.5699C26.6666 26.0118 26.4911 26.4357 26.1787 26.7482Z" fill="#BCA921"/>
</svg>
