<svg width="40" height="40" viewBox="0 0 40 40" fill="none" xmlns="http://www.w3.org/2000/svg">
<g clip-path="url(#clip0_824_237)">
<path d="M7.36107 21.1721H0C0.231599 25.2133 1.65831 29.0283 4.11056 32.207C5.48976 31.428 7.03813 30.7601 8.71081 30.2154C7.91491 27.4346 7.45218 24.364 7.36107 21.1721Z" fill="#BCA921"/>
<path d="M7.36107 18.8281C7.45218 15.6361 7.91491 12.5655 8.71089 9.78453C7.03813 9.23991 5.48984 8.572 4.11064 7.79297C1.65831 10.9717 0.231599 14.7868 0 18.8281H7.36107Z" fill="#BCA921"/>
<path d="M12.9102 5.56259C12.4652 6.38444 12.0633 7.26582 11.7061 8.19683C13.9322 8.72887 16.3409 9.04657 18.8281 9.1226V0.0995483C16.6385 0.60033 14.571 2.49563 12.9102 5.56259Z" fill="#BCA921"/>
<path d="M21.1719 0.0995483V9.12252C23.6589 9.04649 26.0676 8.72871 28.2938 8.19675C27.9364 7.26582 27.5346 6.38436 27.0896 5.56251C25.4288 2.4957 23.3614 0.600408 21.1719 0.0995483Z" fill="#BCA921"/>
<path d="M29.0364 10.4244C26.5741 11.0295 23.9121 11.3879 21.1719 11.4676V18.8279H30.2935C30.2038 15.8497 29.7734 12.9962 29.0364 10.4244Z" fill="#BCA921"/>
<path d="M9.44176 32.4385C8.08702 32.8797 6.82557 33.4079 5.68555 34.0157C5.73485 34.066 5.78322 34.1169 5.83307 34.1668C7.91824 36.252 10.3825 37.8196 13.0699 38.8081C12.2691 37.8886 11.5241 36.8007 10.8488 35.5536C10.3238 34.5841 9.85432 33.5409 9.44176 32.4385Z" fill="#BCA921"/>
<path d="M30.5578 7.56147C31.9126 7.12023 33.174 6.59202 34.314 5.98434C34.2647 5.93402 34.2164 5.88308 34.1665 5.83323C32.0814 3.74806 29.6171 2.18047 26.9297 1.19196C27.7305 2.1114 28.4755 3.1993 29.1508 4.44637C29.6758 5.41582 30.1453 6.45903 30.5578 7.56147Z" fill="#BCA921"/>
<path d="M32.6389 21.1721C32.5478 24.364 32.085 27.4346 31.2891 30.2155C32.9618 30.7601 34.5101 31.428 35.8893 32.207C38.3416 29.0284 39.7683 25.2134 39.9999 21.1722H32.6389V21.1721Z" fill="#BCA921"/>
<path d="M30.5579 32.4385C30.1453 33.5409 29.6759 34.584 29.1508 35.5536C28.4756 36.8006 27.7305 37.8885 26.9297 38.808C29.6171 37.8195 32.0814 36.2519 34.1665 34.1667C34.2164 34.1169 34.2647 34.0659 34.314 34.0156C33.174 33.408 31.9127 32.8797 30.5579 32.4385Z" fill="#BCA921"/>
<path d="M9.4416 7.56147C9.85417 6.45903 10.3236 5.4159 10.8487 4.44637C11.524 3.1993 12.269 2.1114 13.0698 1.19196C10.3825 2.18047 7.91816 3.74806 5.83299 5.83323C5.78314 5.88308 5.73477 5.93402 5.68555 5.98434C6.82549 6.59202 8.08686 7.12023 9.4416 7.56147Z" fill="#BCA921"/>
<path d="M31.2891 9.78451C32.085 12.5655 32.5478 15.6361 32.6389 18.828H40C39.7684 14.7868 38.3416 10.9717 35.8894 7.79303C34.5101 8.57198 32.9618 9.2399 31.2891 9.78451Z" fill="#BCA921"/>
<path d="M18.8278 18.828V11.4676C16.0876 11.388 13.4255 11.0294 10.9631 10.4245C10.2261 12.9962 9.79568 15.8496 9.70605 18.8281H18.8278V18.828Z" fill="#BCA921"/>
<path d="M21.1719 21.1721V28.5324C23.912 28.6121 26.5741 28.9705 29.0364 29.5755C29.7734 27.0038 30.2038 24.1504 30.2935 21.1721H21.1719V21.1721Z" fill="#BCA921"/>
<path d="M27.0896 34.4375C27.5347 33.6157 27.9365 32.7343 28.2938 31.8033C26.0676 31.2712 23.659 30.9535 21.1719 30.8775V39.9005C23.3614 39.3996 25.4289 37.5043 27.0896 34.4375Z" fill="#BCA921"/>
<path d="M18.8281 39.9005V30.8775C16.341 30.9535 13.9323 31.2712 11.7061 31.8033C12.0634 32.7342 12.4652 33.6157 12.9103 34.4375C14.5711 37.5044 16.6385 39.3997 18.8281 39.9005Z" fill="#BCA921"/>
<path d="M18.8278 21.1721H9.70605C9.79576 24.1505 10.2261 27.0039 10.9631 29.5755C13.4254 28.9705 16.0875 28.612 18.8278 28.5324V21.1721Z" fill="#BCA921"/>
</g>
<defs>
<clipPath id="clip0_824_237">
<rect width="40" height="40" fill="white"/>
</clipPath>
</defs>
</svg>
