<svg width="40" height="41" viewBox="0 0 40 41" fill="none" xmlns="http://www.w3.org/2000/svg">
<g clip-path="url(#clip0_824_533)">
<path d="M24.282 25.0479C22.4336 24.7573 21.1344 23.0471 21.3406 21.2346C21.3685 20.989 21.4244 20.7473 21.507 20.5143C21.7203 19.8987 21.5008 19.1862 20.9727 18.7424C19.8554 17.7782 18.5889 17.0019 17.2227 16.444C16.9242 16.3178 16.5921 16.2948 16.279 16.3787C15.966 16.4627 15.6899 16.6487 15.4945 16.9073C15.2354 17.25 14.9101 17.5374 14.538 17.7523C14.1659 17.9673 13.7544 18.1054 13.328 18.1587C12.9016 18.2119 12.4688 18.1791 12.0553 18.0623C11.6418 17.9454 11.2558 17.7469 10.9203 17.4784C10.7132 17.312 10.5278 17.1201 10.3688 16.9073C10.1735 16.6492 9.89787 16.4635 9.58534 16.3796C9.2728 16.2957 8.94121 16.3184 8.64298 16.444C7.38174 16.9574 6.2048 17.6574 5.15158 18.5206C4.59689 18.9713 4.36486 19.7096 4.59064 20.3456C5.22033 22.0166 4.37033 23.9752 2.6422 24.6893C2.33422 24.8172 2.00961 24.9005 1.67814 24.937C1.34029 24.9771 1.02296 25.1202 0.769279 25.3469C0.515594 25.5736 0.337842 25.8729 0.26017 26.2041C-0.0561718 27.6086 -0.084344 29.0627 0.177358 30.4784C0.244764 30.82 0.419095 31.1312 0.675131 31.3672C0.931166 31.6031 1.25563 31.7515 1.60158 31.7909C3.4508 31.9854 4.82579 33.6198 4.70783 35.4385C4.68402 35.8046 4.59789 36.1639 4.45314 36.501C4.1797 37.1323 4.39142 37.8987 4.95626 38.3651C6.06653 39.3138 7.32146 40.0786 8.67345 40.6307C8.84131 40.6954 9.0187 40.7318 9.19845 40.7385C9.44194 40.7431 9.68264 40.6861 9.89818 40.5727C10.1137 40.4593 10.2971 40.2933 10.4313 40.0901C10.719 39.6578 11.1073 39.3018 11.563 39.0527C12.0186 38.8036 12.5279 38.6688 13.0471 38.66C13.5664 38.6512 14.08 38.7685 14.5438 39.002C15.0077 39.2354 15.4079 39.578 15.7102 40.0002C15.9052 40.277 16.191 40.4768 16.518 40.5648C16.8449 40.6529 17.1924 40.6237 17.5 40.4823C18.737 39.9348 19.8876 39.21 20.9156 38.3307C21.4539 37.876 21.6711 37.1487 21.443 36.5252C20.793 34.8635 21.6211 32.8971 23.3414 32.1659C23.6325 32.0418 23.9388 31.9575 24.2524 31.9151C24.5854 31.8666 24.8955 31.7172 25.1409 31.487C25.3864 31.2568 25.5553 30.9568 25.625 30.6276C25.7732 29.9368 25.8535 29.2332 25.8649 28.5268C25.864 27.7821 25.7854 27.0396 25.6305 26.3112C25.5599 25.9889 25.3932 25.6956 25.1525 25.4701C24.9117 25.2445 24.6082 25.0973 24.282 25.0479ZM17.2422 28.5268C17.2424 29.3795 16.9897 30.213 16.5161 30.922C16.0425 31.6311 15.3692 32.1837 14.5815 32.5101C13.7938 32.8365 12.927 32.922 12.0907 32.7558C11.2544 32.5895 10.4862 32.179 9.88325 31.5762C9.28027 30.9733 8.86962 30.2052 8.70322 29.3689C8.53681 28.5326 8.62214 27.6658 8.9484 26.878C9.27466 26.0903 9.82721 25.417 10.5362 24.9432C11.2451 24.4695 12.0786 24.2166 12.9313 24.2166C14.0726 24.2226 15.1656 24.6786 15.9727 25.4856C16.7799 26.2926 17.236 27.3854 17.2422 28.5268Z" fill="#BCA921"/>
<path d="M38.7258 7.7612C37.236 7.52682 36.1883 6.1487 36.3555 4.68776C36.3772 4.48972 36.422 4.2949 36.4891 4.10729C36.661 3.6112 36.4844 3.03854 36.0586 2.67917C35.1576 1.90143 34.1359 1.27578 33.0336 0.826823C32.7926 0.725272 32.5246 0.707252 32.2721 0.775631C32.0197 0.84401 31.7974 0.994859 31.6406 1.20417C31.4316 1.48028 31.1694 1.71173 30.8695 1.88485C30.5696 2.05797 30.238 2.16926 29.8944 2.21215C29.5507 2.25504 29.202 2.22866 28.8687 2.13457C28.5354 2.04048 28.2244 1.88059 27.9539 1.66432C27.7881 1.52981 27.6395 1.37525 27.5117 1.20417C27.3545 0.996051 27.1324 0.846318 26.8805 0.778678C26.6287 0.711037 26.3614 0.729355 26.1211 0.83073C25.105 1.24426 24.1568 1.80839 23.3086 2.50417C22.8617 2.86745 22.6742 3.46276 22.8563 3.97526C23.3641 5.32135 22.6789 6.90026 21.286 7.47604C21.0375 7.57889 20.7758 7.64621 20.5086 7.67604C20.2371 7.70795 19.982 7.82248 19.7777 8.00412C19.5734 8.18577 19.4299 8.42577 19.3664 8.69167C19.111 9.82371 19.0881 10.9958 19.2992 12.137C19.3544 12.412 19.4953 12.6624 19.7016 12.8525C19.9079 13.0425 20.1691 13.1623 20.4477 13.1948C21.9375 13.351 23.0461 14.6698 22.9477 16.1362C22.9293 16.4321 22.8606 16.7228 22.7445 16.9956C22.5242 17.5049 22.6953 18.1221 23.1508 18.4979C24.0455 19.2619 25.0568 19.8777 26.1461 20.3221C26.2816 20.374 26.4246 20.4033 26.5695 20.4089C26.7658 20.4124 26.9597 20.3663 27.1334 20.275C27.3072 20.1836 27.455 20.0499 27.5633 19.8862C27.7951 19.5377 28.1081 19.2507 28.4753 19.0499C28.8426 18.8491 29.2531 18.7404 29.6716 18.7333C30.0901 18.7261 30.504 18.8207 30.8779 19.0089C31.2518 19.197 31.5744 19.4732 31.818 19.8135C31.9752 20.0354 32.2046 20.1957 32.467 20.267C32.7294 20.3382 33.0084 20.316 33.2563 20.2042C34.2538 19.7628 35.1817 19.1785 36.011 18.4698C36.4445 18.1034 36.6195 17.5167 36.4352 17.0143C35.9117 15.676 36.5789 14.0909 37.9656 13.4987C38.2003 13.3989 38.4473 13.3308 38.7 13.2964C38.9684 13.2572 39.2184 13.1367 39.4163 12.9512C39.6142 12.7658 39.7505 12.5241 39.807 12.2589C39.9265 11.7019 39.9911 11.1346 40 10.5651C39.9993 9.96595 39.9365 9.36848 39.8125 8.78229C39.755 8.52313 39.6204 8.28743 39.4265 8.10616C39.2325 7.9249 38.9883 7.80655 38.7258 7.76667V7.7612ZM33.0516 10.5651C33.0516 11.2522 32.8478 11.9239 32.4661 12.4953C32.0843 13.0666 31.5417 13.5119 30.9069 13.7749C30.2721 14.0378 29.5735 14.1066 28.8996 13.9726C28.2256 13.8385 27.6066 13.5076 27.1207 13.0217C26.6348 12.5359 26.304 11.9168 26.1699 11.2429C26.0358 10.569 26.1046 9.87041 26.3676 9.23558C26.6306 8.60075 27.0759 8.05815 27.6472 7.6764C28.2185 7.29464 28.8902 7.09089 29.5774 7.09089C30.4973 7.09561 31.3783 7.46316 32.0288 8.11368C32.6793 8.7642 33.0469 9.64514 33.0516 10.5651Z" fill="#BCA921"/>
<path d="M39.6915 29.8682C39.3313 29.5594 39.1031 29.1245 39.0537 28.6527C39.0043 28.1809 39.1374 27.7081 39.4258 27.3314C39.5069 27.2285 39.5994 27.1352 39.7016 27.0533C39.8336 26.9387 39.9282 26.7871 39.9731 26.6182C40.0179 26.4492 40.011 26.2706 39.9532 26.1057C39.7176 25.3599 39.3622 24.6575 38.9008 24.026C38.8013 23.8864 38.6581 23.7839 38.4938 23.7349C38.3296 23.6858 38.1536 23.6928 37.9938 23.7549C37.7816 23.8375 37.555 23.8766 37.3275 23.87C37.0999 23.8634 36.8759 23.8112 36.6689 23.7165C36.4619 23.6218 36.2759 23.4865 36.1221 23.3187C35.9683 23.1508 35.8498 22.9538 35.7735 22.7393C35.7264 22.6069 35.6963 22.469 35.6836 22.3291C35.6674 22.1584 35.5948 21.998 35.4772 21.8732C35.3597 21.7484 35.2038 21.6664 35.0344 21.64C34.323 21.5207 33.5978 21.5089 32.8829 21.6049C32.7031 21.625 32.5339 21.6998 32.398 21.8191C32.2621 21.9384 32.166 22.0965 32.1227 22.2721C31.9422 23.2002 31.0141 23.8471 30.036 23.6877C29.8616 23.6603 29.6921 23.6077 29.5329 23.5314C29.3695 23.4556 29.1867 23.4319 29.0093 23.4635C28.832 23.4951 28.6686 23.5804 28.5415 23.708C28.0083 24.2532 27.5913 24.9009 27.3157 25.6119C27.2511 25.7846 27.2432 25.9734 27.2931 26.151C27.3429 26.3285 27.448 26.4856 27.593 26.5994C27.9663 26.8887 28.2143 27.3102 28.2859 27.7769C28.3576 28.2436 28.2474 28.7201 27.9782 29.108C27.8661 29.2667 27.7277 29.4049 27.5688 29.5166C27.4208 29.6275 27.3125 29.7831 27.26 29.9605C27.2075 30.1378 27.2136 30.3274 27.2774 30.501C27.5146 31.2371 27.868 31.9305 28.3243 32.5549C28.3819 32.6306 28.4516 32.6963 28.5305 32.7494C28.639 32.8192 28.7633 32.8604 28.892 32.8693C29.0206 32.8782 29.1494 32.8544 29.2665 32.8002C29.5164 32.6854 29.7905 32.633 30.0652 32.6474C30.3399 32.6618 30.6069 32.7427 30.8435 32.883C31.0801 33.0234 31.279 33.2191 31.4233 33.4533C31.5676 33.6874 31.6529 33.9531 31.6719 34.2275C31.6827 34.4059 31.7554 34.575 31.8775 34.7055C31.9996 34.836 32.1634 34.9198 32.3407 34.9424C33.0506 35.0397 33.7709 35.0331 34.479 34.9229C34.6561 34.8997 34.8219 34.8229 34.9541 34.7028C35.0864 34.5827 35.1787 34.4251 35.2188 34.251C35.3875 33.3221 36.3079 32.665 37.2868 32.8143C37.4526 32.8389 37.6143 32.8862 37.7672 32.9549C37.931 33.0256 38.1124 33.0445 38.2872 33.0088C38.462 32.9732 38.6216 32.8848 38.7446 32.7557C39.0035 32.4858 39.2354 32.1911 39.4368 31.876C39.6437 31.5406 39.8149 31.1845 39.9477 30.8135C40.0057 30.6485 40.0122 30.4698 39.9665 30.301C39.9207 30.1322 39.8248 29.9813 39.6915 29.8682ZM35.5508 29.4775C35.3137 29.862 34.968 30.1675 34.5572 30.3554C34.1465 30.5433 33.6893 30.6052 33.2434 30.5332C32.7975 30.4612 32.3829 30.2587 32.0522 29.9511C31.7214 29.6435 31.4893 29.2448 31.3851 28.8053C31.281 28.3658 31.3095 27.9053 31.4671 27.482C31.6247 27.0587 31.9043 26.6917 32.2705 26.4273C32.6367 26.1629 33.0731 26.013 33.5244 25.9967C33.9758 25.9803 34.4219 26.0982 34.8063 26.3354C35.3195 26.6556 35.6856 27.1655 35.825 27.7541C35.9644 28.3428 35.8659 28.9627 35.5508 29.4791V29.4775Z" fill="#BCA921"/>
</g>
<defs>
<clipPath id="clip0_824_533">
<rect width="40" height="40" fill="white" transform="translate(0 0.735352)"/>
</clipPath>
</defs>
</svg>
