<svg width="40" height="41" viewBox="0 0 40 41" fill="none" xmlns="http://www.w3.org/2000/svg">
<g clip-path="url(#clip0_824_592)">
<path d="M37.0568 7.23639C37.0568 10.228 34.6318 12.6533 31.6402 12.6533C28.6486 12.6533 26.2236 10.228 26.2236 7.23639C26.2236 4.24506 28.6486 1.81982 31.6402 1.81982C34.6318 1.81982 37.0568 4.24506 37.0568 7.23639Z" fill="#BCA921"/>
<path d="M31.6402 13.9033C27.9634 13.9033 24.9736 10.9131 24.9736 7.23639C24.9736 3.55994 27.9634 0.569824 31.6402 0.569824C35.317 0.569824 38.3068 3.55994 38.3068 7.23639C38.3068 10.9131 35.317 13.9033 31.6402 13.9033ZM31.6402 3.06982C29.3419 3.06982 27.4736 4.93994 27.4736 7.23639C27.4736 9.53314 29.3419 11.4033 31.6402 11.4033C33.9385 11.4033 35.8068 9.53314 35.8068 7.23639C35.8068 4.93994 33.9385 3.06982 31.6402 3.06982Z" fill="#BCA921"/>
<path d="M37.0568 33.9032C37.0568 36.8945 34.6318 39.3198 31.6402 39.3198C28.6486 39.3198 26.2236 36.8945 26.2236 33.9032C26.2236 30.9116 28.6486 28.4863 31.6402 28.4863C34.6318 28.4863 37.0568 30.9116 37.0568 33.9032Z" fill="#BCA921"/>
<path d="M31.6402 40.5698C27.9634 40.5698 24.9736 37.5797 24.9736 33.9032C24.9736 30.2264 27.9634 27.2363 31.6402 27.2363C35.317 27.2363 38.3068 30.2264 38.3068 33.9032C38.3068 37.5797 35.317 40.5698 31.6402 40.5698ZM31.6402 29.7363C29.3419 29.7363 27.4736 31.6064 27.4736 33.9032C27.4736 36.1996 29.3419 38.0698 31.6402 38.0698C33.9385 38.0698 35.8068 36.1996 35.8068 33.9032C35.8068 31.6064 33.9385 29.7363 31.6402 29.7363Z" fill="#BCA921"/>
<path d="M13.7241 20.5699C13.7241 23.5615 11.2988 25.9865 8.30719 25.9865C5.31586 25.9865 2.89062 23.5615 2.89062 20.5699C2.89062 17.5782 5.31586 15.1533 8.30719 15.1533C11.2988 15.1533 13.7241 17.5782 13.7241 20.5699Z" fill="#BCA921"/>
<path d="M8.30719 27.2365C4.63074 27.2365 1.64062 24.2466 1.64062 20.5699C1.64062 16.8931 4.63074 13.9033 8.30719 13.9033C11.9839 13.9033 14.9741 16.8931 14.9741 20.5699C14.9741 24.2466 11.9839 27.2365 8.30719 27.2365ZM8.30719 16.4033C6.00891 16.4033 4.14062 18.2731 4.14062 20.5699C4.14062 22.8666 6.00891 24.7365 8.30719 24.7365C10.6058 24.7365 12.4741 22.8666 12.4741 20.5699C12.4741 18.2731 10.6058 16.4033 8.30719 16.4033Z" fill="#BCA921"/>
<path d="M12.2425 19.77C11.6624 19.77 11.0991 19.4682 10.7924 18.9284C10.3373 18.13 10.6175 17.1117 11.4158 16.6548L26.8806 7.83828C27.6789 7.3799 28.6973 7.66005 29.1542 8.46144C29.6092 9.25978 29.329 10.2782 28.5307 10.735L13.0656 19.5515C12.8056 19.6998 12.5224 19.77 12.2425 19.77Z" fill="#BCA921"/>
<path d="M27.706 33.52C27.4258 33.52 27.1426 33.4498 26.8826 33.3014L11.4176 24.4849C10.6192 24.0299 10.3394 23.0115 10.7944 22.2114C11.2476 21.4115 12.2675 21.1298 13.0676 21.5882L28.5327 30.4047C29.3311 30.8597 29.6109 31.8781 29.1559 32.6783C28.8477 33.2181 28.2843 33.52 27.706 33.52Z" fill="#BCA921"/>
</g>
<defs>
<clipPath id="clip0_824_592">
<rect width="40" height="40" fill="white" transform="translate(0 0.569824)"/>
</clipPath>
</defs>
</svg>
