<svg width="40" height="41" viewBox="0 0 40 41" fill="none" xmlns="http://www.w3.org/2000/svg">
<path d="M20.0003 2.39526C16.3743 2.39526 12.8298 3.47049 9.81488 5.48499C6.79998 7.49948 4.45015 10.3628 3.06254 13.7127C1.67494 17.0627 1.31187 20.7489 2.01927 24.3053C2.72667 27.8616 4.47275 31.1283 7.03671 33.6922C9.60067 36.2562 12.8674 38.0023 16.4237 38.7097C19.98 39.4171 23.6662 39.054 27.0162 37.6664C30.3662 36.2788 33.2295 33.929 35.2439 30.9141C37.2584 27.8992 38.3337 24.3546 38.3337 20.7286C38.3279 15.8681 36.3946 11.2082 32.9576 7.77131C29.5207 4.33438 24.8609 2.401 20.0003 2.39526ZM27.0703 25.4436C27.2295 25.5973 27.3565 25.7813 27.4438 25.9846C27.5312 26.1879 27.5772 26.4066 27.5791 26.6279C27.581 26.8492 27.5388 27.0687 27.455 27.2735C27.3712 27.4783 27.2475 27.6644 27.091 27.8209C26.9345 27.9774 26.7484 28.1012 26.5436 28.185C26.3388 28.2688 26.1193 28.3109 25.898 28.309C25.6767 28.3071 25.458 28.2611 25.2547 28.1738C25.0513 28.0864 24.8674 27.9594 24.7137 27.8003L20.0003 23.0853L15.287 27.8003C14.9727 28.1039 14.5517 28.2719 14.1147 28.2681C13.6777 28.2643 13.2596 28.089 12.9506 27.78C12.6416 27.4709 12.4663 27.0529 12.4625 26.6159C12.4587 26.1789 12.6267 25.7579 12.9303 25.4436L17.6437 20.7286L12.9303 16.0136C12.7711 15.8599 12.6442 15.6759 12.5568 15.4726C12.4695 15.2693 12.4235 15.0506 12.4216 14.8293C12.4197 14.608 12.4618 14.3885 12.5456 14.1837C12.6294 13.9788 12.7532 13.7928 12.9097 13.6363C13.0662 13.4798 13.2522 13.356 13.4571 13.2722C13.6619 13.1884 13.8814 13.1463 14.1027 13.1482C14.324 13.1501 14.5427 13.1961 14.746 13.2834C14.9493 13.3708 15.1333 13.4977 15.287 13.6569L20.0003 18.3719L24.7137 13.6569C24.8674 13.4977 25.0513 13.3708 25.2547 13.2834C25.458 13.1961 25.6767 13.1501 25.898 13.1482C26.1193 13.1463 26.3388 13.1884 26.5436 13.2722C26.7484 13.356 26.9345 13.4798 27.091 13.6363C27.2475 13.7928 27.3712 13.9788 27.455 14.1837C27.5388 14.3885 27.581 14.608 27.5791 14.8293C27.5772 15.0506 27.5312 15.2693 27.4438 15.4726C27.3565 15.6759 27.2295 15.8599 27.0703 16.0136L22.357 20.7286L27.0703 25.4436Z" fill="#BCA921"/>
</svg>
