<svg width="40" height="41" viewBox="0 0 40 41" fill="none" xmlns="http://www.w3.org/2000/svg">
<g clip-path="url(#clip0_824_763)">
<mask id="mask0_824_763" style="mask-type:luminance" maskUnits="userSpaceOnUse" x="0" y="0" width="40" height="41">
<path d="M0 0.754395H40V40.7544H0V0.754395Z" fill="white"/>
</mask>
<g mask="url(#mask0_824_763)">
<path fill-rule="evenodd" clip-rule="evenodd" d="M21.8991 6.51157V2.93581C21.8991 1.72324 23.3176 1.06527 24.2434 1.84853L32.958 9.22238C33.6302 9.79132 33.6302 10.828 32.958 11.3969L24.2434 18.7709C23.3176 19.554 21.8991 18.896 21.8991 17.6835V14.1078C14.8567 14.1078 11.0788 14.1078 4.5124 19.404C3.87742 19.9162 2.92578 19.4684 2.99802 18.656C4.07761 6.51157 14.6959 6.51157 21.8991 6.51157ZM18.101 34.9973V38.573C18.101 39.7855 16.6824 40.4435 15.7567 39.6604L7.04214 32.2864C6.36976 31.7176 6.36976 30.6807 7.04214 30.112L15.7567 22.738C16.6824 21.9548 18.101 22.6128 18.101 23.8254V27.4011C25.1434 27.4011 28.9214 27.4011 35.4877 22.1048C36.1225 21.5927 37.0743 22.0404 37.002 22.8529C35.9224 34.9973 25.304 34.9973 18.101 34.9973Z" fill="#BCA921"/>
</g>
</g>
<defs>
<clipPath id="clip0_824_763">
<rect width="40" height="40" fill="white" transform="translate(0 0.754395)"/>
</clipPath>
</defs>
</svg>
