<svg width="40" height="41" viewBox="0 0 40 41" fill="none" xmlns="http://www.w3.org/2000/svg">
<path d="M10.0153 11.4032C10.0153 10.0847 10.4063 8.79577 11.1389 7.69944C11.8714 6.60311 12.9126 5.74863 14.1308 5.24405C15.3489 4.73946 16.6894 4.60744 17.9826 4.86467C19.2758 5.12191 20.4637 5.75685 21.396 6.6892C22.3284 7.62155 22.9633 8.80943 23.2206 10.1026C23.4778 11.3958 23.3458 12.7363 22.8412 13.9545C22.3366 15.1726 21.4821 16.2138 20.3858 16.9464C19.2895 17.6789 18.0005 18.0699 16.682 18.0699C14.9139 18.0699 13.2182 17.3675 11.9679 16.1173C10.7177 14.867 10.0153 13.1714 10.0153 11.4032ZM24.3003 23.7199C24.517 23.6532 24.717 23.5866 24.9003 23.5366C25.0101 23.5124 25.1081 23.4512 25.178 23.3631C25.2478 23.2751 25.2851 23.1656 25.2837 23.0532C25.2847 22.9876 25.2718 22.9226 25.246 22.8622C25.2201 22.8019 25.1819 22.7478 25.1337 22.7032C25.0641 22.6546 24.9918 22.6101 24.917 22.5699C23.4092 21.7556 21.7133 21.3531 20.0003 21.4032H13.3337C6.56699 21.4032 4.16699 26.3532 4.16699 30.6032C4.16699 34.4032 6.18366 36.4032 10.0003 36.4032H23.3337C23.5337 36.4032 23.717 36.4032 23.9003 36.3866C24.302 36.3732 24.4503 36.1366 24.4503 35.8866C24.4362 35.7576 24.384 35.6358 24.3003 35.5366C23.1113 33.8754 22.481 31.8793 22.5003 29.8366V26.1199C22.5027 25.5796 22.6791 25.0544 23.0033 24.6221C23.3275 24.1899 23.7823 23.8735 24.3003 23.7199ZM30.7253 23.9032C28.901 24.8444 26.9819 25.5892 25.0003 26.1249V29.8299C25.0567 31.5076 25.6387 33.1252 26.6642 34.4543C27.6896 35.7833 29.1068 36.7566 30.7153 37.2366C32.3236 36.7563 33.7403 35.7829 34.7655 34.4539C35.7906 33.1249 36.3724 31.5074 36.4287 29.8299V26.0282C34.4451 25.5647 32.5286 24.8506 30.7253 23.9032Z" fill="#BCA921"/>
</svg>
