<svg width="40" height="40" viewBox="0 0 40 40" fill="none" xmlns="http://www.w3.org/2000/svg">
<path d="M25.3333 20.0029C25.3333 17.5185 23.6289 15.4505 21.3333 14.8557V25.1449C23.6289 24.5497 25.3333 22.4833 25.3333 20.0029Z" fill="white"/>
<path d="M33.2709 18.874L36.0001 17.4504L35.13 14.2084L32.0557 14.3412C31.7329 13.6512 31.3541 13.0012 30.9285 12.3896L32.5809 9.792L30.208 7.4192L27.6145 9.0676C26.9961 8.6368 26.3425 8.2592 25.6601 7.9388L25.7917 4.87L22.5497 4L21.3333 6.332V12.12C25.1133 12.7568 28.0001 16.0392 28.0001 20.0028C28.0001 23.9648 25.1133 27.2448 21.3333 27.88V33.6692L22.5497 36L25.7917 35.1316L25.6601 32.056C26.3489 31.7344 26.9973 31.3556 27.6081 30.93L30.2057 32.5824L32.5829 30.2084L30.9321 27.6148C31.3629 26.9964 31.7405 26.3428 32.0609 25.6604L35.1297 25.7932L36.0001 22.5496L33.2697 21.1276C33.3321 20.384 33.3361 19.6328 33.2709 18.874Z" fill="white"/>
<path d="M10.7472 30.4248L9.3332 29.0108C9.922 28.422 10.5936 27.9808 11.294 27.6136C11.1004 25.9572 9.7088 24.6672 8 24.6672V22.6672C10.5628 22.6672 12.7004 24.4768 13.2128 26.8872C15.0384 26.472 16.9736 26.7088 18.6668 27.5812V20.2772C16.8252 20.2772 15.3332 21.7692 15.3332 23.6104H13.3332C13.3332 22.7888 13.5348 22.0192 13.8668 21.324C12.9708 20.3904 12.3964 19.2656 12.1488 18.0808C10.152 19.0808 7.666 18.7708 6 17.1044L7.4144 15.6904C8.706 16.982 10.7916 16.9884 12.0948 15.7176C12.3004 14.3584 12.9056 13.0468 13.9528 12L15.3672 13.414C13.6484 15.1316 13.5716 17.8436 15.0912 19.6784C16.0388 18.8164 17.2852 18.2772 18.6668 18.2772V12.6588C18.6628 10.8212 17.1732 9.332 15.334 9.332V7.332C16.602 7.332 17.7512 7.7928 18.6668 8.5324V4.0652C18.4464 4.0364 18.2292 4 18 4C15.3776 4 13.172 5.6924 12.356 8.0364C12.2364 8.026 12.1216 8 11.9996 8C9.7912 8 8 9.7916 8 11.9988C8 12.0624 8.0156 12.12 8.0184 12.1824C5.7128 12.7708 4 14.8436 4 17.332C4 18.7344 4.5528 20 5.4376 20.9532C4.566 21.6864 4 22.7708 4 23.9988C4 25.7708 5.16 27.2568 6.756 27.7824C6.7004 28.0692 6.6668 28.3632 6.6668 28.6652C6.6668 31.2432 8.7568 33.3332 11.3324 33.3332C11.8716 33.3332 12.3808 33.224 12.8628 33.056C13.9096 34.8112 15.8076 36 18 36C18.2292 36 18.4464 35.9636 18.6668 35.9348V29.962C16.3124 28.12 12.9144 28.2568 10.7472 30.4248Z" fill="white"/>
</svg>
