<svg width="40" height="40" viewBox="0 0 40 40" fill="none" xmlns="http://www.w3.org/2000/svg">
<path fill-rule="evenodd" clip-rule="evenodd" d="M8.44686 31.007L11.3586 36.3102C11.789 37.0945 11.5383 38.0844 10.7633 38.532C9.98826 38.9789 8.97186 38.7211 8.54139 37.9367L5.22342 31.893C5.33201 31.8734 5.44061 31.8492 5.5492 31.8203C6.52654 31.5586 7.48045 31.2687 8.44686 31.0078V31.007ZM31.0234 1.25C35.2906 1.25 38.75 3.71094 38.75 6.74609C38.75 9.78125 35.2906 12.2422 31.0234 12.2422C29.5351 12.2422 28.1453 11.943 26.9664 11.4242C26.8375 11.368 26.7 11.3813 26.5844 11.4617L24.1437 13.1758C23.9765 13.293 23.7601 13.1156 23.8422 12.9289L24.9211 10.475C24.9883 10.3211 24.9539 10.15 24.8328 10.0352C23.8687 9.11797 23.2976 7.97969 23.2976 6.74687C23.2976 3.71172 26.757 1.25078 31.0242 1.25078L31.0234 1.25ZM26.5633 26.3078C26.3773 26.2008 26.3125 25.9633 26.4195 25.7766C26.5265 25.5906 26.764 25.5258 26.9508 25.6328L29.9539 27.3664C30.1398 27.4734 30.2047 27.7109 30.0976 27.8977C29.9906 28.0836 29.7531 28.1484 29.5664 28.0414L26.5633 26.3078ZM25.0445 18.5156C24.9367 18.7016 24.6984 18.7656 24.5117 18.6578C24.3258 18.55 24.2617 18.3117 24.3695 18.125L26.1031 15.1219C26.2109 14.9359 26.4492 14.8719 26.6359 14.9797C26.8219 15.0875 26.8859 15.3258 26.7781 15.5125L25.0445 18.5156ZM27.4172 22.0977C27.2094 22.1531 26.9953 22.0297 26.9398 21.8211C26.8844 21.6125 27.0078 21.3992 27.2164 21.3438L30.5656 20.4461C30.7734 20.3906 30.9875 20.5141 31.0429 20.7227C31.0984 20.9305 30.975 21.1445 30.7664 21.2L27.4172 22.0977ZM35.575 5.22266H27.1445C26.9289 5.22266 26.7539 5.39766 26.7539 5.61328C26.7539 5.82891 26.9289 6.00391 27.1445 6.00391H35.575C35.7906 6.00391 35.9656 5.82891 35.9656 5.61328C35.9656 5.39766 35.7906 5.22266 35.575 5.22266ZM27.1445 7.48984C26.9297 7.48984 26.7554 7.66406 26.7554 7.87891C26.7554 8.09375 26.9297 8.26797 27.1445 8.26797L32.7078 8.24922C32.9226 8.24922 33.0969 8.075 33.0969 7.86016C33.0969 7.64531 32.9226 7.47109 32.7078 7.47109L27.1445 7.48984ZM2.70076 5.93516H12.15C12.9492 5.93516 13.6008 6.58672 13.6008 7.38594V13.3305C13.6008 14.1297 12.9492 14.7812 12.15 14.7812H2.70076C1.90154 14.7812 1.24998 14.1297 1.24998 13.3305V7.38594C1.24998 6.58672 1.90154 5.93516 2.70076 5.93516ZM9.31717 10.7984C9.65701 10.6023 9.65701 10.1148 9.31717 9.91875L6.98436 8.57188C6.64451 8.37578 6.22264 8.61953 6.22264 9.01172V11.7055C6.22264 12.0977 6.64451 12.3414 6.98436 12.1453L9.31717 10.7984ZM36.3508 33.0203C36.3508 31.5859 35.282 30.4234 33.9633 30.4234C33.0101 30.4234 32.1875 31.0305 31.8047 31.9086C31.4219 31.0305 30.5992 30.4234 29.6461 30.4234C28.3273 30.4234 27.2586 31.5859 27.2586 33.0203C27.2586 34.6594 30.3492 37.4016 31.4437 38.5867C31.643 38.8023 31.9664 38.8023 32.1656 38.5867C33.2601 37.4023 36.3508 34.6594 36.3508 33.0203ZM18.0367 13.5758C17.3703 13.7547 16.9703 14.4461 17.1492 15.1125L21.8156 32.5266C21.9945 33.193 22.6859 33.593 23.3523 33.4141C24.0187 33.2352 24.4187 32.5438 24.2398 31.8773L19.5734 14.4633C19.3945 13.7969 18.7031 13.3969 18.0367 13.5758ZM9.89686 29.8453C9.67107 29.8937 9.46092 29.9414 9.26248 29.9883L7.54764 23.5883C7.74295 23.5289 7.9492 23.4648 8.16873 23.3945C12.8211 21.8977 15.5179 19.4945 16.9008 17.2023L20.5554 30.843C18.2117 29.5492 14.6742 28.8164 9.89686 29.8461V29.8453ZM8.50467 30.1758L6.79764 23.8047C5.76717 24.0883 4.94295 24.2586 3.61795 24.6141C1.90701 25.0727 0.882793 26.8469 1.37186 28.6734C1.86092 30.4992 3.63592 31.5242 5.34686 31.0656C6.67186 30.7109 7.47107 30.4461 8.50467 30.1766V30.1758ZM22.1406 21.0234L23.2359 21.0328C23.6547 21.0367 24.007 21.3094 24.1156 21.7141L24.5476 23.3258C24.6562 23.7305 24.4875 24.143 24.1265 24.3555L23.1828 24.9117L22.1406 21.0227V21.0234Z" fill="white"/>
</svg>
