<svg width="40" height="40" viewBox="0 0 40 40" fill="none" xmlns="http://www.w3.org/2000/svg">
<path d="M34.25 27.8C34.4 27.5375 34.7063 27.4062 34.9938 27.5L36.4625 27.9813C36.7938 28.0875 37.1438 27.9062 37.25 27.575L38.5 23.75H31.925C30.3375 28.825 25.6 32.5 20 32.5C14.4 32.5 9.6625 28.825 8.075 23.75H1.5L2.75 27.575C2.85625 27.9062 3.20625 28.0875 3.5375 27.9813L5.00625 27.5C5.29375 27.4062 5.6 27.5375 5.75 27.8C6.4125 29.0187 7.23125 30.1438 8.175 31.1438C8.38125 31.3625 8.4125 31.7 8.23125 31.9438L7.325 33.1938C7.11875 33.475 7.18125 33.8625 7.4625 34.0687L10.4938 36.2687C10.775 36.475 11.1688 36.4125 11.3688 36.1313L12.275 34.8813C12.4563 34.6375 12.7813 34.5625 13.0563 34.6875C14.2875 35.275 15.6063 35.7125 16.9813 35.9688C17.2813 36.025 17.5 36.2812 17.5 36.5812V38.125C17.5 38.4688 17.7813 38.75 18.125 38.75H21.875C22.2188 38.75 22.5 38.4688 22.5 38.125V36.5812C22.5 36.2812 22.7188 36.025 23.0188 35.9688C24.3938 35.7125 25.7125 35.275 26.9438 34.6875C27.2188 34.5625 27.5438 34.6375 27.725 34.8813L28.6313 36.1313C28.8313 36.4125 29.225 36.475 29.5063 36.2687L32.5375 34.0687C32.8188 33.8625 32.8813 33.475 32.675 33.1938L31.7688 31.9438C31.5875 31.7 31.6188 31.3625 31.825 31.1438C32.7688 30.1438 33.5875 29.0187 34.25 27.8Z" fill="white"/>
<path d="M0.625 21.25H39.375V22.5H0.625V21.25Z" fill="white"/>
<path d="M1.875 10.625H6.875V20H1.875V10.625Z" fill="white"/>
<path d="M16.875 8.125H23.125V20H16.875V8.125Z" fill="white"/>
<path d="M33.125 11.25H38.125V20H33.125V11.25Z" fill="white"/>
<path d="M24.375 8.125V20H31.875V1.25H24.375V8.125ZM28.75 3.75H30V5H28.75V3.75ZM28.75 6.875H30V8.125H28.75V6.875ZM28.75 10H30V11.25H28.75V10ZM26.25 3.75H27.5V5H26.25V3.75ZM26.25 6.875H27.5V8.125H26.25V6.875ZM26.25 10H27.5V11.25H26.25V10Z" fill="white"/>
<path d="M8.125 20H15.625V5L11.875 1.875L8.125 5V20ZM10 6.25H13.75V7.5H10V6.25ZM10 9.375H13.75V10.625H10V9.375Z" fill="white"/>
</svg>
