<svg width="40" height="40" viewBox="0 0 40 40" fill="none" xmlns="http://www.w3.org/2000/svg">
<path d="M18.2221 36.7898C18.1269 37.122 17.7814 37.3124 17.4492 37.2172C17.117 37.1198 16.9266 36.7743 17.0218 36.4421C17.1192 36.1121 17.4647 35.9195 17.7969 36.0169C18.1269 36.1121 18.3195 36.4576 18.222 36.7898H18.2221ZM22.2039 3.9854C22.5361 4.08063 22.8816 3.89017 22.979 3.55798C23.0742 3.22579 22.8838 2.88032 22.5516 2.7829C22.2194 2.68767 21.8739 2.87813 21.7787 3.21032C21.6813 3.54251 21.8717 3.88798 22.2039 3.9854ZM15.6592 35.5698C8.69961 33.6324 3.83899 27.2303 3.83899 20.0011C3.83899 11.6251 10.2441 4.71759 18.4136 3.91767L17.9839 4.34735C17.7398 4.59142 17.7398 4.98712 17.9839 5.23118C18.1059 5.35321 18.2659 5.41423 18.4259 5.41423C18.5859 5.41423 18.7458 5.35321 18.8678 5.23118L20.4423 3.65665C20.6864 3.41259 20.6864 3.01688 20.4423 2.77282L18.8678 1.19821C18.6238 0.95415 18.2281 0.954072 17.9839 1.19821C17.7398 1.44228 17.7398 1.83798 17.9839 2.08204L18.5523 2.6504C9.62664 3.38892 2.58899 10.8881 2.58899 20.0011C2.58899 23.8813 3.8386 27.5529 6.20282 30.6191C8.49211 33.588 11.7314 35.7738 15.324 36.774C15.3801 36.7896 15.4364 36.797 15.492 36.797C15.7655 36.797 16.0167 36.6159 16.0937 36.3395C16.1863 36.007 15.9917 35.6624 15.6591 35.5698H15.6592ZM22.2908 35.9983C22.0577 36.0315 21.823 36.059 21.5876 36.082L22.017 35.6527C22.261 35.4086 22.261 35.0129 22.017 34.7688C21.7728 34.5248 21.3772 34.5248 21.133 34.7688L19.5585 36.3434C19.3145 36.5874 19.3145 36.9831 19.5585 37.2272L21.133 38.8017C21.2551 38.9238 21.415 38.9848 21.575 38.9848C21.735 38.9848 21.8949 38.9238 22.017 38.8017C22.261 38.5577 22.261 38.162 22.017 37.9179L21.4487 37.3496C21.7899 37.3213 22.1299 37.2837 22.467 37.2357C22.8088 37.187 23.0463 36.8706 22.9977 36.5288C22.949 36.1871 22.6322 35.9491 22.2908 35.9982V35.9983ZM20.8598 19.7423V17.8317C20.8598 17.4866 20.58 17.2067 20.2348 17.2067C19.8897 17.2067 19.6098 17.4866 19.6098 17.8317V20.0011C19.6098 20.1669 19.6757 20.3259 19.7929 20.4431L20.7107 21.3609C20.8327 21.4829 20.9927 21.5439 21.1527 21.5439C21.3127 21.5439 21.4726 21.4829 21.5946 21.3609C21.8387 21.1168 21.8387 20.7211 21.5946 20.477L20.8598 19.7423ZM27.1343 31.6161C27.1343 30.8407 26.5035 30.2099 25.7282 30.2099C25.6991 30.2099 25.6705 30.2124 25.6419 30.2142L24.6974 28.5813C24.5857 28.3881 24.3795 28.2691 24.1564 28.2691H20.2348C15.6746 28.2691 11.9645 24.5601 11.9645 20.001C11.9645 15.442 15.6746 11.7307 20.2348 11.7307H24.1564C24.3795 11.7307 24.5857 11.6118 24.6974 11.4186L25.6419 9.78563C25.6706 9.78735 25.6991 9.79001 25.7282 9.79001C26.5035 9.79001 27.1343 9.15923 27.1343 8.38384C27.1343 7.60845 26.5035 6.97985 25.7282 6.97985C24.9529 6.97985 24.322 7.6097 24.322 8.38384C24.322 8.67173 24.4092 8.93946 24.5582 9.16259L23.7959 10.4807H20.5473V6.94649C20.5473 6.77392 20.4073 6.63399 20.2348 6.63399H18.557C18.435 6.63399 18.3243 6.70485 18.2732 6.81548L17.1159 9.32267L14.8905 10.2439L12.2991 9.28938C12.1845 9.24728 12.0562 9.27556 11.9699 9.36173L9.59758 11.7363C9.51141 11.8226 9.48329 11.9509 9.52547 12.0652L10.4798 14.6543L9.55657 16.8819L7.05172 18.0371C6.94094 18.0882 6.87008 18.199 6.87008 18.3209V21.6786C6.87008 21.8005 6.94086 21.9112 7.05149 21.9623L9.55657 23.1198L10.4798 25.3452L9.52547 27.9343C9.48329 28.0486 9.51141 28.177 9.59758 28.2632L11.9699 30.6378C12.056 30.7241 12.1842 30.7524 12.2991 30.7102L14.8905 29.7556L17.1159 30.6769L18.2732 33.184C18.3243 33.2946 18.435 33.3655 18.557 33.3655H20.2348C20.4073 33.3655 20.5473 33.2256 20.5473 33.053V29.5188H23.7958L24.5582 30.837C24.4092 31.0601 24.322 31.3278 24.322 31.6157C24.322 32.3899 24.9528 33.0197 25.7282 33.0197C26.5036 33.0197 27.1343 32.3899 27.1343 31.6157V31.6161ZM31.4551 27.2805C31.4551 28.0559 30.8242 28.6867 30.0488 28.6867C29.2734 28.6867 28.6427 28.0559 28.6427 27.2805C28.6427 26.9932 28.7298 26.726 28.8787 26.5033L27.6607 24.3943H25.7052C24.4173 25.9937 22.4438 27.0192 20.2348 27.0192C16.3638 27.0192 13.2145 23.8709 13.2145 20.0011C13.2145 16.1313 16.3638 12.9808 20.2348 12.9808C22.4434 12.9808 24.4166 14.0063 25.7045 15.6057H27.6607L28.8787 13.4967C28.7298 13.274 28.6427 13.0069 28.6427 12.7196C28.6427 11.9442 29.2734 11.3134 30.0488 11.3134C30.8242 11.3134 31.4551 11.9442 31.4551 12.7196C31.4551 13.495 30.8242 14.1235 30.0488 14.1235C30.0198 14.1235 29.9914 14.1209 29.9627 14.1192L28.5627 16.5433C28.451 16.7367 28.2448 16.8557 28.0215 16.8557H26.5098C26.8974 17.626 27.1473 18.477 27.227 19.3762H30.9376C31.1678 18.914 31.6435 18.5949 32.1934 18.5949C32.9688 18.5949 33.5995 19.2258 33.5995 20.0012C33.5995 20.7766 32.9688 21.4052 32.1934 21.4052C31.6439 21.4052 31.1685 21.0871 30.938 20.6262H27.227C27.1473 21.5245 26.8977 22.3747 26.5104 23.1444H28.0215C28.2447 23.1444 28.451 23.2634 28.5627 23.4568L29.9627 25.8809C29.9913 25.8792 30.0197 25.8765 30.0488 25.8765C30.8241 25.8765 31.455 26.5063 31.455 27.2805H31.4551ZM26.0052 20.0012C26.0052 16.8194 23.4166 14.2309 20.2348 14.2309C17.0531 14.2309 14.4645 16.8195 14.4645 20.0012C14.4645 23.1829 17.0531 25.7693 20.2348 25.7693C23.4166 25.7693 26.0052 23.1817 26.0052 20.0012ZM20.2213 15.9737C20.5731 15.9737 20.8595 15.6873 20.8595 15.3377C20.8595 14.9859 20.5731 14.6995 20.2213 14.6995C19.8717 14.6995 19.5854 14.9859 19.5854 15.3377C19.5854 15.6873 19.8717 15.9737 20.2213 15.9737ZM17.3777 17.1621C17.6258 16.9141 17.6258 16.5104 17.3777 16.2624C17.1297 16.012 16.726 16.012 16.478 16.2624C16.2299 16.5104 16.2299 16.9141 16.478 17.1621C16.726 17.4102 17.1297 17.4102 17.3777 17.1621ZM15.5714 19.3766C15.2197 19.3766 14.9355 19.6607 14.9355 20.0125C14.9355 20.3643 15.2196 20.6484 15.5714 20.6484C15.9232 20.6484 16.2073 20.3643 16.2073 20.0125C16.2073 19.6607 15.9232 19.3766 15.5714 19.3766ZM16.496 22.8561C16.248 23.1064 16.248 23.5078 16.496 23.7559C16.7441 24.0062 17.1477 24.0062 17.3958 23.7559C17.6438 23.5078 17.6438 23.1064 17.3958 22.8561C17.1477 22.6081 16.7441 22.6081 16.496 22.8561ZM20.2484 24.0265C19.8966 24.0265 19.6102 24.3129 19.6102 24.6647C19.6102 25.0165 19.8966 25.3006 20.2484 25.3006C20.598 25.3006 20.8844 25.0165 20.8844 24.6647C20.8844 24.3129 20.598 24.0265 20.2484 24.0265ZM23.092 22.8381C23.0891 22.841 23.0866 22.8444 23.0837 22.8474C23.0805 22.8505 23.0772 22.8531 23.0741 22.8561C22.826 23.1064 22.826 23.5078 23.0741 23.7581C23.322 24.0062 23.7257 24.0062 23.9738 23.7581C23.9768 23.7552 23.9792 23.752 23.982 23.749C23.9852 23.7459 23.9887 23.7433 23.9918 23.7401C24.2398 23.4898 24.2398 23.0884 23.9918 22.8381C23.7438 22.59 23.3401 22.59 23.092 22.8381ZM24.8984 19.3517C24.5466 19.3517 24.2624 19.6359 24.2624 19.9877C24.2624 20.3395 24.5466 20.6236 24.8984 20.6236C25.2502 20.6236 25.5343 20.3395 25.5343 19.9877C25.5343 19.6359 25.2502 19.3517 24.8984 19.3517ZM23.9738 17.144C24.2219 16.8959 24.2219 16.4923 23.9738 16.2442C23.7258 15.9939 23.3221 15.9939 23.0741 16.2442C22.826 16.4923 22.826 16.8959 23.0741 17.144C23.322 17.392 23.7257 17.392 23.9738 17.144ZM36.8734 19.381C36.5301 19.3323 36.2156 19.5715 36.167 19.9125C36.1182 20.2558 36.3574 20.5702 36.6984 20.619C37.0417 20.6677 37.3562 20.4285 37.4048 20.0875C37.4536 19.7442 37.2144 19.4298 36.8734 19.381ZM36.0185 17.8198C36.0163 18.1652 36.2931 18.4487 36.6386 18.4509C36.9841 18.4554 37.2653 18.1763 37.2698 17.8331C37.272 17.4876 36.9952 17.2042 36.6497 17.2019C36.3064 17.1974 36.023 17.4743 36.0185 17.8198ZM35.6022 15.7647C35.6443 16.1057 35.9543 16.3516 36.2976 16.3095C36.6409 16.2674 36.8845 15.9574 36.8423 15.6141C36.8025 15.2708 36.4902 15.0272 36.147 15.0693C35.8059 15.1091 35.5601 15.4214 35.6022 15.7647ZM34.9223 13.7782C35.0087 14.1126 35.3475 14.3163 35.682 14.23C36.0163 14.1436 36.2179 13.8048 36.1338 13.4704C36.0474 13.136 35.7086 12.9323 35.3741 13.0186C35.0397 13.1049 34.836 13.4438 34.9223 13.7782ZM33.99 11.8981C34.1184 12.2192 34.4816 12.3764 34.8027 12.248C35.1238 12.1195 35.2789 11.7563 35.1527 11.4352C35.0242 11.1142 34.6611 10.9592 34.3399 11.0876C34.0188 11.2138 33.8638 11.5792 33.99 11.8981V11.8981ZM33.6734 10.3966C33.9745 10.226 34.083 9.84735 33.9148 9.54399C33.7464 9.24282 33.3655 9.13649 33.0644 9.30485C32.7632 9.47313 32.6547 9.85407 32.823 10.1552C32.9913 10.4564 33.3722 10.5649 33.6734 10.3966ZM32.3159 8.70462C32.5927 8.49868 32.6502 8.10892 32.4443 7.82985C32.2384 7.55306 31.8464 7.49767 31.5695 7.7036C31.2927 7.90954 31.2352 8.29931 31.4411 8.5761C31.647 8.85517 32.039 8.91056 32.3159 8.70462ZM30.748 7.20532C30.996 6.96618 31.0027 6.56978 30.7634 6.32173C30.522 6.07368 30.1256 6.06704 29.8798 6.30845C29.6318 6.54759 29.6252 6.94399 29.8644 7.19204C30.1057 7.44009 30.4999 7.44673 30.748 7.20532ZM28.1237 6.02274C28.3938 6.23759 28.7859 6.19103 29.0007 5.92087C29.2155 5.65071 29.1713 5.25868 28.901 5.04392C28.6309 4.82907 28.2366 4.87337 28.0219 5.1436C27.807 5.41376 27.8536 5.80798 28.1238 6.02282L28.1237 6.02274ZM26.2435 5.08821C26.5402 5.2654 26.9234 5.17017 27.1028 4.87337C27.28 4.57884 27.1848 4.19353 26.888 4.01634C26.5934 3.83915 26.208 3.93438 26.0309 4.23118C25.8538 4.52571 25.949 4.91103 26.2435 5.08821ZM24.2593 4.40392C24.576 4.54345 24.9459 4.39728 25.0831 4.08282C25.2204 3.76618 25.0765 3.39634 24.7598 3.25899C24.4431 3.12173 24.0755 3.26563 23.9381 3.58235C23.7986 3.89899 23.9448 4.26665 24.2592 4.40399L24.2593 4.40392ZM36.6388 21.5491C36.2933 21.5535 36.0165 21.8348 36.0187 22.1802C36.0231 22.5257 36.3066 22.8025 36.6498 22.7981C36.9953 22.7959 37.2721 22.5124 37.2699 22.1692C37.2655 21.8238 36.9842 21.547 36.6388 21.5492V21.5491ZM36.2977 23.6906C35.9545 23.6507 35.6445 23.8943 35.6023 24.2376C35.5602 24.5786 35.8061 24.8909 36.1471 24.933C36.4904 24.9728 36.8027 24.7292 36.8425 24.3859C36.8846 24.0449 36.6409 23.7327 36.2977 23.6906ZM35.6821 25.77C35.3477 25.6859 35.0089 25.8874 34.9225 26.2218C34.8362 26.5562 35.0398 26.8973 35.3743 26.9814C35.7087 27.0678 36.0475 26.8663 36.1339 26.5319C36.218 26.1975 36.0166 25.8564 35.6821 25.7701V25.77ZM34.803 27.752C34.4819 27.6258 34.1187 27.7809 33.9902 28.102C33.864 28.4231 34.0191 28.7863 34.3402 28.9147C34.6613 29.0409 35.0245 28.8859 35.1529 28.5648C35.2791 28.2437 35.1241 27.8805 34.803 27.752ZM33.6735 29.6056C33.3723 29.4374 32.9914 29.5436 32.8231 29.8448C32.6548 30.1459 32.7634 30.5269 33.0645 30.6952C33.3657 30.8634 33.7466 30.7572 33.9149 30.456C34.0832 30.1549 33.9747 29.7739 33.6735 29.6056ZM32.316 31.2953C32.0392 31.0894 31.6472 31.147 31.4413 31.4238C31.2353 31.7006 31.2929 32.0926 31.5697 32.2985C31.8465 32.5045 32.2385 32.4469 32.4445 32.1701C32.6504 31.8933 32.5928 31.5013 32.316 31.2953ZM29.8645 32.8079C29.6253 33.0559 29.632 33.4524 29.88 33.6915C30.1258 33.9329 30.5222 33.9263 30.7636 33.6782C31.0028 33.4302 30.9962 33.036 30.7481 32.7946C30.5001 32.5555 30.1059 32.5599 29.8645 32.8079ZM28.1238 33.9794C27.8537 34.192 27.8072 34.5862 28.022 34.8563C28.2368 35.1265 28.6309 35.1708 28.9011 34.956C29.1713 34.7435 29.2155 34.3492 29.0008 34.0791C28.7859 33.8089 28.3941 33.7646 28.1238 33.9794ZM26.2437 34.9117C25.9491 35.0911 25.8539 35.4742 26.0311 35.771C26.2083 36.0655 26.5936 36.1607 26.8881 35.9835C27.1848 35.8063 27.2801 35.421 27.103 35.1265C26.9236 34.8298 26.5405 34.7345 26.2437 34.9117V34.9117ZM24.2595 35.596C23.945 35.7334 23.7988 36.1031 23.9384 36.4177C24.0757 36.7344 24.4433 36.8783 24.76 36.741C25.0767 36.6037 25.2206 36.2339 25.0834 35.9194C24.9461 35.6027 24.5763 35.4566 24.2595 35.596H24.2595Z" fill="white"/>
</svg>
