<svg width="40" height="40" viewBox="0 0 40 40" fill="none" xmlns="http://www.w3.org/2000/svg">
<path d="M0.416687 25H39.5834V28.3958C39.5834 28.8379 39.4078 29.2618 39.0952 29.5743C38.7826 29.8869 38.3587 30.0625 37.9167 30.0625H2.08335C1.64133 30.0625 1.2174 29.8869 0.904842 29.5743C0.592282 29.2618 0.416687 28.8379 0.416687 28.3958V25Z" fill="white"/>
<path d="M4.50419 21.483C4.41702 21.4838 4.33204 21.5104 4.25996 21.5595C4.18787 21.6085 4.13191 21.6777 4.09912 21.7585C4.06633 21.8393 4.05818 21.928 4.07569 22.0134C4.0932 22.0988 4.13559 22.1771 4.19752 22.2384C4.25945 22.2998 4.33815 22.3414 4.42371 22.3581C4.50927 22.3748 4.59786 22.3659 4.67832 22.3323C4.75878 22.2988 4.82752 22.2422 4.87587 22.1696C4.92422 22.0971 4.95002 22.0119 4.95002 21.9247C4.95002 21.8663 4.93846 21.8085 4.91601 21.7547C4.89355 21.7008 4.86064 21.652 4.81919 21.6109C4.77773 21.5698 4.72855 21.5374 4.67449 21.5154C4.62042 21.4935 4.56254 21.4825 4.50419 21.483ZM4.50419 18.4705C4.41601 18.4705 4.32981 18.4967 4.2565 18.5456C4.18318 18.5946 4.12604 18.6643 4.09229 18.7457C4.05855 18.8272 4.04972 18.9168 4.06692 19.0033C4.08412 19.0898 4.12658 19.1692 4.18894 19.2316C4.25129 19.2939 4.33073 19.3364 4.41721 19.3536C4.50369 19.3708 4.59333 19.362 4.6748 19.3282C4.75627 19.2945 4.8259 19.2374 4.87488 19.164C4.92387 19.0907 4.95002 19.0045 4.95002 18.9163C4.95002 18.7981 4.90305 18.6847 4.81944 18.6011C4.73583 18.5175 4.62243 18.4705 4.50419 18.4705ZM4.50419 18.4705C4.41601 18.4705 4.32981 18.4967 4.2565 18.5456C4.18318 18.5946 4.12604 18.6643 4.09229 18.7457C4.05855 18.8272 4.04972 18.9168 4.06692 19.0033C4.08412 19.0898 4.12658 19.1692 4.18894 19.2316C4.25129 19.2939 4.33073 19.3364 4.41721 19.3536C4.50369 19.3708 4.59333 19.362 4.6748 19.3282C4.75627 19.2945 4.8259 19.2374 4.87488 19.164C4.92387 19.0907 4.95002 19.0045 4.95002 18.9163C4.95002 18.7981 4.90305 18.6847 4.81944 18.6011C4.73583 18.5175 4.62243 18.4705 4.50419 18.4705ZM4.50419 21.483C4.41702 21.4838 4.33204 21.5104 4.25996 21.5595C4.18787 21.6085 4.13191 21.6777 4.09912 21.7585C4.06633 21.8393 4.05818 21.928 4.07569 22.0134C4.0932 22.0988 4.13559 22.1771 4.19752 22.2384C4.25945 22.2998 4.33815 22.3414 4.42371 22.3581C4.50927 22.3748 4.59786 22.3659 4.67832 22.3323C4.75878 22.2988 4.82752 22.2422 4.87587 22.1696C4.92422 22.0971 4.95002 22.0119 4.95002 21.9247C4.95002 21.8663 4.93846 21.8085 4.91601 21.7547C4.89355 21.7008 4.86064 21.652 4.81919 21.6109C4.77773 21.5698 4.72855 21.5374 4.67449 21.5154C4.62042 21.4935 4.56254 21.4825 4.50419 21.483ZM37.9167 3.08301H36.2917C36.2503 3.44469 36.0889 3.78208 35.8334 4.04134C34.725 5.15801 36.6667 3.20801 23.9417 15.9372L28.4584 21.9247H10L19.2292 9.71634L21.25 12.4122L30.5959 3.08301H2.08335C1.64133 3.08301 1.2174 3.2586 0.904842 3.57116C0.592282 3.88372 0.416687 4.30765 0.416687 4.74967V24.1663H39.5834V4.74134C39.5812 4.30076 39.4046 3.87897 39.0923 3.56821C38.7799 3.25745 38.3573 3.083 37.9167 3.08301ZM14.0834 5.41634H24.375C24.4855 5.41634 24.5915 5.46024 24.6696 5.53838C24.7478 5.61652 24.7917 5.7225 24.7917 5.83301C24.7917 5.94351 24.7478 6.0495 24.6696 6.12764C24.5915 6.20578 24.4855 6.24967 24.375 6.24967H14.0834C13.9728 6.24967 13.8669 6.20578 13.7887 6.12764C13.7106 6.0495 13.6667 5.94351 13.6667 5.83301C13.6667 5.7225 13.7106 5.61652 13.7887 5.53838C13.8669 5.46024 13.9728 5.41634 14.0834 5.41634ZM4.50002 23.1872C4.24803 23.1864 4.00193 23.1109 3.79281 22.9703C3.58368 22.8297 3.42091 22.6303 3.32505 22.3972C3.22919 22.1642 3.20453 21.9079 3.2542 21.6609C3.30386 21.4138 3.42562 21.187 3.6041 21.0091C3.78257 20.8313 4.00976 20.7102 4.25698 20.6614C4.50419 20.6125 4.76033 20.638 4.99307 20.7346C5.2258 20.8313 5.42468 20.9947 5.5646 21.2043C5.70451 21.4138 5.77919 21.6602 5.77919 21.9122C5.78084 22.0807 5.74908 22.2478 5.68575 22.4039C5.62241 22.5601 5.52876 22.7021 5.4102 22.8218C5.29164 22.9415 5.15052 23.0366 4.99501 23.1014C4.8395 23.1663 4.67268 23.1997 4.50419 23.1997L4.50002 23.1872ZM4.50002 20.1788C4.24685 20.1788 3.99937 20.1037 3.78892 19.963C3.57848 19.8222 3.41452 19.6222 3.31783 19.3882C3.22114 19.1542 3.19605 18.8968 3.24575 18.6486C3.29544 18.4003 3.41769 18.1724 3.597 17.9937C3.77631 17.815 4.00462 17.6935 4.25303 17.6446C4.50144 17.5957 4.75877 17.6216 4.99243 17.7191C5.22609 17.8165 5.42558 17.9811 5.56564 18.192C5.70569 18.4029 5.78001 18.6507 5.77919 18.9038C5.78028 19.0722 5.74815 19.2391 5.68461 19.395C5.62108 19.5508 5.52741 19.6927 5.40896 19.8123C5.29051 19.9319 5.14961 20.0269 4.99435 20.092C4.83909 20.157 4.67252 20.1908 4.50419 20.1913L4.50002 20.1788ZM9.47919 15.5372C9.47919 15.7173 9.40763 15.8901 9.28026 16.0174C9.1529 16.1448 8.98015 16.2163 8.80002 16.2163H4.32085C4.14145 16.2152 3.96977 16.1432 3.8433 16.016C3.71683 15.8887 3.64585 15.7166 3.64585 15.5372V14.1955C3.64585 14.0161 3.71683 13.844 3.8433 13.7167C3.96977 13.5895 4.14145 13.5174 4.32085 13.5163H8.80002C8.98015 13.5163 9.1529 13.5879 9.28026 13.7153C9.40763 13.8426 9.47919 14.0154 9.47919 14.1955V15.5372ZM9.47919 10.9997C9.47591 11.1776 9.40291 11.3472 9.2759 11.4719C9.14888 11.5965 8.978 11.6664 8.80002 11.6663H4.32085C4.14359 11.6653 3.97377 11.595 3.84765 11.4704C3.72154 11.3458 3.64911 11.1769 3.64585 10.9997V6.52051C3.64475 6.43097 3.66137 6.3421 3.69475 6.259C3.72813 6.17591 3.77761 6.10024 3.84034 6.03634C3.90307 5.97245 3.97783 5.92159 4.06029 5.88669C4.14276 5.8518 4.23131 5.83355 4.32085 5.83301H8.80002C8.97943 5.833 9.15155 5.90399 9.2788 6.03046C9.40605 6.15692 9.47809 6.3286 9.47919 6.50801V10.9997ZM36.8 21.2497C36.8 21.4291 36.729 21.6012 36.6026 21.7285C36.4761 21.8557 36.3044 21.9277 36.125 21.9288H31.6667C31.5758 21.9316 31.4852 21.9161 31.4004 21.8832C31.3156 21.8504 31.2382 21.8008 31.1729 21.7374C31.1076 21.6741 31.0557 21.5983 31.0203 21.5145C30.9849 21.4307 30.9666 21.3406 30.9667 21.2497V11.5663C30.9666 11.4754 30.9849 11.3853 31.0203 11.3015C31.0557 11.2177 31.1076 11.1419 31.1729 11.0786C31.2382 11.0152 31.3156 10.9656 31.4004 10.9328C31.4852 10.8999 31.5758 10.8844 31.6667 10.8872H36.125C36.3044 10.8883 36.4761 10.9603 36.6026 11.0876C36.729 11.2148 36.8 11.3869 36.8 11.5663V21.2497ZM4.50419 18.4705C4.41601 18.4705 4.32981 18.4967 4.2565 18.5456C4.18318 18.5946 4.12604 18.6643 4.09229 18.7457C4.05855 18.8272 4.04972 18.9168 4.06692 19.0033C4.08412 19.0898 4.12658 19.1692 4.18894 19.2316C4.25129 19.2939 4.33073 19.3364 4.41721 19.3536C4.50369 19.3708 4.59333 19.362 4.6748 19.3282C4.75627 19.2945 4.8259 19.2374 4.87488 19.164C4.92387 19.0907 4.95002 19.0045 4.95002 18.9163C4.95002 18.7981 4.90305 18.6847 4.81944 18.6011C4.73583 18.5175 4.62243 18.4705 4.50419 18.4705ZM4.50419 21.483C4.41702 21.4838 4.33204 21.5104 4.25996 21.5595C4.18787 21.6085 4.13191 21.6777 4.09912 21.7585C4.06633 21.8393 4.05818 21.928 4.07569 22.0134C4.0932 22.0988 4.13559 22.1771 4.19752 22.2384C4.25945 22.2998 4.33815 22.3414 4.42371 22.3581C4.50927 22.3748 4.59786 22.3659 4.67832 22.3323C4.75878 22.2988 4.82752 22.2422 4.87587 22.1696C4.92422 22.0971 4.95002 22.0119 4.95002 21.9247C4.95002 21.8663 4.93846 21.8085 4.91601 21.7547C4.89355 21.7008 4.86064 21.652 4.81919 21.6109C4.77773 21.5698 4.72855 21.5374 4.67449 21.5154C4.62042 21.4935 4.56254 21.4825 4.50419 21.483ZM4.50419 21.483C4.41702 21.4838 4.33204 21.5104 4.25996 21.5595C4.18787 21.6085 4.13191 21.6777 4.09912 21.7585C4.06633 21.8393 4.05818 21.928 4.07569 22.0134C4.0932 22.0988 4.13559 22.1771 4.19752 22.2384C4.25945 22.2998 4.33815 22.3414 4.42371 22.3581C4.50927 22.3748 4.59786 22.3659 4.67832 22.3323C4.75878 22.2988 4.82752 22.2422 4.87587 22.1696C4.92422 22.0971 4.95002 22.0119 4.95002 21.9247C4.95002 21.8663 4.93846 21.8085 4.91601 21.7547C4.89355 21.7008 4.86064 21.652 4.81919 21.6109C4.77773 21.5698 4.72855 21.5374 4.67449 21.5154C4.62042 21.4935 4.56254 21.4825 4.50419 21.483ZM4.50419 21.483C4.41702 21.4838 4.33204 21.5104 4.25996 21.5595C4.18787 21.6085 4.13191 21.6777 4.09912 21.7585C4.06633 21.8393 4.05818 21.928 4.07569 22.0134C4.0932 22.0988 4.13559 22.1771 4.19752 22.2384C4.25945 22.2998 4.33815 22.3414 4.42371 22.3581C4.50927 22.3748 4.59786 22.3659 4.67832 22.3323C4.75878 22.2988 4.82752 22.2422 4.87587 22.1696C4.92422 22.0971 4.95002 22.0119 4.95002 21.9247C4.95002 21.8663 4.93846 21.8085 4.91601 21.7547C4.89355 21.7008 4.86064 21.652 4.81919 21.6109C4.77773 21.5698 4.72855 21.5374 4.67449 21.5154C4.62042 21.4935 4.56254 21.4825 4.50419 21.483Z" fill="white"/>
<path d="M7.75835 7.83724H5.36668C5.25617 7.83724 5.15019 7.79334 5.07205 7.7152C4.99391 7.63706 4.95001 7.53108 4.95001 7.42057C4.95001 7.31007 4.99391 7.20409 5.07205 7.12595C5.15019 7.04781 5.25617 7.00391 5.36668 7.00391H7.75835C7.86885 7.00391 7.97483 7.04781 8.05297 7.12595C8.13111 7.20409 8.17501 7.31007 8.17501 7.42057C8.17501 7.53108 8.13111 7.63706 8.05297 7.7152C7.97483 7.79334 7.86885 7.83724 7.75835 7.83724Z" fill="white"/>
<path d="M7.75835 9.16634H5.36668C5.25617 9.16634 5.15019 9.12244 5.07205 9.0443C4.99391 8.96616 4.95001 8.86018 4.95001 8.74967C4.95001 8.63917 4.99391 8.53319 5.07205 8.45505C5.15019 8.37691 5.25617 8.33301 5.36668 8.33301H7.75835C7.86885 8.33301 7.97483 8.37691 8.05297 8.45505C8.13111 8.53319 8.17501 8.63917 8.17501 8.74967C8.17501 8.86018 8.13111 8.96616 8.05297 9.0443C7.97483 9.12244 7.86885 9.16634 7.75835 9.16634Z" fill="white"/>
<path d="M7.75835 10.5208H5.36668C5.25617 10.5208 5.15019 10.4769 5.07205 10.3988C4.99391 10.3207 4.95001 10.2147 4.95001 10.1042C4.95001 9.99366 4.99391 9.88768 5.07205 9.80954C5.15019 9.7314 5.25617 9.6875 5.36668 9.6875H7.75835C7.86885 9.6875 7.97483 9.7314 8.05297 9.80954C8.13111 9.88768 8.17501 9.99366 8.17501 10.1042C8.17501 10.2147 8.13111 10.3207 8.05297 10.3988C7.97483 10.4769 7.86885 10.5208 7.75835 10.5208Z" fill="white"/>
<path d="M12.5458 30.8955H27.4542V34.983H12.5458V30.8955Z" fill="white"/>
<path d="M7.26251 35.8164H32.7375V38.6914H7.26251V35.8164Z" fill="white"/>
<path d="M21.2084 13.6538L23.1209 15.5705L22.1542 16.5371L20.2375 14.6246L21.2084 13.6538Z" fill="white"/>
<path d="M28.6436 6.21338L31.9636 2.89343L33.8813 4.81116L30.5614 8.13112L28.6436 6.21338Z" fill="white"/>
<path d="M21.2417 16.804L19.4375 17.3374L19.9708 15.5332L21.2417 16.804Z" fill="white"/>
<path d="M28.0583 6.8042L21.8083 13.0542L23.7125 15L29.9625 8.75003L28.0583 6.8042ZM27.9167 9.4542L24.4458 12.9167C24.3682 12.9937 24.2635 13.0371 24.1542 13.0375C24.0723 13.0372 23.9923 13.0127 23.9242 12.9672C23.8561 12.9216 23.803 12.857 23.7714 12.7814C23.7399 12.7059 23.7313 12.6227 23.7467 12.5422C23.7622 12.4618 23.801 12.3877 23.8583 12.3292L27.3208 8.8667C27.3594 8.82758 27.4053 8.79643 27.4559 8.77505C27.5066 8.75367 27.5609 8.74246 27.6158 8.74208C27.6708 8.74169 27.7252 8.75213 27.7761 8.7728C27.8271 8.79346 27.8734 8.82396 27.9125 8.86253C27.9516 8.90111 27.9828 8.94701 28.0042 8.99762C28.0255 9.04823 28.0368 9.10256 28.0371 9.1575C28.0375 9.21244 28.0271 9.26692 28.0064 9.31783C27.9857 9.36874 27.9553 9.41508 27.9167 9.4542Z" fill="white"/>
<path d="M35.2375 3.45397L34.475 4.22063L32.5583 2.30397L33.3333 1.5373C33.4831 1.38921 33.6852 1.30615 33.8958 1.30615C34.1065 1.30615 34.3086 1.38921 34.4583 1.5373L35.25 2.32897C35.3965 2.48037 35.4773 2.68341 35.4749 2.89403C35.4726 3.10466 35.3873 3.30586 35.2375 3.45397Z" fill="white"/>
<path d="M35.175 12.9163H32.5959C32.4854 12.9163 32.3794 12.8724 32.3012 12.7943C32.2231 12.7162 32.1792 12.6102 32.1792 12.4997C32.1792 12.3892 32.2231 12.2832 32.3012 12.205C32.3794 12.1269 32.4854 12.083 32.5959 12.083H35.175C35.2855 12.083 35.3915 12.1269 35.4697 12.205C35.5478 12.2832 35.5917 12.3892 35.5917 12.4997C35.5917 12.6102 35.5478 12.7162 35.4697 12.7943C35.3915 12.8724 35.2855 12.9163 35.175 12.9163Z" fill="white"/>
<path d="M35.175 14.4788H32.5959C32.4854 14.4788 32.3794 14.4349 32.3012 14.3568C32.2231 14.2787 32.1792 14.1727 32.1792 14.0622C32.1792 13.9517 32.2231 13.8457 32.3012 13.7675C32.3794 13.6894 32.4854 13.6455 32.5959 13.6455H35.175C35.2855 13.6455 35.3915 13.6894 35.4697 13.7675C35.5478 13.8457 35.5917 13.9517 35.5917 14.0622C35.5917 14.1727 35.5478 14.2787 35.4697 14.3568C35.3915 14.4349 35.2855 14.4788 35.175 14.4788Z" fill="white"/>
<path d="M35.175 16.0413H32.5959C32.4854 16.0413 32.3794 15.9974 32.3012 15.9193C32.2231 15.8412 32.1792 15.7352 32.1792 15.6247C32.1792 15.5142 32.2231 15.4082 32.3012 15.33C32.3794 15.2519 32.4854 15.208 32.5959 15.208H35.175C35.2855 15.208 35.3915 15.2519 35.4697 15.33C35.5478 15.4082 35.5917 15.5142 35.5917 15.6247C35.5917 15.7352 35.5478 15.8412 35.4697 15.9193C35.3915 15.9974 35.2855 16.0413 35.175 16.0413Z" fill="white"/>
<path d="M35.175 17.6038H32.5959C32.4854 17.6038 32.3794 17.5599 32.3012 17.4818C32.2231 17.4037 32.1792 17.2977 32.1792 17.1872C32.1792 17.0767 32.2231 16.9707 32.3012 16.8925C32.3794 16.8144 32.4854 16.7705 32.5959 16.7705H35.175C35.2855 16.7705 35.3915 16.8144 35.4697 16.8925C35.5478 16.9707 35.5917 17.0767 35.5917 17.1872C35.5917 17.2977 35.5478 17.4037 35.4697 17.4818C35.3915 17.5599 35.2855 17.6038 35.175 17.6038Z" fill="white"/>
<path d="M35.175 19.1663H32.5959C32.4854 19.1663 32.3794 19.1224 32.3012 19.0443C32.2231 18.9662 32.1792 18.8602 32.1792 18.7497C32.1792 18.6392 32.2231 18.5332 32.3012 18.455C32.3794 18.3769 32.4854 18.333 32.5959 18.333H35.175C35.2855 18.333 35.3915 18.3769 35.4697 18.455C35.5478 18.5332 35.5917 18.6392 35.5917 18.7497C35.5917 18.8602 35.5478 18.9662 35.4697 19.0443C35.3915 19.1224 35.2855 19.1663 35.175 19.1663Z" fill="white"/>
<path d="M33.8834 20.7288H32.5959C32.4854 20.7288 32.3794 20.6849 32.3012 20.6068C32.2231 20.5287 32.1792 20.4227 32.1792 20.3122C32.1792 20.2017 32.2231 20.0957 32.3012 20.0175C32.3794 19.9394 32.4854 19.8955 32.5959 19.8955H33.8834C33.9939 19.8955 34.0999 19.9394 34.178 20.0175C34.2561 20.0957 34.3 20.2017 34.3 20.3122C34.3 20.4227 34.2561 20.5287 34.178 20.6068C34.0999 20.6849 33.9939 20.7288 33.8834 20.7288Z" fill="white"/>
</svg>
