<svg width="40" height="40" viewBox="0 0 40 40" fill="none" xmlns="http://www.w3.org/2000/svg">
<path d="M21.25 2.5H6.25C4.17892 2.5 2.5 4.17892 2.5 6.25V33.75C2.5 35.8211 4.17892 37.5 6.25 37.5H21.25C23.3211 37.5 25 35.8211 25 33.75V6.25C25 4.17892 23.3211 2.5 21.25 2.5ZM23.75 33.125C23.75 34.848 22.3486 36.25 20.625 36.25H6.875C5.15198 36.25 3.75 34.848 3.75 33.125V6.875C3.75 5.15198 5.15198 3.75 6.875 3.75H20.625C22.3486 3.75 23.75 5.15198 23.75 6.875V33.125Z" fill="white"/>
<path d="M20.625 5H16.25C16.25 6.38069 15.1307 7.5 13.75 7.5C12.3693 7.5 11.25 6.38069 11.25 5H6.875C5.84106 5 5 5.84106 5 6.875V33.125C5 34.1589 5.84106 35 6.875 35H20.625C21.6589 35 22.5 34.1589 22.5 33.125V6.875C22.5 5.84106 21.6589 5 20.625 5ZM12.2864 23.9044C12.5464 24.1321 12.5726 24.527 12.3456 24.7864C12.2217 24.928 12.049 25 11.875 25C11.7285 25 11.582 24.9493 11.4636 24.8456L6.46362 20.4706C6.32751 20.3516 6.25 20.1801 6.25 20C6.25 19.8199 6.32751 19.6484 6.46362 19.5294L11.4636 15.1544C11.7236 14.9268 12.1179 14.9518 12.3456 15.2136C12.5726 15.473 12.5464 15.8679 12.2864 16.0956L7.8241 20L12.2864 23.9044ZM21.0364 20.4706L16.0364 24.8456C15.918 24.9493 15.7715 25 15.625 25C15.451 25 15.2783 24.928 15.1544 24.7864C14.9274 24.527 14.9536 24.1321 15.2136 23.9044L19.6759 20L15.2136 16.0956C14.9536 15.8679 14.9274 15.473 15.1544 15.2136C15.3821 14.9518 15.7764 14.9268 16.0364 15.1544L21.0364 19.5294C21.1725 19.6484 21.25 19.8199 21.25 20C21.25 20.1801 21.1725 20.3516 21.0364 20.4706Z" fill="white"/>
<path d="M36.864 22.3712L35.1025 21.3776C35.1709 20.9125 35.2051 20.4523 35.2051 20C35.2051 19.5477 35.1709 19.0875 35.1025 18.6224L36.864 17.6288C37.157 17.4634 37.3706 17.1875 37.4573 16.8634C37.5439 16.5387 37.4976 16.1932 37.3267 15.9039L34.7681 11.5741C34.4226 10.9894 33.6731 10.7867 33.0774 11.1212L31.2854 12.1326C30.5298 11.5515 29.6924 11.0767 28.8086 10.7263V8.75C28.8086 8.05969 28.2495 7.5 27.5586 7.5H26.25V15C29.0115 15 31.25 17.2385 31.25 20C31.25 22.7615 29.0115 25 26.25 25V32.5H27.5586C28.2495 32.5 28.8086 31.9403 28.8086 31.25V29.2743C29.6924 28.9233 30.5298 28.4479 31.2854 27.8674L33.0774 28.8788C33.6731 29.2139 34.4226 29.0112 34.7681 28.4259L37.3267 24.0961C37.4976 23.8068 37.5439 23.4613 37.4573 23.1366C37.3706 22.8125 37.157 22.5366 36.864 22.3712Z" fill="white"/>
</svg>
