<svg width="40" height="40" viewBox="0 0 40 40" fill="none" xmlns="http://www.w3.org/2000/svg">
<path fill-rule="evenodd" clip-rule="evenodd" d="M23.4449 34.4991C23.4429 35.8973 22.3005 37.0386 20.9018 37.0386H19.0982C17.6995 37.0386 16.5572 35.8981 16.5551 34.4991H23.4449ZM33.502 9.46588C33.2823 9.24635 33.4009 8.85893 33.7232 8.81768L38.3311 8.22697C38.5791 8.19518 38.7898 8.40588 38.758 8.65393L38.1673 13.2618C38.126 13.5841 37.7384 13.7027 37.5189 13.4829L36.3462 12.3103L21.3224 25.0712C20.8635 25.4692 20.1697 25.478 19.6996 25.0667L16.3827 22.1709L7.54805 27.4806C6.96211 27.8311 6.20281 27.6403 5.85234 27.0542C5.50188 26.4683 5.69273 25.709 6.27867 25.3585L15.8825 19.5865C16.3654 19.2977 16.9659 19.3765 17.3584 19.7411L20.5169 22.4986L34.593 10.5569L33.502 9.46588ZM39.2969 14.877H36.8794C36.5342 14.877 36.2544 15.1568 36.2544 15.502C36.2544 15.8471 36.5342 16.127 36.8794 16.127H39.2969C39.642 16.127 39.9219 15.8471 39.9219 15.502C39.9219 15.1568 39.642 14.877 39.2969 14.877ZM3.60094 25.6901L5.69453 24.4813C5.9925 24.3088 6.09414 23.9273 5.92156 23.6293C5.74898 23.3313 5.3675 23.2297 5.06953 23.4023L2.97594 24.611C2.67797 24.7836 2.57633 25.1651 2.74891 25.4631C2.92148 25.761 3.30297 25.8627 3.60094 25.6901ZM0.703125 16.1271C0.357969 16.1271 0.078125 15.8473 0.078125 15.5021C0.078125 15.157 0.357969 14.8771 0.703125 14.8771H3.12063C3.46578 14.8771 3.74563 15.157 3.74563 15.5021C3.74563 15.8473 3.46578 16.1271 3.12063 16.1271H0.703125ZM2.97836 6.39322C2.68039 6.22197 2.57766 5.84158 2.74883 5.54361C2.92008 5.24564 3.30047 5.14291 3.59844 5.31408L5.69203 6.52275C5.99 6.694 6.09273 7.07439 5.92156 7.37236C5.75031 7.67033 5.36992 7.77307 5.07195 7.60189L2.97836 6.39322ZM37.0216 24.6108L34.928 23.4021C34.6301 23.2308 34.2497 23.3336 34.0784 23.6316C33.9072 23.9296 34.01 24.3099 34.308 24.4812L36.4016 25.6899C36.6995 25.8611 37.0799 25.7583 37.2512 25.4603C37.4224 25.1625 37.3196 24.7821 37.0216 24.6108ZM36.3991 5.314C36.697 5.14143 37.0785 5.24307 37.2511 5.54104C37.4237 5.839 37.322 6.22049 37.0241 6.39307L34.9305 7.60182C34.6325 7.77439 34.251 7.67275 34.0784 7.37479C33.9059 7.07682 34.0075 6.69533 34.3055 6.52275L36.3991 5.314ZM20 2.96143C13.0739 2.96143 7.45938 8.57611 7.45938 15.502C7.45938 17.9118 8.1393 20.1628 9.31742 22.0738L12.2805 20.293C11.4154 18.9022 10.9152 17.2606 10.9152 15.502C10.9152 10.4846 14.9826 6.41721 20 6.41721C24.4133 6.41721 28.091 9.56432 28.9127 13.7367L31.8107 11.2781C30.0768 6.43049 25.4438 2.96143 20 2.96143ZM32.4137 17.2905L22.1357 26.0204C21.1999 26.8272 19.8096 26.8221 18.8776 26.0083L16.3989 23.8444C16.327 23.8133 16.2555 23.7813 16.1845 23.7484L12.8089 25.7771C13.0625 25.9549 13.3227 26.1238 13.5896 26.2828C14.381 26.7544 14.8312 27.5459 14.8312 28.4674V28.9738H25.1689V28.4674C25.1689 27.5461 25.619 26.7544 26.4105 26.2828C29.5952 24.3853 31.8674 21.1162 32.4137 17.2905ZM20 9.16096C16.498 9.16096 13.659 11.9999 13.659 15.502C13.659 16.7435 14.0161 17.9014 14.6327 18.8792L15.2386 18.5151C16.1802 17.9492 17.3826 18.0712 18.1924 18.8099L20.5286 20.8495L26.3262 15.931C26.5715 12.2612 23.6673 9.16096 20 9.16096ZM19.375 11.7331V12.2957C19.0305 12.3833 18.722 12.5631 18.478 12.8071C17.2537 14.0314 18.1322 16.127 19.8524 16.127C20.158 16.127 20.4 16.0935 20.6382 16.3317C21.082 16.7756 20.7539 17.5178 20.1476 17.5178C19.7484 17.5178 19.4208 17.5778 19.1668 17.2267C18.9645 16.9476 18.5744 16.8853 18.2952 17.0876C18.0161 17.2899 17.9538 17.68 18.1561 17.9592C18.445 18.3582 18.8862 18.6403 19.375 18.7338V19.2708C19.375 19.616 19.6548 19.8958 20 19.8958C20.3452 19.8958 20.625 19.616 20.625 19.2708V18.7082C20.9695 18.6207 21.278 18.4408 21.522 18.1967C22.7518 16.967 21.8632 14.877 20.1477 14.877H19.8525C19.4701 14.877 19.1571 14.564 19.1571 14.1816C19.1571 13.8004 19.4713 13.4862 19.8525 13.4862C20.2517 13.4862 20.5792 13.4262 20.8333 13.7772C21.0355 14.0563 21.4258 14.1186 21.7048 13.9163C21.9839 13.7141 22.0462 13.3239 21.844 13.0448C21.5552 12.6457 21.1139 12.3636 20.625 12.2701V11.7331C20.625 11.388 20.3452 11.1081 20 11.1081C19.6548 11.1081 19.375 11.388 19.375 11.7331ZM25.1689 30.2238V31.5253C25.1689 32.4748 24.3945 33.2492 23.445 33.2492H16.555C15.6055 33.2492 14.8311 32.4748 14.8311 31.5253V30.2238H25.1689Z" fill="white"/>
</svg>
