<svg width="40" height="40" viewBox="0 0 40 40" fill="none" xmlns="http://www.w3.org/2000/svg">
<path fill-rule="evenodd" clip-rule="evenodd" d="M20 15.8706C19.5704 15.8706 19.1415 16.08 18.9388 16.4989L12.4056 29.9998C11.9992 30.8396 12.8485 31.8678 13.75 31.6274L19.5231 30.0877C19.8355 30.0044 20.1645 30.0044 20.4769 30.0877L26.25 31.6274C27.1514 31.8678 28.0007 30.8396 27.5944 29.9998L21.0612 16.4989C20.8585 16.08 20.4295 15.8706 20 15.8706Z" fill="white"/>
<path d="M19.1666 8.33325C18.0259 8.33325 17.0833 9.27586 17.0833 10.4166H6.52177C6.17536 9.44959 5.24609 8.74992 4.16663 8.74992C2.79579 8.74992 1.66663 9.87908 1.66663 11.2499C1.66663 12.6208 2.79579 13.7499 4.16663 13.7499C5.24609 13.7499 6.17536 13.0502 6.52177 12.0833H13.553C9.67699 14.2306 6.98455 18.2509 6.69592 22.9166H6.66663C5.52591 22.9166 4.58329 23.8592 4.58329 24.9999V26.6666C4.58329 27.8073 5.52591 28.7499 6.66663 28.7499H8.33329C9.47401 28.7499 10.4166 27.8073 10.4166 26.6666V24.9999C10.4166 23.8702 9.49175 22.9361 8.36584 22.9182C8.7234 17.8347 12.3272 13.6629 17.1158 12.4462C17.2902 13.4172 18.1495 14.1666 19.1666 14.1666H20.8333C21.8504 14.1666 22.7097 13.4172 22.8841 12.4462C27.6727 13.6629 31.2765 17.8347 31.6341 22.9182C30.5082 22.9361 29.5833 23.8702 29.5833 24.9999V26.6666C29.5833 27.8073 30.5259 28.7499 31.6666 28.7499H33.3333C34.474 28.7499 35.4166 27.8073 35.4166 26.6666V24.9999C35.4166 23.8592 34.474 22.9166 33.3333 22.9166H33.304C33.0154 18.2509 30.3229 14.2306 26.4469 12.0833H33.4781C33.8246 13.0502 34.7538 13.7499 35.8333 13.7499C37.2041 13.7499 38.3333 12.6208 38.3333 11.2499C38.3333 9.87908 37.2041 8.74992 35.8333 8.74992C34.7538 8.74992 33.8246 9.44959 33.4781 10.4166H22.9166C22.9166 9.27586 21.974 8.33325 20.8333 8.33325H19.1666ZM19.1666 9.99992H20.8333C21.0733 9.99992 21.25 10.1766 21.25 10.4166V12.0833C21.25 12.3232 21.0733 12.4999 20.8333 12.4999H19.1666C18.9266 12.4999 18.75 12.3232 18.75 12.0833V10.4166C18.75 10.1766 18.9266 9.99992 19.1666 9.99992Z" fill="white"/>
</svg>
