<svg width="51" height="51" viewBox="0 0 51 51" fill="none" xmlns="http://www.w3.org/2000/svg">
<rect x="0.160156" y="0.200439" width="50.4007" height="50.4007" rx="25.2003" fill="url(#paint0_linear_507_4244)"/>
<g clip-path="url(#clip0_507_4244)">
<g clip-path="url(#clip1_507_4244)">
<g clip-path="url(#clip2_507_4244)">
<path d="M25.3573 13.8457C18.9816 13.8457 13.8071 19.0202 13.8071 25.3959C13.8071 31.7715 18.9816 36.946 25.3573 36.946C31.7329 36.946 36.9074 31.7715 36.9074 25.3959C36.9074 19.0202 31.7329 13.8457 25.3573 13.8457ZM19.2934 27.8676C19.2934 28.3412 18.9007 28.7338 18.4272 28.7338C17.9536 28.7338 17.5609 28.3412 17.5609 27.8676V22.9241C17.5609 22.4506 17.9536 22.0578 18.4272 22.0578C18.9007 22.0578 19.2934 22.4506 19.2934 22.9241V27.8676ZM22.7585 29.5193C22.7585 29.9928 22.3658 30.3855 21.8922 30.3855C21.4187 30.3855 21.026 29.9928 21.026 29.5193V21.2725C21.026 20.7989 21.4187 20.4062 21.8922 20.4062C22.3658 20.4062 22.7585 20.7989 22.7585 21.2725V29.5193ZM26.2235 31.1709C26.2235 31.6445 25.8308 32.0372 25.3573 32.0372C24.8838 32.0372 24.491 31.6445 24.491 31.1709V19.6208C24.491 19.1472 24.8838 18.7545 25.3573 18.7545C25.8308 18.7545 26.2235 19.1472 26.2235 19.6208V31.1709ZM29.6886 29.5193C29.6886 29.9928 29.2959 30.3855 28.8223 30.3855C28.3488 30.3855 27.956 29.9928 27.956 29.5193V21.2725C27.956 20.7989 28.3488 20.4062 28.8223 20.4062C29.2959 20.4062 29.6886 20.7989 29.6886 21.2725V29.5193ZM33.1536 27.8676C33.1536 28.3412 32.7609 28.7338 32.2874 28.7338C31.8138 28.7338 31.4211 28.3412 31.4211 27.8676V22.9241C31.4211 22.4506 31.8138 22.0578 32.2874 22.0578C32.7609 22.0578 33.1536 22.4506 33.1536 22.9241V27.8676Z" fill="white"/>
</g>
</g>
</g>
<defs>
<linearGradient id="paint0_linear_507_4244" x1="53.9765" y1="4.98913" x2="-3.25558" y2="45.8124" gradientUnits="userSpaceOnUse">
<stop offset="0.2265" stop-color="#FFD190"/>
<stop offset="0.7631" stop-color="#FF5599"/>
<stop offset="0.9061" stop-color="#FF14CC"/>
</linearGradient>
<clipPath id="clip0_507_4244">
<rect width="23.9403" height="23.9403" fill="white" transform="translate(13.3833 13.4255)"/>
</clipPath>
<clipPath id="clip1_507_4244">
<rect width="23.9403" height="23.9403" fill="white" transform="translate(13.3838 13.426)"/>
</clipPath>
<clipPath id="clip2_507_4244">
<rect width="23.9403" height="23.9403" fill="white" transform="translate(13.3843 13.4265)"/>
</clipPath>
</defs>
</svg>
