<svg width="40" height="40" viewBox="0 0 40 40" fill="none" xmlns="http://www.w3.org/2000/svg">
<g clip-path="url(#clip0_851_135)">
<path d="M32.75 22.4783C33.2375 22.9658 33.5407 23.6408 33.5407 24.3854C33.5407 25.1314 33.2375 25.8049 32.75 26.2939C32.261 26.7814 31.5876 27.0822 30.843 27.0822C30.0969 27.0822 29.4235 26.7814 28.9344 26.2939C28.4469 25.8049 28.1461 25.1314 28.1461 24.3854C28.1461 23.6416 28.4477 22.9658 28.9344 22.4783C29.4235 21.9908 30.0969 21.6877 30.843 21.6877C31.5876 21.6877 32.261 21.9908 32.75 22.4783ZM40.0008 23.8182V24.9541C40.0008 25.2932 39.7907 25.583 39.4672 25.6869L38.661 25.9479C38.4086 26.0299 38.229 26.2158 38.1586 26.4705C37.9969 27.0377 37.7711 27.5775 37.4899 28.083C37.3618 28.3135 37.3571 28.5721 37.4766 28.8072L37.8618 29.5643C38.0165 29.865 37.9594 30.2174 37.7204 30.4588L36.9165 31.2627C36.6774 31.5018 36.3251 31.5572 36.0219 31.4041L35.2649 31.0189C35.0305 30.8971 34.7711 30.9018 34.5407 31.0322C34.036 31.3135 33.4954 31.5393 32.9282 31.6986C32.6735 31.7721 32.4875 31.951 32.4079 32.2033L32.1446 33.0096C32.0407 33.333 31.7524 33.5408 31.4118 33.5408H30.2758C29.9368 33.5408 29.6469 33.3322 29.543 33.0096L29.2821 32.2033C29.2001 31.951 29.0141 31.7713 28.7594 31.6986C28.1922 31.5393 27.6524 31.3135 27.1469 31.0322C26.9165 30.9041 26.6579 30.8971 26.4227 31.0189L25.6657 31.4041C25.3641 31.5572 25.0126 31.5018 24.7711 31.2627L23.9672 30.4588C23.7282 30.2174 23.6727 29.865 23.8258 29.5643L24.211 28.8072C24.3329 28.5729 24.3282 28.3135 24.1977 28.083C23.9165 27.5783 23.6907 27.0377 23.5313 26.4705C23.4579 26.2158 23.279 26.0299 23.0266 25.9479L22.2204 25.6869C21.8969 25.583 21.6891 25.2924 21.6891 24.9541V23.8182C21.6891 23.4768 21.8969 23.1893 22.2204 23.0854L23.029 22.8221C23.279 22.74 23.4586 22.5564 23.5313 22.3018C23.693 21.7346 23.9165 21.1947 24.1977 20.6893C24.3282 20.4588 24.3329 20.2002 24.211 19.965L23.8258 19.208C23.6727 18.9049 23.7282 18.5525 23.9672 18.3135L24.7711 17.5096C25.0126 17.2705 25.3649 17.2127 25.6657 17.3682L26.4227 17.7533C26.6571 17.8729 26.9165 17.8682 27.1469 17.74C27.6516 17.4588 28.1922 17.233 28.7594 17.0713C29.0141 17.0002 29.2001 16.8213 29.2821 16.5689L29.543 15.7627C29.6469 15.4393 29.9375 15.2291 30.2758 15.2291H31.4118C31.7532 15.2291 32.0407 15.4393 32.1446 15.7627L32.4079 16.5689C32.4875 16.8213 32.6735 17.001 32.9282 17.0713C33.4954 17.233 34.0352 17.4588 34.5407 17.74C34.7711 17.8682 35.0297 17.8729 35.2649 17.7533L36.0219 17.3682C36.3251 17.2135 36.6774 17.2705 36.9165 17.5096L37.7204 18.3135C37.9594 18.5525 38.0172 18.9049 37.8618 19.208L37.4766 19.965C37.3571 20.1994 37.3618 20.4588 37.4899 20.6893C37.7711 21.1939 37.9969 21.7346 38.1586 22.3018C38.2297 22.5564 38.4086 22.7424 38.661 22.8221L39.4672 23.0854C39.7907 23.1893 40.0008 23.4768 40.0008 23.8182ZM34.8297 24.3854C34.8297 23.2846 34.3844 22.2885 33.6626 21.5666C32.9407 20.8447 31.9438 20.3971 30.843 20.3971C29.7399 20.3971 28.7438 20.8447 28.0219 21.5666C27.3 22.2885 26.8547 23.2854 26.8547 24.3854C26.8547 25.4885 27.3 26.4846 28.0219 27.2064C28.7438 27.9283 29.7407 28.3736 30.843 28.3736C31.9438 28.3736 32.9399 27.9283 33.6626 27.2064C34.3844 26.4846 34.8297 25.4877 34.8297 24.3854ZM22.1735 32.9158H19.354L18.4946 30.5197H12.3446L11.4875 32.9158H8.66802C8.31177 32.9158 8.02114 33.2041 8.02114 33.5604C8.02114 33.9166 8.31099 34.2072 8.66802 34.2072H22.1727C22.529 34.2072 22.8196 33.9174 22.8196 33.5604C22.8204 33.2033 22.5305 32.9158 22.1735 32.9158ZM20.4243 23.4635H-0.000732422V7.81348C-0.000732422 6.70176 0.909424 5.79395 2.02114 5.79395H28.8219C29.9336 5.79395 30.8438 6.70176 30.8438 7.81348V13.9369H30.275C29.3758 13.9369 28.5922 14.508 28.3149 15.3635L28.1352 15.9104C27.6633 16.0611 27.2047 16.2518 26.7641 16.4799L26.25 16.2182C25.4508 15.8104 24.4915 15.9611 23.8563 16.5971L23.0524 17.401C22.4165 18.0346 22.2665 18.9932 22.6735 19.7947L22.9344 20.3088C22.7086 20.7494 22.518 21.208 22.3672 21.6799L21.818 21.8572C21.0797 22.0971 20.5524 22.7174 20.4243 23.4635ZM8.12192 14.951L12.3961 12.5635C12.7063 12.3908 12.8188 11.9986 12.6461 11.6885C12.4735 11.3783 12.0813 11.2658 11.7711 11.4385L6.49614 14.3838C6.39224 14.4416 6.30161 14.5275 6.23911 14.6385C6.06646 14.9486 6.17896 15.3408 6.48911 15.5135L11.7711 18.4635C12.0813 18.6361 12.4735 18.5252 12.6461 18.2135C12.8188 17.9033 12.7063 17.5111 12.3961 17.3385L8.12192 14.951ZM16.668 9.51426C16.3204 9.43457 15.975 9.65176 15.8954 9.99941L13.6922 19.6174C13.6125 19.9627 13.8297 20.308 14.175 20.3877C14.5227 20.4674 14.868 20.2502 14.9477 19.9025L17.1508 10.2869C17.2305 9.93926 17.0133 9.59395 16.668 9.51426ZM19.0711 18.4635L24.3532 15.5135C24.6633 15.3408 24.7758 14.9486 24.6032 14.6385C24.5415 14.5275 24.4501 14.4416 24.3461 14.3838L19.0711 11.4385C18.761 11.2658 18.3688 11.3783 18.1961 11.6885C18.0235 11.9986 18.136 12.3908 18.4461 12.5635L22.7204 14.951L18.4461 17.3385C18.136 17.5111 18.0235 17.9033 18.1961 18.2135C18.3688 18.5252 18.761 18.6361 19.0711 18.4635ZM21.8196 26.9143C20.9649 26.6377 20.3954 25.8533 20.3954 24.9541V24.7549H-0.000732422V27.2088C-0.000732422 28.3182 0.909424 29.2283 2.02114 29.2283H22.5657C22.5969 29.1439 22.6321 29.0604 22.6743 28.9783L22.9352 28.4643C22.7094 28.0236 22.5188 27.565 22.3657 27.0932L21.8196 26.9143Z" fill="white"/>
</g>
<defs>
<clipPath id="clip0_851_135">
<rect width="40" height="40" fill="white"/>
</clipPath>
</defs>
</svg>
