<svg width="77" height="77" viewBox="0 0 77 77" fill="none" xmlns="http://www.w3.org/2000/svg">
<path d="M0 69.1315L7.72483 76.6221L15.2933 69.1315L15.4123 61.1759L7.69264 68.8954L0 61.1759V69.1315Z" fill="#FFCB05"/>
<path d="M45.9619 15.4492H15.2969V53.6045L7.73145 61.2754L0.00390625 53.6006V0H61.333L45.9619 15.4492Z" fill="#FFCB05"/>
<path d="M61.3281 7.49055L68.8878 0L76.6214 7.49055V15.2152L68.8998 7.70921L61.3281 15.2152V7.49055Z" fill="#FFCB05"/>
<path d="M76.6377 22.9395V76.6211H15.3086L30.6797 61.1719H61.3447V22.9395L68.8906 15.3848L76.6377 22.9395Z" fill="#FFCB05"/>
<path d="M22.9414 30.5869H53.528V45.8801H42.1361L38.3127 42.0568L34.4114 45.8801H22.9414V30.5869Z" fill="#3D7DCA"/>
<rect x="17.6367" y="35.1113" width="2.96503" height="6.2421" fill="#3D7DCA"/>
<rect x="55.8672" y="35.1113" width="2.96503" height="6.2421" fill="#3D7DCA"/>
</svg>
