<svg width="437" height="57" viewBox="0 0 437 57" fill="none" xmlns="http://www.w3.org/2000/svg">
<path d="M0.448121 8.66691H14.9994V27.9767H43.8262V8.66691H58.3775V56.9414H43.8262V37.7695H14.9994V56.9414L0.448121 56.8724V8.66691ZM69.0011 56.8724V17.0115H83.5524V56.8724H69.0011ZM83.5524 1.35678V12.7358H69.0011V1.35678H83.5524ZM142.537 17.0115L131.848 27.8388H107.849V56.8724H93.2973V28.0457L104.263 17.0115H142.537ZM196.85 28.0457V46.1141L185.885 56.9414H153.679L142.714 46.1141V28.0457L153.679 17.0115H185.885L196.85 28.0457ZM182.299 27.8388H157.265V46.1141H182.299V27.8388ZM219.438 19.4942V46.1141H246.265V37.7695H236.334L226.472 27.9767H260.816V46.1141L250.058 56.9414H215.852L204.887 46.1141V19.7011L215.852 8.66691H262.54L251.851 19.4942H219.438ZM269.949 46.0452V17.0115H284.5V46.0452H308.776V17.0115H323.327V56.8724H308.776V51.6312L303.534 56.8724H280.914L269.949 46.0452ZM333.676 56.8724V17.0115H348.227V56.8724H333.676ZM348.227 1.35678V12.7358H333.676V1.35678H348.227ZM373.213 0.322325V56.9414L358.662 56.8724V8.73588L373.213 0.322325ZM382.268 46.1141V28.0457L393.233 17.0115H421.853V8.73588L436.404 0.322325V56.8724H421.853V51.7002L416.612 56.9414H393.233L382.268 46.1141ZM396.819 46.1141H421.853V27.8388H396.819V46.1141Z" fill="white"/>
</svg>
