<svg width="52" height="53" viewBox="0 0 52 53" fill="none" xmlns="http://www.w3.org/2000/svg">
<path d="M42.8481 25.9851C42.8481 28.3055 40.9671 30.1866 38.6467 30.1866C36.3263 30.1866 34.4453 28.3055 34.4453 25.9851C34.4453 23.6647 36.3263 21.7837 38.6467 21.7837C40.9671 21.7837 42.8481 23.6647 42.8481 25.9851Z" stroke="white" stroke-width="1.64403"/>
<path d="M28.848 11.9811C28.848 13.528 27.5939 14.7821 26.0471 14.7821C24.5002 14.7821 23.2461 13.528 23.2461 11.9811C23.2461 10.4342 24.5002 9.18018 26.0471 9.18018C27.5939 9.18018 28.848 10.4342 28.848 11.9811Z" stroke="white" stroke-width="1.64403"/>
<path d="M26.0451 25.2848C26.0451 26.445 25.1045 27.3856 23.9444 27.3856C22.7842 27.3856 21.8438 26.445 21.8438 25.2848C21.8438 24.1247 22.7842 23.1841 23.9444 23.1841C25.1045 23.1841 26.0451 24.1247 26.0451 25.2848Z" stroke="white" stroke-width="1.64403"/>
<path d="M16.2407 18.283C16.2407 20.2166 14.6732 21.7841 12.7394 21.7841C10.8058 21.7841 9.23828 20.2166 9.23828 18.283C9.23828 16.3493 10.8058 14.7817 12.7394 14.7817C14.6732 14.7817 16.2407 16.3493 16.2407 18.283Z" stroke="white" stroke-width="1.64403"/>
<path d="M23.2407 39.2888C23.2407 41.2226 21.6731 42.79 19.7394 42.79C17.8058 42.79 16.2383 41.2226 16.2383 39.2888C16.2383 37.3551 17.8058 35.7876 19.7394 35.7876C21.6731 35.7876 23.2407 37.3551 23.2407 39.2888Z" stroke="white" stroke-width="1.64403"/>
<path d="M28.6738 14.2316L35.8438 22.7339M36.544 29.4858L23.2963 37.188M18.8151 35.4875L13.4375 21.8837M15.7911 17.0447L23.2963 13.3813M26.8813 25.2847L34.0603 25.8702" stroke="white" stroke-width="1.64403" stroke-linecap="round" stroke-linejoin="round"/>
<path d="M26.041 14.7817L24.6406 23.1846" stroke="white" stroke-width="1.64403" stroke-linecap="round" stroke-linejoin="round"/>
</svg>
