<svg width="53" height="53" viewBox="0 0 53 53" fill="none" xmlns="http://www.w3.org/2000/svg">
<path d="M20.4623 9.97707L17.2791 11.4872C12.3769 13.8127 9.92578 14.9756 9.92578 16.8843C9.92578 18.793 12.3769 19.9558 17.2791 22.2815L20.4623 23.7915C23.5473 25.255 25.09 25.9869 26.7305 25.9869C28.3711 25.9869 29.9137 25.255 32.9986 23.7915L36.1819 22.2815C41.0842 19.9558 43.5352 18.793 43.5352 16.8843C43.5352 14.9756 41.0842 13.8127 36.1819 11.4872L32.9986 9.97707C29.9137 8.5135 28.3711 7.78174 26.7305 7.78174C25.09 7.78174 23.5473 8.5135 20.4623 9.97707Z" stroke="white" stroke-width="1.64403" stroke-linecap="round" stroke-linejoin="round"/>
<path d="M43.1393 24.5845C43.4033 24.9509 43.5352 25.3329 43.5352 25.753C43.5352 27.5634 41.0842 28.6664 36.1819 30.8723L32.9986 32.3048C29.9137 33.6929 28.3711 34.3872 26.7305 34.3872C25.09 34.3872 23.5473 33.6929 20.4623 32.3048L17.2791 30.8723C12.3769 28.6664 9.92578 27.5634 9.92578 25.753C9.92578 25.3329 10.0577 24.9509 10.3216 24.5845" stroke="white" stroke-width="1.64403" stroke-linecap="round" stroke-linejoin="round"/>
<path d="M42.3714 34.3872C43.1472 34.9531 43.5352 35.517 43.5352 36.1848C43.5352 37.8635 41.0842 38.886 36.1819 40.9313L32.9986 42.2593C29.9137 43.5465 28.3711 44.1899 26.7305 44.1899C25.09 44.1899 23.5473 43.5465 20.4623 42.2593L17.2791 40.9313C12.3769 38.886 9.92578 37.8635 9.92578 36.1848C9.92578 35.517 10.3137 34.9531 11.0897 34.3872" stroke="white" stroke-width="1.64403" stroke-linecap="round" stroke-linejoin="round"/>
</svg>
