<svg width="52" height="53" viewBox="0 0 52 53" fill="none" xmlns="http://www.w3.org/2000/svg">
<path d="M36.666 37.188C41.5385 37.188 45.4884 33.4262 45.4884 28.7857C45.4884 24.1452 41.5385 20.3833 36.666 20.3833C36.6512 20.3833 36.6365 20.3833 36.622 20.3834M36.622 20.3834C36.6511 20.0759 36.666 19.7644 36.666 19.4498C36.666 13.778 31.8382 9.18018 25.8829 9.18018C20.2429 9.18018 15.6142 13.3041 15.1399 18.5585M36.622 20.3834C36.4955 21.7183 36.1011 22.9794 35.4902 24.1177M15.1399 18.5585C10.167 19.0092 6.27734 22.998 6.27734 27.8521C6.27734 32.3689 9.6451 36.1362 14.1195 37.0014M15.1399 18.5585C15.4494 18.5305 15.7629 18.5161 16.0801 18.5161C18.2873 18.5161 20.3242 19.2109 21.9628 20.3833" stroke="white" stroke-width="1.64403" stroke-linecap="round" stroke-linejoin="round"/>
<path d="M20.2852 39.0556C20.2852 39.0556 22.2109 39.0556 24.1365 42.7902C24.1365 42.7902 30.2533 33.4537 35.6904 31.5864" stroke="white" stroke-width="1.64403" stroke-linecap="round" stroke-linejoin="round"/>
</svg>
