<svg width="268" height="54" viewBox="0 0 268 54" fill="none" xmlns="http://www.w3.org/2000/svg">
<rect width="52.5292" height="52.5292" rx="13.2889" transform="matrix(-1 0 0 1 52.5292 0.735382)" fill="url(#paint0_linear_409_3553)"/>
<path d="M41.7917 9.70308H39.4668V9.00765C39.4668 8.93592 39.4384 8.86713 39.3876 8.81641C39.3369 8.76569 39.2681 8.7372 39.1964 8.7372H38.7714C38.6997 8.7372 38.6309 8.76569 38.5802 8.81641C38.5295 8.86713 38.501 8.93592 38.501 9.00765V9.70308H36.1761C35.6912 9.70334 35.2263 9.89606 34.8835 10.2389C34.5406 10.5817 34.3479 11.0467 34.3477 11.5315V12.621C34.3477 13.8196 34.8238 14.9692 35.6714 15.8167C36.5189 16.6643 37.6684 17.1404 38.867 17.1404H39.1964C39.2681 17.1404 39.3369 17.1119 39.3876 17.0612C39.4384 17.0105 39.4668 16.9417 39.4668 16.87V16.445C39.4668 16.3732 39.4384 16.3044 39.3876 16.2537C39.3369 16.203 39.2681 16.1745 39.1964 16.1745H38.867C37.9246 16.1745 37.0207 15.8001 36.3543 15.1337C35.6879 14.4673 35.3135 13.5635 35.3135 12.621V11.5315C35.3135 11.3027 35.4044 11.0834 35.5662 10.9216C35.7279 10.7598 35.9473 10.669 36.1761 10.669H41.7917C42.0205 10.669 42.2399 10.7598 42.4016 10.9216C42.5634 11.0834 42.6543 11.3027 42.6543 11.5315V12.6973C42.6537 12.9623 42.6212 13.2263 42.5577 13.4836C42.5408 13.5498 42.5498 13.6201 42.5828 13.68C42.6158 13.7399 42.6704 13.785 42.7354 13.8062L43.1411 13.9385C43.1761 13.9501 43.2132 13.9544 43.25 13.9511C43.2867 13.9478 43.3224 13.937 43.3549 13.9194C43.3873 13.9017 43.4157 13.8776 43.4384 13.8485C43.4611 13.8194 43.4776 13.7859 43.4869 13.7501C43.5747 13.4061 43.6195 13.0524 43.6202 12.6973V11.5315C43.6199 11.0467 43.4272 10.5817 43.0843 10.2389C42.7415 9.89606 42.2766 9.70334 41.7917 9.70308Z" fill="white"/>
<path d="M37.4407 13.7598C37.8674 13.7598 38.2134 13.4139 38.2134 12.9871C38.2134 12.5604 37.8674 12.2144 37.4407 12.2144C37.0139 12.2144 36.668 12.5604 36.668 12.9871C36.668 13.4139 37.0139 13.7598 37.4407 13.7598Z" fill="white"/>
<path d="M40.5286 13.7598C40.9553 13.7598 41.3013 13.4139 41.3013 12.9871C41.3013 12.5604 40.9553 12.2144 40.5286 12.2144C40.1018 12.2144 39.7559 12.5604 39.7559 12.9871C39.7559 13.4139 40.1018 13.7598 40.5286 13.7598Z" fill="white"/>
<path d="M43.5991 16.5416L44.4742 16.8864C44.4922 16.8936 44.5077 16.9059 44.5186 16.922C44.5295 16.938 44.5353 16.9569 44.5353 16.9763C44.5353 16.9956 44.5295 17.0146 44.5186 17.0306C44.5077 17.0466 44.4922 17.059 44.4742 17.0661L43.5991 17.4109C43.4442 17.4722 43.3035 17.5645 43.1857 17.6823C43.0679 17.8001 42.9756 17.9408 42.9143 18.0957L42.5695 18.965C42.5624 18.983 42.55 18.9985 42.534 19.0094C42.518 19.0203 42.499 19.0261 42.4797 19.0261C42.4603 19.0261 42.4414 19.0203 42.4253 19.0094C42.4093 18.9985 42.3969 18.983 42.3898 18.965L42.045 18.0957C41.9839 17.9407 41.8916 17.8 41.7738 17.6822C41.656 17.5643 41.5152 17.472 41.3602 17.4109L40.4909 17.0661C40.4729 17.059 40.4574 17.0466 40.4465 17.0306C40.4356 17.0146 40.4298 16.9956 40.4298 16.9763C40.4298 16.9569 40.4356 16.938 40.4465 16.922C40.4574 16.9059 40.4729 16.8936 40.4909 16.8864L41.3602 16.5416C41.5152 16.4805 41.656 16.3882 41.7738 16.2704C41.8916 16.1526 41.9839 16.0118 42.045 15.8568L42.3898 14.9875C42.3969 14.9695 42.4093 14.954 42.4253 14.9431C42.4414 14.9323 42.4603 14.9264 42.4797 14.9264C42.499 14.9264 42.518 14.9323 42.534 14.9431C42.55 14.954 42.5624 14.9695 42.5695 14.9875L42.9143 15.8568C42.9756 16.0117 43.0679 16.1524 43.1857 16.2702C43.3035 16.388 43.4442 16.4804 43.5991 16.5416Z" fill="white"/>
<path d="M14.4966 24.3465L7.53257 36.1293C7.07059 36.9109 7.63404 37.8984 8.542 37.8984H12.5021C12.9092 37.8984 13.2871 37.6873 13.5006 37.3407L18.6566 28.9678C18.8912 28.5868 18.8885 28.1055 18.6497 27.7271L16.4976 24.3173C16.0295 23.5757 14.9428 23.5916 14.4966 24.3465Z" fill="white"/>
<path d="M19.1127 16.5692L16.6769 20.5231C16.4489 20.8931 16.4443 21.3588 16.6648 21.7332L21.8428 30.5247C22.3032 31.3063 21.7396 32.2923 20.8325 32.2923H18.7777C18.3653 32.2923 17.9832 32.5089 17.7715 32.8628L15.7933 36.1688C15.3256 36.9504 15.8887 37.9434 16.7995 37.9434H25.5588C25.9687 37.9434 26.3488 37.7294 26.5614 37.379L29.2822 32.8934C29.5066 32.5233 29.509 32.0598 29.2884 31.6875L24.2109 23.1191C23.7477 22.3375 24.3111 21.3488 25.2196 21.3488H27.1582C27.5547 21.3488 27.9244 21.1484 28.1408 20.816L30.0888 17.8239C30.5967 17.0439 30.037 16.0116 29.1062 16.0116H20.111C19.704 16.0116 19.3262 16.2227 19.1127 16.5692Z" fill="white"/>
<path d="M31.8306 17.6373L27.3536 24.7177C27.1129 25.0984 27.1115 25.5834 27.3501 25.9654L29.5198 29.4398C29.9928 30.1973 31.1051 30.1691 31.5391 29.3886L31.8465 28.8359C32.2872 28.0435 33.4221 28.0297 33.8819 28.8112L38.9411 37.4103C39.1518 37.7684 39.5363 37.9882 39.9517 37.9882H43.9713C44.8831 37.9882 45.446 36.9932 44.9763 36.2117L33.8267 17.6599C33.3771 16.9119 32.297 16.8996 31.8306 17.6373Z" fill="white"/>
<path d="M79.2041 22.8884C79.8927 22.8884 80.5411 23.0245 81.1496 23.2967C81.7741 23.5529 82.3105 23.9132 82.7588 24.3776C83.2231 24.8259 83.5834 25.3623 83.8396 25.9868C84.1118 26.5952 84.2479 27.2437 84.2479 27.9322C84.2479 28.6367 84.1118 29.2932 83.8396 29.9017C83.5834 30.5101 83.2231 31.0465 82.7588 31.5109C82.3105 31.9592 81.7741 32.3195 81.1496 32.5917C80.5411 32.8479 79.8927 32.976 79.2041 32.976H68.7563C68.34 32.976 67.9798 32.8319 67.6755 32.5437C67.3713 32.2394 67.2192 31.8712 67.2192 31.4388C67.2192 31.0225 67.3713 30.6703 67.6755 30.382C67.9798 30.0778 68.34 29.9257 68.7563 29.9257H79.2041C79.7646 29.9257 80.2369 29.7336 80.6212 29.3493C81.0055 28.965 81.1976 28.4926 81.1976 27.9322C81.1976 27.3718 81.0055 26.8994 80.6212 26.5152C80.2369 26.1309 79.7646 25.9387 79.2041 25.9387H71.2542C70.5497 25.9387 69.8932 25.8106 69.2847 25.5544C68.6763 25.2822 68.1399 24.922 67.6755 24.4736C67.2272 24.0093 66.8669 23.4729 66.5947 22.8644C66.3385 22.24 66.2104 21.5835 66.2104 20.895C66.2104 20.2064 66.3385 19.558 66.5947 18.9495C66.8669 18.325 67.2272 17.7806 67.6755 17.3163C68.1399 16.8519 68.6763 16.4917 69.2847 16.2355C69.8932 15.9633 70.5497 15.8272 71.2542 15.8272H81.702C82.1183 15.8272 82.4786 15.9793 82.7828 16.2835C83.087 16.5877 83.2392 16.948 83.2392 17.3643C83.2392 17.7806 83.087 18.1409 82.7828 18.4451C82.4786 18.7333 82.1183 18.8774 81.702 18.8774H71.2542C70.6938 18.8774 70.2214 19.0776 69.8371 19.4779C69.4529 19.8622 69.2607 20.3345 69.2607 20.895C69.2607 21.4394 69.4529 21.9117 69.8371 22.312C70.2214 22.6963 70.6938 22.8884 71.2542 22.8884H79.2041ZM110.142 15.9473C110.414 16.0754 110.63 16.2675 110.79 16.5237C110.966 16.7639 111.054 17.0441 111.054 17.3643V31.4388C111.054 31.8712 110.902 32.2394 110.598 32.5437C110.31 32.8319 109.957 32.976 109.541 32.976C109.125 32.976 108.764 32.8319 108.46 32.5437C108.156 32.2394 108.004 31.8712 108.004 31.4388V20.943L100.39 28.2685C100.118 28.5407 99.7658 28.6768 99.3334 28.6768C98.9011 28.6768 98.5488 28.5407 98.2766 28.2685L90.663 20.943V31.4388C90.663 31.8712 90.5108 32.2394 90.2066 32.5437C89.9024 32.8319 89.5421 32.976 89.1258 32.976C88.7095 32.976 88.3492 32.8319 88.045 32.5437C87.7568 32.2394 87.6127 31.8712 87.6127 31.4388V17.3643C87.6127 17.0441 87.6927 16.7639 87.8529 16.5237C88.029 16.2675 88.2532 16.0754 88.5254 15.9473C88.8136 15.8192 89.1018 15.7871 89.39 15.8512C89.6942 15.8992 89.9584 16.0353 90.1826 16.2595L99.3334 25.0501L108.484 16.2595C108.708 16.0353 108.965 15.8992 109.253 15.8512C109.557 15.7871 109.853 15.8192 110.142 15.9473ZM132.771 29.9257C133.188 29.9257 133.548 30.0778 133.852 30.382C134.157 30.6703 134.309 31.0225 134.309 31.4388C134.309 31.8712 134.157 32.2394 133.852 32.5437C133.548 32.8319 133.188 32.976 132.771 32.976H130.322C129.857 32.976 129.481 32.8159 129.193 32.4956L124.533 27.4519H117.952V31.4388C117.952 31.8712 117.8 32.2394 117.496 32.5437C117.192 32.8319 116.832 32.976 116.415 32.976C115.999 32.976 115.639 32.8319 115.334 32.5437C115.046 32.2394 114.902 31.8712 114.902 31.4388V25.9147C114.902 25.4984 115.046 25.1381 115.334 24.8339C115.639 24.5297 115.999 24.3776 116.415 24.3776H127.127C127.512 24.3776 127.864 24.3055 128.184 24.1614C128.52 24.0173 128.817 23.8251 129.073 23.585C129.329 23.3288 129.529 23.0406 129.673 22.7203C129.817 22.3841 129.889 22.0238 129.889 21.6395C129.889 21.2552 129.817 20.903 129.673 20.5827C129.529 20.2465 129.329 19.9502 129.073 19.6941C128.817 19.4379 128.52 19.2377 128.184 19.0936C127.864 18.9495 127.512 18.8774 127.127 18.8774H116.415C115.999 18.8774 115.639 18.7333 115.334 18.4451C115.046 18.1409 114.902 17.7806 114.902 17.3643C114.902 16.948 115.046 16.5877 115.334 16.2835C115.639 15.9793 115.999 15.8272 116.415 15.8272H127.127C127.912 15.8272 128.648 15.9793 129.337 16.2835C130.041 16.5717 130.674 16.988 131.234 17.5324C132.371 18.6693 132.94 20.0383 132.94 21.6395C132.94 23.2407 132.371 24.6097 131.234 25.7466C130.466 26.5152 129.569 27.0195 128.544 27.2597L130.994 29.9257H132.771ZM155.107 30.4541C155.38 30.7743 155.492 31.1506 155.444 31.5829C155.412 31.9993 155.236 32.3435 154.915 32.6157C154.627 32.8559 154.299 32.976 153.931 32.976C153.706 32.976 153.49 32.9279 153.282 32.8319C153.09 32.7358 152.922 32.5997 152.778 32.4236L147.278 25.9387H140.48V31.4388C140.48 31.8712 140.328 32.2394 140.024 32.5437C139.72 32.8319 139.36 32.976 138.943 32.976C138.527 32.976 138.167 32.8319 137.863 32.5437C137.574 32.2394 137.43 31.8712 137.43 31.4388V17.3643C137.43 16.948 137.574 16.5877 137.863 16.2835C138.167 15.9793 138.527 15.8272 138.943 15.8272C139.36 15.8272 139.72 15.9793 140.024 16.2835C140.328 16.5877 140.48 16.948 140.48 17.3643V22.8884H146.389C147.125 22.8884 147.83 22.7523 148.502 22.4801C149.175 22.1919 149.767 21.7836 150.28 21.2552C150.808 20.7428 151.209 20.1504 151.481 19.4779C151.753 18.8054 151.889 18.1009 151.889 17.3643C151.889 16.948 152.041 16.5877 152.345 16.2835C152.65 15.9793 153.01 15.8272 153.426 15.8272C153.842 15.8272 154.203 15.9793 154.507 16.2835C154.811 16.5877 154.963 16.948 154.963 17.3643C154.963 18.5172 154.731 19.63 154.267 20.7028C153.818 21.7436 153.21 22.6483 152.441 23.4168C151.833 24.0253 151.16 24.5297 150.424 24.93L155.107 30.4541ZM175.05 18.325C175.866 19.1416 176.475 20.0703 176.875 21.1111C177.291 22.1359 177.5 23.2327 177.5 24.4016C177.5 25.5544 177.291 26.6593 176.875 27.7161C176.459 28.7728 175.85 29.6935 175.05 30.4781C174.201 31.2947 173.192 31.9192 172.024 32.3515C170.871 32.7678 169.582 32.976 168.157 32.976H166.956C165.531 32.976 164.234 32.7678 163.065 32.3515C161.912 31.9192 160.911 31.2947 160.063 30.4781C159.262 29.7095 158.646 28.7889 158.213 27.7161C157.813 26.6433 157.613 25.5384 157.613 24.4016C157.613 23.8251 157.661 23.2647 157.757 22.7203C157.869 22.1599 158.021 21.6235 158.213 21.1111C158.646 20.0543 159.262 19.1256 160.063 18.325C160.911 17.5084 161.912 16.892 163.065 16.4757C164.234 16.0433 165.531 15.8272 166.956 15.8272H168.157C169.582 15.8272 170.871 16.0433 172.024 16.4757C173.192 16.892 174.201 17.5084 175.05 18.325ZM168.157 29.9257C169.117 29.9257 169.982 29.7976 170.751 29.5414C171.535 29.2852 172.2 28.9169 172.744 28.4366C173.289 27.9562 173.705 27.3798 173.993 26.7073C174.297 26.0188 174.449 25.2502 174.449 24.4016C174.449 23.5529 174.297 22.7924 173.993 22.1199C173.705 21.4314 173.289 20.8469 172.744 20.3666C172.2 19.8862 171.535 19.5179 170.751 19.2617C169.982 19.0055 169.117 18.8774 168.157 18.8774H166.956C165.979 18.8774 165.098 19.0055 164.314 19.2617C163.545 19.5179 162.889 19.8862 162.344 20.3666C161.8 20.8469 161.384 21.4314 161.095 22.1199C160.807 22.7924 160.663 23.5529 160.663 24.4016C160.663 25.2502 160.807 26.0188 161.095 26.7073C161.384 27.3798 161.8 27.9562 162.344 28.4366C162.889 28.9169 163.545 29.2852 164.314 29.5414C165.098 29.7976 165.979 29.9257 166.956 29.9257H168.157ZM197.134 15.8272C197.551 15.8272 197.903 15.9793 198.191 16.2835C198.495 16.5877 198.647 16.948 198.647 17.3643V31.4388C198.647 31.7591 198.559 32.0473 198.383 32.3035C198.223 32.5437 198.007 32.7278 197.735 32.8559C197.527 32.936 197.326 32.976 197.134 32.976C196.734 32.976 196.382 32.8399 196.078 32.5677L183.66 20.895V31.4388C183.66 31.8712 183.508 32.2394 183.204 32.5437C182.916 32.8319 182.563 32.976 182.147 32.976C181.731 32.976 181.371 32.8319 181.066 32.5437C180.762 32.2394 180.61 31.8712 180.61 31.4388V17.3643C180.61 17.0601 180.69 16.7879 180.85 16.5477C181.026 16.2915 181.258 16.0994 181.547 15.9713C181.819 15.8432 182.099 15.8031 182.387 15.8512C182.692 15.8992 182.956 16.0353 183.18 16.2595L195.597 27.9082V17.3643C195.597 16.948 195.741 16.5877 196.029 16.2835C196.334 15.9793 196.702 15.8272 197.134 15.8272ZM219.191 18.325C220.008 19.1416 220.616 20.0703 221.017 21.1111C221.433 22.1359 221.641 23.2327 221.641 24.4016C221.641 25.5544 221.433 26.6593 221.017 27.7161C220.6 28.7728 219.992 29.6935 219.191 30.4781C218.343 31.2947 217.334 31.9192 216.165 32.3515C215.012 32.7678 213.723 32.976 212.298 32.976H211.097C209.672 32.976 208.375 32.7678 207.206 32.3515C206.053 31.9192 205.053 31.2947 204.204 30.4781C203.403 29.7095 202.787 28.7889 202.355 27.7161C201.954 26.6433 201.754 25.5384 201.754 24.4016C201.754 23.8251 201.802 23.2647 201.898 22.7203C202.01 22.1599 202.163 21.6235 202.355 21.1111C202.787 20.0543 203.403 19.1256 204.204 18.325C205.053 17.5084 206.053 16.892 207.206 16.4757C208.375 16.0433 209.672 15.8272 211.097 15.8272H212.298C213.723 15.8272 215.012 16.0433 216.165 16.4757C217.334 16.892 218.343 17.5084 219.191 18.325ZM212.298 29.9257C213.259 29.9257 214.123 29.7976 214.892 29.5414C215.677 29.2852 216.341 28.9169 216.886 28.4366C217.43 27.9562 217.846 27.3798 218.134 26.7073C218.439 26.0188 218.591 25.2502 218.591 24.4016C218.591 23.5529 218.439 22.7924 218.134 22.1199C217.846 21.4314 217.43 20.8469 216.886 20.3666C216.341 19.8862 215.677 19.5179 214.892 19.2617C214.123 19.0055 213.259 18.8774 212.298 18.8774H211.097C210.12 18.8774 209.24 19.0055 208.455 19.2617C207.687 19.5179 207.03 19.8862 206.486 20.3666C205.941 20.8469 205.525 21.4314 205.237 22.1199C204.949 22.7924 204.804 23.5529 204.804 24.4016C204.804 25.2502 204.949 26.0188 205.237 26.7073C205.525 27.3798 205.941 27.9562 206.486 28.4366C207.03 28.9169 207.687 29.2852 208.455 29.5414C209.24 29.7976 210.12 29.9257 211.097 29.9257H212.298ZM243.99 15.9713C244.374 16.1474 244.638 16.4356 244.782 16.8359C244.942 17.2202 244.934 17.6045 244.758 17.9888L239.402 29.7336C238.954 30.7263 238.273 31.5189 237.361 32.1113C236.448 32.6878 235.447 32.976 234.359 32.976C233.254 32.976 232.245 32.6878 231.332 32.1113C230.436 31.5189 229.755 30.7263 229.291 29.7336L223.935 17.9888C223.759 17.6045 223.743 17.2202 223.887 16.8359C224.047 16.4356 224.319 16.1474 224.703 15.9713C225.088 15.7951 225.472 15.7871 225.856 15.9473C226.257 16.0914 226.545 16.3556 226.721 16.7398L232.077 28.4606C232.285 28.9089 232.589 29.2692 232.99 29.5414C233.406 29.7976 233.862 29.9257 234.359 29.9257C234.839 29.9257 235.279 29.7976 235.68 29.5414C236.096 29.2692 236.408 28.9089 236.616 28.4606L241.972 16.7398C242.148 16.3556 242.429 16.0914 242.813 15.9473C243.213 15.7871 243.605 15.7951 243.99 15.9713ZM265.41 30.8144C265.586 31.1987 265.594 31.5909 265.434 31.9912C265.29 32.3755 265.026 32.6557 264.641 32.8319C264.449 32.9279 264.241 32.976 264.017 32.976C263.729 32.976 263.457 32.8959 263.2 32.7358C262.944 32.5757 262.752 32.3595 262.624 32.0873L257.292 20.3425C257.084 19.8942 256.772 19.5419 256.355 19.2858C255.939 19.0296 255.491 18.9015 255.01 18.9015C254.514 18.9015 254.058 19.0296 253.641 19.2858C253.241 19.5419 252.937 19.8942 252.729 20.3425L247.373 32.0873C247.196 32.4716 246.908 32.7358 246.508 32.8799C246.124 33.024 245.739 33.008 245.355 32.8319C244.971 32.6557 244.707 32.3755 244.562 31.9912C244.418 31.5909 244.434 31.1987 244.61 30.8144L249.942 19.0936C250.407 18.1009 251.087 17.3083 251.984 16.7158C252.897 16.1234 253.905 15.8272 255.01 15.8272C256.099 15.8272 257.1 16.1234 258.012 16.7158C258.925 17.3083 259.606 18.1009 260.054 19.0936L265.41 30.8144ZM255.01 24.7138C255.395 24.7138 255.747 24.7859 256.067 24.93C256.403 25.0741 256.692 25.2742 256.932 25.5304C257.188 25.7706 257.388 26.0588 257.532 26.3951C257.676 26.7153 257.748 27.0676 257.748 27.4519C257.748 27.8361 257.676 28.1964 257.532 28.5327C257.388 28.8529 257.188 29.1411 256.932 29.3973C256.692 29.6375 256.403 29.8296 256.067 29.9737C255.747 30.1178 255.395 30.1899 255.01 30.1899C254.626 30.1899 254.266 30.1178 253.929 29.9737C253.609 29.8296 253.321 29.6375 253.065 29.3973C252.825 29.1411 252.632 28.8529 252.488 28.5327C252.344 28.1964 252.272 27.8361 252.272 27.4519C252.272 27.0676 252.344 26.7153 252.488 26.3951C252.632 26.0588 252.825 25.7706 253.065 25.5304C253.321 25.2742 253.609 25.0741 253.929 24.93C254.266 24.7859 254.626 24.7138 255.01 24.7138Z" fill="white"/>
<defs>
<linearGradient id="paint0_linear_409_3553" x1="-1.11466e-06" y1="2.68377" x2="47.7702" y2="52.5292" gradientUnits="userSpaceOnUse">
<stop offset="0.105769" stop-color="#1547CA"/>
<stop offset="0.490385" stop-color="#D3C41C"/>
<stop offset="0.870192" stop-color="#FF3A6C"/>
</linearGradient>
</defs>
</svg>
