<svg width="1440" height="788" viewBox="0 0 1440 788" fill="none" xmlns="http://www.w3.org/2000/svg">
<g clip-path="url(#clip0_1482_2)">
<path d="M720 145C928.588 145 1117.38 203.044 1254.01 296.836C1390.63 390.631 1475 520.107 1475 663C1475 805.893 1390.63 935.369 1254.01 1029.16C1117.38 1122.96 928.588 1181 720 1181C511.412 1181 322.615 1122.96 185.993 1029.16C49.3665 935.369 -35 805.893 -35 663C-35 520.107 49.3665 390.631 185.993 296.836C322.615 203.044 511.412 145 720 145Z" stroke="url(#paint0_linear_1482_2)" stroke-width="2"/>
<path d="M720 335C928.588 335 1117.38 393.044 1254.01 486.836C1390.63 580.631 1475 710.107 1475 853C1475 995.893 1390.63 1125.37 1254.01 1219.16C1117.38 1312.96 928.588 1371 720 1371C511.412 1371 322.615 1312.96 185.993 1219.16C49.3665 1125.37 -35 995.893 -35 853C-35 710.107 49.3665 580.631 185.993 486.836C322.615 393.044 511.412 335 720 335Z" stroke="url(#paint1_linear_1482_2)" stroke-width="2"/>
<path d="M720 564C928.588 564 1117.38 622.044 1254.01 715.836C1390.63 809.631 1475 939.107 1475 1082C1475 1224.89 1390.63 1354.37 1254.01 1448.16C1117.38 1541.96 928.588 1600 720 1600C511.412 1600 322.615 1541.96 185.993 1448.16C49.3665 1354.37 -35 1224.89 -35 1082C-35 939.107 49.3665 809.631 185.993 715.836C322.615 622.044 511.412 564 720 564Z" stroke="url(#paint2_linear_1482_2)" stroke-width="2"/>
<rect x="168" y="185" width="140" height="140" rx="70" fill="#F3F3F3"/>
<path d="M214.812 288.594L209.656 230.719H266.344L261.188 288.562L237.953 295" fill="#FF4C1E"/>
<path d="M238 290.078V235.469H261.172L256.75 284.844L238 290.078Z" fill="#FF651E"/>
<path d="M220.188 242.547H238L240.649 246.094L238 249.641H227.969L228.625 256.906H238L240.649 260.586L238 263.984H222.125L220.188 242.547ZM222.437 267.547H229.562L230.062 273.219L238 275.344L240.989 278.884L238 282.75L223.438 278.688L222.437 267.547Z" fill="#EBEBEB"/>
<path d="M255.75 242.547H237.969V249.641H255.094L255.75 242.547ZM254.453 256.906H237.969V264H246.719L245.891 273.219L237.969 275.344V282.719L252.5 278.688L254.453 256.906Z" fill="white"/>
<rect x="419" y="295" width="140" height="140" rx="70" fill="#F3F3F3"/>
<g clip-path="url(#clip1_1482_2)">
<path fill-rule="evenodd" clip-rule="evenodd" d="M534 365.011C534 359.06 526.537 353.424 515.089 349.922C517.733 338.276 516.554 329.014 511.383 326.045C510.189 325.351 508.797 325.022 507.274 325.022V329.109C508.116 329.109 508.797 329.277 509.369 329.584C511.866 331.009 512.943 336.448 512.101 343.445C511.896 345.163 511.566 346.976 511.163 348.825C507.567 347.948 503.641 347.268 499.518 346.829C497.042 343.445 494.471 340.367 491.886 337.677C497.862 332.121 503.473 329.087 507.289 329.087V325C502.242 325 495.643 328.59 488.963 334.818C482.284 328.626 475.685 325.073 470.638 325.073V329.16C474.432 329.16 480.064 332.179 486.048 337.691C483.478 340.382 480.914 343.437 478.475 346.829C474.33 347.268 470.404 347.948 466.808 348.84C466.383 347.012 466.075 345.236 465.855 343.532C464.991 336.536 466.061 331.097 468.536 329.65C469.085 329.321 469.803 329.174 470.646 329.174V325.095C469.107 325.095 467.708 325.424 466.5 326.119C461.344 329.087 460.187 338.335 462.853 349.944C451.427 353.453 444 359.075 444 365.011C444 370.962 451.463 376.598 462.911 380.1C460.267 391.746 461.446 401.008 466.617 403.977C467.811 404.671 469.203 405 470.748 405C475.794 405 482.394 401.41 489.073 395.182C495.753 401.374 502.352 404.927 507.398 404.927C508.937 404.927 510.335 404.598 511.544 403.903C516.7 400.935 517.857 391.687 515.191 380.078C526.573 376.584 534 370.94 534 365.011ZM497.364 365.011C497.364 360.391 493.614 356.64 488.978 356.64C484.349 356.64 480.592 360.383 480.592 365.011C480.592 369.639 484.342 373.382 488.978 373.382C493.614 373.374 497.364 369.631 497.364 365.011ZM510.116 352.795C509.435 355.156 508.592 357.591 507.64 360.025C506.886 358.563 506.102 357.094 505.238 355.631C504.396 354.169 503.495 352.736 502.594 351.347C505.201 351.735 507.713 352.21 510.116 352.795ZM501.715 372.3C500.287 374.771 498.814 377.117 497.291 379.296C494.559 379.537 491.791 379.661 489 379.661C486.231 379.661 483.463 379.53 480.746 379.311C479.222 377.132 477.735 374.807 476.307 372.351C474.916 369.953 473.648 367.519 472.491 365.062C473.626 362.606 474.916 360.157 476.285 357.759C477.713 355.288 479.186 352.941 480.709 350.763C483.441 350.521 486.209 350.397 489 350.397C491.769 350.397 494.537 350.529 497.254 350.748C498.778 352.927 500.265 355.251 501.693 357.708C503.084 360.106 504.352 362.54 505.509 364.996C504.352 367.445 503.092 369.894 501.715 372.3ZM507.64 369.916C508.629 372.373 509.471 374.822 510.174 377.205C507.772 377.79 505.238 378.287 502.616 378.667C503.517 377.256 504.41 375.809 505.26 374.325C506.095 372.863 506.886 371.379 507.64 369.916ZM489.037 389.45C487.33 387.696 485.624 385.737 483.939 383.595C485.587 383.668 487.279 383.726 488.985 383.726C490.707 383.726 492.413 383.69 494.083 383.595C492.428 385.737 490.721 387.696 489.037 389.45ZM475.392 378.667C472.784 378.28 470.272 377.805 467.87 377.22C468.551 374.858 469.393 372.424 470.345 369.989C471.1 371.452 471.883 372.921 472.748 374.383C473.612 375.853 474.491 377.278 475.392 378.667ZM488.941 340.564C490.648 342.319 492.354 344.278 494.039 346.42C492.391 346.347 490.699 346.288 488.993 346.288C487.271 346.288 485.565 346.325 483.895 346.42C485.55 344.278 487.257 342.319 488.941 340.564ZM475.37 351.347C474.469 352.758 473.575 354.206 472.726 355.69C471.883 357.152 471.092 358.621 470.338 360.084C469.349 357.627 468.507 355.178 467.804 352.795C470.213 352.225 472.748 351.735 475.37 351.347ZM458.766 374.274C452.269 371.51 448.072 367.884 448.072 365.011C448.072 362.138 452.276 358.49 458.766 355.748C460.34 355.069 462.069 354.469 463.849 353.899C464.896 357.488 466.273 361.224 467.979 365.048C466.295 368.856 464.933 372.57 463.907 376.145C462.091 375.575 460.362 374.953 458.766 374.274ZM468.639 400.438C466.141 399.013 465.064 393.574 465.907 386.577C466.112 384.859 466.441 383.046 466.844 381.197C470.44 382.074 474.366 382.754 478.49 383.192C480.965 386.577 483.536 389.655 486.122 392.345C480.138 397.894 474.527 400.935 470.711 400.935C469.884 400.913 469.188 400.753 468.639 400.438ZM512.152 386.49C513.016 393.486 511.947 398.925 509.471 400.372C508.922 400.701 508.204 400.848 507.362 400.848C503.568 400.848 497.936 397.828 491.952 392.316C494.522 389.626 497.086 386.57 499.525 383.178C503.67 382.739 507.596 382.059 511.192 381.16C511.617 383.01 511.947 384.786 512.152 386.49ZM519.212 374.274C517.638 374.953 515.909 375.553 514.129 376.123C513.082 372.534 511.705 368.798 509.999 364.974C511.683 361.166 513.045 357.452 514.071 353.877C515.887 354.447 517.608 355.069 519.227 355.741C525.724 358.505 529.92 362.131 529.92 365.004C529.906 367.884 525.709 371.525 519.212 374.274Z" fill="#00D8FF"/>
</g>
<rect x="936" y="95" width="140" height="140" rx="70" fill="#F3F3F3"/>
<g clip-path="url(#clip2_1482_2)">
<path fill-rule="evenodd" clip-rule="evenodd" d="M1044.61 170.936C1040.87 170.954 1037.63 171.857 1034.91 173.186C1033.91 171.206 1032.91 169.477 1032.73 168.183C1032.54 166.681 1032.31 165.769 1032.54 163.971C1032.77 162.182 1033.81 159.637 1033.81 159.428C1033.79 159.237 1033.59 158.325 1031.43 158.299C1029.28 158.282 1027.41 158.716 1027.2 159.281C1026.99 159.845 1026.58 161.139 1026.31 162.468C1025.93 164.431 1022 171.371 1019.77 175.019C1019.04 173.603 1018.41 172.352 1018.29 171.353C1018.09 169.851 1017.87 168.939 1018.09 167.141C1018.32 165.352 1019.37 162.807 1019.37 162.599C1019.35 162.408 1019.14 161.496 1016.98 161.469C1014.83 161.452 1012.97 161.886 1012.76 162.451C1012.55 163.015 1012.32 164.344 1011.86 165.638C1011.42 166.933 1006.2 178.519 1004.84 181.541C1004.15 183.087 1003.54 184.312 1003.11 185.146C1002.67 185.979 1003.09 185.206 1003.05 185.293C1002.67 186.005 1002.46 186.396 1002.46 186.396V186.414C1002.17 186.935 1001.86 187.438 1001.72 187.438C1001.61 187.438 1001.4 186.04 1001.76 184.121C1002.53 180.099 1004.42 173.82 1004.39 173.594C1004.39 173.49 1004.75 172.387 1003.18 171.822C1001.65 171.258 1001.11 172.196 1000.98 172.196C1000.86 172.196 1000.76 172.526 1000.76 172.526C1000.76 172.526 1002.45 165.456 997.519 165.456C994.427 165.456 990.161 168.809 988.053 171.874C986.712 172.604 983.874 174.15 980.861 175.792C979.711 176.417 978.519 177.086 977.395 177.685L977.169 177.433C971.187 171.101 960.128 166.602 960.589 158.056C960.755 154.947 961.843 146.757 981.827 136.838C998.189 128.709 1011.29 130.941 1013.58 135.9C1016.81 142.987 1006.57 156.163 989.56 158.056C983.081 158.786 979.677 156.284 978.815 155.346C977.918 154.365 977.787 154.322 977.456 154.513C976.916 154.808 977.247 155.676 977.456 156.198C977.961 157.509 980.051 159.845 983.604 161.009C986.721 162.034 994.323 162.59 1003.52 159.046C1013.82 155.068 1021.87 144.012 1019.51 134.78C1017.1 125.391 1001.47 122.299 986.695 127.536C977.9 130.663 968.365 135.544 961.512 141.945C953.362 149.527 952.065 156.154 952.604 158.907C954.503 168.73 968.069 175.123 973.503 179.856C973.233 180.004 972.98 180.152 972.754 180.273C970.037 181.611 959.693 187.004 957.098 192.719C954.172 199.181 957.559 203.836 959.814 204.462C966.798 206.398 973.947 202.916 977.813 197.183C981.662 191.451 981.2 184.008 979.424 180.612L979.363 180.49L981.497 179.24C982.872 178.423 984.231 177.676 985.424 177.033C984.753 178.849 984.274 180.994 984.022 184.121C983.726 187.786 985.232 192.545 987.217 194.421C988.097 195.238 989.142 195.255 989.786 195.255C992.085 195.255 993.13 193.362 994.279 191.086C995.699 188.316 996.953 185.102 996.953 185.102C996.953 185.102 995.385 193.796 999.669 193.796C1001.24 193.796 1002.8 191.772 1003.52 190.73V190.748C1003.52 190.748 1003.56 190.687 1003.64 190.539C1003.73 190.409 1003.81 190.279 1003.89 190.14V190.096C1004.52 189.01 1005.92 186.535 1008.01 182.427C1010.71 177.129 1013.3 170.502 1013.3 170.502C1013.3 170.502 1013.55 172.126 1014.32 174.793C1014.79 176.373 1015.79 178.11 1016.56 179.795C1015.94 180.673 1015.56 181.168 1015.56 181.168L1015.58 181.185C1015.07 181.854 1014.52 182.557 1013.92 183.27C1011.79 185.814 1009.24 188.706 1008.91 189.54C1008.51 190.522 1008.59 191.251 1009.37 191.833C1009.94 192.25 1010.94 192.337 1012 192.25C1013.92 192.128 1015.26 191.642 1015.93 191.355C1016.97 190.982 1018.16 190.417 1019.31 189.584C1021.4 188.038 1022.68 185.849 1022.55 182.931C1022.49 181.324 1021.97 179.743 1021.32 178.241C1021.51 177.972 1021.69 177.702 1021.88 177.407C1025.18 172.595 1027.73 167.297 1027.73 167.297C1027.73 167.297 1027.99 168.921 1028.76 171.588C1029.16 172.943 1029.95 174.419 1030.66 175.878C1027.57 178.397 1025.63 181.315 1024.96 183.235C1023.72 186.778 1024.69 188.385 1026.51 188.759C1027.33 188.924 1028.49 188.55 1029.37 188.177C1030.46 187.821 1031.77 187.221 1032.99 186.318C1035.07 184.772 1037.08 182.627 1036.97 179.735C1036.91 178.397 1036.56 177.086 1036.08 175.835C1038.71 174.749 1042.12 174.124 1046.44 174.645C1055.74 175.731 1057.58 181.524 1057.23 183.938C1056.87 186.353 1054.93 187.69 1054.28 188.107C1053.64 188.507 1053.43 188.646 1053.49 188.941C1053.58 189.375 1053.87 189.358 1054.43 189.271C1055.21 189.149 1059.33 187.291 1059.49 182.827C1059.74 177.129 1054.28 170.876 1044.61 170.936ZM972.885 195.055C969.811 198.408 965.483 199.685 963.646 198.599C961.66 197.453 962.435 192.511 966.215 188.95C968.513 186.778 971.5 184.781 973.468 183.547C973.903 183.278 974.574 182.879 975.366 182.401C975.488 182.314 975.575 182.279 975.575 182.279C975.723 182.193 975.889 182.088 976.054 181.984C977.456 187.074 976.124 191.529 972.885 195.055ZM995.35 179.821C994.288 182.427 992.024 189.123 990.666 188.741C989.499 188.429 988.785 183.365 990.439 178.362C991.275 175.844 993.052 172.839 994.097 171.675C995.786 169.799 997.632 169.173 998.085 169.946C998.633 170.936 996.021 178.189 995.35 179.821ZM1013.89 188.654C1013.43 188.88 1013.01 189.054 1012.83 188.924C1012.68 188.837 1013.02 188.524 1013.02 188.524C1013.02 188.524 1015.33 186.04 1016.26 184.894C1016.78 184.225 1017.41 183.452 1018.08 182.583V182.835C1018.07 185.84 1015.19 187.847 1013.89 188.654ZM1028.19 185.406C1027.86 185.154 1027.89 184.381 1029.02 181.967C1029.46 181.011 1030.47 179.405 1032.2 177.885C1032.41 178.51 1032.53 179.118 1032.51 179.674C1032.49 183.426 1029.82 184.824 1028.19 185.406Z" fill="#CF649A"/>
</g>
<rect x="1033" y="343" width="140" height="140" rx="70" fill="#F3F3F3"/>
<g clip-path="url(#clip3_1482_2)">
<path d="M1080.45 411.682C1080.45 411.682 1080.45 411.693 1080.45 411.7L1079.03 417.92C1078.95 418.272 1078.61 418.53 1078.2 418.53H1076.49C1076.36 418.53 1076.25 418.615 1076.21 418.738C1074.63 424.156 1072.49 427.881 1069.66 430.117C1067.25 432.021 1064.29 432.908 1060.32 432.908C1056.76 432.908 1054.36 431.752 1052.32 429.47C1049.63 426.454 1048.52 421.516 1049.19 415.566C1050.41 404.397 1056.15 393.127 1067.2 393.127C1070.56 393.096 1073.2 394.143 1075.04 396.233C1076.98 398.443 1077.96 401.772 1077.97 406.128C1077.96 406.524 1077.63 406.843 1077.24 406.843H1069.15C1068.86 406.843 1068.6 406.583 1068.61 406.296C1068.54 403.284 1067.66 401.815 1065.9 401.815C1062.79 401.815 1060.96 406.069 1059.99 408.427C1058.63 411.721 1057.94 415.297 1058.08 418.86C1058.14 420.519 1058.41 422.852 1059.97 423.818C1061.35 424.674 1063.33 424.106 1064.52 423.158C1065.72 422.209 1066.68 420.567 1067.08 419.07C1067.14 418.862 1067.14 418.701 1067.09 418.629C1067.03 418.554 1066.87 418.537 1066.75 418.537H1064.67C1064.45 418.537 1064.23 418.434 1064.1 418.268C1063.98 418.128 1063.94 417.955 1063.98 417.785L1065.4 411.553C1065.47 411.234 1065.76 410.994 1066.11 410.95V410.934H1079.76C1079.79 410.934 1079.82 410.934 1079.85 410.941C1080.21 410.987 1080.46 411.319 1080.45 411.682H1080.45Z" fill="#0E100F"/>
<path d="M1103.94 404.532C1103.94 404.921 1103.61 405.24 1103.22 405.24H1095.76C1095.27 405.24 1094.87 404.84 1094.87 404.353C1094.87 402.156 1094.11 401.087 1092.57 401.087C1091.03 401.087 1090.04 402.043 1090.01 403.71C1089.98 405.57 1091.02 407.26 1093.99 410.165C1097.89 413.863 1099.46 417.14 1099.38 421.47C1099.26 428.473 1094.54 433 1087.36 433C1083.7 433 1080.9 432.01 1079.04 430.058C1077.14 428.075 1076.28 425.166 1076.46 421.411C1076.47 421.022 1076.79 420.705 1077.18 420.705H1084.9C1085.11 420.705 1085.32 420.808 1085.46 420.983C1085.58 421.133 1085.63 421.319 1085.6 421.494C1085.51 422.849 1085.74 423.861 1086.27 424.421C1086.61 424.784 1087.08 424.967 1087.67 424.967C1089.09 424.967 1089.93 423.951 1089.96 422.18C1089.99 420.65 1089.51 419.308 1086.9 416.596C1083.52 413.267 1080.49 409.828 1080.59 404.421C1080.64 401.286 1081.88 398.419 1084.06 396.346C1086.37 394.156 1089.54 393 1093.21 393C1096.88 393.026 1099.67 394.084 1101.49 396.145C1103.21 398.099 1104.04 400.921 1103.95 404.532H1103.94Z" fill="#0E100F"/>
<path d="M1127.06 431.682L1127.11 394.438C1127.12 394.047 1126.8 393.728 1126.41 393.728H1114.87C1114.48 393.728 1114.31 394.064 1114.2 394.287L1097.49 431.455V431.461C1097.49 431.461 1097.48 431.468 1097.48 431.47C1097.29 431.927 1097.65 432.416 1098.14 432.416H1106.2C1106.64 432.416 1106.93 432.283 1107.07 432.005L1108.67 428.119C1108.87 427.601 1108.91 427.553 1109.47 427.553H1117.18C1117.71 427.553 1117.72 427.564 1117.71 428.093L1117.54 431.706C1117.54 432.097 1117.85 432.416 1118.24 432.416H1126.39C1126.6 432.416 1126.79 432.329 1126.92 432.174C1127.04 432.036 1127.09 431.861 1127.06 431.682ZM1112.78 419.247C1112.71 419.247 1112.65 419.245 1112.6 419.24C1112.48 419.23 1112.4 419.113 1112.43 418.996C1112.44 418.941 1112.47 418.869 1112.5 418.779L1118.28 404.342C1118.33 404.2 1118.39 404.06 1118.46 403.925C1118.55 403.73 1118.67 403.717 1118.7 403.861C1118.73 403.981 1118.04 418.685 1118.04 418.685C1117.98 419.236 1117.96 419.258 1117.42 419.304L1112.79 419.249H1112.78L1112.78 419.247Z" fill="#0E100F"/>
<path d="M1143.5 393.728H1137.38C1137.05 393.728 1136.69 393.9 1136.6 394.29C1136.6 394.29 1128.08 431.658 1128.08 431.662C1128.04 431.835 1128.08 432.005 1128.19 432.147C1128.33 432.313 1128.55 432.416 1128.77 432.416H1136.43C1136.84 432.416 1137.12 432.213 1137.2 431.859C1137.2 431.859 1138.13 427.636 1138.13 427.623C1138.19 427.293 1138.08 427.037 1137.79 426.882C1137.65 426.81 1137.51 426.738 1137.38 426.666L1136.05 425.968L1134.73 425.273C1134.56 425.183 1134.38 425.094 1134.22 425.004C1134.13 424.961 1134.08 424.873 1134.08 424.777C1134.08 424.635 1134.2 424.519 1134.34 424.519L1138.54 424.539C1139.8 424.545 1141.05 424.456 1142.29 424.226C1150.98 422.606 1156.75 415.579 1156.92 406.018C1157.06 397.859 1152.55 393.723 1143.51 393.723L1143.5 393.728ZM1141.42 415.968H1141.25C1140.89 415.968 1140.82 415.927 1140.81 415.913C1140.8 415.905 1143.23 405.151 1143.23 405.135C1143.29 404.825 1143.29 404.646 1143.1 404.541C1142.86 404.405 1139.31 402.519 1139.31 402.519C1139.23 402.473 1139.18 402.386 1139.18 402.29C1139.18 402.15 1139.3 402.034 1139.44 402.034H1145.04C1146.79 402.088 1147.76 403.662 1147.71 406.351C1147.63 411.006 1145.44 415.804 1141.42 415.968Z" fill="#0E100F"/>
<path d="M1149.74 432.416C1151 432.416 1151.98 431.448 1151.98 430.143C1151.98 428.838 1151 427.87 1149.74 427.87C1148.48 427.87 1147.48 428.838 1147.48 430.143C1147.48 431.448 1148.47 432.416 1149.74 432.416ZM1148.01 430.134C1148.01 429.026 1148.67 428.301 1149.74 428.301C1150.8 428.301 1151.45 429.024 1151.45 430.134C1151.45 431.245 1150.8 431.975 1149.74 431.975C1148.67 431.975 1148.01 431.251 1148.01 430.134ZM1148.75 431.354H1149.46V430.48H1149.67C1150.21 430.48 1149.97 431.251 1150.11 431.354H1150.85V431.317C1150.71 431.28 1150.93 430.311 1150.31 430.209V430.198C1150.61 430.134 1150.81 429.916 1150.81 429.588C1150.81 429.118 1150.47 428.864 1149.92 428.864H1148.74V431.354H1148.75ZM1149.46 429.953V429.369H1149.71C1149.95 429.369 1150.09 429.446 1150.09 429.66C1150.09 429.857 1149.95 429.951 1149.71 429.951H1149.46V429.953Z" fill="#0E100F"/>
</g>
<rect x="720" y="273" width="140" height="140" rx="70" fill="#F3F3F3"/>
<path d="M822.243 318.104L790.576 306.438C790.204 306.301 789.796 306.301 789.424 306.438L757.757 318.104C757.406 318.233 757.109 318.476 756.914 318.794C756.718 319.113 756.635 319.488 756.678 319.859L761.678 363.192C761.708 363.453 761.799 363.704 761.945 363.923C762.091 364.142 762.287 364.323 762.516 364.452L789.183 379.452C789.432 379.593 789.714 379.667 790 379.667C790.286 379.667 790.568 379.593 790.817 379.452L817.484 364.452C817.713 364.323 817.909 364.142 818.055 363.923C818.201 363.704 818.292 363.453 818.322 363.192L823.322 319.859C823.365 319.488 823.282 319.113 823.086 318.794C822.891 318.476 822.593 318.233 822.243 318.104Z" fill="black"/>
<path d="M815.11 361.963L790 376.09L764.89 361.963L760.14 320.777L790 309.777L819.86 320.777L815.11 361.963Z" fill="#FF1744"/>
<path opacity="0.1" d="M789.417 309.993V375.763L790 376.09L815.11 361.963L819.86 320.777L790 309.777L789.417 309.993Z" fill="black"/>
<path d="M788.465 317.352L770.132 360.686C769.96 361.093 769.957 361.551 770.123 361.961C770.29 362.37 770.612 362.696 771.019 362.868C771.426 363.04 771.885 363.043 772.294 362.877C772.703 362.71 773.03 362.388 773.202 361.981L778.412 349.667H801.588L806.798 361.981C806.925 362.283 807.139 362.541 807.412 362.723C807.685 362.904 808.006 363 808.333 363C808.556 363 808.777 362.956 808.983 362.87C809.39 362.697 809.711 362.37 809.877 361.961C810.043 361.551 810.04 361.093 809.868 360.686L791.535 317.352C791.388 317.072 791.167 316.838 790.897 316.674C790.626 316.511 790.316 316.424 790 316.424C789.684 316.424 789.374 316.511 789.103 316.674C788.833 316.838 788.612 317.072 788.465 317.352ZM800.178 346.333H779.822L790 322.277L800.178 346.333Z" fill="white"/>
<path d="M822.243 318.104L790.576 306.438C790.204 306.301 789.796 306.301 789.424 306.438L757.757 318.104C757.406 318.233 757.109 318.476 756.914 318.794C756.718 319.113 756.635 319.488 756.678 319.859L761.678 363.192C761.708 363.453 761.799 363.704 761.945 363.923C762.091 364.142 762.287 364.323 762.516 364.452L789.183 379.452C789.432 379.593 789.714 379.667 790 379.667C790.286 379.667 790.568 379.593 790.817 379.452L817.484 364.452C817.713 364.323 817.909 364.142 818.055 363.923C818.201 363.704 818.292 363.453 818.322 363.192L823.322 319.859C823.365 319.488 823.282 319.113 823.086 318.794C822.891 318.476 822.593 318.233 822.243 318.104Z" fill="url(#paint3_linear_1482_2)"/>
<rect x="893" y="536" width="140" height="140" rx="70" fill="#F3F3F3"/>
<path d="M937.167 567H988.833C996.667 567 1003 573.333 1003 581.167V630.833C1003 638.667 996.667 645 988.833 645H937.167C929.333 645 923 638.667 923 630.833V581.167C923 573.333 929.333 567 937.167 567Z" fill="#001834"/>
<path d="M941 621.7V587.4C941 587.167 941.1 587.033 941.333 587.033C941.9 587.033 942.433 587.033 943.2 587C944 586.967 944.833 586.967 945.733 586.933C946.633 586.9 947.6 586.9 948.633 586.867C949.667 586.833 950.667 586.833 951.667 586.833C954.4 586.833 956.667 587.167 958.533 587.867C960.2 588.433 961.733 589.367 963 590.6C964.067 591.667 964.9 592.967 965.433 594.4C965.933 595.8 966.2 597.233 966.2 598.733C966.2 601.6 965.533 603.966 964.2 605.833C962.867 607.7 961 609.1 958.833 609.9C956.567 610.733 954.067 611.033 951.333 611.033C950.533 611.033 950 611.033 949.667 611C949.333 610.967 948.867 610.967 948.233 610.967V621.667C948.267 621.9 948.1 622.1 947.867 622.133C947.833 622.133 947.8 622.133 947.733 622.133H941.4C941.133 622.133 941 622 941 621.7ZM948.267 593.467V604.667C948.733 604.7 949.167 604.733 949.567 604.733H951.333C953.635 604.733 956.293 604.192 957.9 602.367C959.283 600.796 959.287 597.68 958.167 595.967C956.837 593.934 954.179 593.345 951.9 593.4C951.033 593.4 950.267 593.4 949.633 593.433C948.967 593.4 948.5 593.433 948.267 593.467Z" fill="#00A9FF"/>
<path d="M987 602.633C986 602.1 984.933 601.733 983.8 601.5C982.567 601.233 981.333 601.067 980.067 601.067C979.4 601.033 978.7 601.133 978.067 601.3C977.633 601.4 977.267 601.633 977.033 601.967C976.867 602.233 976.767 602.567 976.767 602.867C976.767 603.167 976.9 603.467 977.1 603.733C977.4 604.1 977.8 604.4 978.233 604.633C979 605.033 979.8 605.4 980.6 605.733C982.4 606.333 984.133 607.167 985.733 608.167C986.833 608.867 987.733 609.8 988.367 610.933C988.9 612 989.167 613.167 989.133 614.367C989.167 615.933 988.7 617.5 987.833 618.8C986.9 620.133 985.6 621.167 984.1 621.767C982.467 622.467 980.467 622.833 978.067 622.833C976.533 622.833 975.033 622.7 973.533 622.4C972.367 622.2 971.2 621.833 970.133 621.333C969.9 621.2 969.733 620.967 969.767 620.7V614.9C969.767 614.8 969.8 614.667 969.9 614.6C970 614.533 970.1 614.567 970.2 614.633C971.5 615.4 972.867 615.933 974.333 616.267C975.6 616.6 976.933 616.767 978.267 616.767C979.533 616.767 980.433 616.6 981.033 616.3C981.567 616.067 981.933 615.5 981.933 614.9C981.933 614.433 981.667 614 981.133 613.567C980.6 613.133 979.5 612.633 977.867 612C976.167 611.4 974.6 610.6 973.133 609.6C972.1 608.867 971.233 607.9 970.6 606.767C970.067 605.7 969.8 604.533 969.833 603.367C969.833 601.933 970.233 600.567 970.967 599.333C971.8 598 973.033 596.933 974.467 596.267C976.033 595.467 978 595.1 980.367 595.1C981.733 595.1 983.133 595.2 984.5 595.4C985.5 595.533 986.467 595.8 987.367 596.167C987.5 596.2 987.633 596.333 987.7 596.467C987.733 596.6 987.767 596.733 987.767 596.867V602.3C987.767 602.433 987.7 602.567 987.6 602.633C987.3 602.7 987.133 602.7 987 602.633Z" fill="#00A9FF"/>
<rect x="1228" y="243" width="140" height="140" rx="70" fill="#F3F3F3"/>
<g clip-path="url(#clip4_1482_2)">
<path d="M1263.81 292.565C1256.72 302.747 1257.61 315.989 1263.01 326.808C1263.14 327.064 1263.28 327.317 1263.41 327.573C1263.49 327.736 1263.57 327.901 1263.66 328.064L1263.82 328.344C1263.91 328.515 1264.01 328.677 1264.1 328.848C1264.27 329.144 1264.44 329.437 1264.62 329.733C1264.72 329.896 1264.81 330.056 1264.91 330.219C1265.11 330.531 1265.3 330.843 1265.51 331.157C1265.6 331.288 1265.68 331.424 1265.77 331.552C1266.05 331.968 1266.34 332.389 1266.63 332.803C1266.65 332.813 1266.65 332.829 1266.66 332.835C1266.71 332.901 1266.76 332.971 1266.81 333.032C1267.07 333.392 1267.33 333.741 1267.6 334.085C1267.7 334.216 1267.8 334.341 1267.9 334.467C1268.14 334.768 1268.38 335.067 1268.63 335.368C1268.72 335.477 1268.81 335.592 1268.91 335.701C1269.24 336.091 1269.58 336.483 1269.93 336.864C1269.93 336.869 1269.94 336.88 1269.95 336.885C1269.97 336.907 1269.98 336.912 1269.99 336.933C1270.33 337.304 1270.67 337.661 1271.02 338.021C1271.13 338.136 1271.24 338.245 1271.36 338.355C1271.63 338.632 1271.9 338.901 1272.18 339.168C1272.3 339.277 1272.41 339.387 1272.52 339.491C1272.9 339.84 1273.27 340.184 1273.66 340.523C1273.66 340.528 1273.67 340.533 1273.67 340.533C1273.74 340.595 1273.81 340.648 1273.87 340.704C1274.21 340.995 1274.55 341.288 1274.9 341.573C1275.04 341.688 1275.18 341.797 1275.33 341.912C1275.61 342.136 1275.9 342.36 1276.18 342.584C1276.34 342.699 1276.49 342.813 1276.64 342.933C1276.96 343.168 1277.28 343.397 1277.6 343.621C1277.72 343.709 1277.84 343.792 1277.95 343.872C1277.99 343.893 1278.02 343.92 1278.05 343.939C1278.36 344.152 1278.67 344.355 1278.99 344.557C1279.12 344.645 1279.26 344.739 1279.39 344.829C1279.87 345.131 1280.36 345.435 1280.85 345.725C1280.99 345.803 1281.13 345.877 1281.26 345.955C1281.62 346.163 1281.99 346.365 1282.36 346.568C1282.55 346.677 1282.76 346.776 1282.97 346.88C1283.23 347.016 1283.49 347.157 1283.75 347.285C1283.81 347.317 1283.87 347.347 1283.93 347.373C1284.04 347.427 1284.15 347.477 1284.25 347.531C1284.66 347.728 1285.08 347.92 1285.5 348.109C1285.59 348.152 1285.67 348.187 1285.77 348.224C1286.25 348.437 1286.73 348.64 1287.22 348.829C1287.34 348.883 1287.45 348.923 1287.57 348.971C1288.03 349.147 1288.49 349.32 1288.94 349.48C1289 349.501 1289.06 349.517 1289.11 349.536C1289.62 349.712 1290.13 349.88 1290.65 350.037C1290.77 350.075 1290.89 350.115 1291.02 350.147C1291.54 350.309 1292.05 350.496 1292.59 350.595C1326.85 356.84 1336.79 330.011 1336.79 330.011C1328.44 340.896 1313.61 343.771 1299.55 340.573C1299.02 340.453 1298.5 340.288 1297.98 340.131C1297.85 340.093 1297.72 340.053 1297.59 340.011C1297.09 339.859 1296.58 339.693 1296.09 339.52C1296.02 339.493 1295.95 339.472 1295.88 339.448C1295.43 339.285 1294.99 339.125 1294.54 338.952C1294.42 338.899 1294.3 338.853 1294.17 338.805C1293.69 338.613 1293.21 338.416 1292.73 338.205C1292.64 338.163 1292.54 338.123 1292.45 338.08C1292.04 337.893 1291.64 337.704 1291.23 337.512C1291.12 337.459 1291 337.403 1290.88 337.344C1290.57 337.187 1290.26 337.027 1289.94 336.864C1289.74 336.755 1289.53 336.651 1289.32 336.536C1288.94 336.333 1288.57 336.125 1288.19 335.907C1288.07 335.84 1287.94 335.771 1287.81 335.699C1287.32 335.408 1286.83 335.104 1286.35 334.797C1286.22 334.715 1286.09 334.627 1285.95 334.536C1285.61 334.312 1285.26 334.077 1284.91 333.843C1284.8 333.765 1284.69 333.68 1284.58 333.608C1284.25 333.373 1283.92 333.133 1283.59 332.893C1283.44 332.784 1283.3 332.675 1283.16 332.56C1282.86 332.336 1282.56 332.107 1282.27 331.867C1282.13 331.763 1282 331.653 1281.87 331.549C1281.5 331.243 1281.13 330.936 1280.77 330.616C1280.73 330.584 1280.69 330.549 1280.64 330.512C1280.25 330.168 1279.86 329.813 1279.48 329.456C1279.36 329.355 1279.25 329.251 1279.15 329.147C1278.86 328.875 1278.58 328.605 1278.31 328.323C1278.2 328.213 1278.09 328.109 1277.98 328C1277.63 327.64 1277.29 327.28 1276.95 326.912C1276.94 326.896 1276.92 326.875 1276.9 326.859C1276.55 326.469 1276.2 326.072 1275.86 325.672C1275.77 325.563 1275.68 325.459 1275.59 325.349C1275.34 325.048 1275.09 324.736 1274.84 324.421C1274.75 324.312 1274.66 324.197 1274.57 324.083C1274.27 323.696 1273.98 323.317 1273.7 322.931C1265.9 312.288 1263.09 297.611 1269.33 285.555" fill="black"/>
<path d="M1285.79 283.987C1280.67 291.363 1280.95 301.227 1284.94 309.024C1285.61 310.331 1286.37 311.597 1287.21 312.805C1287.98 313.904 1288.83 315.216 1289.85 316.093C1290.22 316.499 1290.6 316.901 1291 317.285C1291.1 317.389 1291.2 317.488 1291.3 317.587C1291.68 317.957 1292.07 318.32 1292.47 318.675C1292.49 318.691 1292.5 318.707 1292.52 318.717C1292.53 318.722 1292.53 318.723 1292.53 318.728C1292.98 319.117 1293.44 319.493 1293.9 319.864C1294.01 319.941 1294.11 320.027 1294.22 320.109C1294.69 320.469 1295.16 320.819 1295.65 321.157C1295.66 321.168 1295.68 321.178 1295.69 321.189C1295.91 321.341 1296.13 321.474 1296.35 321.621C1296.45 321.688 1296.55 321.763 1296.66 321.824C1297.01 322.048 1297.36 322.266 1297.72 322.474C1297.77 322.507 1297.82 322.531 1297.87 322.562C1298.18 322.739 1298.49 322.917 1298.81 323.088C1298.92 323.149 1299.03 323.202 1299.14 323.258C1299.36 323.373 1299.58 323.488 1299.8 323.603C1299.84 323.618 1299.87 323.635 1299.9 323.645C1300.35 323.869 1300.81 324.083 1301.27 324.285C1301.37 324.328 1301.47 324.368 1301.58 324.41C1301.95 324.568 1302.32 324.722 1302.7 324.864C1302.86 324.925 1303.02 324.984 1303.18 325.04C1303.53 325.17 1303.87 325.285 1304.22 325.4C1304.37 325.453 1304.53 325.504 1304.68 325.552C1305.18 325.704 1305.66 325.901 1306.18 325.984C1332.62 330.365 1338.73 310.008 1338.73 310.008C1333.22 317.928 1322.57 321.715 1311.19 318.76C1310.69 318.624 1310.19 318.483 1309.69 318.328C1309.54 318.28 1309.4 318.229 1309.25 318.181C1308.89 318.067 1308.54 317.947 1308.19 317.816C1308.03 317.76 1307.88 317.701 1307.72 317.645C1307.34 317.499 1306.97 317.349 1306.59 317.187C1306.49 317.144 1306.39 317.104 1306.29 317.061C1305.82 316.859 1305.36 316.64 1304.91 316.416C1304.67 316.307 1304.45 316.187 1304.22 316.067C1304.09 316 1303.95 315.925 1303.82 315.859C1303.53 315.701 1303.23 315.536 1302.94 315.371C1302.87 315.328 1302.8 315.293 1302.73 315.253C1302.38 315.045 1302.02 314.826 1301.68 314.608C1301.57 314.536 1301.46 314.461 1301.35 314.395C1301.13 314.243 1300.9 314.093 1300.67 313.936C1300.18 313.603 1299.71 313.248 1299.24 312.893C1299.13 312.805 1299.02 312.723 1298.92 312.637C1293.94 308.704 1289.99 303.336 1288.11 297.243C1286.15 290.925 1286.57 283.837 1289.98 278.08" fill="black"/>
<path d="M1304.28 277.581C1301.26 282.024 1300.97 287.544 1303.06 292.451C1305.27 297.664 1309.8 301.747 1315.08 303.685C1315.3 303.768 1315.52 303.843 1315.74 303.915C1315.84 303.947 1315.93 303.976 1316.03 304.008C1316.34 304.101 1316.65 304.216 1316.97 304.28C1331.58 307.104 1335.53 296.784 1336.59 295.264C1333.11 300.264 1327.29 301.461 1320.13 299.723C1319.57 299.587 1318.95 299.384 1318.41 299.192C1317.7 298.941 1317.02 298.656 1316.35 298.339C1315.08 297.728 1313.87 296.989 1312.74 296.141C1306.34 291.283 1302.36 282.016 1306.54 274.469" fill="black"/>
</g>
<rect x="529" y="65" width="140" height="140" rx="70" fill="#F3F3F3"/>
<g clip-path="url(#clip5_1482_2)">
<path d="M627.339 110.722L622.175 168.566L598.965 175L575.819 168.575L570.661 110.722H627.339Z" fill="#004CE8"/>
<path d="M617.755 164.882L622.167 115.452H599V170.082L617.755 164.882Z" fill="#0065F4"/>
<path d="M582.486 136.909L583.122 144.004H599L602.052 140.457L599 136.909H582.486Z" fill="#EBEBEB"/>
<path d="M599 122.548H598.975H581.208L581.853 129.643H599L602.052 126.095L599 122.548Z" fill="#EBEBEB"/>
<path d="M599 162.719L602.052 158.956L599 155.336L598.969 155.345L591.067 153.211L590.562 147.552H586.722H583.439L584.433 158.693L598.967 162.728L599 162.719Z" fill="#EBEBEB"/>
<path d="M607.713 144.004L606.889 153.206L598.975 155.342V162.724L613.521 158.693L613.628 157.494L615.295 138.814L615.469 136.909L616.75 122.548H598.975V129.643H608.974L608.328 136.909H598.975V144.004H607.713Z" fill="white"/>
</g>
<rect x="110" y="423" width="140" height="140" rx="70" fill="#F3F3F3"/>
<g clip-path="url(#clip6_1482_2)">
<path d="M140 453L146.667 526.333L180 533L213.333 526.333L220 453H140ZM176.667 518.732L159.043 515.213L157.933 503H164.629L165.232 509.653L170 510.604V466.333H176.667V518.732H176.667ZM204.792 473H190V489.667H203.278L200.957 515.214L183.333 518.733V511.936L194.766 509.654L195.977 496.334H183.333V466.334H205.397L204.792 473Z" fill="black"/>
</g>
<rect x="349" y="523" width="140" height="140" rx="70" fill="#F3F3F3"/>
<path d="M419.094 593C419.094 585.636 425.063 579.667 432.427 579.667C439.791 579.667 445.76 585.636 445.76 593C445.76 600.364 439.79 606.333 432.427 606.333C425.063 606.333 419.094 600.364 419.094 593Z" fill="#00BCFF"/>
<path d="M392.427 619.667C392.427 612.303 398.396 606.333 405.76 606.333L412.866 602.582L419.093 606.333V619.667C419.093 627.031 413.124 633 405.76 633C398.396 633 392.427 627.03 392.427 619.667Z" fill="#00CF7F"/>
<path d="M419.094 553L411.838 565.605L419.094 579.667H432.24C439.604 579.667 445.573 573.697 445.573 566.333C445.573 558.97 439.604 553 432.24 553H419.094Z" fill="#FF7361"/>
<path d="M392.24 566.333C392.24 573.697 398.209 579.667 405.573 579.667L412.646 582.398L419.093 579.667V553H405.573C398.209 553 392.24 558.97 392.24 566.333Z" fill="#FF4D12"/>
<path d="M392.427 593C392.427 600.364 398.396 606.333 405.76 606.333H419.093V579.667H405.76C398.396 579.667 392.427 585.636 392.427 593Z" fill="#B659FF"/>
<path d="M221.501 347.832V359H219.261V354.248H214.477V359H212.237V347.832H214.477V352.424H219.261V347.832H221.501ZM231.306 347.832V349.64H228.33V359H226.09V349.64H223.114V347.832H231.306ZM245.116 347.832V359H242.876V351.736L239.884 359H238.188L235.18 351.736V359H232.94V347.832H235.484L239.036 356.136L242.588 347.832H245.116ZM249.571 357.224H253.251V359H247.331V347.832H249.571V357.224ZM262.258 349.272H257.074V352.008C257.298 351.731 257.618 351.507 258.034 351.336C258.45 351.155 258.893 351.064 259.362 351.064C260.216 351.064 260.914 351.251 261.458 351.624C262.002 351.997 262.397 352.477 262.642 353.064C262.888 353.64 263.01 354.259 263.01 354.92C263.01 356.147 262.658 357.133 261.954 357.88C261.261 358.627 260.269 359 258.978 359C257.762 359 256.792 358.696 256.066 358.088C255.341 357.48 254.93 356.685 254.834 355.704H257.01C257.106 356.131 257.32 356.472 257.65 356.728C257.992 356.984 258.424 357.112 258.946 357.112C259.576 357.112 260.05 356.915 260.37 356.52C260.69 356.125 260.85 355.603 260.85 354.952C260.85 354.291 260.685 353.789 260.354 353.448C260.034 353.096 259.56 352.92 258.93 352.92C258.482 352.92 258.109 353.032 257.81 353.256C257.512 353.48 257.298 353.779 257.17 354.152H255.026V347.304H262.258V349.272Z" fill="black"/>
<path d="M579.88 231.4C579.88 230.301 580.126 229.32 580.616 228.456C581.118 227.581 581.795 226.904 582.648 226.424C583.512 225.933 584.478 225.688 585.544 225.688C586.792 225.688 587.886 226.008 588.824 226.648C589.763 227.288 590.419 228.173 590.792 229.304H588.216C587.96 228.771 587.598 228.371 587.128 228.104C586.67 227.837 586.136 227.704 585.528 227.704C584.878 227.704 584.296 227.859 583.784 228.168C583.283 228.467 582.888 228.893 582.6 229.448C582.323 230.003 582.184 230.653 582.184 231.4C582.184 232.136 582.323 232.787 582.6 233.352C582.888 233.907 583.283 234.339 583.784 234.648C584.296 234.947 584.878 235.096 585.528 235.096C586.136 235.096 586.67 234.963 587.128 234.696C587.598 234.419 587.96 234.013 588.216 233.48H590.792C590.419 234.621 589.763 235.512 588.824 236.152C587.896 236.781 586.803 237.096 585.544 237.096C584.478 237.096 583.512 236.856 582.648 236.376C581.795 235.885 581.118 235.208 580.616 234.344C580.126 233.48 579.88 232.499 579.88 231.4ZM596.562 237.112C595.783 237.112 595.079 236.979 594.45 236.712C593.831 236.445 593.34 236.061 592.978 235.56C592.615 235.059 592.428 234.467 592.418 233.784H594.818C594.85 234.243 595.01 234.605 595.298 234.872C595.596 235.139 596.002 235.272 596.514 235.272C597.036 235.272 597.447 235.149 597.746 234.904C598.044 234.648 598.194 234.317 598.194 233.912C598.194 233.581 598.092 233.309 597.89 233.096C597.687 232.883 597.431 232.717 597.122 232.6C596.823 232.472 596.407 232.333 595.874 232.184C595.148 231.971 594.556 231.763 594.098 231.56C593.65 231.347 593.26 231.032 592.93 230.616C592.61 230.189 592.45 229.624 592.45 228.92C592.45 228.259 592.615 227.683 592.946 227.192C593.276 226.701 593.74 226.328 594.338 226.072C594.935 225.805 595.618 225.672 596.386 225.672C597.538 225.672 598.471 225.955 599.186 226.52C599.911 227.075 600.311 227.853 600.386 228.856H597.922C597.9 228.472 597.735 228.157 597.426 227.912C597.127 227.656 596.727 227.528 596.226 227.528C595.788 227.528 595.436 227.64 595.17 227.864C594.914 228.088 594.786 228.413 594.786 228.84C594.786 229.139 594.882 229.389 595.074 229.592C595.276 229.784 595.522 229.944 595.81 230.072C596.108 230.189 596.524 230.328 597.058 230.488C597.783 230.701 598.375 230.915 598.834 231.128C599.292 231.341 599.687 231.661 600.018 232.088C600.348 232.515 600.514 233.075 600.514 233.768C600.514 234.365 600.359 234.92 600.05 235.432C599.74 235.944 599.287 236.355 598.69 236.664C598.092 236.963 597.383 237.112 596.562 237.112ZM606.312 237.112C605.533 237.112 604.829 236.979 604.2 236.712C603.581 236.445 603.09 236.061 602.728 235.56C602.365 235.059 602.178 234.467 602.168 233.784H604.568C604.6 234.243 604.76 234.605 605.048 234.872C605.346 235.139 605.752 235.272 606.264 235.272C606.786 235.272 607.197 235.149 607.496 234.904C607.794 234.648 607.944 234.317 607.944 233.912C607.944 233.581 607.842 233.309 607.64 233.096C607.437 232.883 607.181 232.717 606.872 232.6C606.573 232.472 606.157 232.333 605.624 232.184C604.898 231.971 604.306 231.763 603.848 231.56C603.4 231.347 603.01 231.032 602.68 230.616C602.36 230.189 602.2 229.624 602.2 228.92C602.2 228.259 602.365 227.683 602.696 227.192C603.026 226.701 603.49 226.328 604.088 226.072C604.685 225.805 605.368 225.672 606.136 225.672C607.288 225.672 608.221 225.955 608.936 226.52C609.661 227.075 610.061 227.853 610.136 228.856H607.672C607.65 228.472 607.485 228.157 607.176 227.912C606.877 227.656 606.477 227.528 605.976 227.528C605.538 227.528 605.186 227.64 604.92 227.864C604.664 228.088 604.536 228.413 604.536 228.84C604.536 229.139 604.632 229.389 604.824 229.592C605.026 229.784 605.272 229.944 605.56 230.072C605.858 230.189 606.274 230.328 606.808 230.488C607.533 230.701 608.125 230.915 608.584 231.128C609.042 231.341 609.437 231.661 609.768 232.088C610.098 232.515 610.264 233.075 610.264 233.768C610.264 234.365 610.109 234.92 609.8 235.432C609.49 235.944 609.037 236.355 608.44 236.664C607.842 236.963 607.133 237.112 606.312 237.112ZM611.982 228.408C612.035 227.341 612.408 226.52 613.102 225.944C613.806 225.357 614.728 225.064 615.87 225.064C616.648 225.064 617.315 225.203 617.87 225.48C618.424 225.747 618.84 226.115 619.118 226.584C619.406 227.043 619.55 227.565 619.55 228.152C619.55 228.824 619.374 229.395 619.022 229.864C618.68 230.323 618.27 230.632 617.79 230.792V230.856C618.408 231.048 618.888 231.389 619.23 231.88C619.582 232.371 619.758 233 619.758 233.768C619.758 234.408 619.608 234.979 619.31 235.48C619.022 235.981 618.59 236.376 618.014 236.664C617.448 236.941 616.766 237.08 615.966 237.08C614.76 237.08 613.779 236.776 613.022 236.168C612.264 235.56 611.864 234.664 611.822 233.48H613.998C614.019 234.003 614.195 234.424 614.526 234.744C614.867 235.053 615.331 235.208 615.918 235.208C616.462 235.208 616.878 235.059 617.166 234.76C617.464 234.451 617.614 234.056 617.614 233.576C617.614 232.936 617.411 232.477 617.006 232.2C616.6 231.923 615.971 231.784 615.118 231.784H614.654V229.944H615.118C616.632 229.944 617.39 229.437 617.39 228.424C617.39 227.965 617.251 227.608 616.974 227.352C616.707 227.096 616.318 226.968 615.806 226.968C615.304 226.968 614.915 227.107 614.638 227.384C614.371 227.651 614.216 227.992 614.174 228.408H611.982Z" fill="black"/>
<path d="M991.108 268.112C990.33 268.112 989.626 267.979 988.996 267.712C988.378 267.445 987.887 267.061 987.524 266.56C987.162 266.059 986.975 265.467 986.964 264.784H989.364C989.396 265.243 989.556 265.605 989.844 265.872C990.143 266.139 990.548 266.272 991.06 266.272C991.583 266.272 991.994 266.149 992.292 265.904C992.591 265.648 992.74 265.317 992.74 264.912C992.74 264.581 992.639 264.309 992.436 264.096C992.234 263.883 991.978 263.717 991.668 263.6C991.37 263.472 990.954 263.333 990.42 263.184C989.695 262.971 989.103 262.763 988.644 262.56C988.196 262.347 987.807 262.032 987.476 261.616C987.156 261.189 986.996 260.624 986.996 259.92C986.996 259.259 987.162 258.683 987.492 258.192C987.823 257.701 988.287 257.328 988.884 257.072C989.482 256.805 990.164 256.672 990.932 256.672C992.084 256.672 993.018 256.955 993.732 257.52C994.458 258.075 994.858 258.853 994.932 259.856H992.468C992.447 259.472 992.282 259.157 991.972 258.912C991.674 258.656 991.274 258.528 990.772 258.528C990.335 258.528 989.983 258.64 989.716 258.864C989.46 259.088 989.332 259.413 989.332 259.84C989.332 260.139 989.428 260.389 989.62 260.592C989.823 260.784 990.068 260.944 990.356 261.072C990.655 261.189 991.071 261.328 991.604 261.488C992.33 261.701 992.922 261.915 993.38 262.128C993.839 262.341 994.234 262.661 994.564 263.088C994.895 263.515 995.06 264.075 995.06 264.768C995.06 265.365 994.906 265.92 994.596 266.432C994.287 266.944 993.834 267.355 993.236 267.664C992.639 267.963 991.93 268.112 991.108 268.112ZM1003.85 265.872H999.402L998.666 268H996.314L1000.33 256.816H1002.94L1006.95 268H1004.59L1003.85 265.872ZM1003.24 264.08L1001.63 259.408L1000.01 264.08H1003.24ZM1012.31 268.112C1011.53 268.112 1010.83 267.979 1010.2 267.712C1009.58 267.445 1009.09 267.061 1008.73 266.56C1008.36 266.059 1008.18 265.467 1008.17 264.784H1010.57C1010.6 265.243 1010.76 265.605 1011.05 265.872C1011.35 266.139 1011.75 266.272 1012.26 266.272C1012.79 266.272 1013.2 266.149 1013.5 265.904C1013.79 265.648 1013.94 265.317 1013.94 264.912C1013.94 264.581 1013.84 264.309 1013.64 264.096C1013.44 263.883 1013.18 263.717 1012.87 263.6C1012.57 263.472 1012.16 263.333 1011.62 263.184C1010.9 262.971 1010.31 262.763 1009.85 262.56C1009.4 262.347 1009.01 262.032 1008.68 261.616C1008.36 261.189 1008.2 260.624 1008.2 259.92C1008.2 259.259 1008.36 258.683 1008.7 258.192C1009.03 257.701 1009.49 257.328 1010.09 257.072C1010.68 256.805 1011.37 256.672 1012.14 256.672C1013.29 256.672 1014.22 256.955 1014.94 257.52C1015.66 258.075 1016.06 258.853 1016.14 259.856H1013.67C1013.65 259.472 1013.48 259.157 1013.18 258.912C1012.88 258.656 1012.48 258.528 1011.98 258.528C1011.54 258.528 1011.19 258.64 1010.92 258.864C1010.66 259.088 1010.54 259.413 1010.54 259.84C1010.54 260.139 1010.63 260.389 1010.82 260.592C1011.03 260.784 1011.27 260.944 1011.56 261.072C1011.86 261.189 1012.27 261.328 1012.81 261.488C1013.53 261.701 1014.12 261.915 1014.58 262.128C1015.04 262.341 1015.44 262.661 1015.77 263.088C1016.1 263.515 1016.26 264.075 1016.26 264.768C1016.26 265.365 1016.11 265.92 1015.8 266.432C1015.49 266.944 1015.04 267.355 1014.44 267.664C1013.84 267.963 1013.13 268.112 1012.31 268.112ZM1022.06 268.112C1021.28 268.112 1020.58 267.979 1019.95 267.712C1019.33 267.445 1018.84 267.061 1018.48 266.56C1018.11 266.059 1017.93 265.467 1017.92 264.784H1020.32C1020.35 265.243 1020.51 265.605 1020.8 265.872C1021.1 266.139 1021.5 266.272 1022.01 266.272C1022.54 266.272 1022.95 266.149 1023.25 265.904C1023.54 265.648 1023.69 265.317 1023.69 264.912C1023.69 264.581 1023.59 264.309 1023.39 264.096C1023.19 263.883 1022.93 263.717 1022.62 263.6C1022.32 263.472 1021.91 263.333 1021.37 263.184C1020.65 262.971 1020.06 262.763 1019.6 262.56C1019.15 262.347 1018.76 262.032 1018.43 261.616C1018.11 261.189 1017.95 260.624 1017.95 259.92C1017.95 259.259 1018.11 258.683 1018.45 258.192C1018.78 257.701 1019.24 257.328 1019.84 257.072C1020.43 256.805 1021.12 256.672 1021.89 256.672C1023.04 256.672 1023.97 256.955 1024.69 257.52C1025.41 258.075 1025.81 258.853 1025.89 259.856H1023.42C1023.4 259.472 1023.23 259.157 1022.93 258.912C1022.63 258.656 1022.23 258.528 1021.73 258.528C1021.29 258.528 1020.94 258.64 1020.67 258.864C1020.41 259.088 1020.29 259.413 1020.29 259.84C1020.29 260.139 1020.38 260.389 1020.57 260.592C1020.78 260.784 1021.02 260.944 1021.31 261.072C1021.61 261.189 1022.02 261.328 1022.56 261.488C1023.28 261.701 1023.87 261.915 1024.33 262.128C1024.79 262.341 1025.19 262.661 1025.52 263.088C1025.85 263.515 1026.01 264.075 1026.01 264.768C1026.01 265.365 1025.86 265.92 1025.55 266.432C1025.24 266.944 1024.79 267.355 1024.19 267.664C1023.59 267.963 1022.88 268.112 1022.06 268.112Z" fill="black"/>
<path d="M1271.71 401.832V409.672C1271.71 410.76 1271.4 411.608 1270.77 412.216C1270.14 412.813 1269.29 413.112 1268.24 413.112C1267.17 413.112 1266.31 412.803 1265.65 412.184C1265 411.565 1264.67 410.701 1264.67 409.592H1266.91C1266.92 410.072 1267.03 410.445 1267.25 410.712C1267.47 410.979 1267.79 411.112 1268.21 411.112C1268.61 411.112 1268.92 410.984 1269.13 410.728C1269.35 410.472 1269.45 410.12 1269.45 409.672V401.832H1271.71ZM1282.64 414.968L1280.95 412.936C1280.48 413.053 1280 413.112 1279.51 413.112C1278.46 413.112 1277.5 412.867 1276.63 412.376C1275.75 411.885 1275.06 411.208 1274.55 410.344C1274.03 409.469 1273.78 408.483 1273.78 407.384C1273.78 406.296 1274.03 405.32 1274.55 404.456C1275.06 403.581 1275.75 402.899 1276.63 402.408C1277.5 401.917 1278.46 401.672 1279.51 401.672C1280.56 401.672 1281.52 401.917 1282.39 402.408C1283.26 402.899 1283.95 403.581 1284.45 404.456C1284.96 405.32 1285.22 406.296 1285.22 407.384C1285.22 408.376 1285.01 409.283 1284.58 410.104C1284.16 410.915 1283.59 411.576 1282.87 412.088L1285.43 414.968H1282.64ZM1276.08 407.384C1276.08 408.131 1276.23 408.787 1276.51 409.352C1276.8 409.917 1277.2 410.355 1277.71 410.664C1278.24 410.963 1278.83 411.112 1279.51 411.112C1280.18 411.112 1280.77 410.963 1281.28 410.664C1281.79 410.355 1282.19 409.917 1282.48 409.352C1282.77 408.787 1282.91 408.131 1282.91 407.384C1282.91 406.637 1282.77 405.987 1282.48 405.432C1282.19 404.867 1281.79 404.435 1281.28 404.136C1280.77 403.837 1280.18 403.688 1279.51 403.688C1278.83 403.688 1278.24 403.837 1277.71 404.136C1277.2 404.435 1276.8 404.867 1276.51 405.432C1276.23 405.987 1276.08 406.637 1276.08 407.384ZM1289.12 401.832V408.744C1289.12 409.501 1289.32 410.083 1289.72 410.488C1290.11 410.883 1290.67 411.08 1291.38 411.08C1292.11 411.08 1292.67 410.883 1293.06 410.488C1293.46 410.083 1293.65 409.501 1293.65 408.744V401.832H1295.91V408.728C1295.91 409.677 1295.7 410.483 1295.28 411.144C1294.88 411.795 1294.33 412.285 1293.64 412.616C1292.95 412.947 1292.19 413.112 1291.35 413.112C1290.52 413.112 1289.76 412.947 1289.08 412.616C1288.4 412.285 1287.87 411.795 1287.48 411.144C1287.08 410.483 1286.88 409.677 1286.88 408.728V401.832H1289.12ZM1300.31 403.64V406.44H1304.07V408.216H1300.31V411.176H1304.55V413H1298.07V401.816H1304.55V403.64H1300.31ZM1312.35 413L1309.88 408.648H1308.83V413H1306.59V401.832H1310.78C1311.64 401.832 1312.38 401.987 1312.99 402.296C1313.6 402.595 1314.05 403.005 1314.35 403.528C1314.66 404.04 1314.81 404.616 1314.81 405.256C1314.81 405.992 1314.6 406.659 1314.17 407.256C1313.75 407.843 1313.11 408.248 1312.27 408.472L1314.94 413H1312.35ZM1308.83 406.968H1310.7C1311.31 406.968 1311.76 406.824 1312.06 406.536C1312.36 406.237 1312.51 405.827 1312.51 405.304C1312.51 404.792 1312.36 404.397 1312.06 404.12C1311.76 403.832 1311.31 403.688 1310.7 403.688H1308.83V406.968ZM1325.72 401.832L1321.94 409.112V413H1319.7V409.112L1315.91 401.832H1318.44L1320.84 406.936L1323.22 401.832H1325.72Z" fill="black"/>
<path d="M138.061 583.832V591.672C138.061 592.76 137.747 593.608 137.117 594.216C136.488 594.813 135.645 595.112 134.589 595.112C133.523 595.112 132.659 594.803 131.997 594.184C131.347 593.565 131.021 592.701 131.021 591.592H133.261C133.272 592.072 133.384 592.445 133.597 592.712C133.821 592.979 134.141 593.112 134.557 593.112C134.963 593.112 135.272 592.984 135.485 592.728C135.699 592.472 135.805 592.12 135.805 591.672V583.832H138.061ZM147.522 592.872H143.074L142.338 595H139.986L144.002 583.816H146.61L150.626 595H148.258L147.522 592.872ZM146.914 591.08L145.298 586.408L143.682 591.08H146.914ZM162.159 583.832L158.063 595H155.343L151.247 583.832H153.647L156.719 592.712L159.775 583.832H162.159ZM170.35 592.872H165.902L165.166 595H162.814L166.83 583.816H169.438L173.454 595H171.086L170.35 592.872ZM169.742 591.08L168.126 586.408L166.51 591.08H169.742ZM178.812 595.112C178.033 595.112 177.329 594.979 176.7 594.712C176.081 594.445 175.59 594.061 175.228 593.56C174.865 593.059 174.678 592.467 174.668 591.784H177.068C177.1 592.243 177.26 592.605 177.548 592.872C177.846 593.139 178.252 593.272 178.764 593.272C179.286 593.272 179.697 593.149 179.996 592.904C180.294 592.648 180.444 592.317 180.444 591.912C180.444 591.581 180.342 591.309 180.14 591.096C179.937 590.883 179.681 590.717 179.372 590.6C179.073 590.472 178.657 590.333 178.124 590.184C177.398 589.971 176.806 589.763 176.348 589.56C175.9 589.347 175.51 589.032 175.18 588.616C174.86 588.189 174.7 587.624 174.7 586.92C174.7 586.259 174.865 585.683 175.196 585.192C175.526 584.701 175.99 584.328 176.588 584.072C177.185 583.805 177.868 583.672 178.636 583.672C179.788 583.672 180.721 583.955 181.436 584.52C182.161 585.075 182.561 585.853 182.636 586.856H180.172C180.15 586.472 179.985 586.157 179.676 585.912C179.377 585.656 178.977 585.528 178.476 585.528C178.038 585.528 177.686 585.64 177.42 585.864C177.164 586.088 177.036 586.413 177.036 586.84C177.036 587.139 177.132 587.389 177.324 587.592C177.526 587.784 177.772 587.944 178.06 588.072C178.358 588.189 178.774 588.328 179.308 588.488C180.033 588.701 180.625 588.915 181.084 589.128C181.542 589.341 181.937 589.661 182.268 590.088C182.598 590.515 182.764 591.075 182.764 591.768C182.764 592.365 182.609 592.92 182.3 593.432C181.99 593.944 181.537 594.355 180.94 594.664C180.342 594.963 179.633 595.112 178.812 595.112ZM184.162 589.4C184.162 588.301 184.407 587.32 184.898 586.456C185.399 585.581 186.076 584.904 186.93 584.424C187.794 583.933 188.759 583.688 189.826 583.688C191.074 583.688 192.167 584.008 193.106 584.648C194.044 585.288 194.7 586.173 195.074 587.304H192.498C192.242 586.771 191.879 586.371 191.41 586.104C190.951 585.837 190.418 585.704 189.81 585.704C189.159 585.704 188.578 585.859 188.066 586.168C187.564 586.467 187.17 586.893 186.882 587.448C186.604 588.003 186.466 588.653 186.466 589.4C186.466 590.136 186.604 590.787 186.882 591.352C187.17 591.907 187.564 592.339 188.066 592.648C188.578 592.947 189.159 593.096 189.81 593.096C190.418 593.096 190.951 592.963 191.41 592.696C191.879 592.419 192.242 592.013 192.498 591.48H195.074C194.7 592.621 194.044 593.512 193.106 594.152C192.178 594.781 191.084 595.096 189.826 595.096C188.759 595.096 187.794 594.856 186.93 594.376C186.076 593.885 185.399 593.208 184.898 592.344C184.407 591.48 184.162 590.499 184.162 589.4ZM202.747 595L200.283 590.648H199.227V595H196.987V583.832H201.179C202.043 583.832 202.779 583.987 203.387 584.296C203.995 584.595 204.448 585.005 204.747 585.528C205.056 586.04 205.211 586.616 205.211 587.256C205.211 587.992 204.997 588.659 204.571 589.256C204.144 589.843 203.509 590.248 202.667 590.472L205.339 595H202.747ZM199.227 588.968H201.099C201.707 588.968 202.16 588.824 202.459 588.536C202.757 588.237 202.907 587.827 202.907 587.304C202.907 586.792 202.757 586.397 202.459 586.12C202.16 585.832 201.707 585.688 201.099 585.688H199.227V588.968ZM209.477 583.832V595H207.237V583.832H209.477ZM219.834 587.288C219.834 587.885 219.69 588.445 219.402 588.968C219.125 589.491 218.682 589.912 218.074 590.232C217.477 590.552 216.719 590.712 215.802 590.712H213.93V595H211.69V583.832H215.802C216.666 583.832 217.402 583.981 218.01 584.28C218.618 584.579 219.071 584.989 219.37 585.512C219.679 586.035 219.834 586.627 219.834 587.288ZM215.706 588.904C216.325 588.904 216.783 588.765 217.082 588.488C217.381 588.2 217.53 587.8 217.53 587.288C217.53 586.2 216.922 585.656 215.706 585.656H213.93V588.904H215.706ZM229.024 583.832V585.64H226.048V595H223.808V585.64H220.832V583.832H229.024Z" fill="black"/>
<path d="M469.997 471L467.533 466.648H466.477V471H464.237V459.832H468.429C469.293 459.832 470.029 459.987 470.637 460.296C471.245 460.595 471.698 461.005 471.997 461.528C472.306 462.04 472.461 462.616 472.461 463.256C472.461 463.992 472.247 464.659 471.821 465.256C471.394 465.843 470.759 466.248 469.917 466.472L472.589 471H469.997ZM466.477 464.968H468.349C468.957 464.968 469.41 464.824 469.709 464.536C470.007 464.237 470.157 463.827 470.157 463.304C470.157 462.792 470.007 462.397 469.709 462.12C469.41 461.832 468.957 461.688 468.349 461.688H466.477V464.968ZM476.727 461.64V464.44H480.487V466.216H476.727V469.176H480.967V471H474.487V459.816H480.967V461.64H476.727ZM489.85 468.872H485.402L484.666 471H482.314L486.33 459.816H488.938L492.954 471H490.586L489.85 468.872ZM489.242 467.08L487.626 462.408L486.01 467.08H489.242ZM493.912 465.4C493.912 464.301 494.157 463.32 494.648 462.456C495.149 461.581 495.826 460.904 496.68 460.424C497.544 459.933 498.509 459.688 499.576 459.688C500.824 459.688 501.917 460.008 502.856 460.648C503.794 461.288 504.45 462.173 504.824 463.304H502.248C501.992 462.771 501.629 462.371 501.16 462.104C500.701 461.837 500.168 461.704 499.56 461.704C498.909 461.704 498.328 461.859 497.816 462.168C497.314 462.467 496.92 462.893 496.632 463.448C496.354 464.003 496.216 464.653 496.216 465.4C496.216 466.136 496.354 466.787 496.632 467.352C496.92 467.907 497.314 468.339 497.816 468.648C498.328 468.947 498.909 469.096 499.56 469.096C500.168 469.096 500.701 468.963 501.16 468.696C501.629 468.419 501.992 468.013 502.248 467.48H504.824C504.45 468.621 503.794 469.512 502.856 470.152C501.928 470.781 500.834 471.096 499.576 471.096C498.509 471.096 497.544 470.856 496.68 470.376C495.826 469.885 495.149 469.208 494.648 468.344C494.157 467.48 493.912 466.499 493.912 465.4ZM514.337 459.832V461.64H511.361V471H509.121V461.64H506.145V459.832H514.337Z" fill="black"/>
<path d="M756.1 444.872H751.652L750.916 447H748.564L752.58 435.816H755.188L759.204 447H756.836L756.1 444.872ZM755.492 443.08L753.876 438.408L752.26 443.08H755.492ZM770.258 447H768.018L762.946 439.336V447H760.706V435.816H762.946L768.018 443.496V435.816H770.258V447ZM780.247 439.192C779.991 438.723 779.639 438.365 779.191 438.12C778.743 437.875 778.221 437.752 777.623 437.752C776.962 437.752 776.375 437.901 775.863 438.2C775.351 438.499 774.951 438.925 774.663 439.48C774.375 440.035 774.231 440.675 774.231 441.4C774.231 442.147 774.375 442.797 774.663 443.352C774.962 443.907 775.373 444.333 775.895 444.632C776.418 444.931 777.026 445.08 777.719 445.08C778.573 445.08 779.271 444.856 779.815 444.408C780.359 443.949 780.717 443.315 780.887 442.504H777.047V440.792H783.095V442.744C782.946 443.523 782.626 444.243 782.135 444.904C781.645 445.565 781.01 446.099 780.231 446.504C779.463 446.899 778.599 447.096 777.639 447.096C776.562 447.096 775.586 446.856 774.711 446.376C773.847 445.885 773.165 445.208 772.663 444.344C772.173 443.48 771.927 442.499 771.927 441.4C771.927 440.301 772.173 439.32 772.663 438.456C773.165 437.581 773.847 436.904 774.711 436.424C775.586 435.933 776.557 435.688 777.623 435.688C778.882 435.688 779.975 435.997 780.903 436.616C781.831 437.224 782.471 438.083 782.823 439.192H780.247ZM786.96 435.832V442.744C786.96 443.501 787.158 444.083 787.552 444.488C787.947 444.883 788.502 445.08 789.216 445.08C789.942 445.08 790.502 444.883 790.896 444.488C791.291 444.083 791.488 443.501 791.488 442.744V435.832H793.744V442.728C793.744 443.677 793.536 444.483 793.12 445.144C792.715 445.795 792.166 446.285 791.472 446.616C790.79 446.947 790.027 447.112 789.184 447.112C788.352 447.112 787.595 446.947 786.912 446.616C786.24 446.285 785.707 445.795 785.312 445.144C784.918 444.483 784.72 443.677 784.72 442.728V435.832H786.96ZM798.149 445.224H801.829V447H795.909V435.832H798.149V445.224ZM810.1 444.872H805.652L804.916 447H802.564L806.58 435.816H809.188L813.204 447H810.836L810.1 444.872ZM809.492 443.08L807.876 438.408L806.26 443.08H809.492ZM820.466 447L818.002 442.648H816.946V447H814.706V435.832H818.898C819.762 435.832 820.498 435.987 821.106 436.296C821.714 436.595 822.167 437.005 822.466 437.528C822.775 438.04 822.93 438.616 822.93 439.256C822.93 439.992 822.716 440.659 822.29 441.256C821.863 441.843 821.228 442.248 820.386 442.472L823.058 447H820.466ZM816.946 440.968H818.818C819.426 440.968 819.879 440.824 820.178 440.536C820.476 440.237 820.626 439.827 820.626 439.304C820.626 438.792 820.476 438.397 820.178 438.12C819.879 437.832 819.426 437.688 818.818 437.688H816.946V440.968Z" fill="black"/>
<path d="M1085.27 515.192C1085.01 514.723 1084.66 514.365 1084.21 514.12C1083.77 513.875 1083.24 513.752 1082.65 513.752C1081.99 513.752 1081.4 513.901 1080.89 514.2C1080.37 514.499 1079.97 514.925 1079.69 515.48C1079.4 516.035 1079.25 516.675 1079.25 517.4C1079.25 518.147 1079.4 518.797 1079.69 519.352C1079.99 519.907 1080.4 520.333 1080.92 520.632C1081.44 520.931 1082.05 521.08 1082.74 521.08C1083.6 521.08 1084.29 520.856 1084.84 520.408C1085.38 519.949 1085.74 519.315 1085.91 518.504H1082.07V516.792H1088.12V518.744C1087.97 519.523 1087.65 520.243 1087.16 520.904C1086.67 521.565 1086.03 522.099 1085.25 522.504C1084.49 522.899 1083.62 523.096 1082.66 523.096C1081.59 523.096 1080.61 522.856 1079.73 522.376C1078.87 521.885 1078.19 521.208 1077.69 520.344C1077.2 519.48 1076.95 518.499 1076.95 517.4C1076.95 516.301 1077.2 515.32 1077.69 514.456C1078.19 513.581 1078.87 512.904 1079.73 512.424C1080.61 511.933 1081.58 511.688 1082.65 511.688C1083.91 511.688 1085 511.997 1085.93 512.616C1086.85 513.224 1087.49 514.083 1087.85 515.192H1085.27ZM1093.63 523.112C1092.85 523.112 1092.15 522.979 1091.52 522.712C1090.9 522.445 1090.41 522.061 1090.05 521.56C1089.69 521.059 1089.5 520.467 1089.49 519.784H1091.89C1091.92 520.243 1092.08 520.605 1092.37 520.872C1092.67 521.139 1093.07 521.272 1093.58 521.272C1094.11 521.272 1094.52 521.149 1094.82 520.904C1095.11 520.648 1095.26 520.317 1095.26 519.912C1095.26 519.581 1095.16 519.309 1094.96 519.096C1094.76 518.883 1094.5 518.717 1094.19 518.6C1093.89 518.472 1093.48 518.333 1092.94 518.184C1092.22 517.971 1091.63 517.763 1091.17 517.56C1090.72 517.347 1090.33 517.032 1090 516.616C1089.68 516.189 1089.52 515.624 1089.52 514.92C1089.52 514.259 1089.69 513.683 1090.02 513.192C1090.35 512.701 1090.81 512.328 1091.41 512.072C1092.01 511.805 1092.69 511.672 1093.46 511.672C1094.61 511.672 1095.54 511.955 1096.26 512.52C1096.98 513.075 1097.38 513.853 1097.46 514.856H1094.99C1094.97 514.472 1094.81 514.157 1094.5 513.912C1094.2 513.656 1093.8 513.528 1093.3 513.528C1092.86 513.528 1092.51 513.64 1092.24 513.864C1091.98 514.088 1091.86 514.413 1091.86 514.84C1091.86 515.139 1091.95 515.389 1092.14 515.592C1092.35 515.784 1092.59 515.944 1092.88 516.072C1093.18 516.189 1093.59 516.328 1094.13 516.488C1094.85 516.701 1095.45 516.915 1095.9 517.128C1096.36 517.341 1096.76 517.661 1097.09 518.088C1097.42 518.515 1097.58 519.075 1097.58 519.768C1097.58 520.365 1097.43 520.92 1097.12 521.432C1096.81 521.944 1096.36 522.355 1095.76 522.664C1095.16 522.963 1094.45 523.112 1093.63 523.112ZM1106.37 520.872H1101.93L1101.19 523H1098.84L1102.85 511.816H1105.46L1109.48 523H1107.11L1106.37 520.872ZM1105.77 519.08L1104.15 514.408L1102.53 519.08H1105.77ZM1119.12 515.288C1119.12 515.885 1118.98 516.445 1118.69 516.968C1118.41 517.491 1117.97 517.912 1117.36 518.232C1116.77 518.552 1116.01 518.712 1115.09 518.712H1113.22V523H1110.98V511.832H1115.09C1115.96 511.832 1116.69 511.981 1117.3 512.28C1117.91 512.579 1118.36 512.989 1118.66 513.512C1118.97 514.035 1119.12 514.627 1119.12 515.288ZM1115 516.904C1115.61 516.904 1116.07 516.765 1116.37 516.488C1116.67 516.2 1116.82 515.8 1116.82 515.288C1116.82 514.2 1116.21 513.656 1115 513.656H1113.22V516.904H1115Z" fill="black"/>
<path d="M401.469 693.832V695.64H396.813V698.504H400.381V700.28H396.813V705H394.573V693.832H401.469ZM405.297 693.832V705H403.057V693.832H405.297ZM415.286 697.192C415.03 696.723 414.678 696.365 414.23 696.12C413.782 695.875 413.26 695.752 412.662 695.752C412.001 695.752 411.414 695.901 410.902 696.2C410.39 696.499 409.99 696.925 409.702 697.48C409.414 698.035 409.27 698.675 409.27 699.4C409.27 700.147 409.414 700.797 409.702 701.352C410.001 701.907 410.412 702.333 410.934 702.632C411.457 702.931 412.065 703.08 412.758 703.08C413.612 703.08 414.31 702.856 414.854 702.408C415.398 701.949 415.756 701.315 415.926 700.504H412.086V698.792H418.134V700.744C417.985 701.523 417.665 702.243 417.174 702.904C416.684 703.565 416.049 704.099 415.27 704.504C414.502 704.899 413.638 705.096 412.678 705.096C411.601 705.096 410.625 704.856 409.75 704.376C408.886 703.885 408.204 703.208 407.702 702.344C407.212 701.48 406.966 700.499 406.966 699.4C406.966 698.301 407.212 697.32 407.702 696.456C408.204 695.581 408.886 694.904 409.75 694.424C410.625 693.933 411.596 693.688 412.662 693.688C413.921 693.688 415.014 693.997 415.942 694.616C416.87 695.224 417.51 696.083 417.862 697.192H415.286ZM431.968 693.832V705H429.728V697.736L426.736 705H425.04L422.032 697.736V705H419.792V693.832H422.336L425.888 702.136L429.44 693.832H431.968ZM441.03 702.872H436.582L435.846 705H433.494L437.51 693.816H440.118L444.134 705H441.766L441.03 702.872ZM440.422 701.08L438.806 696.408L437.19 701.08H440.422Z" fill="black"/>
<path d="M922.709 697.288C922.709 697.885 922.565 698.445 922.277 698.968C922 699.491 921.557 699.912 920.949 700.232C920.352 700.552 919.594 700.712 918.677 700.712H916.805V705H914.565V693.832H918.677C919.541 693.832 920.277 693.981 920.885 694.28C921.493 694.579 921.946 694.989 922.245 695.512C922.554 696.035 922.709 696.627 922.709 697.288ZM918.581 698.904C919.2 698.904 919.658 698.765 919.957 698.488C920.256 698.2 920.405 697.8 920.405 697.288C920.405 696.2 919.797 695.656 918.581 695.656H916.805V698.904H918.581ZM933.563 693.832V705H931.323V700.248H926.539V705H924.299V693.832H926.539V698.424H931.323V693.832H933.563ZM940.952 705.112C939.907 705.112 938.947 704.867 938.072 704.376C937.197 703.885 936.504 703.208 935.992 702.344C935.48 701.469 935.224 700.483 935.224 699.384C935.224 698.296 935.48 697.32 935.992 696.456C936.504 695.581 937.197 694.899 938.072 694.408C938.947 693.917 939.907 693.672 940.952 693.672C942.008 693.672 942.968 693.917 943.832 694.408C944.707 694.899 945.395 695.581 945.896 696.456C946.408 697.32 946.664 698.296 946.664 699.384C946.664 700.483 946.408 701.469 945.896 702.344C945.395 703.208 944.707 703.885 943.832 704.376C942.957 704.867 941.997 705.112 940.952 705.112ZM940.952 703.112C941.624 703.112 942.216 702.963 942.728 702.664C943.24 702.355 943.64 701.917 943.928 701.352C944.216 700.787 944.36 700.131 944.36 699.384C944.36 698.637 944.216 697.987 943.928 697.432C943.64 696.867 943.24 696.435 942.728 696.136C942.216 695.837 941.624 695.688 940.952 695.688C940.28 695.688 939.683 695.837 939.16 696.136C938.648 696.435 938.248 696.867 937.96 697.432C937.672 697.987 937.528 698.637 937.528 699.384C937.528 700.131 937.672 700.787 937.96 701.352C938.248 701.917 938.648 702.355 939.16 702.664C939.683 702.963 940.28 703.112 940.952 703.112ZM955.931 693.832V695.64H952.955V705H950.715V695.64H947.739V693.832H955.931ZM962.749 705.112C961.704 705.112 960.744 704.867 959.869 704.376C958.994 703.885 958.301 703.208 957.789 702.344C957.277 701.469 957.021 700.483 957.021 699.384C957.021 698.296 957.277 697.32 957.789 696.456C958.301 695.581 958.994 694.899 959.869 694.408C960.744 693.917 961.704 693.672 962.749 693.672C963.805 693.672 964.765 693.917 965.629 694.408C966.504 694.899 967.192 695.581 967.693 696.456C968.205 697.32 968.461 698.296 968.461 699.384C968.461 700.483 968.205 701.469 967.693 702.344C967.192 703.208 966.504 703.885 965.629 704.376C964.754 704.867 963.794 705.112 962.749 705.112ZM962.749 703.112C963.421 703.112 964.013 702.963 964.525 702.664C965.037 702.355 965.437 701.917 965.725 701.352C966.013 700.787 966.157 700.131 966.157 699.384C966.157 698.637 966.013 697.987 965.725 697.432C965.437 696.867 965.037 696.435 964.525 696.136C964.013 695.837 963.421 695.688 962.749 695.688C962.077 695.688 961.48 695.837 960.957 696.136C960.445 696.435 960.045 696.867 959.757 697.432C959.469 697.987 959.325 698.637 959.325 699.384C959.325 700.131 959.469 700.787 959.757 701.352C960.045 701.917 960.445 702.355 960.957 702.664C961.48 702.963 962.077 703.112 962.749 703.112ZM973.983 705.112C973.205 705.112 972.501 704.979 971.871 704.712C971.253 704.445 970.762 704.061 970.399 703.56C970.037 703.059 969.85 702.467 969.839 701.784H972.239C972.271 702.243 972.431 702.605 972.719 702.872C973.018 703.139 973.423 703.272 973.935 703.272C974.458 703.272 974.869 703.149 975.167 702.904C975.466 702.648 975.615 702.317 975.615 701.912C975.615 701.581 975.514 701.309 975.311 701.096C975.109 700.883 974.853 700.717 974.543 700.6C974.245 700.472 973.829 700.333 973.295 700.184C972.57 699.971 971.978 699.763 971.519 699.56C971.071 699.347 970.682 699.032 970.351 698.616C970.031 698.189 969.871 697.624 969.871 696.92C969.871 696.259 970.037 695.683 970.367 695.192C970.698 694.701 971.162 694.328 971.759 694.072C972.357 693.805 973.039 693.672 973.807 693.672C974.959 693.672 975.893 693.955 976.607 694.52C977.333 695.075 977.733 695.853 977.807 696.856H975.343C975.322 696.472 975.157 696.157 974.847 695.912C974.549 695.656 974.149 695.528 973.647 695.528C973.21 695.528 972.858 695.64 972.591 695.864C972.335 696.088 972.207 696.413 972.207 696.84C972.207 697.139 972.303 697.389 972.495 697.592C972.698 697.784 972.943 697.944 973.231 698.072C973.53 698.189 973.946 698.328 974.479 698.488C975.205 698.701 975.797 698.915 976.255 699.128C976.714 699.341 977.109 699.661 977.439 700.088C977.77 700.515 977.935 701.075 977.935 701.768C977.935 702.365 977.781 702.92 977.471 703.432C977.162 703.944 976.709 704.355 976.111 704.664C975.514 704.963 974.805 705.112 973.983 705.112ZM989.141 693.832V705H986.901V700.248H982.117V705H979.877V693.832H982.117V698.424H986.901V693.832H989.141ZM996.53 705.112C995.485 705.112 994.525 704.867 993.65 704.376C992.776 703.885 992.082 703.208 991.57 702.344C991.058 701.469 990.802 700.483 990.802 699.384C990.802 698.296 991.058 697.32 991.57 696.456C992.082 695.581 992.776 694.899 993.65 694.408C994.525 693.917 995.485 693.672 996.53 693.672C997.586 693.672 998.546 693.917 999.41 694.408C1000.28 694.899 1000.97 695.581 1001.47 696.456C1001.99 697.32 1002.24 698.296 1002.24 699.384C1002.24 700.483 1001.99 701.469 1001.47 702.344C1000.97 703.208 1000.28 703.885 999.41 704.376C998.536 704.867 997.576 705.112 996.53 705.112ZM996.53 703.112C997.202 703.112 997.794 702.963 998.306 702.664C998.818 702.355 999.218 701.917 999.506 701.352C999.794 700.787 999.938 700.131 999.938 699.384C999.938 698.637 999.794 697.987 999.506 697.432C999.218 696.867 998.818 696.435 998.306 696.136C997.794 695.837 997.202 695.688 996.53 695.688C995.858 695.688 995.261 695.837 994.738 696.136C994.226 696.435 993.826 696.867 993.538 697.432C993.25 697.987 993.106 698.637 993.106 699.384C993.106 700.131 993.25 700.787 993.538 701.352C993.826 701.917 994.226 702.355 994.738 702.664C995.261 702.963 995.858 703.112 996.53 703.112ZM1012.05 697.288C1012.05 697.885 1011.91 698.445 1011.62 698.968C1011.34 699.491 1010.9 699.912 1010.29 700.232C1009.7 700.552 1008.94 700.712 1008.02 700.712H1006.15V705H1003.91V693.832H1008.02C1008.88 693.832 1009.62 693.981 1010.23 694.28C1010.84 694.579 1011.29 694.989 1011.59 695.512C1011.9 696.035 1012.05 696.627 1012.05 697.288ZM1007.92 698.904C1008.54 698.904 1009 698.765 1009.3 698.488C1009.6 698.2 1009.75 697.8 1009.75 697.288C1009.75 696.2 1009.14 695.656 1007.92 695.656H1006.15V698.904H1007.92Z" fill="black"/>
</g>
<defs>
<linearGradient id="paint0_linear_1482_2" x1="720" y1="144" x2="720" y2="604" gradientUnits="userSpaceOnUse">
<stop stop-color="#E5E5E5"/>
<stop offset="1" stop-color="white" stop-opacity="0"/>
</linearGradient>
<linearGradient id="paint1_linear_1482_2" x1="720" y1="334" x2="720" y2="794" gradientUnits="userSpaceOnUse">
<stop stop-color="#E5E5E5"/>
<stop offset="1" stop-color="white" stop-opacity="0"/>
</linearGradient>
<linearGradient id="paint2_linear_1482_2" x1="720" y1="563" x2="720" y2="1023" gradientUnits="userSpaceOnUse">
<stop stop-color="#E5E5E5"/>
<stop offset="1" stop-color="white" stop-opacity="0"/>
</linearGradient>
<linearGradient id="paint3_linear_1482_2" x1="754.137" y1="324.727" x2="821.67" y2="356.217" gradientUnits="userSpaceOnUse">
<stop stop-color="white" stop-opacity="0.2"/>
<stop offset="1" stop-color="white" stop-opacity="0"/>
</linearGradient>
<clipPath id="clip0_1482_2">
<rect width="1440" height="788" fill="white"/>
</clipPath>
<clipPath id="clip1_1482_2">
<rect width="90" height="80" fill="white" transform="translate(444 325)"/>
</clipPath>
<clipPath id="clip2_1482_2">
<rect width="107" height="80" fill="white" transform="translate(952.5 125)"/>
</clipPath>
<clipPath id="clip3_1482_2">
<rect width="108" height="40" fill="white" transform="translate(1049 393)"/>
</clipPath>
<clipPath id="clip4_1482_2">
<rect width="80" height="80" fill="white" transform="translate(1258 273)"/>
</clipPath>
<clipPath id="clip5_1482_2">
<rect width="80" height="80" fill="white" transform="translate(559 95)"/>
</clipPath>
<clipPath id="clip6_1482_2">
<rect width="80" height="80" fill="white" transform="translate(140 453)"/>
</clipPath>
</defs>
</svg>
