<svg width="1440" height="788" viewBox="0 0 1440 788" fill="none" xmlns="http://www.w3.org/2000/svg">
<g clip-path="url(#clip0_1482_2)">
<path d="M720 118C928.588 118 1117.38 176.044 1254.01 269.836C1390.63 363.631 1475 493.107 1475 636C1475 778.893 1390.63 908.369 1254.01 1002.16C1117.38 1095.96 928.588 1154 720 1154C511.412 1154 322.615 1095.96 185.993 1002.16C49.3665 908.369 -35 778.893 -35 636C-35 493.107 49.3665 363.631 185.993 269.836C322.615 176.044 511.412 118 720 118Z" stroke="url(#paint0_linear_1482_2)" stroke-width="2"/>
<path d="M720 308C928.588 308 1117.38 366.044 1254.01 459.836C1390.63 553.631 1475 683.107 1475 826C1475 968.893 1390.63 1098.37 1254.01 1192.16C1117.38 1285.96 928.588 1344 720 1344C511.412 1344 322.615 1285.96 185.993 1192.16C49.3665 1098.37 -35 968.893 -35 826C-35 683.107 49.3665 553.631 185.993 459.836C322.615 366.044 511.412 308 720 308Z" stroke="url(#paint1_linear_1482_2)" stroke-width="2"/>
<path d="M720 537C928.588 537 1117.38 595.044 1254.01 688.836C1390.63 782.631 1475 912.107 1475 1055C1475 1197.89 1390.63 1327.37 1254.01 1421.16C1117.38 1514.96 928.588 1573 720 1573C511.412 1573 322.615 1514.96 185.993 1421.16C49.3665 1327.37 -35 1197.89 -35 1055C-35 912.107 49.3665 782.631 185.993 688.836C322.615 595.044 511.412 537 720 537Z" stroke="url(#paint2_linear_1482_2)" stroke-width="2"/>
<rect x="168" y="158" width="140" height="140" rx="70" fill="#F3F3F3"/>
<path d="M214.812 261.594L209.656 203.719H266.344L261.188 261.562L237.953 268" fill="#FF4C1E"/>
<path d="M238 263.078V208.469H261.172L256.75 257.844L238 263.078Z" fill="#FF651E"/>
<path d="M220.188 215.547H238L240.649 219.094L238 222.641H227.969L228.625 229.906H238L240.649 233.586L238 236.984H222.125L220.188 215.547ZM222.437 240.547H229.562L230.062 246.219L238 248.344L240.989 251.884L238 255.75L223.438 251.688L222.437 240.547Z" fill="#EBEBEB"/>
<path d="M255.75 215.547H237.969V222.641H255.094L255.75 215.547ZM254.453 229.906H237.969V237H246.719L245.891 246.219L237.969 248.344V255.719L252.5 251.688L254.453 229.906Z" fill="white"/>
<rect x="419" y="268" width="140" height="140" rx="70" fill="#F3F3F3"/>
<g clip-path="url(#clip1_1482_2)">
<path fill-rule="evenodd" clip-rule="evenodd" d="M534 338.011C534 332.06 526.537 326.424 515.089 322.922C517.733 311.276 516.554 302.014 511.383 299.045C510.189 298.351 508.797 298.022 507.274 298.022V302.109C508.116 302.109 508.797 302.277 509.369 302.584C511.866 304.009 512.943 309.448 512.101 316.445C511.896 318.163 511.566 319.976 511.163 321.825C507.567 320.948 503.641 320.268 499.518 319.829C497.042 316.445 494.471 313.367 491.886 310.677C497.862 305.121 503.473 302.087 507.289 302.087V298C502.242 298 495.643 301.59 488.963 307.818C482.284 301.626 475.685 298.073 470.638 298.073V302.16C474.432 302.16 480.064 305.179 486.048 310.691C483.478 313.382 480.914 316.437 478.475 319.829C474.33 320.268 470.404 320.948 466.808 321.84C466.383 320.012 466.075 318.236 465.855 316.532C464.991 309.536 466.061 304.097 468.536 302.65C469.085 302.321 469.803 302.174 470.646 302.174V298.095C469.107 298.095 467.708 298.424 466.5 299.119C461.344 302.087 460.187 311.335 462.853 322.944C451.427 326.453 444 332.075 444 338.011C444 343.962 451.463 349.598 462.911 353.1C460.267 364.746 461.446 374.008 466.617 376.977C467.811 377.671 469.203 378 470.748 378C475.794 378 482.394 374.41 489.073 368.182C495.753 374.374 502.352 377.927 507.398 377.927C508.937 377.927 510.335 377.598 511.544 376.903C516.7 373.935 517.857 364.687 515.191 353.078C526.573 349.584 534 343.94 534 338.011ZM497.364 338.011C497.364 333.391 493.614 329.64 488.978 329.64C484.349 329.64 480.592 333.383 480.592 338.011C480.592 342.639 484.342 346.382 488.978 346.382C493.614 346.374 497.364 342.631 497.364 338.011ZM510.116 325.795C509.435 328.156 508.592 330.591 507.64 333.025C506.886 331.563 506.102 330.094 505.238 328.631C504.396 327.169 503.495 325.736 502.594 324.347C505.201 324.735 507.713 325.21 510.116 325.795ZM501.715 345.3C500.287 347.771 498.814 350.117 497.291 352.296C494.559 352.537 491.791 352.661 489 352.661C486.231 352.661 483.463 352.53 480.746 352.311C479.222 350.132 477.735 347.807 476.307 345.351C474.916 342.953 473.648 340.519 472.491 338.062C473.626 335.606 474.916 333.157 476.285 330.759C477.713 328.288 479.186 325.941 480.709 323.763C483.441 323.521 486.209 323.397 489 323.397C491.769 323.397 494.537 323.529 497.254 323.748C498.778 325.927 500.265 328.251 501.693 330.708C503.084 333.106 504.352 335.54 505.509 337.996C504.352 340.445 503.092 342.894 501.715 345.3ZM507.64 342.916C508.629 345.373 509.471 347.822 510.174 350.205C507.772 350.79 505.238 351.287 502.616 351.667C503.517 350.256 504.41 348.809 505.26 347.325C506.095 345.863 506.886 344.379 507.64 342.916ZM489.037 362.45C487.33 360.696 485.624 358.737 483.939 356.595C485.587 356.668 487.279 356.726 488.985 356.726C490.707 356.726 492.413 356.69 494.083 356.595C492.428 358.737 490.721 360.696 489.037 362.45ZM475.392 351.667C472.784 351.28 470.272 350.805 467.87 350.22C468.551 347.858 469.393 345.424 470.345 342.989C471.1 344.452 471.883 345.921 472.748 347.383C473.612 348.853 474.491 350.278 475.392 351.667ZM488.941 313.564C490.648 315.319 492.354 317.278 494.039 319.42C492.391 319.347 490.699 319.288 488.993 319.288C487.271 319.288 485.565 319.325 483.895 319.42C485.55 317.278 487.257 315.319 488.941 313.564ZM475.37 324.347C474.469 325.758 473.575 327.206 472.726 328.69C471.883 330.152 471.092 331.621 470.338 333.084C469.349 330.627 468.507 328.178 467.804 325.795C470.213 325.225 472.748 324.735 475.37 324.347ZM458.766 347.274C452.269 344.51 448.072 340.884 448.072 338.011C448.072 335.138 452.276 331.49 458.766 328.748C460.34 328.069 462.069 327.469 463.849 326.899C464.896 330.488 466.273 334.224 467.979 338.048C466.295 341.856 464.933 345.57 463.907 349.145C462.091 348.575 460.362 347.953 458.766 347.274ZM468.639 373.438C466.141 372.013 465.064 366.574 465.907 359.577C466.112 357.859 466.441 356.046 466.844 354.197C470.44 355.074 474.366 355.754 478.49 356.192C480.965 359.577 483.536 362.655 486.122 365.345C480.138 370.894 474.527 373.935 470.711 373.935C469.884 373.913 469.188 373.753 468.639 373.438ZM512.152 359.49C513.016 366.486 511.947 371.925 509.471 373.372C508.922 373.701 508.204 373.848 507.362 373.848C503.568 373.848 497.936 370.828 491.952 365.316C494.522 362.626 497.086 359.57 499.525 356.178C503.67 355.739 507.596 355.059 511.192 354.16C511.617 356.01 511.947 357.786 512.152 359.49ZM519.212 347.274C517.638 347.953 515.909 348.553 514.129 349.123C513.082 345.534 511.705 341.798 509.999 337.974C511.683 334.166 513.045 330.452 514.071 326.877C515.887 327.447 517.608 328.069 519.227 328.741C525.724 331.505 529.92 335.131 529.92 338.004C529.906 340.884 525.709 344.525 519.212 347.274Z" fill="#00D8FF"/>
</g>
<rect x="936" y="68" width="140" height="140" rx="70" fill="#F3F3F3"/>
<g clip-path="url(#clip2_1482_2)">
<path fill-rule="evenodd" clip-rule="evenodd" d="M1044.61 143.936C1040.87 143.954 1037.63 144.857 1034.91 146.186C1033.91 144.206 1032.91 142.477 1032.73 141.183C1032.54 139.681 1032.31 138.769 1032.54 136.971C1032.77 135.182 1033.81 132.637 1033.81 132.428C1033.79 132.237 1033.59 131.325 1031.43 131.299C1029.28 131.282 1027.41 131.716 1027.2 132.281C1026.99 132.845 1026.58 134.139 1026.31 135.468C1025.93 137.431 1022 144.371 1019.77 148.019C1019.04 146.603 1018.41 145.352 1018.29 144.353C1018.09 142.851 1017.87 141.939 1018.09 140.141C1018.32 138.352 1019.37 135.807 1019.37 135.599C1019.35 135.408 1019.14 134.496 1016.98 134.469C1014.83 134.452 1012.97 134.886 1012.76 135.451C1012.55 136.015 1012.32 137.344 1011.86 138.638C1011.42 139.933 1006.2 151.519 1004.84 154.541C1004.15 156.087 1003.54 157.312 1003.11 158.146C1002.67 158.979 1003.09 158.206 1003.05 158.293C1002.67 159.005 1002.46 159.396 1002.46 159.396V159.414C1002.17 159.935 1001.86 160.438 1001.72 160.438C1001.61 160.438 1001.4 159.04 1001.76 157.121C1002.53 153.099 1004.42 146.82 1004.39 146.594C1004.39 146.49 1004.75 145.387 1003.18 144.822C1001.65 144.258 1001.11 145.196 1000.98 145.196C1000.86 145.196 1000.76 145.526 1000.76 145.526C1000.76 145.526 1002.45 138.456 997.519 138.456C994.427 138.456 990.161 141.809 988.053 144.874C986.712 145.604 983.874 147.15 980.861 148.792C979.711 149.417 978.519 150.086 977.395 150.685L977.169 150.433C971.187 144.101 960.128 139.602 960.589 131.056C960.755 127.947 961.843 119.757 981.827 109.838C998.189 101.709 1011.29 103.941 1013.58 108.9C1016.81 115.987 1006.57 129.163 989.56 131.056C983.081 131.786 979.677 129.284 978.815 128.346C977.918 127.365 977.787 127.322 977.456 127.513C976.916 127.808 977.247 128.676 977.456 129.198C977.961 130.509 980.051 132.845 983.604 134.009C986.721 135.034 994.323 135.59 1003.52 132.046C1013.82 128.068 1021.87 117.012 1019.51 107.78C1017.1 98.3909 1001.47 95.2989 986.695 100.536C977.9 103.663 968.365 108.544 961.512 114.945C953.362 122.527 952.065 129.154 952.604 131.907C954.503 141.73 968.069 148.123 973.503 152.856C973.233 153.004 972.98 153.152 972.754 153.273C970.037 154.611 959.693 160.004 957.098 165.719C954.172 172.181 957.559 176.836 959.814 177.462C966.798 179.398 973.947 175.916 977.813 170.183C981.662 164.451 981.2 157.008 979.424 153.612L979.363 153.49L981.497 152.24C982.872 151.423 984.231 150.676 985.424 150.033C984.753 151.849 984.274 153.994 984.022 157.121C983.726 160.786 985.232 165.545 987.217 167.421C988.097 168.238 989.142 168.255 989.786 168.255C992.085 168.255 993.13 166.362 994.279 164.086C995.699 161.316 996.953 158.102 996.953 158.102C996.953 158.102 995.385 166.796 999.669 166.796C1001.24 166.796 1002.8 164.772 1003.52 163.73V163.748C1003.52 163.748 1003.56 163.687 1003.64 163.539C1003.73 163.409 1003.81 163.279 1003.89 163.14V163.096C1004.52 162.01 1005.92 159.535 1008.01 155.427C1010.71 150.129 1013.3 143.502 1013.3 143.502C1013.3 143.502 1013.55 145.126 1014.32 147.793C1014.79 149.373 1015.79 151.11 1016.56 152.795C1015.94 153.673 1015.56 154.168 1015.56 154.168L1015.58 154.185C1015.07 154.854 1014.52 155.557 1013.92 156.27C1011.79 158.814 1009.24 161.706 1008.91 162.54C1008.51 163.522 1008.59 164.251 1009.37 164.833C1009.94 165.25 1010.94 165.337 1012 165.25C1013.92 165.128 1015.26 164.642 1015.93 164.355C1016.97 163.982 1018.16 163.417 1019.31 162.584C1021.4 161.038 1022.68 158.849 1022.55 155.931C1022.49 154.324 1021.97 152.743 1021.32 151.241C1021.51 150.972 1021.69 150.702 1021.88 150.407C1025.18 145.595 1027.73 140.297 1027.73 140.297C1027.73 140.297 1027.99 141.921 1028.76 144.588C1029.16 145.943 1029.95 147.419 1030.66 148.878C1027.57 151.397 1025.63 154.315 1024.96 156.235C1023.72 159.778 1024.69 161.385 1026.51 161.759C1027.33 161.924 1028.49 161.55 1029.37 161.177C1030.46 160.821 1031.77 160.221 1032.99 159.318C1035.07 157.772 1037.08 155.627 1036.97 152.735C1036.91 151.397 1036.56 150.086 1036.08 148.835C1038.71 147.749 1042.12 147.124 1046.44 147.645C1055.74 148.731 1057.58 154.524 1057.23 156.938C1056.87 159.353 1054.93 160.69 1054.28 161.107C1053.64 161.507 1053.43 161.646 1053.49 161.941C1053.58 162.375 1053.87 162.358 1054.43 162.271C1055.21 162.149 1059.33 160.291 1059.49 155.827C1059.74 150.129 1054.28 143.876 1044.61 143.936ZM972.885 168.055C969.811 171.408 965.483 172.685 963.646 171.599C961.66 170.453 962.435 165.511 966.215 161.95C968.513 159.778 971.5 157.781 973.468 156.547C973.903 156.278 974.574 155.879 975.366 155.401C975.488 155.314 975.575 155.279 975.575 155.279C975.723 155.193 975.889 155.088 976.054 154.984C977.456 160.074 976.124 164.529 972.885 168.055ZM995.35 152.821C994.288 155.427 992.024 162.123 990.666 161.741C989.499 161.429 988.785 156.365 990.439 151.362C991.275 148.844 993.052 145.839 994.097 144.675C995.786 142.799 997.632 142.173 998.085 142.946C998.633 143.936 996.021 151.189 995.35 152.821ZM1013.89 161.654C1013.43 161.88 1013.01 162.054 1012.83 161.924C1012.68 161.837 1013.02 161.524 1013.02 161.524C1013.02 161.524 1015.33 159.04 1016.26 157.894C1016.78 157.225 1017.41 156.452 1018.08 155.583V155.835C1018.07 158.84 1015.19 160.847 1013.89 161.654ZM1028.19 158.406C1027.86 158.154 1027.89 157.381 1029.02 154.967C1029.46 154.011 1030.47 152.405 1032.2 150.885C1032.41 151.51 1032.53 152.118 1032.51 152.674C1032.49 156.426 1029.82 157.824 1028.19 158.406Z" fill="#CF649A"/>
</g>
<rect x="1033" y="316" width="140" height="140" rx="70" fill="#F3F3F3"/>
<g clip-path="url(#clip3_1482_2)">
<path d="M1080.45 384.682C1080.45 384.682 1080.45 384.693 1080.45 384.7L1079.03 390.92C1078.95 391.272 1078.61 391.53 1078.2 391.53H1076.49C1076.36 391.53 1076.25 391.615 1076.21 391.738C1074.63 397.156 1072.49 400.881 1069.66 403.117C1067.25 405.021 1064.29 405.908 1060.32 405.908C1056.76 405.908 1054.36 404.752 1052.32 402.47C1049.63 399.454 1048.52 394.516 1049.19 388.566C1050.41 377.397 1056.15 366.127 1067.2 366.127C1070.56 366.096 1073.2 367.143 1075.04 369.233C1076.98 371.443 1077.96 374.772 1077.97 379.128C1077.96 379.524 1077.63 379.843 1077.24 379.843H1069.15C1068.86 379.843 1068.6 379.583 1068.61 379.296C1068.54 376.284 1067.66 374.815 1065.9 374.815C1062.79 374.815 1060.96 379.069 1059.99 381.427C1058.63 384.721 1057.94 388.297 1058.08 391.86C1058.14 393.519 1058.41 395.852 1059.97 396.818C1061.35 397.674 1063.33 397.106 1064.52 396.158C1065.72 395.209 1066.68 393.567 1067.08 392.07C1067.14 391.862 1067.14 391.701 1067.09 391.629C1067.03 391.554 1066.87 391.537 1066.75 391.537H1064.67C1064.45 391.537 1064.23 391.434 1064.1 391.268C1063.98 391.128 1063.94 390.955 1063.98 390.785L1065.4 384.553C1065.47 384.234 1065.76 383.994 1066.11 383.95V383.934H1079.76C1079.79 383.934 1079.82 383.934 1079.85 383.941C1080.21 383.987 1080.46 384.319 1080.45 384.682H1080.45Z" fill="#0E100F"/>
<path d="M1103.94 377.532C1103.94 377.921 1103.61 378.24 1103.22 378.24H1095.76C1095.27 378.24 1094.87 377.84 1094.87 377.353C1094.87 375.156 1094.11 374.087 1092.57 374.087C1091.03 374.087 1090.04 375.043 1090.01 376.71C1089.98 378.57 1091.02 380.26 1093.99 383.165C1097.89 386.863 1099.46 390.14 1099.38 394.47C1099.26 401.473 1094.54 406 1087.36 406C1083.7 406 1080.9 405.01 1079.04 403.058C1077.14 401.075 1076.28 398.166 1076.46 394.411C1076.47 394.022 1076.79 393.705 1077.18 393.705H1084.9C1085.11 393.705 1085.32 393.808 1085.46 393.983C1085.58 394.133 1085.63 394.319 1085.6 394.494C1085.51 395.849 1085.74 396.861 1086.27 397.421C1086.61 397.784 1087.08 397.967 1087.67 397.967C1089.09 397.967 1089.93 396.951 1089.96 395.18C1089.99 393.65 1089.51 392.308 1086.9 389.596C1083.52 386.267 1080.49 382.828 1080.59 377.421C1080.64 374.286 1081.88 371.419 1084.06 369.346C1086.37 367.156 1089.54 366 1093.21 366C1096.88 366.026 1099.67 367.084 1101.49 369.145C1103.21 371.099 1104.04 373.921 1103.95 377.532H1103.94Z" fill="#0E100F"/>
<path d="M1127.06 404.682L1127.11 367.438C1127.12 367.047 1126.8 366.728 1126.41 366.728H1114.87C1114.48 366.728 1114.31 367.064 1114.2 367.287L1097.49 404.455V404.461C1097.49 404.461 1097.48 404.468 1097.48 404.47C1097.29 404.927 1097.65 405.416 1098.14 405.416H1106.2C1106.64 405.416 1106.93 405.283 1107.07 405.005L1108.67 401.119C1108.87 400.601 1108.91 400.553 1109.47 400.553H1117.18C1117.71 400.553 1117.72 400.564 1117.71 401.093L1117.54 404.706C1117.54 405.097 1117.85 405.416 1118.24 405.416H1126.39C1126.6 405.416 1126.79 405.329 1126.92 405.174C1127.04 405.036 1127.09 404.861 1127.06 404.682ZM1112.78 392.247C1112.71 392.247 1112.65 392.245 1112.6 392.24C1112.48 392.23 1112.4 392.113 1112.43 391.996C1112.44 391.941 1112.47 391.869 1112.5 391.779L1118.28 377.342C1118.33 377.2 1118.39 377.06 1118.46 376.925C1118.55 376.73 1118.67 376.717 1118.7 376.861C1118.73 376.981 1118.04 391.685 1118.04 391.685C1117.98 392.236 1117.96 392.258 1117.42 392.304L1112.79 392.249H1112.78L1112.78 392.247Z" fill="#0E100F"/>
<path d="M1143.5 366.728H1137.38C1137.05 366.728 1136.69 366.9 1136.6 367.29C1136.6 367.29 1128.08 404.658 1128.08 404.662C1128.04 404.835 1128.08 405.005 1128.19 405.147C1128.33 405.313 1128.55 405.416 1128.77 405.416H1136.43C1136.84 405.416 1137.12 405.213 1137.2 404.859C1137.2 404.859 1138.13 400.636 1138.13 400.623C1138.19 400.293 1138.08 400.037 1137.79 399.882C1137.65 399.81 1137.51 399.738 1137.38 399.666L1136.05 398.968L1134.73 398.273C1134.56 398.183 1134.38 398.094 1134.22 398.004C1134.13 397.961 1134.08 397.873 1134.08 397.777C1134.08 397.635 1134.2 397.519 1134.34 397.519L1138.54 397.539C1139.8 397.545 1141.05 397.456 1142.29 397.226C1150.98 395.606 1156.75 388.579 1156.92 379.018C1157.06 370.859 1152.55 366.723 1143.51 366.723L1143.5 366.728ZM1141.42 388.968H1141.25C1140.89 388.968 1140.82 388.927 1140.81 388.913C1140.8 388.905 1143.23 378.151 1143.23 378.135C1143.29 377.825 1143.29 377.646 1143.1 377.541C1142.86 377.405 1139.31 375.519 1139.31 375.519C1139.23 375.473 1139.18 375.386 1139.18 375.29C1139.18 375.15 1139.3 375.034 1139.44 375.034H1145.04C1146.79 375.088 1147.76 376.662 1147.71 379.351C1147.63 384.006 1145.44 388.804 1141.42 388.968Z" fill="#0E100F"/>
<path d="M1149.74 405.416C1151 405.416 1151.98 404.448 1151.98 403.143C1151.98 401.838 1151 400.87 1149.74 400.87C1148.48 400.87 1147.48 401.838 1147.48 403.143C1147.48 404.448 1148.47 405.416 1149.74 405.416ZM1148.01 403.134C1148.01 402.026 1148.67 401.301 1149.74 401.301C1150.8 401.301 1151.45 402.024 1151.45 403.134C1151.45 404.245 1150.8 404.975 1149.74 404.975C1148.67 404.975 1148.01 404.251 1148.01 403.134ZM1148.75 404.354H1149.46V403.48H1149.67C1150.21 403.48 1149.97 404.251 1150.11 404.354H1150.85V404.317C1150.71 404.28 1150.93 403.311 1150.31 403.209V403.198C1150.61 403.134 1150.81 402.916 1150.81 402.588C1150.81 402.118 1150.47 401.864 1149.92 401.864H1148.74V404.354H1148.75ZM1149.46 402.953V402.369H1149.71C1149.95 402.369 1150.09 402.446 1150.09 402.66C1150.09 402.857 1149.95 402.951 1149.71 402.951H1149.46V402.953Z" fill="#0E100F"/>
</g>
<rect x="720" y="246" width="140" height="140" rx="70" fill="#F3F3F3"/>
<path d="M822.243 291.104L790.576 279.438C790.204 279.301 789.796 279.301 789.424 279.438L757.757 291.104C757.406 291.233 757.109 291.476 756.914 291.794C756.718 292.113 756.635 292.488 756.678 292.859L761.678 336.192C761.708 336.453 761.799 336.704 761.945 336.923C762.091 337.142 762.287 337.323 762.516 337.452L789.183 352.452C789.432 352.593 789.714 352.667 790 352.667C790.286 352.667 790.568 352.593 790.817 352.452L817.484 337.452C817.713 337.323 817.909 337.142 818.055 336.923C818.201 336.704 818.292 336.453 818.322 336.192L823.322 292.859C823.365 292.488 823.282 292.113 823.086 291.794C822.891 291.476 822.593 291.233 822.243 291.104Z" fill="black"/>
<path d="M815.11 334.963L790 349.09L764.89 334.963L760.14 293.777L790 282.777L819.86 293.777L815.11 334.963Z" fill="#FF1744"/>
<path opacity="0.1" d="M789.417 282.993V348.763L790 349.09L815.11 334.963L819.86 293.777L790 282.777L789.417 282.993Z" fill="black"/>
<path d="M788.465 290.352L770.132 333.686C769.96 334.093 769.957 334.551 770.123 334.961C770.29 335.37 770.612 335.696 771.019 335.868C771.426 336.04 771.885 336.043 772.294 335.877C772.703 335.71 773.03 335.388 773.202 334.981L778.412 322.667H801.588L806.798 334.981C806.925 335.283 807.139 335.541 807.412 335.723C807.685 335.904 808.006 336 808.333 336C808.556 336 808.777 335.956 808.983 335.87C809.39 335.697 809.711 335.37 809.877 334.961C810.043 334.551 810.04 334.093 809.868 333.686L791.535 290.352C791.388 290.072 791.167 289.838 790.897 289.674C790.626 289.511 790.316 289.424 790 289.424C789.684 289.424 789.374 289.511 789.103 289.674C788.833 289.838 788.612 290.072 788.465 290.352ZM800.178 319.333H779.822L790 295.277L800.178 319.333Z" fill="white"/>
<path d="M822.243 291.104L790.576 279.438C790.204 279.301 789.796 279.301 789.424 279.438L757.757 291.104C757.406 291.233 757.109 291.476 756.914 291.794C756.718 292.113 756.635 292.488 756.678 292.859L761.678 336.192C761.708 336.453 761.799 336.704 761.945 336.923C762.091 337.142 762.287 337.323 762.516 337.452L789.183 352.452C789.432 352.593 789.714 352.667 790 352.667C790.286 352.667 790.568 352.593 790.817 352.452L817.484 337.452C817.713 337.323 817.909 337.142 818.055 336.923C818.201 336.704 818.292 336.453 818.322 336.192L823.322 292.859C823.365 292.488 823.282 292.113 823.086 291.794C822.891 291.476 822.593 291.233 822.243 291.104Z" fill="url(#paint3_linear_1482_2)"/>
<rect x="893" y="509" width="140" height="140" rx="70" fill="#F3F3F3"/>
<path d="M937.167 540H988.833C996.667 540 1003 546.333 1003 554.167V603.833C1003 611.667 996.667 618 988.833 618H937.167C929.333 618 923 611.667 923 603.833V554.167C923 546.333 929.333 540 937.167 540Z" fill="#001834"/>
<path d="M941 594.7V560.4C941 560.167 941.1 560.033 941.333 560.033C941.9 560.033 942.433 560.033 943.2 560C944 559.967 944.833 559.967 945.733 559.933C946.633 559.9 947.6 559.9 948.633 559.867C949.667 559.833 950.667 559.833 951.667 559.833C954.4 559.833 956.667 560.167 958.533 560.867C960.2 561.433 961.733 562.367 963 563.6C964.067 564.667 964.9 565.967 965.433 567.4C965.933 568.8 966.2 570.233 966.2 571.733C966.2 574.6 965.533 576.966 964.2 578.833C962.867 580.7 961 582.1 958.833 582.9C956.567 583.733 954.067 584.033 951.333 584.033C950.533 584.033 950 584.033 949.667 584C949.333 583.967 948.867 583.967 948.233 583.967V594.667C948.267 594.9 948.1 595.1 947.867 595.133C947.833 595.133 947.8 595.133 947.733 595.133H941.4C941.133 595.133 941 595 941 594.7ZM948.267 566.467V577.667C948.733 577.7 949.167 577.733 949.567 577.733H951.333C953.635 577.733 956.293 577.192 957.9 575.367C959.283 573.796 959.287 570.68 958.167 568.967C956.837 566.934 954.179 566.345 951.9 566.4C951.033 566.4 950.267 566.4 949.633 566.433C948.967 566.4 948.5 566.433 948.267 566.467Z" fill="#00A9FF"/>
<path d="M987 575.633C986 575.1 984.933 574.733 983.8 574.5C982.567 574.233 981.333 574.067 980.067 574.067C979.4 574.033 978.7 574.133 978.067 574.3C977.633 574.4 977.267 574.633 977.033 574.967C976.867 575.233 976.767 575.567 976.767 575.867C976.767 576.167 976.9 576.467 977.1 576.733C977.4 577.1 977.8 577.4 978.233 577.633C979 578.033 979.8 578.4 980.6 578.733C982.4 579.333 984.133 580.167 985.733 581.167C986.833 581.867 987.733 582.8 988.367 583.933C988.9 585 989.167 586.167 989.133 587.367C989.167 588.933 988.7 590.5 987.833 591.8C986.9 593.133 985.6 594.167 984.1 594.767C982.467 595.467 980.467 595.833 978.067 595.833C976.533 595.833 975.033 595.7 973.533 595.4C972.367 595.2 971.2 594.833 970.133 594.333C969.9 594.2 969.733 593.967 969.767 593.7V587.9C969.767 587.8 969.8 587.667 969.9 587.6C970 587.533 970.1 587.567 970.2 587.633C971.5 588.4 972.867 588.933 974.333 589.267C975.6 589.6 976.933 589.767 978.267 589.767C979.533 589.767 980.433 589.6 981.033 589.3C981.567 589.067 981.933 588.5 981.933 587.9C981.933 587.433 981.667 587 981.133 586.567C980.6 586.133 979.5 585.633 977.867 585C976.167 584.4 974.6 583.6 973.133 582.6C972.1 581.867 971.233 580.9 970.6 579.767C970.067 578.7 969.8 577.533 969.833 576.367C969.833 574.933 970.233 573.567 970.967 572.333C971.8 571 973.033 569.933 974.467 569.267C976.033 568.467 978 568.1 980.367 568.1C981.733 568.1 983.133 568.2 984.5 568.4C985.5 568.533 986.467 568.8 987.367 569.167C987.5 569.2 987.633 569.333 987.7 569.467C987.733 569.6 987.767 569.733 987.767 569.867V575.3C987.767 575.433 987.7 575.567 987.6 575.633C987.3 575.7 987.133 575.7 987 575.633Z" fill="#00A9FF"/>
<rect x="1228" y="216" width="140" height="140" rx="70" fill="#F3F3F3"/>
<g clip-path="url(#clip4_1482_2)">
<path d="M1263.81 265.565C1256.72 275.747 1257.61 288.989 1263.01 299.808C1263.14 300.064 1263.28 300.317 1263.41 300.573C1263.49 300.736 1263.57 300.901 1263.66 301.064L1263.82 301.344C1263.91 301.515 1264.01 301.677 1264.1 301.848C1264.27 302.144 1264.44 302.437 1264.62 302.733C1264.72 302.896 1264.81 303.056 1264.91 303.219C1265.11 303.531 1265.3 303.843 1265.51 304.157C1265.6 304.288 1265.68 304.424 1265.77 304.552C1266.05 304.968 1266.34 305.389 1266.63 305.803C1266.65 305.813 1266.65 305.829 1266.66 305.835C1266.71 305.901 1266.76 305.971 1266.81 306.032C1267.07 306.392 1267.33 306.741 1267.6 307.085C1267.7 307.216 1267.8 307.341 1267.9 307.467C1268.14 307.768 1268.38 308.067 1268.63 308.368C1268.72 308.477 1268.81 308.592 1268.91 308.701C1269.24 309.091 1269.58 309.483 1269.93 309.864C1269.93 309.869 1269.94 309.88 1269.95 309.885C1269.97 309.907 1269.98 309.912 1269.99 309.933C1270.33 310.304 1270.67 310.661 1271.02 311.021C1271.13 311.136 1271.24 311.245 1271.36 311.355C1271.63 311.632 1271.9 311.901 1272.18 312.168C1272.3 312.277 1272.41 312.387 1272.52 312.491C1272.9 312.84 1273.27 313.184 1273.66 313.523C1273.66 313.528 1273.67 313.533 1273.67 313.533C1273.74 313.595 1273.81 313.648 1273.87 313.704C1274.21 313.995 1274.55 314.288 1274.9 314.573C1275.04 314.688 1275.18 314.797 1275.33 314.912C1275.61 315.136 1275.9 315.36 1276.18 315.584C1276.34 315.699 1276.49 315.813 1276.64 315.933C1276.96 316.168 1277.28 316.397 1277.6 316.621C1277.72 316.709 1277.84 316.792 1277.95 316.872C1277.99 316.893 1278.02 316.92 1278.05 316.939C1278.36 317.152 1278.67 317.355 1278.99 317.557C1279.12 317.645 1279.26 317.739 1279.39 317.829C1279.87 318.131 1280.36 318.435 1280.85 318.725C1280.99 318.803 1281.13 318.877 1281.26 318.955C1281.62 319.163 1281.99 319.365 1282.36 319.568C1282.55 319.677 1282.76 319.776 1282.97 319.88C1283.23 320.016 1283.49 320.157 1283.75 320.285C1283.81 320.317 1283.87 320.347 1283.93 320.373C1284.04 320.427 1284.15 320.477 1284.25 320.531C1284.66 320.728 1285.08 320.92 1285.5 321.109C1285.59 321.152 1285.67 321.187 1285.77 321.224C1286.25 321.437 1286.73 321.64 1287.22 321.829C1287.34 321.883 1287.45 321.923 1287.57 321.971C1288.03 322.147 1288.49 322.32 1288.94 322.48C1289 322.501 1289.06 322.517 1289.11 322.536C1289.62 322.712 1290.13 322.88 1290.65 323.037C1290.77 323.075 1290.89 323.115 1291.02 323.147C1291.54 323.309 1292.05 323.496 1292.59 323.595C1326.85 329.84 1336.79 303.011 1336.79 303.011C1328.44 313.896 1313.61 316.771 1299.55 313.573C1299.02 313.453 1298.5 313.288 1297.98 313.131C1297.85 313.093 1297.72 313.053 1297.59 313.011C1297.09 312.859 1296.58 312.693 1296.09 312.52C1296.02 312.493 1295.95 312.472 1295.88 312.448C1295.43 312.285 1294.99 312.125 1294.54 311.952C1294.42 311.899 1294.3 311.853 1294.17 311.805C1293.69 311.613 1293.21 311.416 1292.73 311.205C1292.64 311.163 1292.54 311.123 1292.45 311.08C1292.04 310.893 1291.64 310.704 1291.23 310.512C1291.12 310.459 1291 310.403 1290.88 310.344C1290.57 310.187 1290.26 310.027 1289.94 309.864C1289.74 309.755 1289.53 309.651 1289.32 309.536C1288.94 309.333 1288.57 309.125 1288.19 308.907C1288.07 308.84 1287.94 308.771 1287.81 308.699C1287.32 308.408 1286.83 308.104 1286.35 307.797C1286.22 307.715 1286.09 307.627 1285.95 307.536C1285.61 307.312 1285.26 307.077 1284.91 306.843C1284.8 306.765 1284.69 306.68 1284.58 306.608C1284.25 306.373 1283.92 306.133 1283.59 305.893C1283.44 305.784 1283.3 305.675 1283.16 305.56C1282.86 305.336 1282.56 305.107 1282.27 304.867C1282.13 304.763 1282 304.653 1281.87 304.549C1281.5 304.243 1281.13 303.936 1280.77 303.616C1280.73 303.584 1280.69 303.549 1280.64 303.512C1280.25 303.168 1279.86 302.813 1279.48 302.456C1279.36 302.355 1279.25 302.251 1279.15 302.147C1278.86 301.875 1278.58 301.605 1278.31 301.323C1278.2 301.213 1278.09 301.109 1277.98 301C1277.63 300.64 1277.29 300.28 1276.95 299.912C1276.94 299.896 1276.92 299.875 1276.9 299.859C1276.55 299.469 1276.2 299.072 1275.86 298.672C1275.77 298.563 1275.68 298.459 1275.59 298.349C1275.34 298.048 1275.09 297.736 1274.84 297.421C1274.75 297.312 1274.66 297.197 1274.57 297.083C1274.27 296.696 1273.98 296.317 1273.7 295.931C1265.9 285.288 1263.09 270.611 1269.33 258.555" fill="black"/>
<path d="M1285.79 256.987C1280.67 264.363 1280.95 274.227 1284.94 282.024C1285.61 283.331 1286.37 284.597 1287.21 285.805C1287.98 286.904 1288.83 288.216 1289.85 289.093C1290.22 289.499 1290.6 289.901 1291 290.285C1291.1 290.389 1291.2 290.488 1291.3 290.587C1291.68 290.957 1292.07 291.32 1292.47 291.675C1292.49 291.691 1292.5 291.707 1292.52 291.717C1292.53 291.722 1292.53 291.723 1292.53 291.728C1292.98 292.117 1293.44 292.493 1293.9 292.864C1294.01 292.941 1294.11 293.027 1294.22 293.109C1294.69 293.469 1295.16 293.819 1295.65 294.157C1295.66 294.168 1295.68 294.178 1295.69 294.189C1295.91 294.341 1296.13 294.474 1296.35 294.621C1296.45 294.688 1296.55 294.763 1296.66 294.824C1297.01 295.048 1297.36 295.266 1297.72 295.474C1297.77 295.507 1297.82 295.531 1297.87 295.562C1298.18 295.739 1298.49 295.917 1298.81 296.088C1298.92 296.149 1299.03 296.202 1299.14 296.258C1299.36 296.373 1299.58 296.488 1299.8 296.603C1299.84 296.618 1299.87 296.635 1299.9 296.645C1300.35 296.869 1300.81 297.083 1301.27 297.285C1301.37 297.328 1301.47 297.368 1301.58 297.41C1301.95 297.568 1302.32 297.722 1302.7 297.864C1302.86 297.925 1303.02 297.984 1303.18 298.04C1303.53 298.17 1303.87 298.285 1304.22 298.4C1304.37 298.453 1304.53 298.504 1304.68 298.552C1305.18 298.704 1305.66 298.901 1306.18 298.984C1332.62 303.365 1338.73 283.008 1338.73 283.008C1333.22 290.928 1322.57 294.715 1311.19 291.76C1310.69 291.624 1310.19 291.483 1309.69 291.328C1309.54 291.28 1309.4 291.229 1309.25 291.181C1308.89 291.067 1308.54 290.947 1308.19 290.816C1308.03 290.76 1307.88 290.701 1307.72 290.645C1307.34 290.499 1306.97 290.349 1306.59 290.187C1306.49 290.144 1306.39 290.104 1306.29 290.061C1305.82 289.859 1305.36 289.64 1304.91 289.416C1304.67 289.307 1304.45 289.187 1304.22 289.067C1304.09 289 1303.95 288.925 1303.82 288.859C1303.53 288.701 1303.23 288.536 1302.94 288.371C1302.87 288.328 1302.8 288.293 1302.73 288.253C1302.38 288.045 1302.02 287.826 1301.68 287.608C1301.57 287.536 1301.46 287.461 1301.35 287.395C1301.13 287.243 1300.9 287.093 1300.67 286.936C1300.18 286.603 1299.71 286.248 1299.24 285.893C1299.13 285.805 1299.02 285.723 1298.92 285.637C1293.94 281.704 1289.99 276.336 1288.11 270.243C1286.15 263.925 1286.57 256.837 1289.98 251.08" fill="black"/>
<path d="M1304.28 250.581C1301.26 255.024 1300.97 260.544 1303.06 265.451C1305.27 270.664 1309.8 274.747 1315.08 276.685C1315.3 276.768 1315.52 276.843 1315.74 276.915C1315.84 276.947 1315.93 276.976 1316.03 277.008C1316.34 277.101 1316.65 277.216 1316.97 277.28C1331.58 280.104 1335.53 269.784 1336.59 268.264C1333.11 273.264 1327.29 274.461 1320.13 272.723C1319.57 272.587 1318.95 272.384 1318.41 272.192C1317.7 271.941 1317.02 271.656 1316.35 271.339C1315.08 270.728 1313.87 269.989 1312.74 269.141C1306.34 264.283 1302.36 255.016 1306.54 247.469" fill="black"/>
</g>
<rect x="529" y="38" width="140" height="140" rx="70" fill="#F3F3F3"/>
<g clip-path="url(#clip5_1482_2)">
<path d="M627.339 83.7219L622.175 141.566L598.965 148L575.819 141.575L570.661 83.7219H627.339Z" fill="#004CE8"/>
<path d="M617.755 137.882L622.167 88.4521H599V143.082L617.755 137.882Z" fill="#0065F4"/>
<path d="M582.486 109.909L583.122 117.004H599L602.052 113.457L599 109.909H582.486Z" fill="#EBEBEB"/>
<path d="M599 95.5476H598.975H581.208L581.853 102.643H599L602.052 99.0953L599 95.5476Z" fill="#EBEBEB"/>
<path d="M599 135.719L602.052 131.956L599 128.336L598.969 128.345L591.067 126.211L590.562 120.552H586.722H583.439L584.433 131.693L598.967 135.728L599 135.719Z" fill="#EBEBEB"/>
<path d="M607.713 117.004L606.889 126.206L598.975 128.342V135.724L613.521 131.693L613.628 130.494L615.295 111.814L615.469 109.909L616.75 95.5476H598.975V102.643H608.974L608.328 109.909H598.975V117.004H607.713Z" fill="white"/>
</g>
<rect x="110" y="396" width="140" height="140" rx="70" fill="#F3F3F3"/>
<g clip-path="url(#clip6_1482_2)">
<path d="M140 426L146.667 499.333L180 506L213.333 499.333L220 426H140ZM176.667 491.732L159.043 488.213L157.933 476H164.629L165.232 482.653L170 483.604V439.333H176.667V491.732H176.667ZM204.792 446H190V462.667H203.278L200.957 488.214L183.333 491.733V484.936L194.766 482.654L195.977 469.334H183.333V439.334H205.397L204.792 446Z" fill="black"/>
</g>
<rect x="349" y="496" width="140" height="140" rx="70" fill="#F3F3F3"/>
<path d="M419.094 566C419.094 558.636 425.063 552.667 432.427 552.667C439.791 552.667 445.76 558.636 445.76 566C445.76 573.364 439.79 579.333 432.427 579.333C425.063 579.333 419.094 573.364 419.094 566Z" fill="#00BCFF"/>
<path d="M392.427 592.667C392.427 585.303 398.396 579.333 405.76 579.333L412.866 575.582L419.093 579.333V592.667C419.093 600.031 413.124 606 405.76 606C398.396 606 392.427 600.03 392.427 592.667Z" fill="#00CF7F"/>
<path d="M419.094 526L411.838 538.605L419.094 552.667H432.24C439.604 552.667 445.573 546.697 445.573 539.333C445.573 531.97 439.604 526 432.24 526H419.094Z" fill="#FF7361"/>
<path d="M392.24 539.333C392.24 546.697 398.209 552.667 405.573 552.667L412.646 555.398L419.093 552.667V526H405.573C398.209 526 392.24 531.97 392.24 539.333Z" fill="#FF4D12"/>
<path d="M392.427 566C392.427 573.364 398.396 579.333 405.76 579.333H419.093V552.667H405.76C398.396 552.667 392.427 558.636 392.427 566Z" fill="#B659FF"/>
<path d="M221.501 320.832V332H219.261V327.248H214.477V332H212.237V320.832H214.477V325.424H219.261V320.832H221.501ZM231.306 320.832V322.64H228.33V332H226.09V322.64H223.114V320.832H231.306ZM245.116 320.832V332H242.876V324.736L239.884 332H238.188L235.18 324.736V332H232.94V320.832H235.484L239.036 329.136L242.588 320.832H245.116ZM249.571 330.224H253.251V332H247.331V320.832H249.571V330.224ZM262.258 322.272H257.074V325.008C257.298 324.731 257.618 324.507 258.034 324.336C258.45 324.155 258.893 324.064 259.362 324.064C260.216 324.064 260.914 324.251 261.458 324.624C262.002 324.997 262.397 325.477 262.642 326.064C262.888 326.64 263.01 327.259 263.01 327.92C263.01 329.147 262.658 330.133 261.954 330.88C261.261 331.627 260.269 332 258.978 332C257.762 332 256.792 331.696 256.066 331.088C255.341 330.48 254.93 329.685 254.834 328.704H257.01C257.106 329.131 257.32 329.472 257.65 329.728C257.992 329.984 258.424 330.112 258.946 330.112C259.576 330.112 260.05 329.915 260.37 329.52C260.69 329.125 260.85 328.603 260.85 327.952C260.85 327.291 260.685 326.789 260.354 326.448C260.034 326.096 259.56 325.92 258.93 325.92C258.482 325.92 258.109 326.032 257.81 326.256C257.512 326.48 257.298 326.779 257.17 327.152H255.026V320.304H262.258V322.272Z" fill="white"/>
<path d="M579.88 204.4C579.88 203.301 580.126 202.32 580.616 201.456C581.118 200.581 581.795 199.904 582.648 199.424C583.512 198.933 584.478 198.688 585.544 198.688C586.792 198.688 587.886 199.008 588.824 199.648C589.763 200.288 590.419 201.173 590.792 202.304H588.216C587.96 201.771 587.598 201.371 587.128 201.104C586.67 200.837 586.136 200.704 585.528 200.704C584.878 200.704 584.296 200.859 583.784 201.168C583.283 201.467 582.888 201.893 582.6 202.448C582.323 203.003 582.184 203.653 582.184 204.4C582.184 205.136 582.323 205.787 582.6 206.352C582.888 206.907 583.283 207.339 583.784 207.648C584.296 207.947 584.878 208.096 585.528 208.096C586.136 208.096 586.67 207.963 587.128 207.696C587.598 207.419 587.96 207.013 588.216 206.48H590.792C590.419 207.621 589.763 208.512 588.824 209.152C587.896 209.781 586.803 210.096 585.544 210.096C584.478 210.096 583.512 209.856 582.648 209.376C581.795 208.885 581.118 208.208 580.616 207.344C580.126 206.48 579.88 205.499 579.88 204.4ZM596.562 210.112C595.783 210.112 595.079 209.979 594.45 209.712C593.831 209.445 593.34 209.061 592.978 208.56C592.615 208.059 592.428 207.467 592.418 206.784H594.818C594.85 207.243 595.01 207.605 595.298 207.872C595.596 208.139 596.002 208.272 596.514 208.272C597.036 208.272 597.447 208.149 597.746 207.904C598.044 207.648 598.194 207.317 598.194 206.912C598.194 206.581 598.092 206.309 597.89 206.096C597.687 205.883 597.431 205.717 597.122 205.6C596.823 205.472 596.407 205.333 595.874 205.184C595.148 204.971 594.556 204.763 594.098 204.56C593.65 204.347 593.26 204.032 592.93 203.616C592.61 203.189 592.45 202.624 592.45 201.92C592.45 201.259 592.615 200.683 592.946 200.192C593.276 199.701 593.74 199.328 594.338 199.072C594.935 198.805 595.618 198.672 596.386 198.672C597.538 198.672 598.471 198.955 599.186 199.52C599.911 200.075 600.311 200.853 600.386 201.856H597.922C597.9 201.472 597.735 201.157 597.426 200.912C597.127 200.656 596.727 200.528 596.226 200.528C595.788 200.528 595.436 200.64 595.17 200.864C594.914 201.088 594.786 201.413 594.786 201.84C594.786 202.139 594.882 202.389 595.074 202.592C595.276 202.784 595.522 202.944 595.81 203.072C596.108 203.189 596.524 203.328 597.058 203.488C597.783 203.701 598.375 203.915 598.834 204.128C599.292 204.341 599.687 204.661 600.018 205.088C600.348 205.515 600.514 206.075 600.514 206.768C600.514 207.365 600.359 207.92 600.05 208.432C599.74 208.944 599.287 209.355 598.69 209.664C598.092 209.963 597.383 210.112 596.562 210.112ZM606.312 210.112C605.533 210.112 604.829 209.979 604.2 209.712C603.581 209.445 603.09 209.061 602.728 208.56C602.365 208.059 602.178 207.467 602.168 206.784H604.568C604.6 207.243 604.76 207.605 605.048 207.872C605.346 208.139 605.752 208.272 606.264 208.272C606.786 208.272 607.197 208.149 607.496 207.904C607.794 207.648 607.944 207.317 607.944 206.912C607.944 206.581 607.842 206.309 607.64 206.096C607.437 205.883 607.181 205.717 606.872 205.6C606.573 205.472 606.157 205.333 605.624 205.184C604.898 204.971 604.306 204.763 603.848 204.56C603.4 204.347 603.01 204.032 602.68 203.616C602.36 203.189 602.2 202.624 602.2 201.92C602.2 201.259 602.365 200.683 602.696 200.192C603.026 199.701 603.49 199.328 604.088 199.072C604.685 198.805 605.368 198.672 606.136 198.672C607.288 198.672 608.221 198.955 608.936 199.52C609.661 200.075 610.061 200.853 610.136 201.856H607.672C607.65 201.472 607.485 201.157 607.176 200.912C606.877 200.656 606.477 200.528 605.976 200.528C605.538 200.528 605.186 200.64 604.92 200.864C604.664 201.088 604.536 201.413 604.536 201.84C604.536 202.139 604.632 202.389 604.824 202.592C605.026 202.784 605.272 202.944 605.56 203.072C605.858 203.189 606.274 203.328 606.808 203.488C607.533 203.701 608.125 203.915 608.584 204.128C609.042 204.341 609.437 204.661 609.768 205.088C610.098 205.515 610.264 206.075 610.264 206.768C610.264 207.365 610.109 207.92 609.8 208.432C609.49 208.944 609.037 209.355 608.44 209.664C607.842 209.963 607.133 210.112 606.312 210.112ZM611.982 201.408C612.035 200.341 612.408 199.52 613.102 198.944C613.806 198.357 614.728 198.064 615.87 198.064C616.648 198.064 617.315 198.203 617.87 198.48C618.424 198.747 618.84 199.115 619.118 199.584C619.406 200.043 619.55 200.565 619.55 201.152C619.55 201.824 619.374 202.395 619.022 202.864C618.68 203.323 618.27 203.632 617.79 203.792V203.856C618.408 204.048 618.888 204.389 619.23 204.88C619.582 205.371 619.758 206 619.758 206.768C619.758 207.408 619.608 207.979 619.31 208.48C619.022 208.981 618.59 209.376 618.014 209.664C617.448 209.941 616.766 210.08 615.966 210.08C614.76 210.08 613.779 209.776 613.022 209.168C612.264 208.56 611.864 207.664 611.822 206.48H613.998C614.019 207.003 614.195 207.424 614.526 207.744C614.867 208.053 615.331 208.208 615.918 208.208C616.462 208.208 616.878 208.059 617.166 207.76C617.464 207.451 617.614 207.056 617.614 206.576C617.614 205.936 617.411 205.477 617.006 205.2C616.6 204.923 615.971 204.784 615.118 204.784H614.654V202.944H615.118C616.632 202.944 617.39 202.437 617.39 201.424C617.39 200.965 617.251 200.608 616.974 200.352C616.707 200.096 616.318 199.968 615.806 199.968C615.304 199.968 614.915 200.107 614.638 200.384C614.371 200.651 614.216 200.992 614.174 201.408H611.982Z" fill="white"/>
<path d="M991.108 241.112C990.33 241.112 989.626 240.979 988.996 240.712C988.378 240.445 987.887 240.061 987.524 239.56C987.162 239.059 986.975 238.467 986.964 237.784H989.364C989.396 238.243 989.556 238.605 989.844 238.872C990.143 239.139 990.548 239.272 991.06 239.272C991.583 239.272 991.994 239.149 992.292 238.904C992.591 238.648 992.74 238.317 992.74 237.912C992.74 237.581 992.639 237.309 992.436 237.096C992.234 236.883 991.978 236.717 991.668 236.6C991.37 236.472 990.954 236.333 990.42 236.184C989.695 235.971 989.103 235.763 988.644 235.56C988.196 235.347 987.807 235.032 987.476 234.616C987.156 234.189 986.996 233.624 986.996 232.92C986.996 232.259 987.162 231.683 987.492 231.192C987.823 230.701 988.287 230.328 988.884 230.072C989.482 229.805 990.164 229.672 990.932 229.672C992.084 229.672 993.018 229.955 993.732 230.52C994.458 231.075 994.858 231.853 994.932 232.856H992.468C992.447 232.472 992.282 232.157 991.972 231.912C991.674 231.656 991.274 231.528 990.772 231.528C990.335 231.528 989.983 231.64 989.716 231.864C989.46 232.088 989.332 232.413 989.332 232.84C989.332 233.139 989.428 233.389 989.62 233.592C989.823 233.784 990.068 233.944 990.356 234.072C990.655 234.189 991.071 234.328 991.604 234.488C992.33 234.701 992.922 234.915 993.38 235.128C993.839 235.341 994.234 235.661 994.564 236.088C994.895 236.515 995.06 237.075 995.06 237.768C995.06 238.365 994.906 238.92 994.596 239.432C994.287 239.944 993.834 240.355 993.236 240.664C992.639 240.963 991.93 241.112 991.108 241.112ZM1003.85 238.872H999.402L998.666 241H996.314L1000.33 229.816H1002.94L1006.95 241H1004.59L1003.85 238.872ZM1003.24 237.08L1001.63 232.408L1000.01 237.08H1003.24ZM1012.31 241.112C1011.53 241.112 1010.83 240.979 1010.2 240.712C1009.58 240.445 1009.09 240.061 1008.73 239.56C1008.36 239.059 1008.18 238.467 1008.17 237.784H1010.57C1010.6 238.243 1010.76 238.605 1011.05 238.872C1011.35 239.139 1011.75 239.272 1012.26 239.272C1012.79 239.272 1013.2 239.149 1013.5 238.904C1013.79 238.648 1013.94 238.317 1013.94 237.912C1013.94 237.581 1013.84 237.309 1013.64 237.096C1013.44 236.883 1013.18 236.717 1012.87 236.6C1012.57 236.472 1012.16 236.333 1011.62 236.184C1010.9 235.971 1010.31 235.763 1009.85 235.56C1009.4 235.347 1009.01 235.032 1008.68 234.616C1008.36 234.189 1008.2 233.624 1008.2 232.92C1008.2 232.259 1008.36 231.683 1008.7 231.192C1009.03 230.701 1009.49 230.328 1010.09 230.072C1010.68 229.805 1011.37 229.672 1012.14 229.672C1013.29 229.672 1014.22 229.955 1014.94 230.52C1015.66 231.075 1016.06 231.853 1016.14 232.856H1013.67C1013.65 232.472 1013.48 232.157 1013.18 231.912C1012.88 231.656 1012.48 231.528 1011.98 231.528C1011.54 231.528 1011.19 231.64 1010.92 231.864C1010.66 232.088 1010.54 232.413 1010.54 232.84C1010.54 233.139 1010.63 233.389 1010.82 233.592C1011.03 233.784 1011.27 233.944 1011.56 234.072C1011.86 234.189 1012.27 234.328 1012.81 234.488C1013.53 234.701 1014.12 234.915 1014.58 235.128C1015.04 235.341 1015.44 235.661 1015.77 236.088C1016.1 236.515 1016.26 237.075 1016.26 237.768C1016.26 238.365 1016.11 238.92 1015.8 239.432C1015.49 239.944 1015.04 240.355 1014.44 240.664C1013.84 240.963 1013.13 241.112 1012.31 241.112ZM1022.06 241.112C1021.28 241.112 1020.58 240.979 1019.95 240.712C1019.33 240.445 1018.84 240.061 1018.48 239.56C1018.11 239.059 1017.93 238.467 1017.92 237.784H1020.32C1020.35 238.243 1020.51 238.605 1020.8 238.872C1021.1 239.139 1021.5 239.272 1022.01 239.272C1022.54 239.272 1022.95 239.149 1023.25 238.904C1023.54 238.648 1023.69 238.317 1023.69 237.912C1023.69 237.581 1023.59 237.309 1023.39 237.096C1023.19 236.883 1022.93 236.717 1022.62 236.6C1022.32 236.472 1021.91 236.333 1021.37 236.184C1020.65 235.971 1020.06 235.763 1019.6 235.56C1019.15 235.347 1018.76 235.032 1018.43 234.616C1018.11 234.189 1017.95 233.624 1017.95 232.92C1017.95 232.259 1018.11 231.683 1018.45 231.192C1018.78 230.701 1019.24 230.328 1019.84 230.072C1020.43 229.805 1021.12 229.672 1021.89 229.672C1023.04 229.672 1023.97 229.955 1024.69 230.52C1025.41 231.075 1025.81 231.853 1025.89 232.856H1023.42C1023.4 232.472 1023.23 232.157 1022.93 231.912C1022.63 231.656 1022.23 231.528 1021.73 231.528C1021.29 231.528 1020.94 231.64 1020.67 231.864C1020.41 232.088 1020.29 232.413 1020.29 232.84C1020.29 233.139 1020.38 233.389 1020.57 233.592C1020.78 233.784 1021.02 233.944 1021.31 234.072C1021.61 234.189 1022.02 234.328 1022.56 234.488C1023.28 234.701 1023.87 234.915 1024.33 235.128C1024.79 235.341 1025.19 235.661 1025.52 236.088C1025.85 236.515 1026.01 237.075 1026.01 237.768C1026.01 238.365 1025.86 238.92 1025.55 239.432C1025.24 239.944 1024.79 240.355 1024.19 240.664C1023.59 240.963 1022.88 241.112 1022.06 241.112Z" fill="white"/>
<path d="M1271.71 374.832V382.672C1271.71 383.76 1271.4 384.608 1270.77 385.216C1270.14 385.813 1269.29 386.112 1268.24 386.112C1267.17 386.112 1266.31 385.803 1265.65 385.184C1265 384.565 1264.67 383.701 1264.67 382.592H1266.91C1266.92 383.072 1267.03 383.445 1267.25 383.712C1267.47 383.979 1267.79 384.112 1268.21 384.112C1268.61 384.112 1268.92 383.984 1269.13 383.728C1269.35 383.472 1269.45 383.12 1269.45 382.672V374.832H1271.71ZM1282.64 387.968L1280.95 385.936C1280.48 386.053 1280 386.112 1279.51 386.112C1278.46 386.112 1277.5 385.867 1276.63 385.376C1275.75 384.885 1275.06 384.208 1274.55 383.344C1274.03 382.469 1273.78 381.483 1273.78 380.384C1273.78 379.296 1274.03 378.32 1274.55 377.456C1275.06 376.581 1275.75 375.899 1276.63 375.408C1277.5 374.917 1278.46 374.672 1279.51 374.672C1280.56 374.672 1281.52 374.917 1282.39 375.408C1283.26 375.899 1283.95 376.581 1284.45 377.456C1284.96 378.32 1285.22 379.296 1285.22 380.384C1285.22 381.376 1285.01 382.283 1284.58 383.104C1284.16 383.915 1283.59 384.576 1282.87 385.088L1285.43 387.968H1282.64ZM1276.08 380.384C1276.08 381.131 1276.23 381.787 1276.51 382.352C1276.8 382.917 1277.2 383.355 1277.71 383.664C1278.24 383.963 1278.83 384.112 1279.51 384.112C1280.18 384.112 1280.77 383.963 1281.28 383.664C1281.79 383.355 1282.19 382.917 1282.48 382.352C1282.77 381.787 1282.91 381.131 1282.91 380.384C1282.91 379.637 1282.77 378.987 1282.48 378.432C1282.19 377.867 1281.79 377.435 1281.28 377.136C1280.77 376.837 1280.18 376.688 1279.51 376.688C1278.83 376.688 1278.24 376.837 1277.71 377.136C1277.2 377.435 1276.8 377.867 1276.51 378.432C1276.23 378.987 1276.08 379.637 1276.08 380.384ZM1289.12 374.832V381.744C1289.12 382.501 1289.32 383.083 1289.72 383.488C1290.11 383.883 1290.67 384.08 1291.38 384.08C1292.11 384.08 1292.67 383.883 1293.06 383.488C1293.46 383.083 1293.65 382.501 1293.65 381.744V374.832H1295.91V381.728C1295.91 382.677 1295.7 383.483 1295.28 384.144C1294.88 384.795 1294.33 385.285 1293.64 385.616C1292.95 385.947 1292.19 386.112 1291.35 386.112C1290.52 386.112 1289.76 385.947 1289.08 385.616C1288.4 385.285 1287.87 384.795 1287.48 384.144C1287.08 383.483 1286.88 382.677 1286.88 381.728V374.832H1289.12ZM1300.31 376.64V379.44H1304.07V381.216H1300.31V384.176H1304.55V386H1298.07V374.816H1304.55V376.64H1300.31ZM1312.35 386L1309.88 381.648H1308.83V386H1306.59V374.832H1310.78C1311.64 374.832 1312.38 374.987 1312.99 375.296C1313.6 375.595 1314.05 376.005 1314.35 376.528C1314.66 377.04 1314.81 377.616 1314.81 378.256C1314.81 378.992 1314.6 379.659 1314.17 380.256C1313.75 380.843 1313.11 381.248 1312.27 381.472L1314.94 386H1312.35ZM1308.83 379.968H1310.7C1311.31 379.968 1311.76 379.824 1312.06 379.536C1312.36 379.237 1312.51 378.827 1312.51 378.304C1312.51 377.792 1312.36 377.397 1312.06 377.12C1311.76 376.832 1311.31 376.688 1310.7 376.688H1308.83V379.968ZM1325.72 374.832L1321.94 382.112V386H1319.7V382.112L1315.91 374.832H1318.44L1320.84 379.936L1323.22 374.832H1325.72Z" fill="white"/>
<path d="M138.061 556.832V564.672C138.061 565.76 137.747 566.608 137.117 567.216C136.488 567.813 135.645 568.112 134.589 568.112C133.523 568.112 132.659 567.803 131.997 567.184C131.347 566.565 131.021 565.701 131.021 564.592H133.261C133.272 565.072 133.384 565.445 133.597 565.712C133.821 565.979 134.141 566.112 134.557 566.112C134.963 566.112 135.272 565.984 135.485 565.728C135.699 565.472 135.805 565.12 135.805 564.672V556.832H138.061ZM147.522 565.872H143.074L142.338 568H139.986L144.002 556.816H146.61L150.626 568H148.258L147.522 565.872ZM146.914 564.08L145.298 559.408L143.682 564.08H146.914ZM162.159 556.832L158.063 568H155.343L151.247 556.832H153.647L156.719 565.712L159.775 556.832H162.159ZM170.35 565.872H165.902L165.166 568H162.814L166.83 556.816H169.438L173.454 568H171.086L170.35 565.872ZM169.742 564.08L168.126 559.408L166.51 564.08H169.742ZM178.812 568.112C178.033 568.112 177.329 567.979 176.7 567.712C176.081 567.445 175.59 567.061 175.228 566.56C174.865 566.059 174.678 565.467 174.668 564.784H177.068C177.1 565.243 177.26 565.605 177.548 565.872C177.846 566.139 178.252 566.272 178.764 566.272C179.286 566.272 179.697 566.149 179.996 565.904C180.294 565.648 180.444 565.317 180.444 564.912C180.444 564.581 180.342 564.309 180.14 564.096C179.937 563.883 179.681 563.717 179.372 563.6C179.073 563.472 178.657 563.333 178.124 563.184C177.398 562.971 176.806 562.763 176.348 562.56C175.9 562.347 175.51 562.032 175.18 561.616C174.86 561.189 174.7 560.624 174.7 559.92C174.7 559.259 174.865 558.683 175.196 558.192C175.526 557.701 175.99 557.328 176.588 557.072C177.185 556.805 177.868 556.672 178.636 556.672C179.788 556.672 180.721 556.955 181.436 557.52C182.161 558.075 182.561 558.853 182.636 559.856H180.172C180.15 559.472 179.985 559.157 179.676 558.912C179.377 558.656 178.977 558.528 178.476 558.528C178.038 558.528 177.686 558.64 177.42 558.864C177.164 559.088 177.036 559.413 177.036 559.84C177.036 560.139 177.132 560.389 177.324 560.592C177.526 560.784 177.772 560.944 178.06 561.072C178.358 561.189 178.774 561.328 179.308 561.488C180.033 561.701 180.625 561.915 181.084 562.128C181.542 562.341 181.937 562.661 182.268 563.088C182.598 563.515 182.764 564.075 182.764 564.768C182.764 565.365 182.609 565.92 182.3 566.432C181.99 566.944 181.537 567.355 180.94 567.664C180.342 567.963 179.633 568.112 178.812 568.112ZM184.162 562.4C184.162 561.301 184.407 560.32 184.898 559.456C185.399 558.581 186.076 557.904 186.93 557.424C187.794 556.933 188.759 556.688 189.826 556.688C191.074 556.688 192.167 557.008 193.106 557.648C194.044 558.288 194.7 559.173 195.074 560.304H192.498C192.242 559.771 191.879 559.371 191.41 559.104C190.951 558.837 190.418 558.704 189.81 558.704C189.159 558.704 188.578 558.859 188.066 559.168C187.564 559.467 187.17 559.893 186.882 560.448C186.604 561.003 186.466 561.653 186.466 562.4C186.466 563.136 186.604 563.787 186.882 564.352C187.17 564.907 187.564 565.339 188.066 565.648C188.578 565.947 189.159 566.096 189.81 566.096C190.418 566.096 190.951 565.963 191.41 565.696C191.879 565.419 192.242 565.013 192.498 564.48H195.074C194.7 565.621 194.044 566.512 193.106 567.152C192.178 567.781 191.084 568.096 189.826 568.096C188.759 568.096 187.794 567.856 186.93 567.376C186.076 566.885 185.399 566.208 184.898 565.344C184.407 564.48 184.162 563.499 184.162 562.4ZM202.747 568L200.283 563.648H199.227V568H196.987V556.832H201.179C202.043 556.832 202.779 556.987 203.387 557.296C203.995 557.595 204.448 558.005 204.747 558.528C205.056 559.04 205.211 559.616 205.211 560.256C205.211 560.992 204.997 561.659 204.571 562.256C204.144 562.843 203.509 563.248 202.667 563.472L205.339 568H202.747ZM199.227 561.968H201.099C201.707 561.968 202.16 561.824 202.459 561.536C202.757 561.237 202.907 560.827 202.907 560.304C202.907 559.792 202.757 559.397 202.459 559.12C202.16 558.832 201.707 558.688 201.099 558.688H199.227V561.968ZM209.477 556.832V568H207.237V556.832H209.477ZM219.834 560.288C219.834 560.885 219.69 561.445 219.402 561.968C219.125 562.491 218.682 562.912 218.074 563.232C217.477 563.552 216.719 563.712 215.802 563.712H213.93V568H211.69V556.832H215.802C216.666 556.832 217.402 556.981 218.01 557.28C218.618 557.579 219.071 557.989 219.37 558.512C219.679 559.035 219.834 559.627 219.834 560.288ZM215.706 561.904C216.325 561.904 216.783 561.765 217.082 561.488C217.381 561.2 217.53 560.8 217.53 560.288C217.53 559.2 216.922 558.656 215.706 558.656H213.93V561.904H215.706ZM229.024 556.832V558.64H226.048V568H223.808V558.64H220.832V556.832H229.024Z" fill="white"/>
<path d="M469.997 444L467.533 439.648H466.477V444H464.237V432.832H468.429C469.293 432.832 470.029 432.987 470.637 433.296C471.245 433.595 471.698 434.005 471.997 434.528C472.306 435.04 472.461 435.616 472.461 436.256C472.461 436.992 472.247 437.659 471.821 438.256C471.394 438.843 470.759 439.248 469.917 439.472L472.589 444H469.997ZM466.477 437.968H468.349C468.957 437.968 469.41 437.824 469.709 437.536C470.007 437.237 470.157 436.827 470.157 436.304C470.157 435.792 470.007 435.397 469.709 435.12C469.41 434.832 468.957 434.688 468.349 434.688H466.477V437.968ZM476.727 434.64V437.44H480.487V439.216H476.727V442.176H480.967V444H474.487V432.816H480.967V434.64H476.727ZM489.85 441.872H485.402L484.666 444H482.314L486.33 432.816H488.938L492.954 444H490.586L489.85 441.872ZM489.242 440.08L487.626 435.408L486.01 440.08H489.242ZM493.912 438.4C493.912 437.301 494.157 436.32 494.648 435.456C495.149 434.581 495.826 433.904 496.68 433.424C497.544 432.933 498.509 432.688 499.576 432.688C500.824 432.688 501.917 433.008 502.856 433.648C503.794 434.288 504.45 435.173 504.824 436.304H502.248C501.992 435.771 501.629 435.371 501.16 435.104C500.701 434.837 500.168 434.704 499.56 434.704C498.909 434.704 498.328 434.859 497.816 435.168C497.314 435.467 496.92 435.893 496.632 436.448C496.354 437.003 496.216 437.653 496.216 438.4C496.216 439.136 496.354 439.787 496.632 440.352C496.92 440.907 497.314 441.339 497.816 441.648C498.328 441.947 498.909 442.096 499.56 442.096C500.168 442.096 500.701 441.963 501.16 441.696C501.629 441.419 501.992 441.013 502.248 440.48H504.824C504.45 441.621 503.794 442.512 502.856 443.152C501.928 443.781 500.834 444.096 499.576 444.096C498.509 444.096 497.544 443.856 496.68 443.376C495.826 442.885 495.149 442.208 494.648 441.344C494.157 440.48 493.912 439.499 493.912 438.4ZM514.337 432.832V434.64H511.361V444H509.121V434.64H506.145V432.832H514.337Z" fill="white"/>
<path d="M756.1 417.872H751.652L750.916 420H748.564L752.58 408.816H755.188L759.204 420H756.836L756.1 417.872ZM755.492 416.08L753.876 411.408L752.26 416.08H755.492ZM770.258 420H768.018L762.946 412.336V420H760.706V408.816H762.946L768.018 416.496V408.816H770.258V420ZM780.247 412.192C779.991 411.723 779.639 411.365 779.191 411.12C778.743 410.875 778.221 410.752 777.623 410.752C776.962 410.752 776.375 410.901 775.863 411.2C775.351 411.499 774.951 411.925 774.663 412.48C774.375 413.035 774.231 413.675 774.231 414.4C774.231 415.147 774.375 415.797 774.663 416.352C774.962 416.907 775.373 417.333 775.895 417.632C776.418 417.931 777.026 418.08 777.719 418.08C778.573 418.08 779.271 417.856 779.815 417.408C780.359 416.949 780.717 416.315 780.887 415.504H777.047V413.792H783.095V415.744C782.946 416.523 782.626 417.243 782.135 417.904C781.645 418.565 781.01 419.099 780.231 419.504C779.463 419.899 778.599 420.096 777.639 420.096C776.562 420.096 775.586 419.856 774.711 419.376C773.847 418.885 773.165 418.208 772.663 417.344C772.173 416.48 771.927 415.499 771.927 414.4C771.927 413.301 772.173 412.32 772.663 411.456C773.165 410.581 773.847 409.904 774.711 409.424C775.586 408.933 776.557 408.688 777.623 408.688C778.882 408.688 779.975 408.997 780.903 409.616C781.831 410.224 782.471 411.083 782.823 412.192H780.247ZM786.96 408.832V415.744C786.96 416.501 787.158 417.083 787.552 417.488C787.947 417.883 788.502 418.08 789.216 418.08C789.942 418.08 790.502 417.883 790.896 417.488C791.291 417.083 791.488 416.501 791.488 415.744V408.832H793.744V415.728C793.744 416.677 793.536 417.483 793.12 418.144C792.715 418.795 792.166 419.285 791.472 419.616C790.79 419.947 790.027 420.112 789.184 420.112C788.352 420.112 787.595 419.947 786.912 419.616C786.24 419.285 785.707 418.795 785.312 418.144C784.918 417.483 784.72 416.677 784.72 415.728V408.832H786.96ZM798.149 418.224H801.829V420H795.909V408.832H798.149V418.224ZM810.1 417.872H805.652L804.916 420H802.564L806.58 408.816H809.188L813.204 420H810.836L810.1 417.872ZM809.492 416.08L807.876 411.408L806.26 416.08H809.492ZM820.466 420L818.002 415.648H816.946V420H814.706V408.832H818.898C819.762 408.832 820.498 408.987 821.106 409.296C821.714 409.595 822.167 410.005 822.466 410.528C822.775 411.04 822.93 411.616 822.93 412.256C822.93 412.992 822.716 413.659 822.29 414.256C821.863 414.843 821.228 415.248 820.386 415.472L823.058 420H820.466ZM816.946 413.968H818.818C819.426 413.968 819.879 413.824 820.178 413.536C820.476 413.237 820.626 412.827 820.626 412.304C820.626 411.792 820.476 411.397 820.178 411.12C819.879 410.832 819.426 410.688 818.818 410.688H816.946V413.968Z" fill="white"/>
<path d="M1085.27 488.192C1085.01 487.723 1084.66 487.365 1084.21 487.12C1083.77 486.875 1083.24 486.752 1082.65 486.752C1081.99 486.752 1081.4 486.901 1080.89 487.2C1080.37 487.499 1079.97 487.925 1079.69 488.48C1079.4 489.035 1079.25 489.675 1079.25 490.4C1079.25 491.147 1079.4 491.797 1079.69 492.352C1079.99 492.907 1080.4 493.333 1080.92 493.632C1081.44 493.931 1082.05 494.08 1082.74 494.08C1083.6 494.08 1084.29 493.856 1084.84 493.408C1085.38 492.949 1085.74 492.315 1085.91 491.504H1082.07V489.792H1088.12V491.744C1087.97 492.523 1087.65 493.243 1087.16 493.904C1086.67 494.565 1086.03 495.099 1085.25 495.504C1084.49 495.899 1083.62 496.096 1082.66 496.096C1081.59 496.096 1080.61 495.856 1079.73 495.376C1078.87 494.885 1078.19 494.208 1077.69 493.344C1077.2 492.48 1076.95 491.499 1076.95 490.4C1076.95 489.301 1077.2 488.32 1077.69 487.456C1078.19 486.581 1078.87 485.904 1079.73 485.424C1080.61 484.933 1081.58 484.688 1082.65 484.688C1083.91 484.688 1085 484.997 1085.93 485.616C1086.85 486.224 1087.49 487.083 1087.85 488.192H1085.27ZM1093.63 496.112C1092.85 496.112 1092.15 495.979 1091.52 495.712C1090.9 495.445 1090.41 495.061 1090.05 494.56C1089.69 494.059 1089.5 493.467 1089.49 492.784H1091.89C1091.92 493.243 1092.08 493.605 1092.37 493.872C1092.67 494.139 1093.07 494.272 1093.58 494.272C1094.11 494.272 1094.52 494.149 1094.82 493.904C1095.11 493.648 1095.26 493.317 1095.26 492.912C1095.26 492.581 1095.16 492.309 1094.96 492.096C1094.76 491.883 1094.5 491.717 1094.19 491.6C1093.89 491.472 1093.48 491.333 1092.94 491.184C1092.22 490.971 1091.63 490.763 1091.17 490.56C1090.72 490.347 1090.33 490.032 1090 489.616C1089.68 489.189 1089.52 488.624 1089.52 487.92C1089.52 487.259 1089.69 486.683 1090.02 486.192C1090.35 485.701 1090.81 485.328 1091.41 485.072C1092.01 484.805 1092.69 484.672 1093.46 484.672C1094.61 484.672 1095.54 484.955 1096.26 485.52C1096.98 486.075 1097.38 486.853 1097.46 487.856H1094.99C1094.97 487.472 1094.81 487.157 1094.5 486.912C1094.2 486.656 1093.8 486.528 1093.3 486.528C1092.86 486.528 1092.51 486.64 1092.24 486.864C1091.98 487.088 1091.86 487.413 1091.86 487.84C1091.86 488.139 1091.95 488.389 1092.14 488.592C1092.35 488.784 1092.59 488.944 1092.88 489.072C1093.18 489.189 1093.59 489.328 1094.13 489.488C1094.85 489.701 1095.45 489.915 1095.9 490.128C1096.36 490.341 1096.76 490.661 1097.09 491.088C1097.42 491.515 1097.58 492.075 1097.58 492.768C1097.58 493.365 1097.43 493.92 1097.12 494.432C1096.81 494.944 1096.36 495.355 1095.76 495.664C1095.16 495.963 1094.45 496.112 1093.63 496.112ZM1106.37 493.872H1101.93L1101.19 496H1098.84L1102.85 484.816H1105.46L1109.48 496H1107.11L1106.37 493.872ZM1105.77 492.08L1104.15 487.408L1102.53 492.08H1105.77ZM1119.12 488.288C1119.12 488.885 1118.98 489.445 1118.69 489.968C1118.41 490.491 1117.97 490.912 1117.36 491.232C1116.77 491.552 1116.01 491.712 1115.09 491.712H1113.22V496H1110.98V484.832H1115.09C1115.96 484.832 1116.69 484.981 1117.3 485.28C1117.91 485.579 1118.36 485.989 1118.66 486.512C1118.97 487.035 1119.12 487.627 1119.12 488.288ZM1115 489.904C1115.61 489.904 1116.07 489.765 1116.37 489.488C1116.67 489.2 1116.82 488.8 1116.82 488.288C1116.82 487.2 1116.21 486.656 1115 486.656H1113.22V489.904H1115Z" fill="white"/>
<path d="M401.469 666.832V668.64H396.813V671.504H400.381V673.28H396.813V678H394.573V666.832H401.469ZM405.297 666.832V678H403.057V666.832H405.297ZM415.286 670.192C415.03 669.723 414.678 669.365 414.23 669.12C413.782 668.875 413.26 668.752 412.662 668.752C412.001 668.752 411.414 668.901 410.902 669.2C410.39 669.499 409.99 669.925 409.702 670.48C409.414 671.035 409.27 671.675 409.27 672.4C409.27 673.147 409.414 673.797 409.702 674.352C410.001 674.907 410.412 675.333 410.934 675.632C411.457 675.931 412.065 676.08 412.758 676.08C413.612 676.08 414.31 675.856 414.854 675.408C415.398 674.949 415.756 674.315 415.926 673.504H412.086V671.792H418.134V673.744C417.985 674.523 417.665 675.243 417.174 675.904C416.684 676.565 416.049 677.099 415.27 677.504C414.502 677.899 413.638 678.096 412.678 678.096C411.601 678.096 410.625 677.856 409.75 677.376C408.886 676.885 408.204 676.208 407.702 675.344C407.212 674.48 406.966 673.499 406.966 672.4C406.966 671.301 407.212 670.32 407.702 669.456C408.204 668.581 408.886 667.904 409.75 667.424C410.625 666.933 411.596 666.688 412.662 666.688C413.921 666.688 415.014 666.997 415.942 667.616C416.87 668.224 417.51 669.083 417.862 670.192H415.286ZM431.968 666.832V678H429.728V670.736L426.736 678H425.04L422.032 670.736V678H419.792V666.832H422.336L425.888 675.136L429.44 666.832H431.968ZM441.03 675.872H436.582L435.846 678H433.494L437.51 666.816H440.118L444.134 678H441.766L441.03 675.872ZM440.422 674.08L438.806 669.408L437.19 674.08H440.422Z" fill="white"/>
<path d="M922.709 670.288C922.709 670.885 922.565 671.445 922.277 671.968C922 672.491 921.557 672.912 920.949 673.232C920.352 673.552 919.594 673.712 918.677 673.712H916.805V678H914.565V666.832H918.677C919.541 666.832 920.277 666.981 920.885 667.28C921.493 667.579 921.946 667.989 922.245 668.512C922.554 669.035 922.709 669.627 922.709 670.288ZM918.581 671.904C919.2 671.904 919.658 671.765 919.957 671.488C920.256 671.2 920.405 670.8 920.405 670.288C920.405 669.2 919.797 668.656 918.581 668.656H916.805V671.904H918.581ZM933.563 666.832V678H931.323V673.248H926.539V678H924.299V666.832H926.539V671.424H931.323V666.832H933.563ZM940.952 678.112C939.907 678.112 938.947 677.867 938.072 677.376C937.197 676.885 936.504 676.208 935.992 675.344C935.48 674.469 935.224 673.483 935.224 672.384C935.224 671.296 935.48 670.32 935.992 669.456C936.504 668.581 937.197 667.899 938.072 667.408C938.947 666.917 939.907 666.672 940.952 666.672C942.008 666.672 942.968 666.917 943.832 667.408C944.707 667.899 945.395 668.581 945.896 669.456C946.408 670.32 946.664 671.296 946.664 672.384C946.664 673.483 946.408 674.469 945.896 675.344C945.395 676.208 944.707 676.885 943.832 677.376C942.957 677.867 941.997 678.112 940.952 678.112ZM940.952 676.112C941.624 676.112 942.216 675.963 942.728 675.664C943.24 675.355 943.64 674.917 943.928 674.352C944.216 673.787 944.36 673.131 944.36 672.384C944.36 671.637 944.216 670.987 943.928 670.432C943.64 669.867 943.24 669.435 942.728 669.136C942.216 668.837 941.624 668.688 940.952 668.688C940.28 668.688 939.683 668.837 939.16 669.136C938.648 669.435 938.248 669.867 937.96 670.432C937.672 670.987 937.528 671.637 937.528 672.384C937.528 673.131 937.672 673.787 937.96 674.352C938.248 674.917 938.648 675.355 939.16 675.664C939.683 675.963 940.28 676.112 940.952 676.112ZM955.931 666.832V668.64H952.955V678H950.715V668.64H947.739V666.832H955.931ZM962.749 678.112C961.704 678.112 960.744 677.867 959.869 677.376C958.994 676.885 958.301 676.208 957.789 675.344C957.277 674.469 957.021 673.483 957.021 672.384C957.021 671.296 957.277 670.32 957.789 669.456C958.301 668.581 958.994 667.899 959.869 667.408C960.744 666.917 961.704 666.672 962.749 666.672C963.805 666.672 964.765 666.917 965.629 667.408C966.504 667.899 967.192 668.581 967.693 669.456C968.205 670.32 968.461 671.296 968.461 672.384C968.461 673.483 968.205 674.469 967.693 675.344C967.192 676.208 966.504 676.885 965.629 677.376C964.754 677.867 963.794 678.112 962.749 678.112ZM962.749 676.112C963.421 676.112 964.013 675.963 964.525 675.664C965.037 675.355 965.437 674.917 965.725 674.352C966.013 673.787 966.157 673.131 966.157 672.384C966.157 671.637 966.013 670.987 965.725 670.432C965.437 669.867 965.037 669.435 964.525 669.136C964.013 668.837 963.421 668.688 962.749 668.688C962.077 668.688 961.48 668.837 960.957 669.136C960.445 669.435 960.045 669.867 959.757 670.432C959.469 670.987 959.325 671.637 959.325 672.384C959.325 673.131 959.469 673.787 959.757 674.352C960.045 674.917 960.445 675.355 960.957 675.664C961.48 675.963 962.077 676.112 962.749 676.112ZM973.983 678.112C973.205 678.112 972.501 677.979 971.871 677.712C971.253 677.445 970.762 677.061 970.399 676.56C970.037 676.059 969.85 675.467 969.839 674.784H972.239C972.271 675.243 972.431 675.605 972.719 675.872C973.018 676.139 973.423 676.272 973.935 676.272C974.458 676.272 974.869 676.149 975.167 675.904C975.466 675.648 975.615 675.317 975.615 674.912C975.615 674.581 975.514 674.309 975.311 674.096C975.109 673.883 974.853 673.717 974.543 673.6C974.245 673.472 973.829 673.333 973.295 673.184C972.57 672.971 971.978 672.763 971.519 672.56C971.071 672.347 970.682 672.032 970.351 671.616C970.031 671.189 969.871 670.624 969.871 669.92C969.871 669.259 970.037 668.683 970.367 668.192C970.698 667.701 971.162 667.328 971.759 667.072C972.357 666.805 973.039 666.672 973.807 666.672C974.959 666.672 975.893 666.955 976.607 667.52C977.333 668.075 977.733 668.853 977.807 669.856H975.343C975.322 669.472 975.157 669.157 974.847 668.912C974.549 668.656 974.149 668.528 973.647 668.528C973.21 668.528 972.858 668.64 972.591 668.864C972.335 669.088 972.207 669.413 972.207 669.84C972.207 670.139 972.303 670.389 972.495 670.592C972.698 670.784 972.943 670.944 973.231 671.072C973.53 671.189 973.946 671.328 974.479 671.488C975.205 671.701 975.797 671.915 976.255 672.128C976.714 672.341 977.109 672.661 977.439 673.088C977.77 673.515 977.935 674.075 977.935 674.768C977.935 675.365 977.781 675.92 977.471 676.432C977.162 676.944 976.709 677.355 976.111 677.664C975.514 677.963 974.805 678.112 973.983 678.112ZM989.141 666.832V678H986.901V673.248H982.117V678H979.877V666.832H982.117V671.424H986.901V666.832H989.141ZM996.53 678.112C995.485 678.112 994.525 677.867 993.65 677.376C992.776 676.885 992.082 676.208 991.57 675.344C991.058 674.469 990.802 673.483 990.802 672.384C990.802 671.296 991.058 670.32 991.57 669.456C992.082 668.581 992.776 667.899 993.65 667.408C994.525 666.917 995.485 666.672 996.53 666.672C997.586 666.672 998.546 666.917 999.41 667.408C1000.28 667.899 1000.97 668.581 1001.47 669.456C1001.99 670.32 1002.24 671.296 1002.24 672.384C1002.24 673.483 1001.99 674.469 1001.47 675.344C1000.97 676.208 1000.28 676.885 999.41 677.376C998.536 677.867 997.576 678.112 996.53 678.112ZM996.53 676.112C997.202 676.112 997.794 675.963 998.306 675.664C998.818 675.355 999.218 674.917 999.506 674.352C999.794 673.787 999.938 673.131 999.938 672.384C999.938 671.637 999.794 670.987 999.506 670.432C999.218 669.867 998.818 669.435 998.306 669.136C997.794 668.837 997.202 668.688 996.53 668.688C995.858 668.688 995.261 668.837 994.738 669.136C994.226 669.435 993.826 669.867 993.538 670.432C993.25 670.987 993.106 671.637 993.106 672.384C993.106 673.131 993.25 673.787 993.538 674.352C993.826 674.917 994.226 675.355 994.738 675.664C995.261 675.963 995.858 676.112 996.53 676.112ZM1012.05 670.288C1012.05 670.885 1011.91 671.445 1011.62 671.968C1011.34 672.491 1010.9 672.912 1010.29 673.232C1009.7 673.552 1008.94 673.712 1008.02 673.712H1006.15V678H1003.91V666.832H1008.02C1008.88 666.832 1009.62 666.981 1010.23 667.28C1010.84 667.579 1011.29 667.989 1011.59 668.512C1011.9 669.035 1012.05 669.627 1012.05 670.288ZM1007.92 671.904C1008.54 671.904 1009 671.765 1009.3 671.488C1009.6 671.2 1009.75 670.8 1009.75 670.288C1009.75 669.2 1009.14 668.656 1007.92 668.656H1006.15V671.904H1007.92Z" fill="white"/>
</g>
<defs>
<linearGradient id="paint0_linear_1482_2" x1="720" y1="117" x2="720" y2="459" gradientUnits="userSpaceOnUse">
<stop stop-color="#E5E5E5"/>
<stop offset="1" stop-color="white" stop-opacity="0"/>
</linearGradient>
<linearGradient id="paint1_linear_1482_2" x1="720" y1="307" x2="720" y2="628" gradientUnits="userSpaceOnUse">
<stop stop-color="#E5E5E5"/>
<stop offset="1" stop-color="white" stop-opacity="0"/>
</linearGradient>
<linearGradient id="paint2_linear_1482_2" x1="720" y1="536" x2="720" y2="810.5" gradientUnits="userSpaceOnUse">
<stop stop-color="#E5E5E5"/>
<stop offset="1" stop-color="white" stop-opacity="0"/>
</linearGradient>
<linearGradient id="paint3_linear_1482_2" x1="754.137" y1="297.727" x2="821.67" y2="329.217" gradientUnits="userSpaceOnUse">
<stop stop-color="white" stop-opacity="0.2"/>
<stop offset="1" stop-color="white" stop-opacity="0"/>
</linearGradient>
<clipPath id="clip0_1482_2">
<rect width="1440" height="788" fill="white"/>
</clipPath>
<clipPath id="clip1_1482_2">
<rect width="90" height="80" fill="white" transform="translate(444 298)"/>
</clipPath>
<clipPath id="clip2_1482_2">
<rect width="107" height="80" fill="white" transform="translate(952.5 98)"/>
</clipPath>
<clipPath id="clip3_1482_2">
<rect width="108" height="40" fill="white" transform="translate(1049 366)"/>
</clipPath>
<clipPath id="clip4_1482_2">
<rect width="80" height="80" fill="white" transform="translate(1258 246)"/>
</clipPath>
<clipPath id="clip5_1482_2">
<rect width="80" height="80" fill="white" transform="translate(559 68)"/>
</clipPath>
<clipPath id="clip6_1482_2">
<rect width="80" height="80" fill="white" transform="translate(140 426)"/>
</clipPath>
</defs>
</svg>
