<svg width="64" height="64" viewBox="0 0 64 64" fill="none" xmlns="http://www.w3.org/2000/svg">
<circle cx="32" cy="32" r="32" fill="#F7F7F7"/>
<path d="M22.88 41.432C21.872 41.432 20.984 41.256 20.216 40.904C19.448 40.552 18.856 40.064 18.44 39.44C18.024 38.8 17.816 38.064 17.816 37.232C17.816 36.528 17.96 35.888 18.248 35.312C18.552 34.736 18.952 34.28 19.448 33.944C19.96 33.608 20.52 33.44 21.128 33.44C21.688 33.44 22.16 33.584 22.544 33.872C22.928 34.144 23.168 34.528 23.264 35.024C22.432 35.024 21.768 35.248 21.272 35.696C20.776 36.128 20.528 36.72 20.528 37.472C20.528 38.16 20.736 38.712 21.152 39.128C21.568 39.544 22.12 39.752 22.808 39.752C23.656 39.752 24.352 39.472 24.896 38.912C25.456 38.336 25.736 37.616 25.736 36.752C25.736 36 25.528 35.288 25.112 34.616C24.696 33.944 24.072 33.128 23.24 32.168C22.376 31.176 21.72 30.328 21.272 29.624C20.84 28.904 20.624 28.12 20.624 27.272C20.624 26.44 20.856 25.696 21.32 25.04C21.784 24.368 22.424 23.84 23.24 23.456C24.056 23.072 24.976 22.88 26 22.88C27.296 22.88 28.328 23.184 29.096 23.792C29.88 24.4 30.272 25.216 30.272 26.24C30.272 26.912 30.104 27.456 29.768 27.872C29.432 28.288 28.992 28.496 28.448 28.496C27.84 28.496 27.352 28.248 26.984 27.752C27.288 27.528 27.528 27.232 27.704 26.864C27.88 26.496 27.968 26.112 27.968 25.712C27.968 25.2 27.816 24.792 27.512 24.488C27.208 24.184 26.792 24.032 26.264 24.032C25.624 24.032 25.096 24.264 24.68 24.728C24.28 25.176 24.08 25.752 24.08 26.456C24.08 27.096 24.264 27.696 24.632 28.256C25 28.8 25.576 29.504 26.36 30.368C27 31.056 27.512 31.648 27.896 32.144C28.296 32.64 28.632 33.216 28.904 33.872C29.192 34.512 29.336 35.208 29.336 35.96C29.336 36.984 29.048 37.912 28.472 38.744C27.912 39.576 27.136 40.232 26.144 40.712C25.168 41.192 24.08 41.432 22.88 41.432ZM44.8715 41.144C44.0235 41.144 43.4075 40.888 43.0235 40.376C42.6395 39.864 42.4475 39.216 42.4475 38.432C42.4475 38.096 42.4875 37.72 42.5675 37.304C42.6475 36.872 42.7275 36.456 42.8075 36.056C42.9035 35.656 42.9675 35.4 42.9995 35.288C43.1275 34.728 43.2475 34.176 43.3595 33.632C43.4715 33.088 43.5275 32.648 43.5275 32.312C43.5275 31.496 43.2395 31.088 42.6635 31.088C42.2475 31.088 41.8795 31.296 41.5595 31.712C41.2395 32.112 40.9835 32.64 40.7915 33.296L39.1595 41H35.7035L37.4555 32.72C37.5035 32.528 37.5275 32.328 37.5275 32.12C37.5275 31.416 37.2875 31.064 36.8075 31.064C36.3595 31.064 35.9675 31.272 35.6315 31.688C35.3115 32.088 35.0555 32.624 34.8635 33.296L33.2315 41H29.7755L32.3195 29H35.7755L35.5115 30.248C36.3275 29.336 37.3035 28.88 38.4395 28.88C39.8475 28.88 40.6715 29.568 40.9115 30.944C41.7915 29.584 42.9035 28.904 44.2475 28.904C45.0635 28.904 45.7115 29.128 46.1915 29.576C46.6715 30.024 46.9115 30.704 46.9115 31.616C46.9115 32.08 46.8555 32.6 46.7435 33.176C46.6315 33.736 46.4715 34.424 46.2635 35.24C46.1355 35.736 46.0155 36.224 45.9035 36.704C45.8075 37.168 45.7595 37.536 45.7595 37.808C45.7595 38.128 45.8315 38.376 45.9755 38.552C46.1195 38.728 46.3675 38.816 46.7195 38.816C47.1035 38.816 47.3675 38.768 47.5115 38.672C47.4155 39.488 47.1195 40.104 46.6235 40.52C46.1435 40.936 45.5595 41.144 44.8715 41.144Z" fill="#181818"/>
</svg>
