<svg width="483" height="82" viewBox="0 0 483 82" fill="none" xmlns="http://www.w3.org/2000/svg">
<path d="M22.7524 81.5133C18.3377 81.5133 14.4485 80.7424 11.085 79.2008C7.7214 77.6592 5.12864 75.5219 3.3067 72.789C1.48477 69.986 0.573799 66.7626 0.573799 63.1187C0.573799 60.0354 1.20447 57.2324 2.46581 54.7098C3.79723 52.1871 5.54909 50.19 7.7214 48.7184C9.96378 47.2468 12.4164 46.5111 15.0792 46.5111C17.5318 46.5111 19.599 47.1417 21.2808 48.4031C22.9626 49.5943 24.0137 51.2761 24.4342 53.4484C20.7903 53.4484 17.8822 54.4295 15.7099 56.3916C13.5376 58.2836 12.4514 60.8763 12.4514 64.1698C12.4514 67.183 13.3624 69.6006 15.1843 71.4225C17.0063 73.2445 19.4238 74.1554 22.437 74.1554C26.151 74.1554 29.1992 72.9291 31.5818 70.4765C34.0344 67.9538 35.2607 64.8005 35.2607 61.0165C35.2607 57.723 34.3497 54.6047 32.5278 51.6615C30.7058 48.7184 27.9729 45.1446 24.3291 40.9401C20.545 36.5955 17.672 32.8816 15.7099 29.7983C13.8179 26.6449 12.8719 23.2113 12.8719 19.4973C12.8719 15.8535 13.888 12.595 15.9201 9.72195C17.9523 6.77882 20.7553 4.46636 24.3291 2.78457C27.9028 1.10278 31.9321 0.261888 36.4169 0.261888C42.0929 0.261888 46.6127 1.59331 49.9763 4.25614C53.41 6.91897 55.1268 10.4928 55.1268 14.9775C55.1268 17.9207 54.391 20.3032 52.9194 22.1251C51.4479 23.9471 49.5208 24.858 47.1383 24.858C44.4755 24.858 42.3382 23.7719 40.7265 21.5996C42.0579 20.6185 43.109 19.3221 43.8798 17.7104C44.6507 16.0987 45.0361 14.4169 45.0361 12.6651C45.0361 10.4227 44.3704 8.63579 43.0389 7.30438C41.7075 5.97296 39.8856 5.30726 37.5731 5.30726C34.7701 5.30726 32.4577 6.32333 30.6358 8.35549C28.8839 10.3176 28.008 12.8403 28.008 15.9235C28.008 18.7265 28.8138 21.3543 30.4255 23.8069C32.0372 26.1895 34.5599 29.2727 37.9936 33.0568C40.7966 36.07 43.0389 38.6627 44.7207 40.835C46.4726 43.0073 47.9442 45.53 49.1354 48.4031C50.3968 51.206 51.0274 54.2543 51.0274 57.5478C51.0274 62.0325 49.7661 66.0969 47.2434 69.7407C44.7908 73.3846 41.3922 76.2577 37.0476 78.3599C32.773 80.4621 28.008 81.5133 22.7524 81.5133ZM120.854 80.2519C116.58 80.2519 113.427 79.1307 111.394 76.8883C109.432 74.5759 108.451 71.7379 108.451 68.3743C108.451 66.9027 108.626 65.256 108.977 63.434C109.327 61.542 109.678 59.7201 110.028 57.9682C110.448 56.2164 110.729 55.0952 110.869 54.6047C111.429 52.152 111.955 49.7345 112.446 47.3519C112.936 44.9694 113.181 43.0424 113.181 41.5708C113.181 37.997 111.92 36.2101 109.397 36.2101C107.575 36.2101 105.964 37.1211 104.562 38.943C103.161 40.6949 102.039 43.0073 101.199 45.8804L94.051 79.6212H78.9149L86.588 43.3577C86.7983 42.5168 86.9034 41.6409 86.9034 40.7299C86.9034 37.6466 85.8523 36.105 83.75 36.105C81.7879 36.105 80.0711 37.016 78.5995 38.8379C77.1981 40.5898 76.0769 42.9373 75.236 45.8804L68.0884 79.6212H52.9523L64.0941 27.0654H79.2302L78.074 32.5312C81.6478 28.5369 85.9223 26.5398 90.8976 26.5398C97.0642 26.5398 100.673 29.553 101.724 35.5794C105.578 29.6231 110.448 26.6449 116.335 26.6449C119.908 26.6449 122.746 27.626 124.849 29.5881C126.951 31.5501 128.002 34.5283 128.002 38.5226C128.002 40.5547 127.757 42.8321 127.266 45.3548C126.776 47.8074 126.075 50.8206 125.164 54.3944C124.603 56.5667 124.078 58.704 123.587 60.8062C123.167 62.8384 122.957 64.4501 122.957 65.6414C122.957 67.0429 123.272 68.129 123.903 68.8998C124.533 69.6707 125.62 70.0561 127.161 70.0561C129.263 70.0561 130.945 69.3203 132.207 67.8487C133.468 66.3071 134.729 63.9596 135.991 60.8062H140.405C137.812 68.5144 134.799 73.7 131.366 76.3628C128.002 78.9555 124.498 80.2519 120.854 80.2519ZM143.133 27.0654H158.269L156.903 33.5823C159.285 31.4801 161.423 29.8684 163.315 28.7472C165.277 27.626 167.379 27.0654 169.621 27.0654C171.864 27.0654 173.616 27.8362 174.877 29.3778C176.208 30.9195 176.874 32.7765 176.874 34.9488C176.874 36.9809 176.208 38.7678 174.877 40.3095C173.546 41.8511 171.689 42.6219 169.306 42.6219C167.764 42.6219 166.713 42.2715 166.153 41.5708C165.662 40.8 165.277 39.7138 164.996 38.3123C164.786 37.4014 164.576 36.7357 164.366 36.3152C164.156 35.8948 163.77 35.6845 163.21 35.6845C161.738 35.6845 160.477 35.9999 159.426 36.6305C158.444 37.1911 157.148 38.2072 155.536 39.6788L147.127 79.6212H131.991L143.133 27.0654ZM215.027 80.2519C210.683 80.2519 207.389 79.2358 205.147 77.2037C202.904 75.1014 201.783 72.1233 201.783 68.2692C201.783 66.5874 201.993 64.7655 202.414 62.8034L203.255 58.704C203.535 57.5127 203.675 56.2164 203.675 54.8149C203.675 51.4513 202.414 49.7695 199.891 49.7695C198.77 49.7695 197.579 50.0849 196.317 50.7155C195.126 51.3462 193.725 52.3272 192.113 53.6586L186.647 79.6212H171.511L186.752 8.14527L202.309 6.04303L194.425 43.0424L214.712 27.0654H225.118L204.096 41.6759C205.147 41.3956 206.303 41.2555 207.564 41.2555C211.348 41.2555 214.221 42.4117 216.183 44.7242C218.145 47.0366 219.127 49.9797 219.127 53.5535C219.127 55.0251 218.986 56.3565 218.706 57.5478L217.55 62.8034C217.199 64.0647 217.024 65.1859 217.024 66.1669C217.024 68.7597 218.391 70.0561 221.124 70.0561C223.226 70.0561 224.908 69.3203 226.169 67.8487C227.43 66.3071 228.692 63.9596 229.953 60.8062H234.368C230.023 73.77 223.576 80.2519 215.027 80.2519ZM245.255 80.0417C240.069 80.0417 235.97 78.7103 232.957 76.0474C229.944 73.3846 228.437 69.1801 228.437 63.434C228.437 58.669 229.418 53.3784 231.38 47.5622C233.342 41.746 236.496 36.7357 240.84 32.5312C245.185 28.2566 250.651 26.1194 257.238 26.1194C266.207 26.1194 270.692 31.7253 270.692 42.9373V43.0424C270.902 43.1124 271.288 43.1475 271.848 43.1475C274.161 43.1475 276.824 42.5518 279.837 41.3606C282.85 40.0992 285.583 38.5926 288.035 36.8408L288.981 39.6788C286.949 41.8511 284.286 43.7081 280.993 45.2497C277.77 46.7213 274.231 47.7724 270.377 48.4031C269.816 54.7798 268.38 60.3508 266.067 65.1158C263.755 69.8809 260.777 73.5598 257.133 76.1526C253.489 78.7453 249.53 80.0417 245.255 80.0417ZM249.459 70.5816C251.141 70.5816 252.823 69.6356 254.505 67.7436C256.187 65.7815 257.658 63.1537 258.92 59.8602C260.181 56.4967 261.092 52.7827 261.652 48.7184C259.76 48.298 258.814 46.8264 258.814 44.3037C258.814 41.4307 259.901 39.5386 262.073 38.6277C261.933 36.3152 261.582 34.7385 261.022 33.8976C260.461 32.9867 259.48 32.5312 258.079 32.5312C255.766 32.5312 253.524 34.213 251.351 37.5766C249.179 40.9401 247.427 44.9694 246.096 49.6644C244.764 54.3594 244.099 58.4938 244.099 62.0676C244.099 65.4312 244.484 67.7086 245.255 68.8998C246.026 70.021 247.427 70.5816 249.459 70.5816ZM286.506 80.2519C283.143 80.2519 280.41 79.2008 278.308 77.0986C276.276 74.9963 275.259 71.843 275.259 67.6385C275.259 65.8866 275.54 63.6092 276.1 60.8062L283.248 27.0654H298.384L290.816 62.8034C290.606 63.6443 290.501 64.5202 290.501 65.4312C290.501 68.5144 291.552 70.0561 293.654 70.0561C295.616 70.0561 297.298 69.2502 298.699 67.6385C300.101 65.9567 301.222 63.6793 302.063 60.8062L309.211 27.0654H324.347L316.779 62.8034C316.428 64.5552 316.253 65.8166 316.253 66.5874C316.253 68.8998 317.444 70.0561 319.827 70.0561C323.05 70.0561 326.028 68.0239 328.761 63.9596C331.564 59.8953 333.807 55.0601 335.488 49.4542C337.17 43.8482 338.011 39.0131 338.011 34.9488C337.871 35.2991 337.416 35.5794 336.645 35.7897C335.874 35.9298 335.208 35.9999 334.648 35.9999C333.456 35.9999 332.51 35.4393 331.81 34.3181C331.179 33.1969 330.864 31.9706 330.864 30.6392C330.864 28.9574 331.389 27.5909 332.44 26.5398C333.561 25.4887 335.208 24.9631 337.381 24.9631C339.693 24.9631 341.375 25.8391 342.426 27.5909C343.477 29.2727 344.003 31.445 344.003 34.1079C344.003 40.4146 342.916 47.1768 340.744 54.3944C338.572 61.542 335.243 67.6385 330.758 72.6839C326.274 77.7292 320.703 80.2519 314.046 80.2519C310.612 80.2519 307.809 79.5161 305.637 78.0446C303.464 76.573 302.063 74.3657 301.432 71.4225C297.508 77.3088 292.533 80.2519 286.506 80.2519ZM360.624 80.2519C355.439 80.2519 351.409 78.9205 348.536 76.2577C345.663 73.5248 344.227 69.2853 344.227 63.5392C344.227 58.704 345.173 53.3784 347.065 47.5622C348.957 41.746 352.04 36.7357 356.315 32.5312C360.589 28.2566 366.02 26.1194 372.607 26.1194C380.315 26.1194 384.169 29.483 384.169 36.2101C384.169 40.1343 383.048 43.7431 380.806 47.0366C378.563 50.3301 375.585 52.9929 371.871 55.0251C368.157 56.9872 364.198 58.1084 359.994 58.3887C359.853 60.4909 359.783 61.8924 359.783 62.5931C359.783 66.0268 360.379 68.3743 361.57 69.6356C362.761 70.8269 364.688 71.4225 367.351 71.4225C371.135 71.4225 374.359 70.5466 377.022 68.7947C379.755 67.0429 382.733 64.38 385.956 60.8062H389.53C381.752 73.77 372.116 80.2519 360.624 80.2519ZM360.834 53.3433C363.427 53.2032 365.88 52.2922 368.192 50.6104C370.575 48.9286 372.467 46.7913 373.868 44.1986C375.34 41.6058 376.076 38.8729 376.076 35.9999C376.076 33.1268 375.2 31.6903 373.448 31.6903C370.925 31.6903 368.437 33.8976 365.985 38.3123C363.602 42.727 361.886 47.7374 360.834 53.3433ZM398.547 80.2519C394.553 80.2519 391.225 78.8855 388.562 76.1526C385.899 73.4197 384.567 69.1451 384.567 63.3289C384.567 58.1434 385.584 52.7126 387.616 47.0366C389.718 41.2905 392.801 36.4554 396.866 32.5312C401 28.5369 405.905 26.5398 411.581 26.5398C414.454 26.5398 416.592 27.0303 417.993 28.0114C419.394 28.9924 420.095 30.2888 420.095 31.9005V32.6363L421.251 27.0654H436.388L428.82 62.8034C428.539 63.8545 428.399 64.9757 428.399 66.1669C428.399 69.1801 429.836 70.6867 432.709 70.6867C434.671 70.6867 436.353 69.7758 437.754 67.9538C439.226 66.1319 440.382 63.7494 441.223 60.8062H445.637C443.045 68.3743 439.821 73.5248 435.967 76.2577C432.183 78.9205 428.364 80.2519 424.51 80.2519C421.567 80.2519 419.184 79.4461 417.362 77.8343C415.61 76.1526 414.559 73.735 414.209 70.5816C412.177 73.4547 409.899 75.8022 407.377 77.6241C404.924 79.376 401.981 80.2519 398.547 80.2519ZM405.38 70.0561C407.131 70.0561 408.848 69.2502 410.53 67.6385C412.282 65.9567 413.473 63.6793 414.104 60.8062L419.149 37.051C419.149 36.14 418.799 35.2641 418.098 34.4232C417.397 33.5122 416.311 33.0568 414.84 33.0568C412.037 33.0568 409.514 34.7035 407.272 37.997C405.029 41.2204 403.277 45.1446 402.016 49.7695C400.755 54.3244 400.124 58.3536 400.124 61.8574C400.124 65.3611 400.615 67.6035 401.596 68.5845C402.647 69.5656 403.908 70.0561 405.38 70.0561ZM448.409 27.0654H463.545L462.179 33.5823C464.561 31.4801 466.698 29.8684 468.59 28.7472C470.552 27.626 472.655 27.0654 474.897 27.0654C477.139 27.0654 478.891 27.8362 480.153 29.3778C481.484 30.9195 482.15 32.7765 482.15 34.9488C482.15 36.9809 481.484 38.7678 480.153 40.3095C478.821 41.8511 476.964 42.6219 474.582 42.6219C473.04 42.6219 471.989 42.2715 471.428 41.5708C470.938 40.8 470.552 39.7138 470.272 38.3123C470.062 37.4014 469.852 36.7357 469.641 36.3152C469.431 35.8948 469.046 35.6845 468.485 35.6845C467.014 35.6845 465.752 35.9999 464.701 36.6305C463.72 37.1911 462.424 38.2072 460.812 39.6788L452.403 79.6212H437.267L448.409 27.0654Z" fill="white"/>
</svg>
