<svg width="20" height="21" viewBox="0 0 20 21" fill="none" xmlns="http://www.w3.org/2000/svg">
<path d="M9.95312 5.62305C12.6602 5.62305 14.8945 7.85742 14.8945 10.5645C14.8945 13.3145 12.6602 15.5059 9.95312 15.5059C7.20312 15.5059 5.01172 13.3145 5.01172 10.5645C5.01172 7.85742 7.20312 5.62305 9.95312 5.62305ZM9.95312 13.7871C11.7148 13.7871 13.1328 12.3691 13.1328 10.5645C13.1328 8.80273 11.7148 7.38477 9.95312 7.38477C8.14844 7.38477 6.73047 8.80273 6.73047 10.5645C6.73047 12.3691 8.19141 13.7871 9.95312 13.7871ZM16.2266 5.45117C16.2266 6.0957 15.7109 6.61133 15.0664 6.61133C14.4219 6.61133 13.9062 6.0957 13.9062 5.45117C13.9062 4.80664 14.4219 4.29102 15.0664 4.29102C15.7109 4.29102 16.2266 4.80664 16.2266 5.45117ZM19.4922 6.61133C19.5781 8.20117 19.5781 12.9707 19.4922 14.5605C19.4062 16.1074 19.0625 17.4395 17.9453 18.5996C16.8281 19.7168 15.4531 20.0605 13.9062 20.1465C12.3164 20.2324 7.54688 20.2324 5.95703 20.1465C4.41016 20.0605 3.07812 19.7168 1.91797 18.5996C0.800781 17.4395 0.457031 16.1074 0.371094 14.5605C0.285156 12.9707 0.285156 8.20117 0.371094 6.61133C0.457031 5.06445 0.800781 3.68945 1.91797 2.57227C3.07812 1.45508 4.41016 1.11133 5.95703 1.02539C7.54688 0.939453 12.3164 0.939453 13.9062 1.02539C15.4531 1.11133 16.8281 1.45508 17.9453 2.57227C19.0625 3.68945 19.4062 5.06445 19.4922 6.61133ZM17.4297 16.2363C17.9453 14.9902 17.8164 11.9824 17.8164 10.5645C17.8164 9.18945 17.9453 6.18164 17.4297 4.89258C17.0859 4.07617 16.4414 3.38867 15.625 3.08789C14.3359 2.57227 11.3281 2.70117 9.95312 2.70117C8.53516 2.70117 5.52734 2.57227 4.28125 3.08789C3.42188 3.43164 2.77734 4.07617 2.43359 4.89258C1.91797 6.18164 2.04688 9.18945 2.04688 10.5645C2.04688 11.9824 1.91797 14.9902 2.43359 16.2363C2.77734 17.0957 3.42188 17.7402 4.28125 18.084C5.52734 18.5996 8.53516 18.4707 9.95312 18.4707C11.3281 18.4707 14.3359 18.5996 15.625 18.084C16.4414 17.7402 17.1289 17.0957 17.4297 16.2363Z" fill="black"/>
</svg>
