<svg width="22" height="22" viewBox="0 0 22 22" fill="none" xmlns="http://www.w3.org/2000/svg">
<path d="M19.7998 19.8001V13.3541C19.7998 10.1861 19.1178 7.76611 15.4218 7.76611C13.6398 7.76611 12.4518 8.73411 11.9678 9.65811H11.9238V8.05211H8.42578V19.8001H12.0778V13.9701C12.0778 12.4301 12.3638 10.9561 14.2558 10.9561C16.1258 10.9561 16.1478 12.6941 16.1478 14.0581V19.7781H19.7998V19.8001Z" fill="black"/>
<path d="M2.48633 8.05225H6.13833V19.8002H2.48633V8.05225Z" fill="black"/>
<path d="M4.3122 2.2002C3.1462 2.2002 2.2002 3.1462 2.2002 4.3122C2.2002 5.4782 3.1462 6.4462 4.3122 6.4462C5.4782 6.4462 6.4242 5.4782 6.4242 4.3122C6.4242 3.1462 5.4782 2.2002 4.3122 2.2002Z" fill="black"/>
</svg>
