<svg width="170" height="114" viewBox="0 0 170 114" fill="none" xmlns="http://www.w3.org/2000/svg">
<rect width="170" height="114" rx="12" fill="#B5B5B5" fill-opacity="0.4"/>
<g clip-path="url(#clip0_1377_79)">
<path d="M111.109 60.3906H58.8906C56.7461 60.3906 55 58.6445 55 56.4883V23.5117C55 21.3671 56.7461 19.6211 58.8906 19.6211H111.098C113.254 19.6211 115 21.3671 115 23.5117V56.4883C115 58.6445 113.254 60.3906 111.109 60.3906Z" fill="#505278"/>
<path d="M111.109 19.6211H85V60.3906H111.109C113.266 60.3906 115 58.6445 115 56.5V23.5117C115 21.3671 113.254 19.6211 111.109 19.6211Z" fill="#424566"/>
<path d="M86.3008 19.6211C85.9023 31.6562 75.9883 41.3125 63.8594 41.3125C60.7187 41.3125 57.7188 40.6679 55 39.4844V34.2461C57.6133 35.7578 60.6367 36.6133 63.8594 36.6133C73.3984 36.6133 81.2031 29.0547 81.6015 19.6094H86.3007V19.6211H86.3008Z" fill="#575982"/>
<path d="M85 19.6211V26.4297C85.7617 24.2851 86.2188 22 86.3007 19.6211H85Z" fill="#505278"/>
<path d="M115 43.4573V48.2151C112.188 47.676 109.445 47.4417 106.727 47.7113C101.817 48.2034 97.2579 50.5004 92.3712 54.9418C91.586 55.6566 90.7891 56.3949 90.0274 57.1097C88.8556 58.1996 87.6836 59.3011 86.4531 60.3793H78.8594C81.6719 58.5042 84.1914 56.1488 86.8281 53.6879C87.6133 52.9613 88.4101 52.1996 89.2187 51.473C94.8906 46.3285 100.305 43.6448 106.258 43.0472C109.199 42.7542 112.176 42.9886 115 43.4573Z" fill="#505278"/>
<path d="M78.8594 60.3906H85V55.3867C82.9961 57.2265 81.0156 58.9493 78.8594 60.3906Z" fill="#575982"/>
<path d="M67.5625 39.461H61.8086C60.9297 39.461 60.2148 38.7461 60.2148 37.8672V34.0469C60.2148 33.1679 60.9297 32.4531 61.8086 32.4531H67.5625C68.4415 32.4531 69.1563 33.1679 69.1563 34.0469V37.8672C69.1446 38.7579 68.4414 39.461 67.5625 39.461Z" fill="#424566"/>
<path d="M67.5625 39.3672H61.7969C60.9766 39.3672 60.3086 38.6992 60.3086 37.8789V34.0469C60.3086 33.2266 60.9766 32.5586 61.7969 32.5586H67.5625C68.3828 32.5586 69.0508 33.2266 69.0508 34.0469V37.8789C69.0508 38.6992 68.3828 39.3672 67.5625 39.3672Z" fill="#FEBD55"/>
<path d="M69.0508 36.0859V35.8516H66.0039V34.8203L66.789 34.0352H69.0508C69.0508 33.9531 69.0391 33.8711 69.0274 33.8008H66.7305C66.6954 33.8008 66.6719 33.8125 66.6484 33.8359L65.8282 34.6562H64.7968V32.5703H64.5625V34.6562H63.5429L62.7226 33.8359C62.6992 33.8125 62.664 33.8008 62.6406 33.8008H60.332C60.3203 33.8711 60.3086 33.9531 60.3086 34.0352H62.5937L63.3672 34.8086V35.8516H60.3086V36.0859H63.3672V37.1289L62.5937 37.9023H60.3086C60.3086 37.9844 60.3203 38.0664 60.332 38.1367H62.6406C62.6757 38.1367 62.6992 38.125 62.7226 38.1016L63.5429 37.2813H64.5625V39.3672H64.7968V37.2813H65.8281L66.6484 38.1016C66.6718 38.125 66.6952 38.1367 66.7304 38.1367H69.0273C69.039 38.0664 69.0507 37.9844 69.0507 37.9023H66.789L66.0038 37.1172V36.0859H69.0508ZM65.7695 37.0468H63.6016V34.8789H65.7695V37.0468Z" fill="#B5613C"/>
<path d="M108.719 39.297C108.66 39.297 108.613 39.2853 108.567 39.2619C108.391 39.1799 108.321 38.9689 108.414 38.7932C109.317 37.0002 109.317 34.9494 108.414 33.1564C108.332 32.9806 108.403 32.7698 108.567 32.6877C108.742 32.6056 108.953 32.676 109.035 32.84C110.043 34.8322 110.043 37.1174 109.035 39.1095C108.965 39.2268 108.848 39.297 108.719 39.297ZM107.512 38.6291C108.461 36.9416 108.461 34.9963 107.512 33.3087C107.418 33.1447 107.207 33.0744 107.031 33.1799C106.867 33.2736 106.797 33.4846 106.903 33.6603C107.734 35.1369 107.734 36.8244 106.903 38.2892C106.809 38.4532 106.867 38.6759 107.031 38.7697C107.09 38.8048 107.149 38.8165 107.207 38.8165C107.324 38.8049 107.441 38.7345 107.512 38.6291ZM106.012 38.1486C106.938 36.801 106.938 35.1252 106.012 33.7658C105.906 33.6018 105.684 33.5665 105.52 33.672C105.356 33.7775 105.32 34.0001 105.426 34.1642C106.176 35.2658 106.176 36.6486 105.426 37.7501C105.32 37.9142 105.356 38.1251 105.52 38.2423C105.578 38.2891 105.649 38.3008 105.719 38.3008C105.836 38.3127 105.942 38.2541 106.012 38.1486ZM104.43 37.7033C104.945 37.2346 105.227 36.6134 105.227 35.969C105.227 35.3245 104.945 34.7033 104.43 34.2346C104.289 34.1057 104.067 34.1057 103.938 34.258C103.809 34.3986 103.809 34.6213 103.961 34.7502C104.324 35.09 104.524 35.5236 104.524 35.969C104.524 36.4143 104.324 36.8479 103.961 37.1877C103.82 37.3166 103.809 37.5393 103.938 37.6799C104.008 37.7502 104.102 37.7971 104.195 37.7971C104.277 37.7971 104.359 37.7619 104.43 37.7033Z" fill="#CAD4FF"/>
<path d="M84.5195 54.4844H60.6601C60.4609 54.4844 60.3086 54.332 60.3086 54.1328C60.3086 53.9336 60.4609 53.7812 60.6601 53.7812H84.5195C84.7187 53.7812 84.871 53.9336 84.871 54.1328C84.871 54.332 84.707 54.4844 84.5195 54.4844Z" fill="#E6EAFF"/>
<path d="M109.434 54.4844H104.91C104.711 54.4844 104.559 54.332 104.559 54.1328C104.559 53.9336 104.711 53.7812 104.91 53.7812H109.434C109.633 53.7812 109.785 53.9336 109.785 54.1328C109.785 54.332 109.621 54.4844 109.434 54.4844ZM102.988 54.1328C102.988 53.9336 102.836 53.7812 102.637 53.7812H98.1133C97.914 53.7812 97.7617 53.9336 97.7617 54.1328C97.7617 54.332 97.914 54.4844 98.1133 54.4844H102.637C102.836 54.4844 102.988 54.3203 102.988 54.1328Z" fill="#CAD4FF"/>
<path d="M60.6601 27.6132C60.4609 27.6132 60.3086 27.4609 60.3086 27.2617V25.8789C60.3086 25.6797 60.4609 25.5273 60.6601 25.5273C60.8594 25.5273 61.0117 25.6797 61.0117 25.8789V27.25C61.0117 27.4492 60.8594 27.6132 60.6601 27.6132ZM62.9219 27.2617V25.8789C62.9219 25.6797 62.7696 25.5273 62.5703 25.5273C62.3711 25.5273 62.2188 25.6797 62.2188 25.8789V27.25C62.2188 27.4492 62.3711 27.6015 62.5703 27.6015C62.7695 27.6132 62.9219 27.4492 62.9219 27.2617ZM64.8438 27.2617V25.8789C64.8438 25.6797 64.6914 25.5273 64.4922 25.5273C64.293 25.5273 64.1406 25.6797 64.1406 25.8789V27.25C64.1406 27.4492 64.293 27.6015 64.4922 27.6015C64.6796 27.6132 64.8438 27.4492 64.8438 27.2617ZM66.7539 27.2617V25.8789C66.7539 25.6797 66.6016 25.5273 66.4024 25.5273C66.2031 25.5273 66.0508 25.6797 66.0508 25.8789V27.25C66.0508 27.4492 66.2031 27.6015 66.4024 27.6015C66.6015 27.6132 66.7539 27.4492 66.7539 27.2617Z" fill="#E6EAFF"/>
<path d="M61.3867 48.5195H61.3281C60.7422 48.5195 60.2617 48.039 60.2617 47.4531V45.789C60.2617 45.2031 60.7422 44.7227 61.3281 44.7227H61.3867C61.9726 44.7227 62.4531 45.2031 62.4531 45.789V47.4531C62.4532 48.0389 61.9845 48.5195 61.3867 48.5195ZM61.3282 45.4257C61.1289 45.4257 60.9649 45.5897 60.9649 45.7889V47.453C60.9649 47.6523 61.1289 47.8163 61.3282 47.8163H61.3868C61.5861 47.8163 61.7501 47.6523 61.7501 47.453V45.7889C61.7501 45.5897 61.5861 45.4257 61.3868 45.4257H61.3282Z" fill="#E6EAFF"/>
<path d="M64.2344 48.5195H64.1757C63.5898 48.5195 63.1094 48.039 63.1094 47.4531V45.789C63.1094 45.2031 63.5898 44.7227 64.1757 44.7227H64.2344C64.8203 44.7227 65.3008 45.2031 65.3008 45.789V47.4531C65.3008 48.0389 64.8321 48.5195 64.2344 48.5195ZM64.1758 45.4257C63.9766 45.4257 63.8126 45.5897 63.8126 45.7889V47.453C63.8126 47.6523 63.9766 47.8163 64.1758 47.8163H64.2345C64.4337 47.8163 64.5977 47.6523 64.5977 47.453V45.7889C64.5977 45.5897 64.4337 45.4257 64.2345 45.4257H64.1758Z" fill="#E6EAFF"/>
<path d="M67.082 48.5195H67.0234C66.4375 48.5195 65.957 48.039 65.957 47.4531V45.789C65.957 45.2031 66.4375 44.7227 67.0234 44.7227H67.082C67.668 44.7227 68.1484 45.2031 68.1484 45.789V47.4531C68.1484 48.0389 67.668 48.5195 67.082 48.5195ZM67.0234 45.4257C66.8242 45.4257 66.6601 45.5897 66.6601 45.7889V47.453C66.6601 47.6523 66.8242 47.8163 67.0234 47.8163H67.082C67.2813 47.8163 67.4453 47.6523 67.4453 47.453V45.7889C67.4453 45.5897 67.2813 45.4257 67.082 45.4257H67.0234Z" fill="#E6EAFF"/>
<path d="M69.9297 48.5195H69.8711C69.2851 48.5195 68.8047 48.039 68.8047 47.4531V45.789C68.8047 45.2031 69.2851 44.7227 69.8711 44.7227H69.9297C70.5156 44.7227 70.9961 45.2031 70.9961 45.789V47.4531C70.9961 48.0389 70.5156 48.5195 69.9297 48.5195ZM69.8711 45.4257C69.6718 45.4257 69.5078 45.5897 69.5078 45.7889V47.453C69.5078 47.6523 69.6718 47.8163 69.8711 47.8163H69.9297C70.1289 47.8163 70.293 47.6523 70.293 47.453V45.7889C70.293 45.5897 70.1289 45.4257 69.9297 45.4257H69.8711Z" fill="#E6EAFF"/>
<path d="M74.3008 48.5195H74.2421C73.6562 48.5195 73.1758 48.039 73.1758 47.4531V45.789C73.1758 45.2031 73.6562 44.7227 74.2421 44.7227H74.3008C74.8867 44.7227 75.3672 45.2031 75.3672 45.789V47.4531C75.3673 48.0389 74.8867 48.5195 74.3008 48.5195ZM74.2422 45.4257C74.043 45.4257 73.879 45.5897 73.879 45.7889V47.453C73.879 47.6523 74.043 47.8163 74.2422 47.8163H74.3009C74.5001 47.8163 74.6641 47.6523 74.6641 47.453V45.7889C74.6641 45.5897 74.5001 45.4257 74.3009 45.4257H74.2422Z" fill="#E6EAFF"/>
<path d="M77.1484 48.5195H77.0898C76.5039 48.5195 76.0234 48.039 76.0234 47.4531V45.789C76.0234 45.2031 76.5039 44.7227 77.0898 44.7227H77.1484C77.7344 44.7227 78.2148 45.2031 78.2148 45.789V47.4531C78.2149 48.0389 77.7344 48.5195 77.1484 48.5195ZM77.0899 45.4257C76.8907 45.4257 76.7266 45.5897 76.7266 45.7889V47.453C76.7266 47.6523 76.8907 47.8163 77.0899 47.8163H77.1485C77.3478 47.8163 77.5118 47.6523 77.5118 47.453V45.7889C77.5118 45.5897 77.3478 45.4257 77.1485 45.4257H77.0899Z" fill="#E6EAFF"/>
<path d="M79.9961 48.5195H79.9375C79.3515 48.5195 78.8711 48.039 78.8711 47.4531V45.789C78.8711 45.2031 79.3515 44.7227 79.9375 44.7227H79.9961C80.582 44.7227 81.0625 45.2031 81.0625 45.789V47.4531C81.0626 48.0389 80.5821 48.5195 79.9961 48.5195ZM79.9376 45.4257C79.7383 45.4257 79.5743 45.5897 79.5743 45.7889V47.453C79.5743 47.6523 79.7383 47.8163 79.9376 47.8163H79.9962C80.1954 47.8163 80.3595 47.6523 80.3595 47.453V45.7889C80.3595 45.5897 80.1954 45.4257 79.9962 45.4257H79.9376Z" fill="#E6EAFF"/>
<path d="M82.8438 48.5195H82.7851C82.1992 48.5195 81.7188 48.039 81.7188 47.4531V45.789C81.7188 45.2031 82.1992 44.7227 82.7851 44.7227H82.8438C83.4297 44.7227 83.9101 45.2031 83.9101 45.789V47.4531C83.9102 48.0389 83.4298 48.5195 82.8438 48.5195ZM82.7852 45.4257C82.586 45.4257 82.422 45.5897 82.422 45.7889V47.453C82.422 47.6523 82.586 47.8163 82.7852 47.8163H82.8439C83.0431 47.8163 83.2071 47.6523 83.2071 47.453V45.7889C83.2071 45.5897 83.0431 45.4257 82.8439 45.4257H82.7852Z" fill="#E6EAFF"/>
<path d="M87.2149 48.5195H87.1562C86.5703 48.5195 86.0898 48.039 86.0898 47.4531V45.789C86.0898 45.2031 86.5703 44.7227 87.1562 44.7227H87.2149C87.8008 44.7227 88.2812 45.2031 88.2812 45.789V47.4531C88.2812 48.0389 87.8008 48.5195 87.2149 48.5195ZM87.1562 45.4257C86.957 45.4257 86.793 45.5897 86.793 45.7889V47.453C86.793 47.6523 86.957 47.8163 87.1562 47.8163H87.2149C87.4141 47.8163 87.5781 47.6523 87.5781 47.453V45.7889C87.5781 45.5897 87.4141 45.4257 87.2149 45.4257H87.1562Z" fill="#CAD4FF"/>
<path d="M90.0624 48.5195H90.0039C89.4179 48.5195 88.9375 48.039 88.9375 47.4531V45.789C88.9375 45.2031 89.4179 44.7227 90.0039 44.7227H90.0624C90.6483 44.7227 91.1288 45.2031 91.1288 45.789V47.4531C91.1288 48.0389 90.6483 48.5195 90.0624 48.5195ZM90.0039 45.4257C89.8046 45.4257 89.6406 45.5897 89.6406 45.7889V47.453C89.6406 47.6523 89.8046 47.8163 90.0039 47.8163H90.0624C90.2617 47.8163 90.4257 47.6523 90.4257 47.453V45.7889C90.4257 45.5897 90.2617 45.4257 90.0624 45.4257H90.0039Z" fill="#CAD4FF"/>
<path d="M92.9102 48.5195H92.8515C92.2656 48.5195 91.7852 48.039 91.7852 47.4531V45.789C91.7852 45.2031 92.2656 44.7227 92.8515 44.7227H92.9102C93.4961 44.7227 93.9765 45.2031 93.9765 45.789V47.4531C93.9766 48.0389 93.4961 48.5195 92.9102 48.5195ZM92.8516 45.4257C92.6524 45.4257 92.4884 45.5897 92.4884 45.7889V47.453C92.4884 47.6523 92.6524 47.8163 92.8516 47.8163H92.9103C93.1095 47.8163 93.2735 47.6523 93.2735 47.453V45.7889C93.2735 45.5897 93.1095 45.4257 92.9103 45.4257H92.8516Z" fill="#CAD4FF"/>
<path d="M95.7578 48.5195H95.6992C95.1133 48.5195 94.6328 48.039 94.6328 47.4531V45.789C94.6328 45.2031 95.1133 44.7227 95.6992 44.7227H95.7578C96.3437 44.7227 96.8242 45.2031 96.8242 45.789V47.4531C96.8243 48.0389 96.3437 48.5195 95.7578 48.5195ZM95.6993 45.4257C95.5 45.4257 95.336 45.5897 95.336 45.7889V47.453C95.336 47.6523 95.5 47.8163 95.6993 47.8163H95.7579C95.9572 47.8163 96.1212 47.6523 96.1212 47.453V45.7889C96.1212 45.5897 95.9572 45.4257 95.7579 45.4257H95.6993Z" fill="#CAD4FF"/>
<path d="M100.129 48.5195H100.07C99.4844 48.5195 99.0039 48.039 99.0039 47.4531V45.789C99.0039 45.2031 99.4844 44.7227 100.07 44.7227H100.129C100.715 44.7227 101.195 45.2031 101.195 45.789V47.4531C101.195 48.0389 100.715 48.5195 100.129 48.5195ZM100.07 45.4257C99.871 45.4257 99.707 45.5897 99.707 45.7889V47.453C99.707 47.6523 99.871 47.8163 100.07 47.8163H100.129C100.328 47.8163 100.492 47.6523 100.492 47.453V45.7889C100.492 45.5897 100.328 45.4257 100.129 45.4257H100.07Z" fill="#CAD4FF"/>
<path d="M102.976 48.5195H102.918C102.332 48.5195 101.852 48.039 101.852 47.4531V45.789C101.852 45.2031 102.332 44.7227 102.918 44.7227H102.976C103.562 44.7227 104.043 45.2031 104.043 45.789V47.4531C104.043 48.0389 103.562 48.5195 102.976 48.5195ZM102.918 45.4257C102.719 45.4257 102.555 45.5897 102.555 45.7889V47.453C102.555 47.6523 102.719 47.8163 102.918 47.8163H102.976C103.176 47.8163 103.34 47.6523 103.34 47.453V45.7889C103.34 45.5897 103.176 45.4257 102.976 45.4257H102.918Z" fill="#CAD4FF"/>
<path d="M105.824 48.5195H105.766C105.18 48.5195 104.699 48.039 104.699 47.4531V45.789C104.699 45.2031 105.18 44.7227 105.766 44.7227H105.824C106.41 44.7227 106.891 45.2031 106.891 45.789V47.4531C106.891 48.0389 106.41 48.5195 105.824 48.5195ZM105.766 45.4257C105.566 45.4257 105.402 45.5897 105.402 45.7889V47.453C105.402 47.6523 105.566 47.8163 105.766 47.8163H105.824C106.024 47.8163 106.188 47.6523 106.188 47.453V45.7889C106.188 45.5897 106.024 45.4257 105.824 45.4257H105.766Z" fill="#CAD4FF"/>
<path d="M108.672 48.5195H108.613C108.027 48.5195 107.547 48.039 107.547 47.4531V45.789C107.547 45.2031 108.027 44.7227 108.613 44.7227H108.672C109.258 44.7227 109.738 45.2031 109.738 45.789V47.4531C109.738 48.0389 109.258 48.5195 108.672 48.5195ZM108.613 45.4257C108.414 45.4257 108.25 45.5897 108.25 45.7889V47.453C108.25 47.6523 108.414 47.8163 108.613 47.8163H108.672C108.871 47.8163 109.035 47.6523 109.035 47.453V45.7889C109.035 45.5897 108.871 45.4257 108.672 45.4257H108.613Z" fill="#CAD4FF"/>
</g>
<path d="M35.3413 92.4C35.3413 91.3013 35.5866 90.32 36.0773 89.456C36.5786 88.5813 37.2559 87.904 38.1093 87.424C38.9733 86.9333 39.9386 86.688 41.0053 86.688C42.2533 86.688 43.3466 87.008 44.2853 87.648C45.2239 88.288 45.8799 89.1733 46.2533 90.304H43.6773C43.4213 89.7707 43.0586 89.3707 42.5893 89.104C42.1306 88.8373 41.5973 88.704 40.9893 88.704C40.3386 88.704 39.7573 88.8587 39.2453 89.168C38.7439 89.4667 38.3493 89.8933 38.0613 90.448C37.7839 91.0027 37.6453 91.6533 37.6453 92.4C37.6453 93.136 37.7839 93.7867 38.0613 94.352C38.3493 94.9067 38.7439 95.3387 39.2453 95.648C39.7573 95.9467 40.3386 96.096 40.9893 96.096C41.5973 96.096 42.1306 95.9627 42.5893 95.696C43.0586 95.4187 43.4213 95.0133 43.6773 94.48H46.2533C45.8799 95.6213 45.2239 96.512 44.2853 97.152C43.3573 97.7813 42.2639 98.096 41.0053 98.096C39.9386 98.096 38.9733 97.856 38.1093 97.376C37.2559 96.8853 36.5786 96.208 36.0773 95.344C35.5866 94.48 35.3413 93.4987 35.3413 92.4ZM50.4065 90.512C50.6945 90.0427 51.0678 89.6747 51.5265 89.408C51.9958 89.1413 52.5292 89.008 53.1265 89.008V91.36H52.5345C51.8305 91.36 51.2972 91.5253 50.9345 91.856C50.5825 92.1867 50.4065 92.7627 50.4065 93.584V98H48.1665V89.136H50.4065V90.512ZM62.8753 93.376C62.8753 93.696 62.8539 93.984 62.8113 94.24H56.3313C56.3846 94.88 56.6086 95.3813 57.0033 95.744C57.3979 96.1067 57.8833 96.288 58.4593 96.288C59.2913 96.288 59.8833 95.9307 60.2353 95.216H62.6513C62.3953 96.0693 61.9046 96.7733 61.1793 97.328C60.4539 97.872 59.5633 98.144 58.5073 98.144C57.6539 98.144 56.8859 97.9573 56.2033 97.584C55.5313 97.2 55.0033 96.6613 54.6193 95.968C54.2459 95.2747 54.0592 94.4747 54.0592 93.568C54.0592 92.6507 54.2459 91.8453 54.6193 91.152C54.9926 90.4587 55.5153 89.9253 56.1873 89.552C56.8593 89.1787 57.6326 88.992 58.5073 88.992C59.3499 88.992 60.1019 89.1733 60.7633 89.536C61.4353 89.8987 61.9526 90.416 62.3153 91.088C62.6886 91.7493 62.8753 92.512 62.8753 93.376ZM60.5553 92.736C60.5446 92.16 60.3366 91.7013 59.9313 91.36C59.5259 91.008 59.0299 90.832 58.4433 90.832C57.8886 90.832 57.4193 91.0027 57.0353 91.344C56.6619 91.6747 56.4326 92.1387 56.3473 92.736H60.5553ZM63.9342 93.536C63.9342 92.64 64.1102 91.8453 64.4622 91.152C64.8249 90.4587 65.3156 89.9253 65.9343 89.552C66.5529 89.1787 67.2409 88.992 67.9983 88.992C68.5743 88.992 69.1236 89.12 69.6463 89.376C70.1689 89.6213 70.5849 89.952 70.8943 90.368V86.16H73.1663V98H70.8943V96.688C70.6169 97.1253 70.2276 97.4773 69.7263 97.744C69.2249 98.0107 68.6436 98.144 67.9823 98.144C67.2356 98.144 66.5529 97.952 65.9343 97.568C65.3156 97.184 64.8249 96.6453 64.4622 95.952C64.1102 95.248 63.9342 94.4427 63.9342 93.536ZM70.9103 93.568C70.9103 93.024 70.8036 92.56 70.5903 92.176C70.3769 91.7813 70.0889 91.4827 69.7263 91.28C69.3636 91.0667 68.9743 90.96 68.5583 90.96C68.1423 90.96 67.7583 91.0613 67.4062 91.264C67.0543 91.4667 66.7663 91.7653 66.5423 92.16C66.3289 92.544 66.2223 93.0027 66.2223 93.536C66.2223 94.0693 66.3289 94.5387 66.5423 94.944C66.7663 95.3387 67.0543 95.6427 67.4062 95.856C67.7689 96.0693 68.1529 96.176 68.5583 96.176C68.9743 96.176 69.3636 96.0747 69.7263 95.872C70.0889 95.6587 70.3769 95.36 70.5903 94.976C70.8036 94.5813 70.9103 94.112 70.9103 93.568ZM76.49 88.08C76.0953 88.08 75.7647 87.9573 75.498 87.712C75.242 87.456 75.114 87.1413 75.114 86.768C75.114 86.3947 75.242 86.0853 75.498 85.84C75.7647 85.584 76.0953 85.456 76.49 85.456C76.8847 85.456 77.21 85.584 77.466 85.84C77.7327 86.0853 77.866 86.3947 77.866 86.768C77.866 87.1413 77.7327 87.456 77.466 87.712C77.21 87.9573 76.8847 88.08 76.49 88.08ZM77.594 89.136V98H75.354V89.136H77.594ZM82.4151 90.976V95.264C82.4151 95.5627 82.4845 95.7813 82.6231 95.92C82.7725 96.048 83.0178 96.112 83.3591 96.112H84.3991V98H82.9911C81.1031 98 80.1591 97.0827 80.1591 95.248V90.976H79.1031V89.136H80.1591V86.944H82.4151V89.136H84.3991V90.976H82.4151ZM89.2467 93.568C89.2467 92.6507 89.4334 91.8507 89.8068 91.168C90.1801 90.4747 90.6974 89.9413 91.3588 89.568C92.0201 89.184 92.7774 88.992 93.6308 88.992C94.7294 88.992 95.6361 89.2693 96.3508 89.824C97.0761 90.368 97.5614 91.136 97.8068 92.128H95.3908C95.2628 91.744 95.0441 91.4453 94.7348 91.232C94.4361 91.008 94.0628 90.896 93.6148 90.896C92.9748 90.896 92.4681 91.1307 92.0948 91.6C91.7214 92.0587 91.5348 92.7147 91.5348 93.568C91.5348 94.4107 91.7214 95.0667 92.0948 95.536C92.4681 95.9947 92.9748 96.224 93.6148 96.224C94.5214 96.224 95.1134 95.8187 95.3908 95.008H97.8068C97.5614 95.968 97.0761 96.7307 96.3508 97.296C95.6254 97.8613 94.7188 98.144 93.6308 98.144C92.7774 98.144 92.0201 97.9573 91.3588 97.584C90.6974 97.2 90.1801 96.6667 89.8068 95.984C89.4334 95.2907 89.2467 94.4853 89.2467 93.568ZM98.8717 93.536C98.8717 92.64 99.0477 91.8453 99.3997 91.152C99.7624 90.4587 100.248 89.9253 100.856 89.552C101.474 89.1787 102.162 88.992 102.92 88.992C103.581 88.992 104.157 89.1253 104.648 89.392C105.149 89.6587 105.549 89.9947 105.848 90.4V89.136H108.104V98H105.848V96.704C105.56 97.12 105.16 97.4667 104.648 97.744C104.146 98.0107 103.565 98.144 102.904 98.144C102.157 98.144 101.474 97.952 100.856 97.568C100.248 97.184 99.7624 96.6453 99.3997 95.952C99.0477 95.248 98.8717 94.4427 98.8717 93.536ZM105.848 93.568C105.848 93.024 105.741 92.56 105.528 92.176C105.314 91.7813 105.026 91.4827 104.664 91.28C104.301 91.0667 103.912 90.96 103.496 90.96C103.08 90.96 102.696 91.0613 102.344 91.264C101.992 91.4667 101.704 91.7653 101.48 92.16C101.266 92.544 101.16 93.0027 101.16 93.536C101.16 94.0693 101.266 94.5387 101.48 94.944C101.704 95.3387 101.992 95.6427 102.344 95.856C102.706 96.0693 103.09 96.176 103.496 96.176C103.912 96.176 104.301 96.0747 104.664 95.872C105.026 95.6587 105.314 95.36 105.528 94.976C105.741 94.5813 105.848 94.112 105.848 93.568ZM112.532 90.512C112.82 90.0427 113.193 89.6747 113.652 89.408C114.121 89.1413 114.654 89.008 115.252 89.008V91.36H114.66C113.956 91.36 113.422 91.5253 113.06 91.856C112.708 92.1867 112.532 92.7627 112.532 93.584V98H110.292V89.136H112.532V90.512ZM116.184 93.536C116.184 92.64 116.36 91.8453 116.712 91.152C117.075 90.4587 117.566 89.9253 118.184 89.552C118.803 89.1787 119.491 88.992 120.248 88.992C120.824 88.992 121.374 89.12 121.896 89.376C122.419 89.6213 122.835 89.952 123.144 90.368V86.16H125.416V98H123.144V96.688C122.867 97.1253 122.478 97.4773 121.976 97.744C121.475 98.0107 120.894 98.144 120.232 98.144C119.486 98.144 118.803 97.952 118.184 97.568C117.566 97.184 117.075 96.6453 116.712 95.952C116.36 95.248 116.184 94.4427 116.184 93.536ZM123.16 93.568C123.16 93.024 123.054 92.56 122.84 92.176C122.627 91.7813 122.339 91.4827 121.976 91.28C121.614 91.0667 121.224 90.96 120.808 90.96C120.392 90.96 120.008 91.0613 119.656 91.264C119.304 91.4667 119.016 91.7653 118.792 92.16C118.579 92.544 118.472 93.0027 118.472 93.536C118.472 94.0693 118.579 94.5387 118.792 94.944C119.016 95.3387 119.304 95.6427 119.656 95.856C120.019 96.0693 120.403 96.176 120.808 96.176C121.224 96.176 121.614 96.0747 121.976 95.872C122.339 95.6587 122.627 95.36 122.84 94.976C123.054 94.5813 123.16 94.112 123.16 93.568ZM130.996 98.144C130.271 98.144 129.62 98.016 129.044 97.76C128.468 97.4933 128.009 97.136 127.668 96.688C127.337 96.24 127.156 95.744 127.124 95.2H129.38C129.423 95.5413 129.588 95.824 129.876 96.048C130.175 96.272 130.543 96.384 130.98 96.384C131.407 96.384 131.737 96.2987 131.972 96.128C132.217 95.9573 132.34 95.7387 132.34 95.472C132.34 95.184 132.191 94.9707 131.892 94.832C131.604 94.6827 131.14 94.5227 130.5 94.352C129.839 94.192 129.295 94.0267 128.868 93.856C128.452 93.6853 128.089 93.424 127.78 93.072C127.481 92.72 127.332 92.2453 127.332 91.648C127.332 91.1573 127.471 90.7093 127.748 90.304C128.036 89.8987 128.441 89.5787 128.964 89.344C129.497 89.1093 130.121 88.992 130.836 88.992C131.892 88.992 132.735 89.2587 133.364 89.792C133.993 90.3147 134.34 91.024 134.404 91.92H132.26C132.228 91.568 132.079 91.2907 131.812 91.088C131.556 90.8747 131.209 90.768 130.772 90.768C130.367 90.768 130.052 90.8427 129.828 90.992C129.615 91.1413 129.508 91.3493 129.508 91.616C129.508 91.9147 129.657 92.144 129.956 92.304C130.255 92.4533 130.719 92.608 131.348 92.768C131.988 92.928 132.516 93.0933 132.932 93.264C133.348 93.4347 133.705 93.7013 134.004 94.064C134.313 94.416 134.473 94.8853 134.484 95.472C134.484 95.984 134.34 96.4427 134.052 96.848C133.775 97.2533 133.369 97.5733 132.836 97.808C132.313 98.032 131.7 98.144 130.996 98.144Z" fill="black"/>
<defs>
<clipPath id="clip0_1377_79">
<rect width="60" height="60" fill="white" transform="translate(55 10)"/>
</clipPath>
</defs>
</svg>
