<svg width="170" height="114" viewBox="0 0 170 114" fill="none" xmlns="http://www.w3.org/2000/svg">
<rect width="170" height="114" rx="12" fill="#B5B5B5" fill-opacity="0.4"/>
<path d="M110.903 22.0137H59.097C57.0943 22.0137 55.4707 23.6372 55.4707 25.64V56.1452C55.4707 58.1479 57.0943 59.7715 59.097 59.7715H110.903C112.906 59.7715 114.53 58.1479 114.53 56.1452V25.64C114.53 23.6372 112.906 22.0137 110.903 22.0137Z" fill="url(#paint0_linear_1377_80)"/>
<path fill-rule="evenodd" clip-rule="evenodd" d="M71.2215 40.5332L71.4845 39.4951C72.4949 39.1906 74.5572 39.0522 74.9447 40.1456C75.1662 40.7823 74.5295 43.4259 74.4049 44.201L73.4222 44.2148C73.2008 43.938 73.3807 44.4501 73.2284 43.7719C72.2873 44.6162 70.2804 44.4778 70.4326 42.7754C70.5849 41.0868 72.052 41.3083 73.6437 41.0591C73.616 39.9796 72.2596 40.2702 71.2077 40.5193L71.2215 40.5332ZM78.6264 40.3671C77.7267 40.3671 77.5883 40.1733 76.7994 40.5193C76.8963 41.502 77.4084 41.1145 78.1143 41.5851C79.4568 42.4709 78.0174 45.2114 74.8201 44.0349L75.0001 43.0384C75.8997 43.2183 76.3565 43.3982 77.0485 43.0107C77.2146 41.6128 74.7371 42.5263 75.4291 40.284C75.8028 39.0661 77.4499 39.2321 78.8063 39.3567L78.6125 40.3671H78.6264ZM64.8409 38.2494L66.9586 38.3187L67.18 41.6405L68.3288 38.983C68.7163 38.028 68.4534 38.2356 70.8893 38.2633L69.7959 44.201L68.6056 44.1872L69.2561 39.9242L67.4983 44.2148L66.0727 44.1733C66.0312 43.3429 65.962 40.4225 65.7406 39.8688L65.0208 44.1872L63.7752 44.1733L64.8409 38.2494ZM85.0347 50.8584L85.616 50.1664C84.4534 50.0142 84.2457 50.3463 83.7198 49.4052L86.3911 49.3775C86.5572 49.1007 86.834 48.8377 86.9724 48.5193C83.9274 48.3117 83.0693 49.0868 82.5848 47.7581H87.4707L88.0105 46.9138L81.9759 46.8861L81.699 46.1802L88.2042 46.1526C88.5779 45.9449 88.5779 45.7097 88.6748 45.2806L82.5156 45.2667C81.4084 45.2806 81.3392 45.5297 81.1316 44.5193H88.8824L89.1316 43.6612L86.8617 43.6335L86.7509 44.2148L85.4499 44.1595L86.2665 39.329L87.4983 39.4951C87.4983 39.5228 87.526 39.6197 87.526 39.6612C87.526 39.6889 87.5399 39.7304 87.5399 39.7443L87.6091 39.9934C87.9551 39.5782 88.1765 39.2737 88.9793 39.3014L88.5641 40.4225C88.3288 40.727 87.6368 40.3809 87.3461 41.2114L88.7025 41.2667C88.8547 40.3948 89.0208 40.1318 89.27 39.4259L89.2838 39.0107L80.7994 39.0245L80.7717 39.329C81.2284 39.329 81.2146 39.246 81.4776 39.4674L81.353 40.284C80.4949 40.4917 80.5226 39.9796 80.4395 41.1007C80.5641 41.3083 80.4118 41.1975 80.6748 41.2667L81.2146 41.2806C82.0866 38.4432 84.6887 39.0661 85.2838 39.9519C85.6021 40.4225 85.9205 41.9726 85.1316 42.0972L82.488 42.1249C82.6125 43.5228 84.2181 43.2321 85.2561 42.8861C85.2146 43.4674 85.2561 43.938 84.7163 44.1318C84.2873 44.284 83.3876 44.2425 82.917 44.1318C81.7544 43.8688 81.2561 43.2875 81.1731 42.028L80.6748 42.0142C80.2181 41.8065 80.5779 42.0142 80.3426 41.4467C80.1489 42.6093 79.6229 43.3567 81.0624 43.1906C80.9793 43.8827 81.0762 44.118 80.315 44.201C78.1004 44.464 78.8201 42.983 79.18 41.0038C79.7475 37.8481 79.3046 38.2356 80.9101 38.2633L89.1592 38.2771L88.9932 37.419L81.0208 37.3913L81.1731 36.6993L88.7163 36.6578C88.5226 35.4813 88.481 35.7719 85.7406 35.7719C84.3426 35.7719 82.9586 35.7719 81.5606 35.7719C81.8513 34.7616 81.699 35.0384 84.4118 35.0384H88.0797L87.6921 34.1664L82.3772 34.1526L82.7371 33.4328L87.18 33.4052C86.6125 32.2425 86.6402 32.5747 83.4983 32.5193C83.8997 31.5228 84.6056 31.7719 85.8374 31.7719C85.4914 31.2183 85.2423 31.2598 85.0347 30.7892C84.5226 30.5263 84.0658 30.0557 83.5537 29.6958C79.6368 26.9276 74.3219 26.637 70.0589 28.7131C66.225 30.5678 62.4603 34.8584 62.5018 40.7962C62.5572 49.2806 70.0035 55.4674 78.4326 54.028C82.3911 53.3498 83.3876 51.7443 85.0208 50.8446L85.0347 50.8584Z" fill="#E41D2C"/>
<path fill-rule="evenodd" clip-rule="evenodd" d="M94.0727 39.4534C98.3634 38.5815 97.6575 40.6991 97.3115 42.4154C97.2008 42.9275 97.2008 43.9379 96.7994 44.2147C96.7025 44.2147 96.135 44.2285 96.0797 44.2009C95.6921 44.0486 95.8721 44.5054 95.8167 43.7995C94.6541 44.4638 92.8132 44.6161 93.0347 42.7614C93.2146 41.2804 94.7094 41.0451 96.2319 41.1143C96.1766 40.0209 95.18 40.2009 93.7959 40.5469L94.0866 39.4534H94.0727ZM98.308 39.3289L99.4568 39.3427C99.4707 39.3704 99.4845 39.4119 99.4845 39.4396L99.6644 39.9517C99.8721 39.6334 100.26 39.3566 100.869 39.3427L100.703 40.3254L100.135 40.5469C99.0001 40.9206 99.0693 42.3462 98.7648 44.2147H97.4776L98.308 39.3289ZM104.412 38.277H105.588L104.578 44.2285C103.263 44.2424 103.581 44.3116 103.166 43.8133C102.308 45.0867 99.7336 43.9102 100.523 41.2804C101.104 39.315 103.069 38.7891 104.038 39.9517L104.426 38.2631L104.412 38.277ZM85.0485 30.8029C85.2561 31.2735 85.5191 31.232 85.8513 31.7856C84.6195 31.7856 83.9136 31.5227 83.5122 32.533C86.6541 32.5884 86.6264 32.2562 87.1939 33.4188L82.7509 33.4465L82.3911 34.1663L87.706 34.1801L88.0935 35.0521C86.8755 35.0521 85.6575 35.0521 84.4257 35.0521C81.7267 35.0521 81.8651 34.7891 81.5745 35.7856H85.7544C88.4949 35.7856 88.5364 35.495 88.7302 36.6714L81.1869 36.713L81.0347 37.405L89.007 37.4327L89.1731 38.2908L80.924 38.277L80.8132 39.0521L89.2977 39.0382L89.2838 39.4534C89.9205 38.8445 89.8098 38.5261 91.0001 38.1801C91.9828 37.9033 92.6056 38.1109 93.5745 38.3185L93.3669 39.5919C91.706 39.0936 90.6264 39.2182 90.2388 40.9344C89.8098 42.7752 91.2631 43.4673 92.7994 42.7337C92.661 44.0763 92.4395 44.4085 90.8617 44.2009C89.7682 44.0624 89.4361 43.5365 88.9516 42.886H86.9724L86.8617 43.6472L89.1316 43.6749L88.8824 44.533H81.1316C81.3392 45.5434 81.4084 45.2943 82.5157 45.2804L88.6748 45.2943C88.5641 45.7095 88.5779 45.9586 88.2042 46.1663L81.699 46.1939L81.9759 46.8998L88.0105 46.9275L87.4707 47.7718H82.5849C83.0693 49.0867 83.9274 48.3254 86.9724 48.533C86.834 48.8514 86.5572 49.1143 86.3911 49.3912L83.7198 49.4188C84.2319 50.3462 84.4534 50.0278 85.616 50.1801L85.0347 50.8721C87.0139 52.3254 88.5503 53.5434 91.7475 54.097C94.6541 54.5953 97.6852 54.0417 100.024 52.8929C110.156 47.8964 109.879 33.5019 99.9413 28.7406C96.3703 27.0382 91.6368 26.886 87.9413 28.8237C86.1558 29.751 85.7267 30.4154 85.0624 30.8168L85.0485 30.8029Z" fill="#F8B02B"/>
<path fill-rule="evenodd" clip-rule="evenodd" d="M63.7751 44.1872L65.0208 44.2011L65.7405 39.8827C65.962 40.4364 66.0312 43.3568 66.0727 44.1872L67.4983 44.2288L69.2561 39.9381L68.6056 44.2011L69.7959 44.2149L70.8893 38.2772C68.4533 38.2495 68.7163 38.0419 68.3288 38.9969L67.18 41.6544L66.9585 38.3326L64.8409 38.2634L63.7751 44.1872Z" fill="#FEFEFE"/>
<path fill-rule="evenodd" clip-rule="evenodd" d="M102.336 43.094C101.298 42.0282 102.183 40.2566 103.152 40.4919C104.107 40.7272 103.927 43.0663 102.336 43.094ZM104.024 39.9521C103.055 38.7895 101.104 39.3154 100.509 41.2808C99.7197 43.8967 102.294 45.087 103.152 43.8137C103.567 44.3119 103.249 44.2289 104.564 44.2289L105.574 38.2773H104.398L104.01 39.9659L104.024 39.9521Z" fill="#FEFEFE"/>
<path fill-rule="evenodd" clip-rule="evenodd" d="M94.5157 43.1075C94.3219 42.1802 95.1801 41.8203 95.9967 41.9864C96.0382 42.9276 95.3738 43.4397 94.5157 43.1075ZM94.0728 39.4674L93.7821 40.5608C95.1662 40.2287 96.1766 40.0487 96.2181 41.1283C94.6956 41.0591 93.2008 41.2944 93.0209 42.7754C92.7856 44.63 94.6403 44.4778 95.8029 43.8134C95.8583 44.5193 95.6783 44.0626 96.0659 44.2148C96.1212 44.2425 96.6887 44.2287 96.7856 44.2287C97.2008 43.9657 97.2008 42.9415 97.2977 42.4293C97.6576 40.6992 98.3496 38.5954 94.0589 39.4674H94.0728Z" fill="#FEFEFE"/>
<path fill-rule="evenodd" clip-rule="evenodd" d="M73.4223 41.9457C73.4499 42.4163 73.3669 42.7761 73.0624 43.0114C72.8548 43.1637 72.2319 43.3436 71.9828 43.1083C71.2077 42.4024 72.661 41.9318 73.4084 41.9457H73.4223ZM71.2216 40.5339C72.2735 40.2848 73.6299 39.9941 73.6575 41.0737C72.0659 41.3228 70.5987 41.1014 70.4465 42.79C70.2804 44.4924 72.2873 44.6308 73.2423 43.7865C73.3946 44.4647 73.2146 43.9526 73.4361 44.2294L74.4188 44.2156C74.5434 43.4266 75.18 40.7969 74.9586 40.1602C74.571 39.0529 72.5226 39.1913 71.4984 39.5097L71.2354 40.5477L71.2216 40.5339Z" fill="#FEFEFE"/>
<path fill-rule="evenodd" clip-rule="evenodd" d="M82.6956 41.2259C82.8755 40.5201 83.18 40.2294 83.9966 40.3401C84.2873 40.7554 84.2873 40.6308 84.3426 41.2259H82.6956ZM81.2285 41.2951L81.1731 42.0425C81.2561 43.3021 81.7683 43.8695 82.917 44.1464C83.3876 44.2571 84.2873 44.2986 84.7163 44.1464C85.2561 43.9664 85.2146 43.482 85.2561 42.9007C84.2181 43.2467 82.6125 43.5374 82.488 42.1394L85.1316 42.1118C85.9205 41.9872 85.6022 40.4509 85.2838 39.9664C84.6887 39.0806 82.0866 38.4578 81.2146 41.2951H81.2285Z" fill="#FEFEFE"/>
<path fill-rule="evenodd" clip-rule="evenodd" d="M89.2838 39.4539C89.0346 40.1598 88.8686 40.4228 88.7163 41.2947V42.056L88.9516 42.9003C89.436 43.5508 89.7682 44.0767 90.8616 44.2152C92.4395 44.4228 92.6609 44.0906 92.7994 42.748C91.2492 43.4816 89.8097 42.7895 90.2388 40.9487C90.6402 39.2186 91.7198 39.1079 93.3668 39.6062L93.5744 38.3328C92.6056 38.139 91.9827 37.9314 91 38.1944C89.8097 38.5266 89.9205 38.8588 89.2838 39.4677V39.4539Z" fill="#FEFEFE"/>
<path fill-rule="evenodd" clip-rule="evenodd" d="M78.8062 39.3569C77.4498 39.2461 75.8028 39.0662 75.4291 40.2842C74.737 42.5264 77.2007 41.6129 77.0484 43.0108C76.3426 43.3984 75.8997 43.2185 75 43.0385L74.8201 44.0351C78.0173 45.2115 79.4429 42.4849 78.1142 41.5852C77.4083 41.1147 76.8962 41.516 76.7993 40.5195C77.5882 40.1596 77.7128 40.3672 78.6263 40.3672L78.8201 39.3569H78.8062Z" fill="#FEFEFE"/>
<path fill-rule="evenodd" clip-rule="evenodd" d="M80.3564 41.4604L80.4533 41.1282C80.5363 40.0071 80.5086 40.5192 81.3668 40.3116L81.4913 39.495C81.2283 39.2736 81.2422 39.3566 80.7854 39.3566L80.8131 39.0521L80.9238 38.277C79.3183 38.2493 79.7612 37.8618 79.1937 41.0175C78.8339 42.9967 78.1142 44.4777 80.3287 44.2147C81.0761 44.1317 80.9931 43.8964 81.0761 43.2044C79.6505 43.3704 80.1764 42.623 80.3564 41.4604Z" fill="#FEFEFE"/>
<path fill-rule="evenodd" clip-rule="evenodd" d="M86.8615 43.6611L86.9723 42.8998L87.1107 42.0694L87.3598 41.2389C87.6643 40.4085 88.3564 40.7545 88.5778 40.45L88.993 39.3289C88.1764 39.3012 87.955 39.6057 87.6228 40.0209L87.5536 39.7718C87.5536 39.758 87.5397 39.7164 87.5397 39.6888C87.5397 39.6611 87.5121 39.5503 87.5121 39.5227L86.2802 39.3566L85.4636 44.187L86.7647 44.2424L86.8754 43.6611H86.8615Z" fill="#FEFEFE"/>
<path fill-rule="evenodd" clip-rule="evenodd" d="M97.4775 44.2149H98.7647C99.0692 42.3464 99 40.9208 100.135 40.5471L100.702 40.3256L100.869 39.3429C100.26 39.3568 99.872 39.6336 99.6644 39.9519L99.4845 39.4398C99.4706 39.4121 99.4706 39.3706 99.4568 39.3429L98.308 39.3291L97.4775 44.2149Z" fill="#FEFEFE"/>
<path fill-rule="evenodd" clip-rule="evenodd" d="M102.336 43.0941C103.941 43.0664 104.121 40.7273 103.152 40.492C102.17 40.2567 101.298 42.0283 102.336 43.0941Z" fill="#F8B02B"/>
<path fill-rule="evenodd" clip-rule="evenodd" d="M73.4221 41.9446C72.6747 41.9308 71.2214 42.4014 71.9965 43.1073C72.2456 43.3287 72.8685 43.1488 73.0761 43.0104C73.3806 42.7889 73.4498 42.4152 73.436 41.9446H73.4221Z" fill="#E41D2C"/>
<path fill-rule="evenodd" clip-rule="evenodd" d="M86.9724 42.8861L88.9517 42.9L88.7164 42.0557H87.1108L86.9724 42.8861Z" fill="#E41D2C"/>
<path fill-rule="evenodd" clip-rule="evenodd" d="M94.5156 43.108C95.3876 43.4264 96.0381 42.9281 95.9966 41.9869C95.1661 41.8347 94.3218 42.1945 94.5156 43.108Z" fill="#F8B02B"/>
<path fill-rule="evenodd" clip-rule="evenodd" d="M87.1108 42.056H88.7164V41.2948L87.36 41.2256L87.1108 42.056Z" fill="#F8B02B"/>
<path fill-rule="evenodd" clip-rule="evenodd" d="M82.6956 41.2251H84.3426C84.3011 40.6438 84.2873 40.7545 83.9966 40.3393C83.18 40.2286 82.8755 40.5192 82.6956 41.2251Z" fill="#E41D2C"/>
<path fill-rule="evenodd" clip-rule="evenodd" d="M80.3564 41.4603C80.5917 42.0278 80.2319 41.8201 80.6886 42.0278L81.1869 42.0416L81.2423 41.2942L80.7025 41.2803C80.4256 41.225 80.5779 41.3219 80.4672 41.1143L80.3703 41.4464L80.3564 41.4603Z" fill="#F8B02B"/>
<path d="M47.7893 86.832C48.9626 86.832 49.9919 87.0613 50.8773 87.52C51.7733 87.9787 52.4613 88.6347 52.9413 89.488C53.4319 90.3307 53.6773 91.312 53.6773 92.432C53.6773 93.552 53.4319 94.5333 52.9413 95.376C52.4613 96.208 51.7733 96.8533 50.8773 97.312C49.9919 97.7707 48.9626 98 47.7893 98H43.8853V86.832H47.7893ZM47.7093 96.096C48.8826 96.096 49.7893 95.776 50.4293 95.136C51.0693 94.496 51.3893 93.5947 51.3893 92.432C51.3893 91.2693 51.0693 90.3627 50.4293 89.712C49.7893 89.0507 48.8826 88.72 47.7093 88.72H46.1253V96.096H47.7093ZM63.594 93.376C63.594 93.696 63.5727 93.984 63.53 94.24H57.05C57.1033 94.88 57.3273 95.3813 57.722 95.744C58.1167 96.1067 58.602 96.288 59.178 96.288C60.01 96.288 60.602 95.9307 60.954 95.216H63.37C63.114 96.0693 62.6233 96.7733 61.898 97.328C61.1727 97.872 60.282 98.144 59.226 98.144C58.3727 98.144 57.6047 97.9573 56.922 97.584C56.25 97.2 55.722 96.6613 55.338 95.968C54.9647 95.2747 54.778 94.4747 54.778 93.568C54.778 92.6507 54.9647 91.8453 55.338 91.152C55.7113 90.4587 56.234 89.9253 56.906 89.552C57.578 89.1787 58.3513 88.992 59.226 88.992C60.0687 88.992 60.8207 89.1733 61.482 89.536C62.154 89.8987 62.6713 90.416 63.034 91.088C63.4073 91.7493 63.594 92.512 63.594 93.376ZM61.274 92.736C61.2633 92.16 61.0553 91.7013 60.65 91.36C60.2447 91.008 59.7487 90.832 59.162 90.832C58.6073 90.832 58.138 91.0027 57.754 91.344C57.3807 91.6747 57.1513 92.1387 57.066 92.736H61.274ZM67.469 90.432C67.757 90.0053 68.1517 89.6587 68.653 89.392C69.165 89.1253 69.7463 88.992 70.397 88.992C71.1543 88.992 71.837 89.1787 72.445 89.552C73.0637 89.9253 73.549 90.4587 73.901 91.152C74.2637 91.8347 74.445 92.6293 74.445 93.536C74.445 94.4427 74.2637 95.248 73.901 95.952C73.549 96.6453 73.0637 97.184 72.445 97.568C71.837 97.952 71.1543 98.144 70.397 98.144C69.7357 98.144 69.1543 98.016 68.653 97.76C68.1623 97.4933 67.7677 97.152 67.469 96.736V98H65.229V86.16H67.469V90.432ZM72.157 93.536C72.157 93.0027 72.045 92.544 71.821 92.16C71.6077 91.7653 71.3197 91.4667 70.957 91.264C70.605 91.0613 70.221 90.96 69.805 90.96C69.3997 90.96 69.0157 91.0667 68.653 91.28C68.301 91.4827 68.013 91.7813 67.789 92.176C67.5757 92.5707 67.469 93.0347 67.469 93.568C67.469 94.1013 67.5757 94.5653 67.789 94.96C68.013 95.3547 68.301 95.6587 68.653 95.872C69.0157 96.0747 69.3997 96.176 69.805 96.176C70.221 96.176 70.605 96.0693 70.957 95.856C71.3197 95.6427 71.6077 95.3387 71.821 94.944C72.045 94.5493 72.157 94.08 72.157 93.536ZM77.2088 88.08C76.8141 88.08 76.4834 87.9573 76.2168 87.712C75.9608 87.456 75.8328 87.1413 75.8328 86.768C75.8328 86.3947 75.9608 86.0853 76.2168 85.84C76.4834 85.584 76.8141 85.456 77.2088 85.456C77.6034 85.456 77.9288 85.584 78.1848 85.84C78.4514 86.0853 78.5848 86.3947 78.5848 86.768C78.5848 87.1413 78.4514 87.456 78.1848 87.712C77.9288 87.9573 77.6034 88.08 77.2088 88.08ZM78.3128 89.136V98H76.0728V89.136H78.3128ZM83.1339 90.976V95.264C83.1339 95.5627 83.2032 95.7813 83.3419 95.92C83.4912 96.048 83.7365 96.112 84.0779 96.112H85.1179V98H83.7099C81.8219 98 80.8779 97.0827 80.8779 95.248V90.976H79.8219V89.136H80.8779V86.944H83.1339V89.136H85.1179V90.976H83.1339ZM89.9655 93.568C89.9655 92.6507 90.1522 91.8507 90.5255 91.168C90.8988 90.4747 91.4162 89.9413 92.0775 89.568C92.7388 89.184 93.4962 88.992 94.3495 88.992C95.4482 88.992 96.3548 89.2693 97.0695 89.824C97.7948 90.368 98.2802 91.136 98.5255 92.128H96.1095C95.9815 91.744 95.7628 91.4453 95.4535 91.232C95.1548 91.008 94.7815 90.896 94.3335 90.896C93.6935 90.896 93.1868 91.1307 92.8135 91.6C92.4402 92.0587 92.2535 92.7147 92.2535 93.568C92.2535 94.4107 92.4402 95.0667 92.8135 95.536C93.1868 95.9947 93.6935 96.224 94.3335 96.224C95.2402 96.224 95.8322 95.8187 96.1095 95.008H98.5255C98.2802 95.968 97.7948 96.7307 97.0695 97.296C96.3442 97.8613 95.4375 98.144 94.3495 98.144C93.4962 98.144 92.7388 97.9573 92.0775 97.584C91.4162 97.2 90.8988 96.6667 90.5255 95.984C90.1522 95.2907 89.9655 94.4853 89.9655 93.568ZM99.5905 93.536C99.5905 92.64 99.7665 91.8453 100.118 91.152C100.481 90.4587 100.967 89.9253 101.575 89.552C102.193 89.1787 102.881 88.992 103.639 88.992C104.3 88.992 104.876 89.1253 105.367 89.392C105.868 89.6587 106.268 89.9947 106.567 90.4V89.136H108.823V98H106.567V96.704C106.279 97.12 105.879 97.4667 105.367 97.744C104.865 98.0107 104.284 98.144 103.623 98.144C102.876 98.144 102.193 97.952 101.575 97.568C100.967 97.184 100.481 96.6453 100.118 95.952C99.7665 95.248 99.5905 94.4427 99.5905 93.536ZM106.567 93.568C106.567 93.024 106.46 92.56 106.247 92.176C106.033 91.7813 105.745 91.4827 105.383 91.28C105.02 91.0667 104.631 90.96 104.215 90.96C103.799 90.96 103.415 91.0613 103.062 91.264C102.711 91.4667 102.423 91.7653 102.199 92.16C101.985 92.544 101.879 93.0027 101.879 93.536C101.879 94.0693 101.985 94.5387 102.199 94.944C102.423 95.3387 102.711 95.6427 103.062 95.856C103.425 96.0693 103.809 96.176 104.215 96.176C104.631 96.176 105.02 96.0747 105.383 95.872C105.745 95.6587 106.033 95.36 106.247 94.976C106.46 94.5813 106.567 94.112 106.567 93.568ZM113.25 90.512C113.538 90.0427 113.912 89.6747 114.37 89.408C114.84 89.1413 115.373 89.008 115.97 89.008V91.36H115.378C114.674 91.36 114.141 91.5253 113.778 91.856C113.426 92.1867 113.25 92.7627 113.25 93.584V98H111.01V89.136H113.25V90.512ZM116.903 93.536C116.903 92.64 117.079 91.8453 117.431 91.152C117.794 90.4587 118.284 89.9253 118.903 89.552C119.522 89.1787 120.21 88.992 120.967 88.992C121.543 88.992 122.092 89.12 122.615 89.376C123.138 89.6213 123.554 89.952 123.863 90.368V86.16H126.135V98H123.863V96.688C123.586 97.1253 123.196 97.4773 122.695 97.744C122.194 98.0107 121.612 98.144 120.951 98.144C120.204 98.144 119.522 97.952 118.903 97.568C118.284 97.184 117.794 96.6453 117.431 95.952C117.079 95.248 116.903 94.4427 116.903 93.536ZM123.879 93.568C123.879 93.024 123.772 92.56 123.559 92.176C123.346 91.7813 123.058 91.4827 122.695 91.28C122.332 91.0667 121.943 90.96 121.527 90.96C121.111 90.96 120.727 91.0613 120.375 91.264C120.023 91.4667 119.735 91.7653 119.511 92.16C119.298 92.544 119.191 93.0027 119.191 93.536C119.191 94.0693 119.298 94.5387 119.511 94.944C119.735 95.3387 120.023 95.6427 120.375 95.856C120.738 96.0693 121.122 96.176 121.527 96.176C121.943 96.176 122.332 96.0747 122.695 95.872C123.058 95.6587 123.346 95.36 123.559 94.976C123.772 94.5813 123.879 94.112 123.879 93.568Z" fill="black"/>
<defs>
<linearGradient id="paint0_linear_1377_80" x1="84.9996" y1="22.0189" x2="84.9996" y2="59.7796" gradientUnits="userSpaceOnUse">
<stop stop-color="#1D4C80"/>
<stop offset="1" stop-color="#173A63"/>
</linearGradient>
</defs>
</svg>
