<svg width="170" height="114" viewBox="0 0 170 114" fill="none" xmlns="http://www.w3.org/2000/svg">
<rect width="170" height="114" rx="12" fill="#B5B5B5" fill-opacity="0.4"/>
<path d="M88.4343 36.4512H94.3269V53.7639H88.4343V36.4512Z" fill="#77B0FB"/>
<path d="M75.6731 36.4512H81.5656V53.7639H75.6731V36.4512Z" fill="#77B0FB"/>
<path d="M62.9119 36.4512H68.8044V53.7639H62.9119V36.4512Z" fill="#77B0FB"/>
<path d="M93.1553 36.0283H94.3271V54.1872H93.1553V36.0283Z" fill="#6B9EE2"/>
<path d="M80.3938 36.0283H81.5657V54.1872H80.3938V36.0283Z" fill="#6B9EE2"/>
<path d="M67.6326 36.0283H68.8044V54.1872H67.6326V36.0283Z" fill="#6B9EE2"/>
<path d="M101.196 36.4512H107.088V53.7639H101.196V36.4512Z" fill="#77B0FB"/>
<path d="M105.917 36.0283H107.088V54.1872H105.917V36.0283Z" fill="#6B9EE2"/>
<path d="M85 31.2871C88.5033 31.2871 91.3432 28.4471 91.3432 24.9438C91.3432 21.4406 88.5033 18.6006 85 18.6006C81.4967 18.6006 78.6567 21.4406 78.6567 24.9438C78.6567 28.4471 81.4967 31.2871 85 31.2871Z" fill="#DCC23D"/>
<path d="M88.3104 28.9285C90.5102 26.7286 90.5102 23.162 88.3104 20.9621C86.1105 18.7623 82.5439 18.7623 80.344 20.9621C78.1442 23.162 78.1442 26.7286 80.344 28.9285C82.5439 31.1283 86.1105 31.1283 88.3104 28.9285Z" fill="#F4D844"/>
<path fill-rule="evenodd" clip-rule="evenodd" d="M84.1788 21.5254C84.1788 21.0723 84.5461 20.7051 84.9992 20.7051C85.4522 20.7051 85.8195 21.0723 85.8195 21.5254V21.7149C85.9399 21.7682 86.055 21.8324 86.1632 21.9064C86.5126 22.1454 86.7885 22.4883 86.9462 22.8941C87.109 23.3153 86.8996 23.7888 86.4784 23.9515C86.0572 24.1143 85.5838 23.9049 85.421 23.4837C85.3856 23.3924 85.3219 23.3143 85.2404 23.2585C85.1629 23.2055 85.0675 23.1746 84.9635 23.1746C84.7995 23.1746 84.6769 23.2306 84.6025 23.3139C84.5728 23.3471 84.5482 23.3894 84.5297 23.4375C84.5131 23.4811 84.5043 23.5279 84.5043 23.575C84.5043 23.6683 84.5429 23.7641 84.6278 23.84C84.7542 23.9529 84.9751 24.0077 85.195 24.062C85.7433 24.1977 86.2886 24.3327 86.7779 25.0163V25.0196C86.8497 25.1198 86.9091 25.2187 86.9562 25.3154C87.0034 25.4123 87.0445 25.5215 87.0794 25.641C87.1364 25.8366 87.164 26.03 87.164 26.2162C87.164 26.6613 87.0185 27.1026 86.751 27.4689L86.7495 27.4677C86.5218 27.7788 86.2069 28.0341 85.8197 28.1893V28.3621C85.8197 28.8152 85.4524 29.1824 84.9994 29.1824C84.5463 29.1824 84.1791 28.8152 84.1791 28.3621V28.2107C84.0155 28.1491 83.8606 28.0686 83.7171 27.9719C83.3537 27.7268 83.0647 27.3741 82.8956 26.9552C82.7275 26.5357 82.9313 26.0595 83.3507 25.8913C83.7701 25.7232 84.2463 25.927 84.4145 26.3464C84.458 26.4542 84.5352 26.5469 84.6335 26.6132C84.727 26.6762 84.8408 26.7129 84.9635 26.7129C85.0432 26.7129 85.1091 26.7045 85.1618 26.6891C85.2783 26.6552 85.3696 26.5881 85.4308 26.5043V26.5011C85.4908 26.4189 85.5233 26.3185 85.5233 26.2161C85.5233 26.1693 85.5186 26.1286 85.5092 26.0959C85.5056 26.0837 85.4966 26.0628 85.4821 26.033C85.4694 26.0071 85.4575 25.9858 85.4465 25.97L85.4449 25.971C85.3048 25.7752 85.0551 25.7133 84.804 25.6512C84.3892 25.5486 83.9724 25.4454 83.5383 25.0575C83.0747 24.6432 82.8636 24.106 82.8636 23.5749C82.8636 23.3291 82.9099 23.0845 82.9981 22.8543C83.0845 22.6288 83.2149 22.4145 83.3848 22.2244C83.5958 21.9883 83.8637 21.7964 84.1791 21.6754V21.5253L84.1788 21.5254Z" fill="#E39069"/>
<path fill-rule="evenodd" clip-rule="evenodd" d="M70.0729 24.0534L59.607 30.732C59.0194 31.1069 58.7598 31.798 58.955 32.467C59.1503 33.136 59.7409 33.5788 60.4378 33.5788H61.1909H70.5253H85.0001H86.7135H109.562C110.259 33.5788 110.85 33.136 111.045 32.467C111.24 31.798 110.981 31.1069 110.393 30.732L99.9273 24.0534L86.9176 15.7516C85.7207 14.9878 84.2794 14.9878 83.0824 15.7516L70.0727 24.0534H70.0729ZM85.0001 30.5485C81.9047 30.5485 79.3954 28.0392 79.3954 24.9438C79.3954 21.8484 81.9047 19.339 85.0001 19.339C88.0955 19.339 90.6048 21.8484 90.6048 24.9438C90.6048 28.0392 88.0955 30.5485 85.0001 30.5485Z" fill="#2B4C9F"/>
<path fill-rule="evenodd" clip-rule="evenodd" d="M70.5251 35.6342V32.9199H61.1907V35.6342C61.1907 36.3842 61.9652 36.9979 62.9117 36.9979H68.8042C69.7508 36.9979 70.5251 36.3842 70.5251 35.6342Z" fill="#2B4C9F"/>
<path fill-rule="evenodd" clip-rule="evenodd" d="M73.9521 32.9199V35.6342C73.9521 36.3842 74.7266 36.9979 75.6732 36.9979H81.5657C82.5122 36.9979 83.2866 36.3842 83.2866 35.6342V32.9199H73.9521Z" fill="#2B4C9F"/>
<path fill-rule="evenodd" clip-rule="evenodd" d="M86.7134 32.9199V35.6342C86.7134 36.3842 87.4879 36.9979 88.4344 36.9979H94.3269C95.2735 36.9979 96.0478 36.3842 96.0478 35.6342V32.9199H86.7134Z" fill="#2B4C9F"/>
<path fill-rule="evenodd" clip-rule="evenodd" d="M99.4749 32.9199V35.6342C99.4749 36.3842 100.249 36.9979 101.196 36.9979H107.088C108.035 36.9979 108.809 36.3842 108.809 35.6342V32.9199H99.4749Z" fill="#2B4C9F"/>
<path fill-rule="evenodd" clip-rule="evenodd" d="M68.8042 53.2168H62.9117C61.9652 53.2168 61.1907 53.8305 61.1907 54.5805V57.7473H70.5251V54.5805C70.5251 53.8305 69.7508 53.2168 68.8042 53.2168Z" fill="#2B4C9F"/>
<path fill-rule="evenodd" clip-rule="evenodd" d="M75.6732 53.2168C74.7266 53.2168 73.9521 53.8305 73.9521 54.5805V57.7473H83.2866V54.5805C83.2866 53.8305 82.5122 53.2168 81.5657 53.2168H75.6732Z" fill="#2B4C9F"/>
<path fill-rule="evenodd" clip-rule="evenodd" d="M88.4344 53.2168C87.4879 53.2168 86.7134 53.8305 86.7134 54.5805V57.7473H96.0478V54.5805C96.0478 53.8305 95.2733 53.2168 94.3269 53.2168H88.4344Z" fill="#2B4C9F"/>
<path fill-rule="evenodd" clip-rule="evenodd" d="M99.4749 54.5805V57.7473H108.809V54.5805C108.809 53.8305 108.035 53.2168 107.088 53.2168H101.196C100.249 53.2168 99.4749 53.8305 99.4749 54.5805Z" fill="#2B4C9F"/>
<path fill-rule="evenodd" clip-rule="evenodd" d="M108.809 56.6924H60.7534C59.7643 56.6924 58.9551 57.5017 58.9551 58.4907V61.6955H111.045V58.4907C111.045 57.5017 110.236 56.6924 109.247 56.6924H108.809Z" fill="#6B9EE2"/>
<path fill-rule="evenodd" clip-rule="evenodd" d="M59.0684 57.8644C58.9952 58.0596 58.9551 58.2708 58.9551 58.4907V61.6955H109.873V58.4907C109.873 58.1484 109.589 57.8643 109.247 57.8643H59.0684V57.8644Z" fill="#77B0FB"/>
<path fill-rule="evenodd" clip-rule="evenodd" d="M110.859 60.29H59.1408C57.8945 60.29 56.875 61.3097 56.875 62.5559V64.8218H113.125V62.5559C113.125 61.3097 112.105 60.29 110.859 60.29Z" fill="#2B4C9F"/>
<path d="M36.1588 92.272C36.7881 92.3893 37.3054 92.704 37.7108 93.216C38.1161 93.728 38.3188 94.3147 38.3188 94.976C38.3188 95.5733 38.1694 96.1013 37.8708 96.56C37.5828 97.008 37.1614 97.36 36.6068 97.616C36.0521 97.872 35.3961 98 34.6388 98H29.8228V86.832H34.4308C35.1881 86.832 35.8388 86.9547 36.3828 87.2C36.9374 87.4453 37.3534 87.7867 37.6308 88.224C37.9188 88.6613 38.0628 89.1573 38.0628 89.712C38.0628 90.3627 37.8868 90.9067 37.5347 91.344C37.1934 91.7813 36.7348 92.0907 36.1588 92.272ZM32.0628 91.44H34.1108C34.6441 91.44 35.0548 91.3227 35.3428 91.088C35.6308 90.8427 35.7748 90.496 35.7748 90.048C35.7748 89.6 35.6308 89.2533 35.3428 89.008C35.0548 88.7627 34.6441 88.64 34.1108 88.64H32.0628V91.44ZM34.3188 96.176C34.8628 96.176 35.2841 96.048 35.5828 95.792C35.8921 95.536 36.0468 95.1733 36.0468 94.704C36.0468 94.224 35.8868 93.8507 35.5668 93.584C35.2468 93.3067 34.8148 93.168 34.2708 93.168H32.0628V96.176H34.3188ZM39.528 93.536C39.528 92.64 39.704 91.8453 40.056 91.152C40.4187 90.4587 40.904 89.9253 41.512 89.552C42.1307 89.1787 42.8187 88.992 43.576 88.992C44.2373 88.992 44.8133 89.1253 45.304 89.392C45.8053 89.6587 46.2053 89.9947 46.504 90.4V89.136H48.76V98H46.504V96.704C46.216 97.12 45.816 97.4667 45.304 97.744C44.8027 98.0107 44.2213 98.144 43.56 98.144C42.8133 98.144 42.1307 97.952 41.512 97.568C40.904 97.184 40.4187 96.6453 40.056 95.952C39.704 95.248 39.528 94.4427 39.528 93.536ZM46.504 93.568C46.504 93.024 46.3973 92.56 46.184 92.176C45.9707 91.7813 45.6827 91.4827 45.32 91.28C44.9573 91.0667 44.568 90.96 44.152 90.96C43.736 90.96 43.352 91.0613 43 91.264C42.648 91.4667 42.36 91.7653 42.136 92.16C41.9227 92.544 41.816 93.0027 41.816 93.536C41.816 94.0693 41.9227 94.5387 42.136 94.944C42.36 95.3387 42.648 95.6427 43 95.856C43.3627 96.0693 43.7467 96.176 44.152 96.176C44.568 96.176 44.9573 96.0747 45.32 95.872C45.6827 95.6587 45.9707 95.36 46.184 94.976C46.3973 94.5813 46.504 94.112 46.504 93.568ZM55.8598 89.008C56.9158 89.008 57.7691 89.344 58.4198 90.016C59.0704 90.6773 59.3958 91.6053 59.3958 92.8V98H57.1558V93.104C57.1558 92.4 56.9798 91.8613 56.6278 91.488C56.2758 91.104 55.7958 90.912 55.1878 90.912C54.5691 90.912 54.0784 91.104 53.7158 91.488C53.3638 91.8613 53.1878 92.4 53.1878 93.104V98H50.9478V89.136H53.1878V90.24C53.4864 89.856 53.8651 89.5573 54.3238 89.344C54.7931 89.12 55.3051 89.008 55.8598 89.008ZM66.7739 98L63.7659 94.224V98H61.5259V86.16H63.7659V92.896L66.7419 89.136H69.6539L65.7499 93.584L69.6859 98H66.7739ZM82.2821 86.832V88.64H79.3061V98H77.0661V88.64H74.0901V86.832H82.2821ZM86.1565 90.512C86.4445 90.0427 86.8178 89.6747 87.2765 89.408C87.7458 89.1413 88.2792 89.008 88.8765 89.008V91.36H88.2845C87.5805 91.36 87.0472 91.5253 86.6845 91.856C86.3325 92.1867 86.1565 92.7627 86.1565 93.584V98H83.9165V89.136H86.1565V90.512ZM89.8092 93.536C89.8092 92.64 89.9852 91.8453 90.3372 91.152C90.6999 90.4587 91.1853 89.9253 91.7933 89.552C92.4119 89.1787 93.0999 88.992 93.8573 88.992C94.5186 88.992 95.0946 89.1253 95.5853 89.392C96.0866 89.6587 96.4866 89.9947 96.7853 90.4V89.136H99.0413V98H96.7853V96.704C96.4973 97.12 96.0973 97.4667 95.5853 97.744C95.0839 98.0107 94.5026 98.144 93.8413 98.144C93.0946 98.144 92.4119 97.952 91.7933 97.568C91.1853 97.184 90.6999 96.6453 90.3372 95.952C89.9852 95.248 89.8092 94.4427 89.8092 93.536ZM96.7853 93.568C96.7853 93.024 96.6786 92.56 96.4653 92.176C96.2519 91.7813 95.9639 91.4827 95.6013 91.28C95.2386 91.0667 94.8493 90.96 94.4333 90.96C94.0173 90.96 93.6333 91.0613 93.2812 91.264C92.9293 91.4667 92.6413 91.7653 92.4173 92.16C92.2039 92.544 92.0973 93.0027 92.0973 93.536C92.0973 94.0693 92.2039 94.5387 92.4173 94.944C92.6413 95.3387 92.9293 95.6427 93.2812 95.856C93.6439 96.0693 94.0279 96.176 94.4333 96.176C94.8493 96.176 95.2386 96.0747 95.6013 95.872C95.9639 95.6587 96.2519 95.36 96.4653 94.976C96.6786 94.5813 96.7853 94.112 96.7853 93.568ZM106.141 89.008C107.197 89.008 108.05 89.344 108.701 90.016C109.352 90.6773 109.677 91.6053 109.677 92.8V98H107.437V93.104C107.437 92.4 107.261 91.8613 106.909 91.488C106.557 91.104 106.077 90.912 105.469 90.912C104.85 90.912 104.36 91.104 103.997 91.488C103.645 91.8613 103.469 92.4 103.469 93.104V98H101.229V89.136H103.469V90.24C103.768 89.856 104.146 89.5573 104.605 89.344C105.074 89.12 105.586 89.008 106.141 89.008ZM115.199 98.144C114.474 98.144 113.823 98.016 113.247 97.76C112.671 97.4933 112.212 97.136 111.871 96.688C111.54 96.24 111.359 95.744 111.327 95.2H113.583C113.626 95.5413 113.791 95.824 114.079 96.048C114.378 96.272 114.746 96.384 115.183 96.384C115.61 96.384 115.94 96.2987 116.175 96.128C116.42 95.9573 116.543 95.7387 116.543 95.472C116.543 95.184 116.394 94.9707 116.095 94.832C115.807 94.6827 115.343 94.5227 114.703 94.352C114.042 94.192 113.498 94.0267 113.071 93.856C112.655 93.6853 112.292 93.424 111.983 93.072C111.684 92.72 111.535 92.2453 111.535 91.648C111.535 91.1573 111.674 90.7093 111.951 90.304C112.239 89.8987 112.644 89.5787 113.167 89.344C113.7 89.1093 114.324 88.992 115.039 88.992C116.095 88.992 116.938 89.2587 117.567 89.792C118.196 90.3147 118.543 91.024 118.607 91.92H116.463C116.431 91.568 116.282 91.2907 116.015 91.088C115.759 90.8747 115.412 90.768 114.975 90.768C114.57 90.768 114.255 90.8427 114.031 90.992C113.818 91.1413 113.711 91.3493 113.711 91.616C113.711 91.9147 113.86 92.144 114.159 92.304C114.458 92.4533 114.922 92.608 115.551 92.768C116.191 92.928 116.719 93.0933 117.135 93.264C117.551 93.4347 117.908 93.7013 118.207 94.064C118.516 94.416 118.676 94.8853 118.687 95.472C118.687 95.984 118.543 96.4427 118.255 96.848C117.978 97.2533 117.572 97.5733 117.039 97.808C116.516 98.032 115.903 98.144 115.199 98.144ZM124.59 90.976H123.038V98H120.766V90.976H119.758V89.136H120.766V88.688C120.766 87.6 121.075 86.8 121.694 86.288C122.313 85.776 123.246 85.536 124.494 85.568V87.456C123.95 87.4453 123.571 87.536 123.358 87.728C123.145 87.92 123.038 88.2667 123.038 88.768V89.136H124.59V90.976ZM134.282 93.376C134.282 93.696 134.26 93.984 134.218 94.24H127.738C127.791 94.88 128.015 95.3813 128.41 95.744C128.804 96.1067 129.29 96.288 129.866 96.288C130.698 96.288 131.29 95.9307 131.642 95.216H134.058C133.802 96.0693 133.311 96.7733 132.586 97.328C131.86 97.872 130.97 98.144 129.914 98.144C129.06 98.144 128.292 97.9573 127.61 97.584C126.938 97.2 126.41 96.6613 126.026 95.968C125.652 95.2747 125.465 94.4747 125.465 93.568C125.465 92.6507 125.652 91.8453 126.026 91.152C126.399 90.4587 126.922 89.9253 127.594 89.552C128.266 89.1787 129.039 88.992 129.914 88.992C130.756 88.992 131.508 89.1733 132.17 89.536C132.842 89.8987 133.359 90.416 133.722 91.088C134.095 91.7493 134.282 92.512 134.282 93.376ZM131.962 92.736C131.951 92.16 131.743 91.7013 131.338 91.36C130.932 91.008 130.436 90.832 129.85 90.832C129.295 90.832 128.826 91.0027 128.442 91.344C128.068 91.6747 127.839 92.1387 127.754 92.736H131.962ZM138.157 90.512C138.445 90.0427 138.818 89.6747 139.277 89.408C139.746 89.1413 140.279 89.008 140.877 89.008V91.36H140.285C139.581 91.36 139.047 91.5253 138.685 91.856C138.333 92.1867 138.157 92.7627 138.157 93.584V98H135.917V89.136H138.157V90.512Z" fill="black"/>
</svg>
