<svg width="170" height="114" viewBox="0 0 170 114" fill="none" xmlns="http://www.w3.org/2000/svg">
<rect width="170" height="114" rx="12" fill="#B5B5B5" fill-opacity="0.4"/>
<g clip-path="url(#clip0_1381_278)">
<path d="M113.114 54.4707C110.613 57.9776 112.4 55.4718 104.281 66.8598C104.281 66.8598 100.724 72.9939 94.6795 68.1047L57.0756 28.5902C57.0756 28.5902 54.5871 24.0561 58.7647 21.6121C75.595 14.9378 71.8509 16.4228 76.8119 14.4546C76.8119 14.4546 79.9228 13.3447 84.6338 19.0333C88.6129 23.8372 107.197 44.3575 112.888 50.6304C113.857 51.6983 113.951 53.2971 113.114 54.4707Z" fill="#52528C"/>
<path d="M111.188 57.172L104.281 66.86C104.281 66.86 100.724 72.9941 94.6795 68.1049L57.0756 28.5904C57.0756 28.5904 54.5871 24.0563 58.7647 21.6124L73.0772 15.9365C77.9358 25.72 90.5388 47.2917 111.188 57.172Z" fill="#404077"/>
<path d="M110.264 53.8812C108.687 56.0927 102.102 65.3288 102.094 65.3436C101.344 66.5821 99.6095 66.745 98.6319 65.6771L62.2843 25.9513C61.2571 24.8273 61.6721 23.0211 63.0888 22.4597L64.9561 21.7202L66.0496 22.6506C66.9597 23.4258 68.2402 23.6002 69.3247 23.0974L74.1172 20.8775C75.4246 20.2712 76.1445 18.8312 75.8178 17.4101L76.7877 17.0257C76.7877 17.0257 79.6555 16.0036 83.9974 21.2479C87.6697 25.6801 104.841 44.6399 110.06 50.3921C110.94 51.3621 111.025 52.8146 110.264 53.8812Z" fill="#BAEDFE"/>
<path d="M108.787 55.9525C101.918 65.5891 102.103 65.3274 102.094 65.3439C101.344 66.5825 99.6095 66.7454 98.6319 65.6774L62.2843 25.9516C61.2571 24.8276 61.6721 23.0214 63.0888 22.4601L64.9561 21.7205L66.0496 22.651C66.9597 23.4262 68.2402 23.6006 69.3247 23.0978L74.1172 20.8778C74.5563 20.6742 74.9267 20.3776 75.2144 20.0225C80.8801 30.3482 92.0128 46.9315 108.787 55.9525Z" fill="#9AE1FF"/>
<path d="M74.643 62.9633C71.6331 69.259 64.4611 71.9966 59.423 68.3934C55.4961 65.5791 54.283 59.6665 56.7881 54.426C59.2957 49.1842 64.6597 46.4156 69.3159 47.7076C75.312 49.375 77.6414 56.6943 74.643 62.9633Z" fill="#EDD15A"/>
<path d="M71.9495 61.6751C69.4432 66.9169 64.0779 69.6854 59.423 68.3934C55.4961 65.5791 54.283 59.6665 56.7881 54.4259C59.2957 49.1842 64.6597 46.4156 69.3159 47.7076C73.2428 50.5208 74.4559 56.4347 71.9495 61.6751Z" fill="#FAE26B"/>
<path d="M68.4881 60.4098C70.3832 56.4437 69.6433 52.1409 66.8355 50.7992C64.0276 49.4576 60.2152 51.5851 58.3201 55.5512C56.425 59.5173 57.1649 63.82 59.9727 65.1617C62.7805 66.5034 66.593 64.3758 68.4881 60.4098Z" fill="#EDD15A"/>
<path d="M108.591 45.6305C108.595 46.0773 108.505 46.519 108.325 46.9288C106.166 51.8358 101.868 56.2757 98.5875 59.1741C96.7647 60.7841 93.8811 59.8225 93.3953 57.4455C89.8452 40.1367 80.8675 31.9927 76.3105 28.8715C74.8365 27.8621 74.4954 25.8179 75.5671 24.3884C79.4724 19.1803 84.6696 14.3487 89.9025 10.594C91.2416 9.63425 93.0949 9.85828 94.1591 11.1159C107.628 27.0206 108.558 42.2764 108.591 45.6305Z" fill="#79E9B3"/>
<path d="M108.591 45.6305C108.595 46.0773 108.504 46.519 108.325 46.9288C106.166 51.8358 101.867 56.2757 98.5872 59.1741C97.2138 60.3872 95.237 60.1415 94.1385 58.9259C98.6929 38.7339 92.7243 19.8174 89.1895 11.1134C89.4389 10.9288 89.677 10.7557 89.9023 10.594C91.2414 9.63425 93.0947 9.85828 94.1588 11.1159C107.627 27.0206 108.558 42.2764 108.591 45.6305Z" fill="#14D2AA"/>
<path d="M104.753 45.9751C103.074 48.5311 100.912 50.793 99.1271 52.4452C98.2047 49.8987 94.7144 50.256 94.6733 50.2138C91.7061 39.7035 85.1444 32.3551 81.2798 28.7528C83.3037 26.1828 81.9456 23.5594 80.9985 22.2674C83.4489 19.1603 86.0939 16.7799 88.2069 15.1328C90.1412 16.5966 92.4542 16.7747 94.6771 15.2907C101.235 23.9973 104.461 33.9131 105.797 39.0378C104.734 40.1681 103.288 42.5014 104.753 45.9751Z" fill="#B4FFC6"/>
<path d="M104.753 45.9755C103.074 48.5314 100.912 50.7934 99.1271 52.4456C98.5365 50.815 96.8855 50.3339 95.4968 50.2346C96.7137 36.7406 93.8497 24.4635 91.1091 16.303C92.1491 16.3946 93.3634 16.168 94.6771 15.291C101.235 23.9976 104.461 33.9135 105.797 39.0382C104.734 40.1685 103.288 42.5017 104.753 45.9755Z" fill="#79E9B3"/>
<path d="M111.314 29.468C107.031 32.885 100.329 30.813 97.4876 24.8703C94.765 19.1767 97.0295 12.9927 101.878 11.4171C106.091 10.0284 111.067 12.4927 113.357 17.2813C115.519 21.8039 114.566 26.8893 111.314 29.468Z" fill="#EDD15A"/>
<path d="M111.314 29.468C107.1 30.8555 102.127 28.3886 99.8373 23.6012C97.6759 19.0799 98.628 13.996 101.878 11.4171C106.091 10.0284 111.067 12.4927 113.357 17.2813C115.519 21.8039 114.566 26.8893 111.314 29.468Z" fill="#FAE26B"/>
<path d="M110.504 26.8585C113 25.6661 113.657 21.842 111.973 18.3171C110.289 14.7922 106.9 12.9014 104.405 14.0938C101.909 15.2863 101.252 19.1104 102.936 22.6353C104.62 26.1602 108.009 28.051 110.504 26.8585Z" fill="#EDD15A"/>
</g>
<path d="M41.8972 86.832V98H39.6572V90.736L36.6652 98H34.9692L31.9612 90.736V98H29.7212V86.832H32.2652L35.8172 95.136L39.3692 86.832H41.8972ZM48.0478 98.144C47.1945 98.144 46.4265 97.9573 45.7438 97.584C45.0611 97.2 44.5225 96.6613 44.1278 95.968C43.7438 95.2747 43.5518 94.4747 43.5518 93.568C43.5518 92.6613 43.7491 91.8613 44.1438 91.168C44.5491 90.4747 45.0985 89.9413 45.7918 89.568C46.4851 89.184 47.2585 88.992 48.1118 88.992C48.9651 88.992 49.7385 89.184 50.4318 89.568C51.1251 89.9413 51.6691 90.4747 52.0638 91.168C52.4691 91.8613 52.6718 92.6613 52.6718 93.568C52.6718 94.4747 52.4638 95.2747 52.0478 95.968C51.6425 96.6613 51.0878 97.2 50.3838 97.584C49.6905 97.9573 48.9118 98.144 48.0478 98.144ZM48.0478 96.192C48.4531 96.192 48.8318 96.096 49.1838 95.904C49.5465 95.7013 49.8345 95.4027 50.0478 95.008C50.2611 94.6133 50.3678 94.1333 50.3678 93.568C50.3678 92.7253 50.1438 92.08 49.6958 91.632C49.2585 91.1733 48.7198 90.944 48.0798 90.944C47.4398 90.944 46.9011 91.1733 46.4638 91.632C46.0371 92.08 45.8238 92.7253 45.8238 93.568C45.8238 94.4107 46.0318 95.0613 46.4478 95.52C46.8745 95.968 47.4078 96.192 48.0478 96.192ZM56.5549 90.432C56.8429 90.0053 57.2376 89.6587 57.7389 89.392C58.2509 89.1253 58.8323 88.992 59.4829 88.992C60.2403 88.992 60.9229 89.1787 61.5309 89.552C62.1496 89.9253 62.6349 90.4587 62.9869 91.152C63.3496 91.8347 63.5309 92.6293 63.5309 93.536C63.5309 94.4427 63.3496 95.248 62.9869 95.952C62.6349 96.6453 62.1496 97.184 61.5309 97.568C60.9229 97.952 60.2403 98.144 59.4829 98.144C58.8216 98.144 58.2403 98.016 57.7389 97.76C57.2483 97.4933 56.8536 97.152 56.5549 96.736V98H54.3149V86.16H56.5549V90.432ZM61.2429 93.536C61.2429 93.0027 61.1309 92.544 60.9069 92.16C60.6936 91.7653 60.4056 91.4667 60.0429 91.264C59.6909 91.0613 59.3069 90.96 58.8909 90.96C58.4856 90.96 58.1016 91.0667 57.7389 91.28C57.3869 91.4827 57.0989 91.7813 56.8749 92.176C56.6616 92.5707 56.5549 93.0347 56.5549 93.568C56.5549 94.1013 56.6616 94.5653 56.8749 94.96C57.0989 95.3547 57.3869 95.6587 57.7389 95.872C58.1016 96.0747 58.4856 96.176 58.8909 96.176C59.3069 96.176 59.6909 96.0693 60.0429 95.856C60.4056 95.6427 60.6936 95.3387 60.9069 94.944C61.1309 94.5493 61.2429 94.08 61.2429 93.536ZM66.2947 88.08C65.9 88.08 65.5694 87.9573 65.3027 87.712C65.0467 87.456 64.9187 87.1413 64.9187 86.768C64.9187 86.3947 65.0467 86.0853 65.3027 85.84C65.5694 85.584 65.9 85.456 66.2947 85.456C66.6894 85.456 67.0147 85.584 67.2707 85.84C67.5374 86.0853 67.6707 86.3947 67.6707 86.768C67.6707 87.1413 67.5374 87.456 67.2707 87.712C67.0147 87.9573 66.6894 88.08 66.2947 88.08ZM67.3987 89.136V98H65.1587V89.136H67.3987ZM71.8518 86.16V98H69.6118V86.16H71.8518ZM82.3049 93.376C82.3049 93.696 82.2836 93.984 82.2409 94.24H75.7609C75.8143 94.88 76.0383 95.3813 76.4329 95.744C76.8276 96.1067 77.3129 96.288 77.8889 96.288C78.7209 96.288 79.3129 95.9307 79.6649 95.216H82.0809C81.8249 96.0693 81.3343 96.7733 80.6089 97.328C79.8836 97.872 78.9929 98.144 77.9369 98.144C77.0836 98.144 76.3156 97.9573 75.6329 97.584C74.9609 97.2 74.4329 96.6613 74.0489 95.968C73.6756 95.2747 73.4889 94.4747 73.4889 93.568C73.4889 92.6507 73.6756 91.8453 74.0489 91.152C74.4223 90.4587 74.9449 89.9253 75.6169 89.552C76.2889 89.1787 77.0623 88.992 77.9369 88.992C78.7796 88.992 79.5316 89.1733 80.1929 89.536C80.8649 89.8987 81.3823 90.416 81.7449 91.088C82.1183 91.7493 82.3049 92.512 82.3049 93.376ZM79.9849 92.736C79.9743 92.16 79.7663 91.7013 79.3609 91.36C78.9556 91.008 78.4596 90.832 77.8729 90.832C77.3183 90.832 76.8489 91.0027 76.4649 91.344C76.0916 91.6747 75.8623 92.1387 75.7769 92.736H79.9849ZM99.9284 86.832V98H97.6884V90.736L94.6964 98H93.0004L89.9924 90.736V98H87.7524V86.832H90.2964L93.8484 95.136L97.4004 86.832H99.9284ZM106.079 98.144C105.226 98.144 104.458 97.9573 103.775 97.584C103.092 97.2 102.554 96.6613 102.159 95.968C101.775 95.2747 101.583 94.4747 101.583 93.568C101.583 92.6613 101.78 91.8613 102.175 91.168C102.58 90.4747 103.13 89.9413 103.823 89.568C104.516 89.184 105.29 88.992 106.143 88.992C106.996 88.992 107.77 89.184 108.463 89.568C109.156 89.9413 109.7 90.4747 110.095 91.168C110.5 91.8613 110.703 92.6613 110.703 93.568C110.703 94.4747 110.495 95.2747 110.079 95.968C109.674 96.6613 109.119 97.2 108.415 97.584C107.722 97.9573 106.943 98.144 106.079 98.144ZM106.079 96.192C106.484 96.192 106.863 96.096 107.215 95.904C107.578 95.7013 107.866 95.4027 108.079 95.008C108.292 94.6133 108.399 94.1333 108.399 93.568C108.399 92.7253 108.175 92.08 107.727 91.632C107.29 91.1733 106.751 90.944 106.111 90.944C105.471 90.944 104.932 91.1733 104.495 91.632C104.068 92.08 103.855 92.7253 103.855 93.568C103.855 94.4107 104.063 95.0613 104.479 95.52C104.906 95.968 105.439 96.192 106.079 96.192ZM117.258 89.008C118.314 89.008 119.168 89.344 119.818 90.016C120.469 90.6773 120.794 91.6053 120.794 92.8V98H118.554V93.104C118.554 92.4 118.378 91.8613 118.026 91.488C117.674 91.104 117.194 90.912 116.586 90.912C115.968 90.912 115.477 91.104 115.114 91.488C114.762 91.8613 114.586 92.4 114.586 93.104V98H112.346V89.136H114.586V90.24C114.885 89.856 115.264 89.5573 115.722 89.344C116.192 89.12 116.704 89.008 117.258 89.008ZM131.164 93.376C131.164 93.696 131.143 93.984 131.1 94.24H124.62C124.674 94.88 124.898 95.3813 125.292 95.744C125.687 96.1067 126.172 96.288 126.748 96.288C127.58 96.288 128.172 95.9307 128.524 95.216H130.94C130.684 96.0693 130.194 96.7733 129.468 97.328C128.743 97.872 127.852 98.144 126.796 98.144C125.943 98.144 125.175 97.9573 124.492 97.584C123.82 97.2 123.292 96.6613 122.908 95.968C122.535 95.2747 122.348 94.4747 122.348 93.568C122.348 92.6507 122.535 91.8453 122.908 91.152C123.282 90.4587 123.804 89.9253 124.476 89.552C125.148 89.1787 125.922 88.992 126.796 88.992C127.639 88.992 128.391 89.1733 129.052 89.536C129.724 89.8987 130.242 90.416 130.604 91.088C130.978 91.7493 131.164 92.512 131.164 93.376ZM128.844 92.736C128.834 92.16 128.626 91.7013 128.22 91.36C127.815 91.008 127.319 90.832 126.732 90.832C126.178 90.832 125.708 91.0027 125.324 91.344C124.951 91.6747 124.722 92.1387 124.636 92.736H128.844ZM141.279 89.136L135.791 102.192H133.407L135.327 97.776L131.775 89.136H134.287L136.575 95.328L138.895 89.136H141.279Z" fill="black"/>
<defs>
<clipPath id="clip0_1381_278">
<rect width="60" height="60" fill="white" transform="translate(55 10)"/>
</clipPath>
</defs>
</svg>
