<svg width="170" height="114" viewBox="0 0 170 114" fill="none" xmlns="http://www.w3.org/2000/svg">
<rect width="170" height="114" rx="12" fill="#B5B5B5" fill-opacity="0.4"/>
<g clip-path="url(#clip0_1390_25)">
<path d="M105.259 25.5016C105.361 24.676 105.414 23.8354 105.414 22.9824C105.414 15.8125 99.6013 10 92.4313 10H70.7349C69.3702 10 68.205 10.9855 67.9786 12.3313L59.984 59.8479C59.6972 61.553 61.0115 63.1068 62.7404 63.1068H70.6753C72.04 63.1068 73.2271 62.122 73.4534 60.7761C73.4534 60.7761 73.4667 60.6972 73.4906 60.5552H73.4907L72.3849 67.1277C72.1323 68.6304 73.2907 70 74.8145 70H81.7563C82.9592 70 83.9862 69.1313 84.1857 67.9451L86.1579 56.224C86.4978 54.2035 88.2471 52.724 90.2959 52.724H92.1195C102.025 52.724 110.056 44.6937 110.056 34.788C110.056 30.9549 108.161 27.5666 105.259 25.5016Z" fill="#002987"/>
<path d="M105.259 25.502C104.018 35.6011 95.4101 43.4211 84.9755 43.4211H78.921C77.5545 43.4211 76.3743 44.3313 76.0041 45.6182L72.3851 67.1279C72.1323 68.6307 73.2907 70.0004 74.8145 70.0004H81.7563C82.9593 70.0004 83.9863 69.1317 84.1858 67.9455L86.1579 56.2244C86.4979 54.2039 88.2471 52.7244 90.2959 52.7244H92.1196C102.025 52.7244 110.056 44.6941 110.056 34.7884C110.056 30.9553 108.161 27.567 105.259 25.502Z" fill="#0085CC"/>
<path d="M78.9209 43.4204H84.9754C95.4102 43.4204 104.018 35.6003 105.259 25.5013C103.397 24.1764 101.122 23.3945 98.6625 23.3945H82.8597C81.0605 23.3945 79.5243 24.6938 79.2257 26.468L76.0039 45.6174C76.3741 44.3304 77.5544 43.4204 78.9209 43.4204Z" fill="#00186A"/>
</g>
<path d="M66.5996 90.288C66.5996 90.8853 66.4556 91.4453 66.1676 91.968C65.8902 92.4907 65.4476 92.912 64.8396 93.232C64.2422 93.552 63.4849 93.712 62.5676 93.712H60.6956V98H58.4556V86.832H62.5676C63.4316 86.832 64.1676 86.9813 64.7756 87.28C65.3836 87.5787 65.8369 87.9893 66.1356 88.512C66.4449 89.0347 66.5996 89.6267 66.5996 90.288ZM62.4716 91.904C63.0902 91.904 63.5489 91.7653 63.8476 91.488C64.1462 91.2 64.2956 90.8 64.2956 90.288C64.2956 89.2 63.6876 88.656 62.4716 88.656H60.6956V91.904H62.4716ZM67.6139 93.536C67.6139 92.64 67.7899 91.8453 68.1419 91.152C68.5046 90.4587 68.9899 89.9253 69.5979 89.552C70.2166 89.1787 70.9046 88.992 71.6619 88.992C72.3233 88.992 72.8993 89.1253 73.3899 89.392C73.8913 89.6587 74.2913 89.9947 74.5899 90.4V89.136H76.8459V98H74.5899V96.704C74.3019 97.12 73.9019 97.4667 73.3899 97.744C72.8886 98.0107 72.3073 98.144 71.6459 98.144C70.8993 98.144 70.2166 97.952 69.5979 97.568C68.9899 97.184 68.5046 96.6453 68.1419 95.952C67.7899 95.248 67.6139 94.4427 67.6139 93.536ZM74.5899 93.568C74.5899 93.024 74.4833 92.56 74.2699 92.176C74.0566 91.7813 73.7686 91.4827 73.4059 91.28C73.0433 91.0667 72.6539 90.96 72.2379 90.96C71.8219 90.96 71.4379 91.0613 71.0859 91.264C70.7339 91.4667 70.4459 91.7653 70.2219 92.16C70.0086 92.544 69.9019 93.0027 69.9019 93.536C69.9019 94.0693 70.0086 94.5387 70.2219 94.944C70.4459 95.3387 70.7339 95.6427 71.0859 95.856C71.4486 96.0693 71.8326 96.176 72.2379 96.176C72.6539 96.176 73.0433 96.0747 73.4059 95.872C73.7686 95.6587 74.0566 95.36 74.2699 94.976C74.4833 94.5813 74.5899 94.112 74.5899 93.568ZM87.5137 89.136L82.0257 102.192H79.6417L81.5617 97.776L78.0097 89.136H80.5217L82.8097 95.328L85.1297 89.136H87.5137ZM96.8652 90.288C96.8652 90.8853 96.7212 91.4453 96.4332 91.968C96.1559 92.4907 95.7132 92.912 95.1052 93.232C94.5079 93.552 93.7505 93.712 92.8332 93.712H90.9612V98H88.7212V86.832H92.8332C93.6972 86.832 94.4332 86.9813 95.0412 87.28C95.6492 87.5787 96.1025 87.9893 96.4012 88.512C96.7105 89.0347 96.8652 89.6267 96.8652 90.288ZM92.7372 91.904C93.3559 91.904 93.8145 91.7653 94.1132 91.488C94.4119 91.2 94.5612 90.8 94.5612 90.288C94.5612 89.2 93.9532 88.656 92.7372 88.656H90.9612V91.904H92.7372ZM97.8796 93.536C97.8796 92.64 98.0556 91.8453 98.4076 91.152C98.7702 90.4587 99.2556 89.9253 99.8636 89.552C100.482 89.1787 101.17 88.992 101.928 88.992C102.589 88.992 103.165 89.1253 103.656 89.392C104.157 89.6587 104.557 89.9947 104.856 90.4V89.136H107.112V98H104.856V96.704C104.568 97.12 104.168 97.4667 103.656 97.744C103.154 98.0107 102.573 98.144 101.912 98.144C101.165 98.144 100.482 97.952 99.8636 97.568C99.2556 97.184 98.7702 96.6453 98.4076 95.952C98.0556 95.248 97.8796 94.4427 97.8796 93.536ZM104.856 93.568C104.856 93.024 104.749 92.56 104.536 92.176C104.322 91.7813 104.034 91.4827 103.672 91.28C103.309 91.0667 102.92 90.96 102.504 90.96C102.088 90.96 101.704 91.0613 101.352 91.264C101 91.4667 100.712 91.7653 100.488 92.16C100.274 92.544 100.168 93.0027 100.168 93.536C100.168 94.0693 100.274 94.5387 100.488 94.944C100.712 95.3387 101 95.6427 101.352 95.856C101.714 96.0693 102.098 96.176 102.504 96.176C102.92 96.176 103.309 96.0747 103.672 95.872C104.034 95.6587 104.322 95.36 104.536 94.976C104.749 94.5813 104.856 94.112 104.856 93.568ZM111.539 86.16V98H109.299V86.16H111.539Z" fill="black"/>
<defs>
<clipPath id="clip0_1390_25">
<rect width="60" height="60" fill="white" transform="translate(55 10)"/>
</clipPath>
</defs>
</svg>
