<svg width="170" height="114" viewBox="0 0 170 114" fill="none" xmlns="http://www.w3.org/2000/svg">
<rect width="170" height="114" rx="12" fill="#B5B5B5" fill-opacity="0.4"/>
<path d="M99.471 37.1758H85.314V42.9808L93.4673 42.9826C93.1367 44.914 92.0724 46.5605 90.4417 47.6582V47.6593C90.4422 47.6589 90.443 47.6586 90.4435 47.6582L90.2967 51.1278L95.2969 51.4227C95.2961 51.4232 95.2954 51.4239 95.2949 51.4245C98.1287 48.8017 99.7526 44.9246 99.7526 40.344C99.7524 39.2427 99.6539 38.189 99.471 37.1758Z" fill="#0085F7"/>
<path d="M90.4434 47.6581C90.4429 47.6584 90.4421 47.6588 90.4416 47.6592C89.0909 48.5696 87.3517 49.1022 85.3174 49.1022C81.3859 49.1022 78.0507 46.4531 76.8563 42.8822H76.8558C76.856 42.8827 76.8561 42.8834 76.8563 42.884L72.682 42.2229L71.8508 46.7674C74.3314 51.6887 79.4287 55.0655 85.3176 55.0655C89.387 55.0655 92.8059 53.7276 95.295 51.4242C95.2957 51.4236 95.2964 51.4231 95.2969 51.4224L90.4434 47.6581Z" fill="#00A94B"/>
<path d="M76.3848 40.0009C76.3848 38.9982 76.5519 38.029 76.8563 37.1178L75.5528 33.2336H71.8498C70.8244 35.269 70.2474 37.5663 70.2474 40.0009C70.2474 42.4354 70.8261 44.7327 71.8498 46.7681L71.8505 46.7675L76.8563 42.8839C76.8561 42.8834 76.8559 42.8829 76.8557 42.8821C76.5517 41.9717 76.3848 41.003 76.3848 40.0009Z" fill="#FFBB00"/>
<path d="M85.3174 24.9343C79.4298 24.9343 74.3303 28.3117 71.8499 33.2337L76.8561 37.1179C78.0505 33.5469 81.3857 30.8978 85.3173 30.8978C87.5389 30.8978 89.5286 31.6631 91.0994 33.1583L95.4004 28.8609C92.7883 26.4277 89.3827 24.9343 85.3174 24.9343Z" fill="#FF4031"/>
<path d="M47.9113 75.2577C47.6553 74.7883 47.3033 74.431 46.8553 74.1857C46.4073 73.9403 45.8846 73.8177 45.2873 73.8177C44.6259 73.8177 44.0393 73.967 43.5273 74.2657C43.0153 74.5643 42.6153 74.991 42.3273 75.5457C42.0393 76.1003 41.8953 76.7403 41.8953 77.4657C41.8953 78.2123 42.0393 78.863 42.3273 79.4177C42.6259 79.9723 43.0366 80.399 43.5593 80.6977C44.0819 80.9963 44.6899 81.1457 45.3833 81.1457C46.2366 81.1457 46.9353 80.9217 47.4792 80.4737C48.0233 80.015 48.3806 79.3803 48.5513 78.5697H44.7113V76.8577H50.7593V78.8097C50.6099 79.5883 50.2899 80.3083 49.7993 80.9697C49.3086 81.631 48.6739 82.1643 47.8953 82.5697C47.1273 82.9643 46.2633 83.1617 45.3033 83.1617C44.2259 83.1617 43.2499 82.9217 42.3753 82.4417C41.5113 81.951 40.8286 81.2737 40.3273 80.4097C39.8366 79.5457 39.5913 78.5643 39.5913 77.4657C39.5913 76.367 39.8366 75.3857 40.3273 74.5217C40.8286 73.647 41.5113 72.9697 42.3753 72.4897C43.2499 71.999 44.2206 71.7537 45.2873 71.7537C46.5459 71.7537 47.6393 72.063 48.5673 72.6817C49.4953 73.2897 50.1353 74.1483 50.4873 75.2577H47.9113ZM56.3525 83.2097C55.4992 83.2097 54.7312 83.023 54.0485 82.6497C53.3658 82.2657 52.8272 81.727 52.4325 81.0337C52.0485 80.3403 51.8565 79.5403 51.8565 78.6337C51.8565 77.727 52.0538 76.927 52.4485 76.2337C52.8538 75.5403 53.4032 75.007 54.0965 74.6337C54.7898 74.2497 55.5632 74.0577 56.4165 74.0577C57.2698 74.0577 58.0432 74.2497 58.7365 74.6337C59.4298 75.007 59.9738 75.5403 60.3685 76.2337C60.7738 76.927 60.9765 77.727 60.9765 78.6337C60.9765 79.5403 60.7685 80.3403 60.3525 81.0337C59.9472 81.727 59.3925 82.2657 58.6885 82.6497C57.9952 83.023 57.2165 83.2097 56.3525 83.2097ZM56.3525 81.2577C56.7578 81.2577 57.1365 81.1617 57.4885 80.9697C57.8512 80.767 58.1392 80.4683 58.3525 80.0737C58.5658 79.679 58.6725 79.199 58.6725 78.6337C58.6725 77.791 58.4485 77.1457 58.0005 76.6977C57.5632 76.239 57.0245 76.0097 56.3845 76.0097C55.7445 76.0097 55.2058 76.239 54.7685 76.6977C54.3418 77.1457 54.1285 77.791 54.1285 78.6337C54.1285 79.4763 54.3365 80.127 54.7525 80.5857C55.1792 81.0337 55.7125 81.2577 56.3525 81.2577ZM66.5556 83.2097C65.7023 83.2097 64.9343 83.023 64.2516 82.6497C63.569 82.2657 63.0303 81.727 62.6356 81.0337C62.2516 80.3403 62.0596 79.5403 62.0596 78.6337C62.0596 77.727 62.257 76.927 62.6516 76.2337C63.057 75.5403 63.6063 75.007 64.2996 74.6337C64.993 74.2497 65.7663 74.0577 66.6196 74.0577C67.473 74.0577 68.2463 74.2497 68.9396 74.6337C69.633 75.007 70.177 75.5403 70.5716 76.2337C70.977 76.927 71.1796 77.727 71.1796 78.6337C71.1796 79.5403 70.9716 80.3403 70.5556 81.0337C70.1503 81.727 69.5956 82.2657 68.8916 82.6497C68.1983 83.023 67.4196 83.2097 66.5556 83.2097ZM66.5556 81.2577C66.961 81.2577 67.3396 81.1617 67.6916 80.9697C68.0543 80.767 68.3423 80.4683 68.5556 80.0737C68.769 79.679 68.8756 79.199 68.8756 78.6337C68.8756 77.791 68.6516 77.1457 68.2036 76.6977C67.7663 76.239 67.2276 76.0097 66.5876 76.0097C65.9476 76.0097 65.409 76.239 64.9716 76.6977C64.545 77.1457 64.3316 77.791 64.3316 78.6337C64.3316 79.4763 64.5396 80.127 64.9556 80.5857C65.3823 81.0337 65.9156 81.2577 66.5556 81.2577ZM76.2948 74.0577C76.9561 74.0577 77.5374 74.191 78.0388 74.4577C78.5401 74.7137 78.9348 75.0497 79.2228 75.4657V74.2017H81.4788V83.1297C81.4788 83.951 81.3134 84.6817 80.9828 85.3217C80.6521 85.9723 80.1561 86.4843 79.4948 86.8577C78.8334 87.2417 78.0334 87.4337 77.0948 87.4337C75.8361 87.4337 74.8014 87.1403 73.9908 86.5537C73.1908 85.967 72.7374 85.167 72.6308 84.1537H74.8548C74.9721 84.559 75.2228 84.879 75.6068 85.1137C76.0014 85.359 76.4761 85.4817 77.0308 85.4817C77.6814 85.4817 78.2094 85.2843 78.6148 84.8897C79.0201 84.5057 79.2228 83.919 79.2228 83.1297V81.7537C78.9348 82.1697 78.5348 82.5163 78.0228 82.7937C77.5214 83.071 76.9454 83.2097 76.2948 83.2097C75.5481 83.2097 74.8654 83.0177 74.2468 82.6337C73.6281 82.2497 73.1374 81.711 72.7747 81.0177C72.4227 80.3137 72.2467 79.5083 72.2467 78.6017C72.2467 77.7057 72.4227 76.911 72.7747 76.2177C73.1374 75.5243 73.6228 74.991 74.2308 74.6177C74.8494 74.2443 75.5374 74.0577 76.2948 74.0577ZM79.2228 78.6337C79.2228 78.0897 79.1161 77.6257 78.9028 77.2417C78.6894 76.847 78.4014 76.5483 78.0388 76.3457C77.6761 76.1323 77.2868 76.0257 76.8708 76.0257C76.4548 76.0257 76.0708 76.127 75.7188 76.3297C75.3668 76.5323 75.0788 76.831 74.8548 77.2257C74.6414 77.6097 74.5348 78.0683 74.5348 78.6017C74.5348 79.135 74.6414 79.6043 74.8548 80.0097C75.0788 80.4043 75.3668 80.7083 75.7188 80.9217C76.0814 81.135 76.4654 81.2417 76.8708 81.2417C77.2868 81.2417 77.6761 81.1403 78.0388 80.9377C78.4014 80.7243 78.6894 80.4257 78.9028 80.0417C79.1161 79.647 79.2228 79.1777 79.2228 78.6337ZM85.9065 71.2257V83.0657H83.6665V71.2257H85.9065ZM96.3596 78.4417C96.3596 78.7617 96.3383 79.0497 96.2956 79.3057H89.8156C89.869 79.9457 90.093 80.447 90.4876 80.8097C90.8823 81.1723 91.3676 81.3537 91.9436 81.3537C92.7756 81.3537 93.3676 80.9963 93.7196 80.2817H96.1356C95.8796 81.135 95.389 81.839 94.6636 82.3937C93.9383 82.9377 93.0476 83.2097 91.9916 83.2097C91.1383 83.2097 90.3703 83.023 89.6876 82.6497C89.0156 82.2657 88.4876 81.727 88.1036 81.0337C87.7303 80.3403 87.5436 79.5403 87.5436 78.6337C87.5436 77.7163 87.7303 76.911 88.1036 76.2177C88.477 75.5243 88.9996 74.991 89.6716 74.6177C90.3436 74.2443 91.117 74.0577 91.9916 74.0577C92.8343 74.0577 93.5863 74.239 94.2476 74.6017C94.9196 74.9643 95.437 75.4817 95.7996 76.1537C96.173 76.815 96.3596 77.5777 96.3596 78.4417ZM94.0396 77.8017C94.029 77.2257 93.821 76.767 93.4156 76.4257C93.0103 76.0737 92.5143 75.8977 91.9276 75.8977C91.373 75.8977 90.9036 76.0683 90.5196 76.4097C90.1463 76.7403 89.917 77.2043 89.8316 77.8017H94.0396ZM109.951 75.3537C109.951 75.951 109.807 76.511 109.519 77.0337C109.242 77.5563 108.799 77.9777 108.191 78.2977C107.594 78.6177 106.836 78.7777 105.919 78.7777H104.047V83.0657H101.807V71.8977H105.919C106.783 71.8977 107.519 72.047 108.127 72.3457C108.735 72.6443 109.188 73.055 109.487 73.5777C109.796 74.1003 109.951 74.6923 109.951 75.3537ZM105.823 76.9697C106.442 76.9697 106.9 76.831 107.199 76.5537C107.498 76.2657 107.647 75.8657 107.647 75.3537C107.647 74.2657 107.039 73.7217 105.823 73.7217H104.047V76.9697H105.823ZM110.965 78.6017C110.965 77.7057 111.141 76.911 111.493 76.2177C111.856 75.5243 112.342 74.991 112.95 74.6177C113.568 74.2443 114.256 74.0577 115.014 74.0577C115.675 74.0577 116.251 74.191 116.742 74.4577C117.243 74.7243 117.643 75.0603 117.942 75.4657V74.2017H120.198V83.0657H117.942V81.7697C117.654 82.1857 117.254 82.5323 116.742 82.8097C116.24 83.0763 115.659 83.2097 114.998 83.2097C114.251 83.2097 113.568 83.0177 112.95 82.6337C112.342 82.2497 111.856 81.711 111.493 81.0177C111.141 80.3137 110.965 79.5083 110.965 78.6017ZM117.942 78.6337C117.942 78.0897 117.835 77.6257 117.622 77.2417C117.408 76.847 117.12 76.5483 116.758 76.3457C116.395 76.1323 116.006 76.0257 115.59 76.0257C115.174 76.0257 114.79 76.127 114.438 76.3297C114.086 76.5323 113.798 76.831 113.574 77.2257C113.36 77.6097 113.254 78.0683 113.254 78.6017C113.254 79.135 113.36 79.6043 113.574 80.0097C113.798 80.4043 114.086 80.7083 114.438 80.9217C114.8 81.135 115.184 81.2417 115.59 81.2417C116.006 81.2417 116.395 81.1403 116.758 80.9377C117.12 80.7243 117.408 80.4257 117.622 80.0417C117.835 79.647 117.942 79.1777 117.942 78.6337ZM130.865 74.2017L125.377 87.2577H122.993L124.913 82.8417L121.361 74.2017H123.873L126.161 80.3937L128.481 74.2017H130.865Z" fill="black"/>
</svg>
