<svg width="170" height="114" viewBox="0 0 170 114" fill="none" xmlns="http://www.w3.org/2000/svg">
<rect width="170" height="114" rx="12" fill="#B5B5B5" fill-opacity="0.4"/>
<g clip-path="url(#clip0_1470_320)">
<path d="M108 40C108 42.5553 107.583 45.014 106.813 47.3112C103.759 56.4295 95.1463 63 85 63C74.8678 63 66.2658 56.4483 63.1988 47.3497C62.4215 45.0412 62 42.5703 62 40C62 38.2736 62.1906 36.5913 62.5511 34.9729C64.8445 24.6877 74.0239 17 85 17C96.2071 17 105.542 25.0152 107.585 35.6262C107.857 37.0419 108 38.5046 108 40Z" fill="#F0EFEB"/>
<path d="M108 39.9999C108 42.5553 107.583 45.0139 106.813 47.3111C106.623 47.3111 106.431 47.3102 106.24 47.3084C105.726 47.3037 105.601 47.1807 105.6 46.6559C105.594 44.0592 105.595 41.4626 105.589 38.8669C105.588 38.1769 105.318 37.8981 104.675 37.9009C104.035 37.9037 103.758 38.19 103.757 38.8688C103.755 41.4203 103.757 43.971 103.758 46.5217C103.758 47.2436 103.641 47.3562 102.905 47.3516C102.404 47.3488 101.904 47.3516 101.402 47.3488C100.836 47.346 100.7 47.2032 100.699 46.6006C100.695 44.0349 100.695 41.4682 100.692 38.9026C100.691 38.2257 100.429 37.9244 99.8467 37.9075C99.1567 37.8887 98.8544 38.1872 98.8544 38.8979C98.8525 41.4646 98.8535 44.0302 98.8535 46.5959C98.8535 47.2136 98.7643 47.3028 98.14 47.3066C97.5636 47.3093 96.9863 47.3047 96.4099 47.3103C96.0175 47.3141 95.825 47.1489 95.826 46.7377C95.8298 43.0022 95.8298 39.2678 95.8232 35.5324C95.8223 35.1297 96.0081 34.9353 96.3921 34.9298C97.0296 34.9203 97.667 34.9326 98.3045 34.926C98.7062 34.9213 98.8405 35.1813 98.8921 35.5559C99.8919 34.8302 100.938 34.6631 102.068 35.0537C102.405 35.1701 102.699 35.356 102.959 35.5869C103.142 35.7493 103.256 35.7483 103.456 35.5934C104.814 34.5392 106.483 34.635 107.585 35.6263C107.857 37.0418 108 38.5045 108 39.9999Z" fill="#00B8F8"/>
<path d="M78.0333 41.919H78.0276C78.0276 40.6141 78.0276 39.3092 78.0267 38.0043C78.0258 37.8982 78.0107 37.7922 78.0014 37.687C77.8727 36.2038 77.0805 35.3072 75.616 35.0725C74.3214 34.866 73.0118 35.0115 71.7087 34.9881C71.3726 34.9815 71.2412 35.2153 71.2441 35.5363C71.2487 36.0676 71.245 36.599 71.246 37.1294C71.2478 37.7246 71.3698 37.8523 71.9632 37.8561C72.7517 37.8617 73.5413 37.8495 74.3298 37.8589C74.773 37.8635 74.9682 38.0597 74.9532 38.4541C74.9391 38.8484 74.7316 39.0192 74.3373 39.007C73.898 38.9929 73.4567 38.9948 73.0174 39.0061C71.3023 39.0502 70.0903 40.203 70.035 41.8637C70.0086 42.6664 70.0181 43.4718 70.0256 44.2754C70.0425 46.2046 71.1221 47.2814 73.0559 47.2945C74.2397 47.303 75.4226 47.2992 76.6064 47.2945C77.5817 47.2907 78.0239 46.8571 78.0315 45.8789C78.0408 44.5588 78.0333 43.2389 78.0333 41.919ZM74.4058 44.5653C73.132 44.6244 73.1037 44.602 73.1037 43.3299C73.1037 43.0567 73.1019 42.7836 73.1046 42.5103C73.1065 42.4052 73.0896 42.2841 73.1338 42.1968C73.4416 41.5838 74.0124 41.886 74.4724 41.8513C74.8113 41.825 74.9812 42.0691 74.9756 42.4165C74.9719 42.6737 74.9747 42.9318 74.9747 43.19C74.9756 43.4481 74.972 43.7063 74.9766 43.9636C74.9832 44.3541 74.8039 44.5466 74.4058 44.5653Z" fill="#002875"/>
<path d="M87.0974 40.0559C87.0968 41.4223 87.1049 42.7888 87.095 44.1551C87.0806 46.133 85.8466 47.3536 83.865 47.3613C82.8326 47.3654 81.8003 47.3649 80.7679 47.3616C80.2048 47.3598 80.0781 47.2291 80.0758 46.6604C80.0736 46.0835 80.0869 45.5062 80.0732 44.9297C80.0631 44.504 80.2609 44.3163 80.6734 44.315C81.5843 44.3122 82.4951 44.3018 83.406 44.3023C83.7579 44.3025 84.0768 44.2354 84.0763 43.812C84.0757 43.3873 83.7533 43.3274 83.4031 43.3224C82.7373 43.3126 82.0662 43.3774 81.4093 43.2104C80.1233 42.8837 79.2181 41.8701 79.1741 40.5495C79.1179 38.866 79.1485 37.1797 79.146 35.4946C79.1456 35.1428 79.3304 34.9691 79.6874 34.9715C80.3099 34.9758 80.9324 34.9683 81.5548 34.974C82.0399 34.9784 82.1788 35.1144 82.1808 35.5987C82.1862 36.8891 82.183 38.1796 82.185 39.4702C82.186 40.151 82.3047 40.2717 82.9649 40.2757C84.0404 40.2822 84.0629 40.2591 84.0624 39.1927C84.0617 38.0086 84.0599 36.8243 84.0646 35.6401C84.0669 35.0833 84.1764 34.9779 84.7353 34.9737C85.2818 34.9695 85.8284 34.9703 86.375 34.9724C86.9862 34.9746 87.0968 35.0821 87.0977 35.6833C87.0992 37.141 87.0978 38.5985 87.0974 40.0559Z" fill="#002875"/>
<path d="M69.2737 37.8709C69.2446 36.0515 68.1424 34.9832 66.3109 34.9738C65.0577 34.9681 63.8034 34.971 62.5511 34.9729C62.1906 36.5913 62 38.2736 62 40C62 42.5703 62.4215 45.0412 63.1988 47.3497C63.3602 47.3497 63.5208 47.3488 63.6813 47.3478C64.2493 47.345 64.392 47.2107 64.3948 46.6625C64.3995 45.7819 64.4089 44.9013 64.3948 44.0208C64.3901 43.7467 64.4623 43.6519 64.7487 43.6603C65.3701 43.68 65.9935 43.68 66.615 43.6566C68.0739 43.6002 69.1553 42.5977 69.2417 41.1481C69.3074 40.0591 69.2906 38.9636 69.2737 37.8709ZM66.2263 40.0817C66.2207 40.4252 66.033 40.614 65.6884 40.6233C65.3561 40.6327 65.0219 40.6102 64.6906 40.6318C64.4296 40.6487 64.3892 40.5267 64.3977 40.3089C64.4099 39.9766 64.4004 39.6433 64.4004 39.311C64.4013 38.9928 64.4201 38.6736 64.3958 38.3581C64.3742 38.068 64.4906 37.9892 64.761 38.007C65.0623 38.0277 65.3655 38.0051 65.6679 38.0145C66.0293 38.0258 66.2274 38.2145 66.2283 38.5844C66.2311 39.0838 66.2348 39.5832 66.2263 40.0817Z" fill="#002875"/>
<path d="M93.0295 42.6087C93.0295 43.9893 93.0318 45.3699 93.0283 46.7504C93.0268 47.2933 92.9265 47.3935 92.3922 47.3981C91.8157 47.4031 91.2391 47.4057 90.6628 47.3978C90.1436 47.3907 90.0269 47.271 90.0262 46.7441C90.0225 44.0284 90.022 41.3128 90.0221 38.5973C90.0221 38.0018 90.0254 38.0018 89.4531 38.0011C88.2851 37.9997 88.2851 37.9997 88.285 36.8263C88.285 36.4167 88.2903 36.0069 88.2835 35.5974C88.2769 35.1929 88.4391 34.9799 88.8715 34.9708C89.9477 34.9483 90.7904 34.5042 91.3687 33.5702C91.591 33.211 91.8597 32.8742 92.2632 32.6881C92.7247 32.4752 93.0063 32.6427 93.0141 33.1436C93.022 33.6593 93.0237 34.1753 93.0132 34.6909C93.0089 34.904 93.0756 34.9902 93.2979 34.978C93.5852 34.9622 93.8741 34.9767 94.1624 34.9754C94.4975 34.9739 94.6702 35.1406 94.6724 35.4736C94.6767 36.1411 94.6792 36.8085 94.6754 37.476C94.6734 37.8233 94.5042 38.0149 94.1404 38.0007C94.1102 37.9995 94.0798 38.0005 94.0493 38.0009C93.0294 38.0168 93.0294 38.0168 93.0293 39.0587C93.0295 40.2421 93.0295 41.4254 93.0295 42.6087Z" fill="#00B8F8"/>
</g>
<path d="M67.6308 83.288C67.6308 83.8853 67.4868 84.4453 67.1988 84.968C66.9215 85.4907 66.4788 85.912 65.8708 86.232C65.2735 86.552 64.5161 86.712 63.5988 86.712H61.7268V91H59.4868V79.832H63.5988C64.4628 79.832 65.1988 79.9813 65.8068 80.28C66.4148 80.5787 66.8681 80.9893 67.1668 81.512C67.4761 82.0347 67.6308 82.6267 67.6308 83.288ZM63.5028 84.904C64.1215 84.904 64.5801 84.7653 64.8788 84.488C65.1775 84.2 65.3268 83.8 65.3268 83.288C65.3268 82.2 64.7188 81.656 63.5028 81.656H61.7268V84.904H63.5028ZM68.6452 86.536C68.6452 85.64 68.8212 84.8453 69.1732 84.152C69.5359 83.4587 70.0212 82.9253 70.6292 82.552C71.2479 82.1787 71.9359 81.992 72.6932 81.992C73.3545 81.992 73.9305 82.1253 74.4212 82.392C74.9225 82.6587 75.3225 82.9947 75.6212 83.4V82.136H77.8772V91H75.6212V89.704C75.3332 90.12 74.9332 90.4667 74.4212 90.744C73.9199 91.0107 73.3385 91.144 72.6772 91.144C71.9305 91.144 71.2479 90.952 70.6292 90.568C70.0212 90.184 69.5359 89.6453 69.1732 88.952C68.8212 88.248 68.6452 87.4427 68.6452 86.536ZM75.6212 86.568C75.6212 86.024 75.5145 85.56 75.3012 85.176C75.0879 84.7813 74.7999 84.4827 74.4372 84.28C74.0745 84.0667 73.6852 83.96 73.2692 83.96C72.8532 83.96 72.4692 84.0613 72.1172 84.264C71.7652 84.4667 71.4772 84.7653 71.2532 85.16C71.0399 85.544 70.9332 86.0027 70.9332 86.536C70.9332 87.0693 71.0399 87.5387 71.2532 87.944C71.4772 88.3387 71.7652 88.6427 72.1172 88.856C72.4799 89.0693 72.8639 89.176 73.2692 89.176C73.6852 89.176 74.0745 89.0747 74.4372 88.872C74.7999 88.6587 75.0879 88.36 75.3012 87.976C75.5145 87.5813 75.6212 87.112 75.6212 86.568ZM88.5449 82.136L83.0569 95.192H80.6729L82.5929 90.776L79.0409 82.136H81.5529L83.8409 88.328L86.1609 82.136H88.5449ZM92.3604 83.976V88.264C92.3604 88.5627 92.4298 88.7813 92.5684 88.92C92.7178 89.048 92.9631 89.112 93.3044 89.112H94.3444V91H92.9364C91.0484 91 90.1044 90.0827 90.1044 88.248V83.976H89.0484V82.136H90.1044V79.944H92.3604V82.136H94.3444V83.976H92.3604ZM106.964 82.008C108.052 82.008 108.926 82.344 109.588 83.016C110.26 83.6773 110.596 84.6053 110.596 85.8V91H108.356V86.104C108.356 85.4107 108.18 84.8827 107.828 84.52C107.476 84.1467 106.996 83.96 106.388 83.96C105.78 83.96 105.294 84.1467 104.932 84.52C104.58 84.8827 104.404 85.4107 104.404 86.104V91H102.164V86.104C102.164 85.4107 101.988 84.8827 101.636 84.52C101.284 84.1467 100.804 83.96 100.196 83.96C99.5769 83.96 99.0862 84.1467 98.7236 84.52C98.3716 84.8827 98.1956 85.4107 98.1956 86.104V91H95.9556V82.136H98.1956V83.208C98.4836 82.8347 98.8516 82.5413 99.2996 82.328C99.7582 82.1147 100.26 82.008 100.804 82.008C101.497 82.008 102.116 82.1573 102.66 82.456C103.204 82.744 103.625 83.16 103.924 83.704C104.212 83.192 104.628 82.7813 105.172 82.472C105.726 82.1627 106.324 82.008 106.964 82.008Z" fill="black"/>
<defs>
<clipPath id="clip0_1470_320">
<rect width="46" height="46" fill="white" transform="translate(62 17)"/>
</clipPath>
</defs>
</svg>
