<svg width="40" height="40" viewBox="0 0 40 40" fill="none" xmlns="http://www.w3.org/2000/svg">
<rect width="40" height="40" rx="20" fill="white"/>
<g clip-path="url(#clip0_1624_884)">
<path d="M20 24C19.2089 24 18.4355 23.7654 17.7777 23.3259C17.1199 22.8864 16.6072 22.2616 16.3045 21.5307C16.0017 20.7998 15.9225 19.9956 16.0769 19.2196C16.2312 18.4437 16.6122 17.731 17.1716 17.1716C17.731 16.6122 18.4437 16.2312 19.2196 16.0769C19.9956 15.9225 20.7998 16.0017 21.5307 16.3045C22.2616 16.6072 22.8864 17.1199 23.3259 17.7777C23.7654 18.4355 24 19.2089 24 20C24 21.0609 23.5786 22.0783 22.8284 22.8284C22.0783 23.5786 21.0609 24 20 24ZM13.683 24H9C8.73478 24 8.48043 23.8946 8.29289 23.7071C8.10536 23.5196 8 23.2652 8 23C8.00948 21.5641 8.53172 20.1789 9.47256 19.0941C10.4134 18.0093 11.7109 17.2964 13.131 17.084C13.296 17.0609 13.4642 17.0794 13.6203 17.1378C13.7763 17.1962 13.9153 17.2927 14.0246 17.4184C14.1339 17.5442 14.21 17.6953 14.2461 17.858C14.2821 18.0207 14.2769 18.1898 14.231 18.35C14.0778 18.8866 14 19.4419 14 20C14.0003 20.8898 14.2006 21.7681 14.586 22.57C14.6585 22.7222 14.6913 22.8903 14.6815 23.0586C14.6716 23.2269 14.6193 23.39 14.5295 23.5327C14.4397 23.6754 14.3153 23.793 14.1678 23.8747C14.0203 23.9564 13.8546 23.9995 13.686 24H13.683ZM25 32H15C14.7348 32 14.4804 31.8946 14.2929 31.7071C14.1054 31.5196 14 31.2652 14 31C14 29.4087 14.6321 27.8826 15.7574 26.7574C16.8826 25.6321 18.4087 25 20 25C21.5913 25 23.1174 25.6321 24.2426 26.7574C25.3679 27.8826 26 29.4087 26 31C26 31.2652 25.8946 31.5196 25.7071 31.7071C25.5196 31.8946 25.2652 32 25 32ZM26 16C25.2089 16 24.4355 15.7654 23.7777 15.3259C23.1199 14.8864 22.6072 14.2616 22.3045 13.5307C22.0017 12.7998 21.9225 11.9956 22.0769 11.2196C22.2312 10.4437 22.6122 9.73098 23.1716 9.17157C23.731 8.61216 24.4437 8.2312 25.2196 8.07686C25.9956 7.92252 26.7998 8.00173 27.5307 8.30448C28.2616 8.60723 28.8864 9.11992 29.3259 9.77772C29.7654 10.4355 30 11.2089 30 12C30 13.0609 29.5786 14.0783 28.8284 14.8284C28.0783 15.5786 27.0609 16 26 16ZM14 16C13.2089 16 12.4355 15.7654 11.7777 15.3259C11.1199 14.8864 10.6072 14.2616 10.3045 13.5307C10.0017 12.7998 9.92252 11.9956 10.0769 11.2196C10.2312 10.4437 10.6122 9.73098 11.1716 9.17157C11.731 8.61216 12.4437 8.2312 13.2196 8.07686C13.9956 7.92252 14.7998 8.00173 15.5307 8.30448C16.2616 8.60723 16.8864 9.11992 17.3259 9.77772C17.7654 10.4355 18 11.2089 18 12C18 13.0609 17.5786 14.0783 16.8284 14.8284C16.0783 15.5786 15.0609 16 14 16ZM31 24H26.317C26.1484 23.9995 25.9827 23.9564 25.8352 23.8747C25.6877 23.793 25.5633 23.6754 25.4735 23.5327C25.3837 23.39 25.3314 23.2269 25.3215 23.0586C25.3117 22.8903 25.3445 22.7222 25.417 22.57C25.8014 21.7678 26.0006 20.8895 26 20C25.9984 19.4417 25.9189 18.8864 25.764 18.35C25.7178 18.1894 25.7126 18.0197 25.7489 17.8566C25.7851 17.6934 25.8617 17.5419 25.9717 17.416C26.0816 17.2901 26.2213 17.1937 26.378 17.1357C26.5348 17.0777 26.7036 17.0599 26.869 17.084C28.2891 17.2964 29.5866 18.0093 30.5274 19.0941C31.4683 20.1789 31.9905 21.5641 32 23C32 23.2652 31.8946 23.5196 31.7071 23.7071C31.5196 23.8946 31.2652 24 31 24Z" fill="black"/>
</g>
<defs>
<clipPath id="clip0_1624_884">
<rect width="24" height="24" fill="white" transform="translate(8 8)"/>
</clipPath>
</defs>
</svg>
