<svg width="50" height="50" viewBox="0 0 50 50" fill="none" xmlns="http://www.w3.org/2000/svg">
<rect width="50" height="50" rx="25" fill="#0073FF"/>
<g clip-path="url(#clip0_1617_798)">
<path d="M24.9996 13C22.2376 13 19.9996 15.238 19.9996 18C19.9996 20.762 22.2376 23 24.9996 23C27.7616 23 29.9996 20.762 29.9996 18C29.9996 15.238 27.7616 13 24.9996 13ZM25.9126 19.94L25.9086 19.944C25.1646 20.688 23.8506 20.69 23.0856 19.925L21.4986 18.252L22.8856 16.811L24.5066 18.518L27.3296 15.607L28.7276 17.037L25.9126 19.94ZM14.9956 21.401L13.2956 24.235C12.6286 25.347 13.1626 26.79 14.3926 27.2L19.4736 28.894C20.3626 29.19 21.3386 28.829 21.8206 28.026L23.9956 24.402L14.9956 21.401ZM25.9956 24.401L28.1706 28.025C28.6526 28.829 29.6286 29.19 30.5176 28.893L35.6356 27.187C36.8466 26.783 37.3726 25.362 36.7156 24.267L34.9956 21.401L25.9956 24.401ZM23.5356 29.055C22.7936 30.291 21.4916 31 20.1206 31C19.6956 31 19.2646 30.933 18.8406 30.791L15.0006 29.51V34L23.9956 37V28.288L23.5356 29.055ZM31.1506 30.792C30.7266 30.934 30.2956 31.001 29.8706 31.001C28.4996 31.001 27.1976 30.293 26.4556 29.056L26.0006 28.29V37.001L34.9956 34.001V29.511L31.1506 30.792Z" fill="white"/>
</g>
<defs>
<clipPath id="clip0_1617_798">
<rect width="24" height="24" fill="white" transform="translate(13 13)"/>
</clipPath>
</defs>
</svg>
