<svg width="50" height="50" viewBox="0 0 50 50" fill="none" xmlns="http://www.w3.org/2000/svg">
<rect width="50" height="50" rx="25" fill="#0073FF"/>
<g clip-path="url(#clip0_1617_793)">
<path d="M30.9993 14V18H34.9993L31.9993 21H29.4133L25.7063 24.707C25.5253 24.888 25.2753 25 24.9993 25C24.4473 25 23.9993 24.552 23.9993 24C23.9993 23.724 24.1113 23.474 24.2923 23.293L27.9993 19.586V17L30.9993 14ZM35.9863 24C35.9863 22.751 35.7673 21.554 35.3813 20.434L32.9143 22.901C32.9643 23.261 32.9983 23.627 32.9983 24.001C32.9983 28.419 29.4163 32.001 24.9983 32.001C20.5513 32.008 17.0433 28.386 16.9853 24.001C17.0333 19.576 20.6043 15.951 25.0683 16.005C25.4103 16.017 25.7433 16.036 26.0753 16.082L28.5533 13.605C27.4333 13.219 26.2363 13 24.9873 13C18.9213 13 13.9863 17.935 13.9863 24C13.9863 27.266 15.4253 30.195 17.6923 32.212L14.9993 37H17.2933L19.3143 33.407C20.9733 34.411 22.9103 35 24.9863 35C27.0623 35 29.0143 34.407 30.6773 33.396L32.7053 37H34.9993L32.2973 32.196C34.5553 30.18 35.9863 27.258 35.9863 24ZM22.8833 21.874L25.9993 18.757V18.096C25.6713 18.039 25.3393 17.999 24.9993 17.999C23.3963 17.999 21.8903 18.623 20.7563 19.756C19.6223 20.889 18.9993 22.396 18.9993 23.999C18.9993 25.602 19.6233 27.108 20.7563 28.242C21.8893 29.376 23.3963 29.999 24.9993 29.999C26.6023 29.999 28.1083 29.375 29.2423 28.242C30.3763 27.109 30.9993 25.602 30.9993 23.999C30.9993 23.659 30.9593 23.327 30.9023 22.999H30.2413L27.1243 26.115C27.1243 26.115 27.1213 26.119 27.1203 26.12C25.9503 27.29 24.0473 27.29 22.8773 26.12C21.7083 24.95 21.7083 23.047 22.8773 21.877C22.8793 21.875 22.8813 21.874 22.8823 21.873L22.8833 21.874Z" fill="white"/>
</g>
<defs>
<clipPath id="clip0_1617_793">
<rect width="24" height="24" fill="white" transform="translate(13 13)"/>
</clipPath>
</defs>
</svg>
