<svg width="40" height="40" viewBox="0 0 40 40" fill="none" xmlns="http://www.w3.org/2000/svg">
<rect width="40" height="40" rx="20" fill="white"/>
<g clip-path="url(#clip0_1624_890)">
<path d="M30.97 14.251C30.333 13.897 29.555 13.92 28.87 14.352L25.13 18.5V16C25.13 15.273 24.735 14.603 24.1 14.251C23.463 13.897 22.684 13.92 22 14.352L18 18.502V26.001C18 26.553 17.553 27.001 17 27.001C16.447 27.001 16 26.553 16 26.001V10C16.553 10 17 9.552 17 9C17 8.448 16.553 8 16 8H9C8.447 8 8 8.448 8 9C8 9.552 8.447 10 9 10V27C9 29.757 11.243 32 14 32H27C29.757 32 32 29.757 32 27V16C32 15.273 31.605 14.603 30.97 14.251ZM24 26C24 26.552 23.552 27 23 27H22C21.448 27 21 26.552 21 26V25C21 24.448 21.448 24 22 24H23C23.552 24 24 24.448 24 25V26ZM29 26C29 26.552 28.552 27 28 27H27C26.448 27 26 26.552 26 26V25C26 24.448 26.448 24 27 24H28C28.552 24 29 24.448 29 25V26Z" fill="black"/>
</g>
<defs>
<clipPath id="clip0_1624_890">
<rect width="24" height="24" fill="white" transform="translate(8 8)"/>
</clipPath>
</defs>
</svg>
