<svg width="50" height="50" viewBox="0 0 50 50" fill="none" xmlns="http://www.w3.org/2000/svg">
<rect width="50" height="50" rx="25" fill="#0073FF"/>
<g clip-path="url(#clip0_1617_788)">
<path d="M27.5003 25.5004C27.5003 26.8814 26.3813 28.0004 25.0003 28.0004C23.6193 28.0004 22.5003 26.8814 22.5003 25.5004C22.5003 24.1194 23.6193 23.0004 25.0003 23.0004C26.3813 23.0004 27.5003 24.1194 27.5003 25.5004ZM34.6813 24.4274L32.0773 28.1484C31.7033 28.6824 31.0913 29.0014 30.4393 29.0014H19.5623C18.9103 29.0014 18.2973 28.6834 17.9243 28.1484L15.3203 24.4274C15.0043 23.9754 14.3803 23.8654 13.9273 24.1814C13.4743 24.4974 13.3653 25.1214 13.6813 25.5744L16.2853 29.2954C17.0333 30.3634 18.2583 31.0014 19.5623 31.0014H21.0003V36.0014C21.0003 36.5544 21.4483 37.0014 22.0003 37.0014H28.0003C28.5523 37.0014 29.0003 36.5544 29.0003 36.0014V31.0014H30.4383C31.7423 31.0014 32.9673 30.3634 33.7153 29.2954L36.3193 25.5744C36.6353 25.1224 36.5263 24.4984 36.0733 24.1814C35.6213 23.8664 34.9993 23.9754 34.6813 24.4274ZM22.0003 18.0004H24.0003V18.9494C24.0003 19.4654 24.6233 19.7234 24.9883 19.3584L26.7553 17.5914C27.0823 17.2644 27.0823 16.7354 26.7553 16.4084L24.9883 14.6414C24.6233 14.2764 24.0003 14.5354 24.0003 15.0504V15.9994H22.0003C21.4483 15.9994 21.0003 16.4464 21.0003 16.9994C21.0003 17.5524 21.4483 18.0004 22.0003 18.0004ZM36.3773 19.7834C36.1913 20.1004 35.8573 20.2764 35.5143 20.2764C35.3423 20.2764 35.1673 20.2324 35.0083 20.1384L34.8713 20.0574C34.4843 20.4164 34.0173 20.6804 33.4993 20.8364V20.9994C33.4993 21.5524 33.0513 21.9994 32.4993 21.9994C31.9473 21.9994 31.4993 21.5524 31.4993 20.9994V20.8364C30.9823 20.6804 30.5143 20.4164 30.1273 20.0574L29.9903 20.1384C29.8313 20.2324 29.6573 20.2764 29.4843 20.2764C29.1413 20.2764 28.8073 20.1004 28.6213 19.7834C28.3413 19.3074 28.5003 18.6944 28.9763 18.4144L29.1103 18.3354C29.0443 18.0664 28.9983 17.7894 28.9983 17.5004C28.9983 17.2114 29.0433 16.9344 29.1103 16.6654L28.9763 16.5864C28.5003 16.3064 28.3413 15.6924 28.6213 15.2174C28.9013 14.7394 29.5143 14.5814 29.9903 14.8624L30.1273 14.9434C30.5143 14.5844 30.9813 14.3204 31.4993 14.1644V14.0014C31.4993 13.4484 31.9473 13.0014 32.4993 13.0014C33.0513 13.0014 33.4993 13.4484 33.4993 14.0014V14.1644C34.0163 14.3204 34.4843 14.5844 34.8713 14.9434L35.0083 14.8624C35.4843 14.5834 36.0973 14.7404 36.3773 15.2174C36.6573 15.6934 36.4983 16.3064 36.0223 16.5864L35.8883 16.6654C35.9543 16.9344 36.0003 17.2114 36.0003 17.5004C36.0003 17.7894 35.9553 18.0664 35.8883 18.3354L36.0223 18.4144C36.4983 18.6944 36.6573 19.3084 36.3773 19.7834ZM34.0003 17.5004C34.0003 16.6734 33.3273 16.0004 32.5003 16.0004C31.6733 16.0004 31.0003 16.6734 31.0003 17.5004C31.0003 18.3274 31.6733 19.0004 32.5003 19.0004C33.3273 19.0004 34.0003 18.3274 34.0003 17.5004ZM15.9713 22.0004H16.9713C17.5233 22.0004 17.9713 21.5524 17.9713 21.0004V20.0004H14.9713V21.0004C14.9713 21.5524 15.4193 22.0004 15.9713 22.0004ZM14.4713 19.0004H18.4713C19.4713 18.5004 19.9713 17.4594 19.9713 16.5004C19.9713 15.4274 19.4893 14.4284 18.6483 13.7584C17.8073 13.0904 16.7153 12.8474 15.6483 13.0944C14.3733 13.3894 13.3583 14.4044 13.0643 15.6804C12.7803 16.9124 13.4713 18.5004 14.4713 19.0004Z" fill="white"/>
</g>
<defs>
<clipPath id="clip0_1617_788">
<rect width="24" height="24" fill="white" transform="translate(13 13)"/>
</clipPath>
</defs>
</svg>
