<svg width="50" height="50" viewBox="0 0 50 50" fill="none" xmlns="http://www.w3.org/2000/svg">
<rect width="50" height="50" rx="25" fill="#0073FF"/>
<g clip-path="url(#clip0_1617_784)">
<path d="M32 17H30.9C30.6679 15.8714 30.0538 14.8573 29.1613 14.1287C28.2687 13.4001 27.1522 13.0015 26 13L24 13C22.8478 13.0015 21.7313 13.4001 20.8387 14.1287C19.9462 14.8573 19.3321 15.8714 19.1 17H18C16.6744 17.0016 15.4036 17.5289 14.4662 18.4662C13.5289 19.4036 13.0016 20.6744 13 22V25H37V22C36.9984 20.6744 36.4711 19.4036 35.5338 18.4662C34.5964 17.5289 33.3256 17.0016 32 17ZM21.184 17C21.3901 16.4171 21.7712 15.9121 22.2753 15.5541C22.7794 15.1961 23.3817 15.0026 24 15H26C26.6183 15.0026 27.2206 15.1961 27.7247 15.5541C28.2288 15.9121 28.6099 16.4171 28.816 17H21.184Z" fill="white"/>
<path d="M26 28C26 28.2652 25.8946 28.5196 25.7071 28.7071C25.5196 28.8946 25.2652 29 25 29C24.7348 29 24.4804 28.8946 24.2929 28.7071C24.1054 28.5196 24 28.2652 24 28V27H13V32C13.0016 33.3256 13.5289 34.5964 14.4662 35.5338C15.4036 36.4711 16.6744 36.9984 18 37H32C33.3256 36.9984 34.5964 36.4711 35.5338 35.5338C36.4711 34.5964 36.9984 33.3256 37 32V27H26V28Z" fill="white"/>
</g>
<defs>
<clipPath id="clip0_1617_784">
<rect width="24" height="24" fill="white" transform="translate(13 13)"/>
</clipPath>
</defs>
</svg>
