<svg width="40" height="40" viewBox="0 0 40 40" fill="none" xmlns="http://www.w3.org/2000/svg">
<rect width="40" height="40" rx="20" fill="white"/>
<g clip-path="url(#clip0_1624_877)">
<path d="M26 20C22.686 20 20 22.686 20 26C20 29.314 22.686 32 26 32C29.314 32 32 29.314 32 26C32 22.686 29.314 20 26 20ZM29.192 26.202L26.979 28.326C26.527 28.772 25.927 28.997 25.326 28.997C24.725 28.997 24.123 28.772 23.663 28.323L22.531 27.214C22.136 26.827 22.131 26.194 22.517 25.8C22.903 25.404 23.536 25.399 23.931 25.786L25.062 26.894C25.206 27.036 25.441 27.033 25.584 26.892L27.807 24.758C28.204 24.376 28.838 24.387 29.221 24.787C29.603 25.185 29.59 25.819 29.192 26.202ZM18 26C18 23.61 19.048 21.466 20.709 20H13C12.447 20 12 19.553 12 19C12 18.447 12.447 18 13 18H21C21.553 18 22 18.447 22 19C22 19.024 21.999 19.048 21.997 19.072C23.174 18.39 24.541 18 26 18V13C26 10.243 23.757 8 21 8H13C10.243 8 8 10.243 8 13V27C8 29.757 10.243 32 13 32H20.709C19.048 30.534 18 28.39 18 26ZM13 13H21C21.553 13 22 13.447 22 14C22 14.553 21.553 15 21 15H13C12.447 15 12 14.553 12 14C12 13.447 12.447 13 13 13ZM15 25H13C12.447 25 12 24.553 12 24C12 23.447 12.447 23 13 23H15C15.553 23 16 23.447 16 24C16 24.553 15.553 25 15 25Z" fill="black"/>
</g>
<defs>
<clipPath id="clip0_1624_877">
<rect width="24" height="24" fill="white" transform="translate(8 8)"/>
</clipPath>
</defs>
</svg>
