<svg width="40" height="40" viewBox="0 0 40 40" fill="none" xmlns="http://www.w3.org/2000/svg">
<rect width="40" height="40" rx="20" fill="white"/>
<g clip-path="url(#clip0_1624_869)">
<path d="M23.988 19.7261C24.146 21.5061 22.748 23.0001 21 23.0001H17.022C16.331 23.0001 15.841 22.3341 16.047 21.6751C16.549 20.0661 17.983 17.5101 20.287 17.0671C22.042 16.7291 23.83 17.9461 23.988 19.7261ZM24.022 16.0641C24.762 16.6221 25.301 17.3731 25.633 18.2051L31.292 12.1201C32.235 11.1781 32.237 9.65013 31.295 8.70713C30.354 7.76513 28.828 7.76413 27.886 8.70513C27.854 8.73713 22.313 15.2181 22.313 15.2181C22.922 15.3931 23.505 15.6741 24.022 16.0641ZM19.752 15.1351L20.793 13.9181C22.264 12.1971 23.341 10.9371 24.143 10.0001H13C10.243 10.0001 8 12.2431 8 15.0001V17.0001H16.559C17.429 16.1181 18.487 15.4161 19.752 15.1351ZM12.5 15.0001C11.672 15.0001 11 14.3281 11 13.5001C11 12.6721 11.672 12.0001 12.5 12.0001C13.328 12.0001 14 12.6721 14 13.5001C14 14.3281 13.328 15.0001 12.5 15.0001ZM15 13.5001C15 12.6721 15.672 12.0001 16.5 12.0001C17.328 12.0001 18 12.6721 18 13.5001C18 14.3281 17.328 15.0001 16.5 15.0001C15.672 15.0001 15 14.3281 15 13.5001ZM29.484 17.0001H32V15.0001C32 14.7821 31.963 14.5741 31.936 14.3631L29.484 17.0001ZM25.931 20.8221C25.772 21.7681 25.346 22.6591 24.69 23.3751C23.745 24.4081 22.4 25.0001 21.001 25.0001H17.023C16.065 25.0001 15.154 24.5401 14.587 23.7691C14.021 22.9981 13.853 21.9931 14.139 21.0791C14.347 20.4111 14.661 19.6981 15.057 19.0011H8V27.0011C8 29.7581 10.243 32.0011 13 32.0011H27C29.757 32.0011 32 29.7581 32 27.0011V19.0011H27.625L25.931 20.8231V20.8221ZM26 29.0001H14C13.448 29.0001 13 28.5521 13 28.0001C13 27.4481 13.448 27.0001 14 27.0001H26C26.552 27.0001 27 27.4481 27 28.0001C27 28.5521 26.552 29.0001 26 29.0001Z" fill="black"/>
</g>
<defs>
<clipPath id="clip0_1624_869">
<rect width="24" height="24" fill="white" transform="translate(8 8)"/>
</clipPath>
</defs>
</svg>
