<svg width="112" height="111" viewBox="0 0 112 111" fill="none" xmlns="http://www.w3.org/2000/svg">
<rect x="2.14575" y="1.64478" width="108.04" height="108.04" rx="54.0198" stroke="#C09553" stroke-width="2.40088"/>
<rect x="15.3516" y="14.8496" width="81.6299" height="81.6299" rx="40.8149" fill="#E6B15F"/>
<path d="M40.6049 39.4801C38.8122 39.4801 37.4357 39.6722 36.4754 40.0563C35.515 40.4405 34.6827 40.8566 33.9785 41.3048C33.5943 41.5289 33.2902 41.7049 33.0661 41.833C32.8101 41.929 32.57 41.977 32.3459 41.977C32.0258 41.977 31.8017 41.8009 31.6736 41.4488C31.5136 41.0967 31.3855 40.5685 31.2895 39.8642H30.1851C30.2171 40.4725 30.2651 41.1767 30.3291 41.977C30.3612 42.7773 30.3932 43.8497 30.4252 45.1942C30.4252 46.5067 30.4252 48.2513 30.4252 50.4281H31.5296C31.6256 48.7955 31.9938 47.2269 32.634 45.7224C33.2422 44.2178 34.1225 42.9854 35.275 42.025C36.3954 41.0327 37.8359 40.5365 39.5965 40.5365C41.1651 40.5365 42.4776 41.0007 43.534 41.929C44.5584 42.8573 45.0705 44.1058 45.0705 45.6744C45.0705 47.0189 44.7344 48.1553 44.0622 49.0836C43.3899 49.9799 42.4456 50.8603 41.2291 51.7246C39.9807 52.5569 38.5081 53.5172 36.8115 54.6056C35.2429 55.63 33.8344 56.6544 32.586 57.6788C31.3375 58.6711 30.3612 59.7755 29.6569 60.992C28.9206 62.2084 28.5525 63.697 28.5525 65.4576C28.5525 67.5384 29.0647 69.267 30.0891 70.6435C31.1134 72.02 32.4899 73.0444 34.2186 73.7166C35.9472 74.3889 37.8359 74.725 39.8846 74.725C41.7733 74.725 43.2779 74.5329 44.3983 74.1488C45.4867 73.7646 46.431 73.3645 47.2313 72.9483C47.9356 72.5002 48.4798 72.2761 48.8639 72.2761C49.184 72.2761 49.4241 72.4522 49.5842 72.8043C49.7122 73.1564 49.8243 73.6846 49.9203 74.3889H51.0247C50.9607 73.6526 50.9287 72.7883 50.9287 71.7959C50.8967 70.8036 50.8807 69.5231 50.8807 67.9545C50.8487 66.3539 50.8326 64.3372 50.8326 61.9043H49.7282C49.6002 63.9531 49.2481 65.8738 48.6719 67.6664C48.0636 69.4271 47.1513 70.8516 45.9349 71.94C44.6864 73.0284 43.0378 73.5726 40.989 73.5726C39.8686 73.5726 38.8603 73.3805 37.9639 72.9964C37.0356 72.5802 36.2993 71.956 35.7551 71.1237C35.2109 70.2594 34.9388 69.171 34.9388 67.8585C34.9388 66.546 35.2429 65.3936 35.8512 64.4012C36.4594 63.4089 37.3077 62.4805 38.3961 61.6162C39.4845 60.7519 40.765 59.8716 42.2375 58.9752C43.7421 58.0149 45.1506 57.0385 46.463 56.0462C47.7755 55.0538 48.8319 53.9334 49.6322 52.6849C50.4005 51.4045 50.7846 49.8679 50.7846 48.0752C50.7846 46.0905 50.3045 44.4739 49.3441 43.2255C48.3838 41.945 47.1353 41.0007 45.5987 40.3924C44.0302 39.7842 42.3655 39.4801 40.6049 39.4801Z" fill="#1E1E1E"/>
<path d="M53.088 40.0563C53.8883 40.0883 54.9127 40.1203 56.1611 40.1523C57.4096 40.1843 58.658 40.2003 59.9065 40.2003C61.4751 40.2003 62.9636 40.1843 64.3721 40.1523C65.7807 40.1203 66.773 40.1043 67.3492 40.1043C70.2303 40.1043 72.5991 40.4564 74.4558 41.1607C76.3445 41.8329 77.753 42.7933 78.6814 44.0418C79.6097 45.2902 80.0739 46.7627 80.0739 48.4594C80.0739 49.5158 79.8658 50.6042 79.4497 51.7246C79.0335 52.813 78.3132 53.8213 77.2889 54.7497C76.2645 55.678 74.856 56.4463 73.0633 57.0545C71.3027 57.6307 69.0458 57.9188 66.2928 57.9188H61.6832V56.9585H65.8127C67.8294 56.9585 69.366 56.6064 70.4223 55.9021C71.5107 55.1658 72.231 54.2055 72.5831 53.021C72.9673 51.8046 73.1594 50.4601 73.1594 48.9876C73.1594 46.4586 72.6632 44.5059 71.6708 43.1294C70.6784 41.7209 68.9658 41.0166 66.5329 41.0166C65.2204 41.0166 64.3561 41.2887 63.94 41.8329C63.5558 42.3771 63.3638 43.4815 63.3638 45.1462V68.9629C63.3638 70.1153 63.4598 70.9796 63.6519 71.5558C63.8439 72.132 64.1961 72.5162 64.7083 72.7082C65.2525 72.9003 66.0367 73.0284 67.0611 73.0924V74.0527C66.2608 73.9887 65.2365 73.9567 63.988 73.9567C62.7395 73.9247 61.4751 73.9087 60.1946 73.9087C58.7541 73.9087 57.4096 73.9247 56.1611 73.9567C54.9127 73.9567 53.8883 73.9887 53.088 74.0527V73.0924C54.1444 73.0284 54.9287 72.9003 55.4409 72.7082C55.9851 72.5162 56.3372 72.132 56.4973 71.5558C56.6893 70.9796 56.7854 70.1153 56.7854 68.9629V45.1462C56.7854 43.9617 56.6893 43.0974 56.4973 42.5532C56.3372 41.977 55.9851 41.5929 55.4409 41.4008C54.9287 41.1767 54.1444 41.0487 53.088 41.0166V40.0563ZM61.6832 57.1025C63.1877 57.1666 64.4362 57.2466 65.4285 57.3426C66.4529 57.4066 67.3172 57.4707 68.0215 57.5347C68.7577 57.5987 69.414 57.6787 69.9902 57.7748C72.6472 58.0309 74.5999 58.6551 75.8483 59.6475C77.1288 60.6078 77.9771 62.0804 78.3933 64.0651L79.4977 69.0109C79.7858 70.3234 80.0899 71.2677 80.41 71.8439C80.7621 72.3881 81.2583 72.6442 81.8985 72.6122C82.3467 72.6122 82.7309 72.5002 83.051 72.2761C83.3711 72.02 83.6912 71.6839 84.0113 71.2677L84.6836 71.8439C83.8833 72.8363 83.035 73.5726 82.1386 74.0527C81.2423 74.5009 80.1059 74.725 78.7294 74.725C77.1928 74.725 75.8964 74.3729 74.84 73.6686C73.7836 72.9323 73.0633 71.5558 72.6792 69.5391L71.7668 64.7373C71.5107 63.3928 71.2066 62.2084 70.8545 61.184C70.5344 60.1597 70.0862 59.3594 69.51 58.7831C68.9338 58.2069 68.0855 57.9188 66.9651 57.9188H61.7792L61.6832 57.1025Z" fill="#1E1E1E"/>
</svg>
