<svg width="321" height="126" viewBox="0 0 321 126" fill="none" xmlns="http://www.w3.org/2000/svg">
<path d="M29.2638 12.6971C33.2282 12.6971 36.2723 13.1219 38.3961 13.9714C40.5199 14.8209 42.3605 15.7412 43.9179 16.7323C44.7674 17.2278 45.44 17.6172 45.9355 17.9004C46.5019 18.1128 47.0328 18.2189 47.5283 18.2189C48.2363 18.2189 48.7318 17.8296 49.015 17.0509C49.369 16.2721 49.6521 15.1041 49.8645 13.5466H52.3069C52.2361 14.8917 52.1299 16.4491 51.9883 18.2189C51.9175 19.9888 51.8467 22.3603 51.7759 25.3336C51.7759 28.2361 51.7759 32.0943 51.7759 36.9082H49.3336C49.1212 33.2978 48.3071 29.829 46.8912 26.5017C45.5462 23.1744 43.5993 20.4489 41.0508 18.3251C38.5731 16.1306 35.3874 15.0333 31.4938 15.0333C28.0249 15.0333 25.1224 16.0598 22.7863 18.1128C20.5209 20.1657 19.3882 22.9267 19.3882 26.3955C19.3882 29.3688 20.1315 31.8819 21.6182 33.9349C23.1048 35.9171 25.1932 37.8639 27.8833 39.7753C30.6443 41.616 33.9007 43.7397 37.6528 46.1467C41.1216 48.4121 44.2365 50.6774 46.9974 52.9428C49.7583 55.1374 51.9175 57.5797 53.4749 60.2699C55.1032 62.96 55.9173 66.2519 55.9173 70.1455C55.9173 74.747 54.7846 78.5698 52.5192 81.6139C50.2539 84.658 47.2098 86.9233 43.387 88.41C39.5642 89.8966 35.3874 90.64 30.8566 90.64C26.6799 90.64 23.3526 90.2152 20.8749 89.3657C18.4679 88.5162 16.3795 87.6313 14.6097 86.711C13.0523 85.7199 11.8488 85.2243 10.9993 85.2243C10.2913 85.2243 9.76039 85.6137 9.40643 86.3924C9.12326 87.1711 8.87548 88.3392 8.6631 89.8966H6.22075C6.36234 88.2684 6.43313 86.357 6.43313 84.1624C6.50392 81.9679 6.53932 79.1361 6.53932 75.6673C6.61011 72.1277 6.64551 67.6677 6.64551 62.2875H9.08786C9.37103 66.8182 10.1498 71.0658 11.424 75.0302C12.7691 78.9238 14.7867 82.074 17.4768 84.481C20.2377 86.888 23.8836 88.0914 28.4143 88.0914C30.892 88.0914 33.122 87.6667 35.1042 86.8172C37.1572 85.8969 38.7854 84.5164 39.9889 82.6758C41.1924 80.7644 41.7941 78.3574 41.7941 75.4549C41.7941 72.5524 41.1216 70.0039 39.7765 67.8093C38.4315 65.6147 36.5555 63.5617 34.1485 61.6503C31.7416 59.7389 28.9098 57.7921 25.6534 55.8099C22.3261 53.6861 19.2112 51.527 16.3087 49.3324C13.4062 47.1378 11.0701 44.66 9.30024 41.8991C7.60121 39.0674 6.7517 35.6694 6.7517 31.705C6.7517 27.3158 7.81359 23.7408 9.93737 20.9799C12.0612 18.1481 14.8221 16.0598 18.2201 14.7147C21.689 13.3696 25.3702 12.6971 29.2638 12.6971ZM100.765 32.7669C103.526 32.7669 105.826 33.1562 107.667 33.9349C109.579 34.7137 111.065 35.7048 112.127 36.9082C113.401 38.2533 114.286 40.0585 114.782 42.3239C115.277 44.5185 115.525 47.3148 115.525 50.7128V79.2777C115.525 82.251 116.021 84.2686 117.012 85.3305C118.074 86.3924 119.843 86.9233 122.321 86.9233V89.1533C121.047 89.0825 119.136 89.0117 116.587 88.9409C114.038 88.7994 111.561 88.7286 109.154 88.7286C106.605 88.7286 104.127 88.7994 101.721 88.9409C99.3843 89.0117 97.6145 89.0825 96.411 89.1533V86.9233C98.464 86.9233 99.9153 86.3924 100.765 85.3305C101.685 84.2686 102.145 82.251 102.145 79.2777V47.1024C102.145 45.191 102.004 43.492 101.721 42.0053C101.437 40.4479 100.836 39.2444 99.9153 38.3949C98.995 37.4746 97.5791 37.0144 95.6677 37.0144C93.4731 37.0144 91.4909 37.6516 89.7211 38.9258C87.9513 40.2001 86.5355 41.9699 85.4736 44.2353C84.4825 46.4299 83.9869 48.9076 83.9869 51.6685V79.2777C83.9869 82.251 84.4117 84.2686 85.2612 85.3305C86.1107 86.3924 87.5973 86.9233 89.7211 86.9233V89.1533C88.5177 89.0825 86.7478 89.0117 84.4117 88.9409C82.1463 88.7994 79.8101 88.7286 77.4032 88.7286C74.7838 88.7286 72.1291 88.7994 69.439 88.9409C66.7489 89.0117 64.7313 89.0825 63.3862 89.1533V86.9233C66.0055 86.9233 67.8462 86.3924 68.908 85.3305C70.0407 84.2686 70.6071 82.251 70.6071 79.2777V45.8281C70.6071 42.6425 70.0761 40.3063 69.0142 38.8196C68.0231 37.2622 66.1471 36.4835 63.3862 36.4835V34.2535C65.6516 34.4659 67.8462 34.5721 69.9699 34.5721C72.5893 34.5721 75.067 34.4659 77.4032 34.2535C79.8101 33.9703 82.0047 33.581 83.9869 33.0854V43.7043C85.7567 39.8107 88.1283 37.0144 91.1016 35.3154C94.0749 33.6164 97.296 32.7669 100.765 32.7669ZM132.728 32.7669C135.489 32.7669 137.789 33.1562 139.63 33.9349C141.541 34.7137 143.028 35.7048 144.09 36.9082C145.364 38.2533 146.249 40.0585 146.745 42.3239C147.24 44.5185 147.488 47.3148 147.488 50.7128V79.2777C147.488 82.251 148.019 84.2686 149.081 85.3305C150.214 86.3924 152.09 86.9233 154.709 86.9233V89.1533C153.435 89.0825 151.452 89.0117 148.762 88.9409C146.143 88.7994 143.594 88.7286 141.117 88.7286C138.568 88.7286 136.09 88.7994 133.683 88.9409C131.347 89.0117 129.577 89.0825 128.374 89.1533V86.9233C130.427 86.9233 131.878 86.3924 132.728 85.3305C133.648 84.2686 134.108 82.251 134.108 79.2777V47.1024C134.108 45.191 133.931 43.492 133.577 42.0053C133.294 40.4479 132.657 39.2444 131.666 38.3949C130.675 37.4746 129.188 37.0144 127.206 37.0144C125.011 37.0144 123.029 37.687 121.259 39.032C119.489 40.3771 118.074 42.1823 117.012 44.4477C116.021 46.6422 115.49 49.12 115.419 51.8809L114.888 44.2353C116.799 39.8461 119.348 36.8374 122.534 35.2092C125.719 33.581 129.117 32.7669 132.728 32.7669ZM194.149 32.7669C196.344 32.7669 198.149 33.227 199.565 34.1473C201.051 35.0676 202.149 36.2357 202.857 37.6516C203.565 39.0674 203.918 40.5541 203.918 42.1115C203.918 44.4477 203.211 46.3945 201.795 47.9519C200.45 49.5094 198.644 50.2881 196.379 50.2881C194.255 50.2881 192.521 49.7217 191.176 48.589C189.831 47.4564 189.158 45.8989 189.158 43.9167C189.158 42.1469 189.583 40.6603 190.432 39.4568C191.353 38.2533 192.379 37.2976 193.512 36.5897C192.733 36.1649 191.848 36.0233 190.857 36.1649C189.158 36.3065 187.601 36.9082 186.185 37.9701C184.769 39.032 183.566 40.3417 182.574 41.8991C181.583 43.4566 180.805 45.1202 180.238 46.89C179.743 48.6598 179.495 50.3589 179.495 51.9871V78.2158C179.495 81.6847 180.38 84.0208 182.15 85.2243C183.92 86.357 186.503 86.9233 189.901 86.9233V89.1533C188.273 89.0825 185.902 89.0117 182.787 88.9409C179.743 88.7994 176.557 88.7286 173.23 88.7286C170.469 88.7286 167.708 88.7994 164.947 88.9409C162.257 89.0117 160.239 89.0825 158.894 89.1533V86.9233C161.514 86.9233 163.354 86.3924 164.416 85.3305C165.549 84.2686 166.115 82.251 166.115 79.2777V45.8281C166.115 42.6425 165.584 40.3063 164.522 38.8196C163.531 37.2622 161.655 36.4835 158.894 36.4835V34.2535C161.16 34.4659 163.354 34.5721 165.478 34.5721C168.097 34.5721 170.575 34.4659 172.911 34.2535C175.318 33.9703 177.513 33.581 179.495 33.0854V44.1291C180.344 42.1469 181.442 40.3063 182.787 38.6073C184.203 36.9082 185.866 35.5278 187.778 34.4659C189.76 33.3332 191.884 32.7669 194.149 32.7669ZM225.002 6.00718V79.2777C225.002 82.251 225.498 84.2686 226.489 85.3305C227.48 86.3924 229.179 86.9233 231.586 86.9233V89.1533C230.382 89.0825 228.542 89.0117 226.064 88.9409C223.586 88.7994 221.073 88.7286 218.524 88.7286C215.905 88.7286 213.215 88.7994 210.454 88.9409C207.764 89.0117 205.746 89.0825 204.401 89.1533V86.9233C207.021 86.9233 208.861 86.3924 209.923 85.3305C211.056 84.2686 211.622 82.251 211.622 79.2777V18.7499C211.622 15.5642 211.091 13.2281 210.029 11.7414C209.038 10.184 207.162 9.40524 204.401 9.40524V7.17527C206.667 7.38764 208.861 7.49383 210.985 7.49383C213.675 7.49383 216.188 7.38764 218.524 7.17527C220.861 6.8921 223.02 6.50273 225.002 6.00718ZM259.407 34.2535V36.3773C257.284 36.802 255.231 37.6162 253.248 38.8196C251.266 39.9523 249.319 41.5452 247.408 43.5982L236.895 54.5356L238.063 52.1995L256.753 81.4015C257.744 82.8174 258.664 84.0208 259.513 85.0119C260.434 85.9322 261.566 86.5694 262.912 86.9233V89.1533C261.991 89.0825 260.54 89.0117 258.558 88.9409C256.576 88.7994 254.593 88.7286 252.611 88.7286C250.204 88.7286 247.726 88.7994 245.178 88.9409C242.7 89.0117 240.824 89.0825 239.55 89.1533V86.9233C240.966 86.9233 241.921 86.6048 242.417 85.9676C242.983 85.2597 242.913 84.3748 242.205 83.3129L231.161 64.7298C230.17 63.1724 229.214 62.1813 228.294 61.7565C227.374 61.261 226.135 61.0132 224.577 61.0132V58.8894C226.347 58.7478 227.798 58.4292 228.931 57.9337C230.134 57.4381 231.267 56.6594 232.329 55.5975L240.293 47.6333C242.629 45.2972 243.797 43.315 243.797 41.6868C243.868 40.0585 243.125 38.8196 241.568 37.9701C240.081 37.0498 238.134 36.5189 235.727 36.3773V34.2535C237.639 34.3243 239.762 34.4305 242.098 34.5721C244.435 34.6429 246.417 34.6783 248.045 34.6783C249.319 34.6783 250.664 34.6783 252.08 34.6783C253.567 34.6075 254.947 34.5367 256.222 34.4659C257.567 34.3951 258.629 34.3243 259.407 34.2535ZM290.396 32.7669C295.281 32.7669 299.599 33.758 303.351 35.7402C307.174 37.6516 310.183 40.7311 312.377 44.9786C314.643 49.2262 315.776 54.8188 315.776 61.7565C315.776 68.6942 314.643 74.2868 312.377 78.5344C310.183 82.782 307.174 85.8615 303.351 87.7729C299.599 89.6843 295.281 90.64 290.396 90.64C285.512 90.64 281.158 89.6843 277.335 87.7729C273.512 85.8615 270.504 82.782 268.309 78.5344C266.114 74.2868 265.017 68.6942 265.017 61.7565C265.017 54.8188 266.114 49.2262 268.309 44.9786C270.504 40.7311 273.512 37.6516 277.335 35.7402C281.158 33.758 285.512 32.7669 290.396 32.7669ZM290.396 34.8906C287.069 34.8906 284.344 37.0144 282.22 41.262C280.167 45.4388 279.14 52.2703 279.14 61.7565C279.14 71.2427 280.167 78.0742 282.22 82.251C284.344 86.4278 287.069 88.5162 290.396 88.5162C293.653 88.5162 296.343 86.4278 298.467 82.251C300.59 78.0742 301.652 71.2427 301.652 61.7565C301.652 52.2703 300.59 45.4388 298.467 41.262C296.343 37.0144 293.653 34.8906 290.396 34.8906Z" fill="white"/>
<path d="M56.8715 123.196L52.6239 115.816H50.3143V123.196H47.2879V104.746H53.6593C55.0751 104.746 56.2698 104.994 57.2432 105.489C58.2343 105.985 58.9687 106.648 59.4466 107.48C59.9421 108.312 60.1899 109.241 60.1899 110.268C60.1899 111.471 59.8359 112.569 59.128 113.56C58.4378 114.533 57.367 115.197 55.9158 115.551L60.4819 123.196H56.8715ZM50.3143 113.4H53.6593C54.792 113.4 55.6415 113.117 56.2078 112.551C56.7919 111.984 57.0839 111.223 57.0839 110.268C57.0839 109.312 56.8007 108.569 56.2344 108.038C55.668 107.489 54.8097 107.215 53.6593 107.215H50.3143V113.4ZM73.4592 107.188V112.604H79.8306V115.073H73.4592V120.727H80.627V123.196H70.4328V104.719H80.627V107.188H73.4592ZM96.8053 123.382C95.5664 123.382 94.4514 123.17 93.4603 122.745C92.4692 122.303 91.6905 121.683 91.1241 120.887C90.5578 120.09 90.2746 119.161 90.2746 118.099H93.5134C93.5842 118.896 93.8939 119.55 94.4426 120.064C95.0089 120.577 95.7965 120.834 96.8053 120.834C97.8495 120.834 98.6636 120.586 99.2476 120.09C99.8317 119.577 100.124 118.922 100.124 118.126C100.124 117.506 99.9378 117.002 99.5662 116.613C99.2122 116.223 98.7609 115.922 98.2123 115.71C97.6813 115.498 96.938 115.267 95.9823 115.02C94.7788 114.701 93.7966 114.383 93.0356 114.064C92.2922 113.728 91.6551 113.215 91.1241 112.524C90.5932 111.834 90.3277 110.914 90.3277 109.763C90.3277 108.701 90.5932 107.772 91.1241 106.976C91.6551 106.179 92.3984 105.569 93.3541 105.144C94.3098 104.719 95.416 104.507 96.6725 104.507C98.46 104.507 99.9202 104.958 101.053 105.861C102.203 106.746 102.84 107.967 102.964 109.524H99.6193C99.5662 108.852 99.2476 108.277 98.6636 107.799C98.0795 107.321 97.3097 107.082 96.354 107.082C95.4868 107.082 94.7788 107.303 94.2302 107.746C93.6815 108.188 93.4072 108.825 93.4072 109.657C93.4072 110.224 93.5753 110.693 93.9116 111.064C94.2656 111.418 94.708 111.701 95.239 111.914C95.7699 112.126 96.4955 112.356 97.4159 112.604C98.637 112.94 99.6281 113.276 100.389 113.613C101.168 113.949 101.823 114.471 102.354 115.179C102.902 115.869 103.177 116.798 103.177 117.966C103.177 118.904 102.92 119.789 102.407 120.621C101.911 121.453 101.177 122.126 100.203 122.639C99.2476 123.134 98.1149 123.382 96.8053 123.382ZM125.039 104.746V107.215H120.127V123.196H117.101V107.215H112.163V104.746H125.039ZM145.598 119.427H137.873L136.546 123.196H133.387L139.997 104.719H143.501L150.111 123.196H146.926L145.598 119.427ZM144.749 116.958L141.749 108.383L138.723 116.958H144.749ZM162.357 104.746V116.506C162.357 117.905 162.72 118.958 163.445 119.665C164.189 120.373 165.215 120.727 166.525 120.727C167.852 120.727 168.879 120.373 169.604 119.665C170.348 118.958 170.719 117.905 170.719 116.506V104.746H173.746V116.453C173.746 117.958 173.418 119.232 172.763 120.276C172.108 121.32 171.232 122.099 170.135 122.612C169.038 123.125 167.826 123.382 166.498 123.382C165.171 123.382 163.958 123.125 162.861 122.612C161.782 122.099 160.923 121.32 160.286 120.276C159.649 119.232 159.33 117.958 159.33 116.453V104.746H162.357ZM193.641 123.196L189.393 115.816H187.084V123.196H184.057V104.746H190.429C191.845 104.746 193.039 104.994 194.013 105.489C195.004 105.985 195.738 106.648 196.216 107.48C196.712 108.312 196.959 109.241 196.959 110.268C196.959 111.471 196.605 112.569 195.897 113.56C195.207 114.533 194.136 115.197 192.685 115.551L197.251 123.196H193.641ZM187.084 113.4H190.429C191.561 113.4 192.411 113.117 192.977 112.551C193.561 111.984 193.853 111.223 193.853 110.268C193.853 109.312 193.57 108.569 193.004 108.038C192.437 107.489 191.579 107.215 190.429 107.215H187.084V113.4ZM218.326 119.427H210.6L209.273 123.196H206.114L212.724 104.719H216.228L222.839 123.196H219.653L218.326 119.427ZM217.476 116.958L214.476 108.383L211.45 116.958H217.476ZM247.243 123.196H244.216L235.11 109.418V123.196H232.084V104.719H235.11L244.216 118.471V104.719H247.243V123.196ZM269.508 104.746V107.215H264.597V123.196H261.57V107.215H256.632V104.746H269.508Z" fill="white"/>
</svg>
