<svg width="226" height="135" viewBox="0 0 226 135" fill="none" xmlns="http://www.w3.org/2000/svg">
<path d="M13.4632 128.086C12.3466 128.086 11.1871 128.043 10.9509 128.022C3.41411 127.163 0.107362 122.954 0.107362 122.546C0.107362 122.353 0.322086 122.224 0.472393 122.224C0.687117 122.224 0.966258 122.396 1.35276 122.739C2.12577 123.426 5.73313 125.23 7.10736 125.617C8.61043 126.046 9.96319 126.239 11.7669 126.239C18.316 126.239 24.9509 123.834 24.9509 120.12C24.9509 118.209 22.9325 116.405 19.2607 115.138C17.5429 114.537 15.3313 114 10.865 113.098C5.30368 111.96 3.39264 111.337 1.8681 110.199C0.579755 109.233 0 108.138 0 106.699C0 102.856 4.63804 97.3804 13.0337 91.3681C21.4509 85.3559 30.8773 81.2117 35.8589 81.2117C38.908 81.2117 40.4325 82.7792 40.4325 84.9479C40.4325 85.6994 40.2822 86.5154 40.0031 87.3743C39.1442 89.951 35.2362 96.5215 33.3896 98.497C33.1534 98.7546 32.9172 98.862 32.7025 98.862C32.2945 98.862 31.8436 98.4326 31.8436 98.1319C31.8436 97.9387 32.0798 97.4448 33.1963 95.362C35.8589 90.4878 37.2975 87.6534 37.2975 85.3773C37.2975 84.0031 37.2117 83.8528 36.3528 83.8528C33.4755 83.8528 26.454 86.7301 20.1411 90.5093C9.94172 96.6074 2.57669 103.822 2.57669 107.258C2.57669 109.341 5.08896 110.285 13.7853 112.003C22.954 113.764 26.0031 115.804 27.2914 118.509C27.6779 119.325 27.7209 119.454 27.7209 120.485C27.7209 121.494 27.6779 121.644 27.3129 122.374C25.6595 125.874 20.0982 128.086 13.4632 128.086ZM35.6227 111.595C35.4724 111.595 35.2577 111.574 35.1932 111.531C34.9571 111.445 34.6994 110.844 34.6994 110.436C34.6994 107.773 41.0337 97.4019 43.7822 97.4019C44.8773 97.4019 45.6718 97.9602 45.6718 98.7976C45.6718 99.5706 43.9755 101.245 43.9755 101.439C44.1258 101.439 47.6472 98.497 49.6871 98.497C50.9325 98.497 51.8988 99.227 51.8988 100.73C51.8988 101.696 51.3405 102.985 51.3405 103.028C51.362 103.028 51.9202 102.512 52.6074 101.89C54.9908 99.678 57.0521 98.4326 58.3405 98.4111C60.1442 98.4111 60.5307 99.7853 60.5307 100.472C60.5307 101.009 60.1442 102.255 59.4141 103.844C58.1258 106.764 57.9325 107.601 57.9325 108.589C57.9325 109.641 58.4264 110.328 59.4785 110.328C60.8957 110.328 62.0552 110.178 66.2638 106.334C67.5521 105.175 68.1319 104.703 68.3252 104.703C68.411 104.703 68.4325 104.745 68.4325 104.853C68.4325 105.068 68.1748 105.325 65.8129 107.601C63.0859 110.221 61.1748 111.295 59.3497 111.295C56.773 111.295 55.1626 109.104 55.1626 106.699C55.1626 104.295 57.3313 100.193 57.3313 99.8927C57.3313 99.8497 57.3098 99.8283 57.2454 99.8283C56.5153 99.8283 54.411 100.816 49.8374 105.69C48.5706 107.064 48.2485 107.344 47.9693 107.344C47.5184 107.344 47.3037 107 47.3037 106.334C47.3037 106.034 47.3466 105.647 47.454 105.196C47.6902 104.123 49.2362 100.966 49.2362 99.9571C49.2362 99.7853 49.1932 99.7209 49.0215 99.7209C48.2914 99.7209 46.3804 100.279 43.3528 103.006C39.7454 106.227 36.589 111.595 35.6227 111.595ZM72.5337 111.595C72.0828 111.595 71.6748 111.531 71.2883 111.423C69.9356 110.994 69.1626 109.942 69.1626 108.546C69.1626 106.764 70.3221 104.939 73.092 102.341C73.8865 101.589 74.5307 100.902 74.5307 100.837C74.5307 100.472 72.5123 100.988 72.5123 99.3344C72.5123 99.1197 72.5767 98.862 72.684 98.5829C72.7485 98.4326 73.9294 96.3283 75.4755 96.3283C76.3988 96.3283 76.9141 96.7792 76.9141 97.3804C76.9141 98.3467 75.046 99.8068 75.046 99.8712C75.046 99.8927 75.2822 99.9142 75.5399 99.9142C76.5276 99.9571 77.4939 100.58 77.4939 101.396C77.4939 102.169 76.7423 103.221 75.0031 105.003C72.2117 107.859 71.4816 109.018 71.4816 109.813C71.4816 110.371 71.954 110.629 72.9417 110.629C74.9601 110.629 77.773 109.448 83.1411 105.862C85.181 104.488 85.1595 104.488 85.2454 104.488C85.3957 104.488 85.5245 104.552 85.5245 104.638C85.5245 104.81 85.1166 105.132 83.7853 106.077C78.5245 109.856 74.9601 111.595 72.5337 111.595ZM82.0675 111.595C81.9387 111.595 81.8313 111.574 81.7239 111.531C81.4018 111.402 81.2515 111.144 81.2515 110.736C81.2515 110.242 81.4877 109.534 81.9601 108.61C82.8405 106.936 95.1442 86.451 99.0736 80.1166C101.414 76.3589 101.951 75.7148 102.724 75.7148C103.411 75.7148 104.098 76.2945 104.098 76.8743C104.098 77.905 89.0675 102.147 89.0675 102.233H89.089C89.1534 102.233 89.3681 102.147 89.6472 101.997C91.408 101.117 93.1687 100.58 94.2638 100.58C95.1656 100.58 95.638 101.031 95.638 101.482C95.638 102.362 88.0368 105.325 87.5859 105.948C87.4356 106.141 87.3712 106.313 87.3712 106.528C87.3712 107.387 89.0245 109.534 92.6104 109.534C94.4356 109.534 96.7761 108.954 99.1166 107.88C101.328 106.871 104.184 104.252 104.313 104.252C104.399 104.252 104.614 104.423 104.614 104.574C104.614 104.767 104.313 105.089 103.282 106.034C99.9325 109.126 95.7454 110.929 92.0736 110.929C90.5491 110.929 89.1534 110.607 87.8865 109.942C87.1779 109.577 85.7178 108.288 85.7178 108.052C85.7178 107.988 85.6963 107.945 85.6748 107.945C85.5675 107.945 85.3528 108.224 84.9877 108.782C83.7209 110.715 82.7975 111.595 82.0675 111.595ZM146.979 128.086C143.436 128.086 141.267 125.359 140.322 122.868C139.549 120.85 139.184 118.853 139.184 116.276C139.184 111.531 140.387 107.043 140.387 106.528V106.506C140.086 106.206 133.258 105.712 128.126 105.518C122.35 112.561 120.567 114.666 116.638 118.66C109.509 125.917 107.405 126.798 104.957 126.798C103.776 126.798 102.896 126.433 102.896 125.767C102.896 125.316 103.11 125.23 104.399 125.187C106.46 125.08 107.448 124.436 112.301 119.948C115.951 116.577 119.837 112.153 125.313 105.626C124.755 105.604 124.583 105.583 123.982 105.583C121.963 105.583 118.034 106.012 115.822 106.485C113.546 106.979 111.42 107.816 111.42 108.439C111.42 108.804 112.107 109.104 112.107 109.255C112.107 109.341 111.871 109.448 111.678 109.448C110.905 109.448 109.982 108.632 109.982 107.795C109.982 105.561 116.252 103.693 124.067 103.522L127.052 103.436C139.12 88.4694 145.196 81.5553 148.632 81.5553C149.706 81.5553 150.715 82.178 150.715 83.8528C150.715 85.6994 150.629 86.451 147.15 96.6718C146.12 99.7424 144.488 105.11 144.488 105.476C144.488 105.755 147.408 106.506 149.061 107.859C150.028 108.632 150.758 109.791 150.758 110.35C150.758 110.543 150.672 110.65 150.479 110.65C150.156 110.65 150.071 109.298 147.215 108.16C146.27 107.773 144.359 107.215 144.08 107.215C143.994 107.215 143.908 107.795 143.672 108.804C142.899 112.411 142.534 115.138 142.534 117.715C142.534 121.73 143.199 124.006 144.896 125.703C145.755 126.561 146.206 126.755 147.429 126.755C148.396 126.755 148.546 126.733 149.362 126.325C152.282 124.972 154.58 121.859 157.822 116.147C158.531 114.902 158.745 114.601 158.917 114.601H158.96C159.11 114.623 159.196 114.687 159.196 114.837C159.196 115.138 157.371 118.724 155.89 121.064C153.442 125.037 151.209 127.141 148.653 127.893C148.224 128.022 147.601 128.086 146.979 128.086ZM140.816 104.724C140.859 104.724 140.945 104.509 141.031 104.252C142.856 97.316 146.098 90.0798 147.15 86.8375C147.644 85.3559 148.031 83.8743 148.031 83.4878C148.031 83.4019 147.988 83.3804 147.945 83.3804C147.558 83.3804 145.862 84.7761 143.929 86.7086C139.979 90.681 137.531 93.7945 129.801 103.414C131.433 103.693 135.92 103.801 140.816 104.724ZM170.104 111.595C169.782 111.595 169.46 111.552 169.095 111.423C167.678 110.994 165.982 109.706 165.982 106.807V105.626C161.923 109.791 160.141 111.316 157.65 111.316C155.525 111.295 154.064 109.749 154.064 107.408C154.064 103.5 158.037 98.5614 160.592 98.5614C161.472 98.5614 161.88 99.1626 161.88 99.4418C161.88 99.5491 161.451 100.086 160.914 100.623C158.037 103.629 156.791 106.785 156.791 108.525C156.791 109.469 156.942 110.114 158.209 110.114C159.733 110.114 161.666 108.825 164.607 105.905C166.175 104.316 166.54 103.908 166.948 103.114C168.021 101.052 169.181 99.9786 170.255 99.9786C170.877 99.9786 171.758 100.451 171.758 101.095C171.758 101.417 171.521 101.847 170.899 102.791C168.988 105.669 168.816 107.472 168.816 108.632C168.816 109.899 169.546 110.5 170.534 110.5C172.359 110.5 174.485 109.469 178.371 106.034C179.574 104.96 180.046 104.595 180.261 104.595C180.261 104.595 180.411 104.595 180.411 104.681C180.411 104.896 177.663 107.558 176.074 108.868C174.055 110.564 171.5 111.595 170.104 111.595ZM184.362 111.595C183.911 111.595 183.503 111.531 183.117 111.423C181.764 110.994 180.991 109.942 180.991 108.546C180.991 106.764 182.15 104.939 184.92 102.341C185.715 101.589 186.359 100.902 186.359 100.837C186.359 100.472 184.34 100.988 184.34 99.3344C184.34 99.1197 184.405 98.862 184.512 98.5829C184.577 98.4326 185.758 96.3283 187.304 96.3283C188.227 96.3283 188.742 96.7792 188.742 97.3804C188.742 98.3467 186.874 99.8068 186.874 99.8712C186.874 99.8927 187.11 99.9142 187.368 99.9142C188.356 99.9571 189.322 100.58 189.322 101.396C189.322 102.169 188.571 103.221 186.831 105.003C184.04 107.859 183.31 109.018 183.31 109.813C183.31 110.371 183.782 110.629 184.77 110.629C186.788 110.629 189.601 109.448 194.969 105.862C197.009 104.488 196.988 104.488 197.074 104.488C197.224 104.488 197.353 104.552 197.353 104.638C197.353 104.81 196.945 105.132 195.613 106.077C190.353 109.856 186.788 111.595 184.362 111.595ZM213.328 111.595C212.706 111.595 211.975 111.552 211.675 111.445C209.828 110.865 208.518 109.448 208.132 107.666C208.089 107.429 208.067 107.043 208.067 106.614C208.067 105.025 208.218 105.153 208.218 104.896C208.218 104.874 208.218 104.853 208.196 104.853C208.089 104.853 207.66 105.261 206.865 106.077C204.138 108.825 201.518 110.801 199.285 110.801C196.623 110.801 195.571 108.825 195.571 106.506C195.571 102.77 199.457 98.7546 203.752 97.9387C204.417 97.8099 205.061 97.7454 205.663 97.7454C208.218 97.7454 209.291 98.5399 210.816 100.193C212.04 99.0123 212.727 98.3252 213.758 98.3252C214.423 98.3252 215.175 98.8405 215.175 99.3988C215.175 99.7424 214.896 100.236 213.929 101.718C212.276 104.273 211.439 106.377 211.439 107.88C211.439 109.405 212.319 110.328 213.865 110.328C216.034 110.328 219.233 109.083 223.248 105.905C224.021 105.304 224.687 104.788 224.752 104.788C224.816 104.788 224.923 104.874 225.009 104.96L225.031 105.003C225.031 105.433 221.724 108.224 219.727 109.426C217.322 110.887 215.261 111.595 213.328 111.595ZM199.564 109.641C200.939 109.641 203.258 108.245 206.5 105.239C208.347 103.543 208.862 102.963 209.614 101.804L210.107 101.031C208.862 100.451 207.874 99.9571 206.586 99.9571C203.515 99.9571 200.466 102.169 198.77 105.669C198.298 106.656 198.276 106.742 198.276 107.837V108.976C198.706 109.362 198.942 109.641 199.564 109.641Z" fill="white"/>
<path d="M130.121 47.9844C129.416 47.9344 129.128 48.0938 125.644 49.2466C120.876 50.8234 119.712 50.4929 113.438 57.5894C111.705 59.5491 109.781 61.5736 107.571 63.082C107.134 63.3801 107.289 64.0564 107.81 64.1492C109.62 64.4711 111.64 64.6409 113.876 64.5112C123.18 63.9709 128.884 58.7755 131.71 56.2021C133.843 54.2591 134.758 52.8344 134.522 51.4242C134.216 49.596 132.029 48.12 130.121 47.9844Z" fill="white"/>
<path d="M101.171 32.8866C103.794 36.9987 106.773 42.3292 105.835 47.1106C105.62 48.2016 105.13 50.698 103.596 51.2005C102.486 51.5644 101.84 50.5954 98.9389 49.3057C96.6411 48.2845 94.7101 47.4262 92.6838 47.9765C91.4477 48.3115 89.78 49.2787 89.4329 50.8115C89.182 51.9187 89.6695 53.1219 91.3671 55.0968C94.1826 58.3718 96.249 60.9262 99.8132 61.5301C105.999 62.5779 111.42 56.988 111.993 56.3811C114.043 54.208 116.251 51.3214 119.78 49.3872C120.18 49.1679 120.342 48.678 120.147 48.2665C119.22 46.3122 119.028 43.5592 118.999 43.135C118.763 39.7011 120.105 35.7296 121.294 34.3725C123.567 31.7789 125.58 29.0636 126.405 25.5649C127.13 22.4895 127.044 21.9505 124.383 20.1611C124.305 20.1085 117.268 15.2992 117.197 15.2377C116.13 14.3177 115.003 13.0817 114.58 11.7038C113.909 9.51538 114.324 6.46943 112.75 5.68847C112.48 5.55383 112.164 5.76186 112.164 6.06355V13.6851C112.164 14.1889 112.445 14.6388 112.881 14.8918C113.211 15.0832 113.537 15.3849 113.861 15.8073C115.962 18.5504 118.518 20.8369 120.892 23.3072C122.547 25.0295 120.528 28.4035 119.352 28.7003C118.491 28.9187 117.004 27.9374 117.096 26.1926C117.216 25.0606 117.207 23.3964 116.499 21.6227C116.123 20.6807 115.674 19.5775 114.52 18.8287C113.858 18.3991 113.066 18.1704 112.139 18.1361C109.682 18.0479 108.357 18.9277 107.402 21.2809C106.858 22.621 106.562 24.0024 106.603 25.4632C106.625 26.2359 106.576 26.7303 106.292 27.4183C106.165 27.7267 105.638 29.0029 104.805 29.1235C103.443 29.3203 101.362 26.4133 101.978 24.4266C102.135 23.9218 102.407 23.5828 102.595 23.4184C107.042 19.5334 109.495 16.0032 110.662 15.1408C111.014 14.881 111.221 14.4731 111.221 14.0354V5.95008C111.221 5.6646 110.935 5.45747 110.669 5.55969C110.519 5.61687 110.378 5.69252 110.25 5.78843C109.296 6.50189 109.389 8.77877 108.957 10.9478C108.741 12.033 108.275 12.9876 107.683 13.9125C106.697 15.4537 103.955 16.9871 102.955 17.689C102.479 18.0226 99.7034 19.9877 98.4219 20.8509C97.0689 21.7627 96.5225 23.4873 97.0926 25.016C97.9428 27.2958 98.3396 28.4458 101.171 32.8866Z" fill="white"/>
<path d="M129.392 15.6278C130.098 15.6278 129.903 15.3597 135.792 9.60837C136.153 9.24815 136.153 8.66458 135.792 8.30435C135.432 7.94412 134.849 7.94412 134.488 8.30435L128.74 14.0536C128.156 14.6374 128.579 15.6278 129.392 15.6278Z" fill="white"/>
<path d="M131.873 21.1528C132.416 21.1528 132.13 21.102 138.947 16.3366C139.362 16.0412 139.459 15.4657 139.165 15.0506C138.869 14.6354 138.294 14.5373 137.879 14.8326L131.338 19.4787C130.607 19.9987 130.976 21.1528 131.873 21.1528Z" fill="white"/>
<path d="M140.946 21.7643L133.441 24.3273C132.959 24.4921 132.701 25.0163 132.866 25.4981C133.028 25.9713 133.544 26.2385 134.037 26.0726L141.542 23.5096C142.024 23.3448 142.282 22.8207 142.117 22.3389C141.952 21.8571 141.426 21.6004 140.946 21.7643Z" fill="white"/>
<path d="M93.9443 15.3576C94.3045 15.7178 94.8881 15.7178 95.2483 15.3576C95.6085 14.9974 95.6085 14.4138 95.2483 14.0536L89.5 8.30435C89.1397 7.94412 88.5562 7.94412 88.196 8.30435C87.8357 8.66458 87.8357 9.24815 88.196 9.60837L93.9443 15.3576Z" fill="white"/>
<path d="M92.1183 21.1529C93.0154 21.1529 93.3835 19.9983 92.6533 19.4787L86.1124 14.8327C85.6955 14.5373 85.1218 14.6355 84.8264 15.0506C84.5319 15.4658 84.6292 16.0412 85.0444 16.3366C91.7981 21.0581 91.5724 21.1529 92.1183 21.1529Z" fill="white"/>
<path d="M91.1256 25.4975C91.2904 25.0157 91.0328 24.4916 90.551 24.3268L83.0448 21.7638C82.5612 21.5962 82.0388 21.8565 81.874 22.3383C81.7092 22.8201 81.9668 23.3443 82.4486 23.5091L89.9548 26.0721C90.4271 26.2352 90.959 25.9858 91.1256 25.4975Z" fill="white"/>
</svg>
