<svg width="119" height="120" viewBox="0 0 119 120" fill="none" xmlns="http://www.w3.org/2000/svg">
<path d="M0 60.0452C0 41.6814 0 32.4994 3.00009 25.2564C7.00022 15.5993 14.6728 7.92676 24.3299 3.92664C31.5729 0.926544 40.7548 0.926544 59.1186 0.926544C77.4825 0.926544 86.6644 0.926544 93.9074 3.92664C103.564 7.92676 111.237 15.5993 115.237 25.2564C118.237 32.4994 118.237 41.6814 118.237 60.0452C118.237 78.409 118.237 87.5909 115.237 94.834C111.237 104.491 103.564 112.164 93.9074 116.164C86.6644 119.164 77.4825 119.164 59.1186 119.164C40.7548 119.164 31.5729 119.164 24.3299 116.164C14.6728 112.164 7.00022 104.491 3.00009 94.834C0 87.5909 0 78.409 0 60.0452Z" fill="#BFF747"/>
<path d="M23.6122 60.8223C21.8816 63.5914 21.0163 66.4253 21.0163 69.3241C21.0163 72.4825 22.1628 75.3597 24.4559 77.9557C25.7106 79.4268 27.2899 80.5733 29.1936 81.3954C31.1405 82.2174 33.2606 82.6284 35.5537 82.6284C37.8468 82.6284 39.9019 82.1958 41.7191 81.3305C45.3535 79.5566 47.1706 76.6577 47.1706 72.634C47.1706 71.1197 46.6514 69.5188 45.613 67.8314C44.6179 66.1441 43.1036 64.6298 41.0701 63.2885L30.0373 55.89C25.7539 53.2075 23.6122 49.7462 23.6122 45.5061C23.6122 45.0735 23.6339 44.6408 23.6771 44.2082C23.9367 40.8767 25.2563 38.1725 27.636 36.0958C30.0589 33.9757 33.2822 32.9157 37.306 32.9157C39.7721 32.9157 42.7575 33.132 46.262 33.5647H50.2858L49.4421 43.1049H48.858C48.8147 40.855 47.9494 39.0595 46.262 37.7182C44.5747 36.3337 42.3465 35.6415 39.5774 35.6415C36.2027 35.6415 33.7581 36.6582 32.2438 38.6917C31.5083 39.7301 31.1405 40.855 31.1405 42.0665C31.1405 43.2779 31.5083 44.3163 32.2438 45.1816C32.9793 46.0037 34.1475 46.9123 35.7484 47.9074L47.8845 55.8251C50.3507 57.4259 52.276 59.308 53.6605 61.4713C55.3047 64.024 56.1267 66.6416 56.1267 69.3241C56.1267 71.0548 55.7589 72.8936 55.0234 74.8406C54.3312 76.7443 53.163 78.5182 51.5189 80.1623C49.918 81.8064 47.8413 83.1476 45.2886 84.186C42.7359 85.2244 39.9019 85.7436 36.7868 85.7436C33.7149 85.7436 30.9242 85.2028 28.4148 84.1211C23.7853 82.1742 20.8432 78.7778 19.5885 73.932C19.3289 72.8936 19.1991 71.8119 19.1991 70.687C19.1991 67.0527 20.4754 63.613 23.0281 60.368L23.6122 60.8223Z" fill="black"/>
<path d="M94.6143 60.8223C96.345 63.5914 97.2103 66.4253 97.2103 69.3241C97.2103 72.4825 96.0637 75.3597 93.7706 77.9557C92.5159 79.4268 90.9367 80.5733 89.033 81.3954C87.086 82.2174 84.966 82.6284 82.6729 82.6284C80.3798 82.6284 78.3246 82.1958 76.5075 81.3305C72.8731 79.5566 71.0559 76.6577 71.0559 72.634C71.0559 71.1197 71.5751 69.5188 72.6135 67.8314C73.6086 66.1441 75.1229 64.6298 77.1565 63.2885L88.1893 55.89C92.4727 53.2075 94.6143 49.7462 94.6143 45.5061C94.6143 45.0735 94.5927 44.6408 94.5494 44.2082C94.2898 40.8767 92.9702 38.1725 90.5906 36.0958C88.1677 33.9757 84.9444 32.9157 80.9206 32.9157C78.4544 32.9157 75.4691 33.132 71.9645 33.5647H67.9408L68.7845 43.1049H69.3686C69.4118 40.855 70.2771 39.0595 71.9645 37.7182C73.6519 36.3337 75.8801 35.6415 78.6491 35.6415C82.0239 35.6415 84.4684 36.6582 85.9827 38.6917C86.7183 39.7301 87.086 40.855 87.086 42.0665C87.086 43.2779 86.7183 44.3163 85.9827 45.1816C85.2472 46.0037 84.079 46.9123 82.4782 47.9074L70.342 55.8251C67.8759 57.4259 65.9505 59.308 64.566 61.4713C62.9219 64.024 62.0999 66.6416 62.0999 69.3241C62.0999 71.0548 62.4676 72.8936 63.2031 74.8406C63.8954 76.7443 65.0636 78.5182 66.7077 80.1623C68.3085 81.8064 70.3853 83.1476 72.938 84.186C75.4907 85.2244 78.3246 85.7436 81.4398 85.7436C84.5117 85.7436 87.3024 85.2028 89.8118 84.1211C94.4413 82.1742 97.3834 78.7778 98.6381 73.932C98.8977 72.8936 99.0275 71.8119 99.0275 70.687C99.0275 67.0527 97.7511 63.613 95.1984 60.368L94.6143 60.8223Z" fill="black"/>
</svg>
