<svg width="285" height="52" viewBox="0 0 285 52" fill="none" xmlns="http://www.w3.org/2000/svg">
<path d="M16.2581 51.0415C13.4145 51.0415 10.5932 50.7749 7.79406 50.2417C4.99494 49.7085 2.70676 48.9977 0.929542 48.109V39.1785C3.28436 40.3337 5.72804 41.2001 8.26058 41.7777C10.7931 42.3553 13.2146 42.6441 15.525 42.6441C18.102 42.6441 20.0569 42.1998 21.3898 41.3112C22.7227 40.4226 23.3892 39.1785 23.3892 37.579C23.3892 36.4238 23.056 35.4463 22.3895 34.6466C21.723 33.8468 20.7456 33.136 19.4571 32.5139C18.213 31.8475 16.2803 30.9811 13.6589 29.9147C9.3047 28.1375 6.15013 26.1604 4.19519 23.9833C2.24024 21.7617 1.26277 19.0293 1.26277 15.7858C1.26277 13.1644 1.97366 10.854 3.39544 8.85465C4.81722 6.81085 6.81659 5.23356 9.39356 4.1228C11.9705 3.01204 14.9474 2.45665 18.3241 2.45665C21.0788 2.45665 23.5225 2.67881 25.6551 3.12311C27.7878 3.56742 29.876 4.25609 31.9199 5.18913V13.8531C28.01 11.8981 24.1001 10.9207 20.1902 10.9207C17.7021 10.9207 15.7471 11.365 14.3254 12.2536C12.9036 13.0978 12.1927 14.3196 12.1927 15.9191C12.1927 17.0743 12.5259 18.0296 13.1924 18.7849C13.8588 19.5402 14.7919 20.2067 15.9915 20.7843C17.1911 21.3619 19.1461 22.206 21.8563 23.3168C25.0109 24.6497 27.4768 25.9382 29.254 27.1823C31.0312 28.3819 32.3419 29.8259 33.1861 31.5142C34.0303 33.1582 34.4524 35.202 34.4524 37.6457C34.4524 41.8666 32.9195 45.1544 29.8538 47.5092C26.8326 49.8641 22.3006 51.0415 16.2581 51.0415ZM40.1412 18.0518H49.5383V21.9172C50.9156 20.3622 52.5151 19.1625 54.3368 18.3184C56.1585 17.4742 58.0468 17.0521 60.0017 17.0521C62.4454 17.0521 64.4003 17.452 65.8665 18.2517C67.3327 19.007 68.4879 20.14 69.3321 21.6507C70.7095 20.1844 72.3756 19.0515 74.3305 18.2517C76.3299 17.452 78.3071 17.0521 80.262 17.0521C84.3496 17.0521 87.2598 18.0962 88.9926 20.1844C90.7699 22.2727 91.6585 25.294 91.6585 29.2483V50.0418H82.0615V30.6478C82.0615 28.604 81.6616 27.1378 80.8618 26.2492C80.0621 25.3606 78.7736 24.9163 76.9964 24.9163C74.5083 24.9163 72.5089 25.8938 70.9983 27.8487C71.0871 29.2705 71.1315 30.4257 71.1315 31.3143V50.0418H61.4679V30.3146C61.4679 28.3597 61.1125 26.9823 60.4016 26.1826C59.7351 25.3384 58.5577 24.9163 56.8693 24.9163C54.2479 24.9163 51.9153 26.4047 49.8715 29.3816V50.0418H40.1412V18.0518ZM98.3262 18.0518H108.056V22.6503C109.345 21.0953 111.144 19.9179 113.455 19.1181C115.765 18.2739 118.387 17.8518 121.319 17.8518V25.5161C118.253 25.5161 115.543 25.9826 113.188 26.9157C110.878 27.8487 109.278 29.2705 108.39 31.181V50.0418H98.3262V18.0518ZM125.596 0.79051H135.66V31.5809L147.323 18.0518H158.986L145.457 33.6469L160.652 50.0418H148.989L135.66 35.6463V50.0418H125.596V0.79051ZM177.926 51.0415C175.083 51.0415 172.261 50.7749 169.462 50.2417C166.663 49.7085 164.375 48.9977 162.598 48.109V39.1785C164.953 40.3337 167.396 41.2001 169.929 41.7777C172.461 42.3553 174.883 42.6441 177.193 42.6441C179.77 42.6441 181.725 42.1998 183.058 41.3112C184.391 40.4226 185.057 39.1785 185.057 37.579C185.057 36.4238 184.724 35.4463 184.058 34.6466C183.391 33.8468 182.414 33.136 181.125 32.5139C179.881 31.8475 177.948 30.9811 175.327 29.9147C170.973 28.1375 167.818 26.1604 165.863 23.9833C163.908 21.7617 162.931 19.0293 162.931 15.7858C162.931 13.1644 163.642 10.854 165.064 8.85465C166.485 6.81085 168.485 5.23356 171.062 4.1228C173.639 3.01204 176.616 2.45665 179.992 2.45665C182.747 2.45665 185.191 2.67881 187.323 3.12311C189.456 3.56742 191.544 4.25609 193.588 5.18913V13.8531C189.678 11.8981 185.768 10.9207 181.858 10.9207C179.37 10.9207 177.415 11.365 175.994 12.2536C174.572 13.0978 173.861 14.3196 173.861 15.9191C173.861 17.0743 174.194 18.0296 174.861 18.7849C175.527 19.5402 176.46 20.2067 177.66 20.7843C178.859 21.3619 180.814 22.206 183.525 23.3168C186.679 24.6497 189.145 25.9382 190.922 27.1823C192.699 28.3819 194.01 29.8259 194.854 31.5142C195.699 33.1582 196.121 35.202 196.121 37.6457C196.121 41.8666 194.588 45.1544 191.522 47.5092C188.501 49.8641 183.969 51.0415 177.926 51.0415ZM218.761 51.0415C214.895 51.0415 211.497 50.3528 208.564 48.9754C205.676 47.5537 203.432 45.5765 201.833 43.044C200.278 40.467 199.5 37.4679 199.5 34.0468C199.5 30.7145 200.278 27.7599 201.833 25.1829C203.432 22.6059 205.676 20.6065 208.564 19.1848C211.497 17.763 214.895 17.0521 218.761 17.0521C222.582 17.0521 225.936 17.763 228.824 19.1848C231.757 20.6065 234.001 22.6059 235.556 25.1829C237.155 27.7599 237.955 30.7145 237.955 34.0468C237.955 37.4679 237.155 40.467 235.556 43.044C234.001 45.5765 231.779 47.5537 228.891 48.9754C226.003 50.3528 222.626 51.0415 218.761 51.0415ZM218.761 43.1773C221.471 43.1773 223.626 42.3553 225.226 40.7114C226.825 39.023 227.625 36.8015 227.625 34.0468C227.625 31.2032 226.825 28.9817 225.226 27.3822C223.67 25.7383 221.516 24.9163 218.761 24.9163C216.006 24.9163 213.829 25.7383 212.23 27.3822C210.63 28.9817 209.83 31.2032 209.83 34.0468C209.83 36.8015 210.63 39.023 212.23 40.7114C213.874 42.3553 216.051 43.1773 218.761 43.1773ZM243.183 25.3162H238.584V18.0518H243.183V13.3199C243.183 9.18788 244.449 6.0111 246.982 3.78957C249.514 1.56805 252.802 0.457281 256.845 0.457281C259.156 0.457281 261.155 0.812725 262.843 1.52361V9.58776C261.555 9.01016 260.2 8.72136 258.778 8.72136C256.912 8.72136 255.512 9.14345 254.579 9.98764C253.691 10.8318 253.246 12.2092 253.246 14.1197V18.0518H260.844V25.3162H253.246V50.0418H243.183V25.3162ZM276.905 51.0415C273.173 51.0415 270.329 50.0196 268.374 47.9758C266.464 45.8875 265.508 42.9995 265.508 39.3118V25.3162H260.843V18.0518H265.508V8.45478H275.572V18.0518H283.103V25.3162H275.572V37.9789C275.572 39.845 275.927 41.2001 276.638 42.0443C277.349 42.844 278.615 43.2439 280.437 43.2439C281.903 43.2439 283.303 42.8885 284.636 42.1776V49.7085C282.592 50.5972 280.015 51.0415 276.905 51.0415Z" fill="white"/>
</svg>
