<svg width="211" height="204" viewBox="0 0 211 204" fill="none" xmlns="http://www.w3.org/2000/svg">
<rect x="5.28192" width="207.199" height="39.3199" rx="19.66" transform="rotate(7.72 5.28192 0)" fill="#FFD365"/>
<path d="M19.7313 27.2512L18.0965 15.2868L19.9263 15.5348L20.9623 24.7691L21.0693 24.7836L24.6164 16.1706L26.4293 16.4164L27.5546 25.6685L27.6616 25.683L31.1138 17.0514L32.9492 17.3002L28.1825 28.3968L26.4314 28.1595L25.1756 19.1936L25.0855 19.1814L21.488 27.4893L19.7313 27.2512ZM35.6893 29.5922C34.8373 29.4767 34.1282 29.1952 33.5619 28.7477C33 28.2969 32.597 27.7166 32.353 27.007C32.1132 26.2941 32.0542 25.4891 32.1758 24.592C32.2959 23.7061 32.5669 22.9478 32.9888 22.3169C33.4144 21.6866 33.9514 21.2223 34.5996 20.9241C35.2515 20.6264 35.9791 20.532 36.7824 20.6409C37.2703 20.707 37.7324 20.8518 38.1684 21.0753C38.6045 21.2988 38.9811 21.6079 39.2984 22.0026C39.6157 22.3973 39.842 22.8847 39.9774 23.465C40.1133 24.0415 40.1281 24.722 40.0218 25.5065L39.9409 26.1033L33.0663 25.1714L33.2372 23.9102L38.4622 24.6185C38.5222 24.1756 38.4853 23.7711 38.3514 23.4051C38.2181 23.0354 38.0016 22.7289 37.702 22.4857C37.4062 22.243 37.0405 22.0921 36.6051 22.0331C36.1322 21.969 35.7035 22.0294 35.3191 22.2143C34.939 22.3959 34.6281 22.6596 34.3862 23.0052C34.1487 23.3476 34.0007 23.7346 33.9422 24.1663L33.8086 25.1516C33.7302 25.7297 33.7649 26.2351 33.9127 26.668C34.0641 27.1013 34.3093 27.4499 34.6482 27.7137C34.9875 27.9738 35.403 28.1372 35.8948 28.2038C36.2138 28.2471 36.5108 28.2415 36.7858 28.187C37.0612 28.1288 37.3072 28.0207 37.5235 27.8627C37.7399 27.7047 37.9171 27.4975 38.055 27.241L39.6095 27.7441C39.4183 28.196 39.1336 28.576 38.7554 28.8841C38.3816 29.1889 37.9337 29.4053 37.4117 29.5333C36.8941 29.6581 36.3199 29.6777 35.6893 29.5922ZM41.4264 30.1922L42.9895 18.6613L44.673 18.8895L44.0921 23.1742L44.1935 23.1879C44.3155 23.021 44.4845 22.8317 44.7005 22.6202C44.9165 22.4087 45.1997 22.2368 45.5502 22.1047C45.9011 21.9688 46.345 21.9372 46.8818 22.01C47.5799 22.1046 48.1791 22.3655 48.6793 22.7926C49.1795 23.2197 49.5403 23.7866 49.7618 24.4932C49.987 25.2003 50.0363 26.0212 49.9096 26.9558C49.7829 27.8905 49.5185 28.6707 49.1164 29.2966C48.7148 29.9188 48.2174 30.3731 47.6243 30.6597C47.0317 30.9425 46.3863 31.0366 45.6882 30.9419C45.1627 30.8707 44.7448 30.7242 44.4347 30.5025C44.1283 30.2813 43.8973 30.0398 43.7417 29.7779C43.586 29.516 43.47 29.2862 43.3936 29.0885L43.2528 29.0694L43.0704 30.4151L41.4264 30.1922ZM43.6622 26.0917C43.5798 26.6998 43.5958 27.2448 43.7101 27.7266C43.8244 28.2085 44.0311 28.6015 44.33 28.9058C44.6295 29.2063 45.0213 29.3894 45.5055 29.4551C46.0085 29.5233 46.447 29.447 46.8209 29.2263C47.1954 29.0018 47.5002 28.6705 47.7355 28.2322C47.9745 27.7944 48.1332 27.2865 48.2115 26.7085C48.2889 26.1379 48.272 25.6138 48.1609 25.1363C48.0536 24.6592 47.8469 24.2661 47.541 23.9571C47.2388 23.6485 46.8343 23.4599 46.3276 23.3912C45.8396 23.3251 45.4097 23.3948 45.0378 23.6005C44.6696 23.8067 44.3687 24.1233 44.1349 24.5504C43.9012 24.9774 43.7436 25.4912 43.6622 26.0917ZM58.5827 25.861L57.0203 25.9244C56.9829 25.7206 56.9068 25.521 56.7918 25.3258C56.6806 25.1311 56.5163 24.9616 56.2988 24.8175C56.0813 24.6733 55.7981 24.5776 55.449 24.5302C54.9723 24.4656 54.5599 24.5187 54.2119 24.6894C53.8643 24.8563 53.6679 25.1068 53.6226 25.4409C53.5834 25.7299 53.6589 25.9771 53.8489 26.1826C54.0389 26.388 54.3647 26.5793 54.8261 26.7565L56.1572 27.2581C56.928 27.5499 57.4826 27.9136 57.8211 28.3494C58.1596 28.7852 58.2873 29.309 58.2044 29.9208C58.1342 30.4388 57.9214 30.8802 57.5662 31.2448C57.2152 31.6063 56.7577 31.8653 56.1937 32.0221C55.6334 32.1793 55.0042 32.2106 54.306 32.1159C53.3376 31.9846 52.5755 31.6711 52.0196 31.1753C51.4642 30.6757 51.169 30.0336 51.134 29.2491L52.7947 29.2219C52.8385 29.6598 53.0034 30.009 53.2891 30.2694C53.5754 30.5261 53.972 30.6888 54.4787 30.7575C55.0305 30.8323 55.487 30.7776 55.8484 30.5934C56.2102 30.4055 56.4138 30.1445 56.4591 29.8104C56.4957 29.5401 56.4252 29.2993 56.2474 29.0879C56.0734 28.877 55.7863 28.6967 55.3861 28.5468L53.9658 28.0275C53.1837 27.7342 52.6266 27.3605 52.2944 26.9064C51.966 26.4529 51.8435 25.9183 51.9269 25.3028C51.9961 24.7923 52.1993 24.3649 52.5365 24.0208C52.8737 23.6766 53.3082 23.4316 53.8402 23.2858C54.3727 23.1363 54.9636 23.1055 55.613 23.1936C56.5476 23.3203 57.2558 23.6227 57.7376 24.1008C58.22 24.5752 58.5017 25.162 58.5827 25.861ZM59.7165 32.6716L60.8888 24.0234L62.5723 24.2517L61.3999 32.8998L59.7165 32.6716ZM61.9199 22.8043C61.6271 22.7646 61.3889 22.6329 61.2051 22.4093C61.0256 22.1823 60.9545 21.9319 60.9916 21.6579C61.0293 21.3801 61.1646 21.1576 61.3975 20.9904C61.6346 20.82 61.8996 20.7546 62.1924 20.7943C62.4851 20.834 62.7213 20.9673 62.9008 21.1942C63.0845 21.4179 63.1575 21.6686 63.1199 21.9464C63.0827 22.2204 62.9456 22.4426 62.7084 22.613C62.4755 22.7802 62.2127 22.844 61.9199 22.8043ZM68.874 25.1059L68.6908 26.4572L63.967 25.8168L64.1502 24.4656L68.874 25.1059ZM65.6979 22.5653L67.3814 22.7935L66.2723 30.9744C66.2281 31.301 66.2435 31.5534 66.3188 31.7318C66.3945 31.9064 66.5052 32.0342 66.651 32.1151C66.801 32.1928 66.9679 32.2441 67.1519 32.2691C67.287 32.2874 67.4065 32.294 67.5104 32.289C67.6143 32.284 67.6951 32.2796 67.753 32.276L67.8685 33.7079C67.7658 33.7322 67.6218 33.7509 67.4366 33.764C67.2508 33.7809 67.0225 33.7729 66.7518 33.74C66.3078 33.6875 65.9056 33.5527 65.5452 33.3356C65.1847 33.1186 64.9096 32.8213 64.72 32.444C64.5303 32.0666 64.4708 31.617 64.5416 31.0953L65.6979 22.5653ZM73.1746 34.6738C72.3226 34.5583 71.6134 34.2767 71.0472 33.8292C70.4852 33.3784 70.0822 32.7982 69.8382 32.0885C69.5985 31.3756 69.5394 30.5706 69.6611 29.6735C69.7811 28.7877 70.0521 28.0293 70.474 27.3985C70.8997 26.7681 71.4366 26.3038 72.0848 26.0056C72.7368 25.7079 73.4644 25.6135 74.2677 25.7224C74.7556 25.7886 75.2176 25.9334 75.6537 26.1569C76.0897 26.3803 76.4664 26.6894 76.7837 27.0841C77.101 27.4788 77.3273 27.9663 77.4627 28.5465C77.5986 29.123 77.6134 29.8035 77.507 30.588L77.4261 31.1848L70.5515 30.2529L70.7225 28.9917L75.9474 29.7C76.0075 29.2571 75.9706 28.8526 75.8367 28.4866C75.7033 28.1169 75.4869 27.8104 75.1873 27.5672C74.8914 27.3245 74.5258 27.1737 74.0904 27.1146C73.6174 27.0505 73.1888 27.1109 72.8044 27.2958C72.4243 27.4774 72.1133 27.7411 71.8715 28.0867C71.634 28.4291 71.4859 28.8162 71.4274 29.2478L71.2939 30.2331C71.2155 30.8112 71.2502 31.3166 71.3979 31.7495C71.5494 32.1829 71.7946 32.5315 72.1334 32.7953C72.4728 33.0553 72.8883 33.2187 73.38 33.2854C73.6991 33.3286 73.9961 33.323 74.271 33.2685C74.5465 33.2103 74.7924 33.1022 75.0088 32.9442C75.2252 32.7863 75.4023 32.579 75.5403 32.3225L77.0948 32.8257C76.9035 33.2776 76.6189 33.6575 76.2407 33.9656C75.8668 34.2704 75.4189 34.4868 74.897 34.6148C74.3793 34.7396 73.8052 34.7592 73.1746 34.6738ZM86.8405 36.3486L83.1076 35.8425L84.6708 24.3116L88.5219 24.8337C89.6517 24.9869 90.5907 25.3492 91.3389 25.9208C92.0876 26.4887 92.6195 27.2316 92.9346 28.1497C93.254 29.0645 93.3326 30.1207 93.1703 31.318C93.0074 32.5192 92.6479 33.5216 92.0917 34.3254C91.5393 35.1297 90.8186 35.7086 89.9298 36.0621C89.0414 36.4118 88.0116 36.5073 86.8405 36.3486ZM85.0535 34.5582L86.9509 34.8154C87.8292 34.9345 88.5817 34.8683 89.2083 34.6168C89.8353 34.3617 90.3361 33.9383 90.7107 33.3469C91.0857 32.7518 91.335 31.9981 91.4586 31.086C91.5813 30.1814 91.5408 29.3942 91.3373 28.7244C91.1375 28.0552 90.7763 27.5188 90.2538 27.1154C89.7313 26.7121 89.0497 26.4534 88.2089 26.3394L86.2045 26.0677L85.0535 34.5582ZM98.1183 38.0551C97.2663 37.9396 96.5571 37.6581 95.9909 37.2106C95.429 36.7598 95.026 36.1796 94.782 35.4699C94.5422 34.757 94.4832 33.952 94.6048 33.0549C94.7249 32.1691 94.9959 31.4107 95.4178 30.7798C95.8434 30.1495 96.3803 29.6852 97.0286 29.387C97.6805 29.0893 98.4081 28.9949 99.2114 29.1038C99.6993 29.17 100.161 29.3148 100.597 29.5382C101.033 29.7617 101.41 30.0708 101.727 30.4655C102.045 30.8602 102.271 31.3476 102.406 31.9279C102.542 32.5044 102.557 33.1849 102.451 33.9694L102.37 34.5662L95.4952 33.6343L95.6662 32.3731L100.891 33.0814C100.951 32.6385 100.914 32.234 100.78 31.868C100.647 31.4983 100.431 31.1918 100.131 30.9486C99.8352 30.7059 99.4695 30.555 99.0341 30.496C98.5612 30.4319 98.1325 30.4923 97.7481 30.6772C97.368 30.8588 97.057 31.1225 96.8152 31.4681C96.5777 31.8105 96.4297 32.1976 96.3712 32.6292L96.2376 33.6145C96.1592 34.1926 96.1939 34.698 96.3416 35.1309C96.4931 35.5643 96.7383 35.9128 97.0772 36.1767C97.4165 36.4367 97.832 36.6001 98.3238 36.6667C98.6428 36.71 98.9398 36.7044 99.2148 36.6499C99.4902 36.5917 99.7362 36.4836 99.9525 36.3256C100.169 36.1677 100.346 35.9604 100.484 35.7039L102.038 36.207C101.847 36.6589 101.563 37.0389 101.184 37.347C100.811 37.6518 100.363 37.8682 99.8407 37.9962C99.3231 38.121 98.7489 38.1406 98.1183 38.0551ZM112.043 30.958L107.735 39.181L105.933 38.9368L103.964 29.8627L105.771 30.1077L107.059 37.0596L107.149 37.0718L110.236 30.713L112.043 30.958ZM115.862 40.4605C115.01 40.345 114.301 40.0635 113.735 39.616C113.173 39.1652 112.77 38.5849 112.526 37.8753C112.286 37.1624 112.227 36.3574 112.349 35.4603C112.469 34.5744 112.74 33.8161 113.162 33.1852C113.587 32.5549 114.124 32.0906 114.773 31.7924C115.424 31.4947 116.152 31.4003 116.955 31.5092C117.443 31.5753 117.905 31.7201 118.341 31.9436C118.777 32.1671 119.154 32.4762 119.471 32.8709C119.789 33.2656 120.015 33.753 120.15 34.3333C120.286 34.9098 120.301 35.5903 120.195 36.3748L120.114 36.9716L113.239 36.0397L113.41 34.7785L118.635 35.4868C118.695 35.0439 118.658 34.6394 118.524 34.2734C118.391 33.9037 118.175 33.5972 117.875 33.354C117.579 33.1113 117.213 32.9604 116.778 32.9014C116.305 32.8373 115.876 32.8977 115.492 33.0826C115.112 33.2642 114.801 33.5279 114.559 33.8735C114.322 34.2159 114.174 34.6029 114.115 35.0346L113.982 36.0199C113.903 36.598 113.938 37.1034 114.086 37.5363C114.237 37.9696 114.482 38.3182 114.821 38.5821C115.16 38.8421 115.576 39.0055 116.068 39.0721C116.387 39.1154 116.684 39.1098 116.959 39.0553C117.234 38.9971 117.48 38.889 117.696 38.731C117.913 38.573 118.09 38.3658 118.228 38.1093L119.782 38.6124C119.591 39.0643 119.307 39.4443 118.928 39.7524C118.555 40.0572 118.107 40.2736 117.585 40.4016C117.067 40.5264 116.493 40.546 115.862 40.4605ZM124.711 29.7395L123.148 41.2704L121.464 41.0422L123.027 29.5113L124.711 29.7395ZM129.032 42.2458C128.221 42.1359 127.538 41.8542 126.985 41.4006C126.431 40.9471 126.032 40.3636 125.788 39.6502C125.545 38.9368 125.484 38.1334 125.605 37.2401C125.726 36.343 126 35.5811 126.425 34.9545C126.85 34.3279 127.39 33.8698 128.045 33.5801C128.699 33.2904 129.432 33.2005 130.243 33.3105C131.054 33.4204 131.736 33.7021 132.29 34.1556C132.844 34.6091 133.242 35.1945 133.485 35.9116C133.728 36.6288 133.789 37.436 133.667 38.333C133.546 39.2264 133.273 39.9845 132.849 40.6073C132.424 41.2302 131.885 41.6864 131.23 41.9761C130.575 42.2658 129.842 42.3557 129.032 42.2458ZM129.229 40.8333C129.754 40.9046 130.209 40.8247 130.592 40.5938C130.975 40.3628 131.28 40.0277 131.508 39.5884C131.739 39.1496 131.893 38.6524 131.968 38.0969C132.043 37.5451 132.027 37.027 131.921 36.5424C131.818 36.0546 131.614 35.6465 131.307 35.3181C131 34.9898 130.583 34.79 130.058 34.7188C129.528 34.6471 129.07 34.7283 128.683 34.9625C128.299 35.1972 127.992 35.5358 127.76 35.9783C127.532 36.4176 127.381 36.9132 127.306 37.4649C127.231 38.0205 127.244 38.5403 127.347 39.0243C127.453 39.5089 127.66 39.9135 127.968 40.2381C128.279 40.5632 128.7 40.7616 129.229 40.8333ZM134.526 46.1155L136.138 34.2243L137.782 34.4472L137.592 35.8491L137.733 35.8682C137.855 35.7012 138.024 35.512 138.24 35.3005C138.456 35.0889 138.739 34.9171 139.089 34.7849C139.44 34.649 139.884 34.6175 140.421 34.6902C141.119 34.7849 141.718 35.0457 142.219 35.4729C142.719 35.9 143.08 36.4669 143.301 37.1735C143.526 37.8806 143.576 38.7015 143.449 39.6361C143.322 40.5707 143.058 41.351 142.656 41.9769C142.254 42.599 141.757 43.0534 141.164 43.34C140.571 43.6228 139.926 43.7168 139.227 43.6222C138.702 43.551 138.284 43.4045 137.974 43.1828C137.668 42.9616 137.437 42.72 137.281 42.4581C137.125 42.1962 137.009 41.9664 136.933 41.7688L136.832 41.755L136.21 46.3437L134.526 46.1155ZM137.202 38.772C137.119 39.3801 137.135 39.925 137.249 40.4069C137.364 40.8887 137.57 41.2818 137.869 41.5861C138.169 41.8866 138.561 42.0697 139.045 42.1353C139.548 42.2035 139.986 42.1273 140.36 41.9065C140.735 41.6821 141.04 41.3507 141.275 40.9124C141.514 40.4747 141.673 39.9668 141.751 39.3887C141.828 38.8182 141.811 38.2941 141.7 37.8165C141.593 37.3394 141.386 36.9464 141.08 36.6373C140.778 36.3288 140.374 36.1402 139.867 36.0715C139.379 36.0053 138.949 36.0751 138.577 36.2808C138.209 36.487 137.908 36.8036 137.674 37.2306C137.441 37.6576 137.283 38.1714 137.202 38.772ZM144.751 44.199L145.924 35.5508L147.539 35.7699L147.349 37.1774L147.456 37.1919C147.7 36.7397 148.045 36.408 148.491 36.197C148.936 35.9822 149.445 35.9135 150.015 35.9908C150.593 36.0692 151.059 36.2699 151.413 36.5931C151.77 36.9168 152.011 37.3278 152.134 37.8262L152.225 37.8384C152.494 37.4047 152.872 37.0814 153.359 36.8684C153.847 36.6517 154.403 36.5856 155.026 36.6701C155.811 36.7764 156.417 37.1091 156.846 37.6679C157.279 38.2273 157.428 39.0025 157.293 39.9934L156.507 45.7927L154.824 45.5644L155.589 39.9229C155.668 39.3373 155.566 38.8915 155.283 38.5855C154.999 38.2795 154.636 38.0965 154.193 38.0365C153.645 37.9622 153.196 38.0733 152.846 38.3699C152.497 38.6628 152.287 39.072 152.215 39.5975L151.468 45.1095L149.79 44.8821L150.57 39.1335C150.633 38.6643 150.538 38.2673 150.284 37.9423C150.03 37.6174 149.668 37.4231 149.199 37.3595C148.88 37.3162 148.574 37.3607 148.281 37.493C147.992 37.622 147.745 37.8236 147.539 38.0978C147.338 38.3724 147.21 38.7049 147.157 39.0953L146.435 44.4272L144.751 44.199ZM162.467 46.7783C161.615 46.6628 160.906 46.3813 160.34 45.9338C159.778 45.483 159.375 44.9028 159.131 44.1931C158.891 43.4802 158.832 42.6752 158.954 41.7781C159.074 40.8922 159.345 40.1339 159.767 39.503C160.192 38.8727 160.729 38.4084 161.377 38.1102C162.029 37.8125 162.757 37.7181 163.56 37.827C164.048 37.8931 164.51 38.038 164.946 38.2614C165.382 38.4849 165.759 38.794 166.076 39.1887C166.394 39.5834 166.62 40.0708 166.755 40.6511C166.891 41.2276 166.906 41.9081 166.8 42.6926L166.719 43.2894L159.844 42.3575L160.015 41.0963L165.24 41.8046C165.3 41.3617 165.263 40.9572 165.129 40.5912C164.996 40.2215 164.78 39.915 164.48 39.6718C164.184 39.4291 163.818 39.2782 163.383 39.2192C162.91 39.1551 162.481 39.2155 162.097 39.4004C161.717 39.582 161.406 39.8457 161.164 40.1913C160.927 40.5337 160.779 40.9208 160.72 41.3524L160.587 42.3377C160.508 42.9158 160.543 43.4212 160.691 43.8541C160.842 44.2874 161.087 44.636 161.426 44.8999C161.765 45.1599 162.181 45.3233 162.673 45.3899C162.992 45.4332 163.289 45.4276 163.564 45.3731C163.839 45.3149 164.085 45.2068 164.301 45.0488C164.518 44.8908 164.695 44.6836 164.833 44.4271L166.387 44.9302C166.196 45.3821 165.912 45.7621 165.533 46.0702C165.159 46.375 164.712 46.5914 164.19 46.7194C163.672 46.8442 163.098 46.8638 162.467 46.7783ZM170.449 42.4533L169.753 47.5882L168.069 47.36L169.242 38.7118L170.857 38.9309L170.667 40.3384L170.774 40.3529C171.035 39.922 171.396 39.5964 171.858 39.3761C172.323 39.1564 172.881 39.0905 173.53 39.1785C174.12 39.2584 174.619 39.4522 175.028 39.76C175.438 40.064 175.732 40.4747 175.91 40.992C176.089 41.5092 176.13 42.1245 176.033 42.8377L175.287 48.3385L173.604 48.1103L174.322 42.8121C174.407 42.1853 174.31 41.6733 174.031 41.2762C173.753 40.8754 173.329 40.6363 172.758 40.5589C172.368 40.506 172.009 40.5434 171.682 40.6711C171.359 40.7993 171.087 41.0147 170.866 41.3173C170.65 41.6167 170.511 41.9954 170.449 42.4533ZM182.754 40.5436L182.571 41.8949L177.847 41.2545L178.03 39.9032L182.754 40.5436ZM179.578 38.003L181.262 38.2312L180.153 46.4121C180.108 46.7386 180.124 46.9911 180.199 47.1695C180.275 47.3441 180.385 47.4719 180.531 47.5528C180.681 47.6305 180.848 47.6818 181.032 47.7067C181.167 47.7251 181.287 47.7317 181.391 47.7267C181.495 47.7216 181.575 47.7173 181.633 47.7137L181.749 49.1456C181.646 49.1699 181.502 49.1886 181.317 49.2017C181.131 49.2186 180.903 49.2106 180.632 49.1777C180.188 49.1252 179.786 48.9904 179.425 48.7733C179.065 48.5562 178.79 48.259 178.6 47.8816C178.411 47.5043 178.351 47.0547 178.422 46.533L179.578 38.003Z" fill="black"/>
<rect x="16.3982" y="54.6985" width="99.754" height="39.3199" rx="19.66" transform="rotate(-8.78 16.3982 54.6985)" fill="white"/>
<path d="M39.0795 76.0425L37.3033 64.5425L41.5147 63.892C42.3308 63.766 43.0273 63.7964 43.6043 63.9832C44.1806 64.1663 44.637 64.4657 44.9733 64.8814C45.3091 65.2933 45.5209 65.7837 45.6088 66.3528C45.6828 66.8319 45.6572 67.2498 45.5322 67.6064C45.4065 67.9593 45.2112 68.2577 44.9461 68.5018C44.6842 68.7416 44.3842 68.9336 44.0462 69.0777L44.0635 69.1901C44.4482 69.1498 44.8398 69.2158 45.2382 69.3881C45.6397 69.556 45.9924 69.8293 46.2962 70.2078C46.5999 70.5863 46.7978 71.0732 46.8897 71.6684C46.9805 72.2561 46.9235 72.8053 46.7187 73.3161C46.5172 73.8225 46.1511 74.2565 45.6206 74.6183C45.0894 74.9763 44.3784 75.2241 43.4874 75.3617L39.0795 76.0425ZM40.5848 74.2865L43.0892 73.8997C43.9202 73.7713 44.4906 73.5184 44.8002 73.1409C45.1099 72.7635 45.2274 72.3333 45.1528 71.8504C45.0967 71.4873 44.9536 71.1683 44.7233 70.8934C44.493 70.6185 44.1937 70.4175 43.8253 70.2904C43.4606 70.1628 43.0462 70.1348 42.582 70.2065L40.0158 70.6029L40.5848 74.2865ZM39.8068 69.2496L42.1315 68.8905C42.5208 68.8304 42.8593 68.7015 43.1469 68.5037C43.4382 68.3054 43.6548 68.0574 43.7966 67.7595C43.9415 67.4573 43.9854 67.1209 43.9282 66.7503C43.8547 66.2749 43.6266 65.9019 43.2437 65.6314C42.8608 65.361 42.3249 65.2789 41.6361 65.3853L39.2665 65.7513L39.8068 69.2496ZM48.5843 74.5745L47.2521 65.9495L48.8749 65.6988L49.0865 67.0689L49.1764 67.0551C49.2619 66.5666 49.4826 66.1588 49.8383 65.8317C50.1972 65.5003 50.6294 65.2956 51.1348 65.2175C51.2396 65.2014 51.3637 65.186 51.5071 65.1715C51.6543 65.1565 51.7699 65.1482 51.854 65.1467L52.102 66.7527C52.0317 66.7444 51.9088 66.7423 51.7331 66.7464C51.5568 66.7468 51.3826 66.7603 51.2104 66.7869C50.8136 66.8482 50.4729 66.987 50.1882 67.2035C49.9066 67.4156 49.6989 67.6834 49.5649 68.0069C49.4303 68.3267 49.3919 68.6737 49.4497 69.0481L50.2632 74.3151L48.5843 74.5745ZM56.4087 73.5614C55.8621 73.6459 55.3524 73.6211 54.8794 73.4872C54.4059 73.3495 54.0099 73.106 53.6915 72.7565C53.3768 72.4065 53.1758 71.9489 53.0885 71.3836C53.0133 70.897 53.0451 70.482 53.1837 70.1386C53.3223 69.7952 53.5365 69.5073 53.8264 69.2747C54.1162 69.0421 54.4505 68.8487 54.8291 68.6944C55.2077 68.5401 55.5973 68.4071 55.9978 68.2954C56.5051 68.1557 56.9169 68.0423 57.2331 67.9551C57.5486 67.8642 57.7725 67.7626 57.9046 67.6502C58.0367 67.5378 58.0872 67.3805 58.0559 67.1784L58.0499 67.1391C57.9741 66.6487 57.7769 66.2901 57.4583 66.0634C57.1434 65.836 56.7145 65.7643 56.1717 65.8481C55.6065 65.9354 55.1804 66.1297 54.8934 66.4308C54.6096 66.7276 54.4294 67.0371 54.3527 67.3594L52.7193 67.2437C52.8255 66.6907 53.0335 66.2255 53.3431 65.8481C53.6559 65.4663 54.0369 65.166 54.486 64.9472C54.9346 64.7246 55.419 64.5731 55.9394 64.4927C56.2838 64.4395 56.6551 64.4243 57.0534 64.4471C57.4549 64.4656 57.8406 64.5555 58.2104 64.7169C58.5841 64.8776 58.9101 65.1397 59.1885 65.5029C59.4663 65.8625 59.6538 66.3567 59.7509 66.9856L60.6355 72.7131L58.9959 72.9664L58.8138 71.7872L58.7464 71.7976C58.6714 72.0315 58.5415 72.27 58.3567 72.5132C58.172 72.7563 57.92 72.9735 57.6007 73.1646C57.2815 73.3557 56.8841 73.488 56.4087 73.5614ZM56.5655 72.1574C57.0297 72.0857 57.4124 71.9327 57.7135 71.6984C58.0183 71.4635 58.234 71.1849 58.3605 70.8626C58.4902 70.5359 58.5287 70.2023 58.4761 69.8616L58.3044 68.7498C58.2538 68.8189 58.1464 68.893 57.9823 68.972C57.8213 69.0467 57.6352 69.1195 57.4239 69.1905C57.2119 69.2577 57.0053 69.3222 56.8041 69.384C56.6022 69.442 56.4335 69.491 56.2979 69.5311C55.9786 69.6226 55.6916 69.7378 55.4371 69.8768C55.1864 70.0152 54.9947 70.1885 54.8621 70.3968C54.7326 70.6008 54.691 70.8525 54.7372 71.152C54.8014 71.5675 55.0035 71.8583 55.3434 72.0242C55.6827 72.1864 56.0901 72.2308 56.5655 72.1574ZM63.0533 67.0964L63.8442 72.2175L62.1653 72.4769L60.8331 63.8519L62.4447 63.6029L62.6615 65.0068L62.7682 64.9903C62.8961 64.5029 63.1501 64.0881 63.5304 63.7457C63.9143 63.4028 64.4301 63.1813 65.0778 63.0813C65.6655 62.9905 66.1993 63.0345 66.6792 63.2134C67.1585 63.3885 67.5571 63.6987 67.875 64.144C68.193 64.5894 68.4068 65.1677 68.5167 65.8789L69.364 71.365L67.6851 71.6243L66.869 66.3404C66.7724 65.7152 66.5341 65.2519 66.1541 64.9503C65.7735 64.6449 65.2987 64.5362 64.7296 64.6241C64.3403 64.6842 64.0071 64.8219 63.7298 65.0372C63.4564 65.2519 63.2568 65.5357 63.1312 65.8886C63.0087 66.2371 62.9827 66.6397 63.0533 67.0964ZM74.164 70.7961C73.4677 70.9037 72.8188 70.8218 72.2173 70.5506C71.619 70.2751 71.1133 69.83 70.7003 69.2154C70.2904 68.5965 70.0135 67.8209 69.8695 66.8888C69.7255 65.9567 69.7577 65.1353 69.9661 64.4247C70.1782 63.7136 70.5304 63.1398 71.0226 62.7035C71.5148 62.2672 72.1072 61.9956 72.7997 61.8886C73.335 61.8059 73.7794 61.8293 74.1328 61.9587C74.4894 62.0837 74.7758 62.2503 74.9919 62.4584C75.2118 62.6659 75.3861 62.8517 75.5149 63.0158L75.616 63.0002L74.956 58.727L76.635 58.4677L78.4112 69.9677L76.7715 70.2209L76.5642 68.8789L76.4238 68.9006C76.3511 69.0996 76.2375 69.3318 76.083 69.5971C75.9322 69.8619 75.7057 70.1076 75.4035 70.3345C75.1012 70.5613 74.6881 70.7152 74.164 70.7961ZM74.3134 69.307C74.7963 69.2324 75.1847 69.0421 75.4786 68.7361C75.7756 68.4258 75.9749 68.0289 76.0766 67.5456C76.182 67.0618 76.1879 66.5166 76.0942 65.9102C76.0017 65.3112 75.8347 64.8004 75.5931 64.3778C75.3515 63.9552 75.0447 63.6442 74.6728 63.4448C74.3009 63.2455 73.8698 63.1837 73.3794 63.2594C72.874 63.3374 72.4731 63.5335 72.1767 63.8476C71.8802 64.1617 71.6809 64.5585 71.5786 65.0381C71.4801 65.517 71.4748 66.041 71.5627 66.61C71.6518 67.1865 71.8179 67.6917 72.0612 68.1256C72.3046 68.5594 72.6155 68.8851 72.994 69.1026C73.3757 69.3158 73.8155 69.3839 74.3134 69.307ZM80.1009 69.7067L78.7688 61.0817L80.4477 60.8224L81.7799 69.4474L80.1009 69.7067ZM79.4111 59.6199C79.1192 59.665 78.8533 59.6064 78.6136 59.4441C78.3771 59.2775 78.2377 59.0576 78.1955 58.7843C78.1527 58.5073 78.2192 58.2556 78.3951 58.0291C78.574 57.7983 78.8095 57.6604 79.1015 57.6153C79.3935 57.5702 79.6578 57.6309 79.8943 57.7975C80.134 57.9598 80.2753 58.1795 80.3181 58.4565C80.3603 58.7298 80.2919 58.9818 80.1129 59.2126C79.937 59.439 79.7031 59.5748 79.4111 59.6199ZM84.2201 63.8272L85.011 68.9483L83.3321 69.2076L81.9999 60.5826L83.6115 60.3337L83.8283 61.7375L83.935 61.721C84.0629 61.2337 84.3169 60.8188 84.6972 60.4765C85.0811 60.1336 85.5969 59.9121 86.2446 59.8121C86.8323 59.7213 87.3661 59.7653 87.846 59.9442C88.3253 60.1193 88.7239 60.4295 89.0418 60.8748C89.3598 61.3201 89.5736 61.8984 89.6835 62.6097L90.5308 68.0958L88.8519 68.3551L88.0358 63.0712C87.9392 62.446 87.7009 61.9826 87.3209 61.681C86.9403 61.3757 86.4654 61.267 85.8964 61.3549C85.5071 61.415 85.1739 61.5527 84.8966 61.768C84.6232 61.9827 84.4236 62.2665 84.298 62.6194C84.1755 62.9679 84.1495 63.3705 84.2201 63.8272ZM96.2195 70.7127C95.5345 70.8185 94.931 70.8197 94.4091 70.7163C93.8909 70.6124 93.4537 70.4365 93.0973 70.1888C92.7409 69.941 92.4588 69.6531 92.251 69.3249L93.6021 68.5068C93.7287 68.6559 93.8903 68.8091 94.0871 68.9666C94.2882 69.1271 94.5449 69.2504 94.8571 69.3363C95.1731 69.4217 95.5632 69.4285 96.0273 69.3568C96.6637 69.2585 97.1657 69.0219 97.5332 68.647C97.9014 68.2759 98.0334 67.7534 97.9293 67.0796L97.6674 65.3838L97.5607 65.4002C97.488 65.5993 97.3735 65.8258 97.2172 66.0799C97.0648 66.3335 96.8365 66.568 96.5325 66.7836C96.2286 66.9992 95.8126 67.1478 95.2848 67.2293C94.6035 67.3345 93.965 67.2702 93.3693 67.0365C92.7768 66.7984 92.2731 66.3913 91.8584 65.8153C91.4468 65.2349 91.1702 64.4862 91.0285 63.569C90.8869 62.6519 90.9208 61.8418 91.1303 61.1387C91.3436 60.435 91.6966 59.8669 92.1894 59.4343C92.6816 58.998 93.274 58.7264 93.9665 58.6194C94.5018 58.5367 94.9481 58.5598 95.3053 58.6886C95.6619 58.8137 95.9501 58.9799 96.1699 59.1874C96.3935 59.3944 96.5698 59.5799 96.6986 59.744L96.8221 59.7249L96.6062 58.3267L98.2514 58.0726L99.6131 66.8885C99.7275 67.6297 99.6493 68.2646 99.3783 68.7932C99.1074 69.3219 98.6956 69.7457 98.1432 70.0649C97.5945 70.3834 96.9532 70.5993 96.2195 70.7127ZM95.4403 65.7795C95.9232 65.7049 96.3139 65.5296 96.6124 65.2535C96.9141 64.9731 97.1183 64.6081 97.2252 64.1585C97.3352 63.7046 97.3443 63.18 97.2523 62.5848C97.1627 62.0045 96.9977 61.5068 96.7573 61.0917C96.5168 60.6766 96.211 60.3712 95.8396 60.1756C95.4677 59.9762 95.0366 59.9144 94.5462 59.9902C94.0408 60.0682 93.6399 60.2643 93.3435 60.5784C93.0464 60.8887 92.8462 61.2799 92.7428 61.752C92.6432 62.2235 92.6358 62.7344 92.7208 63.2847C92.8081 63.8499 92.9709 64.3326 93.209 64.7328C93.4471 65.133 93.7531 65.4268 94.127 65.6144C94.5047 65.8013 94.9425 65.8564 95.4403 65.7795Z" fill="black"/>
<rect x="51.3351" y="80.0699" width="134" height="39" rx="19.5" fill="#AEFF9C"/>
<path d="M77.0965 92.9336H78.8578V100.587C78.8578 101.401 78.6666 102.123 78.284 102.752C77.9014 103.377 77.3635 103.869 76.6703 104.229C75.9772 104.585 75.1647 104.763 74.2328 104.763C73.3048 104.763 72.4942 104.585 71.801 104.229C71.1078 103.869 70.57 103.377 70.1874 102.752C69.8048 102.123 69.6135 101.401 69.6135 100.587V92.9336H71.3692V100.445C71.3692 100.971 71.4847 101.439 71.7158 101.848C71.9506 102.257 72.2821 102.579 72.7101 102.814C73.1381 103.045 73.6457 103.161 74.2328 103.161C74.8238 103.161 75.3332 103.045 75.7613 102.814C76.1931 102.579 76.5226 102.257 76.7499 101.848C76.9809 101.439 77.0965 100.971 77.0965 100.445V92.9336ZM83.1661 92.9336V104.57H81.4104V92.9336H83.1661ZM90.0184 92.3881L86.2684 106.32H84.7513L88.5013 92.3881H90.0184ZM99.0809 92.9336H100.842V100.587C100.842 101.401 100.651 102.123 100.268 102.752C99.8858 103.377 99.3479 103.869 98.6547 104.229C97.9615 104.585 97.149 104.763 96.2172 104.763C95.2892 104.763 94.4786 104.585 93.7854 104.229C93.0922 103.869 92.5543 103.377 92.1718 102.752C91.7892 102.123 91.5979 101.401 91.5979 100.587V92.9336H93.3536V100.445C93.3536 100.971 93.4691 101.439 93.7002 101.848C93.935 102.257 94.2665 102.579 94.6945 102.814C95.1225 103.045 95.6301 103.161 96.2172 103.161C96.8081 103.161 97.3176 103.045 97.7456 102.814C98.1774 102.579 98.507 102.257 98.7343 101.848C98.9653 101.439 99.0809 100.971 99.0809 100.445V92.9336ZM104.616 92.9336L107.4 97.4847H107.491L110.275 92.9336H112.31L108.685 98.7518L112.332 104.57H110.287L107.491 100.081H107.4L104.605 104.57H102.56L106.27 98.7518L102.582 92.9336H104.616ZM122.052 104.57H118.285V92.9336H122.172C123.312 92.9336 124.291 93.1665 125.109 93.6324C125.927 94.0946 126.554 94.7593 126.99 95.6268C127.429 96.4904 127.649 97.5264 127.649 98.7347C127.649 99.9468 127.427 100.989 126.984 101.86C126.545 102.731 125.909 103.401 125.075 103.871C124.242 104.337 123.234 104.57 122.052 104.57ZM120.041 103.036H121.956C122.842 103.036 123.579 102.869 124.166 102.536C124.753 102.199 125.193 101.712 125.484 101.076C125.776 100.435 125.922 99.6552 125.922 98.7347C125.922 97.8218 125.776 97.0472 125.484 96.4109C125.196 95.7745 124.766 95.2915 124.194 94.962C123.623 94.6324 122.912 94.4677 122.064 94.4677H120.041V103.036ZM133.457 104.746C132.597 104.746 131.857 104.562 131.236 104.195C130.618 103.824 130.141 103.303 129.804 102.632C129.471 101.958 129.304 101.168 129.304 100.263C129.304 99.3692 129.471 98.5813 129.804 97.8995C130.141 97.2177 130.611 96.6855 131.213 96.3029C131.819 95.9203 132.527 95.729 133.338 95.729C133.83 95.729 134.308 95.8105 134.77 95.9734C135.232 96.1362 135.647 96.3919 136.014 96.7404C136.382 97.0889 136.671 97.5415 136.883 98.0984C137.096 98.6514 137.202 99.3237 137.202 100.115V100.718H130.264V99.4449H135.537C135.537 98.998 135.446 98.6021 135.264 98.2574C135.082 97.909 134.827 97.6343 134.497 97.4336C134.171 97.2328 133.789 97.1324 133.349 97.1324C132.872 97.1324 132.455 97.2499 132.099 97.4847C131.747 97.7158 131.474 98.0188 131.281 98.3938C131.092 98.765 130.997 99.1684 130.997 99.604V100.598C130.997 101.182 131.099 101.678 131.304 102.087C131.512 102.496 131.802 102.809 132.173 103.024C132.544 103.237 132.978 103.343 133.474 103.343C133.796 103.343 134.09 103.297 134.355 103.206C134.62 103.112 134.849 102.971 135.043 102.786C135.236 102.6 135.383 102.371 135.486 102.098L137.094 102.388C136.965 102.862 136.734 103.276 136.4 103.632C136.071 103.985 135.656 104.259 135.156 104.456C134.66 104.649 134.094 104.746 133.457 104.746ZM145.626 97.9734L144.087 98.2461C144.022 98.0491 143.92 97.8616 143.78 97.6836C143.643 97.5056 143.458 97.3597 143.223 97.2461C142.988 97.1324 142.694 97.0756 142.342 97.0756C141.861 97.0756 141.46 97.1836 141.138 97.3995C140.816 97.6116 140.655 97.8862 140.655 98.2234C140.655 98.515 140.763 98.7499 140.979 98.9279C141.194 99.1059 141.543 99.2518 142.024 99.3654L143.41 99.6836C144.213 99.8692 144.812 100.155 145.206 100.542C145.6 100.928 145.797 101.43 145.797 102.047C145.797 102.57 145.645 103.036 145.342 103.445C145.043 103.85 144.624 104.168 144.087 104.399C143.552 104.631 142.933 104.746 142.229 104.746C141.251 104.746 140.454 104.538 139.837 104.121C139.219 103.701 138.84 103.104 138.7 102.331L140.342 102.081C140.444 102.509 140.655 102.833 140.973 103.053C141.291 103.269 141.706 103.377 142.217 103.377C142.774 103.377 143.219 103.261 143.552 103.03C143.886 102.795 144.052 102.509 144.052 102.172C144.052 101.899 143.95 101.67 143.746 101.485C143.545 101.299 143.236 101.159 142.819 101.064L141.342 100.74C140.528 100.555 139.926 100.259 139.535 99.854C139.149 99.4487 138.956 98.9355 138.956 98.3143C138.956 97.7991 139.1 97.3484 139.388 96.962C139.676 96.5756 140.073 96.2745 140.581 96.0586C141.088 95.8389 141.67 95.729 142.325 95.729C143.268 95.729 144.011 95.9336 144.552 96.3427C145.094 96.748 145.452 97.2915 145.626 97.9734ZM147.665 104.57V95.8427H149.364V104.57H147.665ZM148.523 94.4961C148.227 94.4961 147.973 94.3976 147.761 94.2006C147.553 93.9999 147.449 93.7612 147.449 93.4847C147.449 93.2044 147.553 92.9658 147.761 92.7688C147.973 92.5681 148.227 92.4677 148.523 92.4677C148.818 92.4677 149.07 92.5681 149.278 92.7688C149.49 92.9658 149.596 93.2044 149.596 93.4847C149.596 93.7612 149.49 93.9999 149.278 94.2006C149.07 94.3976 148.818 94.4961 148.523 94.4961ZM155.308 108.024C154.615 108.024 154.018 107.934 153.518 107.752C153.022 107.57 152.617 107.329 152.302 107.03C151.988 106.731 151.753 106.403 151.598 106.047L153.058 105.445C153.16 105.612 153.297 105.788 153.467 105.973C153.641 106.163 153.876 106.324 154.172 106.456C154.471 106.589 154.855 106.655 155.325 106.655C155.969 106.655 156.501 106.498 156.922 106.184C157.342 105.873 157.552 105.377 157.552 104.695V102.979H157.444C157.342 103.165 157.194 103.371 157.001 103.598C156.812 103.826 156.551 104.023 156.217 104.189C155.884 104.356 155.45 104.439 154.916 104.439C154.227 104.439 153.605 104.278 153.052 103.956C152.503 103.631 152.068 103.151 151.746 102.519C151.427 101.882 151.268 101.1 151.268 100.172C151.268 99.2442 151.426 98.4487 151.74 97.7859C152.058 97.123 152.494 96.6154 153.047 96.2631C153.6 95.9071 154.227 95.729 154.927 95.729C155.469 95.729 155.907 95.8199 156.24 96.0018C156.573 96.1798 156.833 96.3881 157.018 96.6268C157.208 96.8654 157.354 97.0756 157.456 97.2574H157.581V95.8427H159.246V104.763C159.246 105.513 159.071 106.129 158.723 106.61C158.374 107.091 157.903 107.447 157.308 107.678C156.717 107.909 156.051 108.024 155.308 108.024ZM155.291 103.03C155.78 103.03 156.193 102.917 156.53 102.689C156.871 102.458 157.128 102.129 157.302 101.701C157.48 101.269 157.569 100.752 157.569 100.149C157.569 99.5624 157.482 99.0453 157.308 98.5984C157.134 98.1514 156.878 97.8029 156.541 97.5529C156.204 97.2991 155.787 97.1722 155.291 97.1722C154.78 97.1722 154.354 97.3048 154.013 97.5699C153.672 97.8313 153.414 98.1874 153.24 98.6381C153.069 99.0889 152.984 99.5927 152.984 100.149C152.984 100.721 153.071 101.223 153.246 101.655C153.42 102.087 153.677 102.424 154.018 102.667C154.363 102.909 154.787 103.03 155.291 103.03ZM163.223 99.3881V104.57H161.524V95.8427H163.155V97.2631H163.263C163.463 96.801 163.778 96.4298 164.206 96.1495C164.638 95.8692 165.181 95.729 165.837 95.729C166.431 95.729 166.952 95.854 167.399 96.104C167.846 96.3502 168.193 96.7177 168.439 97.2063C168.685 97.6949 168.808 98.2991 168.808 99.0188V104.57H167.109V99.2234C167.109 98.5908 166.944 98.0965 166.615 97.7404C166.285 97.3806 165.833 97.2006 165.257 97.2006C164.863 97.2006 164.513 97.2859 164.206 97.4563C163.903 97.6268 163.662 97.8768 163.484 98.2063C163.31 98.5321 163.223 98.926 163.223 99.3881Z" fill="black"/>
<rect x="11.5026" y="99" width="116.1" height="39.3199" rx="19.66" transform="rotate(11 11.5026 99)" fill="white"/>
<path d="M16.117 125.785L18.3374 114.362L25.4988 115.754L25.2104 117.238L19.7724 116.181L19.0959 119.661L24.1602 120.645L23.8729 122.123L18.8086 121.139L18.1289 124.636L23.6338 125.706L23.3454 127.19L16.117 125.785ZM31.7454 122.143L31.4635 123.593L26.3992 122.609L26.6811 121.159L31.7454 122.143ZM43.8362 123.173L42.0961 122.835C42.1014 122.45 42.0404 122.099 41.9132 121.781C41.7859 121.463 41.6094 121.18 41.3837 120.931C41.1581 120.683 40.8914 120.477 40.5837 120.313C40.2797 120.149 39.9455 120.032 39.5811 119.962C38.923 119.834 38.3015 119.885 37.7166 120.114C37.1354 120.345 36.6321 120.751 36.2066 121.332C35.7848 121.913 35.4843 122.665 35.305 123.587C35.1244 124.517 35.1206 125.33 35.2937 126.028C35.4706 126.726 35.7875 127.289 36.2445 127.717C36.7014 128.146 37.2553 128.423 37.906 128.55C38.2666 128.62 38.6181 128.638 38.9604 128.604C39.3071 128.567 39.6313 128.478 39.9328 128.336C40.2344 128.194 40.5034 128.001 40.7398 127.758C40.9807 127.511 41.1718 127.213 41.3133 126.862L43.0524 127.206C42.8503 127.749 42.5695 128.231 42.21 128.651C41.8549 129.068 41.4359 129.408 40.953 129.669C40.4745 129.927 39.9513 130.097 39.3834 130.18C38.8156 130.262 38.2175 130.243 37.5891 130.12C36.6 129.928 35.7643 129.523 35.082 128.904C34.4004 128.281 33.9217 127.488 33.6461 126.524C33.3742 125.56 33.3564 124.47 33.5928 123.254C33.8298 122.035 34.2564 121.032 34.8724 120.244C35.4892 119.454 36.2298 118.899 37.0943 118.581C37.9595 118.259 38.8848 118.194 39.8701 118.386C40.4762 118.503 41.0244 118.701 41.5147 118.977C42.0094 119.251 42.4344 119.596 42.7895 120.012C43.1453 120.425 43.4142 120.898 43.5961 121.431C43.7788 121.96 43.8588 122.541 43.8362 123.173ZM47.8413 132.131C47.0382 131.975 46.373 131.654 45.846 131.17C45.3189 130.685 44.9542 130.08 44.7519 129.354C44.5496 128.628 44.5345 127.822 44.7065 126.937C44.8793 126.048 45.1958 125.303 45.6561 124.702C46.1164 124.101 46.6816 123.674 47.3518 123.423C48.022 123.171 48.7587 123.123 49.5618 123.279C50.365 123.435 51.0301 123.756 51.5572 124.24C52.0843 124.725 52.4486 125.332 52.6502 126.062C52.8517 126.792 52.8661 127.601 52.6934 128.49C52.5214 129.374 52.2056 130.116 51.746 130.713C51.2864 131.311 50.7215 131.735 50.0513 131.987C49.3811 132.239 48.6445 132.287 47.8413 132.131ZM48.119 130.732C48.6396 130.833 49.0976 130.779 49.4932 130.571C49.8888 130.362 50.2128 130.045 50.4653 129.619C50.7215 129.194 50.9031 128.707 51.0101 128.157C51.1163 127.61 51.1303 127.092 51.0518 126.602C50.9778 126.109 50.7969 125.69 50.509 125.345C50.2212 124.999 49.8169 124.776 49.2964 124.675C48.7721 124.573 48.31 124.628 47.91 124.839C47.5137 125.052 47.1871 125.372 46.9301 125.801C46.6776 126.226 46.4982 126.712 46.392 127.259C46.285 127.809 46.2689 128.329 46.3436 128.818C46.422 129.308 46.6055 129.724 46.8941 130.065C47.1864 130.408 47.5947 130.63 48.119 130.732ZM53.7298 133.096L55.3951 124.529L56.9958 124.84L56.7248 126.234L56.8307 126.255C57.101 125.817 57.4644 125.506 57.921 125.321C58.3784 125.132 58.8896 125.092 59.4548 125.202C60.0274 125.314 60.4811 125.541 60.8157 125.884C61.1541 126.227 61.3707 126.651 61.4656 127.156L61.5548 127.173C61.8482 126.756 62.2444 126.454 62.7433 126.27C63.243 126.081 63.8015 126.047 64.4187 126.167C65.1958 126.318 65.7825 126.685 66.1786 127.267C66.5784 127.851 66.683 128.633 66.4922 129.615L65.3755 135.359L63.7078 135.035L64.7942 129.447C64.9069 128.867 64.8306 128.416 64.5651 128.094C64.2996 127.772 63.9475 127.569 63.5088 127.484C62.9659 127.378 62.5113 127.463 62.1451 127.739C61.7796 128.012 61.5463 128.408 61.4451 128.929L60.3837 134.389L58.7216 134.066L59.8285 128.372C59.9189 127.907 59.8465 127.505 59.6114 127.166C59.3763 126.827 59.0264 126.612 58.5616 126.522C58.2455 126.461 57.9374 126.487 57.6371 126.603C57.3413 126.715 57.0831 126.902 56.8624 127.164C56.6454 127.427 56.4993 127.751 56.4242 128.138L55.3975 133.42L53.7298 133.096ZM67.6106 135.794L69.2759 127.227L70.8766 127.538L70.6056 128.933L70.7115 128.953C70.9818 128.516 71.3453 128.204 71.8019 128.019C72.2592 127.83 72.7705 127.791 73.3356 127.9C73.9082 128.012 74.3619 128.239 74.6965 128.582C75.0349 128.925 75.2515 129.349 75.3464 129.854L75.4356 129.871C75.729 129.454 76.1252 129.153 76.6242 128.968C77.1238 128.78 77.6823 128.745 78.2995 128.865C79.0767 129.016 79.6633 129.383 80.0594 129.966C80.4593 130.549 80.5638 131.331 80.373 132.313L79.2563 138.058L77.5887 137.733L78.675 132.145C78.7877 131.565 78.7114 131.114 78.4459 130.792C78.1805 130.471 77.8283 130.267 77.3896 130.182C76.8467 130.076 76.3922 130.162 76.0259 130.438C75.6604 130.71 75.4271 131.106 75.3259 131.627L74.2645 137.087L72.6024 136.764L73.7094 131.07C73.7997 130.605 73.7273 130.203 73.4922 129.864C73.2571 129.525 72.9072 129.31 72.4424 129.22C72.1264 129.159 71.8182 129.186 71.518 129.301C71.2222 129.413 70.9639 129.6 70.7432 129.862C70.5262 130.125 70.3801 130.45 70.305 130.836L69.2783 136.118L67.6106 135.794ZM85.1501 139.383C84.3061 139.219 83.6142 138.897 83.0745 138.418C82.5393 137.936 82.1701 137.333 81.9671 136.611C81.7686 135.885 81.7557 135.078 81.9284 134.19C82.099 133.312 82.4129 132.571 82.8702 131.965C83.3312 131.36 83.8939 130.927 84.5581 130.666C85.226 130.407 85.9578 130.354 86.7535 130.509C87.2369 130.603 87.6899 130.774 88.1124 131.022C88.535 131.27 88.8933 131.6 89.1875 132.012C89.4817 132.424 89.6798 132.924 89.7818 133.511C89.8845 134.094 89.8603 134.774 89.7092 135.552L89.5943 136.143L82.7843 134.819L83.0271 133.57L88.203 134.576C88.2882 134.137 88.2745 133.731 88.1618 133.358C88.0498 132.981 87.8513 132.663 87.5661 132.403C87.2846 132.144 86.9282 131.972 86.4969 131.888C86.0284 131.797 85.597 131.833 85.2026 131.996C84.8128 132.155 84.4872 132.401 84.226 132.732C83.9693 133.06 83.7994 133.438 83.7162 133.866L83.5265 134.842C83.4152 135.414 83.4209 135.921 83.5437 136.362C83.6701 136.803 83.8949 137.165 84.2181 137.448C84.542 137.727 84.9475 137.914 85.4346 138.008C85.7507 138.07 86.0475 138.081 86.3252 138.043C86.6035 138 86.8552 137.906 87.0803 137.761C87.3053 137.616 87.494 137.419 87.6465 137.171L89.1696 137.762C88.9528 138.202 88.6469 138.565 88.2517 138.851C87.861 139.134 87.4015 139.324 86.8731 139.422C86.3491 139.517 85.7748 139.504 85.1501 139.383ZM90.7096 140.284L92.3748 131.717L93.9867 132.03L93.7222 133.391L93.8114 133.409C94.0572 132.978 94.4028 132.669 94.8483 132.481C95.2982 132.291 95.7741 132.245 96.2761 132.342C96.3802 132.362 96.5021 132.39 96.642 132.425C96.7856 132.461 96.8972 132.492 96.9768 132.519L96.6667 134.114C96.6034 134.082 96.4884 134.039 96.3217 133.983C96.1557 133.924 95.9872 133.878 95.8162 133.845C95.422 133.768 95.0544 133.783 94.7132 133.891C94.3765 133.995 94.0904 134.177 93.8548 134.436C93.62 134.691 93.4664 135.005 93.3941 135.376L92.3772 140.608L90.7096 140.284ZM100.006 142.27C99.1764 142.109 98.499 141.783 97.9734 141.291C97.4522 140.796 97.0964 140.184 96.906 139.457C96.7156 138.729 96.7038 137.936 96.8708 137.077C97.0399 136.207 97.3528 135.471 97.8094 134.869C98.2667 134.263 98.8293 133.83 99.4972 133.57C100.165 133.31 100.903 133.259 101.709 133.416C102.36 133.542 102.917 133.776 103.379 134.116C103.842 134.453 104.188 134.868 104.417 135.36C104.649 135.853 104.739 136.393 104.686 136.981L103.063 136.666C103.052 136.247 102.915 135.861 102.651 135.509C102.391 135.157 101.996 134.93 101.464 134.827C100.999 134.736 100.568 134.78 100.171 134.957C99.7783 135.132 99.4415 135.425 99.1607 135.838C98.8806 136.246 98.6813 136.755 98.5628 137.365C98.4413 137.99 98.4314 138.547 98.5328 139.038C98.6343 139.528 98.8337 139.932 99.1311 140.248C99.4322 140.565 99.8188 140.77 100.291 140.861C100.607 140.923 100.905 140.921 101.184 140.855C101.467 140.787 101.717 140.66 101.935 140.475C102.156 140.29 102.332 140.05 102.462 139.755L104.085 140.071C103.918 140.613 103.642 141.073 103.256 141.449C102.87 141.826 102.4 142.089 101.846 142.24C101.296 142.392 100.682 142.402 100.006 142.27ZM109.001 144.019C108.157 143.855 107.465 143.533 106.925 143.054C106.39 142.572 106.021 141.969 105.818 141.247C105.619 140.521 105.606 139.714 105.779 138.826C105.949 137.948 106.263 137.207 106.721 136.601C107.182 135.996 107.744 135.563 108.409 135.302C109.076 135.043 109.808 134.99 110.604 135.145C111.087 135.239 111.54 135.41 111.963 135.658C112.385 135.906 112.744 136.236 113.038 136.648C113.332 137.06 113.53 137.56 113.632 138.147C113.735 138.73 113.711 139.411 113.56 140.188L113.445 140.779L106.635 139.455L106.878 138.206L112.053 139.212C112.139 138.773 112.125 138.367 112.012 137.994C111.9 137.617 111.702 137.299 111.417 137.039C111.135 136.78 110.779 136.608 110.347 136.524C109.879 136.433 109.447 136.469 109.053 136.632C108.663 136.791 108.338 137.037 108.077 137.368C107.82 137.696 107.65 138.074 107.567 138.502L107.377 139.478C107.266 140.05 107.271 140.557 107.394 140.998C107.521 141.439 107.745 141.801 108.069 142.084C108.393 142.363 108.798 142.55 109.285 142.644C109.601 142.706 109.898 142.717 110.176 142.679C110.454 142.636 110.706 142.542 110.931 142.397C111.156 142.252 111.345 142.055 111.497 141.807L113.02 142.398C112.803 142.838 112.497 143.201 112.102 143.487C111.711 143.77 111.252 143.961 110.724 144.058C110.2 144.153 109.625 144.14 109.001 144.019Z" fill="black"/>
<rect x="58.036" y="166.8" width="125.881" height="39.3199" rx="19.66" transform="rotate(-22.7791 58.036 166.8)" fill="#FFA0F9"/>
<path d="M91.6598 179.795L87.1544 169.066L88.7732 168.386L90.7311 173.048L96.0797 170.802L94.1218 166.14L95.7458 165.458L100.251 176.187L98.6272 176.869L96.6627 172.191L91.314 174.437L93.2785 179.115L91.6598 179.795ZM106.019 173.956C105.226 174.289 104.472 174.406 103.757 174.308C103.044 174.205 102.403 173.909 101.832 173.421C101.264 172.929 100.804 172.265 100.454 171.431C100.108 170.606 99.9564 169.815 99.9997 169.058C100.047 168.298 100.274 167.626 100.681 167.04C101.091 166.453 101.67 166.002 102.418 165.688C102.872 165.498 103.343 165.388 103.833 165.359C104.322 165.33 104.803 165.405 105.277 165.584C105.751 165.764 106.193 166.069 106.604 166.5C107.014 166.928 107.372 167.507 107.678 168.236L107.912 168.792L101.515 171.478L101.022 170.304L105.884 168.263C105.711 167.851 105.474 167.521 105.173 167.274C104.87 167.023 104.528 166.868 104.146 166.811C103.768 166.752 103.377 166.808 102.972 166.978C102.532 167.162 102.193 167.432 101.956 167.786C101.72 168.136 101.586 168.521 101.553 168.941C101.522 169.357 101.591 169.766 101.76 170.167L102.145 171.084C102.371 171.622 102.657 172.04 103.004 172.338C103.355 172.634 103.743 172.81 104.169 172.866C104.593 172.917 105.034 172.847 105.491 172.655C105.788 172.531 106.041 172.375 106.251 172.188C106.458 171.998 106.615 171.781 106.722 171.535C106.828 171.289 106.875 171.02 106.864 170.729L108.459 170.374C108.523 170.86 108.471 171.332 108.301 171.789C108.134 172.242 107.858 172.656 107.473 173.031C107.09 173.401 106.606 173.709 106.019 173.956ZM113.558 170.809C113.048 171.023 112.547 171.122 112.056 171.106C111.563 171.087 111.12 170.947 110.726 170.685C110.336 170.421 110.031 170.026 109.809 169.499C109.618 169.045 109.549 168.634 109.6 168.268C109.652 167.901 109.79 167.57 110.015 167.274C110.24 166.978 110.517 166.709 110.847 166.468C111.178 166.227 111.523 166.004 111.885 165.798C112.343 165.54 112.716 165.33 113.001 165.169C113.285 165.005 113.478 164.852 113.579 164.711C113.68 164.57 113.691 164.405 113.612 164.217L113.596 164.18C113.404 163.722 113.126 163.422 112.762 163.279C112.402 163.135 111.968 163.169 111.462 163.382C110.934 163.603 110.568 163.895 110.362 164.256C110.159 164.613 110.059 164.957 110.062 165.288L108.449 165.571C108.419 165.009 108.508 164.507 108.717 164.066C108.928 163.62 109.225 163.236 109.608 162.915C109.99 162.591 110.423 162.327 110.908 162.123C111.23 161.988 111.586 161.883 111.978 161.809C112.372 161.73 112.768 161.724 113.166 161.791C113.568 161.856 113.947 162.032 114.305 162.317C114.662 162.599 114.963 163.033 115.21 163.62L117.454 168.963L115.924 169.605L115.462 168.505L115.399 168.532C115.383 168.777 115.315 169.04 115.194 169.32C115.074 169.601 114.882 169.872 114.618 170.135C114.355 170.398 114.001 170.622 113.558 170.809ZM113.37 169.408C113.803 169.226 114.137 168.985 114.373 168.685C114.612 168.384 114.754 168.061 114.799 167.718C114.845 167.369 114.802 167.036 114.669 166.718L114.233 165.681C114.201 165.761 114.114 165.858 113.974 165.975C113.836 166.086 113.673 166.202 113.485 166.322C113.296 166.438 113.111 166.551 112.931 166.66C112.749 166.765 112.597 166.853 112.475 166.925C112.187 167.091 111.937 167.272 111.723 167.468C111.514 167.663 111.37 167.878 111.291 168.112C111.215 168.341 111.236 168.596 111.353 168.875C111.516 169.263 111.782 169.496 112.152 169.575C112.521 169.65 112.927 169.595 113.37 169.408ZM116.601 156.7L121.106 167.429L119.54 168.087L115.035 157.358L116.601 156.7ZM123.591 156.92L124.119 158.178L119.723 160.023L119.195 158.766L123.591 156.92ZM119.565 156.343L121.131 155.685L124.327 163.297C124.455 163.601 124.596 163.811 124.752 163.926C124.906 164.038 125.066 164.092 125.233 164.088C125.401 164.079 125.571 164.038 125.742 163.966C125.868 163.914 125.974 163.859 126.061 163.802C126.148 163.744 126.216 163.7 126.264 163.667L127.09 164.842C127.014 164.915 126.899 165.005 126.746 165.11C126.595 165.219 126.394 165.328 126.144 165.437C125.735 165.617 125.32 165.705 124.899 165.701C124.478 165.697 124.091 165.58 123.736 165.351C123.381 165.122 123.101 164.765 122.897 164.28L119.565 156.343ZM128.435 158.731L130.442 163.509L128.875 164.167L124.37 153.438L125.915 152.789L127.592 156.781L127.691 156.739C127.698 156.227 127.842 155.762 128.122 155.344C128.403 154.926 128.856 154.586 129.481 154.324C130.033 154.092 130.562 154.003 131.07 154.057C131.581 154.109 132.044 154.313 132.46 154.668C132.879 155.019 133.228 155.529 133.51 156.2L135.659 161.318L134.093 161.976L132.023 157.046C131.775 156.456 131.431 156.062 130.991 155.865C130.549 155.664 130.058 155.677 129.516 155.905C129.146 156.06 128.847 156.278 128.62 156.559C128.396 156.837 128.264 157.164 128.224 157.538C128.186 157.907 128.256 158.305 128.435 158.731ZM141.207 159.179C140.428 159.506 139.684 159.611 138.973 159.495C138.265 159.373 137.629 159.063 137.066 158.564C136.504 158.065 136.053 157.412 135.714 156.605C135.371 155.788 135.222 155.002 135.266 154.248C135.31 153.49 135.537 152.818 135.947 152.23C136.358 151.643 136.942 151.19 137.7 150.872C138.311 150.615 138.904 150.5 139.478 150.526C140.05 150.549 140.568 150.701 141.031 150.983C141.498 151.263 141.873 151.663 142.157 152.18L140.632 152.821C140.39 152.479 140.062 152.234 139.647 152.088C139.236 151.94 138.78 151.971 138.281 152.181C137.844 152.364 137.51 152.64 137.279 153.009C137.049 153.372 136.932 153.803 136.928 154.302C136.923 154.797 137.04 155.331 137.281 155.904C137.527 156.491 137.829 156.96 138.186 157.311C138.543 157.662 138.933 157.887 139.356 157.985C139.782 158.081 140.218 158.036 140.661 157.849C140.958 157.725 141.204 157.558 141.4 157.348C141.597 157.134 141.735 156.889 141.812 156.614C141.893 156.338 141.906 156.041 141.851 155.723L143.375 155.083C143.538 155.626 143.564 156.162 143.452 156.69C143.341 157.217 143.097 157.697 142.72 158.131C142.347 158.563 141.843 158.912 141.207 159.179ZM148.536 156.12C148.026 156.334 147.526 156.433 147.034 156.418C146.542 156.399 146.098 156.258 145.705 155.996C145.315 155.733 145.009 155.337 144.788 154.81C144.597 154.356 144.527 153.946 144.579 153.579C144.63 153.212 144.768 152.881 144.993 152.585C145.218 152.289 145.496 152.021 145.826 151.78C146.156 151.538 146.502 151.315 146.863 151.11C147.322 150.851 147.694 150.642 147.98 150.481C148.264 150.316 148.457 150.163 148.558 150.022C148.659 149.881 148.67 149.717 148.59 149.528L148.575 149.491C148.383 149.034 148.105 148.734 147.741 148.591C147.38 148.446 146.947 148.48 146.44 148.693C145.913 148.915 145.546 149.206 145.341 149.568C145.137 149.924 145.037 150.268 145.041 150.6L143.428 150.882C143.397 150.32 143.487 149.818 143.696 149.377C143.907 148.931 144.204 148.548 144.587 148.227C144.968 147.902 145.401 147.638 145.887 147.434C146.208 147.299 146.565 147.195 146.957 147.12C147.351 147.041 147.747 147.035 148.145 147.102C148.546 147.168 148.926 147.343 149.284 147.628C149.64 147.91 149.942 148.344 150.188 148.931L152.432 154.274L150.903 154.917L150.441 153.817L150.378 153.843C150.361 154.088 150.293 154.351 150.173 154.632C150.052 154.912 149.86 155.184 149.597 155.447C149.333 155.709 148.98 155.934 148.536 156.12ZM148.349 154.72C148.782 154.538 149.116 154.297 149.351 153.997C149.59 153.695 149.732 153.372 149.777 153.029C149.824 152.681 149.781 152.348 149.647 152.03L149.212 150.993C149.179 151.072 149.093 151.17 148.953 151.286C148.815 151.398 148.652 151.513 148.464 151.633C148.274 151.75 148.09 151.862 147.909 151.971C147.727 152.076 147.575 152.164 147.454 152.236C147.166 152.402 146.915 152.583 146.702 152.78C146.492 152.975 146.348 153.189 146.27 153.423C146.194 153.653 146.214 153.907 146.331 154.186C146.494 154.574 146.761 154.807 147.131 154.886C147.499 154.961 147.905 154.906 148.349 154.72ZM154.518 153.398L151.139 145.352L152.653 144.716L153.19 145.994L153.274 145.959C153.239 145.464 153.354 145.015 153.62 144.612C153.888 144.203 154.258 143.9 154.73 143.702C154.828 143.661 154.944 143.616 155.08 143.568C155.219 143.517 155.329 143.481 155.41 143.46L156.04 144.958C155.969 144.967 155.85 144.994 155.68 145.041C155.509 145.084 155.343 145.139 155.183 145.207C154.813 145.362 154.516 145.579 154.292 145.858C154.07 146.132 153.933 146.442 153.881 146.789C153.828 147.131 153.875 147.477 154.021 147.827L156.085 152.74L154.518 153.398ZM163.428 149.848C162.635 150.181 161.882 150.298 161.167 150.2C160.454 150.097 159.812 149.801 159.241 149.314C158.673 148.821 158.214 148.157 157.863 147.323C157.517 146.498 157.366 145.707 157.409 144.95C157.456 144.191 157.683 143.518 158.09 142.932C158.501 142.345 159.08 141.894 159.827 141.58C160.281 141.39 160.753 141.28 161.242 141.251C161.731 141.222 162.212 141.298 162.686 141.477C163.16 141.656 163.602 141.961 164.013 142.392C164.423 142.82 164.781 143.399 165.088 144.129L165.321 144.684L158.924 147.37L158.432 146.196L163.293 144.155C163.12 143.743 162.883 143.413 162.582 143.166C162.279 142.915 161.937 142.761 161.556 142.703C161.178 142.644 160.786 142.7 160.381 142.87C159.941 143.055 159.602 143.324 159.365 143.679C159.129 144.028 158.995 144.413 158.962 144.834C158.931 145.249 159 145.658 159.169 146.059L159.554 146.976C159.78 147.514 160.066 147.932 160.413 148.23C160.764 148.526 161.152 148.702 161.578 148.758C162.002 148.81 162.443 148.739 162.901 148.547C163.197 148.423 163.451 148.267 163.66 148.081C163.868 147.891 164.025 147.673 164.131 147.427C164.237 147.181 164.285 146.912 164.273 146.621L165.868 146.266C165.933 146.752 165.88 147.224 165.711 147.681C165.543 148.134 165.267 148.548 164.882 148.923C164.5 149.293 164.015 149.601 163.428 149.848Z" fill="black"/>
<rect x="58.0359" y="166.8" width="149.009" height="39.3199" rx="19.66" transform="rotate(-22.7791 58.0359 166.8)" fill="#FFA0F9"/>
<path d="M81.3314 183.43L77.8582 184.888L73.3528 174.16L76.9361 172.655C77.9873 172.213 78.9803 172.049 79.9151 172.162C80.8484 172.271 81.6837 172.641 82.4212 173.272C83.1607 173.899 83.7644 174.769 84.2322 175.883C84.7015 177 84.9005 178.047 84.8292 179.021C84.7614 179.995 84.4343 180.859 83.8478 181.615C83.2599 182.367 82.4211 182.972 81.3314 183.43ZM78.883 182.794L80.6484 182.053C81.4656 181.71 82.0804 181.271 82.4927 180.736C82.9035 180.198 83.1201 179.579 83.1427 178.879C83.1637 178.176 82.9961 177.4 82.6397 176.552C82.2862 175.71 81.8519 175.052 81.3366 174.578C80.8247 174.103 80.2414 173.824 79.5864 173.742C78.9315 173.659 78.2128 173.783 77.4305 174.111L75.5656 174.894L78.883 182.794ZM88.3787 180.47L84.9997 172.424L86.5661 171.766L89.9451 179.813L88.3787 180.47ZM85.2694 170.85C84.997 170.964 84.7249 170.972 84.453 170.872C84.1832 170.768 83.9948 170.588 83.8877 170.333C83.7792 170.075 83.7828 169.815 83.8986 169.552C84.0165 169.285 84.2116 169.094 84.484 168.98C84.7564 168.866 85.0276 168.861 85.2974 168.965C85.5692 169.064 85.7594 169.243 85.8679 169.502C85.975 169.757 85.9696 170.018 85.8517 170.285C85.7359 170.547 85.5418 170.736 85.2694 170.85ZM96.7636 180.696C96.1245 180.965 95.5392 181.112 95.0078 181.138C94.4799 181.162 94.0131 181.097 93.6073 180.943C93.2016 180.789 92.8582 180.578 92.5772 180.31L93.6903 179.189C93.8491 179.303 94.0431 179.413 94.2721 179.518C94.5061 179.625 94.7849 179.682 95.1087 179.69C95.4359 179.697 95.8161 179.609 96.2491 179.427C96.8428 179.178 97.2727 178.827 97.5386 178.374C97.806 177.925 97.8077 177.386 97.5437 176.757L96.8794 175.175L96.7798 175.217C96.7574 175.428 96.7011 175.675 96.611 175.96C96.5244 176.243 96.3596 176.525 96.1168 176.808C95.874 177.091 95.5064 177.336 95.014 177.542C94.3784 177.809 93.7433 177.901 93.1087 177.819C92.4762 177.731 91.889 177.458 91.3473 176.999C90.8075 176.536 90.358 175.876 89.9987 175.02C89.6393 174.165 89.4763 173.371 89.5095 172.638C89.5462 171.903 89.7513 171.267 90.1248 170.728C90.4969 170.185 91.0059 169.778 91.652 169.507C92.1515 169.297 92.59 169.212 92.9678 169.25C93.344 169.285 93.6639 169.377 93.9275 169.525C94.1945 169.672 94.4103 169.809 94.575 169.937L94.6903 169.889L94.1425 168.585L95.6774 167.94L99.1312 176.165C99.4216 176.856 99.4993 177.491 99.3642 178.07C99.2292 178.648 98.9322 179.159 98.4734 179.602C98.018 180.044 97.4481 180.409 96.7636 180.696ZM94.8142 176.098C95.2647 175.909 95.6014 175.644 95.8242 175.304C96.0491 174.959 96.159 174.555 96.1539 174.093C96.1508 173.626 96.0327 173.115 95.7995 172.56C95.5722 172.018 95.2917 171.576 94.958 171.231C94.6243 170.886 94.2536 170.664 93.846 170.564C93.4369 170.46 93.0036 170.505 92.5461 170.697C92.0746 170.895 91.733 171.182 91.5214 171.559C91.3083 171.932 91.2086 172.36 91.2225 172.843C91.2399 173.324 91.3563 173.822 91.5719 174.335C91.7934 174.862 92.068 175.291 92.3959 175.622C92.7237 175.953 93.0917 176.164 93.4999 176.255C93.9116 176.346 94.3497 176.293 94.8142 176.098ZM101.157 175.104L97.7781 167.058L99.3445 166.4L102.724 174.447L101.157 175.104ZM98.0478 165.484C97.7754 165.598 97.5033 165.606 97.2314 165.506C96.9616 165.402 96.7732 165.222 96.6661 164.967C96.5576 164.709 96.5612 164.449 96.6771 164.186C96.7949 163.919 96.99 163.728 97.2624 163.614C97.5349 163.499 97.806 163.494 98.0758 163.599C98.3476 163.698 98.5378 163.877 98.6463 164.136C98.7534 164.391 98.748 164.652 98.6302 164.919C98.5143 165.181 98.3202 165.37 98.0478 165.484ZM105.208 163.938L105.736 165.195L101.341 167.041L100.813 165.784L105.208 163.938ZM101.182 163.361L102.748 162.703L105.945 170.315C106.072 170.619 106.214 170.828 106.369 170.944C106.523 171.056 106.683 171.11 106.85 171.105C107.018 171.096 107.188 171.056 107.359 170.984C107.485 170.931 107.592 170.876 107.678 170.819C107.765 170.762 107.833 170.717 107.881 170.685L108.707 171.86C108.631 171.933 108.516 172.022 108.364 172.128C108.212 172.236 108.011 172.345 107.761 172.454C107.352 172.634 106.937 172.722 106.516 172.718C106.096 172.714 105.708 172.598 105.353 172.369C104.998 172.14 104.718 171.783 104.515 171.297L101.182 163.361ZM112.736 170.452C112.226 170.666 111.726 170.765 111.234 170.749C110.741 170.73 110.298 170.59 109.905 170.328C109.515 170.064 109.209 169.669 108.988 169.142C108.797 168.688 108.727 168.277 108.779 167.911C108.83 167.544 108.968 167.213 109.193 166.917C109.418 166.621 109.696 166.352 110.026 166.111C110.356 165.87 110.702 165.647 111.063 165.441C111.522 165.183 111.894 164.973 112.18 164.812C112.464 164.648 112.657 164.495 112.758 164.354C112.859 164.213 112.869 164.048 112.79 163.86L112.775 163.823C112.583 163.365 112.305 163.065 111.941 162.922C111.58 162.778 111.147 162.812 110.64 163.025C110.113 163.246 109.746 163.538 109.541 163.899C109.337 164.256 109.237 164.6 109.241 164.931L107.628 165.214C107.597 164.652 107.686 164.15 107.896 163.709C108.107 163.263 108.404 162.879 108.787 162.558C109.168 162.234 109.601 161.97 110.087 161.766C110.408 161.631 110.765 161.526 111.157 161.452C111.551 161.373 111.947 161.367 112.345 161.434C112.746 161.499 113.126 161.675 113.484 161.96C113.84 162.242 114.142 162.676 114.388 163.263L116.632 168.606L115.102 169.248L114.64 168.148L114.578 168.175C114.561 168.42 114.493 168.683 114.373 168.963C114.252 169.244 114.06 169.515 113.797 169.778C113.533 170.041 113.18 170.265 112.736 170.452ZM112.549 169.051C112.982 168.869 113.316 168.628 113.551 168.328C113.79 168.027 113.932 167.704 113.977 167.361C114.024 167.012 113.981 166.679 113.847 166.361L113.411 165.324C113.379 165.404 113.293 165.501 113.153 165.618C113.015 165.729 112.852 165.845 112.664 165.965C112.474 166.081 112.289 166.194 112.109 166.303C111.927 166.408 111.775 166.496 111.654 166.568C111.366 166.734 111.115 166.915 110.902 167.111C110.692 167.306 110.548 167.521 110.47 167.755C110.394 167.984 110.414 168.239 110.531 168.518C110.694 168.906 110.961 169.139 111.331 169.218C111.699 169.293 112.105 169.238 112.549 169.051ZM115.779 156.343L120.285 167.072L118.718 167.73L114.213 157.001L115.779 156.343ZM121.917 153.766L123.881 152.941L130.799 159.847L130.925 159.794L130.838 150.02L132.803 149.195L137.308 159.924L135.768 160.57L132.507 152.807L132.408 152.848L132.497 161.925L131.219 162.462L124.799 156.037L124.7 156.079L127.962 163.848L126.422 164.495L121.917 153.766ZM141.952 158.183C141.442 158.397 140.942 158.496 140.45 158.481C139.958 158.462 139.514 158.321 139.121 158.059C138.731 157.796 138.425 157.4 138.204 156.873C138.013 156.419 137.943 156.009 137.995 155.642C138.046 155.275 138.184 154.944 138.409 154.648C138.634 154.352 138.912 154.084 139.242 153.842C139.572 153.601 139.918 153.378 140.279 153.173C140.738 152.914 141.11 152.705 141.396 152.544C141.68 152.379 141.873 152.226 141.974 152.085C142.075 151.944 142.086 151.779 142.006 151.591L141.991 151.554C141.799 151.097 141.521 150.796 141.157 150.654C140.796 150.509 140.363 150.543 139.856 150.756C139.329 150.977 138.962 151.269 138.757 151.631C138.553 151.987 138.453 152.331 138.457 152.662L136.844 152.945C136.813 152.383 136.902 151.881 137.112 151.44C137.323 150.994 137.62 150.61 138.003 150.29C138.384 149.965 138.817 149.701 139.303 149.497C139.624 149.362 139.981 149.257 140.373 149.183C140.767 149.104 141.163 149.098 141.561 149.165C141.962 149.231 142.342 149.406 142.7 149.691C143.056 149.973 143.358 150.407 143.604 150.994L145.848 156.337L144.318 156.98L143.857 155.879L143.794 155.906C143.777 156.151 143.709 156.414 143.589 156.694C143.468 156.975 143.276 157.247 143.013 157.509C142.749 157.772 142.396 157.997 141.952 158.183ZM141.765 156.783C142.198 156.601 142.532 156.36 142.767 156.06C143.006 155.758 143.148 155.435 143.193 155.092C143.24 154.744 143.197 154.411 143.063 154.093L142.628 153.056C142.595 153.135 142.509 153.233 142.369 153.349C142.231 153.46 142.068 153.576 141.88 153.696C141.69 153.813 141.506 153.925 141.325 154.034C141.143 154.139 140.991 154.227 140.87 154.299C140.582 154.465 140.331 154.646 140.118 154.843C139.908 155.038 139.764 155.252 139.686 155.486C139.61 155.716 139.63 155.97 139.747 156.249C139.91 156.637 140.177 156.87 140.547 156.949C140.915 157.024 141.321 156.969 141.765 156.783ZM147.934 155.461L144.555 147.415L146.069 146.779L146.606 148.057L146.69 148.022C146.655 147.527 146.77 147.078 147.036 146.675C147.304 146.266 147.674 145.963 148.146 145.765C148.244 145.724 148.36 145.679 148.496 145.63C148.635 145.58 148.745 145.544 148.826 145.522L149.456 147.021C149.385 147.03 149.266 147.057 149.096 147.104C148.925 147.147 148.759 147.202 148.599 147.27C148.229 147.425 147.932 147.642 147.708 147.921C147.486 148.195 147.349 148.505 147.297 148.851C147.244 149.194 147.291 149.54 147.437 149.889L149.501 154.803L147.934 155.461ZM153.891 149.749L153.077 147.842L153.35 147.727L155.126 142.976L157.001 142.188L154.973 147.6L154.726 147.704L153.891 149.749ZM153.596 153.084L149.091 142.355L150.657 141.697L155.163 152.426L153.596 153.084ZM158.678 150.95L154.19 148.335L154.81 146.787L160.6 150.142L158.678 150.95ZM165.013 148.481C164.22 148.813 163.466 148.931 162.751 148.833C162.038 148.729 161.396 148.434 160.826 147.946C160.257 147.454 159.798 146.79 159.447 145.955C159.101 145.131 158.95 144.34 158.993 143.582C159.04 142.823 159.267 142.151 159.674 141.565C160.085 140.977 160.664 140.527 161.411 140.213C161.865 140.022 162.337 139.913 162.826 139.884C163.315 139.855 163.797 139.93 164.27 140.109C164.744 140.288 165.187 140.593 165.598 141.025C166.007 141.453 166.365 142.031 166.672 142.761L166.905 143.317L160.509 146.003L160.016 144.829L164.877 142.788C164.704 142.376 164.467 142.046 164.166 141.798C163.864 141.547 163.522 141.393 163.14 141.336C162.762 141.277 162.37 141.332 161.965 141.503C161.525 141.687 161.186 141.957 160.949 142.311C160.714 142.661 160.58 143.046 160.547 143.466C160.516 143.882 160.585 144.29 160.753 144.692L161.138 145.609C161.364 146.147 161.651 146.565 161.998 146.863C162.348 147.159 162.736 147.335 163.162 147.39C163.587 147.442 164.027 147.372 164.485 147.18C164.782 147.055 165.035 146.9 165.244 146.713C165.452 146.523 165.609 146.305 165.715 146.059C165.822 145.813 165.869 145.545 165.858 145.254L167.452 144.899C167.517 145.385 167.465 145.857 167.295 146.314C167.128 146.767 166.852 147.18 166.467 147.556C166.084 147.926 165.599 148.234 165.013 148.481ZM170.512 136.515L171.04 137.772L166.644 139.618L166.116 138.36L170.512 136.515ZM166.486 135.938L168.052 135.28L171.248 142.892C171.376 143.195 171.517 143.405 171.673 143.521C171.827 143.633 171.987 143.687 172.154 143.682C172.322 143.673 172.492 143.633 172.663 143.561C172.789 143.508 172.895 143.453 172.982 143.396C173.069 143.339 173.137 143.294 173.185 143.262L174.011 144.437C173.935 144.51 173.82 144.599 173.667 144.704C173.516 144.813 173.315 144.922 173.065 145.031C172.656 145.211 172.241 145.299 171.82 145.295C171.399 145.291 171.012 145.175 170.657 144.946C170.302 144.717 170.022 144.36 169.818 143.874L166.486 135.938ZM175.623 143.834L172.244 135.787L173.811 135.129L177.19 143.176L175.623 143.834ZM172.514 134.213C172.242 134.328 171.97 134.335 171.698 134.236C171.428 134.131 171.239 133.952 171.132 133.697C171.024 133.438 171.028 133.178 171.143 132.916C171.261 132.648 171.456 132.458 171.729 132.343C172.001 132.229 172.272 132.224 172.542 132.328C172.814 132.428 173.004 132.607 173.113 132.865C173.22 133.12 173.214 133.381 173.096 133.648C172.981 133.911 172.787 134.099 172.514 134.213ZM178.857 136.856L180.863 141.633L179.297 142.291L175.918 134.244L177.422 133.613L177.972 134.923L178.071 134.881C178.077 134.377 178.223 133.913 178.509 133.489C178.799 133.063 179.246 132.724 179.85 132.47C180.398 132.24 180.927 132.153 181.436 132.211C181.943 132.265 182.405 132.469 182.821 132.824C183.238 133.18 183.585 133.689 183.864 134.353L186.013 139.471L184.447 140.129L182.377 135.199C182.132 134.616 181.788 134.224 181.347 134.023C180.903 133.819 180.416 133.828 179.886 134.051C179.522 134.204 179.232 134.418 179.015 134.694C178.802 134.968 178.677 135.292 178.641 135.665C178.606 136.033 178.678 136.43 178.857 136.856ZM192.825 140.357C192.186 140.625 191.601 140.773 191.069 140.799C190.541 140.823 190.074 140.758 189.669 140.604C189.263 140.45 188.92 140.239 188.639 139.97L189.752 138.85C189.911 138.964 190.104 139.073 190.333 139.179C190.567 139.286 190.846 139.343 191.17 139.351C191.497 139.357 191.877 139.27 192.31 139.088C192.904 138.839 193.334 138.488 193.6 138.035C193.867 137.586 193.869 137.047 193.605 136.418L192.941 134.836L192.841 134.878C192.819 135.089 192.762 135.336 192.672 135.621C192.586 135.903 192.421 136.186 192.178 136.469C191.935 136.752 191.568 136.996 191.075 137.203C190.44 137.47 189.805 137.562 189.17 137.479C188.538 137.392 187.95 137.119 187.409 136.66C186.869 136.197 186.419 135.537 186.06 134.681C185.701 133.826 185.538 133.031 185.571 132.298C185.608 131.564 185.813 130.927 186.186 130.389C186.558 129.846 187.067 129.439 187.713 129.168C188.213 128.958 188.651 128.873 189.029 128.911C189.405 128.946 189.725 129.038 189.989 129.186C190.256 129.333 190.472 129.47 190.636 129.598L190.752 129.55L190.204 128.245L191.739 127.601L195.193 135.825C195.483 136.517 195.561 137.152 195.426 137.73C195.291 138.309 194.994 138.82 194.535 139.263C194.079 139.705 193.509 140.07 192.825 140.357ZM190.876 135.759C191.326 135.57 191.663 135.305 191.886 134.965C192.11 134.62 192.22 134.216 192.215 133.754C192.212 133.287 192.094 132.776 191.861 132.221C191.634 131.679 191.353 131.236 191.019 130.892C190.686 130.547 190.315 130.325 189.907 130.225C189.498 130.121 189.065 130.166 188.607 130.358C188.136 130.556 187.794 130.843 187.583 131.219C187.37 131.592 187.27 132.02 187.284 132.503C187.301 132.985 187.418 133.483 187.633 133.996C187.855 134.523 188.129 134.952 188.457 135.283C188.785 135.614 189.153 135.825 189.561 135.916C189.973 136.006 190.411 135.954 190.876 135.759Z" fill="black"/>
</svg>
