<svg width="193" height="197" viewBox="0 0 193 197" fill="none" xmlns="http://www.w3.org/2000/svg">
<rect x="26.7551" y="0.930054" width="167.774" height="39.3199" rx="19.66" transform="rotate(7.72 26.7551 0.930054)" fill="#FFD365"/>
<path d="M35.7938 16.8232L35.9969 15.3256L44.9209 16.5353L44.7179 18.033L41.1201 17.5453L39.76 27.5785L38.0259 27.3434L39.386 17.3102L35.7938 16.8232ZM47.6441 28.825C46.7921 28.7095 46.0829 28.428 45.5167 27.9804C44.9548 27.5297 44.5518 26.9494 44.3078 26.2398C44.068 25.5269 44.009 24.7219 44.1306 23.8248C44.2507 22.9389 44.5217 22.1806 44.9436 21.5497C45.3692 20.9194 45.9061 20.4551 46.5544 20.1569C47.2063 19.8592 47.9339 19.7648 48.7372 19.8737C49.2251 19.9398 49.6871 20.0846 50.1232 20.3081C50.5593 20.5316 50.9359 20.8407 51.2532 21.2354C51.5705 21.63 51.7968 22.1175 51.9322 22.6978C52.0681 23.2743 52.0829 23.9548 51.9766 24.7393L51.8957 25.3361L45.021 24.4042L45.192 23.143L50.4169 23.8513C50.477 23.4084 50.4401 23.0039 50.3062 22.6379C50.1729 22.2682 49.9564 21.9617 49.6568 21.7185C49.361 21.4758 48.9953 21.3249 48.5599 21.2659C48.087 21.2018 47.6583 21.2622 47.2739 21.447C46.8938 21.6287 46.5828 21.8923 46.341 22.238C46.1035 22.5804 45.9555 22.9674 45.897 23.3991L45.7634 24.3844C45.685 24.9624 45.7197 25.4679 45.8674 25.9008C46.0189 26.3341 46.2641 26.6827 46.603 26.9465C46.9423 27.2066 47.3578 27.37 47.8496 27.4366C48.1686 27.4799 48.4656 27.4743 48.7406 27.4198C49.016 27.3616 49.262 27.2535 49.4783 27.0955C49.6947 26.9375 49.8719 26.7303 50.0098 26.4738L51.5643 26.9769C51.3731 27.4288 51.0884 27.8088 50.7102 28.1168C50.3364 28.4216 49.8885 28.6381 49.3665 28.7661C48.8489 28.8909 48.2747 28.9105 47.6441 28.825ZM56.8652 30.075C56.0282 29.9616 55.3332 29.6743 54.7802 29.2133C54.2316 28.749 53.8414 28.159 53.6097 27.4434C53.3779 26.7278 53.3208 25.9364 53.4384 25.0693C53.5574 24.191 53.8277 23.4383 54.2491 22.8112C54.671 22.1803 55.2079 21.716 55.8599 21.4183C56.5118 21.1206 57.2451 21.027 58.0596 21.1374C58.7165 21.2265 59.2855 21.4278 59.7666 21.7415C60.2483 22.0515 60.6173 22.4455 60.8735 22.9237C61.1336 23.4023 61.2542 23.9366 61.2354 24.5266L59.5969 24.3045C59.5618 23.8869 59.4027 23.5098 59.1196 23.1733C58.8402 22.8372 58.4322 22.6328 57.8954 22.5601C57.4262 22.4965 56.9984 22.5646 56.612 22.7645C56.2298 22.9612 55.9104 23.2734 55.6536 23.7011C55.3974 24.1251 55.2275 24.6448 55.1441 25.2604C55.0586 25.891 55.0805 26.4483 55.2099 26.9321C55.3392 27.416 55.5614 27.8074 55.8764 28.1062C56.1951 28.4055 56.5929 28.5875 57.0696 28.6521C57.3886 28.6953 57.6855 28.6763 57.9603 28.5951C58.2393 28.5106 58.4821 28.3696 58.6885 28.172C58.8987 27.975 59.0606 27.7255 59.1741 27.4237L60.8125 27.6458C60.6767 28.1969 60.4269 28.6714 60.0634 29.0694C59.6998 29.4673 59.2457 29.7575 58.7011 29.9397C58.1603 30.1225 57.5483 30.1676 56.8652 30.075ZM64.6214 25.7195L63.9253 30.8544L62.2419 30.6261L63.805 19.0953L65.466 19.3204L64.8844 23.6107L64.9913 23.6252C65.2571 23.1873 65.6169 22.8595 66.0707 22.642C66.5245 22.4245 67.0873 22.3612 67.7592 22.4523C68.3523 22.5327 68.8537 22.7249 69.2636 23.0289C69.6772 23.3335 69.9731 23.7444 70.1515 24.2617C70.3341 24.7757 70.3765 25.3931 70.2788 26.1137L69.5331 31.6146L67.8497 31.3863L68.5679 26.0882C68.6539 25.4539 68.5573 24.94 68.278 24.5467C67.9993 24.1496 67.569 23.9116 66.9872 23.8327C66.5894 23.7788 66.2213 23.8149 65.8831 23.9411C65.5487 24.0677 65.2693 24.2821 65.0448 24.5843C64.8246 24.8832 64.6835 25.2616 64.6214 25.7195ZM74.1592 27.0125L73.4631 32.1473L71.7796 31.9191L72.952 23.2709L74.5679 23.49L74.3771 24.8976L74.4841 24.9121C74.7451 24.4811 75.1065 24.1555 75.5683 23.9352C76.0339 23.7155 76.5913 23.6496 77.2407 23.7376C77.83 23.8175 78.3293 24.0113 78.7386 24.3191C79.1485 24.6231 79.4426 25.0338 79.6209 25.5511C79.7993 26.0684 79.8401 26.6836 79.7434 27.3968L78.9977 32.8976L77.3143 32.6694L78.0325 27.3712C78.1174 26.7444 78.0206 26.2324 77.7418 25.8353C77.4636 25.4345 77.0392 25.1954 76.4687 25.118C76.0783 25.0651 75.7197 25.1025 75.3927 25.2302C75.0696 25.3584 74.7976 25.5738 74.5769 25.8765C74.3605 26.1759 74.2213 26.5545 74.1592 27.0125ZM84.8746 33.872C84.0639 33.7621 83.3815 33.4804 82.8276 33.0269C82.2736 32.5733 81.8749 31.9899 81.6314 31.2764C81.3879 30.563 81.3267 29.7597 81.4478 28.8663C81.5694 27.9692 81.8428 27.2074 82.268 26.5808C82.6931 25.9542 83.233 25.496 83.8877 25.2063C84.5424 24.9167 85.2751 24.8268 86.0859 24.9367C86.8967 25.0466 87.579 25.3283 88.133 25.7818C88.6869 26.2354 89.0854 26.8207 89.3284 27.5379C89.5714 28.255 89.632 29.0622 89.5104 29.9593C89.3893 30.8526 89.1165 31.6107 88.6918 32.2336C88.2672 32.8564 87.7275 33.3127 87.0728 33.6024C86.4181 33.892 85.6854 33.9819 84.8746 33.872ZM85.0718 32.4596C85.5973 32.5308 86.0516 32.4509 86.4346 32.22C86.8175 31.989 87.1229 31.6539 87.3506 31.2146C87.5821 30.7758 87.7355 30.2787 87.8108 29.7231C87.8856 29.1714 87.8699 28.6532 87.7636 28.1686C87.6615 27.6808 87.4569 27.2727 87.1497 26.9444C86.8426 26.6161 86.4262 26.4163 85.9007 26.345C85.3715 26.2733 84.9132 26.3545 84.526 26.5887C84.1425 26.8234 83.8348 27.162 83.6027 27.6046C83.375 28.0439 83.2237 28.5394 83.1489 29.0912C83.0736 29.6467 83.0873 30.1665 83.1898 30.6506C83.2962 31.1352 83.5032 31.5397 83.8108 31.8643C84.1223 32.1894 84.5426 32.3878 85.0718 32.4596ZM94.0553 23.196L92.4922 34.7269L90.8087 34.4987L92.3719 22.9678L94.0553 23.196ZM98.3761 35.7023C97.5654 35.5924 96.883 35.3107 96.3291 34.8571C95.7751 34.4036 95.3764 33.8201 95.1329 33.1067C94.8894 32.3933 94.8282 31.5899 94.9493 30.6966C95.0709 29.7995 95.3443 29.0376 95.7695 28.411C96.1946 27.7844 96.7345 27.3263 97.3892 27.0366C98.0439 26.7469 98.7767 26.6571 99.5874 26.767C100.398 26.8769 101.081 27.1586 101.634 27.6121C102.188 28.0656 102.587 28.651 102.83 29.3682C103.073 30.0853 103.134 30.8925 103.012 31.7896C102.891 32.6829 102.618 33.441 102.193 34.0638C101.769 34.6867 101.229 35.1429 100.574 35.4326C99.9196 35.7223 99.1869 35.8122 98.3761 35.7023ZM98.5733 34.2898C99.0988 34.3611 99.5531 34.2812 99.9361 34.0503C100.319 33.8193 100.624 33.4842 100.852 33.0449C101.084 32.6061 101.237 32.1089 101.312 31.5534C101.387 31.0017 101.371 30.4835 101.265 29.9989C101.163 29.5111 100.958 29.103 100.651 28.7747C100.344 28.4463 99.9277 28.2465 99.4022 28.1753C98.873 28.1036 98.4147 28.1848 98.0275 28.419C97.644 28.6537 97.3363 28.9923 97.1043 29.4348C96.8765 29.8741 96.7252 30.3697 96.6504 30.9215C96.5751 31.477 96.5888 31.9968 96.6913 32.4809C96.7977 32.9654 97.0047 33.37 97.3123 33.6946C97.6238 34.0197 98.0441 34.2181 98.5733 34.2898ZM107.472 40.2437C106.785 40.1506 106.206 39.9804 105.735 39.7331C105.268 39.4862 104.899 39.1934 104.627 38.8547C104.356 38.5159 104.167 38.1597 104.061 37.786L105.589 37.3853C105.668 37.5642 105.779 37.7571 105.923 37.9639C106.071 38.175 106.282 38.3661 106.557 38.5371C106.835 38.7087 107.207 38.826 107.673 38.8891C108.311 38.9756 108.86 38.8913 109.318 38.6363C109.777 38.385 110.052 37.9215 110.143 37.2458L110.374 35.5455L110.267 35.531C110.141 35.7012 109.966 35.8859 109.745 36.0852C109.526 36.2849 109.241 36.445 108.888 36.5654C108.535 36.6858 108.094 36.7101 107.565 36.6383C106.882 36.5457 106.288 36.3028 105.783 35.9094C105.283 35.5128 104.916 34.9795 104.681 34.3094C104.452 33.6361 104.399 32.8396 104.524 31.92C104.648 31.0003 104.911 30.2332 105.312 29.6186C105.716 29.0044 106.216 28.56 106.811 28.2852C107.407 28.0067 108.052 27.9144 108.747 28.0086C109.283 28.0813 109.705 28.2302 110.011 28.4551C110.317 28.6763 110.546 28.9176 110.698 29.179C110.854 29.441 110.97 29.6689 111.047 29.8628L111.171 29.8796L111.361 28.4776L113.01 28.7013L111.812 37.5409C111.711 38.2841 111.456 38.8706 111.046 39.3005C110.636 39.7304 110.121 40.0199 109.501 40.1689C108.884 40.3185 108.208 40.3435 107.472 40.2437ZM108.126 35.2924C108.61 35.358 109.035 35.3009 109.399 35.121C109.768 34.9378 110.068 34.6458 110.298 34.2451C110.532 33.8411 110.69 33.3407 110.771 32.7439C110.85 32.1621 110.833 31.638 110.72 31.1717C110.608 30.7054 110.401 30.3257 110.101 30.0327C109.801 29.7359 109.405 29.5542 108.913 29.4875C108.406 29.4188 107.966 29.493 107.593 29.7099C107.22 29.9231 106.917 30.2414 106.684 30.6646C106.454 31.0884 106.302 31.5762 106.227 32.1279C106.15 32.6947 106.169 33.2038 106.284 33.6551C106.399 34.1064 106.609 34.4751 106.914 34.7611C107.223 35.0476 107.627 35.2247 108.126 35.2924ZM114.72 41.0428C114.469 41.0087 114.243 40.957 114.042 40.8878C113.84 40.8222 113.692 40.7601 113.597 40.7013L114.189 39.3768C114.486 39.5011 114.755 39.5739 114.997 39.5952C115.238 39.6165 115.463 39.5552 115.67 39.4112C115.88 39.2678 116.083 39.0143 116.277 38.6507L116.563 38.1047L114.587 28.915L116.389 29.1592L117.669 36.1675L117.759 36.1797L120.859 29.7652L122.666 30.0102L117.774 39.3295C117.547 39.7575 117.285 40.11 116.988 40.387C116.69 40.6677 116.354 40.8629 115.98 40.9727C115.605 41.0825 115.186 41.1059 114.72 41.0428ZM130.606 40.0599C129.832 39.955 129.185 39.724 128.664 39.3666C128.147 39.0098 127.771 38.5689 127.536 38.044C127.302 37.5154 127.227 36.9432 127.31 36.3277C127.374 35.8585 127.528 35.4551 127.772 35.1174C128.017 34.776 128.336 34.4732 128.727 34.209C129.118 33.9448 129.564 33.6861 130.065 33.4328L132.101 32.3728C132.444 32.2091 132.719 32.0248 132.927 31.8197C133.135 31.6109 133.262 31.3357 133.308 30.9941C133.345 30.7239 133.264 30.4491 133.064 30.1698C132.865 29.8906 132.571 29.7245 132.18 29.6715C131.91 29.6349 131.663 29.6683 131.438 29.7717C131.218 29.8756 131.035 30.0228 130.891 30.2135C130.751 30.4009 130.666 30.6073 130.635 30.8325C130.6 31.0952 130.635 31.3695 130.742 31.6554C130.852 31.9417 131.002 32.243 131.192 32.5593C131.383 32.8719 131.584 33.1972 131.794 33.5354L136.281 40.6629L134.378 40.4049L130.652 34.5962C130.34 34.1066 130.051 33.6469 129.784 33.2171C129.518 32.7835 129.313 32.3542 129.168 31.9294C129.027 31.5013 128.988 31.0545 129.051 30.5891C129.123 30.0598 129.307 29.6069 129.602 29.2304C129.902 28.8505 130.286 28.5738 130.753 28.4001C131.22 28.2264 131.746 28.1792 132.332 28.2586C132.925 28.339 133.417 28.5243 133.81 28.8145C134.207 29.1015 134.494 29.4519 134.671 29.8658C134.852 30.2765 134.912 30.707 134.851 31.1575C134.777 31.7055 134.574 32.1711 134.243 32.5544C133.917 32.9344 133.491 33.2666 132.967 33.5511L130.422 34.9434C129.927 35.2126 129.569 35.4967 129.349 35.7956C129.133 36.0912 129.013 36.3291 128.988 36.5093C128.944 36.8396 128.987 37.157 129.117 37.4614C129.252 37.7663 129.462 38.0241 129.746 38.2347C130.035 38.4459 130.388 38.5797 130.804 38.6362C131.232 38.6942 131.661 38.6587 132.092 38.5297C132.526 38.3975 132.932 38.1792 133.31 37.8749C133.691 37.5711 134.013 37.1885 134.274 36.727C134.535 36.2655 134.707 35.7326 134.789 35.1283L136.309 35.3343C136.208 36.0775 136.039 36.6948 135.8 37.1861C135.562 37.6737 135.301 38.0626 135.017 38.3529C134.737 38.6399 134.48 38.8592 134.245 39.0109C134.17 39.0618 134.098 39.1132 134.03 39.1651C133.961 39.217 133.889 39.2684 133.814 39.3193C133.37 39.6605 132.858 39.8873 132.277 39.9997C131.699 40.1126 131.142 40.1326 130.606 40.0599ZM149.372 33.7796C149.384 33.2384 149.193 32.792 148.797 32.4402C148.402 32.0846 147.874 31.862 147.213 31.7725C146.74 31.7084 146.321 31.728 145.955 31.8313C145.59 31.9309 145.294 32.0972 145.068 32.3302C144.845 32.56 144.712 32.8382 144.668 33.1648C144.631 33.4388 144.662 33.6839 144.763 33.9002C144.867 34.1169 145.016 34.3071 145.208 34.4707C145.404 34.6311 145.618 34.7729 145.849 34.896C146.082 35.0154 146.307 35.1185 146.524 35.2054L147.611 35.6508C147.966 35.7908 148.327 35.9639 148.693 36.1702C149.058 36.3765 149.389 36.6278 149.686 36.924C149.982 37.2203 150.206 37.568 150.358 37.9671C150.514 38.3666 150.557 38.8254 150.487 39.3434C150.399 39.9965 150.151 40.5536 149.745 41.0145C149.342 41.4759 148.802 41.8098 148.124 42.0161C147.45 42.2229 146.662 42.2652 145.761 42.1431C144.898 42.026 144.17 41.7878 143.576 41.4283C142.983 41.0688 142.542 40.6134 142.254 40.0621C141.966 39.507 141.85 38.8797 141.907 38.1802L143.652 38.4168C143.629 38.8381 143.717 39.2036 143.916 39.5134C144.119 39.82 144.397 40.066 144.751 40.2515C145.108 40.4338 145.51 40.5552 145.957 40.6157C146.449 40.6824 146.896 40.6647 147.3 40.5627C147.708 40.4575 148.042 40.281 148.301 40.0332C148.56 39.7818 148.716 39.4683 148.767 39.093C148.813 38.7514 148.753 38.4585 148.588 38.2144C148.426 37.9707 148.189 37.7552 147.878 37.5678C147.571 37.3809 147.218 37.205 146.82 37.0402L145.508 36.4839C144.619 36.1072 143.937 35.6383 143.463 35.077C142.992 34.5163 142.811 33.8343 142.92 33.0311C143.01 32.3667 143.269 31.8112 143.696 31.3646C144.124 30.9179 144.664 30.5993 145.317 30.4088C145.97 30.2145 146.683 30.1697 147.456 30.2745C148.237 30.3804 148.907 30.6108 149.467 30.9657C150.03 31.3211 150.452 31.7624 150.732 32.2897C151.013 32.8132 151.119 33.3857 151.05 34.007L149.372 33.7796ZM154.49 43.3263C153.942 43.252 153.46 43.0835 153.045 42.8208C152.63 42.5543 152.319 42.2083 152.113 41.7828C151.911 41.3578 151.848 40.862 151.925 40.2952C151.991 39.8072 152.139 39.4183 152.37 39.1285C152.6 38.8386 152.887 38.6233 153.231 38.4827C153.575 38.342 153.951 38.2514 154.358 38.211C154.764 38.1706 155.176 38.1538 155.592 38.1604C156.118 38.1706 156.545 38.1788 156.873 38.185C157.201 38.1875 157.444 38.1536 157.603 38.0833C157.762 38.0131 157.855 37.8766 157.882 37.6739L157.888 37.6345C157.954 37.1428 157.867 36.743 157.626 36.4351C157.388 36.1277 156.998 35.9371 156.453 35.8633C155.887 35.7865 155.423 35.8517 155.062 36.0589C154.706 36.2629 154.445 36.5085 154.28 36.7957L152.747 36.2209C153.006 35.7209 153.337 35.3339 153.741 35.0599C154.15 34.7827 154.6 34.603 155.093 34.5207C155.586 34.4347 156.094 34.427 156.616 34.4977C156.961 34.5445 157.321 34.6354 157.697 34.7704C158.076 34.9022 158.421 35.0979 158.729 35.3577C159.042 35.6179 159.28 35.9617 159.444 36.3891C159.608 36.8128 159.648 37.3399 159.562 37.9705L158.784 43.7134L157.14 43.4905L157.3 42.3082L157.232 42.299C157.094 42.502 156.902 42.6938 156.655 42.8745C156.409 43.0552 156.106 43.1918 155.745 43.2844C155.385 43.3769 154.967 43.3909 154.49 43.3263ZM155.039 42.0246C155.504 42.0877 155.915 42.0497 156.27 41.9106C156.629 41.7719 156.915 41.566 157.128 41.2929C157.345 41.0165 157.477 40.7076 157.523 40.366L157.674 39.2512C157.606 39.3031 157.482 39.3436 157.302 39.3728C157.127 39.3987 156.927 39.4156 156.705 39.4237C156.482 39.4279 156.266 39.4311 156.055 39.4331C155.845 39.4314 155.67 39.4305 155.528 39.4305C155.196 39.4275 154.888 39.4565 154.605 39.5174C154.325 39.5789 154.092 39.6907 153.906 39.8527C153.724 40.0115 153.612 40.2411 153.572 40.5413C153.515 40.958 153.626 41.2941 153.905 41.5498C154.184 41.8017 154.562 41.96 155.039 42.0246ZM163.517 44.55C162.969 44.4757 162.487 44.3072 162.071 44.0444C161.657 43.778 161.346 43.432 161.14 43.0065C160.938 42.5815 160.875 42.0856 160.952 41.5189C161.018 41.0309 161.166 40.642 161.397 40.3521C161.627 40.0623 161.914 39.847 162.258 39.7063C162.602 39.5657 162.978 39.4751 163.384 39.4347C163.791 39.3943 164.203 39.3774 164.618 39.3841C165.144 39.3943 165.571 39.4025 165.899 39.4087C166.228 39.4111 166.471 39.3773 166.63 39.307C166.788 39.2368 166.881 39.1003 166.909 38.8976L166.914 38.8582C166.981 38.3665 166.894 37.9667 166.653 37.6588C166.415 37.3514 166.024 37.1608 165.48 37.087C164.913 37.0102 164.45 37.0754 164.089 37.2826C163.733 37.4866 163.472 37.7322 163.307 38.0194L161.774 37.4446C162.032 36.9445 162.364 36.5575 162.768 36.2836C163.176 36.0064 163.627 35.8266 164.12 35.7444C164.613 35.6583 165.121 35.6507 165.642 35.7214C165.988 35.7682 166.348 35.8591 166.723 35.9941C167.103 36.1259 167.447 36.3216 167.756 36.5814C168.069 36.8416 168.307 37.1854 168.471 37.6128C168.635 38.0365 168.674 38.5636 168.589 39.1942L167.81 44.9371L166.166 44.7142L166.327 43.5319L166.259 43.5227C166.121 43.7256 165.928 43.9175 165.682 44.0982C165.436 44.2788 165.133 44.4155 164.772 44.508C164.412 44.6006 163.993 44.6146 163.517 44.55ZM164.066 43.2483C164.531 43.3114 164.942 43.2734 165.297 43.1342C165.656 42.9956 165.942 42.7897 166.155 42.5166C166.372 42.2402 166.503 41.9313 166.55 41.5897L166.701 40.4749C166.633 40.5268 166.509 40.5673 166.329 40.5965C166.153 40.6224 165.954 40.6393 165.731 40.6473C165.509 40.6516 165.293 40.6548 165.082 40.6568C164.872 40.6551 164.697 40.6542 164.555 40.6542C164.223 40.6512 163.915 40.6802 163.632 40.7411C163.352 40.8026 163.119 40.9143 162.933 41.0764C162.75 41.2352 162.639 41.4647 162.598 41.765C162.542 42.1817 162.653 42.5178 162.932 42.7735C163.211 43.0254 163.589 43.1837 164.066 43.2483ZM177.629 37.6101C177.642 37.069 177.45 36.6225 177.054 36.2707C176.659 35.9152 176.131 35.6926 175.47 35.6031C174.997 35.5389 174.578 35.5586 174.212 35.6619C173.847 35.7615 173.551 35.9278 173.325 36.1608C173.103 36.3906 172.969 36.6688 172.925 36.9953C172.888 37.2694 172.92 37.5145 173.02 37.7307C173.125 37.9475 173.273 38.1377 173.465 38.3013C173.661 38.4617 173.875 38.6034 174.107 38.7266C174.339 38.846 174.564 38.9491 174.781 39.0359L175.868 39.4814C176.223 39.6213 176.584 39.7944 176.95 40.0007C177.316 40.2071 177.647 40.4583 177.943 40.7546C178.239 41.0509 178.463 41.3985 178.616 41.7976C178.772 42.1972 178.815 42.656 178.744 43.174C178.656 43.8271 178.408 44.3841 178.002 44.8451C177.599 45.3065 177.059 45.6404 176.381 45.8466C175.707 46.0534 174.919 46.0958 174.019 45.9736C173.155 45.8566 172.427 45.6183 171.833 45.2588C171.24 44.8994 170.799 44.4439 170.511 43.8926C170.223 43.3376 170.107 42.7103 170.164 42.0108L171.909 42.2474C171.886 42.6686 171.974 43.0341 172.173 43.344C172.376 43.6505 172.655 43.8966 173.008 44.0821C173.365 44.2643 173.768 44.3857 174.214 44.4463C174.706 44.5129 175.154 44.4953 175.557 44.3933C175.965 44.288 176.299 44.1116 176.558 43.8638C176.818 43.6123 176.973 43.2989 177.024 42.9235C177.07 42.582 177.01 42.2891 176.845 42.0449C176.683 41.8013 176.446 41.5857 176.135 41.3983C175.828 41.2114 175.475 41.0356 175.077 40.8707L173.765 40.3144C172.876 39.9378 172.194 39.4688 171.72 38.9076C171.249 38.3469 171.068 37.6649 171.177 36.8616C171.267 36.1972 171.526 35.6417 171.953 35.1951C172.381 34.7485 172.921 34.4299 173.574 34.2393C174.227 34.045 174.94 34.0003 175.714 34.1051C176.494 34.2109 177.164 34.4413 177.724 34.7962C178.288 35.1517 178.709 35.593 178.99 36.1203C179.27 36.6438 179.376 37.2162 179.307 37.8376L177.629 37.6101Z" fill="black"/>
<rect x="1.06311" y="48.6285" width="99.754" height="39.3199" rx="19.66" transform="rotate(-8.78 1.06311 48.6285)" fill="white"/>
<path d="M18.5224 69.9725L16.7463 58.4725L20.8454 57.8394C21.7363 57.7018 22.4994 57.7411 23.1345 57.9573C23.7734 58.1729 24.2808 58.5296 24.6566 59.0273C25.0318 59.5212 25.2741 60.122 25.3834 60.8295C25.4921 61.5333 25.4399 62.1757 25.2268 62.7567C25.017 63.3333 24.6391 63.8152 24.0933 64.2023C23.5513 64.5888 22.8348 64.8509 21.9438 64.9885L18.8386 65.4681L18.6079 63.9744L21.5559 63.5191C22.1174 63.4324 22.5617 63.2814 22.8887 63.066C23.2195 62.8501 23.4435 62.576 23.5608 62.2436C23.6781 61.9112 23.7035 61.5297 23.637 61.0992C23.57 60.665 23.4276 60.3018 23.21 60.0096C22.9962 59.7168 22.6984 59.5137 22.3168 59.4002C21.9383 59.2823 21.4627 59.2676 20.8899 59.3561L18.7112 59.6926L20.2576 69.7045L18.5224 69.9725ZM23.3981 63.9072L27.0408 68.6569L25.0642 68.9622L21.4777 64.2038L23.3981 63.9072ZM31.5089 68.145C30.6591 68.2762 29.8992 68.2077 29.2292 67.9394C28.5623 67.6668 28.0112 67.2249 27.5757 66.6138C27.1433 65.9983 26.858 65.2432 26.7199 64.3486C26.5834 63.4651 26.6279 62.661 26.8532 61.9363C27.0823 61.211 27.4653 60.6134 28.0021 60.1433C28.5427 59.6727 29.2135 59.3756 30.0146 59.2518C30.5012 59.1767 30.9854 59.1843 31.4669 59.2747C31.9485 59.3652 32.3974 59.5545 32.8137 59.8429C33.2301 60.1312 33.5855 60.5343 33.8802 61.0522C34.1742 61.5664 34.3817 62.2147 34.5025 62.997L34.5944 63.5923L27.7382 64.6512L27.544 63.3934L32.7549 62.5886C32.6867 62.1468 32.5364 61.7695 32.3041 61.4566C32.0712 61.14 31.7766 60.9076 31.4203 60.7595C31.0677 60.6108 30.6743 60.57 30.24 60.6371C29.7684 60.7099 29.3745 60.8896 29.0585 61.176C28.7456 61.4581 28.5223 61.7992 28.3886 62.1993C28.2581 62.5951 28.2261 63.0082 28.2926 63.4387L28.4444 64.4214C28.5334 64.9979 28.7102 65.4727 28.9748 65.8458C29.2432 66.2183 29.5772 66.4829 29.9771 66.6396C30.3763 66.7926 30.8211 66.8312 31.3115 66.7554C31.6297 66.7063 31.9129 66.6166 32.1611 66.4862C32.4086 66.3522 32.6137 66.1787 32.7763 65.9658C32.9389 65.7529 33.0499 65.5038 33.1094 65.2187L34.7427 65.2596C34.6877 65.7472 34.5227 66.1924 34.2476 66.5952C33.9757 66.9936 33.6077 67.3283 33.1436 67.5993C32.6827 67.866 32.1378 68.0479 31.5089 68.145ZM38.8783 67.024C38.3317 67.1085 37.822 67.0837 37.349 66.9498C36.8755 66.8121 36.4795 66.5686 36.1611 66.2191C35.8464 65.8691 35.6454 65.4115 35.5581 64.8462C35.4829 64.3596 35.5146 63.9446 35.6532 63.6012C35.7918 63.2578 36.0061 62.9699 36.2959 62.7373C36.5858 62.5047 36.92 62.3113 37.2987 62.157C37.6773 62.0027 38.0668 61.8697 38.4674 61.758C38.9747 61.6183 39.3865 61.5049 39.7026 61.4177C40.0182 61.3268 40.2421 61.2252 40.3742 61.1128C40.5063 61.0004 40.5567 60.8431 40.5255 60.641L40.5195 60.6017C40.4437 60.1113 40.2465 59.7527 39.9279 59.526C39.613 59.2986 39.1841 59.2269 38.6413 59.3107C38.076 59.398 37.6499 59.5922 37.363 59.8934C37.0792 60.1902 36.899 60.4997 36.8223 60.822L35.1889 60.7063C35.2951 60.1533 35.503 59.6881 35.8127 59.3107C36.1255 58.9289 36.5065 58.6286 36.9556 58.4097C37.4042 58.1872 37.8886 58.0357 38.409 57.9553C38.7534 57.9021 39.1247 57.8869 39.523 57.9097C39.9245 57.9282 40.3101 58.0181 40.68 58.1795C41.0536 58.3402 41.3796 58.6022 41.6581 58.9655C41.9359 59.3251 42.1234 59.8193 42.2205 60.4482L43.1051 66.1757L41.4655 66.429L41.2833 65.2498L41.216 65.2602C41.1409 65.4941 41.0111 65.7326 40.8263 65.9758C40.6416 66.2189 40.3896 66.4361 40.0703 66.6272C39.751 66.8183 39.3537 66.9506 38.8783 67.024ZM39.0351 65.62C39.4993 65.5483 39.8819 65.3953 40.183 65.161C40.4879 64.9261 40.7036 64.6475 40.8301 64.3252C40.9598 63.9985 40.9983 63.6649 40.9457 63.3242L40.774 62.2124C40.7233 62.2815 40.616 62.3556 40.4518 62.4346C40.2909 62.5093 40.1048 62.5821 39.8934 62.6531C39.6815 62.7203 39.4749 62.7848 39.2736 62.8465C39.0718 62.9046 38.9031 62.9536 38.7675 62.9937C38.4481 63.0852 38.1612 63.2004 37.9067 63.3394C37.656 63.4778 37.4643 63.6511 37.3316 63.8594C37.2022 64.0634 37.1605 64.3151 37.2068 64.6146C37.271 65.0301 37.473 65.3208 37.813 65.4868C38.1523 65.649 38.5597 65.6934 39.0351 65.62ZM44.5376 54.1801L46.3138 65.6801L44.6349 65.9395L42.8587 54.4394L44.5376 54.1801ZM51.479 64.8824L49.7028 53.3824L56.9128 52.2688L57.1435 53.7624L51.6686 54.608L52.2098 58.1119L57.3084 57.3244L57.5383 58.8125L52.4396 59.6L52.9834 63.1207L58.5257 62.2647L58.7564 63.7584L51.479 64.8824ZM65.6216 56.0232L64.1415 56.5278C64.0478 56.343 63.9181 56.1733 63.7524 56.0187C63.5905 55.8636 63.3848 55.7478 63.1353 55.6713C62.8859 55.5949 62.5871 55.5835 62.239 55.6373C61.7635 55.7107 61.3832 55.8787 61.098 56.1412C60.8121 56.4 60.695 56.696 60.7464 57.0292C60.7909 57.3174 60.9335 57.533 61.174 57.676C61.4146 57.819 61.7813 57.9099 62.274 57.9488L63.6927 58.0517C64.5147 58.1125 65.1498 58.3038 65.5981 58.6255C66.0464 58.9472 66.3176 59.4131 66.4119 60.0233C66.4917 60.5399 66.4131 61.0235 66.176 61.4741C65.9422 61.9203 65.5771 62.2986 65.0808 62.6091C64.5882 62.919 63.9938 63.1277 63.2975 63.2352C62.3317 63.3844 61.5119 63.3002 60.8381 62.9827C60.1637 62.6614 59.6983 62.1296 59.4418 61.3873L61.0265 60.8896C61.1929 61.297 61.4501 61.585 61.7981 61.7535C62.1455 61.9184 62.5719 61.9617 63.0772 61.8837C63.6275 61.7987 64.0498 61.6166 64.3439 61.3373C64.6375 61.0544 64.7586 60.7463 64.7071 60.4131C64.6655 60.1436 64.5294 59.9327 64.2989 59.7805C64.0722 59.6277 63.7457 59.5363 63.3195 59.5063L61.8101 59.4118C60.9769 59.3527 60.3366 59.1526 59.8891 58.8116C59.4454 58.47 59.1762 57.9923 59.0813 57.3783C59.0027 56.8692 59.0762 56.4018 59.3017 55.976C59.5272 55.5502 59.8743 55.1919 60.343 54.901C60.8111 54.6064 61.3689 54.4091 62.0166 54.3091C62.9487 54.1651 63.7136 54.254 64.3114 54.5756C64.9086 54.8934 65.3453 55.376 65.6216 56.0232ZM70.6304 53.0937L70.8386 54.4413L66.1274 55.169L65.9192 53.8213L70.6304 53.0937ZM66.8635 51.5598L68.5425 51.3004L69.8026 59.4594C69.8529 59.7851 69.9395 60.0228 70.0622 60.1724C70.1844 60.3184 70.3269 60.4094 70.4896 60.4456C70.6555 60.4775 70.8302 60.4793 71.0136 60.4509C71.1484 60.4301 71.2649 60.4025 71.363 60.3682C71.4612 60.3339 71.5375 60.3068 71.5919 60.2869L72.1094 61.627C72.0178 61.6795 71.8851 61.7383 71.7112 61.8035C71.5379 61.8724 71.3167 61.9296 71.0478 61.9749C70.6072 62.0507 70.1833 62.0356 69.776 61.9299C69.3687 61.8242 69.0206 61.6173 68.7315 61.3093C68.4425 61.0014 68.2578 60.5872 68.1774 60.0668L66.8635 51.5598ZM75.6528 61.3442C75.1062 61.4286 74.5965 61.4038 74.1235 61.2699C73.65 61.1323 73.254 60.8887 72.9356 60.5393C72.6209 60.1893 72.4199 59.7316 72.3326 59.1664C72.2574 58.6797 72.2891 58.2647 72.4277 57.9213C72.5664 57.578 72.7806 57.29 73.0705 57.0574C73.3603 56.8249 73.6946 56.6314 74.0732 56.4771C74.4518 56.3228 74.8413 56.1898 75.2419 56.0781C75.7492 55.9385 76.161 55.825 76.4771 55.7379C76.7927 55.647 77.0166 55.5453 77.1487 55.4329C77.2808 55.3205 77.3313 55.1633 77.3 54.9611L77.294 54.9218C77.2182 54.4314 77.021 54.0729 76.7024 53.8461C76.3875 53.6188 75.9586 53.547 75.4158 53.6309C74.8505 53.7182 74.4244 53.9124 74.1375 54.2135C73.8537 54.5103 73.6735 54.8199 73.5968 55.1422L71.9634 55.0265C72.0696 54.4735 72.2776 54.0083 72.5872 53.6308C72.9 53.249 73.281 52.9487 73.7301 52.7299C74.1787 52.5073 74.6631 52.3558 75.1835 52.2755C75.5279 52.2223 75.8992 52.2071 76.2975 52.2299C76.699 52.2484 77.0847 52.3383 77.4545 52.4996C77.8281 52.6604 78.1542 52.9224 78.4326 53.2857C78.7104 53.6452 78.8979 54.1394 78.995 54.7683L79.8796 60.4959L78.24 60.7491L78.0579 59.5699L77.9905 59.5803C77.9154 59.8142 77.7856 60.0527 77.6008 60.2959C77.4161 60.5391 77.1641 60.7562 76.8448 60.9474C76.5255 61.1385 76.1282 61.2708 75.6528 61.3442ZM75.8096 59.9402C76.2738 59.8685 76.6565 59.7155 76.9576 59.4811C77.2624 59.2463 77.4781 58.9676 77.6046 58.6453C77.7343 58.3187 77.7728 57.985 77.7202 57.6443L77.5485 56.5325C77.4978 56.6017 77.3905 56.6757 77.2264 56.7548C77.0654 56.8294 76.8793 56.9023 76.6679 56.9732C76.456 57.0405 76.2494 57.1049 76.0482 57.1667C75.8463 57.2247 75.6776 57.2738 75.542 57.3139C75.2226 57.4053 74.9357 57.5206 74.6812 57.6595C74.4305 57.7979 74.2388 57.9712 74.1061 58.1795C73.9767 58.3835 73.9351 58.6352 73.9813 58.9347C74.0455 59.3502 74.2475 59.641 74.5875 59.807C74.9268 59.9692 75.3342 60.0136 75.8096 59.9402ZM84.1034 51.0128L84.3115 52.3604L79.6003 53.0881L79.3922 51.7404L84.1034 51.0128ZM80.3364 49.4789L82.0154 49.2195L83.2756 57.3785C83.3259 57.7042 83.4124 57.9418 83.5352 58.0915C83.6574 58.2375 83.7998 58.3285 83.9626 58.3647C84.1285 58.3966 84.3031 58.3984 84.4866 58.37C84.6213 58.3492 84.7378 58.3216 84.836 58.2873C84.9342 58.253 85.0105 58.2259 85.0649 58.206L85.5823 59.5461C85.4908 59.5986 85.358 59.6574 85.1841 59.7226C85.0108 59.7915 84.7897 59.8487 84.5207 59.894C84.0801 59.9697 83.6562 59.9547 83.2489 59.849C82.8417 59.7433 82.4935 59.5364 82.2045 59.2284C81.9154 58.9204 81.7307 58.5063 81.6504 57.9859L80.3364 49.4789ZM90.2377 59.0743C89.388 59.2055 88.6281 59.137 87.958 58.8687C87.2912 58.5961 86.74 58.1542 86.3045 57.5431C85.8722 56.9276 85.5869 56.1725 85.4487 55.2778C85.3123 54.3944 85.3567 53.5903 85.5821 52.8656C85.8112 52.1403 86.1941 51.5426 86.7309 51.0726C87.2715 50.602 87.9423 50.3048 88.7434 50.1811C89.2301 50.1059 89.7142 50.1136 90.1958 50.204C90.6773 50.2944 91.1263 50.4838 91.5426 50.7721C91.9589 51.0604 92.3144 51.4636 92.609 51.9815C92.9031 52.4957 93.1105 53.1439 93.2313 53.9263L93.3233 54.5215L86.4671 55.5805L86.2728 54.3227L91.4837 53.5178C91.4155 53.0761 91.2652 52.6988 91.0329 52.3859C90.8001 52.0692 90.5055 51.8369 90.1491 51.6888C89.7965 51.5401 89.4031 51.4993 88.9689 51.5663C88.4972 51.6392 88.1033 51.8188 87.7873 52.1053C87.4744 52.3874 87.2512 52.7285 87.1175 53.1286C86.987 53.5244 86.955 53.9375 87.0214 54.368L87.1732 55.3507C87.2623 55.9272 87.4391 56.402 87.7037 56.775C87.972 57.1475 88.3061 57.4121 88.7059 57.5689C89.1051 57.7218 89.55 57.7605 90.0404 57.6847C90.3586 57.6356 90.6417 57.5458 90.8899 57.4155C91.1375 57.2815 91.3426 57.108 91.5052 56.895C91.6678 56.6821 91.7788 56.4331 91.8382 56.148L93.4716 56.1889C93.4166 56.6765 93.2515 57.1217 92.9764 57.5244C92.7045 57.9229 92.3365 58.2576 91.8725 58.5286C91.4115 58.7952 90.8666 58.9771 90.2377 59.0743Z" fill="black"/>
<rect x="36" y="74" width="134" height="39" rx="19.5" fill="#AEFF9C"/>
<path d="M48.2784 98.5V86.8636H50.0341V96.9886H55.3068V98.5H48.2784ZM60.8494 98.6761C60.0313 98.6761 59.3172 98.4886 58.7074 98.1136C58.0975 97.7386 57.6241 97.214 57.2869 96.5398C56.9498 95.8655 56.7812 95.0777 56.7812 94.1761C56.7812 93.2708 56.9498 92.4792 57.2869 91.8011C57.6241 91.1231 58.0975 90.5966 58.7074 90.2216C59.3172 89.8466 60.0313 89.6591 60.8494 89.6591C61.6676 89.6591 62.3816 89.8466 62.9915 90.2216C63.6013 90.5966 64.0748 91.1231 64.4119 91.8011C64.7491 92.4792 64.9176 93.2708 64.9176 94.1761C64.9176 95.0777 64.7491 95.8655 64.4119 96.5398C64.0748 97.214 63.6013 97.7386 62.9915 98.1136C62.3816 98.4886 61.6676 98.6761 60.8494 98.6761ZM60.8551 97.25C61.3854 97.25 61.8248 97.1098 62.1733 96.8295C62.5218 96.5492 62.7794 96.1761 62.946 95.7102C63.1165 95.2443 63.2017 94.7311 63.2017 94.1705C63.2017 93.6136 63.1165 93.1023 62.946 92.6364C62.7794 92.1667 62.5218 91.7898 62.1733 91.5057C61.8248 91.2216 61.3854 91.0795 60.8551 91.0795C60.321 91.0795 59.8778 91.2216 59.5256 91.5057C59.1771 91.7898 58.9176 92.1667 58.7472 92.6364C58.5805 93.1023 58.4972 93.6136 58.4972 94.1705C58.4972 94.7311 58.5805 95.2443 58.7472 95.7102C58.9176 96.1761 59.1771 96.5492 59.5256 96.8295C59.8778 97.1098 60.321 97.25 60.8551 97.25ZM70.4901 98.6761C69.6454 98.6761 68.9181 98.4848 68.3082 98.1023C67.7022 97.7159 67.2363 97.1837 66.9105 96.5057C66.5848 95.8277 66.4219 95.0511 66.4219 94.1761C66.4219 93.2898 66.5885 92.5076 66.9219 91.8295C67.2552 91.1477 67.7249 90.6155 68.331 90.233C68.937 89.8504 69.651 89.6591 70.473 89.6591C71.1359 89.6591 71.7268 89.7822 72.2457 90.0284C72.7647 90.2708 73.1832 90.6117 73.5014 91.0511C73.8234 91.4905 74.0147 92.0038 74.0753 92.5909H72.4219C72.331 92.1818 72.1226 91.8295 71.7969 91.5341C71.4749 91.2386 71.0431 91.0909 70.5014 91.0909C70.0279 91.0909 69.6132 91.2159 69.2571 91.4659C68.9048 91.7121 68.6302 92.0644 68.4332 92.5227C68.2363 92.9773 68.1378 93.5152 68.1378 94.1364C68.1378 94.7727 68.2344 95.322 68.4276 95.7841C68.6207 96.2462 68.8935 96.6042 69.2457 96.858C69.6018 97.1117 70.0204 97.2386 70.5014 97.2386C70.8234 97.2386 71.1151 97.1799 71.3764 97.0625C71.6416 96.9413 71.8632 96.7689 72.0412 96.5455C72.223 96.322 72.3499 96.053 72.4219 95.7386H74.0753C74.0147 96.303 73.831 96.8068 73.5241 97.25C73.2173 97.6932 72.8063 98.0417 72.2912 98.2955C71.7798 98.5492 71.1795 98.6761 70.4901 98.6761ZM78.4318 98.6932C77.8788 98.6932 77.3788 98.5909 76.9318 98.3864C76.4848 98.178 76.1307 97.8769 75.8693 97.483C75.6117 97.089 75.483 96.6061 75.483 96.0341C75.483 95.5417 75.5777 95.1364 75.767 94.8182C75.9564 94.5 76.2121 94.2481 76.5341 94.0625C76.8561 93.8769 77.2159 93.7367 77.6136 93.642C78.0114 93.5473 78.4167 93.4754 78.8295 93.4261C79.3523 93.3655 79.7765 93.3163 80.1023 93.2784C80.428 93.2367 80.6648 93.1705 80.8125 93.0795C80.9602 92.9886 81.0341 92.8409 81.0341 92.6364V92.5966C81.0341 92.1004 80.8939 91.7159 80.6136 91.4432C80.3371 91.1705 79.9242 91.0341 79.375 91.0341C78.803 91.0341 78.3523 91.161 78.0227 91.4148C77.697 91.6648 77.4716 91.9432 77.3466 92.25L75.75 91.8864C75.9394 91.3561 76.2159 90.928 76.5795 90.6023C76.947 90.2727 77.3693 90.0341 77.8466 89.8864C78.3239 89.7348 78.8258 89.6591 79.3523 89.6591C79.7008 89.6591 80.0701 89.7008 80.4602 89.7841C80.8542 89.8636 81.2216 90.0114 81.5625 90.2273C81.9072 90.4432 82.1894 90.7519 82.4091 91.1534C82.6288 91.5511 82.7386 92.0682 82.7386 92.7045V98.5H81.0795V97.3068H81.0114C80.9015 97.5265 80.7367 97.7424 80.517 97.9545C80.2973 98.1667 80.0152 98.3428 79.6705 98.483C79.3258 98.6231 78.9129 98.6932 78.4318 98.6932ZM78.8011 97.3295C79.2708 97.3295 79.6723 97.2367 80.0057 97.0511C80.3428 96.8655 80.5985 96.6231 80.7727 96.3239C80.9508 96.0208 81.0398 95.697 81.0398 95.3523V94.2273C80.9792 94.2879 80.8617 94.3447 80.6875 94.3977C80.517 94.447 80.322 94.4905 80.1023 94.5284C79.8826 94.5625 79.6686 94.5947 79.4602 94.625C79.2519 94.6515 79.0777 94.6742 78.9375 94.6932C78.608 94.7348 78.3068 94.8049 78.0341 94.9034C77.7652 95.0019 77.5492 95.1439 77.3864 95.3295C77.2273 95.5114 77.1477 95.7538 77.1477 96.0568C77.1477 96.4773 77.303 96.7955 77.6136 97.0114C77.9242 97.2235 78.3201 97.3295 78.8011 97.3295ZM86.7003 86.8636V98.5H85.0014V86.8636H86.7003ZM99.7031 89.9205C99.6425 89.3826 99.3925 88.9659 98.9531 88.6705C98.5137 88.3712 97.9607 88.2216 97.294 88.2216C96.8168 88.2216 96.4039 88.2973 96.0554 88.4489C95.7069 88.5966 95.4361 88.8011 95.2429 89.0625C95.0535 89.3201 94.9588 89.6136 94.9588 89.9432C94.9588 90.2197 95.0232 90.4583 95.152 90.6591C95.2846 90.8598 95.4569 91.0284 95.669 91.1648C95.8849 91.2973 96.116 91.4091 96.3622 91.5C96.6084 91.5871 96.8452 91.6591 97.0724 91.7159L98.2088 92.0114C98.58 92.1023 98.9607 92.2254 99.3509 92.3807C99.741 92.536 100.103 92.7405 100.436 92.9943C100.769 93.2481 101.038 93.5625 101.243 93.9375C101.451 94.3125 101.555 94.7614 101.555 95.2841C101.555 95.9432 101.385 96.5284 101.044 97.0398C100.707 97.5511 100.216 97.9545 99.5724 98.25C98.9323 98.5455 98.1577 98.6932 97.2486 98.6932C96.3774 98.6932 95.6236 98.5549 94.9872 98.2784C94.3509 98.0019 93.8527 97.6098 93.4929 97.1023C93.133 96.5909 92.9342 95.9848 92.8963 95.2841H94.6577C94.6918 95.7045 94.8281 96.0549 95.0668 96.3352C95.3092 96.6117 95.6179 96.8182 95.9929 96.9545C96.3717 97.0871 96.7865 97.1534 97.2372 97.1534C97.7334 97.1534 98.1747 97.0758 98.5611 96.9205C98.9512 96.7614 99.258 96.5417 99.4815 96.2614C99.705 95.9773 99.8168 95.6458 99.8168 95.267C99.8168 94.9223 99.7183 94.6402 99.5213 94.4205C99.3281 94.2008 99.0649 94.0189 98.7315 93.875C98.402 93.7311 98.0289 93.6042 97.6122 93.4943L96.2372 93.1193C95.3054 92.8655 94.5668 92.4924 94.0213 92C93.4796 91.5076 93.2088 90.8561 93.2088 90.0455C93.2088 89.375 93.3906 88.7898 93.7543 88.2898C94.1179 87.7898 94.6103 87.4015 95.2315 87.125C95.8527 86.8447 96.5535 86.7045 97.3338 86.7045C98.1217 86.7045 98.8168 86.8428 99.419 87.1193C100.025 87.3958 100.502 87.7765 100.851 88.2614C101.199 88.7424 101.381 89.2955 101.396 89.9205H99.7031ZM107.278 98.6761C106.419 98.6761 105.678 98.4924 105.057 98.125C104.439 97.7538 103.962 97.233 103.625 96.5625C103.292 95.8883 103.125 95.0985 103.125 94.1932C103.125 93.2992 103.292 92.5114 103.625 91.8295C103.962 91.1477 104.432 90.6155 105.034 90.233C105.64 89.8504 106.348 89.6591 107.159 89.6591C107.652 89.6591 108.129 89.7405 108.591 89.9034C109.053 90.0663 109.468 90.322 109.835 90.6705C110.203 91.0189 110.492 91.4716 110.705 92.0284C110.917 92.5814 111.023 93.2538 111.023 94.0455V94.6477H104.085V93.375H109.358C109.358 92.928 109.267 92.5322 109.085 92.1875C108.903 91.839 108.648 91.5644 108.318 91.3636C107.992 91.1629 107.61 91.0625 107.17 91.0625C106.693 91.0625 106.277 91.1799 105.92 91.4148C105.568 91.6458 105.295 91.9489 105.102 92.3239C104.913 92.6951 104.818 93.0985 104.818 93.5341V94.5284C104.818 95.1117 104.92 95.608 105.125 96.017C105.333 96.4261 105.623 96.7386 105.994 96.9545C106.366 97.1667 106.799 97.2727 107.295 97.2727C107.617 97.2727 107.911 97.2273 108.176 97.1364C108.441 97.0417 108.67 96.9015 108.864 96.7159C109.057 96.5303 109.205 96.3011 109.307 96.0284L110.915 96.3182C110.786 96.7917 110.555 97.2064 110.222 97.5625C109.892 97.9148 109.477 98.1894 108.977 98.3864C108.481 98.5795 107.915 98.6761 107.278 98.6761ZM112.908 98.5V89.7727H114.55V91.1591H114.641C114.8 90.6894 115.08 90.3201 115.482 90.0511C115.887 89.7784 116.345 89.642 116.857 89.642C116.963 89.642 117.088 89.6458 117.232 89.6534C117.379 89.661 117.495 89.6705 117.578 89.6818V91.3068C117.51 91.2879 117.389 91.267 117.214 91.2443C117.04 91.2178 116.866 91.2045 116.692 91.2045C116.29 91.2045 115.932 91.2898 115.618 91.4602C115.307 91.6269 115.061 91.8598 114.879 92.1591C114.697 92.4545 114.607 92.7917 114.607 93.1705V98.5H112.908ZM126.78 89.7727L123.615 98.5H121.797L118.626 89.7727H120.45L122.661 96.4886H122.751L124.956 89.7727H126.78ZM128.376 98.5V89.7727H130.075V98.5H128.376ZM129.234 88.4261C128.939 88.4261 128.685 88.3277 128.473 88.1307C128.265 87.9299 128.161 87.6913 128.161 87.4148C128.161 87.1345 128.265 86.8958 128.473 86.6989C128.685 86.4981 128.939 86.3977 129.234 86.3977C129.53 86.3977 129.782 86.4981 129.99 86.6989C130.202 86.8958 130.308 87.1345 130.308 87.4148C130.308 87.6913 130.202 87.9299 129.99 88.1307C129.782 88.3277 129.53 88.4261 129.234 88.4261ZM136.037 98.6761C135.192 98.6761 134.465 98.4848 133.855 98.1023C133.249 97.7159 132.783 97.1837 132.457 96.5057C132.132 95.8277 131.969 95.0511 131.969 94.1761C131.969 93.2898 132.135 92.5076 132.469 91.8295C132.802 91.1477 133.272 90.6155 133.878 90.233C134.484 89.8504 135.198 89.6591 136.02 89.6591C136.683 89.6591 137.274 89.7822 137.793 90.0284C138.312 90.2708 138.73 90.6117 139.048 91.0511C139.37 91.4905 139.562 92.0038 139.622 92.5909H137.969C137.878 92.1818 137.67 91.8295 137.344 91.5341C137.022 91.2386 136.59 91.0909 136.048 91.0909C135.575 91.0909 135.16 91.2159 134.804 91.4659C134.452 91.7121 134.177 92.0644 133.98 92.5227C133.783 92.9773 133.685 93.5152 133.685 94.1364C133.685 94.7727 133.781 95.322 133.974 95.7841C134.168 96.2462 134.44 96.6042 134.793 96.858C135.149 97.1117 135.567 97.2386 136.048 97.2386C136.37 97.2386 136.662 97.1799 136.923 97.0625C137.188 96.9413 137.41 96.7689 137.588 96.5455C137.77 96.322 137.897 96.053 137.969 95.7386H139.622C139.562 96.303 139.378 96.8068 139.071 97.25C138.764 97.6932 138.353 98.0417 137.838 98.2955C137.327 98.5492 136.726 98.6761 136.037 98.6761ZM145.2 98.6761C144.34 98.6761 143.6 98.4924 142.979 98.125C142.361 97.7538 141.884 97.233 141.547 96.5625C141.214 95.8883 141.047 95.0985 141.047 94.1932C141.047 93.2992 141.214 92.5114 141.547 91.8295C141.884 91.1477 142.354 90.6155 142.956 90.233C143.562 89.8504 144.27 89.6591 145.081 89.6591C145.573 89.6591 146.051 89.7405 146.513 89.9034C146.975 90.0663 147.39 90.322 147.757 90.6705C148.125 91.0189 148.414 91.4716 148.626 92.0284C148.839 92.5814 148.945 93.2538 148.945 94.0455V94.6477H142.007V93.375H147.28C147.28 92.928 147.189 92.5322 147.007 92.1875C146.825 91.839 146.57 91.5644 146.24 91.3636C145.914 91.1629 145.532 91.0625 145.092 91.0625C144.615 91.0625 144.198 91.1799 143.842 91.4148C143.49 91.6458 143.217 91.9489 143.024 92.3239C142.835 92.6951 142.74 93.0985 142.74 93.5341V94.5284C142.74 95.1117 142.842 95.608 143.047 96.017C143.255 96.4261 143.545 96.7386 143.916 96.9545C144.287 97.1667 144.721 97.2727 145.217 97.2727C145.539 97.2727 145.833 97.2273 146.098 97.1364C146.363 97.0417 146.592 96.9015 146.786 96.7159C146.979 96.5303 147.126 96.3011 147.229 96.0284L148.837 96.3182C148.708 96.7917 148.477 97.2064 148.143 97.5625C147.814 97.9148 147.399 98.1894 146.899 98.3864C146.403 98.5795 145.837 98.6761 145.2 98.6761ZM157.369 91.9034L155.83 92.1761C155.765 91.9792 155.663 91.7917 155.523 91.6136C155.386 91.4356 155.201 91.2898 154.966 91.1761C154.731 91.0625 154.438 91.0057 154.085 91.0057C153.604 91.0057 153.203 91.1136 152.881 91.3295C152.559 91.5417 152.398 91.8163 152.398 92.1534C152.398 92.4451 152.506 92.6799 152.722 92.858C152.938 93.036 153.286 93.1818 153.767 93.2955L155.153 93.6136C155.956 93.7992 156.555 94.0852 156.949 94.4716C157.343 94.858 157.54 95.3598 157.54 95.9773C157.54 96.5 157.388 96.9659 157.085 97.375C156.786 97.7803 156.367 98.0985 155.83 98.3295C155.295 98.5606 154.676 98.6761 153.972 98.6761C152.994 98.6761 152.197 98.4678 151.58 98.0511C150.962 97.6307 150.583 97.0341 150.443 96.2614L152.085 96.0114C152.188 96.4394 152.398 96.7633 152.716 96.983C153.034 97.1989 153.449 97.3068 153.96 97.3068C154.517 97.3068 154.962 97.1913 155.295 96.9602C155.629 96.7254 155.795 96.4394 155.795 96.1023C155.795 95.8295 155.693 95.6004 155.489 95.4148C155.288 95.2292 154.979 95.089 154.562 94.9943L153.085 94.6705C152.271 94.4848 151.669 94.1894 151.278 93.7841C150.892 93.3788 150.699 92.8655 150.699 92.2443C150.699 91.7292 150.843 91.2784 151.131 90.892C151.419 90.5057 151.816 90.2045 152.324 89.9886C152.831 89.7689 153.413 89.6591 154.068 89.6591C155.011 89.6591 155.754 89.8636 156.295 90.2727C156.837 90.678 157.195 91.2216 157.369 91.9034Z" fill="black"/>
<rect x="8.16748" y="96.8282" width="97.0201" height="39.3199" rx="19.66" transform="rotate(11 8.16748 96.8282)" fill="white"/>
<path d="M22.5838 117.757L20.8437 117.418C20.849 117.033 20.7881 116.682 20.6608 116.364C20.5335 116.046 20.3571 115.763 20.1314 115.514C19.9057 115.266 19.639 115.06 19.3313 114.896C19.0273 114.733 18.6931 114.616 18.3287 114.545C17.6706 114.417 17.0491 114.468 16.4642 114.697C15.883 114.928 15.3797 115.334 14.9542 115.915C14.5324 116.496 14.2319 117.248 14.0527 118.17C13.872 119.1 13.8682 119.913 14.0414 120.611C14.2182 121.309 14.5351 121.872 14.9921 122.301C15.449 122.729 16.0029 123.006 16.6536 123.133C17.0142 123.203 17.3657 123.221 17.708 123.187C18.0547 123.151 18.3789 123.061 18.6805 122.919C18.982 122.777 19.251 122.584 19.4874 122.341C19.7283 122.094 19.9194 121.796 20.0609 121.445L21.8 121.789C21.5979 122.332 21.3171 122.814 20.9576 123.234C20.6025 123.652 20.1835 123.991 19.7006 124.252C19.2221 124.51 18.6989 124.68 18.1311 124.763C17.5632 124.845 16.9651 124.826 16.3367 124.704C15.3476 124.511 14.5119 124.106 13.8296 123.487C13.148 122.864 12.6694 122.071 12.3937 121.107C12.1218 120.143 12.1041 119.053 12.3404 117.838C12.5775 116.618 13.004 115.615 13.6201 114.828C14.2368 114.037 14.9774 113.482 15.8419 113.164C16.7071 112.842 17.6324 112.777 18.6177 112.969C19.2238 113.086 19.772 113.284 20.2623 113.56C20.7571 113.834 21.182 114.179 21.5371 114.595C21.8929 115.008 22.1618 115.481 22.3437 116.014C22.5264 116.543 22.6064 117.124 22.5838 117.757ZM26.5889 126.714C25.7858 126.558 25.1207 126.237 24.5936 125.753C24.0665 125.268 23.7018 124.663 23.4995 123.937C23.2972 123.211 23.2821 122.405 23.4541 121.52C23.6269 120.631 23.9434 119.887 24.4037 119.285C24.864 118.684 25.4292 118.258 26.0994 118.006C26.7696 117.754 27.5063 117.706 28.3095 117.862C29.1126 118.018 29.7777 118.339 30.3048 118.823C30.8319 119.308 31.1962 119.915 31.3978 120.645C31.5993 121.375 31.6137 122.184 31.441 123.073C31.269 123.958 30.9532 124.699 30.4936 125.296C30.034 125.894 29.4691 126.319 28.7989 126.57C28.1288 126.822 27.3921 126.87 26.5889 126.714ZM26.8666 125.315C27.3872 125.416 27.8452 125.362 28.2408 125.154C28.6364 124.945 28.9604 124.628 29.2129 124.202C29.4691 123.778 29.6507 123.29 29.7577 122.74C29.864 122.193 29.8779 121.675 29.7994 121.185C29.7255 120.692 29.5445 120.273 29.2567 119.928C28.9688 119.582 28.5646 119.359 28.044 119.258C27.5197 119.156 27.0576 119.211 26.6576 119.422C26.2613 119.635 25.9347 119.955 25.6777 120.384C25.4252 120.809 25.2458 121.295 25.1396 121.842C25.0326 122.392 25.0165 122.912 25.0912 123.401C25.1696 123.891 25.3531 124.307 25.6417 124.648C25.9341 124.991 26.3423 125.213 26.8666 125.315ZM35.1338 122.916L34.1451 128.003L32.4774 127.679L34.1427 119.112L35.7434 119.423L35.4724 120.817L35.5783 120.838C35.8636 120.423 36.243 120.118 36.7167 119.925C37.1941 119.732 37.7544 119.698 38.3976 119.823C38.9814 119.937 39.4688 120.159 39.8599 120.49C40.2517 120.817 40.5218 121.243 40.6702 121.77C40.8187 122.297 40.8242 122.913 40.6869 123.62L39.6277 129.069L37.9601 128.745L38.9802 123.496C39.1009 122.875 39.0335 122.359 38.778 121.946C38.5231 121.53 38.1131 121.267 37.5479 121.157C37.1612 121.082 36.801 121.099 36.4673 121.208C36.1373 121.317 35.8535 121.517 35.6159 121.806C35.3827 122.093 35.222 122.463 35.1338 122.916ZM49.5426 124.276L47.979 124.25C47.9534 124.044 47.8888 123.841 47.7852 123.639C47.6853 123.438 47.5309 123.26 47.3221 123.103C47.1132 122.947 46.8359 122.835 46.4901 122.768C46.0179 122.676 45.6031 122.706 45.2459 122.856C44.8894 123.003 44.6789 123.242 44.6146 123.573C44.559 123.859 44.6201 124.11 44.7981 124.326C44.9761 124.542 45.2903 124.752 45.7409 124.955L47.041 125.532C47.7939 125.867 48.3268 126.262 48.6398 126.717C48.9528 127.171 49.0504 127.701 48.9326 128.308C48.8328 128.821 48.5952 129.249 48.2197 129.593C47.8486 129.934 47.377 130.166 46.8049 130.29C46.2365 130.415 45.6066 130.41 44.915 130.276C43.9556 130.089 43.2127 129.733 42.6861 129.206C42.1603 128.675 41.9023 128.018 41.9121 127.232L43.5717 127.3C43.5904 127.74 43.735 128.098 44.0054 128.374C44.2766 128.647 44.6631 128.832 45.1651 128.93C45.7117 129.036 46.1706 129.007 46.5419 128.844C46.9139 128.677 47.1321 128.428 47.1964 128.097C47.2485 127.83 47.1918 127.585 47.0264 127.364C46.8648 127.143 46.5885 126.947 46.1975 126.775L44.8092 126.175C44.0452 125.837 43.5104 125.432 43.2047 124.96C42.9028 124.488 42.8111 123.948 42.9296 123.338C43.0279 122.832 43.2552 122.417 43.6115 122.093C43.9678 121.768 44.4157 121.549 44.9552 121.434C45.4953 121.315 46.087 121.318 46.7303 121.443C47.6562 121.623 48.3459 121.965 48.7996 122.47C49.254 122.972 49.5016 123.573 49.5426 124.276ZM56.4022 128.642L57.3769 123.628L59.0501 123.953L57.3848 132.52L55.7451 132.202L56.0335 130.718L55.9442 130.701C55.6582 131.12 55.2681 131.439 54.7738 131.66C54.2839 131.877 53.7174 131.923 53.0741 131.798C52.5238 131.691 52.0602 131.476 51.6833 131.152C51.3108 130.825 51.0504 130.398 50.9019 129.871C50.7572 129.345 50.7535 128.729 50.8908 128.023L51.95 122.573L53.6177 122.898L52.5975 128.146C52.484 128.73 52.5554 129.226 52.8117 129.635C53.068 130.043 53.4545 130.298 53.9714 130.398C54.2837 130.459 54.6094 130.441 54.9483 130.345C55.291 130.25 55.5953 130.064 55.8613 129.787C56.1309 129.512 56.3112 129.13 56.4022 128.642ZM63.5135 121.858L61.2932 133.28L59.6256 132.956L61.8459 121.533L63.5135 121.858ZM69.201 125.927L68.9408 127.265L64.2613 126.356L64.5215 125.017L69.201 125.927ZM66.1754 123.208L67.8431 123.533L66.2678 131.637C66.2049 131.96 66.2059 132.213 66.2708 132.395C66.3364 132.574 66.4396 132.708 66.5805 132.797C66.7259 132.883 66.8896 132.944 67.0718 132.979C67.2057 133.006 67.3246 133.019 67.4286 133.02C67.5326 133.021 67.6136 133.021 67.6715 133.021L67.7049 134.457C67.601 134.475 67.4562 134.486 67.2705 134.488C67.0841 134.495 66.8567 134.473 66.5882 134.425C66.148 134.347 65.7542 134.19 65.4067 133.952C65.0593 133.715 64.8016 133.403 64.6339 133.015C64.4661 132.627 64.4325 132.175 64.5329 131.658L66.1754 123.208ZM69.3805 134.852L71.0457 126.285L72.7134 126.609L71.0481 135.176L69.3805 134.852ZM72.1449 125.127C71.8548 125.071 71.6245 124.926 71.4539 124.692C71.2877 124.455 71.2309 124.201 71.2837 123.929C71.3372 123.654 71.485 123.44 71.7271 123.286C71.9736 123.13 72.2419 123.08 72.5319 123.136C72.8219 123.192 73.05 123.339 73.2162 123.576C73.3869 123.81 73.4455 124.064 73.392 124.339C73.3392 124.611 73.1896 124.825 72.943 124.981C72.701 125.135 72.4349 125.183 72.1449 125.127ZM75.9481 130.85L74.9593 135.937L73.2917 135.612L74.9569 127.045L76.5576 127.357L76.2866 128.751L76.3926 128.772C76.6778 128.356 77.0573 128.052 77.5309 127.858C78.0083 127.666 78.5686 127.632 79.2119 127.757C79.7956 127.87 80.283 128.092 80.6741 128.423C81.0659 128.75 81.336 129.177 81.4844 129.703C81.6329 130.23 81.6385 130.847 81.5011 131.553L80.4419 137.002L78.7743 136.678L79.7945 131.43C79.9152 130.809 79.8477 130.292 79.5922 129.88C79.3373 129.464 78.9273 129.201 78.3622 129.091C77.9755 129.016 77.6153 129.032 77.2816 129.141C76.9516 129.251 76.6678 129.45 76.4301 129.74C76.1969 130.026 76.0362 130.396 75.9481 130.85ZM85.6112 141.526C84.9307 141.394 84.3624 141.191 83.9063 140.917C83.4539 140.644 83.102 140.33 82.8504 139.977C82.5989 139.623 82.4309 139.257 82.3464 138.877L83.8947 138.565C83.9633 138.748 84.0636 138.947 84.1955 139.162C84.3304 139.381 84.5302 139.584 84.7949 139.77C85.0634 139.957 85.4281 140.096 85.8892 140.185C86.5213 140.308 87.0737 140.255 87.5464 140.027C88.0184 139.802 88.3195 139.355 88.4496 138.686L88.777 137.002L88.671 136.981C88.5352 137.144 88.3508 137.318 88.1178 137.505C87.8885 137.691 87.5944 137.835 87.2354 137.935C86.8764 138.035 86.4347 138.034 85.9104 137.932C85.2337 137.801 84.6546 137.524 84.1732 137.102C83.6962 136.678 83.36 136.124 83.1647 135.442C82.9738 134.757 82.9668 133.958 83.1439 133.047C83.321 132.136 83.6271 131.386 84.0622 130.795C84.501 130.205 85.0254 129.79 85.6355 129.55C86.2463 129.306 86.8957 129.25 87.5836 129.384C88.1153 129.487 88.5274 129.66 88.8199 129.902C89.1132 130.141 89.3281 130.395 89.4648 130.664C89.6052 130.935 89.7082 131.169 89.7739 131.367L89.8966 131.391L90.1665 130.002L91.8007 130.32L90.0986 139.076C89.9555 139.812 89.667 140.383 89.2332 140.789C88.7993 141.195 88.2684 141.454 87.6406 141.568C87.0164 141.682 86.34 141.668 85.6112 141.526ZM86.5474 136.62C87.0271 136.714 87.454 136.681 87.8283 136.522C88.2071 136.36 88.5228 136.086 88.7755 135.699C89.0327 135.309 89.2187 134.819 89.3336 134.227C89.4456 133.651 89.4588 133.127 89.373 132.655C89.2873 132.183 89.1028 131.792 88.8196 131.482C88.5371 131.169 88.1523 130.965 87.6652 130.87C87.1632 130.773 86.7196 130.821 86.3343 131.017C85.9498 131.208 85.629 131.509 85.372 131.918C85.1187 132.328 84.9389 132.806 84.8326 133.353C84.7235 133.914 84.7132 134.423 84.8019 134.88C84.8905 135.338 85.0791 135.718 85.3674 136.021C85.6596 136.324 86.0529 136.524 86.5474 136.62Z" fill="black"/>
<rect x="42.7008" y="160.73" width="125.881" height="39.3199" rx="19.66" transform="rotate(-22.7791 42.7008 160.73)" fill="#FFA0F9"/>
<path d="M76.3246 173.725L71.8192 162.996L73.438 162.316L75.3959 166.979L80.7446 164.732L78.7867 160.07L80.4107 159.388L84.916 170.117L83.292 170.799L81.3275 166.121L75.9788 168.367L77.9433 173.045L76.3246 173.725ZM90.6839 167.886C89.8911 168.219 89.1372 168.336 88.4222 168.238C87.7092 168.135 87.0675 167.839 86.497 167.352C85.9287 166.859 85.4692 166.195 85.1187 165.361C84.7726 164.536 84.6212 163.745 84.6645 162.988C84.7114 162.229 84.9384 161.556 85.3456 160.97C85.7562 160.383 86.3353 159.932 87.0826 159.618C87.5367 159.428 88.0082 159.318 88.4974 159.289C88.9865 159.26 89.4679 159.336 89.9416 159.515C90.4153 159.694 90.8578 159.999 91.2689 160.43C91.6786 160.858 92.0367 161.437 92.3432 162.167L92.5764 162.722L86.18 165.408L85.6872 164.234L90.5487 162.193C90.3757 161.781 90.1386 161.451 89.8375 161.204C89.5349 160.953 89.1929 160.799 88.8113 160.741C88.4332 160.682 88.0416 160.738 87.6365 160.908C87.1964 161.093 86.8577 161.362 86.6204 161.717C86.385 162.066 86.2509 162.451 86.218 162.872C86.1871 163.287 86.256 163.696 86.4246 164.097L86.8096 165.014C87.0355 165.552 87.3219 165.97 87.6689 166.268C88.0193 166.564 88.4075 166.74 88.8334 166.796C89.2577 166.847 89.6987 166.777 90.1562 166.585C90.4531 166.461 90.7061 166.305 90.9154 166.119C91.1232 165.929 91.2802 165.711 91.3865 165.465C91.4927 165.219 91.5402 164.95 91.5289 164.659L93.1237 164.304C93.1882 164.79 93.1358 165.262 92.9663 165.719C92.7989 166.172 92.5228 166.586 92.138 166.961C91.7553 167.331 91.2706 167.639 90.6839 167.886ZM98.2223 164.739C97.7125 164.953 97.2119 165.052 96.7205 165.036C96.2278 165.017 95.7846 164.877 95.3911 164.615C95.0011 164.351 94.6954 163.956 94.4739 163.429C94.2833 162.975 94.2137 162.564 94.2651 162.198C94.3165 161.831 94.4547 161.5 94.6797 161.204C94.9047 160.908 95.1822 160.64 95.5123 160.398C95.8423 160.157 96.1882 159.934 96.5498 159.728C97.0083 159.47 97.3803 159.26 97.666 159.099C97.9503 158.935 98.1429 158.782 98.2439 158.641C98.3449 158.5 98.3558 158.335 98.2766 158.147L98.2612 158.11C98.0691 157.652 97.791 157.352 97.427 157.209C97.0664 157.065 96.6329 157.099 96.1265 157.312C95.5992 157.533 95.2327 157.825 95.0271 158.186C94.8236 158.543 94.7236 158.887 94.7271 159.218L93.1142 159.501C93.0835 158.939 93.1728 158.437 93.3819 157.996C93.5931 157.55 93.8901 157.166 94.273 156.845C94.6543 156.521 95.0878 156.257 95.5732 156.053C95.8945 155.918 96.2512 155.813 96.6431 155.739C97.0372 155.66 97.4331 155.654 97.831 155.721C98.2324 155.786 98.6122 155.962 98.9702 156.247C99.3267 156.529 99.6282 156.963 99.8746 157.55L102.118 162.893L100.589 163.535L100.127 162.435L100.064 162.462C100.048 162.707 99.9794 162.97 99.859 163.25C99.7385 163.531 99.5465 163.803 99.283 164.065C99.0194 164.328 98.6659 164.552 98.2223 164.739ZM98.0349 163.338C98.468 163.156 98.8022 162.915 99.0377 162.615C99.2767 162.314 99.4185 161.991 99.4633 161.648C99.5101 161.299 99.4668 160.966 99.3334 160.649L98.8978 159.611C98.8654 159.691 98.7791 159.788 98.639 159.905C98.5009 160.016 98.3379 160.132 98.15 160.252C97.9606 160.368 97.7758 160.481 97.5954 160.59C97.4136 160.695 97.2618 160.783 97.1399 160.855C96.8522 161.021 96.6016 161.202 96.3883 161.398C96.1785 161.593 96.0344 161.808 95.9561 162.042C95.8798 162.271 95.9003 162.526 96.0177 162.805C96.1805 163.193 96.4468 163.426 96.8168 163.505C97.1853 163.58 97.5914 163.525 98.0349 163.338ZM101.266 150.63L105.771 161.359L104.205 162.017L99.6994 151.288L101.266 150.63ZM108.255 150.85L108.783 152.108L104.388 153.953L103.86 152.696L108.255 150.85ZM104.229 150.273L105.796 149.615L108.992 157.227C109.12 157.531 109.261 157.741 109.417 157.856C109.57 157.968 109.731 158.022 109.897 158.018C110.066 158.009 110.236 157.968 110.407 157.896C110.533 157.844 110.639 157.789 110.726 157.732C110.813 157.675 110.881 157.63 110.929 157.597L111.755 158.772C111.679 158.846 111.564 158.935 111.411 159.04C111.26 159.149 111.059 159.258 110.809 159.367C110.4 159.547 109.985 159.635 109.564 159.631C109.143 159.627 108.755 159.51 108.4 159.281C108.045 159.052 107.766 158.695 107.562 158.21L104.229 150.273ZM113.1 152.661L115.106 157.439L113.54 158.097L109.035 147.368L110.58 146.719L112.256 150.711L112.356 150.669C112.363 150.157 112.506 149.692 112.787 149.274C113.068 148.856 113.52 148.516 114.146 148.254C114.697 148.022 115.227 147.933 115.734 147.987C116.245 148.039 116.709 148.243 117.125 148.599C117.543 148.949 117.893 149.459 118.175 150.13L120.324 155.248L118.758 155.906L116.688 150.976C116.44 150.386 116.096 149.992 115.656 149.795C115.214 149.594 114.722 149.608 114.181 149.835C113.811 149.99 113.512 150.208 113.285 150.489C113.061 150.767 112.929 151.094 112.889 151.468C112.851 151.838 112.921 152.235 113.1 152.661ZM125.872 153.109C125.093 153.436 124.349 153.541 123.638 153.425C122.93 153.303 122.294 152.993 121.731 152.494C121.168 151.995 120.718 151.342 120.379 150.535C120.036 149.718 119.886 148.932 119.931 148.178C119.975 147.42 120.202 146.748 120.612 146.16C121.023 145.573 121.607 145.12 122.365 144.802C122.976 144.545 123.569 144.43 124.142 144.456C124.715 144.479 125.233 144.631 125.696 144.913C126.163 145.193 126.538 145.593 126.821 146.11L125.297 146.751C125.055 146.409 124.726 146.165 124.312 146.018C123.9 145.87 123.445 145.901 122.946 146.111C122.509 146.295 122.175 146.57 121.944 146.939C121.714 147.302 121.597 147.733 121.593 148.232C121.587 148.727 121.705 149.261 121.945 149.834C122.192 150.421 122.494 150.89 122.851 151.241C123.208 151.593 123.598 151.817 124.021 151.915C124.447 152.011 124.882 151.966 125.326 151.779C125.623 151.655 125.869 151.488 126.064 151.278C126.262 151.064 126.4 150.819 126.477 150.544C126.558 150.268 126.571 149.971 126.516 149.653L128.04 149.013C128.203 149.557 128.229 150.092 128.117 150.62C128.006 151.147 127.762 151.627 127.385 152.061C127.012 152.493 126.508 152.842 125.872 153.109ZM133.201 150.05C132.691 150.264 132.19 150.363 131.699 150.348C131.206 150.329 130.763 150.188 130.37 149.926C129.98 149.663 129.674 149.267 129.452 148.74C129.262 148.286 129.192 147.876 129.244 147.509C129.295 147.142 129.433 146.811 129.658 146.515C129.883 146.219 130.161 145.951 130.491 145.71C130.821 145.468 131.167 145.245 131.528 145.04C131.987 144.782 132.359 144.572 132.645 144.411C132.929 144.246 133.121 144.093 133.222 143.952C133.323 143.811 133.334 143.647 133.255 143.458L133.24 143.421C133.048 142.964 132.77 142.664 132.406 142.521C132.045 142.376 131.611 142.41 131.105 142.623C130.578 142.845 130.211 143.136 130.006 143.498C129.802 143.854 129.702 144.198 129.706 144.53L128.093 144.812C128.062 144.25 128.151 143.748 128.36 143.307C128.572 142.861 128.869 142.478 129.252 142.157C129.633 141.832 130.066 141.568 130.552 141.364C130.873 141.229 131.23 141.125 131.622 141.05C132.016 140.971 132.412 140.965 132.81 141.032C133.211 141.098 133.591 141.273 133.949 141.558C134.305 141.84 134.607 142.274 134.853 142.861L137.097 148.204L135.567 148.847L135.105 147.747L135.042 147.773C135.026 148.018 134.958 148.281 134.838 148.562C134.717 148.842 134.525 149.114 134.262 149.377C133.998 149.639 133.644 149.864 133.201 150.05ZM133.013 148.65C133.447 148.468 133.781 148.227 134.016 147.927C134.255 147.625 134.397 147.303 134.442 146.959C134.489 146.611 134.445 146.278 134.312 145.96L133.876 144.923C133.844 145.002 133.758 145.1 133.618 145.216C133.479 145.328 133.316 145.443 133.129 145.563C132.939 145.68 132.754 145.792 132.574 145.901C132.392 146.006 132.24 146.094 132.118 146.166C131.831 146.332 131.58 146.513 131.367 146.71C131.157 146.905 131.013 147.119 130.935 147.354C130.858 147.583 130.879 147.837 130.996 148.116C131.159 148.504 131.425 148.737 131.795 148.816C132.164 148.891 132.57 148.836 133.013 148.65ZM139.183 147.328L135.804 139.282L137.318 138.646L137.855 139.924L137.939 139.889C137.904 139.394 138.019 138.945 138.285 138.542C138.553 138.133 138.923 137.83 139.395 137.632C139.492 137.591 139.609 137.546 139.745 137.498C139.884 137.447 139.994 137.411 140.075 137.39L140.704 138.888C140.634 138.897 140.514 138.925 140.345 138.971C140.174 139.014 140.008 139.069 139.848 139.137C139.477 139.292 139.18 139.509 138.957 139.788C138.735 140.062 138.598 140.372 138.546 140.719C138.493 141.061 138.54 141.407 138.686 141.757L140.75 146.671L139.183 147.328ZM148.093 143.778C147.3 144.111 146.546 144.228 145.831 144.13C145.118 144.027 144.477 143.731 143.906 143.244C143.338 142.751 142.878 142.087 142.528 141.253C142.182 140.428 142.03 139.637 142.074 138.88C142.121 138.121 142.348 137.448 142.755 136.862C143.165 136.275 143.744 135.824 144.492 135.51C144.946 135.32 145.417 135.21 145.907 135.181C146.396 135.152 146.877 135.228 147.351 135.407C147.825 135.586 148.267 135.891 148.678 136.322C149.088 136.75 149.446 137.329 149.752 138.059L149.986 138.614L143.589 141.3L143.096 140.127L147.958 138.085C147.785 137.673 147.548 137.343 147.247 137.096C146.944 136.845 146.602 136.691 146.22 136.633C145.842 136.574 145.451 136.63 145.046 136.8C144.606 136.985 144.267 137.254 144.03 137.609C143.794 137.958 143.66 138.343 143.627 138.764C143.596 139.179 143.665 139.588 143.834 139.989L144.219 140.906C144.445 141.444 144.731 141.862 145.078 142.16C145.429 142.456 145.817 142.632 146.243 142.688C146.667 142.74 147.108 142.669 147.565 142.477C147.862 142.353 148.115 142.197 148.325 142.011C148.532 141.821 148.689 141.603 148.796 141.357C148.902 141.111 148.949 140.842 148.938 140.551L150.533 140.196C150.597 140.682 150.545 141.154 150.376 141.612C150.208 142.064 149.932 142.478 149.547 142.853C149.165 143.223 148.68 143.531 148.093 143.778Z" fill="black"/>
<rect x="42.7008" y="160.73" width="125.881" height="39.3199" rx="19.66" transform="rotate(-22.7791 42.7008 160.73)" fill="#FFA0F9"/>
<path d="M76.3246 173.725L71.8192 162.996L73.438 162.316L75.3959 166.979L80.7446 164.732L78.7867 160.07L80.4107 159.388L84.916 170.117L83.292 170.799L81.3275 166.121L75.9788 168.367L77.9433 173.045L76.3246 173.725ZM90.6839 167.886C89.8911 168.219 89.1372 168.336 88.4222 168.238C87.7092 168.135 87.0675 167.839 86.497 167.352C85.9287 166.859 85.4692 166.195 85.1187 165.361C84.7726 164.536 84.6212 163.745 84.6645 162.988C84.7114 162.229 84.9384 161.556 85.3456 160.97C85.7562 160.383 86.3353 159.932 87.0826 159.618C87.5367 159.428 88.0082 159.318 88.4974 159.289C88.9865 159.26 89.4679 159.336 89.9416 159.515C90.4153 159.694 90.8578 159.999 91.2689 160.43C91.6786 160.858 92.0367 161.437 92.3432 162.167L92.5764 162.722L86.18 165.408L85.6872 164.234L90.5487 162.193C90.3757 161.781 90.1386 161.451 89.8375 161.204C89.5349 160.953 89.1929 160.799 88.8113 160.741C88.4332 160.682 88.0416 160.738 87.6365 160.908C87.1964 161.093 86.8577 161.362 86.6204 161.717C86.385 162.066 86.2509 162.451 86.218 162.872C86.1871 163.287 86.256 163.696 86.4246 164.097L86.8096 165.014C87.0355 165.552 87.3219 165.97 87.6689 166.268C88.0193 166.564 88.4075 166.74 88.8334 166.796C89.2577 166.847 89.6987 166.777 90.1562 166.585C90.4531 166.461 90.7061 166.305 90.9154 166.119C91.1232 165.929 91.2802 165.711 91.3865 165.465C91.4927 165.219 91.5402 164.95 91.5289 164.659L93.1237 164.304C93.1882 164.79 93.1358 165.262 92.9663 165.719C92.7989 166.172 92.5228 166.586 92.138 166.961C91.7553 167.331 91.2706 167.639 90.6839 167.886ZM98.2223 164.739C97.7125 164.953 97.2119 165.052 96.7205 165.036C96.2278 165.017 95.7846 164.877 95.3911 164.615C95.0011 164.351 94.6954 163.956 94.4739 163.429C94.2833 162.975 94.2137 162.564 94.2651 162.198C94.3165 161.831 94.4547 161.5 94.6797 161.204C94.9047 160.908 95.1822 160.64 95.5123 160.398C95.8423 160.157 96.1882 159.934 96.5498 159.728C97.0083 159.47 97.3803 159.26 97.666 159.099C97.9503 158.935 98.1429 158.782 98.2439 158.641C98.3449 158.5 98.3558 158.335 98.2766 158.147L98.2612 158.11C98.0691 157.652 97.791 157.352 97.427 157.209C97.0664 157.065 96.6329 157.099 96.1265 157.312C95.5992 157.533 95.2327 157.825 95.0271 158.186C94.8236 158.543 94.7236 158.887 94.7271 159.218L93.1142 159.501C93.0835 158.939 93.1728 158.437 93.3819 157.996C93.5931 157.55 93.8901 157.166 94.273 156.845C94.6543 156.521 95.0878 156.257 95.5732 156.053C95.8945 155.918 96.2512 155.813 96.6431 155.739C97.0372 155.66 97.4331 155.654 97.831 155.721C98.2324 155.786 98.6122 155.962 98.9702 156.247C99.3267 156.529 99.6282 156.963 99.8746 157.55L102.118 162.893L100.589 163.535L100.127 162.435L100.064 162.462C100.048 162.707 99.9794 162.97 99.859 163.25C99.7385 163.531 99.5465 163.803 99.283 164.065C99.0194 164.328 98.6659 164.552 98.2223 164.739ZM98.0349 163.338C98.468 163.156 98.8022 162.915 99.0377 162.615C99.2767 162.314 99.4185 161.991 99.4633 161.648C99.5101 161.299 99.4668 160.966 99.3334 160.649L98.8978 159.611C98.8654 159.691 98.7791 159.788 98.639 159.905C98.5009 160.016 98.3379 160.132 98.15 160.252C97.9606 160.368 97.7758 160.481 97.5954 160.59C97.4136 160.695 97.2618 160.783 97.1399 160.855C96.8522 161.021 96.6016 161.202 96.3883 161.398C96.1785 161.593 96.0344 161.808 95.9561 162.042C95.8798 162.271 95.9003 162.526 96.0177 162.805C96.1805 163.193 96.4468 163.426 96.8168 163.505C97.1853 163.58 97.5914 163.525 98.0349 163.338ZM101.266 150.63L105.771 161.359L104.205 162.017L99.6994 151.288L101.266 150.63ZM108.255 150.85L108.783 152.108L104.388 153.953L103.86 152.696L108.255 150.85ZM104.229 150.273L105.796 149.615L108.992 157.227C109.12 157.531 109.261 157.741 109.417 157.856C109.57 157.968 109.731 158.022 109.897 158.018C110.066 158.009 110.236 157.968 110.407 157.896C110.533 157.844 110.639 157.789 110.726 157.732C110.813 157.675 110.881 157.63 110.929 157.597L111.755 158.772C111.679 158.846 111.564 158.935 111.411 159.04C111.26 159.149 111.059 159.258 110.809 159.367C110.4 159.547 109.985 159.635 109.564 159.631C109.143 159.627 108.755 159.51 108.4 159.281C108.045 159.052 107.766 158.695 107.562 158.21L104.229 150.273ZM113.1 152.661L115.106 157.439L113.54 158.097L109.035 147.368L110.58 146.719L112.256 150.711L112.356 150.669C112.363 150.157 112.506 149.692 112.787 149.274C113.068 148.856 113.52 148.516 114.146 148.254C114.697 148.022 115.227 147.933 115.734 147.987C116.245 148.039 116.709 148.243 117.125 148.599C117.543 148.949 117.893 149.459 118.175 150.13L120.324 155.248L118.758 155.906L116.688 150.976C116.44 150.386 116.096 149.992 115.656 149.795C115.214 149.594 114.722 149.608 114.181 149.835C113.811 149.99 113.512 150.208 113.285 150.489C113.061 150.767 112.929 151.094 112.889 151.468C112.851 151.838 112.921 152.235 113.1 152.661ZM125.872 153.109C125.093 153.436 124.349 153.541 123.638 153.425C122.93 153.303 122.294 152.993 121.731 152.494C121.168 151.995 120.718 151.342 120.379 150.535C120.036 149.718 119.886 148.932 119.931 148.178C119.975 147.42 120.202 146.748 120.612 146.16C121.023 145.573 121.607 145.12 122.365 144.802C122.976 144.545 123.569 144.43 124.142 144.456C124.715 144.479 125.233 144.631 125.696 144.913C126.163 145.193 126.538 145.593 126.821 146.11L125.297 146.751C125.055 146.409 124.726 146.165 124.312 146.018C123.9 145.87 123.445 145.901 122.946 146.111C122.509 146.295 122.175 146.57 121.944 146.939C121.714 147.302 121.597 147.733 121.593 148.232C121.587 148.727 121.705 149.261 121.945 149.834C122.192 150.421 122.494 150.89 122.851 151.241C123.208 151.593 123.598 151.817 124.021 151.915C124.447 152.011 124.882 151.966 125.326 151.779C125.623 151.655 125.869 151.488 126.064 151.278C126.262 151.064 126.4 150.819 126.477 150.544C126.558 150.268 126.571 149.971 126.516 149.653L128.04 149.013C128.203 149.557 128.229 150.092 128.117 150.62C128.006 151.147 127.762 151.627 127.385 152.061C127.012 152.493 126.508 152.842 125.872 153.109ZM133.201 150.05C132.691 150.264 132.19 150.363 131.699 150.348C131.206 150.329 130.763 150.188 130.37 149.926C129.98 149.663 129.674 149.267 129.452 148.74C129.262 148.286 129.192 147.876 129.244 147.509C129.295 147.142 129.433 146.811 129.658 146.515C129.883 146.219 130.161 145.951 130.491 145.71C130.821 145.468 131.167 145.245 131.528 145.04C131.987 144.782 132.359 144.572 132.645 144.411C132.929 144.246 133.121 144.093 133.222 143.952C133.323 143.811 133.334 143.647 133.255 143.458L133.24 143.421C133.048 142.964 132.77 142.664 132.406 142.521C132.045 142.376 131.611 142.41 131.105 142.623C130.578 142.845 130.211 143.136 130.006 143.498C129.802 143.854 129.702 144.198 129.706 144.53L128.093 144.812C128.062 144.25 128.151 143.748 128.36 143.307C128.572 142.861 128.869 142.478 129.252 142.157C129.633 141.832 130.066 141.568 130.552 141.364C130.873 141.229 131.23 141.125 131.622 141.05C132.016 140.971 132.412 140.965 132.81 141.032C133.211 141.098 133.591 141.273 133.949 141.558C134.305 141.84 134.607 142.274 134.853 142.861L137.097 148.204L135.567 148.847L135.105 147.747L135.042 147.773C135.026 148.018 134.958 148.281 134.838 148.562C134.717 148.842 134.525 149.114 134.262 149.377C133.998 149.639 133.644 149.864 133.201 150.05ZM133.013 148.65C133.447 148.468 133.781 148.227 134.016 147.927C134.255 147.625 134.397 147.303 134.442 146.959C134.489 146.611 134.445 146.278 134.312 145.96L133.876 144.923C133.844 145.002 133.758 145.1 133.618 145.216C133.479 145.328 133.316 145.443 133.129 145.563C132.939 145.68 132.754 145.792 132.574 145.901C132.392 146.006 132.24 146.094 132.118 146.166C131.831 146.332 131.58 146.513 131.367 146.71C131.157 146.905 131.013 147.119 130.935 147.354C130.858 147.583 130.879 147.837 130.996 148.116C131.159 148.504 131.425 148.737 131.795 148.816C132.164 148.891 132.57 148.836 133.013 148.65ZM139.183 147.328L135.804 139.282L137.318 138.646L137.855 139.924L137.939 139.889C137.904 139.394 138.019 138.945 138.285 138.542C138.553 138.133 138.923 137.83 139.395 137.632C139.492 137.591 139.609 137.546 139.745 137.498C139.884 137.447 139.994 137.411 140.075 137.39L140.704 138.888C140.634 138.897 140.514 138.925 140.345 138.971C140.174 139.014 140.008 139.069 139.848 139.137C139.477 139.292 139.18 139.509 138.957 139.788C138.735 140.062 138.598 140.372 138.546 140.719C138.493 141.061 138.54 141.407 138.686 141.757L140.75 146.671L139.183 147.328ZM148.093 143.778C147.3 144.111 146.546 144.228 145.831 144.13C145.118 144.027 144.477 143.731 143.906 143.244C143.338 142.751 142.878 142.087 142.528 141.253C142.182 140.428 142.03 139.637 142.074 138.88C142.121 138.121 142.348 137.448 142.755 136.862C143.165 136.275 143.744 135.824 144.492 135.51C144.946 135.32 145.417 135.21 145.907 135.181C146.396 135.152 146.877 135.228 147.351 135.407C147.825 135.586 148.267 135.891 148.678 136.322C149.088 136.75 149.446 137.329 149.752 138.059L149.986 138.614L143.589 141.3L143.096 140.127L147.958 138.085C147.785 137.673 147.548 137.343 147.247 137.096C146.944 136.845 146.602 136.691 146.22 136.633C145.842 136.574 145.451 136.63 145.046 136.8C144.606 136.985 144.267 137.254 144.03 137.609C143.794 137.958 143.66 138.343 143.627 138.764C143.596 139.179 143.665 139.588 143.834 139.989L144.219 140.906C144.445 141.444 144.731 141.862 145.078 142.16C145.429 142.456 145.817 142.632 146.243 142.688C146.667 142.74 147.108 142.669 147.565 142.477C147.862 142.353 148.115 142.197 148.325 142.011C148.532 141.821 148.689 141.603 148.796 141.357C148.902 141.111 148.949 140.842 148.938 140.551L150.533 140.196C150.597 140.682 150.545 141.154 150.376 141.612C150.208 142.064 149.932 142.478 149.547 142.853C149.165 143.223 148.68 143.531 148.093 143.778Z" fill="black"/>
</svg>
