<svg width="38" height="39" viewBox="0 0 38 39" fill="none" xmlns="http://www.w3.org/2000/svg">
<g clip-path="url(#clip0_507_2806)">
<g clip-path="url(#clip1_507_2806)">
<path d="M19.0038 38.4868C29.4669 38.4868 37.9489 30.0048 37.9489 19.5417C37.9489 9.07867 29.4669 0.59668 19.0038 0.59668C8.54076 0.59668 0.0587769 9.07867 0.0587769 19.5417C0.0587769 30.0048 8.54076 38.4868 19.0038 38.4868Z" fill="#BCA921"/>
<path fill-rule="evenodd" clip-rule="evenodd" d="M18.4743 24.0534L12.3398 17.7538C12.07 17.4542 12.0327 17.0152 12.2487 16.6759L14.2923 14.2178C14.4591 13.9568 14.7507 13.835 15.0643 13.835H23.2952C23.6024 13.835 23.8885 13.9498 24.0572 14.2035L26.0716 16.5299C26.2968 16.8674 26.2657 17.3019 25.9969 17.6061L19.8415 24.0516C19.4806 24.4593 18.8389 24.4584 18.4743 24.0534ZM23.8302 12.0352H14.5602C13.9331 12.0352 13.3497 12.316 13.0162 12.8407L10.3454 16.3105C9.91431 16.9891 9.98902 17.8572 10.5286 18.4557L17.8115 26.018C18.5417 26.8262 19.8233 26.8182 20.5452 26.0028L27.8463 18.2679C28.3832 17.6613 28.447 16.7754 28.0013 16.1004L25.3588 12.8153C25.0225 12.305 24.4473 12.0352 23.8302 12.0352Z" fill="black"/>
</g>
</g>
<defs>
<clipPath id="clip0_507_2806">
<rect width="37.8901" height="37.8901" fill="white" transform="translate(0.0587769 0.59668)"/>
</clipPath>
<clipPath id="clip1_507_2806">
<rect width="37.8901" height="37.8901" fill="white" transform="translate(0.0587769 0.59668)"/>
</clipPath>
</defs>
</svg>
