<svg width="101" height="101" viewBox="0 0 101 101" fill="none" xmlns="http://www.w3.org/2000/svg">
<path d="M0.75 50.6896C0.75 35.1583 0.75 27.3926 3.28735 21.2668C6.67048 13.0993 13.1596 6.61012 21.3272 3.22699C27.453 0.689636 35.2187 0.689636 50.75 0.689636C66.2813 0.689636 74.047 0.689636 80.1728 3.22699C88.3403 6.61012 94.8295 13.0993 98.2127 21.2668C100.75 27.3926 100.75 35.1583 100.75 50.6896C100.75 66.221 100.75 73.9866 98.2127 80.1125C94.8295 88.28 88.3403 94.7691 80.1728 98.1523C74.047 100.69 66.2813 100.69 50.75 100.69C35.2187 100.69 27.453 100.69 21.3272 98.1523C13.1596 94.7691 6.67048 88.28 3.28735 80.1125C0.75 73.9866 0.75 66.221 0.75 50.6896Z" fill="white"/>
<path d="M32.8877 51.7034C31.8092 53.4291 31.2699 55.1951 31.2699 57.0017C31.2699 58.97 31.9845 60.763 33.4135 62.3808C34.1954 63.2975 35.1796 64.012 36.3659 64.5243C37.5793 65.0366 38.9005 65.2928 40.3295 65.2928C41.7585 65.2928 43.0393 65.0231 44.1717 64.4839C46.4366 63.3784 47.5691 61.5719 47.5691 59.0643C47.5691 58.1206 47.2455 57.123 46.5984 56.0714C45.9782 55.0199 45.0345 54.0762 43.7673 53.2403L36.8917 48.6297C34.2224 46.958 32.8877 44.8009 32.8877 42.1586C32.8877 41.8889 32.9012 41.6193 32.9282 41.3497C33.0899 39.2735 33.9123 37.5883 35.3953 36.2941C36.9052 34.9729 38.9139 34.3123 41.4215 34.3123C42.9584 34.3123 44.8188 34.4471 47.0028 34.7168H49.5104L48.9846 40.6621H48.6206C48.5936 39.26 48.0544 38.1411 47.0028 37.3052C45.9513 36.4424 44.5627 36.011 42.837 36.011C40.7339 36.011 39.2105 36.6446 38.2668 37.9119C37.8085 38.559 37.5793 39.26 37.5793 40.015C37.5793 40.77 37.8085 41.4171 38.2668 41.9563C38.7252 42.4686 39.4532 43.0348 40.4508 43.655L48.0139 48.5892C49.5508 49.5869 50.7507 50.7597 51.6135 52.1079C52.6381 53.6987 53.1504 55.33 53.1504 57.0017C53.1504 58.0802 52.9212 59.2261 52.4628 60.4394C52.0314 61.6258 51.3034 62.7313 50.2788 63.7559C49.2812 64.7805 47.987 65.6163 46.3962 66.2634C44.8053 66.9106 43.0393 67.2341 41.0979 67.2341C39.1836 67.2341 37.4445 66.8971 35.8806 66.223C32.9956 65.0097 31.1621 62.8931 30.3802 59.8732C30.2184 59.2261 30.1375 58.552 30.1375 57.851C30.1375 55.5861 30.9329 53.4426 32.5237 51.4203L32.8877 51.7034ZM88.5873 68.8114C91.3915 68.8114 93.6563 68.2587 95.382 67.1532L95.6651 67.4768C93.3463 70.6854 90.4612 72.4649 87.01 72.8154C86.282 72.8963 85.6483 72.9368 85.1091 72.9368C84.5968 72.9368 83.9901 72.9098 83.2891 72.8559C82.615 72.8289 81.6578 72.6537 80.4175 72.3301C79.1772 72.0066 78.0852 71.6695 77.1415 71.319C76.1978 70.9954 75.1058 70.5506 73.8655 69.9843C72.6252 69.4451 71.6006 68.9597 70.7917 68.5283C69.9829 68.1239 69.0122 67.6251 67.8797 67.0319C66.7743 66.4657 65.8036 65.9803 64.9677 65.5759C64.1319 65.1714 63.323 64.8209 62.5411 64.5243C60.3301 63.6346 58.0652 63.1897 55.7464 63.1897V62.7852H56.2722C56.9732 62.7852 57.5664 62.5426 58.0517 62.0572C58.564 61.5719 58.8337 60.9652 58.8606 60.2372V37.831C58.8337 37.103 58.564 36.4963 58.0517 36.011C57.5664 35.5257 56.9732 35.283 56.2722 35.283H55.7464V34.8786H68.0415L68.0011 35.283H67.5966C66.572 35.283 65.8036 35.7009 65.2913 36.5368C65.0486 36.9143 64.9273 37.3457 64.9273 37.831V61.2888C64.9273 62.1786 65.1026 62.7987 65.4531 63.1492C65.8036 63.4728 66.1946 63.702 66.626 63.8368C76.764 67.1532 84.0845 68.8114 88.5873 68.8114Z" fill="#8780F8"/>
</svg>
