<svg width="317" height="52" viewBox="0 0 317 52" fill="none" xmlns="http://www.w3.org/2000/svg">
<path d="M16.4576 51.0138C13.5739 51.0138 10.7128 50.7434 7.87414 50.2028C5.03552 49.6621 2.71506 48.9411 0.912759 48.04V38.9834C3.3008 40.1549 5.77897 41.0336 8.34724 41.6193C10.9155 42.2051 13.3712 42.4979 15.7141 42.4979C18.3275 42.4979 20.31 42.0474 21.6617 41.1462C23.0134 40.2451 23.6893 38.9834 23.6893 37.3614C23.6893 36.1899 23.3514 35.1986 22.6755 34.3876C21.9997 33.5766 21.0084 32.8556 19.7017 32.2248C18.4401 31.549 16.4801 30.6703 13.8217 29.589C9.40609 27.7867 6.20701 25.7816 4.22448 23.5738C2.24195 21.3209 1.25069 18.5499 1.25069 15.2607C1.25069 12.6023 1.97161 10.2593 3.41345 8.23172C4.85529 6.15908 6.88287 4.55954 9.49621 3.4331C12.1095 2.30667 15.1284 1.74345 18.5528 1.74345C21.3463 1.74345 23.8245 1.96873 25.9872 2.41931C28.15 2.86989 30.2677 3.56828 32.3403 4.51448V13.3007C28.3753 11.3182 24.4102 10.3269 20.4452 10.3269C17.922 10.3269 15.9394 10.7775 14.4976 11.6786C13.0557 12.5347 12.3348 13.7738 12.3348 15.3959C12.3348 16.5674 12.6728 17.5361 13.3486 18.3021C14.0245 19.068 14.9707 19.7439 16.1872 20.3297C17.4038 20.9154 19.3863 21.7715 22.1348 22.8979C25.3339 24.2497 27.8346 25.5563 29.6369 26.8179C31.4392 28.0345 32.7684 29.4989 33.6245 31.211C34.4806 32.8782 34.9086 34.9508 34.9086 37.429C34.9086 41.7094 33.3541 45.0437 30.2452 47.4317C27.1813 49.8198 22.5854 51.0138 16.4576 51.0138ZM40.6777 17.5586H50.2074V21.4786C51.6042 19.9016 53.2262 18.6851 55.0736 17.829C56.921 16.9729 58.8359 16.5448 60.8184 16.5448C63.2966 16.5448 65.2791 16.9503 66.766 17.7614C68.2529 18.5274 69.4244 19.6763 70.2805 21.2083C71.6773 19.7214 73.3669 18.5724 75.3495 17.7614C77.377 16.9503 79.3821 16.5448 81.3646 16.5448C85.5099 16.5448 88.4612 17.6037 90.2184 19.7214C92.0207 21.8391 92.9219 24.903 92.9219 28.9131V50H83.1895V30.3324C83.1895 28.2598 82.7839 26.7729 81.9729 25.8717C81.1619 24.9706 79.8552 24.52 78.0529 24.52C75.5297 24.52 73.5021 25.5113 71.9702 27.4938C72.0603 28.9356 72.1053 30.1071 72.1053 31.0083V50H62.3053V29.9945C62.3053 28.012 61.9449 26.6152 61.2239 25.8041C60.5481 24.948 59.3541 24.52 57.6419 24.52C54.9835 24.52 52.618 26.0294 50.5453 29.0483V50H40.6777V17.5586ZM99.6837 17.5586H109.551V22.2221C110.858 20.6451 112.683 19.451 115.026 18.64C117.369 17.7839 120.027 17.3559 123.001 17.3559V25.1283C119.892 25.1283 117.143 25.6014 114.755 26.5476C112.412 27.4938 110.79 28.9356 109.889 30.8731V50H99.6837V17.5586ZM127.339 0.0537933H137.544V31.2786L149.372 17.5586H161.199L147.479 33.3738L162.889 50H151.061L137.544 35.4014V50H127.339V0.0537933ZM168.59 2.75724H178.863V41.4166H200.491V50H168.59V2.75724ZM216.659 51.0138C212.694 51.0138 209.45 50.0225 206.927 48.04C204.448 46.0124 203.209 43.2639 203.209 39.7945C203.209 36.1899 204.403 33.3963 206.791 31.4138C209.179 29.3862 212.559 28.3724 216.929 28.3724C218.867 28.3724 220.714 28.5752 222.471 28.9807C224.229 29.3862 225.783 29.9494 227.135 30.6703V29.8593C227.135 27.8317 226.414 26.3448 224.972 25.3986C223.53 24.4524 221.322 23.9793 218.349 23.9793C214.384 23.9793 210.734 24.7228 207.4 26.2097V18.7752C208.842 18.1444 210.711 17.6262 213.009 17.2207C215.307 16.7701 217.605 16.5448 219.903 16.5448C225.761 16.5448 230.131 17.7614 233.015 20.1945C235.899 22.5825 237.34 25.9393 237.34 30.2648V50H227.743V47.0262C224.995 49.6846 221.3 51.0138 216.659 51.0138ZM219.43 44.2552C221.097 44.2552 222.607 43.9398 223.958 43.309C225.31 42.6782 226.369 41.7995 227.135 40.6731V37.429C224.837 35.897 222.314 35.131 219.565 35.131C217.673 35.131 216.208 35.5366 215.172 36.3476C214.181 37.1136 213.685 38.2625 213.685 39.7945C213.685 41.2363 214.181 42.3402 215.172 43.1062C216.163 43.8722 217.583 44.2552 219.43 44.2552ZM266.129 51.0138C263.606 51.0138 261.353 50.6533 259.371 49.9324C257.433 49.2115 255.631 48.0625 253.964 46.4855V50H244.096V0.0537933H254.302V20.4648C255.744 19.2032 257.501 18.2345 259.574 17.5586C261.646 16.8828 263.832 16.5448 266.129 16.5448C269.509 16.5448 272.483 17.2883 275.051 18.7752C277.664 20.217 279.692 22.2446 281.134 24.8579C282.575 27.4713 283.296 30.4676 283.296 33.8469C283.296 37.2713 282.575 40.2901 281.134 42.9034C279.692 45.4717 277.664 47.4768 275.051 48.9186C272.483 50.3154 269.509 51.0138 266.129 51.0138ZM263.561 43.1062C266.31 43.1062 268.54 42.2726 270.252 40.6055C272.009 38.8933 272.888 36.6405 272.888 33.8469C272.888 31.0533 272.009 28.8005 270.252 27.0883C268.54 25.3761 266.31 24.52 263.561 24.52C261.444 24.52 259.529 25.1057 257.816 26.2772C256.149 27.4037 254.978 28.8906 254.302 30.7379V36.8883C255.023 38.7807 256.217 40.2901 257.884 41.4166C259.551 42.543 261.444 43.1062 263.561 43.1062ZM301.368 51.0138C298.935 51.0138 296.322 50.7434 293.528 50.2028C290.78 49.7071 288.617 48.9862 287.04 48.04V40.0648C288.842 41.1462 291.005 42.0248 293.528 42.7007C296.052 43.3766 298.395 43.7145 300.557 43.7145C302.405 43.7145 303.756 43.5568 304.612 43.2414C305.469 42.926 305.897 42.3402 305.897 41.4841C305.897 40.8083 305.649 40.2676 305.153 39.8621C304.657 39.4115 303.892 39.0285 302.855 38.7131C301.864 38.3526 300.197 37.8345 297.854 37.1586C295.105 36.3476 292.943 35.5366 291.366 34.7255C289.834 33.8694 288.662 32.8106 287.851 31.549C287.085 30.2874 286.702 28.6653 286.702 26.6828C286.702 23.3034 288.031 20.7802 290.69 19.1131C293.393 17.4009 297.043 16.5448 301.639 16.5448C303.892 16.5448 306.212 16.7926 308.6 17.2883C311.033 17.7388 312.903 18.3471 314.21 19.1131V26.8855C312.903 26.0294 311.191 25.331 309.073 24.7903C307 24.2497 304.973 23.9793 302.99 23.9793C301.143 23.9793 299.701 24.1595 298.665 24.52C297.674 24.8805 297.178 25.5563 297.178 26.5476C297.178 27.4037 297.651 28.057 298.597 28.5076C299.589 28.9582 301.413 29.5214 304.072 30.1972L305.423 30.5352C308.262 31.3011 310.47 32.1572 312.047 33.1034C313.624 34.0046 314.728 35.1085 315.359 36.4152C316.035 37.6768 316.372 39.2763 316.372 41.2138C316.372 44.1876 315.088 46.5756 312.52 48.3779C309.952 50.1352 306.235 51.0138 301.368 51.0138Z" fill="white"/>
</svg>
