<svg width="64" height="64" viewBox="0 0 64 64" fill="none" xmlns="http://www.w3.org/2000/svg">
<rect width="64" height="64" rx="12" fill="url(#paint0_linear_1159_4)"/>
<g filter="url(#filter0_d_1159_4)">
<path d="M25.7847 34.6049C25.7847 36.7255 25.0447 38.3823 23.5647 39.5752C22.0846 40.746 20.0082 41.3314 17.3352 41.3314C15.9215 41.3314 14.6402 41.1546 13.4915 40.8012C12.3649 40.4477 11.404 39.9507 10.6088 39.3101C9.81353 38.6474 9.20605 37.8521 8.78633 36.9244C8.36662 35.9745 8.15676 34.9252 8.15676 33.7765H12.133C12.133 34.3288 12.2545 34.8479 12.4975 35.3339C12.7626 35.8199 13.1271 36.2396 13.591 36.593C14.0548 36.9244 14.6071 37.1894 15.2477 37.3883C15.8883 37.5871 16.5842 37.6865 17.3352 37.6865C18.6607 37.6865 19.732 37.4214 20.5494 36.8912C21.3888 36.3611 21.8085 35.6763 21.8085 34.8368C21.8085 34.0195 21.4219 33.3568 20.6488 32.8487C19.8756 32.3406 18.6165 31.932 16.8713 31.6227C14.1101 31.1146 12.0999 30.3525 10.8407 29.3364C9.60367 28.3202 8.98515 26.9396 8.98515 25.1945C8.98515 24.2004 9.17291 23.2947 9.54845 22.4774C9.94607 21.66 10.4983 20.9532 11.2052 20.3567C11.9121 19.7603 12.7515 19.2964 13.7235 18.965C14.6955 18.6337 15.7668 18.468 16.9376 18.468C18.1084 18.468 19.1798 18.6337 20.1517 18.965C21.1458 19.2964 21.9963 19.7713 22.7032 20.3899C23.41 20.9863 23.9623 21.7042 24.3599 22.5436C24.7575 23.361 24.9564 24.2667 24.9564 25.2607H20.9801C20.9801 24.333 20.6046 23.5819 19.8535 23.0075C19.1025 22.4111 18.1194 22.1129 16.9045 22.1129C15.7337 22.1129 14.7838 22.3559 14.0548 22.8419C13.3259 23.3058 12.9614 23.9243 12.9614 24.6974C12.9614 25.4706 13.359 26.1002 14.1543 26.5862C14.9495 27.0721 16.2639 27.5029 18.0974 27.8784C19.4669 28.1435 20.6377 28.4749 21.6097 28.8725C22.5817 29.248 23.3769 29.7119 23.9954 30.2642C24.614 30.7943 25.0668 31.4239 25.354 32.1529C25.6411 32.8598 25.7847 33.6771 25.7847 34.6049ZM36.5483 28.4086C35.3996 28.4086 34.4718 28.751 33.7649 29.4358C33.0801 30.0985 32.7377 30.9931 32.7377 32.1197V41H29.0928V32.1197C29.0928 31.0594 29.2806 30.0764 29.6561 29.1707C30.0317 28.265 30.5508 27.4918 31.2135 26.8512C31.8762 26.1885 32.6604 25.6805 33.5661 25.327C34.4718 24.9515 35.4658 24.7637 36.5483 24.7637C37.719 24.7637 38.7794 24.9736 39.7293 25.3933C40.6791 25.813 41.4854 26.3984 42.1481 27.1495C42.8329 26.3984 43.6503 25.813 44.6001 25.3933C45.55 24.9736 46.6103 24.7637 47.7811 24.7637C48.8635 24.7637 49.8576 24.9515 50.7633 25.327C51.669 25.6805 52.4532 26.1885 53.1159 26.8512C53.7786 27.4918 54.2867 28.265 54.6401 29.1707C55.0157 30.0764 55.2034 31.0594 55.2034 32.1197V41H51.5586V32.1197C51.5586 30.9931 51.2162 30.0985 50.5314 29.4358C49.8466 28.751 48.9298 28.4086 47.7811 28.4086C46.6324 28.4086 45.7047 28.751 44.9978 29.4358C44.313 30.0985 43.9706 30.9931 43.9706 32.1197V41H40.3257V32.1197C40.3257 30.9931 39.9833 30.0985 39.2985 29.4358C38.6137 28.751 37.697 28.4086 36.5483 28.4086Z" fill="white"/>
</g>
<defs>
<filter id="filter0_d_1159_4" x="8.15625" y="18.468" width="51.0469" height="26.8633" filterUnits="userSpaceOnUse" color-interpolation-filters="sRGB">
<feFlood flood-opacity="0" result="BackgroundImageFix"/>
<feColorMatrix in="SourceAlpha" type="matrix" values="0 0 0 0 0 0 0 0 0 0 0 0 0 0 0 0 0 0 127 0" result="hardAlpha"/>
<feOffset dx="2" dy="2"/>
<feGaussianBlur stdDeviation="1"/>
<feComposite in2="hardAlpha" operator="out"/>
<feColorMatrix type="matrix" values="0 0 0 0 0 0 0 0 0 0 0 0 0 0 0 0 0 0 0.25 0"/>
<feBlend mode="normal" in2="BackgroundImageFix" result="effect1_dropShadow_1159_4"/>
<feBlend mode="normal" in="SourceGraphic" in2="effect1_dropShadow_1159_4" result="shape"/>
</filter>
<linearGradient id="paint0_linear_1159_4" x1="-1.47265e-07" y1="32" x2="64" y2="37.75" gradientUnits="userSpaceOnUse">
<stop stop-color="#0C89F6"/>
<stop offset="0.74053" stop-color="#05ADD3"/>
</linearGradient>
</defs>
</svg>
