<svg width="468" height="69" viewBox="0 0 468 69" fill="none" xmlns="http://www.w3.org/2000/svg">
<path d="M52.3808 48.3188C52.3808 54.557 50.2039 59.4306 45.8502 62.9396C41.4965 66.3836 35.3883 68.1056 27.5255 68.1056C23.3668 68.1056 19.5979 67.5857 16.2188 66.546C12.9048 65.5063 10.0781 64.0443 7.73882 62.1598C5.3995 60.2104 3.61252 57.8711 2.37788 55.1419C1.14324 52.3477 0.525922 49.2611 0.525922 45.8821H12.2225C12.2225 47.5066 12.5799 49.0336 13.2947 50.4632C14.0745 51.8928 15.1467 53.1274 16.5113 54.1671C17.8759 55.1419 19.5004 55.9216 21.3848 56.5065C23.2693 57.0913 25.3162 57.3837 27.5255 57.3837C31.4244 57.3837 34.576 56.6039 36.9803 55.0444C39.4496 53.4848 40.6842 51.4704 40.6842 49.0011C40.6842 46.5968 39.547 44.6474 37.2727 43.1529C34.9984 41.6583 31.2944 40.4561 26.1609 39.5464C18.0383 38.0518 12.125 35.81 8.42112 32.8209C4.78218 29.8317 2.96271 25.7704 2.96271 20.6369C2.96271 17.7128 3.51505 15.0486 4.61973 12.6443C5.78939 10.24 7.41391 8.16056 9.49331 6.40607C11.5727 4.65158 14.042 3.28698 16.9011 2.31227C19.7603 1.33755 22.9119 0.850194 26.3559 0.850194C29.7999 0.850194 32.9515 1.33755 35.8106 2.31227C38.7348 3.28698 41.2365 4.68407 43.3159 6.50354C45.3953 8.25803 47.0199 10.3699 48.1895 12.8392C49.3592 15.2435 49.944 17.9077 49.944 20.8319H38.2474C38.2474 18.1027 37.1427 15.8933 34.9334 14.2038C32.724 12.4493 29.8324 11.5721 26.2584 11.5721C22.8144 11.5721 20.0202 12.2869 17.8759 13.7164C15.7315 15.081 14.6593 16.9005 14.6593 19.1748C14.6593 21.4492 15.829 23.3011 18.1683 24.7307C20.5076 26.1603 24.374 27.4274 29.7674 28.5321C33.7962 29.3119 37.2402 30.2866 40.0994 31.4563C42.9585 32.5609 45.2979 33.9255 47.1173 35.5501C48.9368 37.1096 50.2689 38.9616 51.1137 41.1059C51.9584 43.1853 52.3808 45.5896 52.3808 48.3188ZM84.0431 30.0917C80.664 30.0917 77.9348 31.0989 75.8555 33.1133C73.841 35.0627 72.8338 37.6944 72.8338 41.0085V67.1309H62.112V41.0085C62.112 37.8894 62.6643 34.9977 63.769 32.3335C64.8737 29.6693 66.4007 27.3949 68.3501 25.5105C70.2996 23.5611 72.6064 22.0665 75.2706 21.0268C77.9348 19.9221 80.859 19.3698 84.0431 19.3698C87.4871 19.3698 90.6061 19.9871 93.4003 21.2218C96.1945 22.4564 98.5663 24.1784 100.516 26.3877C102.53 24.1784 104.934 22.4564 107.729 21.2218C110.523 19.9871 113.642 19.3698 117.086 19.3698C120.27 19.3698 123.194 19.9221 125.858 21.0268C128.523 22.0665 130.829 23.5611 132.779 25.5105C134.728 27.3949 136.223 29.6693 137.263 32.3335C138.367 34.9977 138.92 37.8894 138.92 41.0085V67.1309H128.198V41.0085C128.198 37.6944 127.19 35.0627 125.176 33.1133C123.162 31.0989 120.465 30.0917 117.086 30.0917C113.707 30.0917 110.978 31.0989 108.898 33.1133C106.884 35.0627 105.877 37.6944 105.877 41.0085V67.1309H95.1548V41.0085C95.1548 37.6944 94.1476 35.0627 92.1332 33.1133C90.1188 31.0989 87.4221 30.0917 84.0431 30.0917ZM170.568 30.0917C167.124 30.0917 164.395 31.0339 162.38 32.9183C160.366 34.8028 159.359 37.3695 159.359 40.6186V67.1309H148.637V41.0085C148.637 37.6944 149.157 34.7053 150.197 32.0411C151.236 29.3769 152.698 27.1025 154.583 25.2181C156.532 23.3336 158.839 21.9041 161.503 20.9293C164.232 19.8896 167.254 19.3698 170.568 19.3698V30.0917ZM217.152 20.3445C217.152 25.0881 216.145 29.3119 214.13 33.0158C212.116 36.6547 209.257 39.6114 205.553 41.8857C207.372 43.1853 209.062 44.8099 210.621 46.7593C212.246 48.7087 213.838 51.0481 215.397 53.7773L223.098 67.1309H210.719L204.578 56.5065C203.473 54.622 202.369 53.0625 201.264 51.8278C200.224 50.5282 199.087 49.4885 197.853 48.7087C196.618 47.929 195.253 47.3766 193.759 47.0517C192.264 46.7268 190.542 46.5644 188.593 46.5644H188.105V67.1309H177.384V1.82491H188.105V36.0374H189.08C194.603 36.0374 198.86 34.6728 201.849 31.9436C204.903 29.1494 206.43 25.2831 206.43 20.3445H217.152ZM224.075 43.7377C224.075 40.2937 224.692 37.1096 225.927 34.1855C227.226 31.1963 228.948 28.5971 231.093 26.3877C233.302 24.1784 235.901 22.4564 238.89 21.2218C241.879 19.9871 245.064 19.3698 248.443 19.3698C251.887 19.3698 255.071 19.9871 257.995 21.2218C260.984 22.4564 263.583 24.1784 265.792 26.3877C268.002 28.5971 269.724 31.1963 270.958 34.1855C272.193 37.1096 272.81 40.2937 272.81 43.7377C272.81 47.1167 272.193 50.3008 270.958 53.2899C269.724 56.279 268.002 58.8783 265.792 61.0876C263.583 63.232 260.984 64.954 257.995 66.2536C255.071 67.4883 251.887 68.1056 248.443 68.1056C245.064 68.1056 241.879 67.4883 238.89 66.2536C235.901 64.954 233.302 63.232 231.093 61.0876C228.948 58.8783 227.226 56.279 225.927 53.2899C224.692 50.3008 224.075 47.1167 224.075 43.7377ZM234.797 43.7377C234.797 45.6871 235.154 47.5066 235.869 49.1961C236.584 50.8206 237.526 52.2502 238.695 53.4848C239.93 54.6545 241.36 55.5967 242.984 56.3115C244.674 57.0263 246.493 57.3837 248.443 57.3837C250.392 57.3837 252.179 57.0263 253.803 56.3115C255.493 55.5967 256.955 54.6545 258.19 53.4848C259.424 52.2502 260.367 50.8206 261.016 49.1961C261.731 47.5066 262.089 45.6871 262.089 43.7377C262.089 41.7883 261.731 40.0013 261.016 38.3767C260.367 36.6872 259.424 35.2252 258.19 33.9905C256.955 32.7559 255.493 31.8137 253.803 31.1639C252.179 30.4491 250.392 30.0917 248.443 30.0917C246.493 30.0917 244.674 30.4491 242.984 31.1639C241.36 31.8137 239.93 32.7559 238.695 33.9905C237.526 35.2252 236.584 36.6872 235.869 38.3767C235.154 40.0013 234.797 41.7883 234.797 43.7377ZM302.497 30.0917C299.118 30.0917 296.389 31.0989 294.31 33.1133C292.295 35.0627 291.288 37.6944 291.288 41.0085V67.1309H280.566V41.0085C280.566 37.8894 281.119 34.9977 282.223 32.3335C283.328 29.6693 284.855 27.3949 286.804 25.5105C288.754 23.5611 291.061 22.0665 293.725 21.0268C296.389 19.9221 299.313 19.3698 302.497 19.3698C305.941 19.3698 309.06 19.9871 311.855 21.2218C314.649 22.4564 317.021 24.1784 318.97 26.3877C320.985 24.1784 323.389 22.4564 326.183 21.2218C328.977 19.9871 332.096 19.3698 335.54 19.3698C338.724 19.3698 341.648 19.9221 344.313 21.0268C346.977 22.0665 349.284 23.5611 351.233 25.5105C353.183 27.3949 354.677 29.6693 355.717 32.3335C356.822 34.9977 357.374 37.8894 357.374 41.0085V67.1309H346.652V41.0085C346.652 37.6944 345.645 35.0627 343.63 33.1133C341.616 31.0989 338.919 30.0917 335.54 30.0917C332.161 30.0917 329.432 31.0989 327.353 33.1133C325.338 35.0627 324.331 37.6944 324.331 41.0085V67.1309H313.609V41.0085C313.609 37.6944 312.602 35.0627 310.588 33.1133C308.573 31.0989 305.876 30.0917 302.497 30.0917ZM365.142 43.7377C365.142 40.2287 365.727 36.9797 366.896 33.9905C368.131 31.0014 369.821 28.4346 371.965 26.2903C374.109 24.0809 376.644 22.3914 379.568 21.2218C382.557 19.9871 385.806 19.3698 389.315 19.3698C392.824 19.3698 396.04 19.9871 398.965 21.2218C401.954 22.3914 404.52 24.0809 406.665 26.2903C408.809 28.4346 410.466 31.0014 411.636 33.9905C412.87 36.9797 413.488 40.2287 413.488 43.7377C413.488 44.1926 413.455 44.6474 413.39 45.1023C413.39 45.4922 413.325 46.012 413.195 46.6618H376.059C376.644 49.9759 378.073 52.6076 380.347 54.557C382.687 56.4415 385.676 57.3837 389.315 57.3837C391.784 57.3837 393.961 56.9288 395.845 56.0191C397.795 55.1094 399.354 53.7773 400.524 52.0228H412.221C411.441 54.492 410.336 56.7339 408.907 58.7483C407.477 60.6977 405.755 62.3872 403.741 63.8168C401.791 65.1814 399.582 66.2536 397.113 67.0334C394.708 67.7482 392.109 68.1056 389.315 68.1056C385.806 68.1056 382.557 67.5207 379.568 66.3511C376.644 65.1164 374.109 63.4269 371.965 61.2826C369.821 59.1382 368.131 56.5714 366.896 53.5823C365.727 50.5932 365.142 47.3116 365.142 43.7377ZM402.084 38.8641C401.174 36.1349 399.614 33.9905 397.405 32.431C395.196 30.8714 392.499 30.0917 389.315 30.0917C386.066 30.0917 383.337 30.8714 381.127 32.431C378.918 33.9905 377.391 36.1349 376.546 38.8641H402.084ZM456.343 1.82491H467.064V49.586H456.343V43.2503C456.343 41.3659 455.985 39.6439 455.27 38.0843C454.621 36.4598 453.711 35.0627 452.541 33.8931C451.372 32.7234 449.974 31.8137 448.35 31.1639C446.79 30.4491 445.068 30.0917 443.184 30.0917C441.364 30.0917 439.642 30.4491 438.018 31.1639C436.458 31.8137 435.061 32.7234 433.827 33.8931C432.657 35.0627 431.715 36.4598 431 38.0843C430.35 39.6439 430.025 41.3659 430.025 43.2503C430.025 45.0698 430.35 46.7918 431 48.4163C431.715 50.0408 432.657 51.4379 433.827 52.6076C435.061 53.7773 436.458 54.7195 438.018 55.4343C439.642 56.0841 441.364 56.409 443.184 56.409H467.064V67.1309H443.184C439.87 67.1309 436.751 66.5135 433.827 65.2789C430.902 64.0443 428.368 62.3548 426.224 60.2104C424.079 58.066 422.39 55.5642 421.155 52.7051C419.921 49.7809 419.303 46.6293 419.303 43.2503C419.303 39.9363 419.888 36.8172 421.058 33.8931C422.292 30.9689 423.917 28.4346 425.931 26.2903C428.011 24.1459 430.448 22.4564 433.242 21.2218C436.101 19.9871 439.123 19.3698 442.307 19.3698C445.036 19.3698 447.57 19.7922 449.909 20.6369C452.249 21.4817 454.393 22.6513 456.343 24.1459V1.82491Z" fill="url(#paint0_linear_1159_3)"/>
<defs>
<linearGradient id="paint0_linear_1159_3" x1="-4.34766" y1="40.7372" x2="472.349" y2="40.7372" gradientUnits="userSpaceOnUse">
<stop offset="0.175951" stop-color="#0E83FC"/>
<stop offset="0.725309" stop-color="#06AED4"/>
</linearGradient>
</defs>
</svg>
